<svg id="svg" version="1.1" xmlns="http://www.w3.org/2000/svg" xmlns:xlink="http://www.w3.org/1999/xlink" width="400" height="400" viewBox="0, 0, 400,400"><g id="svgg"><path id="path0" d="M182.845 50.145 C 182.518 50.539,182.422 56.342,182.500 71.045 L 182.607 91.400 182.763 70.800 C 182.851 59.082,183.046 51.235,183.215 52.600 C 183.379 53.920,183.533 59.680,183.558 65.400 C 183.583 71.120,183.720 78.365,183.864 81.500 L 184.124 87.200 189.691 87.200 C 195.453 87.200,196.400 86.950,196.400 85.429 C 196.400 85.083,196.580 84.800,196.800 84.800 C 197.020 84.800,197.200 84.440,197.200 84.000 C 197.200 83.560,197.380 83.200,197.600 83.200 C 197.820 83.200,198.000 82.840,198.000 82.400 C 198.000 81.960,198.180 81.600,198.400 81.600 C 198.620 81.600,198.800 81.240,198.800 80.800 C 198.800 80.360,198.980 80.000,199.200 80.000 C 199.420 80.000,199.600 79.640,199.600 79.200 C 199.600 78.760,199.780 78.400,200.000 78.400 C 200.220 78.400,200.400 78.130,200.400 77.800 C 200.400 77.470,200.580 77.200,200.800 77.200 C 201.020 77.200,201.200 76.660,201.200 76.000 C 201.200 75.340,201.380 74.800,201.600 74.800 C 201.820 74.800,202.000 74.440,202.000 74.000 C 202.000 73.560,202.180 73.200,202.400 73.200 C 202.620 73.200,202.800 72.840,202.800 72.400 C 202.800 71.960,202.980 71.600,203.200 71.600 C 203.420 71.600,203.600 71.240,203.600 70.800 C 203.600 70.360,203.780 70.000,204.000 70.000 C 204.220 70.000,204.400 69.640,204.400 69.200 C 204.400 68.760,204.580 68.400,204.800 68.400 C 205.020 68.400,205.200 68.040,205.200 67.600 C 205.200 67.160,205.380 66.800,205.600 66.800 C 205.820 66.800,206.000 66.440,206.000 66.000 C 206.000 65.560,206.180 65.200,206.400 65.200 C 206.620 65.200,206.800 64.660,206.800 64.000 C 206.800 63.340,206.980 62.800,207.200 62.800 C 207.420 62.800,207.600 62.440,207.600 62.000 C 207.600 61.560,207.780 61.200,208.000 61.200 C 208.220 61.200,208.400 60.930,208.400 60.600 C 208.400 60.270,208.580 60.000,208.800 60.000 C 209.020 60.000,209.200 59.640,209.200 59.200 C 209.200 58.760,209.360 58.400,209.555 58.400 C 209.751 58.400,210.034 57.744,210.184 56.943 C 210.652 54.449,210.811 54.400,218.371 54.400 L 225.200 54.400 225.200 52.000 L 225.200 49.600 204.249 49.600 C 187.045 49.600,183.217 49.698,182.845 50.145 M82.880 100.080 C 82.145 100.815,82.219 140.728,82.957 141.700 C 83.578 142.519,124.499 142.811,125.000 142.000 C 125.164 141.735,118.171 141.600,104.324 141.600 L 83.400 141.600 83.538 139.604 L 83.677 137.607 104.338 137.504 L 125.000 137.400 125.104 118.500 L 125.208 99.600 104.284 99.600 C 88.543 99.600,83.241 99.719,82.880 100.080 M133.200 118.500 L 133.200 137.400 153.200 137.293 C 172.836 137.187,173.200 137.171,173.200 136.393 C 173.200 135.957,173.380 135.600,173.600 135.600 C 173.820 135.600,174.000 135.960,174.000 136.400 C 174.000 136.840,174.180 137.200,174.400 137.200 C 174.660 137.200,174.800 131.887,174.800 122.061 C 174.800 113.735,174.917 105.275,175.060 103.261 L 175.320 99.600 154.260 99.600 L 133.200 99.600 133.200 118.500 M183.200 102.000 C 183.200 103.333,183.378 104.400,183.600 104.400 C 183.839 104.400,184.000 105.933,184.000 108.200 C 184.000 110.467,184.161 112.000,184.400 112.000 C 184.620 112.000,184.800 111.550,184.800 111.000 C 184.800 110.450,184.980 110.000,185.200 110.000 C 185.420 110.000,185.600 109.640,185.600 109.200 C 185.600 108.760,185.780 108.400,186.000 108.400 C 186.220 108.400,186.400 108.040,186.400 107.600 C 186.400 107.160,186.580 106.800,186.800 106.800 C 187.020 106.800,187.200 106.517,187.200 106.171 C 187.200 104.432,187.391 104.413,206.667 104.304 L 225.000 104.200 225.120 101.900 L 225.240 99.600 204.220 99.600 L 183.200 99.600 183.200 102.000 M132.586 120.800 C 132.586 132.130,132.637 136.765,132.700 131.100 C 132.762 125.435,132.762 116.165,132.700 110.500 C 132.637 104.835,132.586 109.470,132.586 120.800 M182.582 116.000 C 182.582 124.690,182.635 128.245,182.700 123.900 C 182.764 119.555,182.764 112.445,182.700 108.100 C 182.635 103.755,182.582 107.310,182.582 116.000 M310.800 133.600 C 310.800 134.341,310.607 134.589,307.900 137.329 C 306.415 138.832,305.200 140.317,305.200 140.631 C 305.200 140.944,305.020 141.200,304.800 141.200 C 304.580 141.200,304.400 141.545,304.400 141.967 C 304.400 142.388,304.265 142.793,304.100 142.867 C 303.722 143.035,302.217 146.119,301.547 148.100 C 301.268 148.925,300.895 149.600,300.720 149.600 C 300.544 149.600,300.400 150.219,300.400 150.976 C 300.400 151.733,300.240 152.452,300.044 152.573 C 299.695 152.789,299.374 154.220,298.962 157.400 C 298.848 158.280,298.597 159.360,298.405 159.800 C 297.753 161.295,297.154 170.480,297.623 171.800 C 297.831 172.387,297.976 172.067,298.165 170.600 C 298.417 168.641,298.752 166.718,299.645 162.100 C 301.535 152.324,304.898 145.403,310.462 139.840 L 312.822 137.481 313.711 138.276 C 314.200 138.713,315.320 139.495,316.200 140.013 C 328.039 146.984,340.659 162.555,344.631 175.090 L 345.756 178.640 352.578 178.638 C 356.330 178.638,360.750 178.862,362.400 179.138 C 367.247 179.946,371.910 180.933,374.000 181.592 C 374.550 181.765,375.810 182.133,376.800 182.409 C 380.509 183.444,387.159 185.760,391.839 187.648 C 397.820 190.061,400.746 190.105,395.645 187.706 C 394.850 187.332,393.851 186.705,393.425 186.313 C 392.998 185.921,392.437 185.600,392.179 185.600 C 391.920 185.600,391.250 185.240,390.691 184.800 C 390.131 184.360,389.421 184.000,389.112 184.000 C 388.804 184.000,388.164 183.640,387.692 183.200 C 387.220 182.760,386.578 182.400,386.266 182.400 C 385.953 182.400,385.474 182.130,385.200 181.800 C 384.926 181.470,384.377 181.200,383.980 181.200 C 383.582 181.200,383.019 180.968,382.729 180.686 C 382.438 180.403,381.766 180.142,381.236 180.106 C 380.706 180.070,380.166 179.878,380.036 179.679 C 379.797 179.313,374.987 177.651,371.500 176.728 C 370.455 176.452,369.600 176.120,369.600 175.991 C 369.600 175.862,368.835 175.712,367.900 175.657 C 366.965 175.602,366.029 175.387,365.820 175.179 C 365.611 174.970,364.565 174.800,363.496 174.800 C 362.414 174.800,361.654 174.637,361.780 174.432 C 361.916 174.213,358.893 174.045,354.327 174.017 C 346.226 173.968,345.600 173.833,345.600 172.132 C 345.600 171.598,345.240 170.416,344.800 169.506 C 344.360 168.595,344.000 167.524,344.000 167.125 C 344.000 166.726,343.820 166.400,343.600 166.400 C 343.380 166.400,343.200 166.128,343.200 165.795 C 343.200 165.202,342.434 163.596,341.962 163.200 C 341.755 163.027,341.416 161.932,341.157 160.600 C 341.114 160.380,340.829 160.017,340.523 159.793 C 339.990 159.404,339.440 158.561,338.316 156.415 C 338.032 155.873,337.398 154.996,336.907 154.465 C 336.417 153.934,336.092 153.375,336.186 153.223 C 336.280 153.070,336.007 152.693,335.579 152.385 C 335.150 152.076,334.800 151.605,334.800 151.339 C 334.800 151.072,334.299 150.497,333.686 150.061 C 333.073 149.625,332.326 148.808,332.025 148.247 C 331.725 147.686,331.327 147.322,331.140 147.437 C 330.953 147.553,330.800 147.356,330.800 147.000 C 330.800 146.644,330.647 146.447,330.460 146.563 C 330.273 146.678,329.899 146.358,329.627 145.851 C 329.356 145.344,328.756 144.675,328.295 144.364 C 327.833 144.054,326.709 143.080,325.796 142.200 C 324.883 141.320,323.341 139.977,322.368 139.215 C 321.396 138.453,320.540 137.688,320.467 137.515 C 320.393 137.342,320.078 137.200,319.767 137.200 C 319.455 137.200,319.200 137.020,319.200 136.800 C 319.200 136.580,318.919 136.400,318.576 136.400 C 318.207 136.400,318.069 136.212,318.238 135.938 C 318.395 135.684,318.350 135.584,318.137 135.715 C 317.654 136.014,315.494 134.640,315.863 134.270 C 316.012 134.121,315.754 134.000,315.290 134.000 C 314.827 134.000,314.336 133.820,314.200 133.600 C 314.064 133.380,313.243 133.200,312.376 133.200 C 311.509 133.200,310.800 133.380,310.800 133.600 M133.292 141.825 C 133.561 142.094,154.875 142.058,155.146 141.788 C 155.249 141.685,150.323 141.600,144.200 141.600 C 138.077 141.600,133.168 141.701,133.292 141.825 M33.057 149.907 C 32.740 150.421,32.677 190.948,32.992 191.700 C 33.317 192.475,74.495 192.816,74.970 192.048 C 75.093 191.850,66.157 191.568,54.394 191.400 L 33.600 191.103 33.600 189.351 L 33.600 187.600 54.400 187.600 L 75.200 187.600 75.200 168.600 L 75.200 149.600 54.224 149.600 C 42.687 149.600,33.162 149.738,33.057 149.907 M82.880 150.080 C 82.278 150.682,82.177 191.200,82.777 191.200 C 82.984 191.200,83.209 190.435,83.277 189.500 L 83.400 187.800 94.200 187.553 C 100.140 187.417,109.545 187.282,115.100 187.253 L 125.200 187.200 125.200 168.400 L 125.200 149.600 104.280 149.600 C 88.542 149.600,83.241 149.719,82.880 150.080 M132.845 150.145 C 132.518 150.539,132.422 156.342,132.500 171.045 L 132.607 191.400 132.704 170.833 C 132.757 159.522,132.935 150.402,133.100 150.566 C 133.265 150.731,133.490 158.996,133.600 168.933 L 133.800 187.000 141.700 187.108 C 149.397 187.214,149.600 187.196,149.600 186.408 C 149.600 185.964,149.780 185.600,150.000 185.600 C 150.220 185.600,150.400 185.240,150.400 184.800 C 150.400 184.360,150.580 184.000,150.800 184.000 C 151.020 184.000,151.200 183.640,151.200 183.200 C 151.200 182.760,151.380 182.400,151.600 182.400 C 151.820 182.400,152.000 182.040,152.000 181.600 C 152.000 181.160,152.180 180.800,152.400 180.800 C 152.620 180.800,152.800 180.260,152.800 179.600 C 152.800 178.940,152.980 178.400,153.200 178.400 C 153.420 178.400,153.600 178.130,153.600 177.800 C 153.600 177.470,153.780 177.200,154.000 177.200 C 154.220 177.200,154.400 176.840,154.400 176.400 C 154.400 175.960,154.580 175.600,154.800 175.600 C 155.020 175.600,155.200 175.240,155.200 174.800 C 155.200 174.360,155.380 174.000,155.600 174.000 C 155.820 174.000,156.000 173.640,156.000 173.200 C 156.000 172.760,156.180 172.400,156.400 172.400 C 156.620 172.400,156.800 172.040,156.800 171.600 C 156.800 171.160,156.980 170.800,157.200 170.800 C 157.420 170.800,157.600 170.440,157.600 170.000 C 157.600 169.560,157.780 169.200,158.000 169.200 C 158.220 169.200,158.400 168.660,158.400 168.000 C 158.400 167.340,158.580 166.800,158.800 166.800 C 159.020 166.800,159.200 166.440,159.200 166.000 C 159.200 165.560,159.364 165.200,159.565 165.200 C 159.766 165.200,160.051 164.480,160.200 163.600 C 160.349 162.720,160.634 162.000,160.835 162.000 C 161.036 162.000,161.200 161.640,161.200 161.200 C 161.200 160.760,161.380 160.400,161.600 160.400 C 161.820 160.400,162.000 160.130,162.000 159.800 C 162.000 159.470,162.180 159.200,162.400 159.200 C 162.620 159.200,162.800 158.840,162.800 158.400 C 162.800 157.960,162.980 157.600,163.200 157.600 C 163.420 157.600,163.600 157.137,163.600 156.571 C 163.600 154.675,164.332 154.400,169.371 154.400 L 174.000 154.400 174.000 160.600 C 174.000 164.467,174.151 166.800,174.400 166.800 C 174.645 166.800,174.800 164.887,174.800 161.861 C 174.800 159.145,174.917 155.275,175.060 153.261 L 175.320 149.600 154.309 149.600 C 137.055 149.600,133.217 149.698,132.845 150.145 M183.200 151.757 C 183.200 153.355,183.364 153.977,183.833 154.157 C 184.668 154.478,201.524 154.465,214.700 154.135 L 225.200 153.872 225.200 151.736 L 225.200 149.600 204.200 149.600 L 183.200 149.600 183.200 151.757 M233.200 151.800 L 233.200 154.000 254.200 154.000 L 275.200 154.000 275.200 151.800 L 275.200 149.600 254.200 149.600 L 233.200 149.600 233.200 151.800 M83.400 192.000 C 83.678 192.450,100.438 192.460,115.600 192.021 C 123.483 191.792,121.624 191.736,104.076 191.674 C 90.210 191.625,83.236 191.735,83.400 192.000 M297.179 194.476 C 296.664 196.391,295.861 197.727,295.464 197.331 C 295.319 197.186,295.200 197.248,295.200 197.469 C 295.200 197.941,293.214 198.975,292.530 198.859 C 292.272 198.815,291.946 198.964,291.807 199.189 C 291.634 199.469,245.029 199.600,145.742 199.600 L -0.069 199.600 0.143 212.300 C 0.259 219.285,0.353 225.360,0.352 225.800 C 0.347 228.041,0.480 228.964,0.882 229.475 C 1.088 229.736,1.284 231.401,1.317 233.175 C 1.351 234.949,1.518 236.400,1.689 236.400 C 1.860 236.400,1.999 236.805,1.998 237.300 C 1.995 238.813,4.616 251.810,5.568 255.000 C 5.764 255.660,6.161 257.190,6.450 258.400 C 6.738 259.610,7.088 260.690,7.227 260.800 C 7.471 260.992,7.798 262.153,8.270 264.500 C 8.391 265.105,8.611 265.600,8.758 265.600 C 8.905 265.600,9.271 266.455,9.571 267.500 C 9.871 268.545,10.242 269.580,10.395 269.800 C 10.548 270.020,10.987 271.010,11.370 272.000 C 12.998 276.212,16.996 284.462,18.478 286.672 C 19.095 287.592,19.600 288.458,19.600 288.598 C 19.600 291.394,35.336 309.828,43.200 316.245 C 43.970 316.873,44.690 317.481,44.800 317.596 C 45.004 317.809,46.484 318.897,51.332 322.395 C 52.834 323.479,54.409 324.476,54.832 324.610 C 55.254 324.744,55.600 325.022,55.600 325.227 C 55.600 325.432,55.960 325.600,56.400 325.600 C 56.840 325.600,57.200 325.780,57.200 326.000 C 57.200 326.220,57.470 326.400,57.800 326.400 C 58.130 326.400,58.400 326.580,58.400 326.800 C 58.400 327.020,58.670 327.200,59.000 327.200 C 59.330 327.200,59.600 327.380,59.600 327.600 C 59.600 327.820,59.800 328.000,60.045 328.000 C 60.290 328.000,62.108 328.810,64.086 329.800 C 66.063 330.790,68.023 331.600,68.441 331.600 C 68.858 331.600,69.200 331.780,69.200 332.000 C 69.200 332.220,69.560 332.400,70.000 332.400 C 70.440 332.400,70.800 332.580,70.800 332.800 C 70.800 333.020,71.340 333.200,72.000 333.200 C 72.660 333.200,73.200 333.380,73.200 333.600 C 73.200 333.820,73.560 334.000,74.000 334.000 C 74.440 334.000,74.800 334.180,74.800 334.400 C 74.800 334.620,75.250 334.800,75.800 334.800 C 76.350 334.800,76.800 334.980,76.800 335.200 C 76.800 335.420,77.340 335.600,78.000 335.600 C 78.660 335.600,79.200 335.780,79.200 336.000 C 79.200 336.220,79.380 336.400,79.600 336.400 C 79.820 336.400,80.000 336.040,80.000 335.600 C 80.000 335.160,80.180 334.800,80.400 334.800 C 80.620 334.800,80.800 334.440,80.800 334.000 C 80.800 333.560,80.980 333.200,81.200 333.200 C 81.420 333.200,81.600 332.840,81.600 332.400 C 81.600 331.960,81.780 331.600,82.000 331.600 C 82.220 331.600,82.400 331.060,82.400 330.400 C 82.400 329.740,82.580 329.200,82.800 329.200 C 83.020 329.200,83.200 328.840,83.200 328.400 C 83.200 327.960,83.380 327.600,83.600 327.600 C 83.820 327.600,84.000 327.330,84.000 327.000 C 84.000 326.670,84.180 326.400,84.400 326.400 C 84.620 326.400,84.800 326.040,84.800 325.600 C 84.800 325.160,84.980 324.800,85.200 324.800 C 85.420 324.800,85.600 324.440,85.600 324.000 C 85.600 323.560,85.780 323.200,86.000 323.200 C 86.220 323.200,86.400 322.840,86.400 322.400 C 86.400 321.960,86.580 321.600,86.800 321.600 C 87.020 321.600,87.200 321.240,87.200 320.800 C 87.200 320.360,87.380 320.000,87.600 320.000 C 87.820 320.000,88.000 319.640,88.000 319.200 C 88.000 318.760,88.180 318.400,88.400 318.400 C 88.620 318.400,88.800 317.860,88.800 317.200 C 88.800 316.540,88.980 316.000,89.200 316.000 C 89.420 316.000,89.600 315.640,89.600 315.200 C 89.600 314.760,89.780 314.400,90.000 314.400 C 90.220 314.400,90.400 314.040,90.400 313.600 C 90.400 313.160,90.580 312.800,90.800 312.800 C 91.020 312.800,91.200 312.440,91.200 312.000 C 91.200 311.560,91.380 311.200,91.600 311.200 C 91.820 311.200,92.000 310.930,92.000 310.600 C 92.000 310.270,92.180 310.000,92.400 310.000 C 92.620 310.000,92.800 309.640,92.800 309.200 C 92.800 308.760,92.974 308.400,93.186 308.400 C 93.399 308.400,93.692 307.500,93.838 306.400 C 93.984 305.300,94.260 304.400,94.452 304.400 C 94.643 304.400,94.800 304.040,94.800 303.600 C 94.800 303.160,94.980 302.800,95.200 302.800 C 95.420 302.800,95.600 302.440,95.600 302.000 C 95.600 301.560,95.780 301.200,96.000 301.200 C 96.220 301.200,96.400 300.840,96.400 300.400 C 96.400 299.960,96.580 299.600,96.800 299.600 C 97.020 299.600,97.200 299.240,97.200 298.800 C 97.200 298.360,97.380 298.000,97.600 298.000 C 97.820 298.000,98.000 297.640,98.000 297.200 C 98.000 296.760,98.180 296.400,98.400 296.400 C 98.620 296.400,98.800 296.040,98.800 295.600 C 98.800 295.160,98.980 294.800,99.200 294.800 C 99.420 294.800,99.600 294.350,99.600 293.800 C 99.600 293.250,99.780 292.800,100.000 292.800 C 100.220 292.800,100.400 292.440,100.400 292.000 C 100.400 291.560,100.580 291.200,100.800 291.200 C 101.020 291.200,101.200 290.840,101.200 290.400 C 101.200 289.960,101.380 289.600,101.600 289.600 C 101.820 289.600,102.000 289.240,102.000 288.800 C 102.000 288.360,102.180 288.000,102.400 288.000 C 102.620 288.000,102.800 287.640,102.800 287.200 C 102.800 286.760,102.980 286.400,103.200 286.400 C 103.420 286.400,103.600 286.040,103.600 285.600 C 103.600 285.160,103.780 284.800,104.000 284.800 C 104.220 284.800,104.400 284.440,104.400 284.000 C 104.400 283.560,104.580 283.200,104.800 283.200 C 105.020 283.200,105.200 282.660,105.200 282.000 C 105.200 281.340,105.380 280.800,105.600 280.800 C 105.820 280.800,106.000 280.440,106.000 280.000 C 106.000 279.560,106.180 279.200,106.400 279.200 C 106.620 279.200,106.800 278.840,106.800 278.400 C 106.800 277.960,106.980 277.600,107.200 277.600 C 107.420 277.600,107.600 277.330,107.600 277.000 C 107.600 276.670,107.780 276.400,108.000 276.400 C 108.220 276.400,108.400 276.040,108.400 275.600 C 108.400 275.160,108.580 274.800,108.800 274.800 C 109.020 274.800,109.200 274.440,109.200 274.000 C 109.200 273.560,109.364 273.200,109.565 273.200 C 109.766 273.200,110.051 272.480,110.200 271.600 C 110.349 270.720,110.634 270.000,110.835 270.000 C 111.036 270.000,111.200 269.460,111.200 268.800 C 111.200 268.140,111.380 267.600,111.600 267.600 C 111.820 267.600,112.000 267.240,112.000 266.800 C 112.000 266.360,112.180 266.000,112.400 266.000 C 112.620 266.000,112.800 265.640,112.800 265.200 C 112.800 264.760,112.980 264.400,113.200 264.400 C 113.420 264.400,113.600 264.040,113.600 263.600 C 113.600 263.160,113.780 262.800,114.000 262.800 C 114.220 262.800,114.400 262.440,114.400 262.000 C 114.400 261.560,114.580 261.200,114.800 261.200 C 115.020 261.200,115.200 260.930,115.200 260.600 C 115.200 260.270,115.380 260.000,115.600 260.000 C 115.820 260.000,116.000 259.640,116.000 259.200 C 116.000 258.760,116.180 258.400,116.400 258.400 C 116.620 258.400,116.800 257.860,116.800 257.200 C 116.800 256.540,116.980 256.000,117.200 256.000 C 117.420 256.000,117.600 255.640,117.600 255.200 C 117.600 254.760,117.780 254.400,118.000 254.400 C 118.220 254.400,118.400 254.040,118.400 253.600 C 118.400 253.160,118.580 252.800,118.800 252.800 C 119.020 252.800,119.200 252.440,119.200 252.000 C 119.200 251.560,119.380 251.200,119.600 251.200 C 119.820 251.200,120.000 250.840,120.000 250.400 C 120.000 249.960,120.180 249.600,120.400 249.600 C 120.620 249.600,120.800 249.240,120.800 248.800 C 120.800 248.360,120.980 248.000,121.200 248.000 C 121.420 248.000,121.600 247.640,121.600 247.200 C 121.600 246.760,121.780 246.400,122.000 246.400 C 122.220 246.400,122.400 245.860,122.400 245.200 C 122.400 244.540,122.580 244.000,122.800 244.000 C 123.020 244.000,123.200 243.730,123.200 243.400 C 123.200 243.070,123.380 242.800,123.600 242.800 C 123.820 242.800,124.000 242.440,124.000 242.000 C 124.000 241.560,124.180 241.200,124.400 241.200 C 124.620 241.200,124.800 240.840,124.800 240.400 C 124.800 239.960,124.980 239.600,125.200 239.600 C 125.420 239.600,125.600 239.240,125.600 238.800 C 125.600 238.360,125.780 238.000,126.000 238.000 C 126.220 238.000,126.400 237.640,126.400 237.200 C 126.400 236.760,126.574 236.400,126.786 236.400 C 126.999 236.400,127.292 235.500,127.438 234.400 C 127.584 233.300,127.860 232.400,128.052 232.400 C 128.243 232.400,128.400 232.040,128.400 231.600 C 128.400 231.160,128.580 230.800,128.800 230.800 C 129.020 230.800,129.200 230.440,129.200 230.000 C 129.200 229.560,129.380 229.200,129.600 229.200 C 129.820 229.200,130.000 228.840,130.000 228.400 C 130.000 227.960,130.180 227.600,130.400 227.600 C 130.620 227.600,130.800 227.330,130.800 227.000 C 130.800 226.670,130.980 226.400,131.200 226.400 C 131.420 226.400,131.600 226.040,131.600 225.600 C 131.600 225.160,131.780 224.800,132.000 224.800 C 132.220 224.800,132.400 224.440,132.400 224.000 C 132.400 223.560,132.580 223.200,132.800 223.200 C 133.020 223.200,133.200 222.660,133.200 222.000 C 133.200 221.340,133.380 220.800,133.600 220.800 C 133.820 220.800,134.000 220.440,134.000 220.000 C 134.000 219.560,134.180 219.200,134.400 219.200 C 134.620 219.200,134.800 218.840,134.800 218.400 C 134.800 217.960,134.980 217.600,135.200 217.600 C 135.420 217.600,135.600 217.240,135.600 216.800 C 135.600 216.360,135.780 216.000,136.000 216.000 C 136.220 216.000,136.400 215.640,136.400 215.200 C 136.400 214.760,136.580 214.400,136.800 214.400 C 137.020 214.400,137.200 214.040,137.200 213.600 C 137.200 213.160,137.380 212.800,137.600 212.800 C 137.820 212.800,138.000 212.440,138.000 212.000 C 138.000 211.560,138.180 211.200,138.400 211.200 C 138.620 211.200,138.800 210.750,138.800 210.200 C 138.800 209.650,138.980 209.200,139.200 209.200 C 139.420 209.200,139.600 208.840,139.600 208.400 C 139.600 207.960,139.780 207.600,140.000 207.600 C 140.220 207.600,140.400 207.240,140.400 206.800 C 140.400 206.360,140.580 206.000,140.800 206.000 C 141.020 206.000,141.200 205.670,141.200 205.266 C 141.200 204.403,176.555 204.001,252.320 204.000 C 297.456 204.000,294.303 204.183,296.724 201.426 C 298.239 199.700,298.956 197.235,298.612 194.938 C 298.262 192.604,297.730 192.432,297.179 194.476 " stroke="none" fill="#8699b8" fill-rule="evenodd"></path><path id="path1" d="M182.600 70.987 L 182.600 92.374 203.900 92.393 L 225.200 92.412 225.200 73.406 L 225.200 54.400 218.371 54.400 C 210.811 54.400,210.652 54.449,210.184 56.943 C 210.034 57.744,209.751 58.400,209.555 58.400 C 209.360 58.400,209.200 58.760,209.200 59.200 C 209.200 59.640,209.020 60.000,208.800 60.000 C 208.580 60.000,208.400 60.270,208.400 60.600 C 208.400 60.930,208.220 61.200,208.000 61.200 C 207.780 61.200,207.600 61.560,207.600 62.000 C 207.600 62.440,207.420 62.800,207.200 62.800 C 206.980 62.800,206.800 63.340,206.800 64.000 C 206.800 64.660,206.620 65.200,206.400 65.200 C 206.180 65.200,206.000 65.560,206.000 66.000 C 206.000 66.440,205.820 66.800,205.600 66.800 C 205.380 66.800,205.200 67.160,205.200 67.600 C 205.200 68.040,205.020 68.400,204.800 68.400 C 204.580 68.400,204.400 68.760,204.400 69.200 C 204.400 69.640,204.220 70.000,204.000 70.000 C 203.780 70.000,203.600 70.360,203.600 70.800 C 203.600 71.240,203.420 71.600,203.200 71.600 C 202.980 71.600,202.800 71.960,202.800 72.400 C 202.800 72.840,202.620 73.200,202.400 73.200 C 202.180 73.200,202.000 73.560,202.000 74.000 C 202.000 74.440,201.820 74.800,201.600 74.800 C 201.380 74.800,201.200 75.340,201.200 76.000 C 201.200 76.660,201.020 77.200,200.800 77.200 C 200.580 77.200,200.400 77.470,200.400 77.800 C 200.400 78.130,200.220 78.400,200.000 78.400 C 199.780 78.400,199.600 78.760,199.600 79.200 C 199.600 79.640,199.420 80.000,199.200 80.000 C 198.980 80.000,198.800 80.360,198.800 80.800 C 198.800 81.240,198.620 81.600,198.400 81.600 C 198.180 81.600,198.000 81.960,198.000 82.400 C 198.000 82.840,197.820 83.200,197.600 83.200 C 197.380 83.200,197.200 83.560,197.200 84.000 C 197.200 84.440,197.020 84.800,196.800 84.800 C 196.580 84.800,196.400 85.083,196.400 85.429 C 196.400 86.953,195.456 87.200,189.629 87.200 L 184.000 87.200 183.971 85.900 C 183.955 85.185,183.776 76.950,183.574 67.600 C 183.180 49.435,183.187 49.600,182.833 49.600 C 182.705 49.600,182.600 59.224,182.600 70.987 M132.600 121.000 C 132.600 138.368,132.699 142.400,133.124 142.400 C 133.412 142.400,133.536 142.220,133.400 142.000 C 133.237 141.736,136.940 141.631,144.276 141.690 L 155.400 141.780 144.600 142.000 C 135.525 142.185,137.107 142.234,154.500 142.310 L 175.200 142.400 175.105 123.300 L 175.009 104.200 174.900 120.700 C 174.831 131.236,174.648 137.200,174.396 137.200 C 174.178 137.200,174.000 136.840,174.000 136.400 C 174.000 135.960,173.820 135.600,173.600 135.600 C 173.380 135.600,173.200 135.957,173.200 136.393 C 173.200 137.171,172.836 137.187,153.200 137.293 L 133.200 137.400 133.200 118.500 C 133.200 108.105,133.065 99.600,132.900 99.600 C 132.735 99.600,132.600 109.230,132.600 121.000 M182.557 121.001 L 182.515 142.400 203.857 142.400 L 225.200 142.400 225.200 123.300 L 225.200 104.200 206.764 104.308 C 187.392 104.421,187.200 104.440,187.200 106.171 C 187.200 106.517,187.020 106.800,186.800 106.800 C 186.580 106.800,186.400 107.160,186.400 107.600 C 186.400 108.040,186.220 108.400,186.000 108.400 C 185.780 108.400,185.600 108.760,185.600 109.200 C 185.600 109.640,185.420 110.000,185.200 110.000 C 184.980 110.000,184.800 110.450,184.800 111.000 C 184.800 111.550,184.620 112.000,184.400 112.000 C 184.161 112.000,184.000 110.467,184.000 108.200 C 184.000 105.933,183.839 104.400,183.600 104.400 C 183.378 104.400,183.200 103.333,183.200 102.000 C 183.200 100.680,183.065 99.601,182.900 99.601 C 182.735 99.602,182.581 109.232,182.557 121.001 M311.600 132.800 C 311.600 133.020,312.050 133.200,312.600 133.200 C 313.150 133.200,313.600 133.020,313.600 132.800 C 313.600 132.580,313.150 132.400,312.600 132.400 C 312.050 132.400,311.600 132.580,311.600 132.800 M309.270 135.252 C 308.758 135.883,308.451 136.400,308.588 136.400 C 309.044 136.400,310.798 134.446,310.497 134.274 C 310.333 134.180,309.781 134.621,309.270 135.252 M104.322 137.500 L 83.644 137.607 83.522 139.504 C 83.441 140.759,83.231 141.366,82.900 141.300 C 82.625 141.245,82.400 141.470,82.400 141.800 C 82.400 142.130,82.580 142.400,82.800 142.400 C 83.020 142.400,83.200 142.220,83.200 142.000 C 83.200 141.738,90.467 141.600,104.200 141.600 L 125.200 141.600 125.200 139.400 C 125.200 138.190,125.155 137.243,125.100 137.296 C 125.045 137.349,115.695 137.441,104.322 137.500 M310.462 139.840 C 304.918 145.383,301.507 152.386,299.669 162.000 C 298.657 167.293,298.407 168.717,298.162 170.600 C 297.962 172.140,297.829 172.416,297.585 171.800 C 297.206 170.841,297.356 187.993,297.744 190.000 C 299.117 197.091,298.957 198.882,296.724 201.426 C 294.303 204.183,297.456 204.000,252.320 204.000 C 176.555 204.001,141.200 204.403,141.200 205.266 C 141.200 205.670,141.020 206.000,140.800 206.000 C 140.580 206.000,140.400 206.360,140.400 206.800 C 140.400 207.240,140.220 207.600,140.000 207.600 C 139.780 207.600,139.600 207.960,139.600 208.400 C 139.600 208.840,139.420 209.200,139.200 209.200 C 138.980 209.200,138.800 209.650,138.800 210.200 C 138.800 210.750,138.620 211.200,138.400 211.200 C 138.180 211.200,138.000 211.560,138.000 212.000 C 138.000 212.440,137.820 212.800,137.600 212.800 C 137.380 212.800,137.200 213.160,137.200 213.600 C 137.200 214.040,137.020 214.400,136.800 214.400 C 136.580 214.400,136.400 214.760,136.400 215.200 C 136.400 215.640,136.220 216.000,136.000 216.000 C 135.780 216.000,135.600 216.360,135.600 216.800 C 135.600 217.240,135.420 217.600,135.200 217.600 C 134.980 217.600,134.800 217.960,134.800 218.400 C 134.800 218.840,134.620 219.200,134.400 219.200 C 134.180 219.200,134.000 219.560,134.000 220.000 C 134.000 220.440,133.820 220.800,133.600 220.800 C 133.380 220.800,133.200 221.340,133.200 222.000 C 133.200 222.660,133.020 223.200,132.800 223.200 C 132.580 223.200,132.400 223.560,132.400 224.000 C 132.400 224.440,132.220 224.800,132.000 224.800 C 131.780 224.800,131.600 225.160,131.600 225.600 C 131.600 226.040,131.420 226.400,131.200 226.400 C 130.980 226.400,130.800 226.670,130.800 227.000 C 130.800 227.330,130.620 227.600,130.400 227.600 C 130.180 227.600,130.000 227.960,130.000 228.400 C 130.000 228.840,129.820 229.200,129.600 229.200 C 129.380 229.200,129.200 229.560,129.200 230.000 C 129.200 230.440,129.020 230.800,128.800 230.800 C 128.580 230.800,128.400 231.160,128.400 231.600 C 128.400 232.040,128.243 232.400,128.052 232.400 C 127.860 232.400,127.584 233.300,127.438 234.400 C 127.292 235.500,126.999 236.400,126.786 236.400 C 126.574 236.400,126.400 236.760,126.400 237.200 C 126.400 237.640,126.220 238.000,126.000 238.000 C 125.780 238.000,125.600 238.360,125.600 238.800 C 125.600 239.240,125.420 239.600,125.200 239.600 C 124.980 239.600,124.800 239.960,124.800 240.400 C 124.800 240.840,124.620 241.200,124.400 241.200 C 124.180 241.200,124.000 241.560,124.000 242.000 C 124.000 242.440,123.820 242.800,123.600 242.800 C 123.380 242.800,123.200 243.070,123.200 243.400 C 123.200 243.730,123.020 244.000,122.800 244.000 C 122.580 244.000,122.400 244.540,122.400 245.200 C 122.400 245.860,122.220 246.400,122.000 246.400 C 121.780 246.400,121.600 246.760,121.600 247.200 C 121.600 247.640,121.420 248.000,121.200 248.000 C 120.980 248.000,120.800 248.360,120.800 248.800 C 120.800 249.240,120.620 249.600,120.400 249.600 C 120.180 249.600,120.000 249.960,120.000 250.400 C 120.000 250.840,119.820 251.200,119.600 251.200 C 119.380 251.200,119.200 251.560,119.200 252.000 C 119.200 252.440,119.020 252.800,118.800 252.800 C 118.580 252.800,118.400 253.160,118.400 253.600 C 118.400 254.040,118.220 254.400,118.000 254.400 C 117.780 254.400,117.600 254.760,117.600 255.200 C 117.600 255.640,117.420 256.000,117.200 256.000 C 116.980 256.000,116.800 256.540,116.800 257.200 C 116.800 257.860,116.620 258.400,116.400 258.400 C 116.180 258.400,116.000 258.760,116.000 259.200 C 116.000 259.640,115.820 260.000,115.600 260.000 C 115.380 260.000,115.200 260.270,115.200 260.600 C 115.200 260.930,115.020 261.200,114.800 261.200 C 114.580 261.200,114.400 261.560,114.400 262.000 C 114.400 262.440,114.220 262.800,114.000 262.800 C 113.780 262.800,113.600 263.160,113.600 263.600 C 113.600 264.040,113.420 264.400,113.200 264.400 C 112.980 264.400,112.800 264.760,112.800 265.200 C 112.800 265.640,112.620 266.000,112.400 266.000 C 112.180 266.000,112.000 266.360,112.000 266.800 C 112.000 267.240,111.820 267.600,111.600 267.600 C 111.380 267.600,111.200 268.140,111.200 268.800 C 111.200 269.460,111.036 270.000,110.835 270.000 C 110.634 270.000,110.349 270.720,110.200 271.600 C 110.051 272.480,109.766 273.200,109.565 273.200 C 109.364 273.200,109.200 273.560,109.200 274.000 C 109.200 274.440,109.020 274.800,108.800 274.800 C 108.580 274.800,108.400 275.160,108.400 275.600 C 108.400 276.040,108.220 276.400,108.000 276.400 C 107.780 276.400,107.600 276.670,107.600 277.000 C 107.600 277.330,107.420 277.600,107.200 277.600 C 106.980 277.600,106.800 277.960,106.800 278.400 C 106.800 278.840,106.620 279.200,106.400 279.200 C 106.180 279.200,106.000 279.560,106.000 280.000 C 106.000 280.440,105.820 280.800,105.600 280.800 C 105.380 280.800,105.200 281.340,105.200 282.000 C 105.200 282.660,105.020 283.200,104.800 283.200 C 104.580 283.200,104.400 283.560,104.400 284.000 C 104.400 284.440,104.220 284.800,104.000 284.800 C 103.780 284.800,103.600 285.160,103.600 285.600 C 103.600 286.040,103.420 286.400,103.200 286.400 C 102.980 286.400,102.800 286.760,102.800 287.200 C 102.800 287.640,102.620 288.000,102.400 288.000 C 102.180 288.000,102.000 288.360,102.000 288.800 C 102.000 289.240,101.820 289.600,101.600 289.600 C 101.380 289.600,101.200 289.960,101.200 290.400 C 101.200 290.840,101.020 291.200,100.800 291.200 C 100.580 291.200,100.400 291.560,100.400 292.000 C 100.400 292.440,100.220 292.800,100.000 292.800 C 99.780 292.800,99.600 293.250,99.600 293.800 C 99.600 294.350,99.420 294.800,99.200 294.800 C 98.980 294.800,98.800 295.160,98.800 295.600 C 98.800 296.040,98.620 296.400,98.400 296.400 C 98.180 296.400,98.000 296.760,98.000 297.200 C 98.000 297.640,97.820 298.000,97.600 298.000 C 97.380 298.000,97.200 298.360,97.200 298.800 C 97.200 299.240,97.020 299.600,96.800 299.600 C 96.580 299.600,96.400 299.960,96.400 300.400 C 96.400 300.840,96.220 301.200,96.000 301.200 C 95.780 301.200,95.600 301.560,95.600 302.000 C 95.600 302.440,95.420 302.800,95.200 302.800 C 94.980 302.800,94.800 303.160,94.800 303.600 C 94.800 304.040,94.643 304.400,94.452 304.400 C 94.260 304.400,93.984 305.300,93.838 306.400 C 93.692 307.500,93.399 308.400,93.186 308.400 C 92.974 308.400,92.800 308.760,92.800 309.200 C 92.800 309.640,92.620 310.000,92.400 310.000 C 92.180 310.000,92.000 310.270,92.000 310.600 C 92.000 310.930,91.820 311.200,91.600 311.200 C 91.380 311.200,91.200 311.560,91.200 312.000 C 91.200 312.440,91.020 312.800,90.800 312.800 C 90.580 312.800,90.400 313.160,90.400 313.600 C 90.400 314.040,90.220 314.400,90.000 314.400 C 89.780 314.400,89.600 314.760,89.600 315.200 C 89.600 315.640,89.420 316.000,89.200 316.000 C 88.980 316.000,88.800 316.540,88.800 317.200 C 88.800 317.860,88.620 318.400,88.400 318.400 C 88.180 318.400,88.000 318.760,88.000 319.200 C 88.000 319.640,87.820 320.000,87.600 320.000 C 87.380 320.000,87.200 320.360,87.200 320.800 C 87.200 321.240,87.020 321.600,86.800 321.600 C 86.580 321.600,86.400 321.960,86.400 322.400 C 86.400 322.840,86.220 323.200,86.000 323.200 C 85.780 323.200,85.600 323.560,85.600 324.000 C 85.600 324.440,85.420 324.800,85.200 324.800 C 84.980 324.800,84.800 325.160,84.800 325.600 C 84.800 326.040,84.620 326.400,84.400 326.400 C 84.180 326.400,84.000 326.670,84.000 327.000 C 84.000 327.330,83.820 327.600,83.600 327.600 C 83.380 327.600,83.200 327.960,83.200 328.400 C 83.200 328.840,83.020 329.200,82.800 329.200 C 82.580 329.200,82.400 329.740,82.400 330.400 C 82.400 331.060,82.220 331.600,82.000 331.600 C 81.780 331.600,81.600 331.960,81.600 332.400 C 81.600 332.840,81.420 333.200,81.200 333.200 C 80.980 333.200,80.800 333.560,80.800 334.000 C 80.800 334.440,80.620 334.800,80.400 334.800 C 80.180 334.800,80.000 335.160,80.000 335.600 C 80.000 336.040,79.820 336.400,79.600 336.400 C 79.380 336.400,79.200 336.220,79.200 336.000 C 79.200 335.780,78.660 335.600,78.000 335.600 C 77.340 335.600,76.800 335.420,76.800 335.200 C 76.800 334.980,76.350 334.800,75.800 334.800 C 75.250 334.800,74.800 334.620,74.800 334.400 C 74.800 334.180,74.440 334.000,74.000 334.000 C 73.560 334.000,73.200 333.820,73.200 333.600 C 73.200 333.380,72.660 333.200,72.000 333.200 C 71.340 333.200,70.800 333.020,70.800 332.800 C 70.800 332.580,70.440 332.400,70.000 332.400 C 69.560 332.400,69.200 332.220,69.200 332.000 C 69.200 331.780,68.858 331.600,68.441 331.600 C 68.023 331.600,66.063 330.790,64.086 329.800 C 62.108 328.810,60.290 328.000,60.045 328.000 C 59.800 328.000,59.600 327.820,59.600 327.600 C 59.600 327.380,59.330 327.200,59.000 327.200 C 58.670 327.200,58.400 327.020,58.400 326.800 C 58.400 326.580,58.130 326.400,57.800 326.400 C 57.470 326.400,57.200 326.220,57.200 326.000 C 57.200 325.780,56.840 325.600,56.400 325.600 C 55.960 325.600,55.600 325.432,55.600 325.227 C 55.600 325.022,55.254 324.744,54.832 324.610 C 54.409 324.476,52.834 323.479,51.332 322.395 C 46.484 318.897,45.004 317.809,44.800 317.596 C 44.690 317.481,43.970 316.873,43.200 316.245 C 35.336 309.828,19.600 291.394,19.600 288.598 C 19.600 288.458,19.095 287.592,18.478 286.672 C 16.996 284.462,12.998 276.212,11.370 272.000 C 10.987 271.010,10.548 270.020,10.395 269.800 C 10.242 269.580,9.871 268.545,9.571 267.500 C 9.271 266.455,8.905 265.600,8.758 265.600 C 8.611 265.600,8.391 265.105,8.270 264.500 C 7.798 262.153,7.471 260.992,7.227 260.800 C 7.088 260.690,6.738 259.610,6.450 258.400 C 6.161 257.190,5.764 255.660,5.568 255.000 C 4.616 251.810,1.995 238.813,1.998 237.300 C 1.999 236.805,1.818 236.400,1.595 236.400 C 1.358 236.400,1.214 237.476,1.247 239.000 C 1.278 240.430,1.460 241.600,1.652 241.600 C 1.843 241.600,2.000 242.680,2.000 244.000 C 2.000 245.333,2.178 246.400,2.400 246.400 C 2.620 246.400,2.800 247.289,2.800 248.376 C 2.800 249.463,2.980 250.464,3.200 250.600 C 3.420 250.736,3.600 251.647,3.600 252.624 C 3.600 253.601,3.780 254.400,4.000 254.400 C 4.220 254.400,4.400 255.105,4.400 255.967 C 4.400 256.828,4.574 257.593,4.787 257.667 C 5.000 257.740,5.219 258.385,5.272 259.100 C 5.326 259.815,5.512 260.400,5.685 260.400 C 5.858 260.400,6.000 261.120,6.000 262.000 C 6.000 262.880,6.180 263.600,6.400 263.600 C 6.620 263.600,6.800 264.140,6.800 264.800 C 6.800 265.460,6.980 266.000,7.200 266.000 C 7.420 266.000,7.600 266.540,7.600 267.200 C 7.600 267.860,7.780 268.400,8.000 268.400 C 8.220 268.400,8.400 268.940,8.400 269.600 C 8.400 270.260,8.580 270.800,8.800 270.800 C 9.020 270.800,9.200 271.340,9.200 272.000 C 9.200 272.660,9.369 273.200,9.575 273.200 C 9.782 273.200,10.072 274.010,10.221 275.000 C 10.369 275.990,10.628 276.800,10.795 276.800 C 10.963 276.800,11.210 277.352,11.345 278.027 C 11.480 278.701,11.756 279.151,11.958 279.026 C 12.160 278.901,12.236 279.139,12.128 279.554 C 12.019 279.970,12.126 280.431,12.365 280.578 C 12.604 280.726,12.800 281.197,12.800 281.624 C 12.800 282.051,12.980 282.400,13.200 282.400 C 13.420 282.400,13.600 282.760,13.600 283.200 C 13.600 283.640,13.780 284.000,14.000 284.000 C 14.220 284.000,14.400 284.360,14.400 284.800 C 14.400 285.240,14.580 285.600,14.800 285.600 C 15.020 285.600,15.200 285.941,15.200 286.357 C 15.200 286.774,15.467 287.217,15.793 287.342 C 16.131 287.472,16.285 287.835,16.150 288.185 C 16.021 288.523,16.114 288.800,16.357 288.800 C 16.601 288.800,16.800 289.160,16.800 289.600 C 16.800 290.040,16.980 290.400,17.200 290.400 C 17.420 290.400,17.600 290.670,17.600 291.000 C 17.600 291.330,17.780 291.600,18.000 291.600 C 18.220 291.600,18.400 291.920,18.400 292.312 C 18.400 292.703,18.760 293.283,19.200 293.600 C 19.640 293.917,20.000 294.497,20.000 294.888 C 20.000 295.280,20.180 295.600,20.400 295.600 C 20.620 295.600,20.800 295.920,20.800 296.312 C 20.800 296.703,21.160 297.283,21.600 297.600 C 22.040 297.917,22.400 298.457,22.400 298.800 C 22.400 299.143,22.760 299.683,23.200 300.000 C 23.640 300.317,24.000 300.780,24.000 301.029 C 24.000 301.278,24.540 302.046,25.200 302.737 C 25.860 303.428,26.400 304.133,26.400 304.304 C 26.400 304.857,29.697 308.604,30.084 308.490 C 30.291 308.430,30.347 308.562,30.209 308.785 C 29.940 309.220,42.164 321.600,42.864 321.600 C 43.095 321.600,43.629 322.037,44.049 322.571 C 44.469 323.106,45.485 323.951,46.307 324.451 C 47.128 324.950,48.091 325.683,48.447 326.079 C 48.803 326.476,49.348 326.800,49.659 326.800 C 49.969 326.800,50.483 327.160,50.800 327.600 C 51.117 328.040,51.657 328.400,52.000 328.400 C 52.343 328.400,52.883 328.760,53.200 329.200 C 53.517 329.640,54.014 330.000,54.305 330.000 C 54.596 330.000,55.220 330.360,55.692 330.800 C 56.164 331.240,56.787 331.600,57.075 331.600 C 57.364 331.600,57.600 331.780,57.600 332.000 C 57.600 332.220,57.960 332.400,58.400 332.400 C 58.840 332.400,59.200 332.580,59.200 332.800 C 59.200 333.020,59.470 333.200,59.800 333.200 C 60.130 333.200,60.400 333.336,60.400 333.502 C 60.400 333.669,60.985 334.059,61.700 334.370 C 62.415 334.681,63.090 335.043,63.200 335.173 C 63.310 335.304,64.300 335.833,65.400 336.349 C 66.500 336.865,67.713 337.448,68.095 337.644 C 68.477 337.840,69.062 338.000,69.395 338.000 C 69.728 338.000,70.000 338.180,70.000 338.400 C 70.000 338.620,70.360 338.800,70.800 338.800 C 71.240 338.800,71.600 338.947,71.600 339.128 C 71.600 339.308,72.500 339.700,73.600 340.000 C 74.700 340.300,75.600 340.672,75.600 340.827 C 75.600 340.982,76.406 341.230,77.391 341.378 C 78.376 341.525,79.286 341.816,79.414 342.023 C 79.542 342.230,80.087 342.400,80.624 342.400 C 81.161 342.400,81.600 342.580,81.600 342.800 C 81.600 343.020,82.129 343.200,82.776 343.200 C 83.423 343.200,84.064 343.380,84.200 343.600 C 84.336 343.820,85.067 344.000,85.824 344.000 C 86.581 344.000,87.200 344.180,87.200 344.400 C 87.200 344.620,87.740 344.800,88.400 344.800 C 89.060 344.800,89.600 344.980,89.600 345.200 C 89.600 345.420,90.320 345.600,91.200 345.600 C 92.080 345.600,92.800 345.780,92.800 346.000 C 92.800 346.220,93.610 346.400,94.600 346.400 C 95.590 346.400,96.400 346.580,96.400 346.800 C 96.400 347.020,97.210 347.200,98.200 347.200 C 99.190 347.200,100.000 347.380,100.000 347.600 C 100.000 347.820,100.990 348.000,102.200 348.000 C 103.410 348.000,104.400 348.180,104.400 348.400 C 104.400 348.629,105.600 348.800,107.200 348.800 C 108.800 348.800,110.000 348.971,110.000 349.200 C 110.000 349.433,111.325 349.600,113.176 349.600 C 114.923 349.600,116.464 349.780,116.600 350.000 C 116.939 350.549,153.061 350.549,153.400 350.000 C 153.536 349.779,155.330 349.600,157.400 349.600 C 159.470 349.600,161.264 349.421,161.400 349.200 C 161.536 348.980,162.987 348.800,164.624 348.800 C 166.341 348.800,167.600 348.631,167.600 348.400 C 167.600 348.175,168.725 348.000,170.176 348.000 C 171.593 348.000,172.864 347.820,173.000 347.600 C 173.136 347.380,174.227 347.200,175.424 347.200 C 176.621 347.200,177.600 347.020,177.600 346.800 C 177.600 346.580,178.500 346.400,179.600 346.400 C 180.700 346.400,181.600 346.220,181.600 346.000 C 181.600 345.780,182.500 345.600,183.600 345.600 C 184.700 345.600,185.600 345.420,185.600 345.200 C 185.600 344.980,186.320 344.800,187.200 344.800 C 188.080 344.800,188.800 344.620,188.800 344.400 C 188.800 344.180,189.509 344.000,190.376 344.000 C 191.243 344.000,192.064 343.820,192.200 343.600 C 192.336 343.380,192.966 343.200,193.600 343.200 C 194.234 343.200,194.864 343.020,195.000 342.800 C 195.136 342.580,195.867 342.400,196.624 342.400 C 197.381 342.400,198.000 342.246,198.000 342.057 C 198.000 341.868,199.117 341.597,200.482 341.454 C 201.848 341.312,203.144 341.016,203.362 340.798 C 203.581 340.579,204.163 340.400,204.656 340.400 C 205.149 340.400,205.664 340.220,205.800 340.000 C 205.936 339.780,206.476 339.600,207.000 339.600 C 207.524 339.600,208.064 339.420,208.200 339.200 C 208.336 338.980,208.876 338.800,209.400 338.800 C 209.924 338.800,210.464 338.620,210.600 338.400 C 210.736 338.180,211.287 338.000,211.824 338.000 C 212.361 338.000,212.800 337.820,212.800 337.600 C 212.800 337.380,213.340 337.200,214.000 337.200 C 214.660 337.200,215.200 337.020,215.200 336.800 C 215.200 336.580,215.740 336.400,216.400 336.400 C 217.060 336.400,217.600 336.220,217.600 336.000 C 217.600 335.780,218.039 335.600,218.576 335.600 C 219.113 335.600,219.664 335.420,219.800 335.200 C 219.936 334.980,220.397 334.800,220.824 334.800 C 221.251 334.800,221.600 334.620,221.600 334.400 C 221.600 334.180,222.050 334.000,222.600 334.000 C 223.150 334.000,223.600 333.820,223.600 333.600 C 223.600 333.380,223.960 333.200,224.400 333.200 C 224.840 333.200,225.200 333.020,225.200 332.800 C 225.200 332.580,225.639 332.400,226.176 332.400 C 226.713 332.400,227.264 332.220,227.400 332.000 C 227.536 331.780,227.997 331.600,228.424 331.600 C 228.851 331.600,229.200 331.420,229.200 331.200 C 229.200 330.980,229.560 330.800,230.000 330.800 C 230.440 330.800,230.800 330.620,230.800 330.400 C 230.800 330.180,231.160 330.000,231.600 330.000 C 232.040 330.000,232.400 329.820,232.400 329.600 C 232.400 329.380,232.839 329.200,233.376 329.200 C 233.913 329.200,234.464 329.020,234.600 328.800 C 234.736 328.580,235.197 328.400,235.624 328.400 C 236.051 328.400,236.400 328.220,236.400 328.000 C 236.400 327.780,236.760 327.600,237.200 327.600 C 237.640 327.600,238.000 327.420,238.000 327.200 C 238.000 326.980,238.360 326.800,238.800 326.800 C 239.240 326.800,239.600 326.664,239.600 326.498 C 239.600 326.331,240.185 325.950,240.900 325.651 C 243.406 324.602,247.801 322.286,247.933 321.945 C 248.007 321.755,248.412 321.600,248.833 321.600 C 249.255 321.600,249.600 321.420,249.600 321.200 C 249.600 320.980,249.960 320.800,250.400 320.800 C 250.840 320.800,251.200 320.641,251.200 320.447 C 251.200 320.252,251.515 319.993,251.900 319.871 C 252.587 319.654,254.806 318.395,255.200 317.999 C 255.310 317.889,255.940 317.530,256.600 317.202 C 257.260 316.874,258.091 316.289,258.447 315.903 C 258.803 315.516,259.348 315.200,259.659 315.200 C 259.969 315.200,260.483 314.840,260.800 314.400 C 261.117 313.960,261.697 313.600,262.088 313.600 C 262.480 313.600,262.800 313.420,262.800 313.200 C 262.800 312.980,263.036 312.800,263.325 312.800 C 263.613 312.800,264.236 312.440,264.708 312.000 C 265.180 311.560,265.804 311.200,266.095 311.200 C 266.386 311.200,266.883 310.840,267.200 310.400 C 267.517 309.960,268.007 309.600,268.288 309.600 C 268.570 309.600,268.800 309.440,268.800 309.243 C 268.800 309.047,269.250 308.774,269.800 308.636 C 270.350 308.498,270.800 308.208,270.800 307.992 C 270.800 307.777,270.991 307.600,271.223 307.600 C 271.687 307.600,274.615 305.416,275.647 304.300 C 276.003 303.915,276.516 303.600,276.786 303.600 C 277.057 303.600,277.783 303.060,278.400 302.400 C 279.017 301.740,279.719 301.200,279.960 301.200 C 280.202 301.200,281.141 300.480,282.048 299.600 C 282.955 298.720,283.869 298.000,284.080 298.000 C 284.290 298.000,285.154 297.280,286.000 296.400 C 286.846 295.520,287.731 294.800,287.969 294.800 C 288.206 294.800,288.400 294.620,288.400 294.400 C 288.400 294.180,288.592 294.000,288.827 294.000 C 289.062 294.000,290.007 293.229,290.927 292.287 C 291.847 291.345,293.410 289.950,294.400 289.187 C 296.526 287.548,309.355 274.733,310.800 272.805 C 311.350 272.071,313.105 270.131,314.700 268.494 C 316.295 266.857,317.600 265.342,317.600 265.128 C 317.600 264.913,318.320 264.046,319.200 263.200 C 320.080 262.354,320.800 261.463,320.800 261.218 C 320.800 260.973,321.385 260.186,322.100 259.467 C 322.815 258.749,323.850 257.496,324.400 256.683 C 324.950 255.870,325.535 255.204,325.700 255.203 C 325.865 255.201,326.000 254.957,326.000 254.659 C 326.000 254.362,326.540 253.554,327.200 252.863 C 327.860 252.172,328.400 251.375,328.400 251.092 C 328.400 250.809,328.760 250.317,329.200 250.000 C 329.640 249.683,330.000 249.143,330.000 248.800 C 330.000 248.457,330.360 247.917,330.800 247.600 C 331.240 247.283,331.600 246.791,331.600 246.508 C 331.600 246.225,332.140 245.428,332.800 244.737 C 333.460 244.046,334.000 243.238,334.000 242.941 C 334.000 242.643,334.180 242.400,334.400 242.400 C 334.620 242.400,334.800 242.130,334.800 241.800 C 334.800 241.470,334.980 241.200,335.200 241.200 C 335.420 241.200,335.600 240.930,335.600 240.600 C 335.600 240.270,335.780 240.000,336.000 240.000 C 336.220 240.000,336.400 239.730,336.400 239.400 C 336.400 239.070,336.580 238.800,336.800 238.800 C 337.020 238.800,337.200 238.522,337.200 238.183 C 337.200 237.844,337.560 237.180,338.000 236.708 C 338.440 236.236,338.800 235.613,338.800 235.325 C 338.800 235.036,338.980 234.800,339.200 234.800 C 339.420 234.800,339.600 234.517,339.600 234.171 C 339.600 233.130,340.548 232.506,342.525 232.246 C 343.556 232.111,345.210 231.892,346.200 231.760 C 347.190 231.628,348.000 231.358,348.000 231.160 C 348.000 230.962,348.720 230.800,349.600 230.800 C 350.480 230.800,351.200 230.620,351.200 230.400 C 351.200 230.180,351.729 230.000,352.376 230.000 C 353.023 230.000,353.664 229.820,353.800 229.600 C 353.936 229.380,354.577 229.200,355.224 229.200 C 355.871 229.200,356.400 229.020,356.400 228.800 C 356.400 228.580,356.940 228.400,357.600 228.400 C 358.260 228.400,358.800 228.220,358.800 228.000 C 358.800 227.780,359.160 227.600,359.600 227.600 C 360.040 227.600,360.400 227.420,360.400 227.200 C 360.400 226.980,360.940 226.800,361.600 226.800 C 362.260 226.800,362.800 226.620,362.800 226.400 C 362.800 226.180,363.160 226.000,363.600 226.000 C 364.040 226.000,364.400 225.840,364.400 225.645 C 364.400 225.449,365.075 225.162,365.899 225.008 C 366.724 224.853,367.489 224.607,367.599 224.461 C 367.772 224.233,370.922 222.524,373.897 221.046 C 374.390 220.801,374.795 220.465,374.797 220.300 C 374.799 220.135,375.030 220.000,375.312 220.000 C 375.593 220.000,376.083 219.640,376.400 219.200 C 376.717 218.760,377.257 218.400,377.600 218.400 C 377.943 218.400,378.483 218.040,378.800 217.600 C 379.117 217.160,379.585 216.800,379.840 216.800 C 380.095 216.800,381.045 216.080,381.952 215.200 C 382.859 214.320,383.781 213.600,384.000 213.600 C 384.220 213.600,384.400 213.420,384.400 213.200 C 384.400 212.980,384.598 212.800,384.839 212.800 C 385.348 212.800,391.600 206.392,391.600 205.870 C 391.600 205.678,392.140 205.017,392.800 204.400 C 393.460 203.783,394.000 203.031,394.000 202.728 C 394.000 202.425,394.360 201.917,394.800 201.600 C 395.240 201.283,395.600 200.743,395.600 200.400 C 395.600 200.057,395.960 199.517,396.400 199.200 C 396.840 198.883,397.200 198.303,397.200 197.912 C 397.200 197.520,397.380 197.200,397.600 197.200 C 397.820 197.200,398.000 196.880,398.000 196.488 C 398.000 196.097,398.354 195.521,398.787 195.209 C 399.666 194.576,400.245 191.803,399.796 190.387 C 399.575 189.690,399.436 189.616,399.162 190.047 C 398.910 190.446,398.811 190.461,398.806 190.100 C 398.803 189.825,398.323 189.600,397.739 189.600 C 397.155 189.600,394.500 188.722,391.839 187.648 C 387.159 185.760,380.509 183.444,376.800 182.409 C 375.810 182.133,374.550 181.765,374.000 181.592 C 371.910 180.933,367.247 179.946,362.400 179.138 C 360.750 178.862,356.330 178.638,352.578 178.638 L 345.756 178.640 344.631 175.090 C 340.659 162.555,328.039 146.984,316.200 140.013 C 315.320 139.495,314.200 138.713,313.711 138.276 L 312.822 137.481 310.462 139.840 M32.490 168.500 C 32.539 178.895,32.628 184.430,32.688 180.800 C 32.967 163.936,32.973 149.600,32.700 149.600 C 32.535 149.600,32.440 158.105,32.490 168.500 M132.600 170.987 L 132.600 192.374 153.900 192.393 L 175.200 192.412 175.111 173.306 C 175.062 162.798,174.967 157.035,174.901 160.500 C 174.740 168.851,174.000 168.933,174.000 160.600 L 174.000 154.400 169.371 154.400 C 164.332 154.400,163.600 154.675,163.600 156.571 C 163.600 157.137,163.420 157.600,163.200 157.600 C 162.980 157.600,162.800 157.960,162.800 158.400 C 162.800 158.840,162.620 159.200,162.400 159.200 C 162.180 159.200,162.000 159.470,162.000 159.800 C 162.000 160.130,161.820 160.400,161.600 160.400 C 161.380 160.400,161.200 160.760,161.200 161.200 C 161.200 161.640,161.036 162.000,160.835 162.000 C 160.634 162.000,160.349 162.720,160.200 163.600 C 160.051 164.480,159.766 165.200,159.565 165.200 C 159.364 165.200,159.200 165.560,159.200 166.000 C 159.200 166.440,159.020 166.800,158.800 166.800 C 158.580 166.800,158.400 167.340,158.400 168.000 C 158.400 168.660,158.220 169.200,158.000 169.200 C 157.780 169.200,157.600 169.560,157.600 170.000 C 157.600 170.440,157.420 170.800,157.200 170.800 C 156.980 170.800,156.800 171.160,156.800 171.600 C 156.800 172.040,156.620 172.400,156.400 172.400 C 156.180 172.400,156.000 172.760,156.000 173.200 C 156.000 173.640,155.820 174.000,155.600 174.000 C 155.380 174.000,155.200 174.360,155.200 174.800 C 155.200 175.240,155.020 175.600,154.800 175.600 C 154.580 175.600,154.400 175.960,154.400 176.400 C 154.400 176.840,154.220 177.200,154.000 177.200 C 153.780 177.200,153.600 177.470,153.600 177.800 C 153.600 178.130,153.420 178.400,153.200 178.400 C 152.980 178.400,152.800 178.940,152.800 179.600 C 152.800 180.260,152.620 180.800,152.400 180.800 C 152.180 180.800,152.000 181.160,152.000 181.600 C 152.000 182.040,151.820 182.400,151.600 182.400 C 151.380 182.400,151.200 182.760,151.200 183.200 C 151.200 183.640,151.020 184.000,150.800 184.000 C 150.580 184.000,150.400 184.360,150.400 184.800 C 150.400 185.240,150.220 185.600,150.000 185.600 C 149.780 185.600,149.600 185.964,149.600 186.408 C 149.600 187.196,149.397 187.214,141.700 187.108 L 133.800 187.000 133.526 168.800 C 133.375 158.790,133.210 150.375,133.159 150.100 C 132.728 147.768,132.600 152.535,132.600 170.987 M182.407 171.000 L 182.427 192.400 203.813 192.400 L 225.200 192.400 225.200 173.194 L 225.200 153.989 205.282 154.259 C 181.910 154.575,183.200 154.719,183.200 151.792 C 183.200 150.574,183.019 149.600,182.794 149.600 C 182.523 149.600,182.394 156.761,182.407 171.000 M232.400 171.000 L 232.400 192.400 253.800 192.400 L 275.200 192.400 275.200 173.200 L 275.200 154.000 254.200 154.000 L 233.200 154.000 233.200 151.800 C 233.200 150.590,233.020 149.600,232.800 149.600 C 232.538 149.600,232.400 157.000,232.400 171.000 M298.000 159.224 C 298.000 159.677,298.180 159.936,298.400 159.800 C 298.620 159.664,298.800 159.293,298.800 158.976 C 298.800 158.659,298.620 158.400,298.400 158.400 C 298.180 158.400,298.000 158.771,298.000 159.224 M297.492 163.842 C 297.331 164.002,297.216 164.778,297.236 165.567 L 297.272 167.000 297.657 165.663 C 298.063 164.252,297.982 163.352,297.492 163.842 M387.200 182.763 C 387.200 183.182,389.148 184.186,389.424 183.909 C 389.548 183.785,389.099 183.408,388.425 183.072 C 387.751 182.736,387.200 182.597,387.200 182.763 M93.000 187.589 L 83.400 187.800 83.277 189.500 C 83.209 190.435,82.984 191.200,82.777 191.200 C 82.570 191.200,82.400 191.470,82.400 191.800 C 82.400 192.130,82.681 192.400,83.024 192.400 C 83.367 192.400,83.536 192.220,83.400 192.000 C 83.236 191.735,90.207 191.630,104.076 191.688 C 118.799 191.749,122.510 191.842,116.600 192.000 L 108.200 192.225 116.700 192.312 L 125.200 192.400 125.200 189.800 L 125.200 187.200 113.900 187.289 C 107.685 187.338,98.280 187.473,93.000 187.589 M33.600 189.335 L 33.600 191.070 49.266 191.335 C 57.882 191.481,67.242 191.600,70.066 191.600 L 75.200 191.600 75.200 189.600 L 75.200 187.600 54.400 187.600 L 33.600 187.600 33.600 189.335 M0.000 224.600 C 0.000 225.883,0.119 226.814,0.265 226.668 C 0.560 226.373,0.499 222.766,0.194 222.461 C 0.087 222.354,0.000 223.317,0.000 224.600 M0.433 232.500 C 0.484 234.846,0.662 236.000,0.973 236.000 C 1.570 236.000,1.399 230.038,0.785 229.427 C 0.480 229.123,0.378 230.012,0.433 232.500 " stroke="none" fill="#8699b8" fill-rule="evenodd"></path></g></svg>