<svg id="svg" version="1.1" xmlns="http://www.w3.org/2000/svg" xmlns:xlink="http://www.w3.org/1999/xlink" width="400" height="400" viewBox="0, 0, 400,400"><g id="svgg"><path id="path0" d="M192.600 20.173 C 190.277 20.927,186.770 22.792,185.498 23.950 C 184.892 24.502,183.644 25.332,182.725 25.795 C 181.673 26.325,180.566 27.370,179.736 28.618 C 179.011 29.708,178.099 31.030,177.709 31.555 C 176.947 32.580,174.406 37.036,173.464 39.000 C 171.549 42.988,169.602 47.566,169.381 48.600 C 168.983 50.458,167.917 53.335,167.380 54.000 C 167.113 54.330,166.759 55.050,166.593 55.600 C 166.330 56.474,165.450 58.219,163.706 61.321 C 163.434 61.804,163.209 62.570,163.206 63.022 C 163.201 63.736,162.248 65.389,160.000 68.582 C 159.670 69.051,158.230 70.491,156.800 71.781 C 155.370 73.071,153.840 74.531,153.400 75.024 C 152.960 75.518,151.610 76.238,150.400 76.625 C 149.190 77.012,147.120 77.911,145.800 78.624 C 144.480 79.337,142.140 80.328,140.600 80.827 C 139.060 81.325,137.600 81.884,137.356 82.069 C 137.113 82.253,135.872 82.762,134.600 83.200 C 133.328 83.638,132.071 84.175,131.808 84.394 C 131.544 84.612,129.904 85.256,128.164 85.824 C 126.424 86.392,124.716 87.114,124.369 87.429 C 124.021 87.743,123.550 88.000,123.322 88.000 C 123.094 88.000,122.464 88.349,121.922 88.775 C 121.380 89.202,120.446 89.674,119.845 89.824 C 119.245 89.975,118.485 90.509,118.156 91.011 C 117.827 91.513,117.107 92.037,116.556 92.175 C 115.378 92.471,108.963 98.852,108.564 100.125 C 108.413 100.606,107.964 101.418,107.565 101.928 C 105.080 105.111,104.519 118.976,106.582 126.200 C 107.679 130.040,109.654 135.411,110.480 136.800 C 110.938 137.570,111.455 138.740,111.629 139.400 C 112.201 141.568,113.034 143.554,113.679 144.283 C 114.027 144.677,114.725 145.990,115.230 147.200 C 115.735 148.410,116.475 149.829,116.874 150.354 C 117.273 150.879,117.600 151.540,117.600 151.823 C 117.600 152.107,118.070 152.897,118.644 153.579 C 119.218 154.261,120.256 155.940,120.952 157.310 C 122.353 160.070,126.535 166.589,127.147 166.967 C 127.362 167.100,127.649 167.702,127.785 168.305 C 127.921 168.907,128.649 170.210,129.404 171.200 C 130.159 172.190,131.636 174.260,132.686 175.800 C 133.736 177.340,135.952 180.220,137.609 182.200 C 139.267 184.180,141.092 186.430,141.666 187.200 C 143.181 189.235,152.066 197.989,154.080 199.433 C 155.026 200.110,156.880 201.465,158.200 202.443 C 159.520 203.420,161.680 204.747,163.000 205.390 C 164.320 206.034,165.671 206.783,166.003 207.055 C 166.335 207.327,167.955 207.853,169.603 208.224 C 184.621 211.605,190.226 205.177,190.378 184.400 C 190.429 177.463,192.013 166.410,193.804 160.505 C 194.572 157.971,195.200 155.588,195.200 155.208 C 195.200 154.828,195.631 154.052,196.157 153.484 C 196.684 152.916,197.416 151.585,197.786 150.526 C 198.647 148.056,200.304 144.832,201.257 143.774 C 201.665 143.320,202.000 142.763,202.000 142.536 C 202.000 142.309,202.386 141.781,202.858 141.362 C 203.330 140.943,204.054 139.845,204.467 138.921 C 204.880 137.998,206.377 135.981,207.793 134.438 C 209.209 132.895,210.845 130.911,211.428 130.029 C 212.012 129.147,212.825 128.319,213.234 128.189 C 213.644 128.059,214.301 127.543,214.695 127.043 C 215.678 125.794,223.944 118.710,226.034 117.326 C 229.628 114.947,234.201 112.401,234.884 112.398 C 235.168 112.397,236.840 111.665,238.600 110.772 C 240.360 109.878,242.700 108.895,243.800 108.588 C 244.900 108.280,246.836 107.671,248.103 107.234 C 251.997 105.890,262.955 104.557,273.400 104.157 C 277.140 104.013,280.560 103.708,281.000 103.478 C 281.440 103.247,283.579 102.828,285.754 102.545 L 289.708 102.030 291.841 99.846 C 296.979 94.584,298.081 88.741,295.131 82.400 C 292.955 77.722,290.967 74.059,289.812 72.600 C 289.115 71.720,287.992 70.190,287.317 69.200 C 286.641 68.210,284.988 66.276,283.644 64.902 C 282.300 63.528,281.200 62.255,281.200 62.072 C 281.200 61.889,279.985 60.764,278.500 59.570 C 277.015 58.377,274.524 56.204,272.964 54.741 C 271.404 53.278,269.334 51.677,268.364 51.182 C 267.394 50.687,265.430 49.247,264.000 47.983 C 262.570 46.718,260.458 45.232,259.308 44.681 C 258.157 44.130,256.746 43.122,256.172 42.440 C 255.598 41.758,254.956 41.200,254.745 41.200 C 254.273 41.200,247.703 37.325,246.600 36.396 C 246.160 36.025,244.630 35.148,243.200 34.447 C 241.770 33.746,239.700 32.663,238.600 32.041 C 234.686 29.825,232.591 28.803,231.959 28.802 C 231.607 28.801,230.764 28.270,230.087 27.623 C 229.409 26.975,228.078 26.253,227.128 26.016 C 226.177 25.780,223.780 24.952,221.800 24.176 C 211.895 20.294,198.066 18.398,192.600 20.173 M195.546 36.566 C 200.988 40.001,198.485 48.000,191.967 48.000 C 184.497 48.000,183.149 37.857,190.317 35.577 C 191.919 35.068,193.709 35.406,195.546 36.566 M215.787 36.500 C 221.260 40.080,219.086 48.000,212.629 48.000 C 208.094 48.000,205.516 45.024,206.185 40.561 C 206.803 36.437,212.201 34.154,215.787 36.500 M193.848 56.000 C 197.757 56.000,199.830 63.074,196.829 66.170 C 192.355 70.786,185.092 67.552,185.727 61.226 C 186.059 57.915,189.470 55.148,192.333 55.866 C 192.626 55.940,193.308 56.000,193.848 56.000 M215.865 56.840 C 218.592 58.526,219.502 62.079,217.955 65.000 C 214.303 71.892,203.940 67.253,206.392 59.824 C 207.515 56.422,212.598 54.821,215.865 56.840 M220.668 81.453 C 230.488 86.945,229.646 101.767,219.373 104.229 C 218.728 104.384,217.947 104.710,217.639 104.955 C 215.506 106.644,208.187 104.347,205.426 101.122 C 196.301 90.462,208.538 74.670,220.668 81.453 M140.747 100.359 C 154.227 104.094,156.389 123.563,143.923 128.963 C 142.535 129.564,140.976 130.264,140.457 130.518 C 135.845 132.781,125.871 128.753,122.831 123.400 C 115.848 111.101,127.134 96.586,140.747 100.359 M182.881 116.452 C 194.262 119.909,194.352 136.084,183.014 140.395 C 181.565 140.945,175.356 140.909,174.274 140.343 C 159.323 132.524,166.867 111.588,182.881 116.452 " stroke="none" fill="#464d59" fill-rule="evenodd"></path><path id="path1" d="M165.629 0.289 C 165.095 0.391,164.285 0.716,163.829 1.012 C 163.373 1.308,161.490 1.637,159.644 1.742 C 157.536 1.863,156.170 2.125,155.972 2.446 C 155.790 2.740,154.360 3.081,152.604 3.248 C 150.925 3.409,149.157 3.795,148.676 4.107 C 148.194 4.419,146.913 4.793,145.829 4.939 C 144.745 5.085,143.575 5.450,143.229 5.751 C 142.883 6.052,141.748 6.389,140.706 6.499 C 139.664 6.610,138.326 7.019,137.731 7.408 C 137.137 7.797,136.067 8.151,135.352 8.195 C 134.637 8.238,133.632 8.549,133.118 8.886 C 132.603 9.223,131.436 9.625,130.523 9.779 C 129.610 9.934,128.774 10.291,128.666 10.573 C 128.558 10.855,127.720 11.186,126.803 11.309 C 125.887 11.432,124.837 11.795,124.469 12.115 C 124.101 12.436,123.125 12.820,122.300 12.967 C 121.458 13.118,120.800 13.468,120.800 13.765 C 120.800 14.082,120.145 14.383,119.169 14.513 C 118.272 14.634,117.237 15.003,116.869 15.335 C 116.501 15.666,115.660 16.066,115.000 16.223 C 114.340 16.379,113.530 16.726,113.200 16.993 C 112.622 17.461,111.840 17.811,111.000 17.978 C 110.780 18.021,110.330 18.293,110.000 18.581 C 109.670 18.869,108.950 19.239,108.400 19.402 C 107.850 19.565,107.220 19.840,107.000 20.014 C 106.397 20.491,101.604 23.126,99.913 23.910 C 99.095 24.290,98.375 24.850,98.313 25.156 C 98.251 25.462,97.685 25.767,97.057 25.833 C 96.428 25.900,95.571 26.264,95.154 26.642 C 94.270 27.441,93.049 28.191,91.500 28.883 C 90.895 29.154,90.400 29.511,90.400 29.677 C 90.400 29.844,89.815 30.275,89.100 30.637 C 88.385 30.998,87.395 31.664,86.900 32.117 C 86.405 32.569,86.000 32.778,86.000 32.581 C 86.000 32.383,85.720 32.622,85.377 33.111 C 85.035 33.600,84.586 34.000,84.380 34.000 C 84.175 34.000,83.540 34.405,82.971 34.900 C 82.402 35.395,81.784 35.800,81.598 35.800 C 81.412 35.800,80.587 36.395,79.765 37.123 C 78.943 37.851,77.760 38.711,77.135 39.034 C 76.511 39.356,76.000 39.796,76.000 40.010 C 76.000 40.225,75.732 40.400,75.403 40.400 C 75.075 40.400,74.582 40.760,74.307 41.200 C 74.032 41.640,73.658 42.000,73.474 42.000 C 73.291 42.000,72.479 42.636,71.671 43.414 C 70.862 44.192,69.030 45.736,67.600 46.846 C 66.170 47.956,64.415 49.480,63.701 50.232 C 62.986 50.984,62.314 51.600,62.207 51.600 C 61.599 51.600,49.356 64.378,46.735 67.747 C 45.686 69.096,44.192 70.862,43.414 71.671 C 42.636 72.479,42.000 73.291,42.000 73.474 C 42.000 73.658,41.640 74.032,41.200 74.307 C 40.760 74.582,40.400 75.075,40.400 75.403 C 40.400 75.732,40.225 76.000,40.010 76.000 C 39.796 76.000,39.347 76.529,39.013 77.175 C 38.679 77.821,37.786 79.026,37.028 79.853 C 36.270 80.680,35.727 81.481,35.821 81.633 C 35.914 81.785,35.720 82.135,35.388 82.410 C 35.057 82.685,34.495 83.522,34.140 84.269 C 33.786 85.017,33.402 85.535,33.288 85.421 C 33.173 85.307,32.482 86.155,31.751 87.307 C 31.020 88.458,30.147 89.752,29.811 90.181 C 29.475 90.611,29.200 91.097,29.200 91.261 C 29.200 91.666,26.853 95.120,26.379 95.413 C 26.170 95.542,26.000 95.984,26.000 96.395 C 26.000 96.806,25.730 97.413,25.400 97.743 C 25.070 98.073,24.800 98.443,24.800 98.564 C 24.800 98.686,24.082 99.959,23.204 101.393 C 22.327 102.827,21.710 104.000,21.833 104.000 C 21.956 104.000,21.774 104.283,21.429 104.629 C 21.083 104.974,20.800 105.492,20.800 105.780 C 20.800 106.067,20.542 106.517,20.226 106.779 C 19.910 107.041,19.538 107.770,19.400 108.400 C 19.262 109.030,18.902 109.750,18.600 110.000 C 18.298 110.250,17.938 110.970,17.800 111.600 C 17.662 112.230,17.290 112.959,16.974 113.221 C 16.658 113.483,16.400 113.992,16.400 114.352 C 16.400 114.712,15.950 115.852,15.400 116.885 C 14.850 117.918,14.400 119.132,14.400 119.582 C 14.400 120.032,14.265 120.401,14.100 120.403 C 13.724 120.407,12.800 122.358,12.800 123.148 C 12.800 123.472,12.515 124.052,12.166 124.437 C 11.817 124.823,11.434 125.872,11.313 126.769 C 11.193 127.666,10.946 128.400,10.763 128.400 C 10.581 128.400,10.220 129.165,9.961 130.100 C 9.701 131.035,9.141 132.558,8.717 133.484 C 8.292 134.410,7.995 135.490,8.058 135.884 C 8.120 136.278,7.840 137.098,7.436 137.706 C 7.031 138.314,6.610 139.664,6.499 140.706 C 6.389 141.748,6.060 142.875,5.768 143.210 C 5.477 143.546,5.123 144.626,4.982 145.610 C 4.841 146.595,4.444 148.026,4.101 148.791 C 3.757 149.556,3.346 151.512,3.187 153.138 C 3.025 154.784,2.675 156.230,2.395 156.403 C 2.088 156.593,1.828 157.932,1.724 159.857 C 1.614 161.916,1.322 163.345,0.878 164.000 C -0.165 165.539,-0.165 234.461,0.878 236.000 C 1.322 236.655,1.614 238.084,1.724 240.143 C 1.828 242.068,2.088 243.407,2.395 243.597 C 2.675 243.770,3.025 245.216,3.187 246.862 C 3.346 248.488,3.757 250.444,4.101 251.209 C 4.444 251.974,4.841 253.405,4.982 254.390 C 5.123 255.374,5.477 256.454,5.768 256.790 C 6.060 257.125,6.389 258.252,6.499 259.294 C 6.610 260.336,7.031 261.686,7.436 262.294 C 7.840 262.902,8.120 263.722,8.058 264.116 C 7.995 264.510,8.292 265.590,8.717 266.516 C 9.141 267.442,9.701 268.965,9.961 269.900 C 10.220 270.835,10.581 271.600,10.763 271.600 C 10.946 271.600,11.193 272.334,11.313 273.231 C 11.434 274.128,11.817 275.177,12.166 275.563 C 12.515 275.948,12.800 276.528,12.800 276.852 C 12.800 277.642,13.724 279.593,14.100 279.597 C 14.265 279.599,14.400 279.968,14.400 280.418 C 14.400 280.868,14.850 282.082,15.400 283.115 C 15.950 284.148,16.400 285.288,16.400 285.648 C 16.400 286.008,16.658 286.517,16.974 286.779 C 17.290 287.041,17.662 287.770,17.800 288.400 C 17.938 289.030,18.298 289.750,18.600 290.000 C 18.902 290.250,19.262 290.970,19.400 291.600 C 19.538 292.230,19.910 292.959,20.226 293.221 C 20.542 293.483,20.800 293.933,20.800 294.220 C 20.800 294.508,21.083 295.026,21.429 295.371 C 21.774 295.717,21.956 296.000,21.833 296.000 C 21.710 296.000,22.327 297.173,23.204 298.607 C 24.082 300.041,24.800 301.314,24.800 301.436 C 24.800 301.557,25.070 301.927,25.400 302.257 C 25.730 302.587,26.000 303.194,26.000 303.605 C 26.000 304.016,26.170 304.458,26.379 304.587 C 26.853 304.880,29.200 308.334,29.200 308.739 C 29.200 308.903,29.475 309.389,29.811 309.819 C 30.147 310.248,31.020 311.542,31.751 312.693 C 32.482 313.845,33.173 314.693,33.288 314.579 C 33.402 314.465,33.786 314.983,34.140 315.731 C 34.495 316.478,35.057 317.315,35.388 317.590 C 35.720 317.865,35.914 318.215,35.821 318.367 C 35.727 318.519,36.270 319.320,37.028 320.147 C 37.786 320.974,38.679 322.179,39.013 322.825 C 39.347 323.471,39.796 324.000,40.010 324.000 C 40.225 324.000,40.400 324.268,40.400 324.597 C 40.400 324.925,40.760 325.418,41.200 325.693 C 41.640 325.968,42.000 326.342,42.000 326.526 C 42.000 326.709,42.636 327.521,43.414 328.329 C 44.192 329.138,45.686 330.904,46.735 332.253 C 49.356 335.622,61.599 348.400,62.207 348.400 C 62.314 348.400,62.986 349.016,63.701 349.768 C 64.415 350.520,66.170 352.044,67.600 353.154 C 69.030 354.264,70.862 355.808,71.671 356.586 C 72.479 357.364,73.291 358.000,73.474 358.000 C 73.658 358.000,74.032 358.360,74.307 358.800 C 74.582 359.240,75.075 359.600,75.403 359.600 C 75.732 359.600,76.000 359.775,76.000 359.990 C 76.000 360.204,76.511 360.644,77.135 360.966 C 77.760 361.289,78.943 362.149,79.765 362.877 C 80.587 363.605,81.412 364.200,81.598 364.200 C 81.784 364.200,82.402 364.605,82.971 365.100 C 83.540 365.595,84.175 366.000,84.380 366.000 C 84.586 366.000,85.035 366.400,85.377 366.889 C 85.720 367.378,86.000 367.617,86.000 367.419 C 86.000 367.222,86.405 367.431,86.900 367.883 C 87.395 368.336,88.385 369.002,89.100 369.363 C 89.815 369.725,90.400 370.156,90.400 370.323 C 90.400 370.489,90.895 370.846,91.500 371.117 C 93.049 371.809,94.270 372.559,95.154 373.358 C 95.571 373.736,96.428 374.100,97.057 374.167 C 97.685 374.233,98.251 374.538,98.313 374.844 C 98.375 375.150,99.095 375.710,99.913 376.090 C 101.604 376.874,106.397 379.509,107.000 379.986 C 107.220 380.160,107.850 380.435,108.400 380.598 C 108.950 380.761,109.734 381.188,110.142 381.547 C 110.550 381.906,111.000 382.178,111.142 382.151 C 111.560 382.071,112.555 382.485,113.200 383.007 C 113.530 383.274,114.340 383.621,115.000 383.777 C 115.660 383.934,116.501 384.334,116.869 384.665 C 117.237 384.997,118.272 385.366,119.169 385.487 C 120.145 385.617,120.800 385.918,120.800 386.235 C 120.800 386.532,121.458 386.882,122.300 387.033 C 123.125 387.180,124.115 387.576,124.500 387.912 C 124.884 388.248,125.861 388.563,126.669 388.612 C 127.517 388.664,128.353 388.994,128.645 389.394 C 128.966 389.833,129.807 390.128,130.943 390.199 C 131.928 390.261,132.908 390.420,133.121 390.551 C 133.968 391.075,134.289 387.197,133.597 384.797 C 132.681 381.621,131.554 364.555,131.992 360.485 C 132.830 352.693,132.972 336.356,132.266 329.000 C 130.444 310.022,130.576 301.347,133.037 278.400 C 133.954 269.839,134.815 268.351,140.064 266.256 C 149.131 262.635,157.178 265.932,161.405 275.000 C 162.633 277.633,163.136 279.286,164.022 283.600 C 164.226 284.590,164.560 291.649,164.764 299.286 C 164.969 306.924,165.238 313.338,165.364 313.541 C 165.489 313.744,165.860 316.675,166.188 320.055 C 166.921 327.600,167.709 331.816,168.564 332.761 C 168.921 333.155,169.446 334.374,169.730 335.470 C 170.695 339.191,175.664 345.600,177.583 345.600 C 178.061 345.600,178.799 345.786,179.223 346.012 C 182.834 347.945,190.965 342.568,195.724 335.100 C 196.530 333.835,197.353 332.800,197.552 332.800 C 197.750 332.800,198.213 332.125,198.580 331.300 C 198.947 330.475,199.680 329.080,200.209 328.200 C 200.737 327.320,201.524 325.958,201.956 325.173 C 202.388 324.389,203.005 323.528,203.327 323.261 C 203.648 322.994,204.325 321.656,204.831 320.288 C 205.336 318.919,206.157 317.170,206.655 316.400 C 207.154 315.630,208.117 313.650,208.797 312.000 C 209.477 310.350,210.386 308.260,210.816 307.356 C 211.247 306.452,211.600 305.453,211.600 305.136 C 211.600 304.819,211.763 304.389,211.963 304.180 C 212.162 303.971,212.509 303.170,212.734 302.400 C 212.958 301.630,213.699 299.560,214.381 297.800 C 215.063 296.040,216.088 293.250,216.659 291.600 C 217.806 288.283,220.312 283.090,222.545 279.400 C 223.344 278.080,223.998 276.858,223.999 276.684 C 224.000 276.510,224.333 275.880,224.740 275.284 C 228.741 269.428,229.669 266.930,230.359 260.155 C 230.541 258.371,230.972 256.391,231.317 255.755 C 232.544 253.499,233.312 247.290,233.613 237.200 C 233.912 227.167,234.331 224.516,236.145 221.200 C 236.445 220.650,236.802 219.735,236.937 219.167 C 237.994 214.713,245.984 211.750,250.228 214.238 C 252.700 215.686,255.979 220.779,255.998 223.200 C 256.002 223.750,256.343 225.640,256.755 227.400 C 257.455 230.388,257.782 232.696,258.797 241.800 C 259.017 243.780,259.201 247.200,259.204 249.400 C 259.214 255.282,260.104 257.552,260.576 252.900 C 260.847 250.225,261.799 244.198,262.360 241.600 C 262.573 240.610,263.286 238.619,263.944 237.176 C 266.732 231.056,266.831 230.533,266.988 221.200 C 267.180 209.705,267.868 207.571,273.016 202.485 C 278.056 197.508,282.491 196.202,285.370 198.848 C 287.962 201.231,290.639 210.124,291.178 218.142 C 291.576 224.067,291.466 223.875,294.814 224.498 C 297.940 225.079,300.997 227.574,300.636 229.251 C 300.523 229.773,300.058 232.810,299.601 236.000 C 299.145 239.190,298.507 243.330,298.183 245.200 C 297.550 248.857,297.425 252.706,297.915 253.476 C 298.284 254.057,301.103 256.000,301.576 256.000 C 302.182 256.000,304.373 258.773,305.459 260.915 C 306.851 263.660,306.923 268.778,305.649 274.400 C 305.176 276.490,304.596 279.280,304.360 280.600 C 303.356 286.240,301.090 294.564,299.788 297.400 C 299.485 298.060,298.857 299.950,298.393 301.600 C 297.008 306.527,296.064 309.308,295.209 310.985 C 294.764 311.856,294.400 312.766,294.400 313.006 C 294.400 313.247,293.869 314.280,293.220 315.304 C 292.571 316.327,291.842 317.902,291.599 318.804 C 291.131 320.540,285.405 331.873,283.801 334.237 C 283.280 335.004,282.537 336.480,282.150 337.516 C 281.360 339.634,280.592 341.014,279.533 342.218 C 279.138 342.668,278.392 343.838,277.877 344.818 C 276.372 347.677,274.072 351.279,273.046 352.381 C 272.525 352.941,271.869 353.850,271.590 354.400 C 271.310 354.950,270.649 355.940,270.121 356.600 C 267.626 359.718,266.078 361.923,265.824 362.726 C 265.670 363.209,265.137 364.098,264.640 364.702 C 263.814 365.704,259.600 372.667,259.600 373.030 C 259.600 373.115,258.957 374.190,258.171 375.418 C 257.385 376.647,256.200 378.945,255.537 380.526 C 254.873 382.107,254.112 383.580,253.844 383.800 C 253.019 384.477,250.936 388.463,249.977 391.200 C 249.475 392.630,248.933 393.980,248.771 394.200 C 247.421 396.042,249.643 397.573,251.046 395.768 C 251.309 395.430,252.431 395.129,253.772 395.035 C 255.026 394.948,256.355 394.613,256.726 394.289 C 257.097 393.966,258.252 393.611,259.294 393.501 C 260.336 393.390,261.674 392.981,262.269 392.592 C 262.863 392.203,263.933 391.849,264.648 391.805 C 265.363 391.762,266.368 391.451,266.882 391.114 C 267.397 390.777,268.564 390.375,269.477 390.221 C 270.390 390.066,271.226 389.709,271.334 389.427 C 271.442 389.145,272.280 388.814,273.197 388.691 C 274.113 388.568,275.163 388.205,275.531 387.885 C 275.899 387.564,276.875 387.180,277.700 387.033 C 278.542 386.882,279.200 386.532,279.200 386.235 C 279.200 385.918,279.855 385.617,280.831 385.487 C 281.728 385.366,282.763 384.997,283.131 384.665 C 283.499 384.334,284.340 383.934,285.000 383.777 C 285.660 383.621,286.470 383.274,286.800 383.007 C 287.365 382.550,288.443 382.071,289.104 381.982 C 289.267 381.961,289.670 381.707,290.000 381.419 C 290.330 381.131,291.050 380.761,291.600 380.598 C 292.150 380.435,292.780 380.160,293.000 379.986 C 293.603 379.509,298.396 376.874,300.087 376.090 C 300.905 375.710,301.625 375.150,301.687 374.844 C 301.749 374.538,302.315 374.233,302.943 374.167 C 303.572 374.100,304.429 373.736,304.846 373.358 C 305.730 372.559,306.951 371.809,308.500 371.117 C 309.105 370.846,309.600 370.489,309.600 370.323 C 309.600 370.156,310.185 369.725,310.900 369.363 C 311.615 369.002,312.605 368.336,313.100 367.883 C 313.595 367.431,314.000 367.222,314.000 367.419 C 314.000 367.617,314.280 367.378,314.623 366.889 C 314.965 366.400,315.414 366.000,315.620 366.000 C 315.825 366.000,316.460 365.595,317.029 365.100 C 317.598 364.605,318.216 364.200,318.402 364.200 C 318.588 364.200,319.413 363.605,320.235 362.877 C 321.057 362.149,322.240 361.289,322.865 360.966 C 323.489 360.644,324.000 360.204,324.000 359.990 C 324.000 359.775,324.268 359.600,324.597 359.600 C 324.925 359.600,325.418 359.240,325.693 358.800 C 325.968 358.360,326.342 358.000,326.526 358.000 C 326.709 358.000,327.521 357.364,328.329 356.586 C 329.138 355.808,330.970 354.264,332.400 353.154 C 333.830 352.044,335.585 350.520,336.299 349.768 C 337.014 349.016,337.686 348.400,337.793 348.400 C 338.401 348.400,350.644 335.622,353.265 332.253 C 354.314 330.904,355.808 329.138,356.586 328.329 C 357.364 327.521,358.000 326.709,358.000 326.526 C 358.000 326.342,358.360 325.968,358.800 325.693 C 359.240 325.418,359.600 324.925,359.600 324.597 C 359.600 324.268,359.775 324.000,359.990 324.000 C 360.204 324.000,360.653 323.471,360.987 322.825 C 361.321 322.179,362.214 320.974,362.972 320.147 C 363.730 319.320,364.273 318.519,364.179 318.367 C 364.086 318.215,364.280 317.865,364.612 317.590 C 364.943 317.315,365.505 316.478,365.860 315.731 C 366.214 314.983,366.598 314.465,366.712 314.579 C 366.827 314.693,367.518 313.845,368.249 312.693 C 368.980 311.542,369.853 310.248,370.189 309.819 C 370.525 309.389,370.800 308.903,370.800 308.739 C 370.800 308.334,373.147 304.880,373.621 304.587 C 373.830 304.458,374.000 304.016,374.000 303.605 C 374.000 303.194,374.270 302.587,374.600 302.257 C 374.930 301.927,375.200 301.557,375.200 301.436 C 375.200 301.314,375.918 300.041,376.796 298.607 C 377.673 297.173,378.290 296.000,378.167 296.000 C 378.044 296.000,378.226 295.717,378.571 295.371 C 378.917 295.026,379.200 294.508,379.200 294.220 C 379.200 293.933,379.458 293.483,379.774 293.221 C 380.090 292.959,380.462 292.230,380.600 291.600 C 380.738 290.970,381.098 290.250,381.400 290.000 C 381.702 289.750,382.062 289.030,382.200 288.400 C 382.338 287.770,382.710 287.041,383.026 286.779 C 383.342 286.517,383.600 286.008,383.600 285.648 C 383.600 285.288,384.050 284.148,384.600 283.115 C 385.150 282.082,385.600 280.868,385.600 280.418 C 385.600 279.968,385.735 279.599,385.900 279.597 C 386.276 279.593,387.200 277.642,387.200 276.852 C 387.200 276.528,387.485 275.948,387.834 275.563 C 388.183 275.177,388.566 274.128,388.687 273.231 C 388.807 272.334,389.054 271.600,389.237 271.600 C 389.419 271.600,389.780 270.835,390.039 269.900 C 390.299 268.965,390.859 267.442,391.283 266.516 C 391.708 265.590,392.005 264.510,391.942 264.116 C 391.880 263.722,392.160 262.902,392.564 262.294 C 392.969 261.686,393.390 260.336,393.501 259.294 C 393.611 258.252,393.940 257.125,394.232 256.790 C 394.523 256.454,394.877 255.374,395.018 254.390 C 395.159 253.405,395.556 251.974,395.899 251.209 C 396.243 250.444,396.654 248.488,396.813 246.862 C 396.975 245.216,397.325 243.770,397.605 243.597 C 397.912 243.407,398.172 242.068,398.276 240.143 C 398.386 238.084,398.678 236.655,399.122 236.000 C 400.165 234.461,400.165 165.539,399.122 164.000 C 398.678 163.345,398.386 161.916,398.276 159.857 C 398.172 157.932,397.912 156.593,397.605 156.403 C 397.325 156.230,396.975 154.784,396.813 153.138 C 396.654 151.512,396.243 149.556,395.899 148.791 C 395.556 148.026,395.159 146.595,395.018 145.610 C 394.877 144.626,394.523 143.546,394.232 143.210 C 393.940 142.875,393.611 141.748,393.501 140.706 C 393.390 139.664,392.969 138.314,392.564 137.706 C 392.160 137.098,391.880 136.278,391.942 135.884 C 392.005 135.490,391.708 134.410,391.283 133.484 C 390.859 132.558,390.299 131.035,390.039 130.100 C 389.780 129.165,389.419 128.400,389.237 128.400 C 389.054 128.400,388.807 127.666,388.687 126.769 C 388.566 125.872,388.183 124.823,387.834 124.437 C 387.485 124.052,387.200 123.472,387.200 123.148 C 387.200 122.358,386.276 120.407,385.900 120.403 C 385.735 120.401,385.600 120.032,385.600 119.582 C 385.600 119.132,385.150 117.918,384.600 116.885 C 384.050 115.852,383.600 114.712,383.600 114.352 C 383.600 113.992,383.342 113.483,383.026 113.221 C 382.710 112.959,382.338 112.230,382.200 111.600 C 382.062 110.970,381.702 110.250,381.400 110.000 C 381.098 109.750,380.738 109.030,380.600 108.400 C 380.462 107.770,380.090 107.041,379.774 106.779 C 379.458 106.517,379.200 106.067,379.200 105.780 C 379.200 105.492,378.917 104.974,378.571 104.629 C 378.226 104.283,378.044 104.000,378.167 104.000 C 378.290 104.000,377.673 102.827,376.796 101.393 C 375.918 99.959,375.200 98.686,375.200 98.564 C 375.200 98.443,374.930 98.073,374.600 97.743 C 374.270 97.413,374.000 96.806,374.000 96.395 C 374.000 95.984,373.830 95.542,373.621 95.413 C 373.147 95.120,370.800 91.666,370.800 91.261 C 370.800 91.097,370.525 90.611,370.189 90.181 C 369.853 89.752,368.980 88.458,368.249 87.307 C 367.518 86.155,366.827 85.307,366.712 85.421 C 366.598 85.535,366.214 85.017,365.860 84.269 C 365.505 83.522,364.943 82.685,364.612 82.410 C 364.280 82.135,364.086 81.785,364.179 81.633 C 364.273 81.481,363.730 80.680,362.972 79.853 C 362.214 79.026,361.321 77.821,360.987 77.175 C 360.653 76.529,360.204 76.000,359.990 76.000 C 359.775 76.000,359.600 75.732,359.600 75.403 C 359.600 75.075,359.240 74.582,358.800 74.307 C 358.360 74.032,358.000 73.658,358.000 73.474 C 358.000 73.291,357.364 72.479,356.586 71.671 C 355.808 70.862,354.314 69.096,353.265 67.747 C 350.644 64.378,338.401 51.600,337.793 51.600 C 337.686 51.600,337.014 50.984,336.299 50.232 C 335.585 49.480,333.830 47.956,332.400 46.846 C 330.970 45.736,329.138 44.192,328.329 43.414 C 327.521 42.636,326.709 42.000,326.526 42.000 C 326.342 42.000,325.968 41.640,325.693 41.200 C 325.418 40.760,324.925 40.400,324.597 40.400 C 324.268 40.400,324.000 40.225,324.000 40.010 C 324.000 39.796,323.489 39.356,322.865 39.034 C 322.240 38.711,321.057 37.851,320.235 37.123 C 319.413 36.395,318.588 35.800,318.402 35.800 C 318.216 35.800,317.598 35.395,317.029 34.900 C 316.460 34.405,315.825 34.000,315.620 34.000 C 315.414 34.000,314.965 33.600,314.623 33.111 C 314.280 32.622,314.000 32.383,314.000 32.581 C 314.000 32.778,313.595 32.569,313.100 32.117 C 312.605 31.664,311.615 30.998,310.900 30.637 C 310.185 30.275,309.600 29.844,309.600 29.677 C 309.600 29.511,309.105 29.154,308.500 28.883 C 306.951 28.191,305.730 27.441,304.846 26.642 C 304.429 26.264,303.572 25.900,302.943 25.833 C 302.315 25.767,301.749 25.462,301.687 25.156 C 301.625 24.850,300.905 24.290,300.087 23.910 C 298.396 23.126,293.603 20.491,293.000 20.014 C 292.780 19.840,292.150 19.565,291.600 19.402 C 291.050 19.239,290.330 18.869,290.000 18.581 C 289.670 18.293,289.220 18.021,289.000 17.978 C 288.160 17.811,287.378 17.461,286.800 16.993 C 286.470 16.726,285.660 16.379,285.000 16.223 C 284.340 16.066,283.499 15.666,283.131 15.335 C 282.763 15.003,281.728 14.634,280.831 14.513 C 279.855 14.383,279.200 14.082,279.200 13.765 C 279.200 13.468,278.542 13.118,277.700 12.967 C 276.875 12.820,275.899 12.436,275.531 12.115 C 275.163 11.795,274.113 11.432,273.197 11.309 C 272.280 11.186,271.442 10.855,271.334 10.573 C 271.226 10.291,270.390 9.934,269.477 9.779 C 268.564 9.625,267.397 9.223,266.882 8.886 C 266.368 8.549,265.363 8.238,264.648 8.195 C 263.933 8.151,262.863 7.797,262.269 7.408 C 261.674 7.019,260.336 6.610,259.294 6.499 C 258.252 6.389,257.117 6.052,256.771 5.751 C 256.425 5.450,255.255 5.085,254.171 4.939 C 253.087 4.793,251.806 4.419,251.324 4.107 C 250.843 3.795,249.075 3.409,247.396 3.248 C 245.640 3.081,244.210 2.740,244.028 2.446 C 243.830 2.125,242.464 1.863,240.356 1.742 C 238.136 1.615,236.662 1.322,236.000 0.875 C 235.037 0.225,168.856 -0.327,165.629 0.289 M209.200 20.580 C 216.147 22.162,218.036 22.701,221.800 24.176 C 223.780 24.952,226.177 25.780,227.128 26.016 C 228.078 26.253,229.409 26.975,230.087 27.623 C 230.764 28.270,231.607 28.801,231.959 28.802 C 232.591 28.803,234.686 29.825,238.600 32.041 C 239.700 32.663,241.770 33.746,243.200 34.447 C 244.630 35.148,246.160 36.025,246.600 36.396 C 247.703 37.325,254.273 41.200,254.745 41.200 C 254.956 41.200,255.598 41.758,256.172 42.440 C 256.746 43.122,258.157 44.130,259.308 44.681 C 260.458 45.232,262.570 46.718,264.000 47.983 C 265.430 49.247,267.394 50.687,268.364 51.182 C 269.334 51.677,271.404 53.278,272.964 54.741 C 274.524 56.204,277.015 58.377,278.500 59.570 C 279.985 60.764,281.200 61.889,281.200 62.072 C 281.200 62.255,282.300 63.528,283.644 64.902 C 284.988 66.276,286.641 68.210,287.317 69.200 C 287.992 70.190,289.115 71.720,289.812 72.600 C 290.967 74.059,292.955 77.722,295.131 82.400 C 298.081 88.741,296.979 94.584,291.841 99.846 L 289.708 102.030 285.754 102.545 C 283.579 102.828,281.440 103.247,281.000 103.478 C 280.560 103.708,277.140 104.013,273.400 104.157 C 262.955 104.557,251.997 105.890,248.103 107.234 C 246.836 107.671,244.900 108.280,243.800 108.588 C 242.700 108.895,240.360 109.878,238.600 110.772 C 236.840 111.665,235.168 112.397,234.884 112.398 C 234.201 112.401,229.628 114.947,226.034 117.326 C 223.944 118.710,215.678 125.794,214.695 127.043 C 214.301 127.543,213.644 128.059,213.234 128.189 C 212.825 128.319,212.012 129.147,211.428 130.029 C 210.845 130.911,209.209 132.895,207.793 134.438 C 206.377 135.981,204.880 137.998,204.467 138.921 C 204.054 139.845,203.330 140.943,202.858 141.362 C 202.386 141.781,202.000 142.309,202.000 142.536 C 202.000 142.763,201.665 143.320,201.257 143.774 C 200.304 144.832,198.647 148.056,197.786 150.526 C 197.416 151.585,196.684 152.916,196.157 153.484 C 195.631 154.052,195.200 154.828,195.200 155.208 C 195.200 155.588,194.572 157.971,193.804 160.505 C 192.013 166.410,190.429 177.463,190.378 184.400 C 190.226 205.177,184.621 211.605,169.603 208.224 C 167.955 207.853,166.335 207.327,166.003 207.055 C 165.671 206.783,164.320 206.034,163.000 205.390 C 161.680 204.747,159.520 203.420,158.200 202.443 C 156.880 201.465,155.026 200.110,154.080 199.433 C 152.066 197.989,143.181 189.235,141.666 187.200 C 141.092 186.430,139.267 184.180,137.609 182.200 C 135.952 180.220,133.736 177.340,132.686 175.800 C 131.636 174.260,130.159 172.190,129.404 171.200 C 128.649 170.210,127.921 168.907,127.785 168.305 C 127.649 167.702,127.362 167.100,127.147 166.967 C 126.535 166.589,122.353 160.070,120.952 157.310 C 120.256 155.940,119.218 154.261,118.644 153.579 C 118.070 152.897,117.600 152.107,117.600 151.823 C 117.600 151.540,117.273 150.879,116.874 150.354 C 116.475 149.829,115.735 148.410,115.230 147.200 C 114.725 145.990,114.027 144.677,113.679 144.283 C 113.034 143.554,112.201 141.568,111.629 139.400 C 111.455 138.740,110.938 137.570,110.480 136.800 C 109.654 135.411,107.679 130.040,106.582 126.200 C 104.519 118.976,105.080 105.111,107.565 101.928 C 107.964 101.418,108.413 100.606,108.564 100.125 C 108.963 98.852,115.378 92.471,116.556 92.175 C 117.107 92.037,117.827 91.513,118.156 91.011 C 118.485 90.509,119.245 89.975,119.845 89.824 C 120.446 89.674,121.380 89.202,121.922 88.775 C 122.464 88.349,123.094 88.000,123.322 88.000 C 123.550 88.000,124.021 87.743,124.369 87.429 C 124.716 87.114,126.424 86.392,128.164 85.824 C 129.904 85.256,131.544 84.612,131.808 84.394 C 132.071 84.175,133.328 83.638,134.600 83.200 C 135.872 82.762,137.113 82.253,137.356 82.069 C 137.600 81.884,139.060 81.325,140.600 80.827 C 142.140 80.328,144.480 79.337,145.800 78.624 C 147.120 77.911,149.190 77.012,150.400 76.625 C 151.610 76.238,152.960 75.518,153.400 75.024 C 153.840 74.531,155.370 73.071,156.800 71.781 C 158.230 70.491,159.670 69.051,160.000 68.582 C 162.248 65.389,163.201 63.736,163.206 63.022 C 163.209 62.570,163.434 61.804,163.706 61.321 C 165.450 58.219,166.330 56.474,166.593 55.600 C 166.759 55.050,167.113 54.330,167.380 54.000 C 167.917 53.335,168.983 50.458,169.381 48.600 C 169.602 47.566,171.549 42.988,173.464 39.000 C 174.406 37.036,176.947 32.580,177.709 31.555 C 178.099 31.030,179.011 29.708,179.736 28.618 C 180.566 27.370,181.673 26.325,182.725 25.795 C 183.644 25.332,184.892 24.502,185.498 23.950 C 190.173 19.695,199.496 18.369,209.200 20.580 M188.535 36.424 C 187.236 37.256,185.778 39.111,186.139 39.472 C 186.250 39.583,186.617 39.141,186.954 38.489 C 187.305 37.811,188.300 36.949,189.283 36.472 C 190.227 36.014,190.730 35.634,190.400 35.627 C 190.070 35.619,189.231 35.978,188.535 36.424 M195.151 36.687 C 196.320 37.391,197.149 38.284,197.643 39.371 C 198.049 40.267,198.386 40.766,198.391 40.480 C 198.417 38.950,195.138 35.543,193.708 35.616 C 193.539 35.624,194.188 36.106,195.151 36.687 M208.191 37.251 C 207.206 38.159,206.400 39.065,206.400 39.265 C 206.400 39.464,206.982 38.965,207.693 38.156 C 208.403 37.346,209.528 36.447,210.193 36.157 C 210.948 35.828,211.134 35.625,210.691 35.616 C 210.301 35.607,209.176 36.343,208.191 37.251 M206.101 41.800 C 206.105 42.680,206.187 42.993,206.283 42.495 C 206.379 41.998,206.375 41.278,206.275 40.895 C 206.175 40.513,206.096 40.920,206.101 41.800 M218.186 43.531 C 217.481 45.491,216.046 47.073,214.400 47.706 C 213.906 47.896,213.918 47.942,214.469 47.968 C 216.047 48.043,219.593 43.379,219.095 41.884 C 219.011 41.633,218.602 42.374,218.186 43.531 M185.632 42.753 C 185.590 43.999,186.930 46.135,188.307 47.018 C 189.156 47.561,189.065 47.388,187.904 46.243 C 187.081 45.432,186.300 44.281,186.169 43.684 C 185.786 41.947,185.665 41.737,185.632 42.753 M197.898 43.471 C 197.752 44.170,196.968 45.405,196.157 46.216 C 195.267 47.106,195.025 47.508,195.547 47.229 C 196.718 46.602,198.505 43.827,198.317 42.928 C 198.215 42.439,198.077 42.617,197.898 43.471 M206.412 44.278 C 206.405 44.540,206.805 45.179,207.300 45.697 C 207.795 46.215,208.000 46.360,207.756 46.020 C 207.512 45.679,207.112 45.040,206.868 44.600 C 206.624 44.160,206.419 44.015,206.412 44.278 M196.425 57.831 C 197.181 58.728,197.881 59.397,197.980 59.317 C 198.079 59.238,197.460 58.504,196.605 57.687 L 195.050 56.200 196.425 57.831 M187.004 57.996 C 186.374 58.654,185.935 59.256,186.029 59.334 C 186.123 59.412,186.713 58.874,187.339 58.138 C 188.754 56.477,188.545 56.388,187.004 57.996 M207.229 58.254 C 206.773 58.834,206.405 59.509,206.412 59.754 C 206.419 59.999,206.624 59.840,206.868 59.400 C 207.112 58.960,207.585 58.285,207.918 57.900 C 208.251 57.515,208.419 57.200,208.291 57.200 C 208.163 57.200,207.685 57.674,207.229 58.254 M206.109 62.000 C 206.109 62.990,206.187 63.395,206.282 62.900 C 206.378 62.405,206.378 61.595,206.282 61.100 C 206.187 60.605,206.109 61.010,206.109 62.000 M185.600 63.120 C 185.599 66.026,189.954 68.873,193.410 68.225 C 194.849 67.955,198.000 65.509,198.000 64.662 C 198.000 64.418,197.458 64.876,196.795 65.679 C 193.853 69.249,188.543 68.543,186.444 64.304 C 185.980 63.367,185.600 62.834,185.600 63.120 M206.432 64.425 C 206.414 64.769,206.985 65.579,207.700 66.225 L 209.000 67.400 207.950 66.200 C 207.372 65.540,206.802 64.730,206.681 64.400 C 206.493 63.883,206.459 63.887,206.432 64.425 M210.446 68.037 C 210.751 68.230,211.810 68.376,212.800 68.362 C 214.933 68.332,214.555 68.140,211.846 67.876 C 210.642 67.759,210.105 67.821,210.446 68.037 M217.400 80.371 C 218.060 80.531,219.005 80.879,219.500 81.145 C 219.995 81.411,220.400 81.536,220.400 81.424 C 220.400 81.010,218.009 80.001,217.120 80.041 C 216.368 80.074,216.419 80.135,217.400 80.371 M206.467 83.100 L 204.965 84.600 206.382 83.401 C 207.162 82.742,207.971 82.067,208.180 81.901 C 208.389 81.735,208.427 81.600,208.265 81.600 C 208.102 81.600,207.293 82.275,206.467 83.100 M225.603 86.090 C 225.601 86.250,225.959 86.970,226.399 87.690 C 226.838 88.411,227.196 88.820,227.196 88.600 C 227.195 88.380,226.837 87.660,226.400 87.000 C 225.963 86.340,225.604 85.931,225.603 86.090 M227.328 92.800 C 227.328 94.230,227.401 94.815,227.489 94.100 C 227.578 93.385,227.578 92.215,227.489 91.500 C 227.401 90.785,227.328 91.370,227.328 92.800 M202.114 92.600 C 202.117 93.700,202.195 94.103,202.287 93.495 C 202.379 92.886,202.377 91.986,202.282 91.495 C 202.187 91.003,202.111 91.500,202.114 92.600 M226.425 97.283 C 226.115 98.007,225.789 98.780,225.701 99.000 C 225.612 99.220,225.929 98.818,226.405 98.106 C 226.881 97.395,227.207 96.622,227.130 96.389 C 227.052 96.156,226.735 96.558,226.425 97.283 M134.433 99.747 C 134.525 99.828,135.860 99.986,137.400 100.099 C 139.002 100.216,139.858 100.165,139.400 99.980 C 138.622 99.665,134.100 99.453,134.433 99.747 M224.744 100.300 C 223.593 101.689,223.106 102.400,223.304 102.400 C 223.414 102.400,223.986 101.770,224.573 101.000 C 225.663 99.571,225.795 99.032,224.744 100.300 M205.825 101.627 C 207.455 103.329,211.554 105.202,214.096 105.405 L 216.200 105.574 214.128 105.194 C 211.308 104.678,207.941 103.133,206.377 101.638 C 204.703 100.038,204.296 100.030,205.825 101.627 M144.296 102.039 C 145.448 102.711,147.228 104.192,148.252 105.331 C 149.275 106.469,149.742 106.860,149.291 106.200 C 147.822 104.054,143.730 100.779,142.553 100.809 C 142.359 100.814,143.143 101.367,144.296 102.039 M124.330 105.100 C 123.568 105.997,121.599 109.440,121.602 109.871 C 121.603 110.148,122.723 108.476,124.798 105.100 C 125.035 104.715,125.160 104.400,125.076 104.400 C 124.992 104.400,124.657 104.715,124.330 105.100 M120.937 115.400 C 120.939 117.160,121.009 117.830,121.093 116.889 C 121.178 115.949,121.177 114.509,121.091 113.689 C 121.005 112.870,120.936 113.640,120.937 115.400 M175.400 116.246 C 173.846 116.792,173.840 116.801,175.200 116.547 C 175.970 116.403,177.590 116.157,178.800 116.001 L 181.000 115.718 179.000 115.701 C 177.900 115.691,176.280 115.937,175.400 116.246 M171.146 118.178 C 169.848 119.060,166.800 123.048,166.800 123.864 C 166.800 124.045,167.528 123.080,168.417 121.719 C 169.306 120.358,170.656 118.860,171.417 118.390 C 172.178 117.919,172.800 117.459,172.800 117.367 C 172.800 117.085,172.636 117.166,171.146 118.178 M185.200 117.318 C 185.200 117.420,186.047 118.197,187.081 119.045 C 188.116 119.893,188.834 120.378,188.676 120.123 C 188.340 119.579,185.200 117.045,185.200 117.318 M121.604 120.951 C 121.594 121.837,124.087 125.511,125.276 126.364 L 126.600 127.314 125.155 125.757 C 124.361 124.901,123.237 123.390,122.659 122.400 C 122.081 121.410,121.606 120.758,121.604 120.951 M149.152 124.100 C 148.656 124.815,147.518 126.099,146.625 126.953 C 145.731 127.806,145.389 128.304,145.865 128.057 C 146.752 127.598,149.367 124.749,150.047 123.500 C 150.682 122.334,150.113 122.715,149.152 124.100 M190.463 123.800 C 190.462 124.020,190.703 124.830,191.000 125.600 C 191.297 126.370,191.545 126.730,191.552 126.400 C 191.558 126.070,191.317 125.260,191.014 124.600 C 190.712 123.940,190.464 123.580,190.463 123.800 M136.100 131.076 C 136.485 131.176,137.115 131.176,137.500 131.076 C 137.885 130.975,137.570 130.893,136.800 130.893 C 136.030 130.893,135.715 130.975,136.100 131.076 M166.400 131.988 C 166.400 132.973,169.157 137.017,170.470 137.959 C 171.700 138.841,171.675 138.780,170.131 137.156 C 169.213 136.190,167.998 134.518,167.431 133.440 C 166.864 132.363,166.400 131.709,166.400 131.988 M172.800 139.376 C 172.800 139.743,175.144 140.801,175.880 140.766 C 176.359 140.743,176.257 140.627,175.577 140.421 C 175.014 140.250,174.159 139.899,173.677 139.641 C 173.194 139.383,172.800 139.264,172.800 139.376 " stroke="none" fill="#8699b8" fill-rule="evenodd"></path><path id="path2" d="M189.318 36.456 C 184.225 38.927,185.172 46.730,190.700 47.830 C 197.405 49.165,201.020 40.401,195.257 36.782 C 193.080 35.414,191.629 35.335,189.318 36.456 M210.193 36.157 C 203.832 38.929,205.991 48.485,212.842 47.889 C 218.867 47.364,220.654 39.658,215.458 36.613 C 213.548 35.494,212.019 35.362,210.193 36.157 M188.965 56.733 C 185.001 59.225,184.758 64.207,188.471 66.850 C 192.988 70.067,199.442 65.754,198.019 60.471 C 197.027 56.785,192.109 54.755,188.965 56.733 M209.594 56.741 C 205.150 59.102,205.326 65.508,209.887 67.452 C 215.964 70.041,221.193 63.368,217.133 58.206 C 215.433 56.045,212.116 55.400,209.594 56.741 M212.200 80.370 C 207.397 81.710,204.642 84.305,203.066 88.971 C 199.006 100.993,214.811 110.531,223.708 101.429 C 232.205 92.737,223.695 77.163,212.200 80.370 M132.074 100.625 C 119.717 103.950,117.188 120.577,127.869 128.264 C 130.816 130.384,137.639 131.453,140.486 130.240 C 141.209 129.933,142.564 129.366,143.499 128.980 C 145.329 128.226,147.612 126.243,149.234 124.000 C 157.641 112.376,146.219 96.818,132.074 100.625 M175.161 116.604 C 168.164 118.523,164.164 127.235,167.432 133.440 C 171.126 140.456,178.629 142.752,185.199 138.878 C 197.861 131.411,189.425 112.692,175.161 116.604 M279.182 198.144 C 275.274 199.198,270.168 204.452,268.375 209.263 C 267.150 212.551,267.130 212.725,266.988 221.200 C 266.831 230.533,266.732 231.056,263.944 237.176 C 263.286 238.619,262.573 240.610,262.360 241.600 C 261.799 244.198,260.847 250.225,260.576 252.900 C 260.104 257.552,259.214 255.282,259.204 249.400 C 259.201 247.200,259.017 243.780,258.797 241.800 C 257.782 232.696,257.455 230.388,256.755 227.400 C 256.343 225.640,256.002 223.750,255.998 223.200 C 255.979 220.779,252.700 215.686,250.228 214.238 C 245.984 211.750,237.994 214.713,236.937 219.167 C 236.802 219.735,236.445 220.650,236.145 221.200 C 234.331 224.516,233.912 227.167,233.613 237.200 C 233.312 247.290,232.544 253.499,231.317 255.755 C 230.972 256.391,230.541 258.371,230.359 260.155 C 229.669 266.930,228.741 269.428,224.740 275.284 C 224.333 275.880,224.000 276.510,223.999 276.684 C 223.998 276.858,223.344 278.080,222.545 279.400 C 220.312 283.090,217.806 288.283,216.659 291.600 C 216.088 293.250,215.063 296.040,214.381 297.800 C 213.699 299.560,212.958 301.630,212.734 302.400 C 212.509 303.170,212.162 303.971,211.963 304.180 C 211.763 304.389,211.600 304.819,211.600 305.136 C 211.600 305.453,211.247 306.452,210.816 307.356 C 210.386 308.260,209.477 310.350,208.797 312.000 C 208.117 313.650,207.154 315.630,206.655 316.400 C 206.157 317.170,205.336 318.919,204.831 320.288 C 204.325 321.656,203.648 322.994,203.327 323.261 C 203.005 323.528,202.388 324.389,201.956 325.173 C 201.524 325.958,200.737 327.320,200.209 328.200 C 199.680 329.080,198.947 330.475,198.580 331.300 C 198.213 332.125,197.750 332.800,197.552 332.800 C 197.353 332.800,196.530 333.835,195.724 335.100 C 190.965 342.568,182.834 347.945,179.223 346.012 C 178.799 345.786,178.061 345.600,177.583 345.600 C 175.664 345.600,170.695 339.191,169.730 335.470 C 169.446 334.374,168.921 333.155,168.564 332.761 C 167.709 331.816,166.921 327.600,166.188 320.055 C 165.860 316.675,165.489 313.744,165.364 313.541 C 165.238 313.338,164.969 306.924,164.764 299.286 C 164.560 291.649,164.226 284.590,164.022 283.600 C 162.297 275.204,160.074 270.983,155.532 267.475 C 150.779 263.806,142.960 264.047,136.777 268.054 C 134.325 269.643,133.828 271.016,133.037 278.400 C 130.576 301.347,130.444 310.022,132.266 329.000 C 132.972 336.356,132.830 352.693,131.992 360.485 C 131.554 364.555,132.681 381.621,133.597 384.797 C 134.109 386.573,134.113 388.852,133.605 390.186 C 133.189 391.282,134.398 392.175,135.964 391.929 C 136.314 391.874,137.098 392.160,137.706 392.564 C 138.314 392.969,139.664 393.390,140.706 393.501 C 141.748 393.611,142.883 393.948,143.229 394.249 C 143.575 394.550,144.745 394.915,145.829 395.061 C 146.913 395.207,148.194 395.581,148.676 395.893 C 149.157 396.205,150.925 396.591,152.604 396.752 C 154.418 396.925,155.788 397.257,155.982 397.571 C 156.191 397.909,157.594 398.189,159.896 398.352 C 162.162 398.512,163.749 398.826,164.203 399.203 C 165.350 400.154,234.543 400.099,236.000 399.146 C 236.627 398.735,238.226 398.414,240.290 398.284 C 242.549 398.142,243.780 397.877,244.219 397.439 C 244.601 397.056,245.532 396.800,246.541 396.800 C 248.074 396.800,248.233 396.705,248.313 395.740 C 248.361 395.158,248.550 394.483,248.733 394.240 C 248.915 393.998,249.475 392.630,249.977 391.200 C 250.936 388.463,253.019 384.477,253.844 383.800 C 254.112 383.580,254.873 382.107,255.537 380.526 C 256.200 378.945,257.385 376.647,258.171 375.418 C 258.957 374.190,259.600 373.115,259.600 373.030 C 259.600 372.667,263.814 365.704,264.640 364.702 C 265.137 364.098,265.670 363.209,265.824 362.726 C 266.078 361.923,267.626 359.718,270.121 356.600 C 270.649 355.940,271.310 354.950,271.590 354.400 C 271.869 353.850,272.525 352.941,273.046 352.381 C 274.072 351.279,276.372 347.677,277.877 344.818 C 278.392 343.838,279.138 342.668,279.533 342.218 C 280.592 341.014,281.360 339.634,282.150 337.516 C 282.537 336.480,283.280 335.004,283.801 334.237 C 285.405 331.873,291.131 320.540,291.599 318.804 C 291.842 317.902,292.571 316.327,293.220 315.304 C 293.869 314.280,294.400 313.247,294.400 313.006 C 294.400 312.766,294.764 311.856,295.209 310.985 C 296.064 309.308,297.008 306.527,298.393 301.600 C 298.857 299.950,299.485 298.060,299.788 297.400 C 301.090 294.564,303.356 286.240,304.360 280.600 C 304.596 279.280,305.176 276.490,305.649 274.400 C 306.923 268.778,306.851 263.660,305.459 260.915 C 304.373 258.773,302.182 256.000,301.576 256.000 C 301.103 256.000,298.284 254.057,297.915 253.476 C 297.425 252.706,297.550 248.857,298.183 245.200 C 298.507 243.330,299.145 239.190,299.601 236.000 C 300.058 232.810,300.523 229.773,300.636 229.251 C 300.997 227.574,297.940 225.079,294.814 224.498 C 291.466 223.875,291.576 224.067,291.178 218.142 C 290.961 214.909,290.467 211.664,289.849 209.400 C 286.834 198.362,285.112 196.545,279.182 198.144 " stroke="none" fill="#fafaf7" fill-rule="evenodd"></path></g></svg>