<svg id="svg" version="1.1" xmlns="http://www.w3.org/2000/svg" xmlns:xlink="http://www.w3.org/1999/xlink" width="400" height="400" viewBox="0, 0, 400,400"><g id="svgg"><path id="path0" d="M143.125 5.267 C 127.481 7.371,114.264 18.495,109.432 33.625 C 101.804 57.508,117.357 82.623,142.250 86.617 C 144.251 86.938,148.181 86.998,167.188 86.999 L 189.750 87.000 189.748 66.313 C 189.745 41.565,189.621 39.569,187.697 33.500 C 181.769 14.800,162.587 2.649,143.125 5.267 M246.875 5.154 C 226.411 8.219,212.227 22.880,210.504 42.750 C 210.172 46.578,210.169 147.796,210.500 151.800 C 212.699 178.333,238.971 195.841,264.223 187.602 C 279.507 182.615,290.400 169.164,292.254 152.989 C 292.443 151.338,292.499 134.036,292.439 95.625 L 292.353 40.625 291.806 38.139 C 288.128 21.428,276.011 9.259,259.544 5.735 C 257.188 5.231,248.899 4.851,246.875 5.154 M41.875 107.665 C 13.909 111.019,-2.504 139.100,8.365 165.000 C 14.060 178.569,27.546 188.178,42.750 189.496 C 46.578 189.828,147.796 189.831,151.800 189.500 C 178.314 187.303,195.835 161.010,187.602 135.777 C 182.648 120.593,169.373 109.766,153.257 107.763 C 151.295 107.520,43.877 107.425,41.875 107.665 M349.750 107.655 C 330.779 110.022,316.352 123.746,313.383 142.250 C 313.062 144.251,313.002 148.181,313.001 167.188 L 313.000 189.750 333.688 189.748 C 361.219 189.745,363.411 189.512,371.428 185.744 C 399.112 172.730,403.285 134.987,379.125 116.126 C 371.092 109.854,359.323 106.461,349.750 107.655 M42.260 210.529 C 7.940 213.574,-7.400 255.591,16.816 280.219 C 37.400 301.152,72.691 294.267,83.992 267.113 C 86.947 260.014,86.998 259.433,86.999 232.813 L 87.000 210.250 65.813 210.284 C 54.159 210.303,43.561 210.413,42.260 210.529 M144.987 210.510 C 125.420 212.256,109.997 227.372,107.746 247.011 C 107.557 248.662,107.501 265.964,107.561 304.375 L 107.647 359.375 108.194 361.861 C 113.942 387.972,140.526 401.905,165.000 391.635 C 178.569 385.940,188.178 372.454,189.496 357.250 C 189.828 353.422,189.831 252.204,189.500 248.200 C 187.828 228.021,171.979 212.172,151.800 210.500 C 148.572 210.233,148.091 210.234,144.987 210.510 " stroke="none" fill="#8699b8" fill-rule="evenodd"></path><path id="path1" d="M247.820 210.510 C 233.627 211.675,220.657 220.696,214.402 233.753 C 202.183 259.261,218.768 289.013,247.011 292.254 C 248.664 292.444,265.926 292.500,304.375 292.439 L 359.375 292.352 361.861 291.805 C 387.968 286.064,401.905 259.474,391.635 235.000 C 385.940 221.431,372.454 211.822,357.250 210.504 C 353.871 210.211,251.398 210.217,247.820 210.510 M210.252 333.688 C 210.255 361.219,210.488 363.411,214.256 371.428 C 226.296 397.040,260.016 403.049,280.219 383.184 C 301.152 362.600,294.267 327.309,267.113 316.008 C 260.014 313.053,259.433 313.002,232.813 313.001 L 210.250 313.000 210.252 333.688 " stroke="none" fill="#8699b8" fill-rule="evenodd"></path></g></svg>