<svg version="1.1" id="Layer_1" xmlns="http://www.w3.org/2000/svg" xmlns:xlink="http://www.w3.org/1999/xlink" x="0px" y="0px"
	 width="100%" viewBox="0 0 200 200" enable-background="new 0 0 200 200" xml:space="preserve">
<path fill="#193248" opacity="1.000000" stroke="none" 
	d="
M1.000001,185.000000 
	C1.000000,123.738853 1.000000,62.477715 1.000000,1.000000 
	C63.354061,1.000000 125.708374,1.000000 188.397217,1.317191 
	C187.408279,2.965540 186.290390,5.062531 184.722595,5.483366 
	C180.134048,6.715046 175.244522,6.859271 170.690735,8.180409 
	C154.863480,12.772180 139.285477,17.912828 124.276672,25.010494 
	C107.775566,32.813866 92.516235,42.230061 78.357849,53.668659 
	C76.131989,55.466930 73.278351,58.660057 69.574120,55.910980 
	C67.184952,54.137875 64.809845,52.280052 62.737061,50.158642 
	C56.253338,43.522820 49.913067,36.746746 43.525337,30.017307 
	C42.497593,28.934587 41.282291,27.945631 40.548477,26.683752 
	C38.214397,22.670034 28.843479,18.623724 23.842606,19.764465 
	C38.002792,33.672501 52.089886,47.508743 66.140289,61.660877 
	C65.400085,63.016300 64.696564,64.055832 63.683670,65.229202 
	C61.203159,68.449394 59.168167,71.643150 56.834564,74.601341 
	C50.599644,82.505005 43.487034,89.830536 38.114902,98.271530 
	C31.470135,108.712158 25.607672,119.767662 20.547619,131.068146 
	C15.091865,143.252350 10.872893,155.997055 6.280131,168.557831 
	C4.304915,173.959869 2.747325,179.514633 1.000001,185.000000 
z"/>
<path fill="#EF8815" opacity="1.000000" stroke="none" 
	d="
M201.000000,5.000000 
	C201.000000,13.687563 201.000000,22.375126 200.663879,31.604187 
	C196.446915,35.702126 192.405670,39.100586 188.717102,42.846359 
	C179.754456,51.947979 171.100723,61.356491 162.054855,70.372795 
	C150.276657,82.112495 138.287796,93.643005 126.256714,105.124283 
	C124.642464,106.664764 122.252808,107.392700 119.519539,108.879005 
	C119.509140,108.913933 119.191010,109.982498 118.570709,110.909363 
	C115.496758,107.217667 112.724976,103.667686 109.929520,99.754837 
	C108.900925,98.608620 107.896011,97.825264 106.663200,96.972290 
	C106.144592,96.717758 105.985741,96.453568 106.002029,95.746613 
	C108.590546,93.194916 111.275475,91.148102 113.657440,88.794655 
	C125.663391,76.932457 137.542023,64.941315 149.558258,53.089642 
	C162.302643,40.519764 175.058548,27.958084 188.027954,15.622602 
	C190.833282,12.954391 191.717133,10.562581 190.426971,7.116758 
	C194.226212,6.363820 197.613098,5.681910 201.000000,5.000000 
z"/>
<path fill="#EF8715" opacity="1.000000" stroke="none" 
	d="
M29.000000,201.000000 
	C19.666615,201.000000 10.333228,201.000000 1.000000,201.000000 
	C1.000000,199.282639 1.000000,197.640793 1.183345,195.382416 
	C1.599523,194.590210 1.807352,194.388718 2.207841,194.089508 
	C2.425503,194.017593 2.879750,193.955475 3.268148,194.035065 
	C11.424973,195.976303 15.652031,193.170990 17.696140,186.424500 
	C22.146685,182.804688 25.493214,180.603134 28.183535,177.776932 
	C32.599289,173.138123 36.518986,168.031174 40.792351,163.250793 
	C42.562275,161.270905 44.688747,159.606064 46.681942,157.830338 
	C49.335720,155.466125 53.920704,153.416763 54.320202,150.732651 
	C55.392395,143.528824 61.074650,142.152496 65.726799,139.254288 
	C67.306915,138.269897 68.994759,137.449570 70.669174,136.627151 
	C74.803123,134.596680 73.291954,129.414505 75.825165,126.901711 
	C84.751320,118.047516 92.546204,107.853386 104.400848,101.946808 
	C107.879692,104.987167 111.003632,107.972816 113.825439,111.065910 
	C111.907219,114.723633 110.981567,118.870750 108.533928,121.702187 
	C103.133797,127.949097 97.007515,133.574524 91.104820,139.379593 
	C73.568718,156.625610 56.007416,173.846039 38.427536,191.047440 
	C36.177608,193.248917 33.684010,195.202637 31.453203,197.421829 
	C30.445835,198.423920 29.806377,199.795853 29.000000,201.000000 
z"/>
<path fill="#EF8F15" opacity="1.000000" stroke="none" 
	d="
M29.468636,201.000000 
	C29.806377,199.795853 30.445835,198.423920 31.453203,197.421829 
	C33.684010,195.202637 36.177608,193.248917 38.427536,191.047440 
	C56.007416,173.846039 73.568718,156.625610 91.104820,139.379593 
	C97.007515,133.574524 103.133797,127.949097 108.533928,121.702187 
	C110.981567,118.870750 111.907219,114.723633 114.133217,111.204285 
	C120.206741,116.802635 125.670349,122.370056 130.772064,127.932205 
	C128.865356,127.513298 127.320564,127.099663 126.478577,126.874214 
	C123.752396,130.375778 121.611397,133.738678 118.881523,136.524536 
	C107.837395,147.795120 96.788116,159.071747 85.400154,169.990967 
	C75.511452,179.472626 65.144768,188.454926 55.051075,197.725128 
	C54.136375,198.565216 53.672977,199.896713 53.000000,201.000000 
	C45.312424,201.000000 37.624847,201.000000 29.468636,201.000000 
z"/>
<path fill="#000000" opacity="1.000000" stroke="none" 
	d="
M131.133957,127.937477 
	C125.670349,122.370056 120.206741,116.802635 114.435349,111.096832 
	C111.003632,107.972816 107.879692,104.987167 104.371140,101.590271 
	C102.701553,99.669044 101.495773,98.081573 100.112503,96.667778 
	C98.181740,94.694412 96.118385,92.850761 93.975449,90.646210 
	C91.596512,88.211006 89.353905,86.081192 86.972557,83.644081 
	C84.844566,80.895531 82.855309,78.454285 80.850250,75.676430 
	C75.948624,70.674873 71.062805,66.009933 66.176979,61.344986 
	C52.089886,47.508743 38.002792,33.672501 23.842606,19.764465 
	C28.843479,18.623724 38.214397,22.670034 40.548477,26.683752 
	C41.282291,27.945631 42.497593,28.934587 43.525337,30.017307 
	C49.913067,36.746746 56.253338,43.522820 62.737061,50.158642 
	C64.809845,52.280052 67.184952,54.137875 69.574120,55.910980 
	C73.278351,58.660057 76.131989,55.466930 78.357849,53.668659 
	C92.516235,42.230061 107.775566,32.813866 124.276672,25.010494 
	C139.285477,17.912828 154.863480,12.772180 170.690735,8.180409 
	C175.244522,6.859271 180.134048,6.715046 184.722595,5.483366 
	C186.290390,5.062531 187.408279,2.965540 188.865875,1.317191 
	C192.166672,1.000000 195.384155,1.351247 198.485870,0.902390 
	C201.663315,0.442572 200.951920,2.345620 201.000000,4.500000 
	C197.613098,5.681910 194.226212,6.363820 190.048798,7.172175 
	C175.826889,12.165747 162.395477,17.032873 148.597900,21.950325 
	C141.168106,25.497135 133.910309,28.654728 127.084152,32.565678 
	C115.429398,39.243095 103.844353,46.089840 93.990685,55.429634 
	C91.624107,57.672806 89.188896,60.115616 86.318794,61.498531 
	C80.452545,64.325104 78.903198,69.257835 83.329193,73.722679 
	C86.315475,76.735168 89.726021,79.327110 93.090637,82.423882 
	C97.475914,87.197090 101.717331,91.653587 105.958740,96.110092 
	C105.985741,96.453568 106.144592,96.717758 106.801254,97.285889 
	C108.095871,98.485306 109.024536,99.301506 109.953201,100.117699 
	C112.724976,103.667686 115.496758,107.217667 118.698898,111.223366 
	C123.747688,116.116501 128.366119,120.553925 133.123962,125.295029 
	C135.496170,127.769981 137.728943,129.941254 140.090622,132.416367 
	C141.816940,134.422394 143.414368,136.124588 145.323639,137.980774 
	C147.757156,141.458038 149.878830,144.781311 151.648132,148.141418 
	C149.894257,146.768799 148.492752,145.359329 146.953705,143.636017 
	C141.588776,138.193939 136.361359,133.065704 131.133957,127.937477 
z"/>
<path fill="#F09015" opacity="1.000000" stroke="none" 
	d="
M132.984528,124.991348 
	C128.366119,120.553925 123.747688,116.116501 119.001068,111.365067 
	C119.191010,109.982498 119.509140,108.913933 119.519539,108.879005 
	C122.252808,107.392700 124.642464,106.664764 126.256714,105.124283 
	C138.287796,93.643005 150.276657,82.112495 162.054855,70.372795 
	C171.100723,61.356491 179.754456,51.947979 188.717102,42.846359 
	C192.405670,39.100586 196.446915,35.702126 200.663879,32.072845 
	C201.000000,39.354252 201.000000,46.708500 200.680573,54.631874 
	C195.161972,60.712814 190.074219,66.335083 184.742035,71.715065 
	C170.609497,85.974289 156.407196,100.165070 142.140518,114.290031 
	C139.700790,116.705528 136.652390,118.505180 134.203522,120.913086 
	C133.317307,121.784470 133.363693,123.604301 132.984528,124.991348 
z"/>
<path fill="#F19614" opacity="1.000000" stroke="none" 
	d="
M130.772064,127.932205 
	C136.361359,133.065704 141.588776,138.193939 146.598450,143.577118 
	C143.568268,143.275681 141.252090,139.105637 137.938385,142.360428 
	C131.213623,148.965637 124.673790,155.758728 117.983528,162.399612 
	C109.634033,170.687500 101.194046,178.884155 92.823936,187.151382 
	C88.183540,191.734756 83.605919,196.381714 79.000000,201.000000 
	C70.645767,201.000000 62.291538,201.000000 53.468655,201.000000 
	C53.672977,199.896713 54.136375,198.565216 55.051075,197.725128 
	C65.144768,188.454926 75.511452,179.472626 85.400154,169.990967 
	C96.788116,159.071747 107.837395,147.795120 118.881523,136.524536 
	C121.611397,133.738678 123.752396,130.375778 126.478577,126.874214 
	C127.320564,127.099663 128.865356,127.513298 130.772064,127.932205 
z"/>
<path fill="#F29E13" opacity="1.000000" stroke="none" 
	d="
M79.468658,201.000000 
	C83.605919,196.381714 88.183540,191.734756 92.823936,187.151382 
	C101.194046,178.884155 109.634033,170.687500 117.983528,162.399612 
	C124.673790,155.758728 131.213623,148.965637 137.938385,142.360428 
	C141.252090,139.105637 143.568268,143.275681 146.735992,143.890976 
	C148.492752,145.359329 149.894257,146.768799 151.641144,148.109741 
	C151.986496,148.041229 151.958755,147.982574 151.896545,148.313293 
	C151.930496,149.082520 152.026688,149.521011 151.891815,150.254379 
	C151.282410,154.965134 148.694153,158.002274 145.625229,160.940933 
	C133.633591,172.423553 121.724892,183.994217 109.914223,195.662582 
	C108.533127,197.027054 107.951988,199.201202 107.000000,201.000000 
	C97.979103,201.000000 88.958214,201.000000 79.468658,201.000000 
z"/>
<path fill="#F4A713" opacity="1.000000" stroke="none" 
	d="
M107.468658,201.000000 
	C107.951988,199.201202 108.533127,197.027054 109.914223,195.662582 
	C121.724892,183.994217 133.633591,172.423553 145.625229,160.940933 
	C148.694153,158.002274 151.282410,154.965134 152.196228,150.386856 
	C157.528198,155.469452 162.324661,160.714417 166.787994,166.089081 
	C165.515182,168.075150 164.955795,170.300156 163.572830,171.726837 
	C155.857681,179.685928 148.085419,187.603729 139.996643,195.176712 
	C137.977020,197.067551 137.078232,198.500076 138.000000,201.000000 
	C127.979103,201.000000 117.958214,201.000000 107.468658,201.000000 
z"/>
<path fill="#000000" opacity="1.000000" stroke="none" 
	d="
M2.879750,193.955475 
	C2.879750,193.955475 2.425503,194.017593 1.965268,194.018600 
	C1.336689,194.013062 1.168344,194.006531 1.000000,194.000000 
	C1.000000,191.299988 1.000000,188.599976 1.000001,185.449982 
	C2.747325,179.514633 4.304915,173.959869 6.280131,168.557831 
	C10.872893,155.997055 15.091865,143.252350 20.547619,131.068146 
	C25.607672,119.767662 31.470135,108.712158 38.114902,98.271530 
	C43.487034,89.830536 50.599644,82.505005 56.834564,74.601341 
	C59.168167,71.643150 61.203159,68.449394 63.696938,65.514877 
	C65.312805,67.126656 66.606041,68.586601 67.946594,70.379639 
	C68.070793,71.152359 68.147667,71.591965 68.211205,72.274109 
	C68.376305,72.811241 68.633621,72.995987 68.985443,73.372391 
	C68.986336,74.075783 68.971596,74.477654 68.680077,74.979950 
	C68.406120,75.609154 68.408951,76.137932 68.411774,76.666718 
	C68.631088,76.491386 68.850403,76.316063 69.408173,76.247543 
	C69.704338,77.130684 69.973854,78.189476 69.568520,78.636909 
	C67.170090,81.284401 64.460327,83.657951 62.144798,86.370766 
	C57.306980,92.038635 52.295891,97.609451 47.992760,103.672104 
	C39.524212,115.603378 30.444803,127.198288 24.583427,141.123566 
	C23.995058,141.882751 23.706734,142.466110 23.437059,143.057953 
	C19.344618,152.039444 15.254624,161.022034 11.026387,170.303360 
	C9.279691,173.138260 7.036335,175.482452 6.199242,178.251709 
	C4.656761,183.354507 3.940377,188.707016 2.879750,193.955475 
z"/>
<path fill="#F39E13" opacity="1.000000" stroke="none" 
	d="
M151.993500,148.072906 
	C149.878830,144.781311 147.757156,141.458038 145.363800,137.635132 
	C147.326065,135.325516 149.736053,133.692825 151.765839,131.677261 
	C166.636765,116.910774 181.424332,102.060379 196.261185,87.259476 
	C197.762817,85.761482 199.416748,84.416161 201.000000,83.000000 
	C201.000000,89.354401 201.000000,95.708794 200.684662,102.643440 
	C198.680511,105.446480 197.199905,107.871925 195.267456,109.857643 
	C185.956985,119.424850 176.649231,129.002151 167.059372,138.285492 
	C164.200745,141.052765 160.322723,142.739487 157.137512,145.212097 
	C156.052902,146.054062 155.660751,147.788025 154.606445,148.925262 
	C153.493393,148.484955 152.726074,148.233765 151.958755,147.982574 
	C151.958755,147.982574 151.986496,148.041229 151.993500,148.072906 
z"/>
<path fill="#F19615" opacity="1.000000" stroke="none" 
	d="
M133.123962,125.295029 
	C133.363693,123.604301 133.317307,121.784470 134.203522,120.913086 
	C136.652390,118.505180 139.700790,116.705528 142.140518,114.290031 
	C156.407196,100.165070 170.609497,85.974289 184.742035,71.715065 
	C190.074219,66.335083 195.161972,60.712814 200.680573,55.100502 
	C201.000000,58.692909 201.000000,62.385818 200.680603,66.656013 
	C196.819122,71.743866 193.536102,76.491089 189.678619,80.713501 
	C182.630936,88.427879 175.338593,95.926491 167.967712,103.335464 
	C161.931488,109.402901 155.523132,115.100349 149.493256,121.173813 
	C146.093033,124.598610 143.124634,128.452133 139.961716,132.112534 
	C137.728943,129.941254 135.496170,127.769981 133.123962,125.295029 
z"/>
<path fill="#F4A513" opacity="1.000000" stroke="none" 
	d="
M154.952194,149.114395 
	C155.660751,147.788025 156.052902,146.054062 157.137512,145.212097 
	C160.322723,142.739487 164.200745,141.052765 167.059372,138.285492 
	C176.649231,129.002151 185.956985,119.424850 195.267456,109.857643 
	C197.199905,107.871925 198.680511,105.446480 200.684662,103.111847 
	C201.000000,109.354401 201.000000,115.708794 200.675461,122.639175 
	C197.933121,126.277763 195.727676,129.541656 193.054321,132.362030 
	C187.058807,138.687241 180.530701,144.530991 174.821594,151.094543 
	C171.884079,154.471695 169.401978,156.812653 164.652328,154.314346 
	C164.350449,155.829742 164.132812,156.922287 163.609070,157.895218 
	C160.519379,154.888519 157.735779,152.001465 154.952194,149.114395 
z"/>
<path fill="#F6B012" opacity="1.000000" stroke="none" 
	d="
M138.468658,201.000000 
	C137.078232,198.500076 137.977020,197.067551 139.996643,195.176712 
	C148.085419,187.603729 155.857681,179.685928 163.572830,171.726837 
	C164.955795,170.300156 165.515182,168.075150 167.106720,166.234497 
	C171.170471,169.358612 174.582352,172.466980 178.071869,175.642181 
	C178.149506,175.709045 178.428741,176.008682 178.685486,176.252686 
	C179.643661,177.297119 180.345108,178.097549 180.810333,179.123535 
	C179.948746,179.873688 178.755798,180.429306 178.782562,180.918167 
	C179.226685,189.030380 172.039795,191.509033 167.759415,196.132050 
	C166.372070,197.630432 165.245728,199.370483 164.000000,201.000000 
	C155.645767,201.000000 147.291534,201.000000 138.468658,201.000000 
z"/>
<path fill="#F29914" opacity="1.000000" stroke="none" 
	d="
M140.090622,132.416367 
	C143.124634,128.452133 146.093033,124.598610 149.493256,121.173813 
	C155.523132,115.100349 161.931488,109.402901 167.967712,103.335464 
	C175.338593,95.926491 182.630936,88.427879 189.678619,80.713501 
	C193.536102,76.491089 196.819122,71.743866 200.680603,67.116653 
	C201.000000,72.022095 201.000000,77.044182 201.000000,82.533134 
	C199.416748,84.416161 197.762817,85.761482 196.261185,87.259476 
	C181.424332,102.060379 166.636765,116.910774 151.765839,131.677261 
	C149.736053,133.692825 147.326065,135.325516 145.051941,137.481140 
	C143.414368,136.124588 141.816940,134.422394 140.090622,132.416367 
z"/>
<path fill="#F6AB12" opacity="1.000000" stroke="none" 
	d="
M163.915161,158.014847 
	C164.132812,156.922287 164.350449,155.829742 164.652328,154.314346 
	C169.401978,156.812653 171.884079,154.471695 174.821594,151.094543 
	C180.530701,144.530991 187.058807,138.687241 193.054321,132.362030 
	C195.727676,129.541656 197.933121,126.277763 200.675461,123.107574 
	C201.000000,130.687576 201.000000,138.375168 200.637085,146.553497 
	C198.759277,148.167892 197.269638,149.327621 195.725113,150.408951 
	C188.727081,155.308258 184.825119,164.093994 175.667831,166.356323 
	C174.914413,166.542435 174.496735,168.087601 173.612442,168.857498 
	C170.530807,165.414795 167.759781,162.115891 164.840744,158.664062 
	C164.479263,158.319763 164.239868,158.169708 163.957977,158.052155 
	C163.941360,158.043350 163.915161,158.014847 163.915161,158.014847 
z"/>
<path fill="#F8B811" opacity="1.000000" stroke="none" 
	d="
M164.468658,201.000000 
	C165.245728,199.370483 166.372070,197.630432 167.759415,196.132050 
	C172.039795,191.509033 179.226685,189.030380 178.782562,180.918167 
	C178.755798,180.429306 179.948746,179.873688 181.126160,179.273682 
	C183.795792,181.771317 185.913391,184.344391 188.248734,187.169876 
	C192.644318,190.281525 196.822159,193.140762 201.000000,196.000000 
	C201.000000,197.649109 201.000000,199.298203 201.000000,201.000000 
	C188.979141,201.000000 176.958237,201.000000 164.468658,201.000000 
z"/>
<path fill="#F7B112" opacity="1.000000" stroke="none" 
	d="
M173.923050,169.001297 
	C174.496735,168.087601 174.914413,166.542435 175.667831,166.356323 
	C184.825119,164.093994 188.727081,155.308258 195.725113,150.408951 
	C197.269638,149.327621 198.759277,148.167892 200.637085,147.022125 
	C201.000000,153.021149 201.000000,159.042297 200.648682,165.560425 
	C197.991501,168.078278 195.590408,170.002045 193.404709,172.145477 
	C190.874771,174.626526 188.655182,177.332825 184.545731,174.677155 
	C183.920425,174.273041 182.182434,175.590729 180.481018,175.830627 
	C179.478195,175.702362 178.953461,175.855530 178.428741,176.008682 
	C178.428741,176.008682 178.149506,175.709045 178.553894,175.331070 
	C178.836151,174.590637 178.714035,174.228165 178.574127,173.722305 
	C178.428467,173.300461 178.212234,173.125916 177.939911,173.043320 
	C177.972168,173.031372 177.962372,173.099442 177.815521,172.893585 
	C177.411194,172.471985 177.153687,172.256241 176.930664,172.037964 
	C176.965149,172.035416 176.956375,172.104004 176.821289,171.900055 
	C176.480865,171.438217 176.238022,171.222580 175.976685,171.027039 
	C175.995728,171.004913 175.948990,171.039566 175.822968,170.847321 
	C175.503128,170.412827 175.271042,170.215576 174.968811,170.063232 
	C174.936935,170.063095 174.936554,169.999344 174.810913,169.813156 
	C174.491135,169.393555 174.260391,169.204910 173.966309,169.057007 
	C173.939590,169.052979 173.923050,169.001297 173.923050,169.001297 
z"/>
<path fill="#F9B610" opacity="1.000000" stroke="none" 
	d="
M180.959106,176.112045 
	C182.182434,175.590729 183.920425,174.273041 184.545731,174.677155 
	C188.655182,177.332825 190.874771,174.626526 193.404709,172.145477 
	C195.590408,170.002045 197.991501,168.078278 200.648682,166.028687 
	C201.000000,175.687561 201.000000,185.375122 201.000000,195.531342 
	C196.822159,193.140762 192.644318,190.281525 188.621124,187.229584 
	C190.774231,187.057892 192.010269,186.563339 190.047699,184.622955 
	C187.731766,182.333191 185.275024,180.185852 182.756378,177.790482 
	C182.437241,177.373260 182.204407,177.188492 181.695984,176.988098 
	C181.147705,176.742554 180.981720,176.471146 180.959106,176.112045 
z"/>
<path fill="#EE8115" opacity="1.000000" stroke="none" 
	d="
M1.000000,194.250000 
	C1.168344,194.006531 1.336689,194.013062 1.747606,194.090515 
	C1.807352,194.388718 1.599523,194.590210 1.183345,194.882950 
	C1.000000,195.000000 1.000000,194.500000 1.000000,194.250000 
z"/>
<path fill="#E87010" opacity="1.000000" stroke="none" 
	d="
M67.899277,70.046539 
	C66.606041,68.586601 65.312805,67.126656 64.006302,65.381042 
	C64.696564,64.055832 65.400085,63.016300 66.140289,61.660877 
	C71.062805,66.009933 75.948624,70.674873 80.498062,75.651062 
	C78.084457,74.453514 76.147537,72.666931 73.885338,71.524406 
	C72.097275,70.621346 69.909523,70.509666 67.899277,70.046539 
z"/>
<path fill="#ED8016" opacity="1.000000" stroke="none" 
	d="
M106.002029,95.746613 
	C101.717331,91.653587 97.475914,87.197090 93.332253,82.171387 
	C98.589607,77.305756 104.047913,73.315498 108.838928,68.641258 
	C116.058052,61.598106 122.639717,53.903603 129.819199,46.817104 
	C135.002762,41.700665 140.605545,36.986256 146.236053,32.353481 
	C149.834778,29.392464 151.537125,26.298319 148.964081,21.900002 
	C162.395477,17.032873 175.826889,12.165747 189.636475,7.243202 
	C191.717133,10.562581 190.833282,12.954391 188.027954,15.622602 
	C175.058548,27.958084 162.302643,40.519764 149.558258,53.089642 
	C137.542023,64.941315 125.663391,76.932457 113.657440,88.794655 
	C111.275475,91.148102 108.590546,93.194916 106.002029,95.746613 
z"/>
<path fill="#ED8016" opacity="1.000000" stroke="none" 
	d="
M109.929520,99.754837 
	C109.024536,99.301506 108.095871,98.485306 107.029152,97.355515 
	C107.896011,97.825264 108.900925,98.608620 109.929520,99.754837 
z"/>
<path fill="#EE8115" opacity="1.000000" stroke="none" 
	d="
M3.268148,194.035065 
	C3.940377,188.707016 4.656761,183.354507 6.199242,178.251709 
	C7.036335,175.482452 9.279691,173.138260 11.324320,170.424072 
	C13.717418,173.214020 15.529240,173.036026 18.039354,170.552597 
	C28.845436,159.861404 39.877678,149.398911 50.693550,138.717407 
	C53.267929,136.175018 55.117577,132.905304 57.655487,130.318329 
	C70.186928,117.544548 86.278809,108.080399 94.111771,90.951607 
	C96.118385,92.850761 98.181740,94.694412 100.112503,96.667778 
	C101.495773,98.081573 102.701553,99.669044 104.016235,101.535561 
	C92.546204,107.853386 84.751320,118.047516 75.825165,126.901711 
	C73.291954,129.414505 74.803123,134.596680 70.669174,136.627151 
	C68.994759,137.449570 67.306915,138.269897 65.726799,139.254288 
	C61.074650,142.152496 55.392395,143.528824 54.320202,150.732651 
	C53.920704,153.416763 49.335720,155.466125 46.681942,157.830338 
	C44.688747,159.606064 42.562275,161.270905 40.792351,163.250793 
	C36.518986,168.031174 32.599289,173.138123 28.183535,177.776932 
	C25.493214,180.603134 22.146685,182.804688 17.696140,186.424500 
	C15.652031,193.170990 11.424973,195.976303 3.268148,194.035065 
z"/>
<path fill="#EC7D17" opacity="1.000000" stroke="none" 
	d="
M93.975449,90.646210 
	C86.278809,108.080399 70.186928,117.544548 57.655487,130.318329 
	C55.117577,132.905304 53.267929,136.175018 50.693550,138.717407 
	C39.877678,149.398911 28.845436,159.861404 18.039354,170.552597 
	C15.529240,173.036026 13.717418,173.214020 11.461987,170.125092 
	C15.254624,161.022034 19.344618,152.039444 23.437059,143.057953 
	C23.706734,142.466110 23.995058,141.882751 24.923031,141.271011 
	C29.149872,142.854935 31.601170,140.876389 33.909004,138.576218 
	C39.759274,132.745346 45.652157,126.954903 51.402332,121.026413 
	C63.348427,108.709877 75.213135,96.314407 87.111298,83.951385 
	C89.353905,86.081192 91.596512,88.211006 93.975449,90.646210 
z"/>
<path fill="#EC7916" opacity="1.000000" stroke="none" 
	d="
M148.597900,21.950325 
	C151.537125,26.298319 149.834778,29.392464 146.236053,32.353481 
	C140.605545,36.986256 135.002762,41.700665 129.819199,46.817104 
	C122.639717,53.903603 116.058052,61.598106 108.838928,68.641258 
	C104.047913,73.315498 98.589607,77.305756 93.188385,81.854683 
	C89.726021,79.327110 86.315475,76.735168 83.329193,73.722679 
	C78.903198,69.257835 80.452545,64.325104 86.318794,61.498531 
	C89.188896,60.115616 91.624107,57.672806 93.990685,55.429634 
	C103.844353,46.089840 115.429398,39.243095 127.084152,32.565678 
	C133.910309,28.654728 141.168106,25.497135 148.597900,21.950325 
z"/>
<path fill="#EB7816" opacity="1.000000" stroke="none" 
	d="
M86.972557,83.644081 
	C75.213135,96.314407 63.348427,108.709877 51.402332,121.026413 
	C45.652157,126.954903 39.759274,132.745346 33.909004,138.576218 
	C31.601170,140.876389 29.149872,142.854935 25.231754,141.099121 
	C30.444803,127.198288 39.524212,115.603378 47.992760,103.672104 
	C52.295891,97.609451 57.306980,92.038635 62.144798,86.370766 
	C64.460327,83.657951 67.170090,81.284401 69.568520,78.636909 
	C69.973854,78.189476 69.704338,77.130684 69.378906,75.932480 
	C68.993080,75.300255 68.974968,75.089897 68.956856,74.879532 
	C68.971596,74.477654 68.986336,74.075783 68.890457,73.179581 
	C68.627487,72.439537 68.442390,72.221642 68.224541,72.031578 
	C68.147667,71.591965 68.070793,71.152359 67.946594,70.379639 
	C69.909523,70.509666 72.097275,70.621346 73.885338,71.524406 
	C76.147537,72.666931 78.084457,74.453514 80.513870,75.987671 
	C82.855309,78.454285 84.844566,80.895531 86.972557,83.644081 
z"/>
<path fill="#000000" opacity="1.000000" stroke="none" 
	d="
M178.591919,173.865707 
	C178.714035,174.228165 178.836151,174.590637 178.476257,175.264221 
	C174.582352,172.466980 171.170471,169.358612 167.439865,166.104828 
	C162.324661,160.714417 157.528198,155.469452 152.427307,150.091995 
	C152.026688,149.521011 151.930496,149.082520 151.896545,148.313293 
	C152.726074,148.233765 153.493393,148.484955 154.606445,148.925262 
	C157.735779,152.001465 160.519379,154.888519 163.609070,157.895218 
	C163.915161,158.014847 163.941360,158.043350 164.025269,158.296112 
	C164.402359,158.638245 164.695557,158.727615 164.988739,158.816986 
	C167.759781,162.115891 170.530807,165.414795 173.612442,168.857498 
	C173.923050,169.001297 173.939590,169.052979 174.023743,169.296539 
	C174.296112,169.851990 174.572327,170.005066 174.936554,169.999344 
	C174.936554,169.999344 174.936935,170.063095 175.025772,170.305908 
	C175.308731,170.855072 175.586853,171.018692 175.948990,171.039566 
	C175.948990,171.039566 175.995728,171.004913 176.038208,171.284241 
	C176.372574,171.743729 176.664474,171.923859 176.956375,172.104004 
	C176.956375,172.104004 176.965149,172.035416 177.017700,172.292908 
	C177.367630,172.733414 177.664993,172.916428 177.962372,173.099442 
	C177.962372,173.099442 177.972168,173.031372 178.041656,173.304489 
	C178.271378,173.673630 178.431641,173.769669 178.591919,173.865707 
z"/>
<path fill="#E87010" opacity="1.000000" stroke="none" 
	d="
M68.680077,74.979950 
	C68.974968,75.089897 68.993080,75.300255 69.040451,75.825668 
	C68.850403,76.316063 68.631088,76.491386 68.411774,76.666718 
	C68.408951,76.137932 68.406120,75.609154 68.680077,74.979950 
z"/>
<path fill="#E87010" opacity="1.000000" stroke="none" 
	d="
M68.211205,72.274109 
	C68.442390,72.221642 68.627487,72.439537 68.874817,72.878067 
	C68.633621,72.995987 68.376305,72.811241 68.211205,72.274109 
z"/>
<path fill="#000000" opacity="1.000000" stroke="none" 
	d="
M182.879333,177.976761 
	C185.275024,180.185852 187.731766,182.333191 190.047699,184.622955 
	C192.010269,186.563339 190.774231,187.057892 188.403381,186.977173 
	C185.913391,184.344391 183.795792,181.771317 181.362366,179.048111 
	C180.345108,178.097549 179.643661,177.297119 178.685486,176.252686 
	C178.953461,175.855530 179.478195,175.702362 180.481018,175.830627 
	C180.981720,176.471146 181.147705,176.742554 181.771011,177.216843 
	C182.260330,177.815247 182.525116,177.971695 182.879333,177.976761 
z"/>
<path fill="#F4A513" opacity="1.000000" stroke="none" 
	d="
M164.840744,158.664062 
	C164.695557,158.727615 164.402359,158.638245 164.041870,158.304932 
	C164.239868,158.169708 164.479263,158.319763 164.840744,158.664062 
z"/>
<path fill="#F6AB12" opacity="1.000000" stroke="none" 
	d="
M174.810913,169.813156 
	C174.572327,170.005066 174.296112,169.851990 174.050461,169.300568 
	C174.260391,169.204910 174.491135,169.393555 174.810913,169.813156 
z"/>
<path fill="#F6AB12" opacity="1.000000" stroke="none" 
	d="
M175.822968,170.847321 
	C175.586853,171.018692 175.308731,170.855072 175.057648,170.306030 
	C175.271042,170.215576 175.503128,170.412827 175.822968,170.847321 
z"/>
<path fill="#F6AB12" opacity="1.000000" stroke="none" 
	d="
M176.821289,171.900055 
	C176.664474,171.923859 176.372574,171.743729 176.019165,171.306381 
	C176.238022,171.222580 176.480865,171.438217 176.821289,171.900055 
z"/>
<path fill="#F6AB12" opacity="1.000000" stroke="none" 
	d="
M177.815521,172.893585 
	C177.664993,172.916428 177.367630,172.733414 176.983215,172.295441 
	C177.153687,172.256241 177.411194,172.471985 177.815521,172.893585 
z"/>
<path fill="#F6AB12" opacity="1.000000" stroke="none" 
	d="
M178.574127,173.722305 
	C178.431641,173.769669 178.271378,173.673630 178.009399,173.316437 
	C178.212234,173.125916 178.428467,173.300461 178.574127,173.722305 
z"/>
<path fill="#F7B112" opacity="1.000000" stroke="none" 
	d="
M182.756378,177.790482 
	C182.525116,177.971695 182.260330,177.815247 182.009949,177.278641 
	C182.204407,177.188492 182.437241,177.373260 182.756378,177.790482 
z"/>
</svg>