<svg id="Layer_1" data-name="Layer 1" xmlns="http://www.w3.org/2000/svg" width="167" height="56" viewBox="0 0 167 56">
  <defs>
    <style>
      .cls-1 {
        fill: #fff;
      }
    </style>
  </defs>
  <g>
    <path class="cls-1" d="M2.21,43.46a1.33,1.33,0,0,1-1-.38,1.42,1.42,0,0,1-.35-1V3.58a1.52,1.52,0,0,1,.35-1,1.33,1.33,0,0,1,1-.38H15.6A22.26,22.26,0,0,1,25.39,4a11.39,11.39,0,0,1,5.43,5.4,20.75,20.75,0,0,1,1.77,8.76c0,1.77.06,3.32.06,4.66s0,2.87-.06,4.6a22.32,22.32,0,0,1-1.8,9,10.88,10.88,0,0,1-5.31,5.31,22.32,22.32,0,0,1-9.58,1.74Zm4.42-5h9a15.77,15.77,0,0,0,6.49-1.12,6.93,6.93,0,0,0,3.51-3.6,17.1,17.1,0,0,0,1.15-6.55c.08-1.18.12-2.22.12-3.1V21.42q0-1.32-.12-3Q26.63,12.66,24,9.92T15.31,7.18H6.63Z"/>
    <path class="cls-1" d="M40.91,43.46a1.3,1.3,0,0,1-1-.38,1.38,1.38,0,0,1-.36-1V3.52a1.39,1.39,0,0,1,.36-1,1.3,1.3,0,0,1,1-.38H44A1.32,1.32,0,0,1,45.4,3.52V42.1A1.32,1.32,0,0,1,44,43.46Z"/>
    <path class="cls-1" d="M117,44.05a21,21,0,0,1-8.61-1.56,13.12,13.12,0,0,1-5.34-4.07,9.5,9.5,0,0,1-2-5.34,1.21,1.21,0,0,1,.38-.86,1.28,1.28,0,0,1,.92-.38h3a1.47,1.47,0,0,1,1.06.35,1.82,1.82,0,0,1,.47.83,6.51,6.51,0,0,0,1.45,2.8,8.42,8.42,0,0,0,3.24,2.3A13.62,13.62,0,0,0,117,39q5.07,0,7.46-1.8a5.71,5.71,0,0,0,2.39-4.81,4.51,4.51,0,0,0-1.27-3.34,11.15,11.15,0,0,0-3.86-2.27q-2.59-1-6.73-2.18a39.23,39.23,0,0,1-7.13-2.71,10.73,10.73,0,0,1-4.22-3.66,10.15,10.15,0,0,1-1.39-5.55A9.86,9.86,0,0,1,104,7a11.63,11.63,0,0,1,4.93-4,18.54,18.54,0,0,1,7.81-1.48,19.42,19.42,0,0,1,6.41,1,13.74,13.74,0,0,1,4.57,2.6,11.84,11.84,0,0,1,2.77,3.48,8.49,8.49,0,0,1,1,3.63,1.27,1.27,0,0,1-.29.8,1.13,1.13,0,0,1-.94.38h-3.13a1.81,1.81,0,0,1-.86-.24,1.54,1.54,0,0,1-.68-.88,6,6,0,0,0-2.71-4.07,10.49,10.49,0,0,0-6.14-1.65,11.74,11.74,0,0,0-6.22,1.47,5,5,0,0,0-2.39,4.6A5,5,0,0,0,109.23,16a9.25,9.25,0,0,0,3.54,2.33,61.83,61.83,0,0,0,6.31,2.12,47.45,47.45,0,0,1,7.73,2.74,11,11,0,0,1,4.46,3.6,9.76,9.76,0,0,1,1.44,5.52,10.38,10.38,0,0,1-1.94,6.34,12.22,12.22,0,0,1-5.46,4A22.6,22.6,0,0,1,117,44.05Z"/>
    <path class="cls-1" d="M139.85,43.46a1.3,1.3,0,0,1-1-.38,1.37,1.37,0,0,1-.35-1V3.58a1.47,1.47,0,0,1,.35-1,1.3,1.3,0,0,1,1-.38h24.37a1.3,1.3,0,0,1,1,.38,1.48,1.48,0,0,1,.36,1V5.82a1.25,1.25,0,0,1-1.36,1.36H144.16V20.1h18.76a1.3,1.3,0,0,1,1,.38,1.45,1.45,0,0,1,.36,1V23.7a1.37,1.37,0,0,1-.36,1,1.27,1.27,0,0,1-1,.38H144.16v13.4h20.53a1.33,1.33,0,0,1,1,.35,1.35,1.35,0,0,1,.36,1v2.3a1.38,1.38,0,0,1-.36,1,1.3,1.3,0,0,1-1,.38Z"/>
  </g>
  <g>
    <path class="cls-1" d="M4.23,54.88a3.07,3.07,0,0,1-1.63-.39,2.42,2.42,0,0,1-.94-1.06,4,4,0,0,1-.34-1.53c0-.3,0-.62,0-1s0-.68,0-1a4.1,4.1,0,0,1,.34-1.54,2.42,2.42,0,0,1,.94-1.06A3.07,3.07,0,0,1,4.23,47a3.54,3.54,0,0,1,1.34.23,2.44,2.44,0,0,1,.89.57,2.44,2.44,0,0,1,.71,1.58.16.16,0,0,1-.06.16.25.25,0,0,1-.17.06H6.72a.25.25,0,0,1-.15-.05.22.22,0,0,1-.09-.18A2,2,0,0,0,5.69,48a2.7,2.7,0,0,0-1.46-.36,2.17,2.17,0,0,0-1.58.56A2.52,2.52,0,0,0,2,50c0,.6,0,1.22,0,1.85a2.52,2.52,0,0,0,.64,1.81,2.17,2.17,0,0,0,1.58.57,2.7,2.7,0,0,0,1.46-.37,2,2,0,0,0,.79-1.34.22.22,0,0,1,.09-.18.25.25,0,0,1,.15-.05h.22a.25.25,0,0,1,.17.06.16.16,0,0,1,.06.16,2.44,2.44,0,0,1-.71,1.58,2.59,2.59,0,0,1-.89.58A3.77,3.77,0,0,1,4.23,54.88Z"/>
    <path class="cls-1" d="M41.77,54.77a.24.24,0,0,1-.18-.06.25.25,0,0,1-.07-.18V47.32a.27.27,0,0,1,.07-.18.25.25,0,0,1,.18-.07H42a.24.24,0,0,1,.17.07.23.23,0,0,1,.07.18v6.79H46a.27.27,0,0,1,.19.07.29.29,0,0,1,.07.19v.16a.25.25,0,0,1-.07.18.27.27,0,0,1-.19.06Z"/>
    <path class="cls-1" d="M82.6,54.88a3.32,3.32,0,0,1-1.55-.32,2.21,2.21,0,0,1-1-1,4.16,4.16,0,0,1-.38-1.71c0-.33,0-.64,0-.93s0-.59,0-.92a4,4,0,0,1,.4-1.7,2.4,2.4,0,0,1,1-1,3.57,3.57,0,0,1,3,0,2.4,2.4,0,0,1,1,1A3.59,3.59,0,0,1,85.5,50c0,.33,0,.64,0,.92s0,.6,0,.93a3.86,3.86,0,0,1-.37,1.71,2.26,2.26,0,0,1-1,1A3.35,3.35,0,0,1,82.6,54.88Zm0-.65a2.17,2.17,0,0,0,1.55-.58,2.57,2.57,0,0,0,.66-1.86c0-.33,0-.62,0-.87s0-.53,0-.86a3.22,3.22,0,0,0-.31-1.4,1.88,1.88,0,0,0-.79-.79,2.45,2.45,0,0,0-1.11-.24,2.51,2.51,0,0,0-1.11.24,1.92,1.92,0,0,0-.78.79,3.22,3.22,0,0,0-.32,1.4c0,.33,0,.62,0,.86s0,.54,0,.87a2.57,2.57,0,0,0,.66,1.86A2.19,2.19,0,0,0,82.6,54.23Z"/>
    <path class="cls-1" d="M122.78,54.88a3.25,3.25,0,0,1-1.52-.33,2.18,2.18,0,0,1-1-1,4,4,0,0,1-.34-1.75V47.33a.25.25,0,0,1,.07-.19.24.24,0,0,1,.17-.07h.2a.27.27,0,0,1,.19.07.29.29,0,0,1,.07.19v4.5a2.5,2.5,0,0,0,.57,1.81,2.37,2.37,0,0,0,3.13,0,2.5,2.5,0,0,0,.58-1.81v-4.5a.24.24,0,0,1,.25-.26h.2a.24.24,0,0,1,.17.07.25.25,0,0,1,.07.19v4.46a3.84,3.84,0,0,1-.34,1.75,2.14,2.14,0,0,1-1,1A3.26,3.26,0,0,1,122.78,54.88Z"/>
    <path class="cls-1" d="M160.59,54.77a.26.26,0,0,1-.18-.06.24.24,0,0,1-.06-.18v-7.2a.29.29,0,0,1,.06-.19.27.27,0,0,1,.18-.07h2.34a4,4,0,0,1,1.83.35,2,2,0,0,1,.94,1A4.55,4.55,0,0,1,166,50c0,.34,0,.63,0,.88s0,.54,0,.87a4.63,4.63,0,0,1-.3,1.68,1.87,1.87,0,0,1-.92,1,4,4,0,0,1-1.78.32Zm.45-.66h1.89a3.32,3.32,0,0,0,1.39-.23,1.45,1.45,0,0,0,.74-.76,3.72,3.72,0,0,0,.24-1.38c0-.22,0-.41,0-.58v-.49c0-.16,0-.35,0-.57a2.66,2.66,0,0,0-.57-1.79,2.45,2.45,0,0,0-1.85-.58H161Z"/>
  </g>
  <g id="Layer_1-2" data-name="Layer_1">
    <path class="cls-1" d="M96.63,34c0-.79,0-1.57,0-2.34-2.78,1.25-6.25.6-9-.39-.78-.28-1.54-.59-2.28-.94a43.54,43.54,0,0,1-4.71-2.54c-.73-.43-1.44-.89-2.16-1.34-.06.63-.13,1.26-.2,1.9l1,.77c.81.64,1.62,1.29,2.45,1.92,1.21.94,2.44,1.86,3.7,2.74a34.14,34.14,0,0,0,6,3.5c1.42.6,3.48,1.26,4.92.38l.12-.08a13.06,13.06,0,0,0,.31-2.78h0v-.18a4.51,4.51,0,0,0,0-.52V34Zm-18.1-9.19a20.08,20.08,0,0,0,2.62,1.77,40.9,40.9,0,0,0,4.56,2.23c.78.33,1.57.63,2.36.91,2.25.8,6.19,1.91,8.42.32-.12-1.79-.32-3.53-.6-5.23-2.44,1.58-6.08,1.37-8.75.89a27.79,27.79,0,0,1-8.46-3.07c0,.72-.09,1.45-.15,2.18Zm.24-3.93c2.34,1.69,6,2.74,8.66,3.21s6,.63,8.11-1.17c-.2-1-.44-2-.71-3-.19-.7-.4-1.4-.63-2.09-3.87,1.79-11.4.81-15.36.3,0,.91,0,1.83-.07,2.75Zm.06-4.4c1.84.24,3.67.46,5.52.61,2.39.19,6.91.47,9.32-.81a49.77,49.77,0,0,0-2-4.76,23.72,23.72,0,0,1-5.48,2,28.14,28.14,0,0,1-7.41.74c0,.75,0,1.5.06,2.26Zm-.15-3.91a26.17,26.17,0,0,0,7.14-.69A21.21,21.21,0,0,0,90.93,10C90.37,9,89.77,7.88,89.12,6.8q-.11-.18-.21-.33a21.61,21.61,0,0,1-4.06,2.22,15.2,15.2,0,0,1-6.4,1.19c.09.88.17,1.77.23,2.67Zm-.43-4.32a13.5,13.5,0,0,0,6-1.05,20.15,20.15,0,0,0,3.62-2,6.63,6.63,0,0,0-1-.8,5.59,5.59,0,0,0-2.89-.82,5.1,5.1,0,0,0-1,.1,5.19,5.19,0,0,0-1,.3l-4,1.62c.16.86.3,1.74.41,2.62Zm-3-2H72.7a65.25,65.25,0,0,0-.93,11.61,96,96,0,0,0,1.12,13.7,1.41,1.41,0,0,0,.32.17,2,2,0,0,0,.78.16,1.94,1.94,0,0,0,.8-.17,1.34,1.34,0,0,0,.31-.17,95.83,95.83,0,0,0,1.12-13.69,65.25,65.25,0,0,0-.93-11.61Zm-5.14-.66L66.21,4a5.19,5.19,0,0,0-1-.3,5.07,5.07,0,0,0-1-.1,5.6,5.6,0,0,0-2.9.82,6.48,6.48,0,0,0-1.08.83,19.67,19.67,0,0,0,3.58,1.94,13.5,13.5,0,0,0,6,1.05c.11-.89.25-1.78.41-2.65Zm-.61,4.3a15.2,15.2,0,0,1-6.4-1.19,22,22,0,0,1-4-2.19c-.07.1-.13.2-.19.3-.65,1.09-1.26,2.18-1.82,3.26a21.11,21.11,0,0,0,5.05,1.8,26.17,26.17,0,0,0,7.14.69c.06-.9.13-1.79.23-2.67Zm-.32,4.32a28.14,28.14,0,0,1-7.41-.74,23.34,23.34,0,0,1-5.42-1.93c-.76,1.58-1.42,3.17-2,4.76,2.42,1.25,6.88,1,9.25.78,1.85-.15,3.68-.38,5.52-.61,0-.76,0-1.51.06-2.26Zm-.07,3.91c-3.94.51-11.39,1.48-15.29-.27q-.39,1.21-.72,2.43c-.23.89-.44,1.78-.63,2.68,2.1,1.74,5.56,1.58,8.05,1.12a25.15,25.15,0,0,0,8.66-3.32c0-.89-.06-1.77-.07-2.64Zm.17,4.66a27.53,27.53,0,0,1-8.47,2.91c-2.77.5-6.19.59-8.67-1a51.39,51.39,0,0,0-.62,5.33c2.25,1.52,6.11.45,8.36-.35.72-.26,1.44-.54,2.15-.85a41.18,41.18,0,0,0,4.58-2.35c.95-.56,1.9-1.16,2.8-1.81,0-.64-.1-1.28-.13-1.92Zm.3,3.8c-.68.46-1.38.89-2.08,1.31a47.51,47.51,0,0,1-4.76,2.45c-.76.33-1.54.64-2.32.92-2.59.92-6.3,1.82-9,.63,0,.95,0,1.92,0,2.9a12.76,12.76,0,0,0,.32,2.84l0,0c1.44.88,3.5.22,4.92-.38a34.14,34.14,0,0,0,6-3.5C64,32.88,65.18,32,66.39,31c.82-.63,1.64-1.28,2.45-1.92.32-.26.64-.52,1-.77-.07-.59-.13-1.18-.19-1.76Zm.43,3.66-.19.15c-.82.65-1.64,1.3-2.47,1.94-1.43,1.11-2.9,2.19-4.41,3.2-2.45,1.63-7.16,4.54-10.54,4,.06.13.13.25.19.37a5.62,5.62,0,0,0,3,2.56,7.29,7.29,0,0,0,4.2.07,11.3,11.3,0,0,0,5.05-2.93,24.8,24.8,0,0,0,3.18-4c.85-1.29,1.59-2.6,2.18-3.71-.09-.57-.17-1.14-.24-1.7Zm7.67,1.59c.58,1.12,1.34,2.46,2.21,3.79a24.66,24.66,0,0,0,3.21,4,11.91,11.91,0,0,0,5.15,3.12,6.73,6.73,0,0,0,4.11-.12,5.85,5.85,0,0,0,3-2.61c.09-.15.17-.31.25-.47-3.39.56-8.15-2.37-10.62-4-1.51-1-3-2.09-4.41-3.2-.83-.64-1.65-1.29-2.47-1.94l-.19-.15c-.07.53-.14,1.06-.22,1.59Z"/>
  </g>
</svg>
