<svg width="43" height="45" xmlns="http://www.w3.org/2000/svg" xmlns:xlink="http://www.w3.org/1999/xlink"><defs><path id="a" d="M0 43.052V.134h42.77v42.918z"/></defs><g fill="none" fill-rule="evenodd"><circle fill="#FFF" cx="21" cy="22" r="20"/><path d="M21.515 36.033c-7.676 0-13.898-6.23-13.898-13.916S13.839 8.201 21.515 8.201c7.677 0 13.9 6.23 13.9 13.916s-6.223 13.916-13.9 13.916M35.18 8.251c-1.688-1.688-3.761-3.209-6.239-4.13-2.565-.956-5.47-1.76-8.893-1.47-5.452.466-9.284 2.916-12.194 5.785-2.04 2.008-3.574 4.47-4.585 7.343-1.487 4.22-1.397 9.2.272 13.496 1.428 3.663 3.762 6.618 7.064 8.906 3.104 2.146 7.561 3.82 12.559 3.397 6.094-.517 10.558-3.646 13.479-7.253.753-.925 1.495-1.966 1.927-3.216.426-.896.632-1.508.826-1.834.813-1.825 1.243-3.747 1.374-5.874.408-6.55-2.11-11.663-5.59-15.15" fill="#2C3A47"/><g transform="translate(0 .528)"><mask id="b" fill="#fff"><use xlink:href="#a"/></mask><path d="M16.638 1.755c-3.517.913-6.098 2.55-8.341 4.317-3.24 2.545-5.302 6.096-6.514 10.37-1.343 4.76-.479 10.519 1.375 14.138 1.926 3.756 4.514 6.67 8.163 8.727 3.547 1.996 8.547 3.276 13.752 2.29 4.628-.873 8.145-2.89 11.004-5.874 3.83-3.99 6.908-11.345 4.862-19.094-.55-2.073-1.264-4.234-2.385-6.06-.602-.988-1.494-1.959-2.385-2.938C32.812 3.937 27.381.755 20.4 1.206c-1.33.084-2.497.22-3.761.549m3.208-1.56c9.476-.655 15.757 3.986 19.351 9.64 1.8 2.834 3.567 7.142 3.572 11.565.013 4.809-1.546 8.971-3.572 12.03-2.088 3.139-4.787 5.73-8.163 7.436-5.643 2.843-13.536 2.922-18.707.183C6.572 37.997 2.15 33.641.5 26.084c-.659-3.024-.732-6.93.183-10.281.22-.79.609-1.615.92-2.39 1.488-3.715 4.024-6.946 7.15-9.178 1.259-.901 2.78-1.793 4.127-2.387 1.674-.742 4.491-1.48 6.967-1.652" fill="#85ACD3" mask="url(#b)"/></g><path d="M10.57 10.174a.864.864 0 00.697.069c.126-.04.252-.115.382-.226.129-.11.223-.222.28-.34a.867.867 0 00.037-.696 1.233 1.233 0 00-.431-.572.835.835 0 00-.332-.144.815.815 0 00-.387.025c-.137.04-.28.123-.426.247-.145.125-.25.254-.312.384a.842.842 0 00-.09.383.835.835 0 00.087.352 1.19 1.19 0 00.495.518m-1.201-.136a1.31 1.31 0 01-.08-.606c.022-.215.094-.437.22-.661a2.38 2.38 0 01.538-.638c.235-.2.474-.344.71-.428a1.62 1.62 0 01.671-.102c.21.016.402.077.575.182.172.103.316.245.436.422a1.5 1.5 0 01.234 1.126 1.667 1.667 0 01-.223.562 2.242 2.242 0 01-.46.523c-.194.165-.39.29-.593.376a1.748 1.748 0 01-.599.143 1.477 1.477 0 01-1.085-.396 1.346 1.346 0 01-.344-.503m5.924-3.481c.081-.033.159-.07.231-.11a.704.704 0 00.18-.137.388.388 0 00.096-.175.39.39 0 00-.023-.227.375.375 0 00-.13-.188.384.384 0 00-.193-.067.7.7 0 00-.234.025c-.085.021-.17.05-.256.086-.235.097-.35.148-.581.254.143.312.214.469.358.78.219-.1.33-.148.552-.24m-.304-1.333c.221-.088.42-.135.593-.142.175-.007.325.015.449.064a.74.74 0 01.303.21.887.887 0 01.207.648.817.817 0 01-.108.346 1.15 1.15 0 01-.28.316 1.887 1.887 0 01-.483.266c-.292.117-.438.18-.725.312l.427.934c-.256.118-.383.18-.634.31L13.42 5.942c.616-.32.93-.462 1.568-.717m5.953-1.248l.018.53c-.769.026-1.152.06-1.914.173l.09.608c.674-.1 1.014-.132 1.693-.162.01.196.013.295.022.49-.66.029-.99.06-1.645.156.04.278.063.417.103.696a12.933 12.933 0 011.75-.157l.017.53a12.41 12.41 0 00-2.373.268l-.55-2.814a14.83 14.83 0 012.79-.318m2.874.135c.524.843.75 1.275 1.133 2.147l.01.002.414-1.879c.304.067.455.104.755.185l-.74 2.77a12.68 12.68 0 00-.676-.164c-.35-.862-.56-1.29-1.051-2.126h-.01c-.097.76-.145 1.142-.24 1.903a12.442 12.442 0 00-.645-.067L23 4.026c.327.027.49.044.816.086m5.507 1.195l-1.405 2.96a11.88 11.88 0 00-.736-.325l1.244-3.032c.361.149.542.228.897.397m2.105 4.501c.097.08.201.147.313.2a.867.867 0 00.724.021c.129-.05.256-.14.38-.272.113-.12.2-.242.26-.368a.788.788 0 00.077-.397.939.939 0 00-.15-.429c-.091-.147-.23-.3-.418-.454a14.215 14.215 0 00-.55-.433l-1.24 1.651c.246.186.367.282.604.481m1.764-2.006c.229.193.417.405.56.631.145.225.236.454.275.683.037.228.018.45-.056.664a1.524 1.524 0 01-.411.6 1.849 1.849 0 01-.561.367c-.2.084-.405.121-.616.117a1.767 1.767 0 01-.64-.138 2.464 2.464 0 01-.657-.415c-.501-.423-.763-.62-1.298-.979l1.82-2.724c.653.439.971.677 1.584 1.194M10.978 34.104a.628.628 0 00-.02-.202.826.826 0 00-.237-.385.966.966 0 00-.322-.213.732.732 0 00-.614.038c-.094.048-.182.11-.26.185a.959.959 0 00-.186.246.723.723 0 00-.083.296.747.747 0 00.064.332c.048.115.132.23.252.342.163.154.327.233.486.239a.619.619 0 00.435-.156c.205.178.31.265.521.433a1 1 0 01-.371.24.998.998 0 01-.438.054 1.324 1.324 0 01-.472-.14 2.012 2.012 0 01-.472-.337 2.11 2.11 0 01-.436-.566 1.47 1.47 0 01-.167-.57 1.14 1.14 0 01.083-.517c.067-.16.17-.298.304-.418a1.28 1.28 0 01.965-.32c.173.012.346.06.52.144.176.082.343.199.506.353.117.11.215.227.296.351.08.125.14.251.179.383.038.13.052.263.04.396a.915.915 0 01-.128.39 13.417 13.417 0 01-.5-.418.398.398 0 00.055-.18m1.904 2.481a.732.732 0 00-.008.303c.02.103.065.203.138.298a.98.98 0 00.318.255c.14.074.27.114.389.12a.702.702 0 00.32-.053.715.715 0 00.247-.177c.07-.076.125-.162.17-.256.045-.1.077-.2.094-.306a.789.789 0 00-.007-.305.692.692 0 00-.134-.28.89.89 0 00-.29-.23.89.89 0 00-.355-.112.699.699 0 00-.308.044.789.789 0 00-.257.165 1.134 1.134 0 00-.2.25.99.99 0 00-.117.284m-.09-1.02a1.31 1.31 0 01.984-.21c.184.028.367.093.557.194.192.102.349.217.473.353a1.326 1.326 0 01.366.928 1.366 1.366 0 01-.11.514c-.07.166-.167.31-.292.425a1.108 1.108 0 01-.443.253c-.169.05-.357.065-.563.039a1.896 1.896 0 01-.647-.218 1.918 1.918 0 01-.543-.415 1.38 1.38 0 01-.29-.493 1.122 1.122 0 01-.044-.51c.025-.171.088-.331.187-.482.101-.156.223-.281.366-.379m4.739 1.306c.273.762.435 1.141.811 1.89l.009.002.309-1.636c.222.041.334.06.557.094l-.37 2.454a14.508 14.508 0 01-.692-.118 14.56 14.56 0 01-.864-1.902l-.007-.002-.434 1.604a15.05 15.05 0 01-.634-.183l.735-2.37c.231.07.346.104.58.166m3.876.522c.453.669.704.996 1.256 1.627h.008l-.113-1.662c.226-.015.339-.025.564-.048l.259 2.468c-.279.03-.418.04-.698.06-.573-.63-.835-.957-1.31-1.625h-.007l-.016 1.661a15.408 15.408 0 01-.655-.018c.045-.991.067-1.487.114-2.479.238.011.359.015.598.016m5.282-.891l.154.431c-.568.203-.856.29-1.436.436.05.206.077.31.13.516.55-.14.824-.22 1.364-.409l.14.401c-.555.193-.835.277-1.401.419l.15.59c.652-.164.975-.263 1.612-.491l.155.432c-.92.33-1.39.462-2.34.663l-.514-2.429a12.9 12.9 0 001.986-.56m3.345-.891a.603.603 0 00-.195-.04.743.743 0 00-.213.021.91.91 0 00-.494.328.7.7 0 00-.126.285.804.804 0 00.004.305 1.117 1.117 0 00.285.552c.071.074.155.13.253.168a.704.704 0 00.323.041.971.971 0 00.385-.135c.186-.108.304-.24.353-.39a.625.625 0 00-.029-.459c.224-.142.336-.217.555-.369.073.138.116.28.125.425.008.146-.016.29-.072.433a1.317 1.317 0 01-.262.407 1.91 1.91 0 01-.442.347 1.909 1.909 0 01-.639.24 1.358 1.358 0 01-.57-.015 1.122 1.122 0 01-.45-.236 1.207 1.207 0 01-.307-.414 1.322 1.322 0 01-.057-1.007 1.39 1.39 0 01.264-.447c.121-.14.274-.262.46-.37.134-.078.27-.136.409-.176.138-.04.274-.059.408-.056.134.002.264.029.386.079.124.05.235.13.333.236-.21.145-.317.216-.532.353a.393.393 0 00-.155-.106m1.579-1.396l-.292-.354c.73-.607 1.077-.943 1.727-1.68l.343.303c-.244.278-.37.412-.627.672l1.437 1.424c-.213.214-.32.32-.539.524l-1.375-1.483a13.2 13.2 0 01-.674.594" fill="#FFF"/><path d="M20.258 29.136c-3.787.079-7.064-2.338-7.126-5.391-.05-2.4 2.713-4.4 6.176-4.472l.304-.006a98.788 98.788 0 00-.083-2.76l-.294.005c-5.505.114-9.878 3.442-9.797 7.31.09 4.445 5.09 7.96 10.95 7.84M32.837 17.43l-2.068 1.18 1.022 2.233c.077-2.294-3.153-4.261-7.223-4.398l-.026 2.758c2.353.08 4.249 1.095 4.198 2.582l-.582-1.73-2.151 1.252.04.001 7.196 2.115" fill="#2C3A47"/><path d="M20.265 11.577c0 5.035.124 20.084.124 20.084l3.632-1.63-.09-19.988-3.666 1.534z" fill="#85ACD3"/><path fill="#2C3A47" d="M28.34 20.144l-.316 1.076.847.797.923-1.037z"/></g></svg>