<?xml version="1.0" encoding="iso-8859-1"?>
<!-- Generator: Adobe Illustrator 16.0.0, SVG Export Plug-In . SVG Version: 6.00 Build 0)  -->
<!DOCTYPE svg PUBLIC "-//W3C//DTD SVG 1.1//EN" "http://www.w3.org/Graphics/SVG/1.1/DTD/svg11.dtd">
<svg version="1.1" id="Capa_1" xmlns="http://www.w3.org/2000/svg" xmlns:xlink="http://www.w3.org/1999/xlink" x="0px" y="0px"
	 width="32px" height="32px" viewBox="0 0 32 32" style="enable-background:new 0 0 32 32;" xml:space="preserve">
<g>
	<path d="M28.627,19.566l-0.746-0.963l-0.771,0.596c-0.588-0.762-1.365-1.766-1.545-1.997c-0.451,0.185-0.93,0.171-1.398,0.041
		c0.164-0.356,0.193-0.657,0.041-0.806c-0.137-0.133-0.393-0.113-0.699,0.018c0.326-0.367,0.409-0.713,0.201-0.914
		c-0.148-0.145-0.406-0.292-0.75-0.125c0.18-0.372,0.186-0.688,0.027-0.84c-0.145-0.139-0.35-0.232-0.674-0.082
		c0.098-0.279,0.1-0.511-0.027-0.634c-0.201-0.194-0.66-0.066-1.156,0.278l-0.988-1.277c0.172-0.322,0.353-0.82,0.447-1.467
		l1.121,0.205l0.301-1.645l-1.4-0.255c0-0.008-0.002-0.015-0.002-0.021c1.068-0.38,2.636-1.19,3.125-2.778
		c0.55-1.787-0.444-3.939-2.954-6.393L20.256,0L3.373,13.03l0.36,0.631c1.743,3.048,3.574,4.552,5.443,4.47
		c1.678-0.074,2.886-1.509,3.518-2.449L12.64,16.99l1.667,0.124l0.051-1.441c0.979,0.202,1.768,0.135,2.213,0.012l0.774,1.002
		l-0.07,0.559l-0.112,4.672L10.382,32h7.862l2.401-6.812l0.267,0.344L28.627,19.566z M9.099,16.46
		c-1.069,0.044-2.287-0.991-3.542-3.006l2.956-2.289c0.998,1.502,2.039,2.551,3.039,3.253C11.148,15.142,10.218,16.414,9.099,16.46z
		 M20.118,2.22c1.634,1.722,2.33,3.161,2.019,4.187c-0.248,0.807-1.14,1.333-1.904,1.634c-0.41-1.213-1.172-2.575-2.467-4.026
		L20.118,2.22z"/>
</g>
<g>
</g>
<g>
</g>
<g>
</g>
<g>
</g>
<g>
</g>
<g>
</g>
<g>
</g>
<g>
</g>
<g>
</g>
<g>
</g>
<g>
</g>
<g>
</g>
<g>
</g>
<g>
</g>
<g>
</g>
</svg>
