<svg xmlns="http://www.w3.org/2000/svg" viewBox="0 0 1200 720" fill="none">
  <rect width="1200" height="720" fill="#f8fafc"/>
  <rect x="88" y="84" width="1024" height="552" rx="32" fill="#ffffff" stroke="#dbe3ee" stroke-width="4"/>
  <text x="128" y="148" fill="#111827" font-family="Inter, Arial, sans-serif" font-size="36" font-weight="700">Reusable DaisyUI patterns</text>
  <rect x="128" y="188" width="280" height="164" rx="24" fill="#ffffff" stroke="#cbd5e1" stroke-width="3"/>
  <text x="160" y="236" fill="#111827" font-family="Inter, Arial, sans-serif" font-size="28" font-weight="700">Buttons</text>
  <rect x="160" y="270" width="120" height="44" rx="22" fill="#2563eb"/>
  <text x="188" y="298" fill="#ffffff" font-family="Inter, Arial, sans-serif" font-size="20" font-weight="700">Primary</text>
  <rect x="292" y="270" width="84" height="44" rx="22" fill="#eff6ff" stroke="#93c5fd" stroke-width="2"/>
  <text x="313" y="298" fill="#1d4ed8" font-family="Inter, Arial, sans-serif" font-size="20" font-weight="700">Ghost</text>
  <rect x="460" y="188" width="280" height="164" rx="24" fill="#ffffff" stroke="#cbd5e1" stroke-width="3"/>
  <text x="492" y="236" fill="#111827" font-family="Inter, Arial, sans-serif" font-size="28" font-weight="700">Alert</text>
  <rect x="492" y="264" width="216" height="64" rx="18" fill="#ecfeff" stroke="#67e8f9" stroke-width="2"/>
  <text x="522" y="302" fill="#0f766e" font-family="Inter, Arial, sans-serif" font-size="22" font-weight="700">Starter ready to adapt</text>
  <rect x="792" y="188" width="280" height="164" rx="24" fill="#ffffff" stroke="#cbd5e1" stroke-width="3"/>
  <text x="824" y="236" fill="#111827" font-family="Inter, Arial, sans-serif" font-size="28" font-weight="700">Stats</text>
  <text x="824" y="288" fill="#1d4ed8" font-family="Inter, Arial, sans-serif" font-size="48" font-weight="800">4</text>
  <text x="824" y="326" fill="#475569" font-family="Inter, Arial, sans-serif" font-size="20">starter patterns documented</text>
  <rect x="128" y="404" width="944" height="180" rx="28" fill="#0f172a"/>
  <text x="168" y="462" fill="#e2e8f0" font-family="Inter, Arial, sans-serif" font-size="30" font-weight="700">Prefer this order:</text>
  <text x="168" y="520" fill="#93c5fd" font-family="Inter, Arial, sans-serif" font-size="26" font-weight="700">1. DaisyUI component classes</text>
  <text x="520" y="520" fill="#a7f3d0" font-family="Inter, Arial, sans-serif" font-size="26" font-weight="700">2. Tailwind layout utilities</text>
  <text x="840" y="520" fill="#fde68a" font-family="Inter, Arial, sans-serif" font-size="26" font-weight="700">3. Minimal custom CSS</text>
</svg>
