<svg id="svg" version="1.1" xmlns="http://www.w3.org/2000/svg" xmlns:xlink="http://www.w3.org/1999/xlink" width="400" height="247.10000000000002" viewBox="0, 0, 400,247.10000000000002"><g id="svgg"><path id="path0" d="M252.000 59.000 C 252.000 59.092,251.891 59.167,251.758 59.167 C 251.625 59.167,251.457 59.260,251.383 59.375 C 251.278 59.539,248.227 59.583,237.048 59.583 C 220.068 59.583,221.549 59.277,223.347 62.417 C 223.820 63.242,228.566 71.492,233.895 80.750 C 241.692 94.297,243.583 97.697,243.581 98.167 C 243.578 98.771,223.054 134.670,222.118 135.708 L 221.705 136.167 200.112 136.167 L 178.519 136.167 178.108 135.792 C 177.882 135.585,174.978 130.692,171.654 124.917 C 168.331 119.142,163.663 111.042,161.282 106.917 C 158.901 102.792,156.754 99.004,156.511 98.500 C 156.268 97.996,155.878 97.283,155.645 96.917 C 155.411 96.550,152.349 91.263,148.839 85.167 C 142.244 73.711,141.731 72.882,140.955 72.419 C 140.702 72.268,140.537 72.075,140.589 71.991 C 140.641 71.906,140.573 71.880,140.438 71.931 C 140.015 72.094,140.019 72.424,140.449 72.760 C 140.676 72.938,141.025 73.243,141.223 73.439 C 141.421 73.634,144.577 78.997,148.236 85.355 C 151.894 91.714,155.154 97.292,155.480 97.750 C 155.805 98.208,160.917 106.980,166.840 117.242 C 172.872 127.691,177.787 136.031,178.013 136.197 C 178.647 136.665,222.058 136.686,222.516 136.219 C 222.986 135.742,244.168 98.867,244.272 98.347 C 244.388 97.766,244.549 98.075,240.244 90.583 C 238.295 87.192,233.728 79.243,230.094 72.919 C 223.347 61.179,223.115 60.740,223.519 60.485 C 223.647 60.404,229.795 60.337,237.238 60.336 C 250.462 60.333,251.225 60.307,252.201 59.816 C 252.369 59.732,252.526 59.740,252.585 59.837 C 252.641 59.927,252.776 59.994,252.885 59.987 C 253.027 59.977,253.024 59.950,252.874 59.889 C 252.759 59.843,252.707 59.736,252.759 59.652 C 252.811 59.569,252.761 59.500,252.649 59.500 C 252.536 59.500,252.494 59.451,252.554 59.390 C 252.680 59.264,252.365 58.833,252.146 58.833 C 252.066 58.833,252.000 58.908,252.000 59.000 M46.083 184.507 C 34.700 186.277,29.283 199.504,36.188 208.668 C 42.508 217.056,56.565 216.547,61.112 207.765 L 61.794 206.447 62.078 207.424 C 64.716 216.496,77.858 217.280,81.398 208.578 L 81.782 207.635 82.144 208.529 C 85.330 216.377,97.175 216.801,100.777 209.194 C 101.552 207.557,101.450 207.562,102.194 209.130 C 102.895 210.608,104.256 212.201,105.496 212.997 C 106.405 213.581,106.544 213.832,105.958 213.836 C 105.324 213.842,102.772 214.973,102.375 215.425 C 101.557 216.356,102.194 218.047,104.072 219.931 C 108.526 224.399,116.664 223.492,119.462 218.217 C 120.701 215.883,120.727 215.635,120.793 205.583 C 120.858 195.839,120.830 195.468,120.000 195.049 C 119.475 194.783,116.254 194.762,115.516 195.019 C 115.066 195.176,114.778 195.137,113.664 194.769 C 109.065 193.249,103.824 195.790,101.905 200.471 L 101.541 201.359 100.830 199.888 C 97.169 192.316,85.806 192.481,82.293 200.157 L 81.801 201.230 81.120 199.839 C 77.851 193.167,68.017 192.339,63.620 198.365 L 62.750 199.558 62.635 198.751 C 62.558 198.212,62.376 197.801,62.090 197.514 L 61.659 197.083 55.340 197.034 C 46.920 196.969,47.250 196.842,47.250 200.145 C 47.250 203.328,47.259 203.333,52.344 203.333 C 56.381 203.333,56.208 203.276,55.680 204.440 C 53.078 210.168,43.673 209.547,40.666 203.448 C 36.680 195.361,46.102 187.057,53.435 192.193 C 55.300 193.500,55.882 193.409,57.721 191.519 C 59.632 189.555,59.546 188.715,57.264 187.087 C 54.238 184.928,49.865 183.919,46.083 184.507 M121.886 185.501 C 121.165 185.792,121.167 185.756,121.167 199.730 L 121.167 213.148 121.569 213.616 C 121.958 214.068,122.030 214.085,123.836 214.140 C 127.308 214.246,127.378 214.181,127.500 210.758 L 127.583 208.417 128.148 209.500 C 131.137 215.232,139.328 216.458,144.163 211.897 C 146.094 210.076,146.107 208.983,144.217 207.703 C 141.959 206.174,141.223 206.099,140.034 207.275 C 138.647 208.647,137.053 209.024,135.542 208.338 C 134.476 207.854,134.457 207.866,139.991 205.587 C 146.619 202.857,146.606 202.873,144.963 199.585 C 141.496 192.645,131.324 192.584,128.083 199.483 L 127.583 200.547 127.500 193.342 L 127.417 186.138 126.949 185.735 C 126.450 185.307,122.789 185.137,121.886 185.501 M162.833 186.939 C 153.391 188.751,148.591 198.504,152.837 207.250 C 156.606 215.014,167.190 217.159,174.216 211.583 C 176.284 209.941,176.403 208.845,174.695 207.138 C 173.219 205.662,172.514 205.572,171.218 206.695 C 164.419 212.586,155.017 207.017,157.255 198.424 C 158.768 192.615,166.098 190.231,170.258 194.194 C 171.612 195.483,172.594 195.374,174.141 193.764 C 175.715 192.124,175.573 191.228,173.478 189.589 C 170.745 187.451,166.139 186.304,162.833 186.939 M304.400 187.403 C 301.154 188.145,299.167 190.621,299.167 193.925 L 299.167 194.955 297.958 195.072 C 296.548 195.209,296.572 195.209,294.458 195.068 L 292.833 194.960 292.832 193.355 C 292.831 190.285,292.588 190.000,289.972 190.000 C 287.378 190.000,287.290 190.092,287.197 192.874 L 287.128 194.957 286.107 195.050 C 284.655 195.181,284.333 195.582,284.333 197.259 C 284.333 198.718,284.270 198.748,283.500 197.659 C 280.345 193.198,271.416 193.598,269.013 198.308 C 268.255 199.793,268.634 200.698,270.312 201.407 C 271.417 201.875,271.417 201.878,270.424 202.629 C 266.697 205.445,267.079 211.509,271.123 213.710 C 273.369 214.932,276.594 215.008,278.950 213.894 C 279.832 213.476,279.861 213.474,280.194 213.775 C 280.964 214.472,284.426 214.233,284.872 213.452 C 285.156 212.955,285.266 203.140,285.006 201.464 C 284.789 200.066,284.672 200.201,286.026 200.294 L 287.136 200.370 287.208 204.977 C 287.287 210.089,287.395 210.736,288.379 212.019 C 289.705 213.746,291.170 214.380,293.833 214.380 C 297.217 214.380,297.978 213.497,296.903 210.820 C 296.267 209.236,296.069 209.087,294.569 209.066 C 292.828 209.041,292.924 209.300,292.867 204.508 L 292.817 200.366 294.450 200.268 C 296.559 200.140,296.540 200.140,297.958 200.265 L 299.167 200.371 299.167 206.760 L 299.167 213.148 299.569 213.616 C 299.967 214.078,299.992 214.083,301.917 214.083 C 303.842 214.083,303.866 214.078,304.264 213.616 L 304.667 213.148 304.667 206.751 L 304.667 200.355 306.430 200.302 L 308.192 200.250 308.102 200.667 C 308.053 200.896,307.899 201.608,307.759 202.250 C 306.290 209.013,310.623 214.592,317.333 214.579 C 322.310 214.569,325.567 212.026,326.825 207.167 L 327.148 205.917 327.157 209.383 C 327.170 214.064,327.229 214.167,329.903 214.167 C 332.823 214.167,332.730 214.368,332.833 207.833 L 332.917 202.583 333.374 201.806 C 334.077 200.610,334.774 200.264,336.546 200.234 C 338.112 200.208,338.640 199.959,338.955 199.099 C 339.026 198.907,339.121 201.975,339.167 205.917 C 339.268 214.642,339.099 214.167,342.097 214.167 C 344.878 214.167,344.833 214.268,344.833 207.931 C 344.833 203.423,344.861 202.938,345.166 202.123 C 345.868 200.247,347.561 199.372,349.087 200.096 C 350.195 200.622,350.240 200.889,350.333 207.454 C 350.435 214.646,350.202 214.083,353.083 214.083 C 355.940 214.083,355.728 214.540,355.844 208.121 C 355.948 202.363,356.018 201.940,357.049 200.856 C 358.034 199.819,359.291 199.555,360.302 200.171 C 361.348 200.809,361.397 201.107,361.495 207.537 C 361.603 214.637,361.369 214.083,364.269 214.083 C 366.185 214.083,366.198 214.081,366.608 213.604 L 367.021 213.124 366.962 206.687 C 366.896 199.389,366.835 198.988,365.507 197.133 C 363.398 194.188,358.569 193.627,355.148 195.930 C 354.115 196.625,354.103 196.625,353.372 195.984 C 351.486 194.327,347.870 194.039,345.317 195.342 L 344.644 195.685 343.936 195.343 C 343.129 194.952,341.096 194.868,340.180 195.187 C 339.737 195.341,339.524 195.320,338.951 195.062 C 337.729 194.512,335.034 194.615,333.663 195.265 L 332.576 195.780 332.110 195.433 C 331.544 195.010,329.324 194.850,328.295 195.158 C 327.271 195.465,327.169 195.885,327.152 199.870 L 327.138 203.250 326.821 202.000 C 324.914 194.495,315.675 191.883,310.312 197.333 L 309.208 198.455 309.125 197.296 C 308.986 195.343,308.589 195.045,306.102 195.017 L 304.621 195.000 304.724 194.254 C 304.909 192.902,305.647 192.355,306.982 192.580 C 308.689 192.869,310.551 189.819,309.672 188.176 C 309.250 187.387,306.338 186.961,304.400 187.403 M177.059 187.491 C 176.130 187.885,176.167 187.344,176.167 200.778 L 176.167 213.148 176.569 213.616 C 176.966 214.078,176.993 214.083,178.898 214.083 C 181.665 214.083,181.560 214.234,181.667 210.121 L 181.750 206.917 182.161 208.164 C 185.035 216.899,197.751 216.888,200.654 208.147 L 201.113 206.765 201.229 207.758 C 201.900 213.493,206.874 216.266,212.211 213.882 C 213.156 213.459,213.177 213.457,213.520 213.768 C 213.817 214.037,214.137 214.083,215.699 214.083 C 218.398 214.083,218.333 214.191,218.333 209.657 C 218.333 206.036,218.451 205.432,218.811 207.208 C 219.998 213.071,226.429 216.420,231.517 213.825 L 232.190 213.481 232.931 213.840 C 234.108 214.410,236.697 214.276,237.265 213.616 L 237.667 213.148 237.667 200.750 L 237.667 188.352 237.264 187.884 C 236.866 187.422,236.842 187.417,234.917 187.417 C 232.072 187.417,232.167 187.258,232.167 192.000 L 232.167 195.648 231.292 195.263 C 226.086 192.968,220.012 196.209,218.822 201.917 C 218.439 203.755,218.333 203.259,218.333 199.626 C 218.333 195.080,218.365 195.144,216.043 195.033 C 212.835 194.880,212.833 194.883,212.833 200.984 C 212.833 207.795,212.219 209.333,209.500 209.333 C 207.091 209.333,206.834 208.635,206.832 202.090 C 206.831 195.142,206.834 195.151,204.346 195.032 C 201.387 194.890,201.278 195.035,201.167 199.250 L 201.083 202.417 200.777 201.425 C 197.923 192.174,185.203 192.112,182.062 201.333 L 181.750 202.250 181.667 195.213 L 181.583 188.176 181.204 187.796 C 180.789 187.380,177.833 187.163,177.059 187.491 M244.726 187.499 C 243.798 187.873,243.833 187.345,243.833 200.778 L 243.833 213.148 244.236 213.616 C 244.634 214.078,244.658 214.083,246.583 214.083 C 248.508 214.083,248.533 214.078,248.931 213.616 L 249.333 213.148 249.333 208.762 L 249.333 204.375 252.208 204.290 C 257.121 204.144,259.722 202.802,261.333 199.582 L 261.917 198.417 262.000 205.871 L 262.083 213.324 262.463 213.704 C 263.103 214.344,266.527 214.279,267.098 213.616 L 267.500 213.148 267.500 200.750 L 267.500 188.352 267.098 187.884 C 266.700 187.422,266.673 187.417,264.769 187.417 C 262.068 187.417,262.110 187.366,262.000 190.712 L 261.917 193.250 261.378 192.112 C 260.316 189.870,258.034 188.137,255.417 187.585 C 254.106 187.309,245.372 187.238,244.726 187.499 M254.792 193.187 C 256.884 194.200,257.034 196.673,255.099 198.240 L 254.470 198.750 251.943 198.750 L 249.417 198.750 249.371 195.792 L 249.326 192.833 251.694 192.833 C 253.766 192.833,254.153 192.877,254.792 193.187 M193.391 200.393 C 197.233 202.644,195.756 209.330,191.417 209.330 C 186.570 209.330,185.629 201.496,190.294 199.989 C 191.089 199.733,192.600 199.929,193.391 200.393 M229.455 200.088 C 233.780 201.896,232.743 209.333,228.167 209.333 C 223.566 209.333,222.562 201.640,226.958 200.071 C 227.796 199.772,228.713 199.779,229.455 200.088 M277.917 200.144 C 279.407 200.822,279.203 200.942,276.579 200.929 C 274.038 200.916,273.900 200.880,274.611 200.414 C 275.580 199.779,276.881 199.673,277.917 200.144 M319.116 200.308 C 321.466 201.506,322.263 205.370,320.607 207.541 C 317.938 211.040,313.163 209.151,313.168 204.598 C 313.173 201.066,316.251 198.846,319.116 200.308 M137.464 200.333 C 137.958 200.333,137.449 200.635,135.793 201.324 C 133.908 202.108,133.933 202.103,134.168 201.664 C 134.538 200.973,136.335 200.078,136.972 200.267 C 137.094 200.304,137.315 200.333,137.464 200.333 M73.226 200.562 C 75.250 201.408,76.291 204.130,75.376 206.188 C 73.561 210.275,68.185 209.009,68.170 204.491 C 68.161 201.613,70.811 199.553,73.226 200.562 M93.083 200.644 C 96.869 202.368,95.754 208.643,91.658 208.663 C 89.009 208.676,87.132 205.695,88.087 202.991 C 88.838 200.861,91.162 199.769,93.083 200.644 M112.464 200.592 C 116.136 202.126,115.222 208.667,111.335 208.667 C 110.026 208.667,108.660 207.773,107.994 206.483 C 106.357 203.307,109.391 199.309,112.464 200.592 M278.789 206.194 C 279.740 206.483,279.599 207.072,278.290 208.278 C 276.651 209.789,273.857 209.628,273.697 208.013 C 273.536 206.384,276.240 205.418,278.789 206.194 M113.923 215.254 C 112.690 217.358,109.528 217.213,108.052 214.983 C 107.510 214.163,107.554 214.123,108.674 214.421 C 109.910 214.750,112.189 214.718,113.333 214.356 C 114.454 214.002,114.561 214.166,113.923 215.254 " stroke="none" fill="#8699b8" fill-rule="evenodd"></path><path id="path1" d="M139.831 72.503 C 139.732 72.689,139.704 72.932,139.769 73.045 C 139.834 73.158,139.825 73.194,139.750 73.126 C 139.561 72.954,139.120 73.623,139.266 73.859 C 139.345 73.987,139.311 74.006,139.164 73.915 C 138.999 73.813,138.974 73.857,139.064 74.093 C 139.130 74.265,139.131 74.353,139.065 74.288 C 138.888 74.110,138.462 74.801,138.600 75.042 C 138.666 75.156,138.658 75.194,138.583 75.126 C 138.399 74.959,137.795 75.970,137.939 76.202 C 138.012 76.320,137.973 76.337,137.831 76.248 C 137.669 76.149,137.639 76.189,137.720 76.398 C 137.782 76.560,137.761 76.642,137.673 76.587 C 137.461 76.456,137.121 77.122,137.269 77.378 C 137.334 77.491,137.325 77.528,137.250 77.459 C 137.061 77.288,136.620 77.956,136.766 78.193 C 136.845 78.320,136.811 78.339,136.664 78.248 C 136.499 78.146,136.474 78.191,136.564 78.426 C 136.630 78.599,136.631 78.686,136.565 78.621 C 136.392 78.447,135.959 79.133,136.099 79.359 C 136.178 79.487,136.144 79.506,135.997 79.415 C 135.836 79.315,135.806 79.355,135.886 79.565 C 135.947 79.722,135.936 79.813,135.862 79.768 C 135.661 79.644,135.129 80.635,135.267 80.875 C 135.333 80.990,135.325 81.028,135.250 80.959 C 135.061 80.788,134.620 81.456,134.766 81.693 C 134.845 81.820,134.811 81.839,134.664 81.748 C 134.499 81.646,134.474 81.691,134.564 81.926 C 134.630 82.099,134.631 82.186,134.565 82.121 C 134.392 81.947,133.959 82.633,134.099 82.859 C 134.178 82.987,134.144 83.006,133.997 82.915 C 133.832 82.813,133.807 82.857,133.897 83.093 C 133.963 83.265,133.964 83.353,133.899 83.288 C 133.725 83.114,133.293 83.799,133.433 84.026 C 133.512 84.154,133.478 84.172,133.331 84.082 C 133.169 83.982,133.139 84.022,133.220 84.231 C 133.282 84.393,133.261 84.475,133.173 84.421 C 132.961 84.290,132.621 84.955,132.769 85.212 C 132.834 85.324,132.825 85.361,132.750 85.293 C 132.561 85.121,132.120 85.789,132.266 86.026 C 132.345 86.154,132.311 86.172,132.164 86.082 C 131.999 85.979,131.974 86.024,132.064 86.259 C 132.130 86.432,132.131 86.519,132.065 86.454 C 131.897 86.286,131.302 87.314,131.439 87.536 C 131.501 87.636,131.479 87.673,131.390 87.618 C 131.169 87.482,130.617 88.449,130.767 88.709 C 130.833 88.823,130.825 88.861,130.750 88.793 C 130.561 88.621,130.120 89.289,130.266 89.526 C 130.345 89.654,130.311 89.672,130.164 89.582 C 129.999 89.479,129.974 89.524,130.064 89.759 C 130.130 89.932,130.131 90.020,130.065 89.954 C 129.892 89.781,129.459 90.466,129.599 90.693 C 129.678 90.820,129.644 90.839,129.497 90.748 C 129.332 90.646,129.307 90.691,129.397 90.926 C 129.463 91.099,129.464 91.186,129.399 91.121 C 129.225 90.947,128.793 91.633,128.933 91.859 C 129.012 91.987,128.978 92.006,128.831 91.915 C 128.669 91.815,128.639 91.855,128.720 92.065 C 128.783 92.228,128.762 92.309,128.671 92.253 C 128.461 92.123,127.784 93.464,127.903 93.775 C 127.954 93.908,127.930 93.977,127.850 93.927 C 127.703 93.836,127.103 95.769,127.179 96.084 C 127.202 96.175,127.160 96.388,127.087 96.556 C 127.013 96.724,126.994 97.624,127.044 98.556 C 127.187 101.222,127.555 102.113,130.955 108.034 C 132.602 110.903,139.672 123.225,146.665 135.417 C 162.071 162.275,160.873 160.429,163.867 161.908 C 166.406 163.162,164.570 163.069,187.583 163.105 C 198.950 163.123,208.063 163.085,207.833 163.020 C 207.212 162.843,207.363 162.024,208.316 160.417 C 211.294 155.394,221.496 137.502,221.583 137.149 C 221.746 136.491,222.178 136.504,199.384 136.502 L 178.352 136.500 177.929 136.125 C 177.697 135.919,172.777 127.537,166.996 117.500 C 161.214 107.462,156.126 98.725,155.689 98.083 C 155.251 97.442,151.899 91.714,148.238 85.355 C 144.578 78.997,141.421 73.634,141.223 73.439 C 141.025 73.243,140.674 72.936,140.444 72.756 C 140.213 72.576,140.061 72.369,140.106 72.297 C 140.150 72.225,140.147 72.167,140.099 72.167 C 140.051 72.167,139.931 72.318,139.831 72.503 " stroke="none" fill="#8699b8" fill-rule="evenodd"></path><path id="path2" d="M168.500 32.958 C 168.500 33.027,168.106 33.098,167.625 33.117 C 166.210 33.172,166.155 33.180,166.250 33.333 C 166.299 33.413,166.151 33.445,165.920 33.403 C 165.689 33.361,165.500 33.401,165.500 33.492 C 165.500 33.582,165.397 33.617,165.272 33.569 C 165.146 33.520,165.000 33.592,164.948 33.727 C 164.889 33.881,164.725 33.940,164.510 33.884 C 164.307 33.831,164.167 33.875,164.167 33.990 C 164.167 34.098,164.092 34.140,164.000 34.083 C 163.908 34.027,163.833 34.060,163.833 34.157 C 163.833 34.254,163.740 34.315,163.625 34.292 C 163.510 34.269,163.438 34.351,163.464 34.474 C 163.489 34.597,163.414 34.666,163.297 34.626 C 163.179 34.586,162.984 34.673,162.863 34.819 C 162.692 35.024,162.671 35.027,162.770 34.833 C 162.879 34.619,162.858 34.615,162.617 34.811 C 162.463 34.936,162.386 35.117,162.446 35.214 C 162.513 35.322,162.452 35.351,162.289 35.288 C 161.981 35.170,159.759 37.411,159.922 37.675 C 159.976 37.762,159.943 37.833,159.848 37.833 C 159.754 37.833,159.721 37.949,159.776 38.090 C 159.838 38.254,159.791 38.329,159.645 38.298 C 159.520 38.272,159.435 38.344,159.458 38.458 C 159.481 38.573,159.427 38.667,159.339 38.667 C 159.250 38.667,159.217 38.772,159.267 38.900 C 159.316 39.028,159.264 39.190,159.152 39.259 C 159.014 39.345,158.987 39.310,159.070 39.151 C 159.137 39.022,159.076 39.059,158.934 39.233 C 158.793 39.407,158.717 39.613,158.765 39.691 C 158.813 39.769,158.776 39.833,158.682 39.833 C 158.588 39.833,158.558 39.958,158.617 40.111 C 158.686 40.291,158.658 40.348,158.537 40.273 C 158.334 40.147,157.945 40.723,158.117 40.895 C 158.175 40.953,158.137 41.000,158.033 41.000 C 157.929 41.000,157.888 41.116,157.942 41.257 C 158.005 41.420,157.958 41.496,157.812 41.465 C 157.686 41.438,157.602 41.510,157.625 41.625 C 157.648 41.740,157.587 41.833,157.490 41.833 C 157.393 41.833,157.360 41.908,157.417 42.000 C 157.473 42.092,157.443 42.167,157.348 42.167 C 157.254 42.167,157.221 42.282,157.276 42.423 C 157.338 42.587,157.291 42.663,157.145 42.632 C 157.020 42.605,156.935 42.677,156.958 42.792 C 156.981 42.906,156.921 43.000,156.823 43.000 C 156.726 43.000,156.693 43.075,156.750 43.167 C 156.807 43.258,156.776 43.333,156.682 43.333 C 156.588 43.333,156.558 43.458,156.617 43.611 C 156.686 43.791,156.658 43.848,156.537 43.773 C 156.334 43.647,155.945 44.223,156.117 44.395 C 156.175 44.453,156.137 44.500,156.033 44.500 C 155.929 44.500,155.888 44.616,155.942 44.757 C 156.005 44.920,155.958 44.996,155.812 44.965 C 155.686 44.938,155.602 45.010,155.625 45.125 C 155.648 45.240,155.587 45.333,155.490 45.333 C 155.393 45.333,155.360 45.408,155.416 45.499 C 155.532 45.687,155.260 46.250,155.053 46.250 C 154.978 46.250,154.935 46.306,154.958 46.375 C 154.981 46.444,154.912 46.500,154.806 46.500 C 154.699 46.500,154.655 46.544,154.708 46.597 C 154.762 46.651,154.659 46.841,154.480 47.020 C 154.301 47.199,154.199 47.418,154.254 47.506 C 154.308 47.594,154.276 47.667,154.182 47.667 C 154.088 47.667,154.051 47.773,154.101 47.904 C 154.154 48.040,154.043 48.221,153.842 48.329 C 153.649 48.432,153.535 48.588,153.589 48.675 C 153.642 48.762,153.602 48.833,153.500 48.833 C 153.398 48.833,153.360 48.908,153.416 48.999 C 153.472 49.090,153.433 49.296,153.330 49.457 C 153.159 49.723,153.150 49.719,153.238 49.417 C 153.332 49.092,153.328 49.092,153.089 49.400 C 152.954 49.573,152.884 49.780,152.932 49.858 C 152.980 49.936,152.943 50.000,152.848 50.000 C 152.754 50.000,152.725 50.125,152.784 50.277 C 152.853 50.458,152.825 50.515,152.703 50.439 C 152.500 50.314,152.112 50.890,152.284 51.061 C 152.342 51.119,152.304 51.167,152.200 51.167 C 152.092 51.167,152.056 51.286,152.117 51.444 C 152.186 51.625,152.158 51.681,152.037 51.606 C 151.834 51.480,151.445 52.056,151.617 52.228 C 151.675 52.286,151.637 52.333,151.533 52.333 C 151.429 52.333,151.388 52.449,151.442 52.590 C 151.505 52.754,151.458 52.829,151.312 52.798 C 151.186 52.772,151.102 52.844,151.125 52.958 C 151.148 53.073,151.087 53.167,150.990 53.167 C 150.893 53.167,150.860 53.242,150.917 53.333 C 150.973 53.425,150.943 53.500,150.848 53.500 C 150.754 53.500,150.725 53.625,150.784 53.777 C 150.853 53.958,150.825 54.015,150.703 53.939 C 150.500 53.814,150.112 54.390,150.284 54.561 C 150.342 54.619,150.304 54.667,150.200 54.667 C 150.092 54.667,150.056 54.786,150.117 54.944 C 150.186 55.125,150.158 55.181,150.037 55.106 C 149.834 54.980,149.445 55.556,149.617 55.728 C 149.675 55.786,149.637 55.833,149.533 55.833 C 149.429 55.833,149.388 55.949,149.442 56.090 C 149.505 56.254,149.458 56.329,149.312 56.298 C 149.186 56.272,149.102 56.344,149.125 56.458 C 149.148 56.573,149.087 56.667,148.990 56.667 C 148.893 56.667,148.860 56.741,148.916 56.832 C 149.033 57.021,148.795 57.517,148.568 57.557 C 148.485 57.571,148.435 57.640,148.458 57.708 C 148.481 57.777,148.413 57.833,148.306 57.833 C 148.199 57.833,148.155 57.877,148.208 57.931 C 148.262 57.984,148.159 58.174,147.980 58.353 C 147.801 58.532,147.699 58.751,147.754 58.839 C 147.808 58.928,147.776 59.000,147.682 59.000 C 147.588 59.000,147.558 59.125,147.617 59.277 C 147.686 59.458,147.658 59.515,147.537 59.439 C 147.334 59.314,146.945 59.890,147.117 60.061 C 147.175 60.119,147.137 60.167,147.033 60.167 C 146.925 60.167,146.889 60.286,146.950 60.444 C 147.020 60.625,146.992 60.681,146.870 60.606 C 146.667 60.480,146.278 61.056,146.450 61.228 C 146.508 61.286,146.470 61.333,146.366 61.333 C 146.258 61.333,146.223 61.452,146.284 61.611 C 146.353 61.791,146.325 61.848,146.203 61.773 C 146.000 61.647,145.612 62.223,145.784 62.395 C 145.842 62.453,145.804 62.500,145.700 62.500 C 145.592 62.500,145.556 62.619,145.617 62.777 C 145.686 62.958,145.658 63.015,145.537 62.939 C 145.334 62.814,144.945 63.390,145.117 63.561 C 145.175 63.619,145.137 63.667,145.033 63.667 C 144.929 63.667,144.888 63.782,144.942 63.923 C 145.005 64.087,144.958 64.163,144.812 64.132 C 144.686 64.105,144.602 64.177,144.625 64.292 C 144.648 64.406,144.587 64.500,144.490 64.500 C 144.393 64.500,144.360 64.575,144.417 64.667 C 144.473 64.758,144.443 64.833,144.348 64.833 C 144.254 64.833,144.221 64.949,144.276 65.090 C 144.338 65.254,144.291 65.329,144.145 65.298 C 144.020 65.272,143.935 65.344,143.958 65.458 C 143.981 65.573,143.921 65.667,143.823 65.667 C 143.726 65.667,143.693 65.742,143.750 65.833 C 143.807 65.925,143.776 66.000,143.681 66.000 C 143.465 66.000,142.976 66.921,143.118 67.062 C 143.175 67.120,143.130 67.167,143.018 67.167 C 142.906 67.167,142.855 67.234,142.906 67.316 C 142.957 67.398,142.881 67.510,142.738 67.565 C 142.596 67.619,142.526 67.740,142.583 67.832 C 142.640 67.924,142.602 68.000,142.500 68.000 C 142.398 68.000,142.360 68.074,142.416 68.165 C 142.533 68.355,142.295 68.850,142.068 68.890 C 141.985 68.905,141.935 68.973,141.958 69.042 C 141.981 69.110,141.913 69.167,141.806 69.167 C 141.699 69.167,141.655 69.210,141.708 69.264 C 141.762 69.317,141.659 69.508,141.480 69.687 C 141.301 69.866,141.199 70.084,141.254 70.173 C 141.308 70.261,141.276 70.333,141.182 70.333 C 141.088 70.333,141.058 70.458,141.117 70.611 C 141.186 70.791,141.158 70.848,141.037 70.773 C 140.834 70.647,140.445 71.223,140.617 71.395 C 140.675 71.453,140.626 71.500,140.507 71.500 C 140.347 71.500,140.339 71.556,140.478 71.724 C 140.580 71.847,140.622 71.989,140.570 72.041 C 140.519 72.092,140.688 72.260,140.947 72.414 C 141.733 72.883,142.226 73.682,149.076 85.583 C 152.717 91.908,155.828 97.221,155.991 97.388 C 156.431 97.843,156.098 98.389,167.482 78.586 C 175.026 65.464,178.039 60.365,178.337 60.214 C 178.869 59.945,221.049 59.900,221.753 60.168 C 222.126 60.310,222.242 60.277,222.499 59.960 L 222.804 59.583 237.027 59.583 C 248.223 59.583,251.278 59.539,251.383 59.375 C 251.457 59.260,251.625 59.167,251.758 59.167 C 251.891 59.167,252.000 59.092,252.000 59.000 C 252.000 58.908,252.131 58.827,252.292 58.820 C 252.468 58.812,252.500 58.774,252.374 58.723 C 252.259 58.676,252.205 58.572,252.255 58.492 C 252.305 58.411,252.193 58.193,252.006 58.006 C 251.819 57.819,251.707 57.667,251.756 57.667 C 251.805 57.667,251.764 57.515,251.664 57.329 C 251.564 57.142,251.400 57.042,251.297 57.106 C 251.175 57.181,251.147 57.125,251.216 56.944 C 251.275 56.791,251.246 56.667,251.152 56.667 C 251.057 56.667,251.027 56.592,251.083 56.500 C 251.140 56.408,251.102 56.333,251.000 56.333 C 250.898 56.333,250.860 56.258,250.917 56.165 C 250.974 56.073,250.904 55.953,250.762 55.898 C 250.619 55.843,250.543 55.731,250.594 55.649 C 250.645 55.567,250.594 55.500,250.482 55.500 C 250.370 55.500,250.325 55.453,250.383 55.395 C 250.555 55.223,250.166 54.647,249.963 54.773 C 249.842 54.848,249.814 54.791,249.883 54.611 C 249.944 54.452,249.908 54.333,249.800 54.333 C 249.696 54.333,249.658 54.286,249.716 54.228 C 249.888 54.056,249.500 53.480,249.297 53.606 C 249.175 53.681,249.147 53.625,249.216 53.444 C 249.277 53.286,249.242 53.167,249.134 53.167 C 249.030 53.167,248.992 53.119,249.050 53.061 C 249.222 52.890,248.833 52.314,248.630 52.439 C 248.508 52.515,248.480 52.458,248.550 52.277 C 248.611 52.119,248.575 52.000,248.467 52.000 C 248.363 52.000,248.325 51.953,248.383 51.895 C 248.551 51.726,248.169 51.146,247.970 51.269 C 247.864 51.334,247.824 51.284,247.872 51.148 C 247.991 50.813,247.524 49.965,247.298 50.105 C 247.175 50.181,247.147 50.126,247.216 49.944 C 247.277 49.786,247.242 49.667,247.134 49.667 C 247.030 49.667,246.992 49.619,247.050 49.561 C 247.222 49.390,246.833 48.814,246.630 48.939 C 246.508 49.015,246.480 48.958,246.550 48.777 C 246.608 48.625,246.579 48.500,246.485 48.500 C 246.391 48.500,246.360 48.424,246.417 48.332 C 246.474 48.240,246.404 48.119,246.262 48.065 C 246.119 48.010,246.043 47.898,246.094 47.816 C 246.145 47.734,246.094 47.667,245.982 47.667 C 245.870 47.667,245.825 47.620,245.882 47.562 C 246.030 47.414,245.530 46.500,245.301 46.500 C 245.197 46.500,245.158 46.453,245.216 46.396 C 245.357 46.254,244.869 45.333,244.653 45.333 C 244.558 45.333,244.527 45.258,244.583 45.167 C 244.640 45.075,244.607 45.000,244.510 45.000 C 244.413 45.000,244.352 44.906,244.375 44.792 C 244.398 44.677,244.314 44.605,244.188 44.632 C 244.042 44.663,243.995 44.587,244.058 44.423 C 244.112 44.282,244.071 44.167,243.967 44.167 C 243.863 44.167,243.825 44.119,243.883 44.061 C 244.055 43.890,243.666 43.314,243.463 43.439 C 243.342 43.515,243.314 43.458,243.383 43.277 C 243.444 43.119,243.408 43.000,243.300 43.000 C 243.196 43.000,243.158 42.953,243.216 42.895 C 243.388 42.723,243.000 42.147,242.797 42.273 C 242.675 42.348,242.647 42.291,242.716 42.111 C 242.777 41.952,242.742 41.833,242.634 41.833 C 242.530 41.833,242.492 41.786,242.550 41.728 C 242.722 41.556,242.333 40.980,242.130 41.106 C 242.008 41.181,241.980 41.125,242.050 40.944 C 242.111 40.786,242.075 40.667,241.967 40.667 C 241.863 40.667,241.825 40.619,241.883 40.561 C 242.055 40.390,241.666 39.814,241.463 39.939 C 241.342 40.015,241.314 39.958,241.383 39.777 C 241.444 39.619,241.408 39.500,241.300 39.500 C 241.196 39.500,241.158 39.453,241.216 39.395 C 241.388 39.223,241.000 38.647,240.797 38.773 C 240.675 38.848,240.647 38.791,240.716 38.611 C 240.775 38.458,240.750 38.333,240.661 38.333 C 240.573 38.333,240.519 38.240,240.542 38.125 C 240.565 38.010,240.480 37.938,240.355 37.965 C 240.217 37.994,240.162 37.920,240.216 37.778 C 240.327 37.490,239.450 36.393,238.994 36.248 C 238.811 36.190,238.701 36.079,238.749 36.002 C 238.839 35.855,237.494 34.617,237.374 34.737 C 237.336 34.775,237.159 34.659,236.980 34.480 C 236.801 34.301,236.582 34.199,236.494 34.254 C 236.406 34.308,236.333 34.261,236.333 34.149 C 236.333 34.036,236.287 33.991,236.230 34.048 C 236.173 34.104,236.014 34.038,235.875 33.899 C 235.737 33.761,235.526 33.685,235.406 33.731 C 235.286 33.777,235.164 33.741,235.133 33.650 C 235.103 33.560,234.889 33.465,234.657 33.441 C 234.425 33.416,234.140 33.337,234.024 33.265 C 233.907 33.192,233.767 33.178,233.713 33.232 C 233.658 33.286,233.525 33.257,233.417 33.167 C 233.308 33.077,232.870 33.024,232.443 33.049 C 232.016 33.074,231.667 33.035,231.667 32.964 C 231.667 32.892,217.454 32.833,200.083 32.833 C 182.713 32.833,168.500 32.890,168.500 32.958 " stroke="none" fill="#8699b8" fill-rule="evenodd"></path><path id="path3" d="M252.556 59.250 C 252.556 59.387,252.622 59.500,252.704 59.500 C 252.786 59.500,252.799 59.587,252.734 59.692 C 252.660 59.812,252.688 59.840,252.808 59.766 C 252.946 59.681,252.951 59.554,252.828 59.323 C 252.620 58.935,252.556 58.917,252.556 59.250 M252.167 59.832 C 251.238 60.304,250.373 60.333,237.238 60.336 C 229.795 60.337,223.647 60.404,223.519 60.485 C 223.115 60.740,223.347 61.179,230.094 72.919 C 246.340 101.190,244.400 97.711,244.272 98.347 C 244.164 98.887,222.985 135.729,222.459 136.292 C 222.266 136.498,222.022 136.667,221.916 136.667 C 221.809 136.667,221.647 136.910,221.555 137.208 C 221.421 137.643,210.201 157.306,208.074 160.833 C 207.346 162.040,207.256 162.857,207.833 163.017 C 208.400 163.175,232.666 163.199,232.668 163.042 C 232.668 162.973,233.025 162.908,233.459 162.897 C 234.739 162.865,238.186 161.269,237.917 160.833 C 237.861 160.744,237.921 160.711,238.049 160.760 C 238.351 160.876,240.219 158.876,240.099 158.565 C 240.051 158.440,240.103 158.355,240.214 158.377 C 240.326 158.399,240.406 158.286,240.394 158.127 C 240.381 157.967,240.434 157.876,240.512 157.924 C 240.708 158.045,241.207 157.033,241.064 156.803 C 240.995 156.691,241.023 156.661,241.134 156.730 C 241.363 156.871,241.894 155.899,241.731 155.636 C 241.662 155.525,241.690 155.495,241.799 155.562 C 242.027 155.703,242.392 155.063,242.232 154.804 C 242.168 154.700,242.188 154.660,242.277 154.715 C 242.493 154.849,243.052 153.885,242.901 153.641 C 242.835 153.534,242.854 153.493,242.945 153.549 C 243.165 153.685,244.392 151.563,244.237 151.313 C 244.162 151.191,244.187 151.159,244.300 151.230 C 244.530 151.371,245.060 150.399,244.898 150.136 C 244.829 150.024,244.857 149.995,244.967 150.063 C 245.196 150.205,245.727 149.233,245.564 148.969 C 245.495 148.857,245.523 148.828,245.634 148.896 C 245.863 149.038,246.394 148.066,246.231 147.803 C 246.162 147.691,246.190 147.661,246.299 147.729 C 246.527 147.870,246.892 147.230,246.732 146.971 C 246.655 146.846,246.690 146.828,246.836 146.918 C 246.998 147.018,247.027 146.978,246.947 146.769 C 246.885 146.607,246.905 146.525,246.994 146.579 C 247.201 146.708,247.548 146.045,247.399 145.804 C 247.322 145.680,247.357 145.662,247.503 145.752 C 247.664 145.851,247.694 145.811,247.614 145.602 C 247.551 145.439,247.572 145.358,247.661 145.413 C 247.869 145.542,248.381 144.545,248.231 144.303 C 248.162 144.191,248.190 144.161,248.299 144.229 C 248.527 144.370,248.892 143.730,248.732 143.471 C 248.662 143.358,248.689 143.328,248.800 143.396 C 249.030 143.538,249.560 142.566,249.398 142.303 C 249.334 142.200,249.355 142.160,249.444 142.215 C 249.660 142.349,250.219 141.385,250.067 141.141 C 249.995 141.024,250.022 140.994,250.134 141.063 C 250.363 141.205,250.894 140.233,250.731 139.969 C 250.662 139.858,250.690 139.828,250.799 139.896 C 251.027 140.036,251.392 139.397,251.232 139.137 C 251.155 139.013,251.190 138.995,251.336 139.085 C 251.498 139.185,251.527 139.145,251.447 138.935 C 251.384 138.772,251.405 138.691,251.495 138.747 C 251.703 138.875,252.214 137.878,252.064 137.636 C 251.995 137.524,252.023 137.495,252.134 137.563 C 252.363 137.705,252.894 136.733,252.731 136.469 C 252.662 136.358,252.690 136.328,252.799 136.396 C 253.027 136.536,253.392 135.897,253.232 135.637 C 253.155 135.513,253.190 135.495,253.336 135.585 C 253.498 135.685,253.527 135.645,253.447 135.435 C 253.385 135.274,253.405 135.191,253.494 135.246 C 253.701 135.374,254.048 134.712,253.899 134.471 C 253.834 134.367,253.855 134.327,253.945 134.382 C 254.165 134.519,255.392 132.396,255.237 132.146 C 255.162 132.025,255.187 131.993,255.300 132.063 C 255.530 132.205,256.060 131.233,255.898 130.969 C 255.829 130.857,255.857 130.828,255.967 130.896 C 256.196 131.038,256.727 130.066,256.564 129.803 C 256.495 129.691,256.523 129.661,256.634 129.730 C 256.863 129.871,257.394 128.899,257.231 128.636 C 257.162 128.525,257.190 128.495,257.299 128.562 C 257.527 128.703,257.892 128.063,257.732 127.804 C 257.655 127.680,257.690 127.662,257.836 127.752 C 257.998 127.851,258.027 127.811,257.947 127.602 C 257.885 127.440,257.905 127.358,257.994 127.413 C 258.201 127.541,258.548 126.879,258.399 126.637 C 258.322 126.513,258.357 126.495,258.503 126.585 C 258.664 126.685,258.694 126.645,258.614 126.435 C 258.551 126.272,258.572 126.191,258.661 126.247 C 258.869 126.375,259.381 125.378,259.231 125.136 C 259.162 125.025,259.190 124.995,259.299 125.062 C 259.527 125.203,259.892 124.563,259.732 124.304 C 259.668 124.200,259.688 124.160,259.777 124.215 C 259.993 124.349,260.552 123.385,260.401 123.141 C 260.335 123.035,260.354 122.993,260.444 123.049 C 260.660 123.182,261.219 122.219,261.067 121.974 C 260.995 121.858,261.022 121.827,261.134 121.896 C 261.363 122.038,261.894 121.066,261.731 120.803 C 261.662 120.691,261.690 120.661,261.799 120.729 C 262.027 120.870,262.392 120.230,262.232 119.971 C 262.155 119.846,262.190 119.828,262.336 119.918 C 262.498 120.018,262.527 119.978,262.447 119.769 C 262.384 119.606,262.405 119.525,262.495 119.580 C 262.703 119.709,263.214 118.711,263.064 118.469 C 262.995 118.357,263.023 118.328,263.134 118.396 C 263.363 118.538,263.894 117.566,263.731 117.303 C 263.662 117.191,263.690 117.161,263.799 117.229 C 264.027 117.370,264.392 116.730,264.232 116.471 C 264.155 116.346,264.190 116.328,264.336 116.418 C 264.498 116.518,264.527 116.478,264.447 116.269 C 264.385 116.107,264.405 116.025,264.494 116.079 C 264.701 116.208,265.048 115.545,264.899 115.304 C 264.822 115.180,264.857 115.162,265.003 115.252 C 265.164 115.351,265.194 115.311,265.114 115.102 C 265.052 114.940,265.072 114.858,265.160 114.913 C 265.368 115.041,265.714 114.379,265.565 114.137 C 265.488 114.013,265.524 113.995,265.669 114.085 C 265.831 114.185,265.861 114.145,265.780 113.935 C 265.718 113.774,265.739 113.691,265.827 113.746 C 266.035 113.874,266.381 113.212,266.232 112.971 C 266.162 112.858,266.189 112.828,266.300 112.896 C 266.530 113.038,267.060 112.066,266.898 111.803 C 266.829 111.691,266.857 111.661,266.967 111.730 C 267.196 111.871,267.727 110.899,267.564 110.636 C 267.495 110.524,267.523 110.495,267.634 110.563 C 267.863 110.705,268.394 109.733,268.231 109.469 C 268.162 109.358,268.190 109.328,268.299 109.396 C 268.527 109.536,268.892 108.897,268.732 108.637 C 268.655 108.513,268.690 108.495,268.836 108.585 C 268.998 108.685,269.027 108.645,268.947 108.435 C 268.884 108.272,268.905 108.191,268.995 108.247 C 269.203 108.375,269.714 107.378,269.564 107.136 C 269.495 107.024,269.523 106.995,269.634 107.063 C 269.863 107.205,270.394 106.233,270.231 105.969 C 270.162 105.858,270.190 105.828,270.299 105.896 C 270.527 106.036,270.892 105.397,270.732 105.137 C 270.668 105.034,270.688 104.994,270.777 105.049 C 270.993 105.182,271.552 104.219,271.401 103.974 C 271.334 103.866,271.355 103.827,271.447 103.884 C 271.669 104.021,272.389 102.719,272.267 102.400 C 272.214 102.262,272.239 102.191,272.322 102.243 C 272.518 102.364,272.894 101.231,272.767 100.901 C 272.714 100.763,272.735 100.689,272.814 100.738 C 273.022 100.866,273.196 99.573,273.065 98.877 C 272.986 98.454,273.008 98.319,273.144 98.402 C 273.270 98.481,273.333 98.346,273.333 98.000 C 273.333 97.651,273.270 97.519,273.142 97.599 C 273.002 97.685,272.981 97.483,273.066 96.844 C 273.154 96.183,273.133 96.001,272.981 96.095 C 272.838 96.183,272.810 96.108,272.882 95.830 C 272.951 95.569,272.891 95.371,272.700 95.226 C 272.523 95.092,272.495 95.009,272.625 95.005 C 272.740 95.002,272.833 94.921,272.833 94.823 C 272.833 94.726,272.764 94.690,272.678 94.743 C 272.593 94.796,272.476 94.763,272.418 94.669 C 272.361 94.576,272.393 94.500,272.490 94.500 C 272.587 94.500,272.667 94.421,272.667 94.323 C 272.667 94.226,272.579 94.201,272.472 94.268 C 272.341 94.349,272.312 94.297,272.383 94.111 C 272.508 93.785,272.357 93.299,272.167 93.417 C 271.989 93.527,271.804 93.015,271.942 92.793 C 272.012 92.680,271.971 92.665,271.831 92.752 C 271.673 92.849,271.639 92.813,271.710 92.627 C 271.765 92.483,271.698 92.227,271.560 92.058 C 271.415 91.880,271.354 91.856,271.417 92.000 C 271.476 92.138,271.405 92.102,271.259 91.921 C 271.112 91.741,271.027 91.504,271.068 91.396 C 271.110 91.288,271.031 91.061,270.893 90.891 C 270.748 90.714,270.688 90.689,270.750 90.833 C 270.809 90.971,270.738 90.935,270.592 90.755 C 270.446 90.574,270.360 90.338,270.402 90.229 C 270.443 90.121,270.364 89.894,270.226 89.725 C 270.088 89.555,270.023 89.510,270.081 89.625 C 270.264 89.987,270.021 89.850,269.823 89.480 C 269.678 89.210,269.680 89.155,269.830 89.248 C 269.946 89.320,269.917 89.155,269.759 88.852 C 269.612 88.567,269.451 88.333,269.403 88.333 C 269.354 88.333,269.360 88.408,269.417 88.500 C 269.473 88.592,269.480 88.667,269.432 88.667 C 269.384 88.667,269.260 88.508,269.156 88.313 C 269.012 88.044,269.014 87.989,269.164 88.082 C 269.279 88.153,269.250 87.989,269.093 87.685 C 268.945 87.400,268.785 87.167,268.736 87.167 C 268.687 87.167,268.701 87.253,268.766 87.359 C 268.842 87.482,268.811 87.506,268.681 87.426 C 268.569 87.356,268.516 87.199,268.563 87.075 C 268.623 86.920,268.562 86.883,268.367 86.956 C 268.131 87.045,268.118 87.020,268.289 86.809 C 268.454 86.606,268.443 86.493,268.235 86.236 C 268.092 86.061,268.023 86.010,268.081 86.125 C 268.239 86.438,268.111 86.376,267.767 85.974 C 267.508 85.672,267.502 85.632,267.732 85.720 C 267.981 85.816,267.982 85.782,267.748 85.329 C 267.607 85.056,267.451 84.833,267.403 84.833 C 267.354 84.833,267.360 84.908,267.417 85.000 C 267.594 85.288,267.420 85.182,267.100 84.808 C 266.855 84.521,266.846 84.469,267.055 84.549 C 267.433 84.695,267.214 84.203,266.801 83.983 C 266.621 83.886,266.514 83.705,266.562 83.579 C 266.622 83.421,266.562 83.381,266.367 83.450 C 266.138 83.530,266.123 83.506,266.288 83.328 C 266.453 83.150,266.388 83.010,265.955 82.612 C 265.658 82.339,265.549 82.164,265.712 82.222 C 265.963 82.310,265.981 82.276,265.831 81.996 C 265.734 81.815,265.616 81.667,265.568 81.667 C 265.520 81.667,265.527 81.742,265.583 81.833 C 265.640 81.925,265.647 82.000,265.599 82.000 C 265.551 82.000,265.427 81.841,265.323 81.647 C 265.178 81.377,265.180 81.322,265.330 81.415 C 265.446 81.486,265.417 81.322,265.259 81.018 C 265.112 80.733,264.951 80.500,264.903 80.500 C 264.854 80.500,264.861 80.594,264.919 80.708 C 264.977 80.823,264.905 80.769,264.759 80.588 C 264.612 80.407,264.527 80.171,264.568 80.063 C 264.610 79.954,264.531 79.727,264.393 79.558 C 264.248 79.380,264.188 79.356,264.250 79.500 C 264.309 79.637,264.238 79.602,264.092 79.421 C 263.946 79.241,263.860 79.004,263.902 78.896 C 263.943 78.788,263.864 78.561,263.726 78.391 C 263.588 78.222,263.523 78.177,263.581 78.292 C 263.764 78.654,263.521 78.517,263.323 78.147 C 263.178 77.877,263.180 77.822,263.330 77.915 C 263.446 77.986,263.417 77.822,263.259 77.518 C 263.112 77.233,262.951 77.000,262.903 77.000 C 262.854 77.000,262.860 77.075,262.917 77.167 C 263.094 77.454,262.920 77.349,262.600 76.974 C 262.341 76.672,262.335 76.632,262.565 76.720 C 262.814 76.816,262.816 76.782,262.581 76.329 C 262.440 76.056,262.285 75.833,262.236 75.833 C 262.187 75.833,262.201 75.920,262.266 76.026 C 262.342 76.149,262.311 76.173,262.181 76.092 C 262.069 76.023,262.016 75.865,262.063 75.742 C 262.122 75.588,262.060 75.548,261.867 75.616 C 261.638 75.697,261.623 75.673,261.788 75.495 C 261.953 75.317,261.888 75.177,261.455 74.779 C 261.158 74.505,261.049 74.331,261.212 74.388 C 261.607 74.527,261.306 73.923,260.904 73.768 C 260.754 73.711,260.672 73.559,260.721 73.431 C 260.770 73.304,260.698 73.061,260.560 72.891 C 260.422 72.722,260.356 72.677,260.414 72.792 C 260.472 72.906,260.431 73.000,260.324 73.000 C 260.210 73.000,260.164 72.860,260.215 72.666 C 260.271 72.454,260.237 72.373,260.123 72.444 C 260.012 72.513,259.981 72.455,260.044 72.294 C 260.099 72.150,260.031 71.894,259.893 71.725 C 259.755 71.555,259.689 71.510,259.747 71.625 C 259.806 71.740,259.765 71.833,259.657 71.833 C 259.543 71.833,259.498 71.694,259.548 71.500 C 259.604 71.288,259.570 71.207,259.456 71.277 C 259.345 71.346,259.315 71.289,259.377 71.127 C 259.432 70.983,259.364 70.727,259.226 70.558 C 259.088 70.389,259.023 70.344,259.081 70.458 C 259.264 70.820,259.021 70.683,258.823 70.313 C 258.678 70.044,258.680 69.989,258.830 70.082 C 258.946 70.153,258.917 69.989,258.759 69.685 C 258.612 69.400,258.451 69.167,258.403 69.167 C 258.354 69.167,258.360 69.242,258.417 69.333 C 258.473 69.425,258.480 69.500,258.432 69.500 C 258.384 69.500,258.260 69.341,258.156 69.147 C 258.012 68.877,258.014 68.822,258.164 68.915 C 258.279 68.986,258.250 68.822,258.093 68.518 C 257.945 68.233,257.785 68.000,257.736 68.000 C 257.687 68.000,257.701 68.087,257.766 68.192 C 257.842 68.315,257.811 68.339,257.681 68.259 C 257.569 68.190,257.516 68.032,257.563 67.908 C 257.623 67.753,257.562 67.717,257.367 67.790 C 257.131 67.878,257.118 67.853,257.289 67.643 C 257.454 67.439,257.443 67.326,257.235 67.070 C 257.092 66.894,257.023 66.844,257.081 66.958 C 257.239 67.271,257.111 67.210,256.767 66.808 C 256.508 66.505,256.502 66.465,256.732 66.553 C 256.981 66.649,256.982 66.616,256.748 66.162 C 256.607 65.890,256.451 65.667,256.403 65.667 C 256.354 65.667,256.360 65.742,256.417 65.833 C 256.594 66.121,256.420 66.015,256.100 65.641 C 255.855 65.355,255.846 65.302,256.055 65.383 C 256.433 65.528,256.214 65.037,255.801 64.816 C 255.612 64.715,255.514 64.538,255.567 64.398 C 255.623 64.253,255.409 63.909,255.039 63.546 C 254.697 63.212,254.544 62.985,254.700 63.044 C 255.096 63.192,254.898 62.713,254.467 62.483 C 254.288 62.386,254.179 62.208,254.226 62.087 C 254.272 61.965,254.198 61.727,254.060 61.558 C 253.922 61.389,253.856 61.344,253.914 61.458 C 253.972 61.573,253.931 61.667,253.824 61.667 C 253.710 61.667,253.664 61.527,253.715 61.333 C 253.771 61.121,253.737 61.040,253.623 61.110 C 253.512 61.179,253.481 61.122,253.544 60.960 C 253.599 60.817,253.531 60.561,253.393 60.391 C 253.255 60.222,253.197 60.189,253.263 60.317 C 253.346 60.477,253.320 60.511,253.181 60.426 C 253.069 60.356,253.019 60.191,253.070 60.058 C 253.124 59.917,253.091 59.861,252.991 59.922 C 252.896 59.981,252.728 59.956,252.618 59.867 C 252.507 59.778,252.304 59.762,252.167 59.832 M161.083 160.000 C 161.441 160.367,161.772 160.667,161.818 160.667 C 161.863 160.667,161.608 160.367,161.250 160.000 C 160.892 159.633,160.562 159.333,160.516 159.333 C 160.470 159.333,160.725 159.633,161.083 160.000 M48.042 184.286 C 48.294 184.324,48.706 184.324,48.958 184.286 C 49.210 184.248,49.004 184.217,48.500 184.217 C 47.996 184.217,47.790 184.248,48.042 184.286 M122.375 185.282 C 122.535 185.323,122.798 185.323,122.958 185.282 C 123.119 185.240,122.987 185.205,122.667 185.205 C 122.346 185.205,122.215 185.240,122.375 185.282 M125.542 185.282 C 125.702 185.323,125.965 185.323,126.125 185.282 C 126.285 185.240,126.154 185.205,125.833 185.205 C 125.513 185.205,125.381 185.240,125.542 185.282 M121.416 185.668 C 120.990 186.138,121.171 186.182,121.619 185.717 C 121.822 185.506,121.927 185.333,121.853 185.333 C 121.779 185.333,121.582 185.484,121.416 185.668 M127.259 186.078 C 127.456 186.551,127.500 187.914,127.500 193.606 C 127.500 197.428,127.542 200.513,127.594 200.462 C 128.055 200.001,127.577 185.500,127.100 185.500 C 127.055 185.500,127.126 185.760,127.259 186.078 M164.044 186.786 C 164.297 186.825,164.672 186.824,164.877 186.784 C 165.082 186.744,164.875 186.713,164.417 186.714 C 163.958 186.716,163.791 186.748,164.044 186.786 M165.625 186.784 C 165.831 186.824,166.169 186.824,166.375 186.784 C 166.581 186.745,166.412 186.712,166.000 186.712 C 165.587 186.712,165.419 186.745,165.625 186.784 M57.250 186.947 C 57.899 187.601,59.022 188.506,58.583 188.022 C 58.308 187.718,57.858 187.314,57.583 187.124 C 57.308 186.935,57.158 186.855,57.250 186.947 M38.827 187.512 L 38.250 188.024 38.875 187.576 C 39.427 187.179,39.607 187.000,39.452 187.000 C 39.426 187.000,39.144 187.230,38.827 187.512 M178.296 187.289 C 178.688 187.324,179.288 187.324,179.629 187.288 C 179.971 187.252,179.650 187.223,178.917 187.224 C 178.183 187.224,177.904 187.254,178.296 187.289 M234.296 187.289 C 234.688 187.324,235.288 187.324,235.629 187.288 C 235.971 187.252,235.650 187.223,234.917 187.224 C 234.183 187.224,233.904 187.254,234.296 187.289 M247.458 187.291 C 248.673 187.320,250.660 187.320,251.875 187.291 C 253.090 187.263,252.096 187.239,249.667 187.239 C 247.237 187.239,246.244 187.263,247.458 187.291 M264.125 187.289 C 264.515 187.324,265.152 187.324,265.542 187.289 C 265.931 187.254,265.612 187.225,264.833 187.225 C 264.054 187.225,263.735 187.254,264.125 187.289 M180.917 187.535 C 181.100 187.640,181.344 187.844,181.459 187.988 C 181.644 188.220,181.656 188.217,181.564 187.954 C 181.507 187.791,181.325 187.584,181.158 187.495 C 180.731 187.267,180.512 187.303,180.917 187.535 M232.706 187.444 C 232.591 187.491,232.418 187.691,232.322 187.890 C 232.174 188.197,232.180 188.211,232.366 187.988 C 232.485 187.844,232.733 187.640,232.917 187.535 C 233.249 187.344,233.106 187.283,232.706 187.444 M236.917 187.535 C 237.100 187.640,237.344 187.844,237.459 187.988 C 237.644 188.220,237.656 188.217,237.564 187.954 C 237.507 187.791,237.325 187.584,237.158 187.495 C 236.731 187.267,236.512 187.303,236.917 187.535 M244.373 187.444 C 244.257 187.491,244.085 187.691,243.989 187.890 C 243.841 188.197,243.847 188.211,244.032 187.988 C 244.152 187.844,244.400 187.640,244.583 187.535 C 244.915 187.344,244.773 187.283,244.373 187.444 M262.540 187.444 C 262.424 187.491,262.251 187.691,262.156 187.890 C 262.007 188.197,262.014 188.211,262.199 187.988 C 262.319 187.844,262.567 187.640,262.750 187.535 C 263.082 187.344,262.940 187.283,262.540 187.444 M37.395 188.708 C 36.676 189.464,35.639 190.754,35.418 191.167 C 35.232 191.516,35.474 191.247,36.244 190.250 C 36.598 189.792,37.191 189.098,37.562 188.708 C 37.933 188.319,38.199 188.000,38.153 188.000 C 38.107 188.000,37.766 188.319,37.395 188.708 M257.181 188.062 C 257.352 188.216,258.333 188.667,258.333 188.592 C 258.333 188.496,257.409 188.000,257.230 188.000 C 257.165 188.000,257.142 188.028,257.181 188.062 M301.489 188.542 C 301.102 188.840,300.591 189.346,300.354 189.667 C 300.040 190.092,300.148 190.021,300.753 189.407 C 301.210 188.944,301.771 188.441,302.000 188.291 C 302.229 188.141,302.366 188.014,302.305 188.009 C 302.243 188.004,301.876 188.244,301.489 188.542 M309.879 189.000 C 309.879 189.412,309.911 189.581,309.951 189.375 C 309.991 189.169,309.991 188.831,309.951 188.625 C 309.911 188.419,309.879 188.588,309.879 189.000 M175.981 198.542 C 175.960 209.412,175.987 212.876,176.097 212.985 C 176.135 213.024,176.167 207.531,176.167 200.778 C 176.167 194.025,176.129 188.500,176.083 188.500 C 176.037 188.500,175.991 193.019,175.981 198.542 M181.710 195.250 C 181.692 199.008,181.731 201.971,181.797 201.833 C 181.863 201.696,181.877 198.621,181.830 195.000 L 181.742 188.417 181.710 195.250 M231.965 192.016 C 231.938 193.950,231.973 195.567,232.042 195.609 C 232.110 195.652,232.167 194.069,232.167 192.093 C 232.167 190.117,232.132 188.500,232.090 188.500 C 232.047 188.500,231.991 190.082,231.965 192.016 M237.746 200.750 C 237.746 207.533,237.766 210.284,237.792 206.863 C 237.817 203.441,237.817 197.891,237.792 194.529 C 237.766 191.167,237.746 193.967,237.746 200.750 M243.746 200.750 C 243.746 207.533,243.766 210.284,243.792 206.863 C 243.817 203.441,243.817 197.891,243.792 194.529 C 243.766 191.167,243.746 193.967,243.746 200.750 M261.831 190.542 C 261.829 191.921,261.776 192.502,261.667 192.333 C 261.413 191.941,261.484 192.369,261.750 192.833 C 261.965 193.209,261.989 193.019,261.994 190.875 C 261.997 189.569,261.962 188.500,261.917 188.500 C 261.871 188.500,261.832 189.419,261.831 190.542 M59.048 189.417 C 59.049 189.875,59.081 190.043,59.120 189.789 C 59.158 189.536,59.157 189.161,59.117 188.956 C 59.078 188.751,59.046 188.958,59.048 189.417 M173.000 189.032 C 173.000 189.065,173.469 189.498,174.042 189.994 C 174.615 190.490,174.896 190.687,174.667 190.432 C 174.251 189.968,173.000 188.918,173.000 189.032 M154.925 190.859 C 154.500 191.332,153.999 191.951,153.812 192.234 L 153.471 192.750 153.828 192.333 C 154.025 192.104,154.561 191.485,155.019 190.958 C 155.478 190.431,155.818 190.000,155.775 190.000 C 155.733 190.000,155.350 190.387,154.925 190.859 M260.331 190.418 C 260.995 191.217,261.050 191.269,260.869 190.915 C 260.775 190.730,260.522 190.431,260.307 190.249 C 259.930 189.931,259.931 189.937,260.331 190.418 M175.120 191.703 C 175.167 192.118,175.118 192.629,175.010 192.851 C 174.825 193.229,174.828 193.233,175.074 192.926 C 175.355 192.576,175.418 191.558,175.182 191.186 C 175.092 191.043,175.068 191.241,175.120 191.703 M42.316 193.292 C 41.758 193.889,41.076 194.765,41.441 194.417 C 41.838 194.037,43.037 192.667,42.972 192.667 C 42.933 192.667,42.638 192.948,42.316 193.292 M305.167 193.083 C 304.952 193.311,304.808 193.520,304.847 193.546 C 304.885 193.572,305.118 193.385,305.364 193.130 C 305.611 192.875,305.755 192.667,305.685 192.667 C 305.615 192.667,305.382 192.854,305.167 193.083 M299.000 193.989 C 299.000 194.758,298.970 194.816,298.542 194.881 C 298.115 194.945,298.121 194.952,298.625 194.975 L 299.167 195.000 299.167 194.083 C 299.167 193.579,299.129 193.167,299.083 193.167 C 299.037 193.167,299.000 193.537,299.000 193.989 M160.400 193.813 C 160.043 194.076,159.487 194.581,159.167 194.934 C 158.716 195.429,158.792 195.386,159.500 194.744 C 160.004 194.288,160.604 193.787,160.833 193.632 C 161.063 193.477,161.205 193.347,161.150 193.342 C 161.095 193.337,160.758 193.549,160.400 193.813 M255.000 193.385 C 255.000 193.414,255.244 193.658,255.542 193.927 L 256.083 194.417 255.594 193.875 C 255.138 193.370,255.000 193.257,255.000 193.385 M170.333 194.417 C 170.644 194.737,170.936 195.000,170.982 195.000 C 171.028 195.000,170.811 194.737,170.500 194.417 C 170.189 194.096,169.897 193.833,169.851 193.833 C 169.805 193.833,170.022 194.096,170.333 194.417 M70.875 194.282 C 71.035 194.323,71.298 194.323,71.458 194.282 C 71.619 194.240,71.487 194.205,71.167 194.205 C 70.846 194.205,70.715 194.240,70.875 194.282 M72.375 194.282 C 72.535 194.323,72.798 194.323,72.958 194.282 C 73.119 194.240,72.987 194.205,72.667 194.205 C 72.346 194.205,72.215 194.240,72.375 194.282 M90.627 194.285 C 90.834 194.324,91.134 194.323,91.294 194.281 C 91.453 194.239,91.283 194.207,90.917 194.209 C 90.550 194.211,90.420 194.245,90.627 194.285 M92.127 194.285 C 92.334 194.324,92.634 194.323,92.794 194.281 C 92.953 194.239,92.783 194.207,92.417 194.209 C 92.050 194.211,91.920 194.245,92.127 194.285 M110.288 194.287 C 110.584 194.324,111.109 194.324,111.455 194.288 C 111.800 194.252,111.558 194.222,110.917 194.221 C 110.275 194.221,109.992 194.250,110.288 194.287 M136.042 194.288 C 136.385 194.324,136.948 194.324,137.292 194.288 C 137.635 194.252,137.354 194.223,136.667 194.223 C 135.979 194.223,135.698 194.252,136.042 194.288 M304.689 194.542 L 304.667 195.000 305.875 194.967 L 307.083 194.935 305.969 194.877 C 304.975 194.825,304.847 194.779,304.783 194.451 C 304.724 194.145,304.708 194.160,304.689 194.542 M190.961 194.454 C 191.261 194.491,191.711 194.490,191.961 194.452 C 192.212 194.414,191.967 194.384,191.417 194.385 C 190.867 194.386,190.662 194.417,190.961 194.454 M227.292 194.451 C 227.498 194.491,227.835 194.491,228.042 194.451 C 228.248 194.411,228.079 194.379,227.667 194.379 C 227.254 194.379,227.085 194.411,227.292 194.451 M276.042 194.453 C 276.294 194.491,276.706 194.491,276.958 194.453 C 277.210 194.415,277.004 194.383,276.500 194.383 C 275.996 194.383,275.790 194.415,276.042 194.453 M316.875 194.453 C 317.127 194.491,317.540 194.491,317.792 194.453 C 318.044 194.415,317.837 194.383,317.333 194.383 C 316.829 194.383,316.623 194.415,316.875 194.453 M348.458 194.451 C 348.665 194.491,349.002 194.491,349.208 194.451 C 349.415 194.411,349.246 194.379,348.833 194.379 C 348.421 194.379,348.252 194.411,348.458 194.451 M359.544 194.453 C 359.797 194.491,360.172 194.490,360.377 194.451 C 360.582 194.411,360.375 194.380,359.917 194.381 C 359.458 194.382,359.291 194.415,359.544 194.453 M336.128 194.621 C 336.428 194.658,336.878 194.657,337.128 194.619 C 337.378 194.581,337.133 194.551,336.583 194.552 C 336.033 194.553,335.828 194.584,336.128 194.621 M116.792 194.790 C 117.273 194.823,118.060 194.823,118.542 194.790 C 119.023 194.756,118.629 194.728,117.667 194.728 C 116.704 194.728,116.310 194.756,116.792 194.790 M119.847 194.877 C 119.885 194.901,120.085 195.062,120.292 195.236 C 120.498 195.410,120.667 195.508,120.667 195.454 C 120.667 195.286,120.151 194.833,119.960 194.833 C 119.860 194.833,119.809 194.853,119.847 194.877 M140.181 194.896 C 140.351 195.050,141.667 195.665,141.667 195.590 C 141.667 195.495,140.409 194.833,140.229 194.833 C 140.164 194.833,140.142 194.862,140.181 194.896 M203.625 194.951 C 203.831 194.991,204.169 194.991,204.375 194.951 C 204.581 194.911,204.412 194.879,204.000 194.879 C 203.588 194.879,203.419 194.911,203.625 194.951 M215.292 194.951 C 215.498 194.991,215.835 194.991,216.042 194.951 C 216.248 194.911,216.079 194.879,215.667 194.879 C 215.254 194.879,215.085 194.911,215.292 194.951 M293.295 194.954 C 293.594 194.991,294.044 194.990,294.295 194.952 C 294.545 194.914,294.300 194.884,293.750 194.885 C 293.200 194.886,292.995 194.917,293.295 194.954 M329.627 194.951 C 329.834 194.991,330.134 194.990,330.294 194.948 C 330.453 194.906,330.283 194.874,329.917 194.875 C 329.550 194.877,329.420 194.911,329.627 194.951 M341.627 194.951 C 341.834 194.991,342.134 194.990,342.294 194.948 C 342.453 194.906,342.283 194.874,341.917 194.875 C 341.550 194.877,341.420 194.911,341.627 194.951 M76.181 195.062 C 76.352 195.216,77.333 195.667,77.333 195.592 C 77.333 195.496,76.409 195.000,76.230 195.000 C 76.165 195.000,76.142 195.028,76.181 195.062 M205.999 195.242 C 206.228 195.368,206.505 195.684,206.616 195.944 C 206.751 196.260,206.821 196.318,206.826 196.117 C 206.834 195.772,206.119 194.997,205.799 195.006 C 205.680 195.009,205.770 195.115,205.999 195.242 M213.196 195.386 C 212.996 195.598,212.834 195.879,212.836 196.011 C 212.837 196.142,212.932 196.064,213.047 195.837 C 213.162 195.609,213.443 195.329,213.670 195.214 C 213.924 195.086,213.982 195.004,213.821 195.002 C 213.676 195.001,213.395 195.174,213.196 195.386 M217.500 195.184 C 217.729 195.273,218.010 195.470,218.125 195.622 C 218.240 195.773,218.333 195.812,218.333 195.708 C 218.333 195.464,217.667 194.997,217.338 195.011 C 217.198 195.016,217.271 195.094,217.500 195.184 M284.704 195.259 C 284.500 195.402,284.333 195.604,284.333 195.708 C 284.333 195.812,284.427 195.773,284.542 195.622 C 284.656 195.470,284.938 195.273,285.167 195.184 C 285.396 195.094,285.469 195.016,285.329 195.011 C 285.189 195.005,284.907 195.117,284.704 195.259 M308.332 195.242 C 308.561 195.368,308.839 195.684,308.950 195.944 C 309.085 196.260,309.154 196.318,309.159 196.117 C 309.168 195.772,308.452 194.997,308.133 195.006 C 308.014 195.009,308.104 195.115,308.332 195.242 M345.124 195.262 C 344.780 195.449,344.583 195.467,344.333 195.333 C 344.150 195.235,344.000 195.192,344.000 195.238 C 344.000 195.589,344.717 195.648,345.290 195.346 C 345.635 195.164,345.842 195.014,345.750 195.014 C 345.658 195.014,345.377 195.125,345.124 195.262 M186.625 195.429 C 185.979 195.779,186.052 195.900,186.708 195.566 C 187.337 195.247,187.448 195.164,187.236 195.173 C 187.152 195.177,186.877 195.292,186.625 195.429 M195.514 195.229 C 195.685 195.382,196.667 195.833,196.667 195.759 C 196.667 195.663,195.743 195.167,195.564 195.167 C 195.498 195.167,195.476 195.195,195.514 195.229 M280.514 195.229 C 280.685 195.382,281.667 195.833,281.667 195.759 C 281.667 195.663,280.743 195.167,280.564 195.167 C 280.498 195.167,280.476 195.195,280.514 195.229 M131.025 195.834 C 130.645 196.110,130.333 196.376,130.333 196.426 C 130.333 196.504,131.272 195.865,131.742 195.468 C 132.136 195.133,131.649 195.383,131.025 195.834 M77.833 195.941 C 78.063 196.097,78.811 196.793,79.497 197.487 C 80.184 198.182,80.585 198.525,80.390 198.249 C 79.907 197.567,78.334 196.096,77.829 195.854 L 77.417 195.657 77.833 195.941 M311.375 196.156 C 311.004 196.425,310.647 196.730,310.583 196.834 C 310.492 196.980,311.797 196.064,312.153 195.732 C 312.411 195.490,311.936 195.749,311.375 196.156 M364.993 196.417 C 365.395 196.875,365.758 197.287,365.801 197.333 C 365.844 197.379,365.799 197.267,365.703 197.083 C 365.606 196.900,365.243 196.487,364.895 196.167 C 364.293 195.612,364.298 195.625,364.993 196.417 M185.384 196.262 L 184.917 196.691 185.458 196.314 C 185.756 196.107,186.000 195.914,186.000 195.885 C 186.000 195.754,185.816 195.867,185.384 196.262 M196.833 195.879 C 196.833 195.911,197.077 196.116,197.375 196.334 C 197.710 196.579,197.827 196.619,197.680 196.439 C 197.458 196.166,196.833 195.753,196.833 195.879 M103.985 197.125 C 103.226 197.914,102.199 199.146,102.768 198.583 C 103.391 197.968,105.039 196.167,104.980 196.167 C 104.939 196.167,104.492 196.598,103.985 197.125 M120.871 204.448 C 120.850 209.049,120.890 212.848,120.958 212.891 C 121.072 212.961,121.070 206.789,120.954 199.083 C 120.929 197.433,120.892 199.848,120.871 204.448 M143.339 197.125 C 143.835 197.698,144.268 198.167,144.301 198.167 C 144.416 198.167,143.365 196.915,142.902 196.500 C 142.646 196.271,142.843 196.552,143.339 197.125 M157.909 196.682 C 157.762 196.966,157.672 197.227,157.708 197.263 C 157.744 197.300,157.898 197.068,158.051 196.748 C 158.394 196.029,158.275 195.974,157.909 196.682 M269.983 196.792 C 269.425 197.389,268.743 198.265,269.107 197.917 C 269.504 197.537,270.704 196.167,270.638 196.167 C 270.599 196.167,270.305 196.448,269.983 196.792 M64.484 197.125 C 63.826 197.816,62.975 198.867,63.437 198.417 C 63.934 197.933,65.372 196.333,65.310 196.333 C 65.270 196.333,64.899 196.690,64.484 197.125 M200.966 199.042 C 200.939 200.531,200.968 201.900,201.031 202.083 C 201.094 202.267,201.150 201.048,201.156 199.375 C 201.162 197.702,201.133 196.333,201.091 196.333 C 201.050 196.333,200.994 197.552,200.966 199.042 M212.740 201.167 C 212.740 203.871,212.763 204.977,212.791 203.625 C 212.819 202.273,212.819 200.060,212.791 198.708 C 212.763 197.356,212.740 198.463,212.740 201.167 M283.087 197.042 C 283.444 197.477,283.764 197.833,283.797 197.833 C 283.916 197.833,283.192 196.907,282.819 196.583 C 282.608 196.400,282.729 196.606,283.087 197.042 M326.966 199.292 C 326.939 200.919,326.966 202.438,327.027 202.667 C 327.088 202.896,327.144 201.565,327.152 199.708 C 327.160 197.852,327.133 196.333,327.091 196.333 C 327.049 196.333,326.993 197.665,326.966 199.292 M83.923 197.362 C 83.497 197.836,83.073 198.379,82.981 198.570 C 82.890 198.761,82.987 198.692,83.198 198.417 C 83.408 198.142,83.872 197.598,84.228 197.208 C 84.584 196.819,84.836 196.500,84.787 196.500 C 84.738 196.500,84.349 196.888,83.923 197.362 M129.651 196.958 C 128.937 197.755,128.612 198.167,128.698 198.167 C 128.744 198.167,129.097 197.792,129.484 197.333 C 130.227 196.452,130.348 196.182,129.651 196.958 M221.318 196.958 C 220.604 197.755,220.279 198.167,220.365 198.167 C 220.410 198.167,220.764 197.792,221.150 197.333 C 221.894 196.452,222.014 196.182,221.318 196.958 M324.508 197.458 C 325.003 198.031,325.433 198.500,325.465 198.500 C 325.602 198.500,324.810 197.535,324.235 197.000 C 323.796 196.591,323.877 196.728,324.508 197.458 M184.318 197.125 C 183.604 197.921,183.279 198.333,183.365 198.333 C 183.410 198.333,183.764 197.958,184.150 197.500 C 184.894 196.619,185.014 196.348,184.318 197.125 M198.656 197.458 C 199.057 197.940,199.418 198.333,199.457 198.333 C 199.570 198.333,198.543 197.076,198.219 196.817 C 198.058 196.689,198.254 196.977,198.656 197.458 M47.576 197.409 C 47.351 197.634,47.170 197.953,47.173 198.117 C 47.177 198.304,47.266 198.219,47.407 197.894 C 47.541 197.586,47.829 197.301,48.109 197.199 C 48.413 197.088,48.476 197.022,48.284 197.013 C 48.120 197.006,47.801 197.184,47.576 197.409 M61.772 197.240 C 62.080 197.374,62.366 197.663,62.468 197.942 C 62.578 198.246,62.645 198.309,62.654 198.117 C 62.670 197.734,61.939 196.998,61.549 197.007 C 61.363 197.011,61.447 197.099,61.772 197.240 M255.250 197.945 C 254.883 198.274,254.733 198.465,254.917 198.370 C 255.226 198.210,256.146 197.325,255.987 197.340 C 255.948 197.344,255.617 197.616,255.250 197.945 M99.664 197.918 C 100.328 198.717,100.384 198.769,100.203 198.415 C 100.108 198.230,99.855 197.931,99.640 197.749 C 99.264 197.431,99.265 197.437,99.664 197.918 M33.039 198.167 C 33.039 198.487,33.073 198.619,33.115 198.458 C 33.157 198.298,33.157 198.035,33.115 197.875 C 33.073 197.715,33.039 197.846,33.039 198.167 M261.809 198.708 C 261.777 198.823,261.789 202.104,261.836 206.000 L 261.922 213.083 261.961 205.792 C 261.997 199.071,261.977 198.123,261.809 198.708 M39.717 199.500 C 39.717 200.004,39.748 200.210,39.786 199.958 C 39.824 199.706,39.824 199.294,39.786 199.042 C 39.748 198.790,39.717 198.996,39.717 199.500 M250.542 198.790 C 251.160 198.822,252.173 198.822,252.792 198.790 C 253.410 198.758,252.904 198.732,251.667 198.732 C 250.429 198.732,249.923 198.758,250.542 198.790 M268.542 199.583 C 268.544 199.950,268.578 200.080,268.618 199.873 C 268.658 199.666,268.656 199.366,268.615 199.206 C 268.573 199.047,268.540 199.217,268.542 199.583 M102.075 199.682 C 101.929 199.966,101.838 200.227,101.875 200.263 C 101.911 200.300,102.065 200.068,102.217 199.748 C 102.560 199.029,102.441 198.974,102.075 199.682 M151.224 200.750 C 151.224 201.483,151.254 201.763,151.289 201.371 C 151.324 200.979,151.324 200.379,151.288 200.037 C 151.252 199.696,151.223 200.017,151.224 200.750 M191.127 199.951 C 191.334 199.991,191.634 199.990,191.794 199.948 C 191.953 199.906,191.783 199.874,191.417 199.875 C 191.050 199.877,190.920 199.911,191.127 199.951 M227.875 199.948 C 228.035 199.990,228.298 199.990,228.458 199.948 C 228.619 199.906,228.487 199.872,228.167 199.872 C 227.846 199.872,227.715 199.906,227.875 199.948 M276.294 199.951 C 276.501 199.991,276.801 199.990,276.960 199.948 C 277.120 199.906,276.950 199.874,276.583 199.875 C 276.217 199.877,276.086 199.911,276.294 199.951 M316.960 199.951 C 317.168 199.991,317.468 199.990,317.627 199.948 C 317.786 199.906,317.617 199.874,317.250 199.875 C 316.883 199.877,316.753 199.911,316.960 199.951 M347.708 199.948 C 347.869 199.990,348.131 199.990,348.292 199.948 C 348.452 199.906,348.321 199.872,348.000 199.872 C 347.679 199.872,347.548 199.906,347.708 199.948 M358.875 199.948 C 359.035 199.990,359.298 199.990,359.458 199.948 C 359.619 199.906,359.488 199.872,359.167 199.872 C 358.846 199.872,358.715 199.906,358.875 199.948 M357.361 200.625 C 357.013 200.973,356.960 201.057,357.243 200.814 C 357.522 200.574,357.900 200.295,358.083 200.194 C 358.267 200.093,358.320 200.008,358.202 200.005 C 358.084 200.002,357.705 200.281,357.361 200.625 M318.681 200.217 C 318.719 200.245,318.975 200.399,319.250 200.560 L 319.750 200.853 319.357 200.510 C 319.140 200.321,318.884 200.167,318.787 200.167 C 318.690 200.167,318.642 200.189,318.681 200.217 M33.039 200.833 C 33.039 201.154,33.073 201.285,33.115 201.125 C 33.157 200.965,33.157 200.702,33.115 200.542 C 33.073 200.381,33.039 200.512,33.039 200.833 M71.625 200.451 C 71.831 200.491,72.169 200.491,72.375 200.451 C 72.581 200.411,72.412 200.379,72.000 200.379 C 71.587 200.379,71.419 200.411,71.625 200.451 M91.292 200.451 C 91.498 200.491,91.835 200.491,92.042 200.451 C 92.248 200.411,92.079 200.379,91.667 200.379 C 91.254 200.379,91.085 200.411,91.292 200.451 M110.960 200.451 C 111.168 200.491,111.468 200.490,111.627 200.448 C 111.786 200.406,111.617 200.374,111.250 200.375 C 110.883 200.377,110.753 200.411,110.960 200.451 M274.417 200.667 C 274.121 200.993,274.125 201.000,274.599 200.981 C 274.898 200.969,274.968 200.931,274.783 200.883 C 274.544 200.822,274.523 200.757,274.678 200.569 C 274.979 200.207,274.758 200.289,274.417 200.667 M286.044 200.453 C 286.297 200.491,286.672 200.490,286.877 200.451 C 287.082 200.411,286.875 200.380,286.417 200.381 C 285.958 200.382,285.791 200.415,286.044 200.453 M293.458 200.455 C 293.848 200.490,294.485 200.490,294.875 200.455 C 295.265 200.420,294.946 200.392,294.167 200.392 C 293.387 200.392,293.069 200.420,293.458 200.455 M298.123 200.456 L 298.996 200.517 299.042 206.800 L 299.087 213.083 299.127 206.708 L 299.167 200.333 298.208 200.364 L 297.250 200.395 298.123 200.456 M304.706 206.708 L 304.746 213.083 304.792 206.798 L 304.837 200.513 306.294 200.457 L 307.750 200.402 306.208 200.368 L 304.667 200.333 304.706 206.708 M346.054 200.708 C 345.868 200.915,345.657 201.196,345.584 201.333 C 345.443 201.599,345.481 201.562,346.157 200.792 C 346.377 200.540,346.521 200.333,346.475 200.333 C 346.429 200.333,346.240 200.502,346.054 200.708 M81.611 200.805 C 81.641 200.927,81.667 201.063,81.667 201.107 C 81.667 201.151,81.742 201.140,81.833 201.083 C 81.925 201.027,82.000 200.905,82.000 200.814 C 82.000 200.722,81.931 200.689,81.848 200.741 C 81.764 200.793,81.664 200.779,81.625 200.709 C 81.586 200.640,81.580 200.683,81.611 200.805 M101.542 200.760 C 101.296 201.026,101.276 201.167,101.482 201.167 C 101.624 201.167,101.891 200.665,101.796 200.576 C 101.771 200.553,101.656 200.635,101.542 200.760 M188.575 201.208 L 187.917 201.917 188.625 201.258 C 189.284 200.645,189.410 200.500,189.284 200.500 C 189.257 200.500,188.938 200.819,188.575 201.208 M194.083 201.167 C 194.441 201.533,194.772 201.833,194.818 201.833 C 194.863 201.833,194.608 201.533,194.250 201.167 C 193.892 200.800,193.562 200.500,193.516 200.500 C 193.470 200.500,193.725 200.800,194.083 201.167 M225.491 201.125 L 224.917 201.750 225.542 201.176 C 226.123 200.641,226.243 200.500,226.116 200.500 C 226.088 200.500,225.807 200.781,225.491 201.125 M230.826 201.250 C 231.228 201.708,231.592 202.121,231.634 202.167 C 231.677 202.213,231.633 202.100,231.536 201.917 C 231.440 201.733,231.076 201.321,230.728 201.000 C 230.126 200.446,230.131 200.458,230.826 201.250 M260.011 201.546 C 259.398 202.248,259.309 202.395,259.734 202.000 C 260.293 201.481,261.109 200.494,260.970 200.504 C 260.941 200.506,260.509 200.975,260.011 201.546 M278.576 200.655 C 278.629 200.741,278.465 200.842,278.211 200.880 C 277.849 200.935,277.889 200.955,278.395 200.975 C 278.952 200.997,279.012 200.965,278.833 200.750 C 278.605 200.475,278.424 200.408,278.576 200.655 M89.199 201.441 L 88.417 202.216 89.250 201.496 C 89.708 201.100,90.115 200.752,90.153 200.722 C 90.191 200.691,90.168 200.667,90.101 200.667 C 90.035 200.667,89.629 201.015,89.199 201.441 M314.406 201.208 L 313.917 201.750 314.458 201.260 C 314.963 200.804,315.077 200.667,314.948 200.667 C 314.919 200.667,314.675 200.910,314.406 201.208 M333.886 201.208 C 333.330 201.796,332.924 202.480,333.055 202.610 C 333.100 202.655,333.188 202.528,333.252 202.327 C 333.315 202.127,333.631 201.671,333.953 201.315 C 334.661 200.531,334.607 200.446,333.886 201.208 M134.583 201.333 C 134.175 201.759,134.150 201.833,134.413 201.833 C 134.583 201.833,134.672 201.783,134.610 201.721 C 134.548 201.659,134.661 201.434,134.861 201.221 C 135.061 201.008,135.188 200.833,135.144 200.833 C 135.099 200.833,134.847 201.058,134.583 201.333 M320.411 201.658 C 320.735 202.140,321.000 202.613,321.000 202.711 C 321.000 202.809,321.047 202.842,321.104 202.785 C 321.229 202.660,320.460 201.313,320.087 201.003 C 319.942 200.882,320.087 201.177,320.411 201.658 M94.025 201.423 C 94.267 201.695,94.623 202.179,94.816 202.500 C 95.008 202.821,95.166 203.001,95.166 202.900 C 95.167 202.657,94.307 201.481,93.903 201.173 C 93.727 201.039,93.782 201.152,94.025 201.423 M108.807 201.458 C 108.267 202.044,107.833 202.693,107.834 202.912 C 107.834 203.006,107.992 202.821,108.184 202.500 C 108.377 202.179,108.728 201.710,108.965 201.458 C 109.202 201.206,109.358 201.000,109.312 201.000 C 109.267 201.000,109.039 201.206,108.807 201.458 M68.830 202.116 C 68.557 202.546,68.334 202.978,68.335 203.074 C 68.336 203.171,68.530 202.913,68.766 202.501 C 69.001 202.088,69.272 201.657,69.367 201.542 C 69.463 201.427,69.492 201.333,69.433 201.333 C 69.374 201.333,69.103 201.686,68.830 202.116 M367.075 207.250 C 367.075 210.458,367.097 211.747,367.125 210.114 C 367.152 208.481,367.152 205.856,367.125 204.281 C 367.097 202.706,367.075 204.042,367.075 207.250 M270.863 201.775 C 270.893 201.881,270.617 202.242,270.250 202.579 L 269.583 203.191 270.333 202.639 C 270.746 202.335,271.116 202.066,271.156 202.041 C 271.195 202.015,271.134 201.902,271.019 201.789 C 270.875 201.648,270.826 201.643,270.863 201.775 M47.174 202.216 C 47.166 202.561,47.881 203.336,48.201 203.327 C 48.320 203.324,48.230 203.218,48.001 203.091 C 47.772 202.965,47.495 202.649,47.384 202.389 C 47.249 202.073,47.179 202.016,47.174 202.216 M350.241 207.500 C 350.241 210.479,350.264 211.698,350.291 210.208 C 350.319 208.719,350.319 206.281,350.291 204.792 C 350.264 203.302,350.241 204.521,350.241 207.500 M40.333 202.729 C 40.333 202.909,40.995 204.167,41.090 204.167 C 41.136 204.167,41.013 203.848,40.816 203.458 C 40.430 202.692,40.333 202.546,40.333 202.729 M145.667 202.799 C 145.667 202.902,145.498 203.145,145.292 203.337 C 145.006 203.604,144.987 203.660,145.213 203.574 C 145.541 203.449,145.915 202.860,145.764 202.708 C 145.710 202.655,145.667 202.696,145.667 202.799 M344.907 207.833 C 344.907 210.629,344.930 211.773,344.958 210.375 C 344.986 208.977,344.986 206.690,344.958 205.292 C 344.930 203.894,344.907 205.037,344.907 207.833 M52.409 203.458 C 54.811 203.494,55.771 203.564,55.865 203.712 C 55.956 203.855,55.996 203.829,55.997 203.625 C 56.000 203.355,55.739 203.336,52.542 203.371 L 49.083 203.409 52.409 203.458 M307.385 204.583 C 307.386 205.133,307.417 205.338,307.454 205.039 C 307.491 204.739,307.490 204.289,307.452 204.039 C 307.414 203.788,307.384 204.033,307.385 204.583 M321.385 204.583 C 321.386 205.133,321.417 205.338,321.454 205.039 C 321.491 204.739,321.490 204.289,321.452 204.039 C 321.414 203.788,321.384 204.033,321.385 204.583 M107.545 204.500 C 107.545 204.912,107.578 205.081,107.618 204.875 C 107.657 204.669,107.657 204.331,107.618 204.125 C 107.578 203.919,107.545 204.088,107.545 204.500 M95.372 204.500 C 95.372 204.821,95.406 204.952,95.448 204.792 C 95.490 204.631,95.490 204.369,95.448 204.208 C 95.406 204.048,95.372 204.179,95.372 204.500 M187.212 204.667 C 187.212 205.079,187.245 205.248,187.284 205.042 C 187.324 204.835,187.324 204.498,187.284 204.292 C 187.245 204.085,187.212 204.254,187.212 204.667 M195.545 204.667 C 195.545 205.079,195.578 205.248,195.618 205.042 C 195.657 204.835,195.657 204.498,195.618 204.292 C 195.578 204.085,195.545 204.254,195.545 204.667 M157.667 204.230 C 157.667 204.409,158.163 205.333,158.259 205.333 C 158.304 205.333,158.218 205.090,158.066 204.792 C 157.757 204.183,157.667 204.056,157.667 204.230 M41.459 204.750 C 41.650 205.025,42.167 205.588,42.607 206.000 C 43.318 206.667,43.298 206.630,42.423 205.667 C 41.107 204.217,41.058 204.171,41.459 204.750 M54.660 205.708 C 54.350 206.098,54.228 206.311,54.389 206.181 C 54.693 205.938,55.407 205.000,55.289 205.000 C 55.253 205.000,54.969 205.319,54.660 205.708 M34.333 205.897 C 34.333 206.076,34.829 207.000,34.925 207.000 C 34.971 207.000,34.885 206.756,34.733 206.458 C 34.424 205.850,34.333 205.723,34.333 205.897 M68.336 205.930 C 68.333 206.121,69.314 207.667,69.438 207.667 C 69.479 207.667,69.430 207.535,69.330 207.375 C 69.229 207.215,68.965 206.783,68.743 206.417 C 68.521 206.050,68.338 205.831,68.336 205.930 M172.791 205.986 C 173.571 206.081,173.780 206.201,174.713 207.088 L 175.761 208.083 174.650 206.958 C 173.567 205.861,173.520 205.834,172.728 205.857 L 171.917 205.880 172.791 205.986 M159.375 206.761 C 159.810 207.220,160.410 207.727,160.708 207.888 C 161.231 208.171,161.235 208.171,160.833 207.884 C 160.604 207.720,160.004 207.213,159.500 206.757 L 158.583 205.928 159.375 206.761 M313.333 206.230 C 313.333 206.409,313.829 207.333,313.925 207.333 C 313.971 207.333,313.885 207.090,313.733 206.792 C 313.424 206.183,313.333 206.056,313.333 206.230 M326.978 206.542 C 326.944 206.748,326.958 208.267,327.009 209.917 L 327.102 212.917 327.134 209.542 C 327.165 206.387,327.125 205.636,326.978 206.542 M94.833 206.477 C 94.833 206.586,94.480 207.030,94.048 207.463 C 93.616 207.896,93.445 208.130,93.669 207.982 C 94.208 207.627,95.086 206.531,94.945 206.390 C 94.884 206.328,94.833 206.367,94.833 206.477 M140.023 207.125 C 139.337 207.815,139.329 207.832,139.954 207.254 C 140.536 206.717,140.837 206.572,141.544 206.486 L 142.417 206.380 141.613 206.357 C 140.862 206.335,140.756 206.386,140.023 207.125 M74.667 207.167 C 74.471 207.442,74.348 207.667,74.394 207.667 C 74.440 207.667,74.638 207.442,74.833 207.167 C 75.029 206.892,75.152 206.667,75.106 206.667 C 75.060 206.667,74.862 206.892,74.667 207.167 M89.000 207.395 C 89.321 207.743,89.733 208.106,89.917 208.203 C 90.100 208.299,90.212 208.344,90.167 208.301 C 89.101 207.310,88.470 206.820,89.000 207.395 M200.929 207.262 C 200.867 207.506,200.855 207.743,200.900 207.789 C 200.946 207.835,201.034 207.673,201.095 207.429 C 201.157 207.184,201.169 206.947,201.123 206.901 C 201.078 206.855,200.990 207.018,200.929 207.262 M108.333 207.052 C 108.333 207.081,108.577 207.325,108.875 207.594 L 109.417 208.083 108.927 207.542 C 108.471 207.037,108.333 206.923,108.333 207.052 M267.718 207.917 C 267.719 208.467,267.750 208.672,267.787 208.372 C 267.825 208.072,267.824 207.622,267.786 207.372 C 267.748 207.122,267.717 207.367,267.718 207.917 M181.705 210.083 L 181.734 213.083 181.825 210.333 C 181.876 208.821,181.863 207.471,181.797 207.333 C 181.731 207.196,181.690 208.433,181.705 210.083 M188.333 207.833 C 188.529 208.108,188.727 208.333,188.773 208.333 C 188.819 208.333,188.696 208.108,188.500 207.833 C 188.304 207.558,188.106 207.333,188.061 207.333 C 188.015 207.333,188.138 207.558,188.333 207.833 M225.166 207.792 C 225.384 208.090,225.589 208.333,225.621 208.333 C 225.747 208.333,225.334 207.708,225.061 207.486 C 224.881 207.340,224.921 207.456,225.166 207.792 M231.000 207.833 C 230.804 208.108,230.681 208.333,230.727 208.333 C 230.773 208.333,230.971 208.108,231.167 207.833 C 231.362 207.558,231.485 207.333,231.439 207.333 C 231.394 207.333,231.196 207.558,231.000 207.833 M278.167 208.197 C 277.754 208.573,277.567 208.802,277.750 208.705 C 278.064 208.539,279.147 207.492,278.990 207.507 C 278.949 207.511,278.579 207.821,278.167 208.197 M314.500 208.083 C 314.811 208.404,315.103 208.667,315.149 208.667 C 315.195 208.667,314.978 208.404,314.667 208.083 C 314.356 207.762,314.064 207.500,314.018 207.500 C 313.972 207.500,314.189 207.762,314.500 208.083 M135.000 207.829 C 135.000 208.049,135.816 208.573,135.950 208.439 C 136.008 208.381,135.968 208.333,135.861 208.333 C 135.754 208.333,135.517 208.183,135.333 208.000 C 135.150 207.817,135.000 207.740,135.000 207.829 M81.597 208.108 C 81.539 208.258,81.531 208.420,81.579 208.468 C 81.627 208.516,81.667 208.464,81.667 208.351 C 81.667 208.239,81.742 208.193,81.833 208.250 C 81.925 208.307,82.000 208.278,82.000 208.186 C 82.000 207.886,81.704 207.829,81.597 208.108 M145.095 208.349 C 145.364 208.679,145.617 208.920,145.658 208.885 C 145.699 208.851,145.480 208.581,145.170 208.286 L 144.608 207.750 145.095 208.349 M71.544 208.620 C 71.797 208.658,72.172 208.657,72.377 208.617 C 72.582 208.578,72.375 208.546,71.917 208.548 C 71.458 208.549,71.291 208.581,71.544 208.620 M91.292 208.618 C 91.498 208.657,91.835 208.657,92.042 208.618 C 92.248 208.578,92.079 208.545,91.667 208.545 C 91.254 208.545,91.085 208.578,91.292 208.618 M110.958 208.618 C 111.165 208.657,111.502 208.657,111.708 208.618 C 111.915 208.578,111.746 208.545,111.333 208.545 C 110.921 208.545,110.752 208.578,110.958 208.618 M127.500 210.667 C 127.500 211.889,127.534 212.855,127.575 212.814 C 127.692 212.697,127.717 208.661,127.602 208.546 C 127.546 208.490,127.500 209.444,127.500 210.667 M59.993 209.542 C 59.683 209.931,59.562 210.144,59.723 210.015 C 60.026 209.771,60.740 208.833,60.623 208.833 C 60.586 208.833,60.302 209.152,59.993 209.542 M153.832 209.295 C 154.031 209.595,154.569 210.232,155.028 210.712 L 155.863 211.583 155.024 210.583 C 154.563 210.033,154.025 209.396,153.828 209.167 L 153.471 208.750 153.832 209.295 M182.333 209.064 C 182.333 209.243,182.829 210.167,182.925 210.167 C 182.971 210.167,182.885 209.923,182.733 209.625 C 182.424 209.017,182.333 208.890,182.333 209.064 M295.869 209.177 C 296.026 209.268,296.270 209.508,296.411 209.709 C 296.551 209.910,296.667 209.997,296.667 209.902 C 296.667 209.654,296.023 208.999,295.785 209.005 C 295.674 209.008,295.712 209.085,295.869 209.177 M37.167 210.059 C 37.579 210.500,38.217 211.092,38.583 211.376 C 39.358 211.974,39.184 211.792,37.583 210.326 C 36.689 209.508,36.592 209.445,37.167 210.059 M80.405 210.458 C 80.240 210.710,79.728 211.329,79.267 211.833 L 78.429 212.750 79.346 211.874 C 79.850 211.392,80.395 210.773,80.558 210.499 C 80.927 209.873,80.809 209.841,80.405 210.458 M82.926 210.333 C 83.200 210.877,84.202 211.999,84.874 212.515 C 85.482 212.982,85.450 212.930,84.653 212.155 C 84.142 211.657,83.516 210.987,83.262 210.667 C 83.007 210.346,82.856 210.196,82.926 210.333 M175.075 210.842 C 174.713 211.213,174.023 211.788,173.542 212.119 C 172.571 212.788,172.383 213.016,173.187 212.551 C 173.708 212.249,175.997 210.187,175.825 210.174 C 175.775 210.170,175.438 210.470,175.075 210.842 M102.981 210.806 C 103.166 211.067,103.450 211.385,103.611 211.515 C 103.772 211.644,103.650 211.431,103.340 211.042 C 102.705 210.242,102.469 210.087,102.981 210.806 M63.631 210.944 C 64.066 211.562,65.572 212.946,66.070 213.185 C 66.261 213.277,66.192 213.185,65.917 212.982 C 65.642 212.779,64.931 212.119,64.338 211.515 C 63.745 210.911,63.427 210.654,63.631 210.944 M309.137 210.750 C 309.235 210.933,309.627 211.421,310.007 211.833 L 310.698 212.583 309.985 211.667 C 309.099 210.528,308.910 210.324,309.137 210.750 M129.134 211.292 C 129.407 211.635,129.803 212.067,130.015 212.250 C 130.227 212.433,130.033 212.152,129.585 211.625 C 128.672 210.552,128.371 210.329,129.134 211.292 M144.656 211.542 C 144.254 212.023,144.058 212.311,144.219 212.183 C 144.543 211.924,145.570 210.667,145.457 210.667 C 145.418 210.667,145.057 211.060,144.656 211.542 M183.624 211.250 C 183.814 211.525,184.218 211.975,184.522 212.250 C 184.929 212.619,184.883 212.532,184.344 211.917 C 183.361 210.793,183.217 210.659,183.624 211.250 M198.594 211.794 C 198.103 212.366,197.991 212.549,198.318 212.250 C 198.813 211.797,199.600 210.830,199.470 210.835 C 199.441 210.837,199.047 211.268,198.594 211.794 M220.636 211.458 C 220.910 211.802,221.343 212.271,221.598 212.500 C 221.854 212.729,221.657 212.448,221.161 211.875 C 220.165 210.725,219.858 210.481,220.636 211.458 M324.167 212.048 C 323.662 212.529,323.063 213.056,322.833 213.219 C 322.433 213.503,322.437 213.503,322.957 213.222 C 323.429 212.967,325.368 211.161,325.161 211.170 C 325.118 211.172,324.671 211.567,324.167 212.048 M156.060 211.629 C 156.192 211.842,157.167 212.564,157.167 212.448 C 157.167 212.407,156.891 212.163,156.555 211.906 C 156.218 211.650,155.996 211.525,156.060 211.629 M202.480 211.963 C 202.704 212.381,204.025 213.585,204.518 213.819 C 204.906 214.004,204.905 214.002,204.500 213.723 C 204.271 213.565,203.686 213.035,203.199 212.545 C 202.713 212.056,202.390 211.794,202.480 211.963 M297.381 212.583 C 297.382 213.042,297.415 213.209,297.453 212.956 C 297.491 212.703,297.490 212.328,297.451 212.123 C 297.411 211.918,297.380 212.125,297.381 212.583 M98.083 212.608 C 97.581 213.057,97.544 213.119,97.931 212.860 C 98.392 212.552,98.972 211.990,98.812 212.006 C 98.778 212.010,98.450 212.281,98.083 212.608 M104.498 212.385 C 104.725 212.643,105.168 213.013,105.482 213.207 C 105.991 213.522,106.019 213.574,105.735 213.685 C 105.560 213.754,105.504 213.815,105.611 213.822 C 106.282 213.862,106.325 213.609,105.716 213.206 C 105.368 212.975,104.859 212.591,104.584 212.352 L 104.085 211.917 104.498 212.385 M288.312 212.294 C 288.398 212.455,288.640 212.736,288.849 212.919 C 289.160 213.190,289.144 213.137,288.761 212.625 C 288.267 211.964,288.050 211.804,288.312 212.294 M143.089 212.853 C 142.214 213.511,142.132 213.620,142.803 213.234 C 143.276 212.963,144.020 212.311,143.817 212.345 C 143.780 212.351,143.453 212.580,143.089 212.853 M310.986 212.727 C 311.208 213.001,311.833 213.414,311.833 213.287 C 311.833 213.255,311.590 213.051,311.292 212.833 C 310.956 212.587,310.840 212.547,310.986 212.727 M171.667 213.250 C 171.254 213.471,170.976 213.655,171.048 213.659 C 171.225 213.669,172.500 213.014,172.500 212.913 C 172.500 212.803,172.507 212.800,171.667 213.250 M127.333 213.238 C 127.333 213.369,127.136 213.631,126.894 213.821 C 126.653 214.011,126.537 214.167,126.638 214.167 C 126.885 214.167,127.500 213.490,127.500 213.219 C 127.500 213.098,127.462 213.000,127.417 213.000 C 127.371 213.000,127.333 213.107,127.333 213.238 M327.177 213.177 C 327.165 213.485,327.761 214.167,328.044 214.167 C 328.152 214.167,328.069 214.046,327.858 213.899 C 327.648 213.752,327.411 213.470,327.332 213.274 C 327.237 213.039,327.184 213.006,327.177 213.177 M344.680 213.196 C 344.673 213.350,344.469 213.631,344.228 213.821 C 343.986 214.011,343.860 214.167,343.948 214.167 C 344.226 214.167,344.873 213.367,344.781 213.137 C 344.721 212.986,344.689 213.005,344.680 213.196 M350.346 213.208 C 350.331 213.545,350.901 214.172,351.208 214.155 C 351.323 214.149,351.251 214.064,351.048 213.966 C 350.845 213.868,350.607 213.592,350.520 213.352 C 350.414 213.065,350.355 213.016,350.346 213.208 M181.396 213.577 C 181.345 213.711,181.154 213.868,180.972 213.926 C 180.790 213.983,180.678 214.067,180.723 214.112 C 180.853 214.242,181.451 213.867,181.558 213.588 C 181.612 213.448,181.619 213.333,181.573 213.333 C 181.527 213.333,181.447 213.443,181.396 213.577 M237.396 213.577 C 237.345 213.711,237.154 213.868,236.972 213.926 C 236.790 213.983,236.678 214.067,236.723 214.112 C 236.853 214.242,237.451 213.867,237.558 213.588 C 237.612 213.448,237.619 213.333,237.573 213.333 C 237.527 213.333,237.447 213.443,237.396 213.577 M243.926 213.546 C 244.051 213.874,244.640 214.249,244.792 214.097 C 244.845 214.044,244.804 214.000,244.701 214.000 C 244.598 214.000,244.355 213.831,244.163 213.625 C 243.896 213.340,243.840 213.321,243.926 213.546 M262.093 213.546 C 262.218 213.874,262.807 214.249,262.959 214.097 C 263.012 214.044,262.971 214.000,262.868 214.000 C 262.764 214.000,262.522 213.831,262.330 213.625 C 262.063 213.340,262.006 213.321,262.093 213.546 M299.259 213.546 C 299.385 213.874,299.974 214.249,300.125 214.097 C 300.179 214.044,300.138 214.000,300.034 214.000 C 299.931 214.000,299.689 213.831,299.496 213.625 C 299.230 213.340,299.173 213.321,299.259 213.546 M270.667 213.582 C 270.667 213.696,271.687 214.202,271.763 214.125 C 271.800 214.089,271.568 213.935,271.248 213.783 C 270.928 213.630,270.667 213.540,270.667 213.582 M279.152 213.850 C 278.839 214.016,278.658 214.153,278.750 214.154 C 278.842 214.154,279.100 214.053,279.325 213.929 C 279.674 213.735,279.790 213.739,280.122 213.957 C 280.336 214.097,280.541 214.182,280.578 214.144 C 280.896 213.826,279.672 213.573,279.152 213.850 M332.409 213.678 C 332.349 213.776,332.138 213.922,331.941 214.001 C 331.697 214.100,331.668 214.149,331.849 214.156 C 331.995 214.162,332.251 214.017,332.417 213.833 C 332.583 213.650,332.674 213.500,332.619 213.500 C 332.564 213.500,332.470 213.580,332.409 213.678 M123.458 214.290 C 123.940 214.323,124.727 214.323,125.208 214.290 C 125.690 214.256,125.296 214.228,124.333 214.228 C 123.371 214.228,122.977 214.256,123.458 214.290 M178.296 214.289 C 178.688 214.324,179.288 214.324,179.629 214.288 C 179.971 214.252,179.650 214.223,178.917 214.224 C 178.183 214.224,177.904 214.254,178.296 214.289 M215.042 214.288 C 215.385 214.324,215.948 214.324,216.292 214.288 C 216.635 214.252,216.354 214.223,215.667 214.223 C 214.979 214.223,214.698 214.252,215.042 214.288 M234.375 214.288 C 234.719 214.324,235.281 214.324,235.625 214.288 C 235.969 214.252,235.688 214.223,235.000 214.223 C 234.313 214.223,234.031 214.252,234.375 214.288 M245.963 214.289 C 246.355 214.324,246.955 214.324,247.296 214.288 C 247.637 214.252,247.317 214.223,246.583 214.224 C 245.850 214.224,245.571 214.254,245.963 214.289 M264.129 214.289 C 264.521 214.324,265.121 214.324,265.463 214.288 C 265.804 214.252,265.483 214.223,264.750 214.224 C 264.017 214.224,263.737 214.254,264.129 214.289 M281.708 214.288 C 282.052 214.324,282.615 214.324,282.958 214.288 C 283.302 214.252,283.021 214.223,282.333 214.223 C 281.646 214.223,281.365 214.252,281.708 214.288 M301.296 214.289 C 301.688 214.324,302.288 214.324,302.629 214.288 C 302.971 214.252,302.650 214.223,301.917 214.224 C 301.183 214.224,300.904 214.254,301.296 214.289 M329.296 214.289 C 329.688 214.324,330.288 214.324,330.629 214.288 C 330.971 214.252,330.650 214.223,329.917 214.224 C 329.183 214.224,328.904 214.254,329.296 214.289 M341.463 214.289 C 341.855 214.324,342.455 214.324,342.796 214.288 C 343.137 214.252,342.817 214.223,342.083 214.224 C 341.350 214.224,341.071 214.254,341.463 214.289 M352.463 214.289 C 352.855 214.324,353.455 214.324,353.796 214.288 C 354.137 214.252,353.817 214.223,353.083 214.224 C 352.350 214.224,352.071 214.254,352.463 214.289 M363.629 214.289 C 364.021 214.324,364.621 214.324,364.963 214.288 C 365.304 214.252,364.983 214.223,364.250 214.224 C 363.517 214.224,363.237 214.254,363.629 214.289 M107.949 214.843 C 108.115 215.124,108.433 215.518,108.657 215.718 C 108.947 215.978,108.911 215.892,108.532 215.420 C 107.919 214.656,107.893 214.552,108.292 214.448 C 108.467 214.402,108.397 214.364,108.116 214.353 L 107.648 214.333 107.949 214.843 M47.797 214.790 C 48.282 214.824,49.032 214.823,49.464 214.789 C 49.896 214.755,49.500 214.727,48.583 214.728 C 47.667 214.728,47.313 214.756,47.797 214.790 M71.296 214.789 C 71.688 214.824,72.288 214.824,72.629 214.788 C 72.971 214.752,72.650 214.723,71.917 214.724 C 71.183 214.724,70.904 214.754,71.296 214.789 M91.042 214.788 C 91.385 214.824,91.948 214.824,92.292 214.788 C 92.635 214.752,92.354 214.723,91.667 214.723 C 90.979 214.723,90.698 214.752,91.042 214.788 M110.288 214.787 C 110.584 214.824,111.109 214.824,111.455 214.788 C 111.800 214.752,111.558 214.722,110.917 214.721 C 110.275 214.721,109.992 214.750,110.288 214.787 M136.463 214.789 C 136.855 214.824,137.455 214.824,137.796 214.788 C 138.137 214.752,137.817 214.723,137.083 214.724 C 136.350 214.724,136.071 214.754,136.463 214.789 M164.547 214.789 C 164.985 214.824,165.660 214.823,166.047 214.788 C 166.434 214.754,166.075 214.725,165.250 214.726 C 164.425 214.726,164.109 214.755,164.547 214.789 M190.796 214.789 C 191.188 214.824,191.788 214.824,192.129 214.788 C 192.471 214.752,192.150 214.723,191.417 214.724 C 190.683 214.724,190.404 214.754,190.796 214.789 M208.125 214.787 C 208.423 214.824,208.910 214.824,209.208 214.787 C 209.506 214.750,209.262 214.720,208.667 214.720 C 208.071 214.720,207.827 214.750,208.125 214.787 M227.125 214.787 C 227.423 214.824,227.910 214.824,228.208 214.787 C 228.506 214.750,228.262 214.720,227.667 214.720 C 227.071 214.720,226.827 214.750,227.125 214.787 M274.621 214.787 C 274.917 214.824,275.442 214.824,275.788 214.788 C 276.134 214.752,275.892 214.722,275.250 214.721 C 274.608 214.721,274.325 214.750,274.621 214.787 M316.708 214.788 C 317.052 214.824,317.615 214.824,317.958 214.788 C 318.302 214.752,318.021 214.723,317.333 214.723 C 316.646 214.723,316.365 214.752,316.708 214.788 M113.567 215.524 C 113.393 215.720,113.025 216.020,112.750 216.190 C 112.475 216.360,112.347 216.499,112.465 216.499 C 112.673 216.500,114.183 215.179,113.984 215.171 C 113.930 215.169,113.742 215.327,113.567 215.524 M102.797 218.752 C 102.892 218.936,103.145 219.236,103.360 219.417 C 103.736 219.736,103.735 219.730,103.336 219.249 C 102.672 218.449,102.616 218.398,102.797 218.752 M118.178 220.046 C 117.565 220.748,117.475 220.895,117.901 220.500 C 118.460 219.981,119.275 218.994,119.136 219.004 C 119.107 219.006,118.676 219.475,118.178 220.046 M104.697 220.761 C 104.851 220.938,105.226 221.225,105.530 221.399 C 106.183 221.771,106.011 221.586,105.083 220.918 C 104.696 220.639,104.534 220.573,104.697 220.761 " stroke="none" fill="#8699b8" fill-rule="evenodd"></path><path id="path4" d="M178.337 60.214 C 178.038 60.365,175.003 65.499,167.388 78.733 C 161.593 88.803,156.692 97.212,156.497 97.420 L 156.143 97.797 156.570 98.641 C 156.806 99.105,158.936 102.845,161.305 106.951 C 163.673 111.057,168.331 119.142,171.654 124.917 C 174.978 130.692,177.882 135.585,178.108 135.792 L 178.519 136.167 200.112 136.167 L 221.705 136.167 222.118 135.708 C 222.794 134.959,243.556 98.794,243.622 98.250 C 243.672 97.847,243.105 96.746,240.702 92.583 C 231.880 77.296,222.914 61.664,222.614 61.047 C 222.384 60.574,222.111 60.289,221.778 60.172 C 220.998 59.900,178.877 59.941,178.337 60.214 M123.621 185.287 C 123.917 185.324,124.442 185.324,124.788 185.288 C 125.134 185.252,124.892 185.222,124.250 185.221 C 123.608 185.221,123.325 185.250,123.621 185.287 M121.079 199.667 C 121.079 206.954,121.100 209.935,121.125 206.292 C 121.150 202.648,121.150 196.685,121.125 193.042 C 121.100 189.398,121.079 192.379,121.079 199.667 M37.500 188.750 C 37.095 189.162,36.801 189.500,36.847 189.500 C 36.893 189.500,37.262 189.162,37.667 188.750 C 38.072 188.338,38.365 188.000,38.319 188.000 C 38.274 188.000,37.905 188.338,37.500 188.750 M267.579 200.750 C 267.579 207.442,267.600 210.155,267.625 206.779 C 267.650 203.404,267.650 197.929,267.625 194.613 C 267.600 191.297,267.579 194.058,267.579 200.750 M289.375 189.955 C 289.719 189.991,290.281 189.991,290.625 189.955 C 290.969 189.919,290.688 189.889,290.000 189.889 C 289.313 189.889,289.031 189.919,289.375 189.955 M155.242 190.708 L 154.583 191.417 155.292 190.758 C 155.950 190.145,156.077 190.000,155.950 190.000 C 155.923 190.000,155.605 190.319,155.242 190.708 M57.578 191.708 L 56.583 192.750 57.625 191.755 C 58.593 190.831,58.743 190.667,58.620 190.667 C 58.594 190.667,58.125 191.135,57.578 191.708 M306.208 192.615 C 306.369 192.657,306.631 192.657,306.792 192.615 C 306.952 192.573,306.821 192.539,306.500 192.539 C 306.179 192.539,306.048 192.573,306.208 192.615 M249.402 195.750 C 249.402 197.400,249.427 198.052,249.458 197.200 C 249.488 196.347,249.488 194.997,249.457 194.200 C 249.427 193.402,249.402 194.100,249.402 195.750 M174.075 193.875 L 173.417 194.583 174.125 193.925 C 174.784 193.312,174.910 193.167,174.784 193.167 C 174.757 193.167,174.438 193.485,174.075 193.875 M218.404 199.750 C 218.404 201.675,218.428 202.440,218.458 201.449 C 218.487 200.459,218.487 198.884,218.458 197.949 C 218.428 197.015,218.404 197.825,218.404 199.750 M284.139 197.417 C 284.108 198.013,284.140 198.501,284.208 198.500 C 284.277 198.500,284.333 198.012,284.333 197.417 C 284.333 196.018,284.211 196.018,284.139 197.417 M129.740 197.042 L 129.250 197.583 129.792 197.094 C 130.090 196.825,130.333 196.581,130.333 196.552 C 130.333 196.423,130.196 196.537,129.740 197.042 M221.406 197.042 L 220.917 197.583 221.458 197.094 C 221.963 196.638,222.077 196.500,221.948 196.500 C 221.919 196.500,221.675 196.744,221.406 197.042 M184.406 197.208 L 183.917 197.750 184.458 197.260 C 184.963 196.804,185.077 196.667,184.948 196.667 C 184.919 196.667,184.675 196.910,184.406 197.208 M197.833 196.719 C 197.833 196.748,198.077 196.991,198.375 197.260 L 198.917 197.750 198.427 197.208 C 197.971 196.703,197.833 196.590,197.833 196.719 M33.050 199.500 C 33.050 200.004,33.081 200.210,33.119 199.958 C 33.158 199.706,33.158 199.294,33.119 199.042 C 33.081 198.790,33.050 198.996,33.050 199.500 M361.407 207.750 C 361.407 210.592,361.430 211.778,361.458 210.385 C 361.486 208.993,361.486 206.668,361.458 205.219 C 361.430 203.769,361.408 204.908,361.407 207.750 M355.907 208.250 C 355.907 210.817,355.930 211.843,355.958 210.532 C 355.986 209.220,355.986 207.120,355.958 205.865 C 355.930 204.610,355.907 205.683,355.907 208.250 M249.406 208.583 C 249.406 210.967,249.429 211.918,249.458 210.698 C 249.486 209.479,249.486 207.529,249.458 206.365 C 249.429 205.202,249.406 206.200,249.406 208.583 M218.404 209.500 C 218.404 211.379,218.428 212.148,218.458 211.208 C 218.487 210.269,218.487 208.731,218.458 207.792 C 218.428 206.852,218.404 207.621,218.404 209.500 M48.125 208.451 C 48.331 208.491,48.669 208.491,48.875 208.451 C 49.081 208.411,48.913 208.379,48.500 208.379 C 48.087 208.379,47.919 208.411,48.125 208.451 M58.824 210.792 L 58.250 211.417 58.875 210.842 C 59.219 210.526,59.500 210.245,59.500 210.217 C 59.500 210.090,59.359 210.210,58.824 210.792 M129.833 211.917 C 130.144 212.237,130.436 212.500,130.482 212.500 C 130.528 212.500,130.311 212.237,130.000 211.917 C 129.689 211.596,129.397 211.333,129.351 211.333 C 129.305 211.333,129.522 211.596,129.833 211.917 M144.240 211.875 L 143.750 212.417 144.292 211.927 C 144.590 211.658,144.833 211.414,144.833 211.385 C 144.833 211.257,144.696 211.370,144.240 211.875 " stroke="none" fill="#ffffff" fill-rule="evenodd"></path></g></svg>