<svg id="svg" version="1.1" xmlns="http://www.w3.org/2000/svg" xmlns:xlink="http://www.w3.org/1999/xlink" width="400" height="95.43147208121827" viewBox="0, 0, 400,95.43147208121827"><g id="svgg"><path id="path0" d="M10.702 5.454 L 10.667 10.992 10.239 10.829 C 10.004 10.740,9.517 10.667,9.156 10.667 C 8.573 10.667,8.500 10.622,8.500 10.262 C 8.500 9.896,8.411 9.846,7.583 9.743 C 6.813 9.647,6.633 9.558,6.457 9.189 C 6.276 8.809,6.129 8.743,5.374 8.700 C 4.672 8.659,4.500 8.592,4.500 8.358 C 4.500 7.873,4.141 7.667,3.300 7.667 C 2.641 7.667,2.500 7.614,2.500 7.367 C 2.500 6.842,2.136 6.667,1.050 6.667 L 0.000 6.667 0.000 45.667 C 0.000 83.811,0.007 84.667,0.315 84.667 C 0.508 84.667,0.669 84.820,0.730 85.063 C 0.836 85.486,1.242 85.661,2.125 85.664 C 2.467 85.666,2.667 85.750,2.667 85.891 C 2.667 86.303,3.261 86.667,3.935 86.667 C 4.514 86.667,4.616 86.727,4.782 87.167 C 4.956 87.628,5.034 87.667,5.782 87.667 C 6.531 87.667,6.608 87.705,6.782 88.167 C 6.961 88.640,7.021 88.667,7.902 88.667 C 8.730 88.667,8.833 88.705,8.833 89.009 C 8.833 89.388,9.686 89.833,10.411 89.833 C 10.715 89.833,10.833 89.922,10.833 90.150 C 10.833 90.500,11.569 90.833,12.340 90.833 C 12.685 90.833,12.822 90.933,12.899 91.238 C 12.986 91.584,13.131 91.659,13.898 91.755 C 14.620 91.845,14.830 91.944,14.974 92.260 C 15.116 92.572,15.332 92.677,16.015 92.768 C 16.643 92.851,16.899 92.963,16.955 93.181 C 17.035 93.486,17.791 93.833,18.375 93.833 C 18.553 93.833,18.910 94.058,19.167 94.333 C 19.539 94.732,19.773 94.833,20.317 94.833 C 20.813 94.833,21.000 94.902,21.000 95.083 C 21.000 95.293,21.361 95.333,23.250 95.333 C 25.651 95.333,25.946 95.212,25.167 94.545 C 24.845 94.269,24.833 94.053,24.833 88.483 C 24.833 83.338,24.804 82.683,24.561 82.481 C 24.411 82.357,24.155 81.945,23.993 81.566 C 23.787 81.087,23.566 80.844,23.265 80.769 C 22.921 80.682,22.833 80.559,22.833 80.163 C 22.833 79.719,22.779 79.667,22.317 79.667 C 21.958 79.667,21.658 79.514,21.333 79.167 C 20.914 78.718,20.763 78.667,19.861 78.667 C 18.888 78.667,18.854 78.652,18.803 78.208 C 18.753 77.775,18.698 77.747,17.802 77.700 C 16.910 77.654,16.851 77.624,16.802 77.200 C 16.756 76.800,16.672 76.744,16.049 76.699 C 15.513 76.660,15.250 76.532,14.934 76.157 C 14.675 75.849,14.363 75.667,14.094 75.667 C 13.763 75.667,13.666 75.582,13.664 75.292 C 13.662 75.085,13.663 61.604,13.666 45.333 L 13.671 15.750 13.169 15.278 C 12.893 15.018,12.667 14.715,12.667 14.604 C 12.667 14.494,12.508 14.107,12.314 13.744 C 12.120 13.380,11.821 12.807,11.649 12.470 C 11.477 12.133,11.205 11.815,11.043 11.764 C 10.772 11.678,10.754 11.359,10.799 7.460 C 10.826 5.145,10.823 2.500,10.792 1.583 C 10.761 0.667,10.721 2.409,10.702 5.454 M28.664 6.777 C 28.758 6.824,28.802 6.915,28.762 6.981 C 28.722 7.046,28.762 7.208,28.852 7.341 C 28.976 7.527,29.003 7.489,28.966 7.180 C 28.939 6.958,28.821 6.757,28.704 6.734 C 28.587 6.711,28.569 6.730,28.664 6.777 M34.333 9.786 C 34.471 9.836,34.679 9.954,34.795 10.046 C 34.954 10.172,34.981 10.145,34.903 9.940 C 34.845 9.790,34.637 9.673,34.441 9.680 C 34.197 9.689,34.163 9.722,34.333 9.786 M16.876 17.130 C 16.891 17.321,16.962 17.440,17.035 17.395 C 17.107 17.350,17.167 17.406,17.167 17.518 C 17.167 17.630,17.212 17.677,17.267 17.622 C 17.322 17.567,17.251 17.355,17.109 17.152 C 16.856 16.791,16.851 16.790,16.876 17.130 M19.074 18.589 C 19.496 18.908,19.762 18.905,19.440 18.583 C 19.303 18.446,19.091 18.336,18.970 18.339 C 18.832 18.342,18.871 18.435,19.074 18.589 M20.833 19.112 C 20.833 19.325,21.473 19.916,21.584 19.805 C 21.629 19.760,21.478 19.548,21.249 19.333 C 21.021 19.118,20.833 19.018,20.833 19.112 M51.506 27.322 C 51.389 27.540,51.333 34.932,51.333 50.075 L 51.333 72.505 56.375 72.461 L 61.417 72.417 61.459 50.137 C 61.486 35.902,61.442 27.703,61.338 27.429 L 61.175 27.000 56.427 27.000 C 51.903 27.000,51.670 27.015,51.506 27.322 M181.533 27.200 C 181.423 27.310,181.333 27.535,181.333 27.700 C 181.333 27.972,181.149 28.000,179.347 28.000 L 177.360 28.000 177.250 28.500 C 177.144 28.981,177.106 29.000,176.233 29.000 C 175.357 29.000,175.321 29.018,175.225 29.500 C 175.142 29.916,175.045 30.000,174.646 30.000 C 174.225 30.000,174.167 30.060,174.167 30.500 C 174.167 30.968,174.126 31.000,173.532 31.000 C 172.639 31.000,172.315 31.297,172.212 32.209 C 172.135 32.893,172.075 32.988,171.688 33.033 C 171.329 33.074,171.241 33.181,171.198 33.625 C 171.155 34.066,171.074 34.167,170.757 34.167 C 170.255 34.167,170.167 34.431,170.167 35.930 C 170.167 36.891,170.114 37.167,169.929 37.167 C 169.253 37.167,169.167 37.569,169.167 40.729 C 169.167 43.871,169.227 44.167,169.867 44.167 C 170.133 44.167,170.167 44.333,170.167 45.667 L 170.167 47.167 170.658 47.167 C 171.140 47.167,171.151 47.186,171.200 48.125 C 171.247 49.032,171.274 49.086,171.708 49.136 C 172.092 49.180,172.167 49.268,172.167 49.678 C 172.167 50.110,172.225 50.167,172.667 50.167 C 173.111 50.167,173.167 50.222,173.167 50.667 C 173.167 51.111,173.222 51.167,173.667 51.167 C 174.111 51.167,174.167 51.222,174.167 51.667 C 174.167 52.115,174.220 52.167,174.683 52.167 C 175.042 52.167,175.342 52.319,175.667 52.667 C 176.087 53.117,176.236 53.167,177.150 53.167 C 178.100 53.167,178.167 53.192,178.167 53.550 C 178.167 54.198,178.474 54.333,179.950 54.333 C 181.228 54.333,181.333 54.359,181.333 54.671 C 181.333 55.162,181.959 55.333,183.761 55.333 C 185.308 55.333,185.333 55.340,185.333 55.732 C 185.333 56.245,185.592 56.333,187.085 56.333 C 188.229 56.333,188.314 56.358,188.363 56.708 C 188.400 56.965,188.585 57.133,188.948 57.240 C 189.291 57.341,189.514 57.532,189.576 57.779 C 189.632 58.004,189.843 58.204,190.086 58.266 C 190.490 58.367,190.500 58.407,190.500 59.935 L 190.500 61.500 189.917 61.500 C 189.380 61.500,189.333 61.540,189.333 62.000 L 189.333 62.500 185.750 62.500 L 182.167 62.500 182.167 62.000 C 182.167 61.556,182.111 61.500,181.667 61.500 C 181.221 61.500,181.167 61.445,181.167 60.996 C 181.167 60.569,181.090 60.476,180.667 60.392 C 180.254 60.309,180.167 60.210,180.167 59.827 C 180.167 59.526,179.990 59.195,179.667 58.890 C 179.314 58.557,179.167 58.261,179.167 57.885 C 179.167 57.562,179.008 57.168,178.765 56.884 L 178.363 56.417 174.168 56.364 C 168.704 56.296,169.166 56.002,169.169 59.546 C 169.172 62.632,169.214 62.892,169.756 63.139 C 170.094 63.293,170.157 63.456,170.200 64.284 C 170.247 65.194,170.276 65.253,170.699 65.302 C 171.068 65.344,171.156 65.448,171.199 65.885 C 171.241 66.326,171.329 66.426,171.708 66.469 C 172.120 66.517,172.167 66.588,172.167 67.164 C 172.167 68.019,172.305 68.333,172.680 68.333 C 172.857 68.333,173.102 68.547,173.247 68.828 C 173.462 69.243,173.634 69.340,174.326 69.431 C 175.056 69.528,175.154 69.590,175.199 69.978 C 175.239 70.317,175.362 70.434,175.748 70.500 C 176.074 70.556,176.268 70.701,176.309 70.918 C 176.397 71.382,176.633 71.495,177.529 71.497 C 178.171 71.500,178.396 71.588,178.810 72.002 L 179.312 72.504 185.781 72.460 L 192.250 72.417 192.303 71.958 C 192.353 71.520,192.396 71.500,193.269 71.500 C 194.259 71.500,195.167 71.139,195.167 70.746 C 195.167 70.576,195.348 70.500,195.754 70.500 C 196.271 70.500,196.353 70.441,196.440 70.009 C 196.515 69.634,196.642 69.506,196.977 69.468 C 197.314 69.429,197.429 69.312,197.468 68.968 C 197.508 68.622,197.622 68.508,197.968 68.468 C 198.314 68.429,198.428 68.315,198.468 67.971 C 198.505 67.651,198.657 67.478,199.010 67.355 C 199.473 67.193,199.500 67.133,199.500 66.259 C 199.500 65.479,199.547 65.333,199.800 65.333 C 200.478 65.333,200.500 65.150,200.500 59.395 C 200.500 53.561,200.471 53.333,199.738 53.333 C 199.568 53.333,199.500 53.124,199.500 52.597 C 199.500 51.609,199.371 51.333,198.910 51.333 C 198.611 51.333,198.510 51.229,198.469 50.875 C 198.428 50.515,198.318 50.405,197.958 50.364 C 197.574 50.320,197.500 50.232,197.500 49.822 C 197.500 49.390,197.442 49.333,197.000 49.333 C 196.618 49.333,196.500 49.258,196.500 49.014 C 196.500 48.441,196.305 48.167,195.899 48.167 C 195.664 48.167,195.500 48.069,195.500 47.929 C 195.500 47.454,194.993 47.167,194.155 47.167 C 193.399 47.167,193.333 47.135,193.333 46.768 C 193.333 46.255,193.075 46.167,191.570 46.167 C 190.452 46.167,190.333 46.135,190.333 45.839 C 190.333 45.348,189.824 45.167,188.445 45.167 C 187.294 45.167,187.162 45.130,186.667 44.667 C 186.155 44.189,186.066 44.167,184.649 44.167 C 183.333 44.167,183.167 44.133,183.167 43.867 C 183.167 43.376,182.814 43.167,181.985 43.167 C 181.299 43.167,181.190 43.118,181.103 42.768 C 181.043 42.531,180.839 42.329,180.596 42.268 C 180.308 42.196,180.173 42.032,180.136 41.708 C 180.095 41.348,179.985 41.239,179.625 41.197 C 179.226 41.151,179.167 41.072,179.167 40.583 C 179.167 40.095,179.226 40.015,179.625 39.969 C 179.974 39.929,180.095 39.816,180.133 39.495 C 180.161 39.251,180.337 39.005,180.549 38.911 C 180.751 38.823,180.991 38.581,181.081 38.375 C 181.224 38.049,181.370 38.000,182.195 38.000 C 183.353 38.000,183.936 37.797,184.080 37.343 C 184.223 36.892,184.463 36.905,184.530 37.368 C 184.595 37.816,185.050 37.961,186.458 37.983 C 187.247 37.996,187.500 38.058,187.500 38.241 C 187.500 38.602,188.171 39.000,188.779 39.000 L 189.317 39.000 189.367 39.958 C 189.416 40.909,189.421 40.917,189.967 40.970 C 190.360 41.007,190.558 41.132,190.663 41.407 C 190.877 41.970,191.326 42.023,195.583 41.988 C 200.447 41.947,200.383 41.926,200.500 43.633 C 200.585 44.871,200.749 45.159,201.375 45.164 C 201.630 45.166,201.667 45.346,201.667 46.587 L 201.667 48.008 202.167 48.108 C 202.662 48.207,202.667 48.218,202.667 49.317 C 202.667 50.467,202.954 51.167,203.426 51.167 C 203.609 51.167,203.667 51.405,203.667 52.156 C 203.667 53.111,203.682 53.146,204.125 53.197 C 204.580 53.250,204.584 53.261,204.667 54.750 C 204.749 56.239,204.753 56.250,205.208 56.303 C 205.662 56.355,205.667 56.368,205.667 57.581 C 205.667 59.075,205.755 59.333,206.268 59.333 C 206.656 59.333,206.667 59.371,206.667 60.681 C 206.667 62.026,206.668 62.029,207.167 62.218 C 207.642 62.397,207.667 62.454,207.667 63.359 C 207.667 64.520,207.870 65.103,208.324 65.247 C 208.614 65.339,208.667 65.494,208.667 66.255 C 208.667 67.017,208.743 67.242,209.167 67.725 C 209.581 68.196,209.667 68.438,209.667 69.133 C 209.667 70.231,209.785 70.500,210.268 70.500 C 210.882 70.500,210.882 72.439,210.268 72.594 C 209.856 72.697,209.667 73.199,209.667 74.188 L 209.667 74.667 207.167 74.667 L 204.667 74.667 204.667 79.169 L 204.667 83.671 210.125 83.627 L 215.583 83.583 215.635 83.135 C 215.678 82.766,215.781 82.677,216.218 82.635 C 216.656 82.592,216.759 82.504,216.802 82.135 C 216.842 81.789,216.955 81.675,217.301 81.635 C 217.652 81.595,217.767 81.475,217.834 81.083 C 217.893 80.735,218.026 80.568,218.274 80.533 C 218.652 80.478,218.833 79.949,218.833 78.896 C 218.833 78.586,218.909 78.333,219.002 78.333 C 219.363 78.333,219.832 77.249,219.833 76.415 C 219.833 75.713,219.892 75.553,220.203 75.415 C 220.645 75.218,220.794 74.741,220.817 73.458 C 220.831 72.653,220.881 72.500,221.133 72.500 C 221.685 72.500,221.833 72.142,221.833 70.813 L 221.833 69.526 222.333 69.417 L 222.833 69.307 222.833 67.914 L 222.833 66.522 223.292 66.469 C 223.730 66.419,223.752 66.371,223.799 65.398 C 223.841 64.521,223.901 64.356,224.234 64.204 C 224.660 64.010,224.833 63.424,224.833 62.182 C 224.833 61.473,224.876 61.390,225.333 61.218 C 225.832 61.030,225.833 61.024,225.833 59.692 C 225.833 58.358,225.834 58.355,226.292 58.303 C 226.748 58.250,226.750 58.245,226.798 56.792 C 226.844 55.403,226.864 55.333,227.223 55.333 C 227.837 55.333,228.000 55.013,228.000 53.805 C 228.000 52.745,228.030 52.654,228.500 52.307 C 228.954 51.971,229.000 51.850,229.000 50.987 C 229.000 50.112,229.033 50.028,229.417 49.932 C 229.700 49.860,229.837 49.708,229.845 49.455 C 229.851 49.251,229.956 49.457,230.079 49.913 C 230.206 50.388,230.451 50.843,230.651 50.975 C 230.946 51.172,231.000 51.377,231.002 52.312 C 231.005 53.761,231.116 54.118,231.599 54.239 C 231.859 54.304,232.000 54.460,232.000 54.681 C 232.000 55.575,233.507 57.155,234.485 57.286 C 235.103 57.369,235.167 57.422,235.167 57.855 C 235.167 58.328,235.177 58.333,236.167 58.333 L 237.167 58.333 237.167 58.833 L 237.167 59.333 238.667 59.333 C 239.856 59.333,240.167 59.383,240.167 59.571 C 240.167 60.207,240.619 60.333,242.892 60.333 L 245.094 60.333 245.282 60.833 C 245.461 61.307,245.521 61.333,246.402 61.333 L 247.333 61.333 247.333 62.417 L 247.333 63.500 244.763 63.500 L 242.193 63.500 242.083 63.000 C 241.978 62.519,241.938 62.500,241.070 62.500 L 240.167 62.500 240.167 61.604 C 240.167 60.277,240.361 60.322,234.896 60.372 L 230.083 60.417 230.083 62.833 L 230.083 65.250 230.542 65.303 C 230.972 65.352,231.000 65.406,231.000 66.166 C 231.000 66.986,231.289 67.500,231.751 67.500 C 231.876 67.500,232.002 67.706,232.031 67.958 C 232.072 68.315,232.182 68.428,232.532 68.468 C 232.878 68.508,232.992 68.622,233.032 68.968 C 233.071 69.312,233.186 69.429,233.523 69.468 C 233.858 69.506,233.985 69.634,234.060 70.009 C 234.156 70.487,234.184 70.500,235.162 70.500 L 236.167 70.500 236.167 71.000 C 236.167 71.499,236.168 71.500,237.156 71.500 C 238.111 71.500,238.146 71.516,238.197 71.958 L 238.250 72.417 244.333 72.463 C 251.061 72.514,251.086 72.513,251.235 71.918 C 251.331 71.535,251.417 71.500,252.257 71.500 C 253.144 71.500,253.178 71.483,253.275 71.000 C 253.358 70.584,253.455 70.500,253.854 70.500 C 254.273 70.500,254.333 70.438,254.333 70.011 C 254.333 69.602,254.408 69.514,254.792 69.469 C 255.149 69.428,255.261 69.318,255.302 68.968 C 255.342 68.622,255.455 68.508,255.802 68.468 C 256.169 68.426,256.259 68.322,256.301 67.892 C 256.335 67.540,256.458 67.340,256.674 67.283 C 257.249 67.133,257.333 66.444,257.333 61.919 L 257.333 57.526 256.841 57.418 C 256.375 57.316,256.347 57.261,256.300 56.364 C 256.253 55.469,256.225 55.414,255.792 55.364 C 255.408 55.320,255.333 55.232,255.333 54.822 C 255.333 54.393,255.274 54.333,254.844 54.333 C 254.435 54.333,254.347 54.259,254.303 53.875 C 254.259 53.495,254.159 53.408,253.716 53.365 C 253.357 53.330,253.148 53.204,253.077 52.980 C 252.938 52.543,252.348 52.333,251.252 52.333 C 250.396 52.333,250.355 52.313,250.250 51.833 L 250.140 51.333 248.190 51.333 L 246.240 51.333 246.051 50.833 L 245.862 50.333 243.942 50.333 L 242.022 50.333 241.969 49.875 C 241.928 49.512,241.819 49.405,241.449 49.363 C 240.736 49.281,240.848 48.291,241.583 48.167 C 241.979 48.099,242.094 47.986,242.136 47.624 C 242.222 46.881,244.075 46.918,244.225 47.667 C 244.323 48.156,244.347 48.167,245.329 48.167 L 246.333 48.167 246.333 49.167 L 246.333 50.167 251.333 50.167 L 256.333 50.167 256.333 47.746 L 256.333 45.325 255.841 45.227 C 255.374 45.133,255.346 45.081,255.299 44.189 C 255.253 43.303,255.224 43.247,254.792 43.197 C 254.408 43.153,254.333 43.065,254.333 42.656 C 254.333 42.223,254.275 42.167,253.833 42.167 C 253.389 42.167,253.333 42.111,253.333 41.667 C 253.333 41.225,253.277 41.167,252.844 41.167 C 252.435 41.167,252.347 41.092,252.303 40.708 C 252.259 40.326,252.160 40.241,251.708 40.198 C 251.325 40.161,251.167 40.061,251.167 39.856 C 251.167 39.315,250.802 39.167,249.467 39.167 C 248.451 39.167,248.167 39.115,248.167 38.929 C 248.167 38.223,247.832 38.167,243.605 38.167 C 239.419 38.167,239.167 38.206,239.167 38.867 C 239.167 39.133,239.000 39.167,237.667 39.167 L 236.167 39.167 236.167 39.667 C 236.167 40.082,236.100 40.167,235.771 40.167 C 234.857 40.167,234.330 40.374,234.230 40.771 C 234.159 41.054,234.013 41.167,233.717 41.167 C 233.413 41.167,233.256 41.296,233.119 41.657 C 233.015 41.934,232.773 42.188,232.563 42.240 C 232.358 42.292,232.157 42.465,232.115 42.625 C 232.070 42.798,232.031 42.725,232.019 42.443 C 232.007 42.140,232.132 41.863,232.367 41.673 C 232.914 41.230,232.825 40.053,232.204 39.542 C 231.757 39.174,231.674 39.168,227.062 39.167 C 221.803 39.167,222.066 39.102,221.897 40.433 C 221.840 40.883,221.707 41.325,221.603 41.417 C 221.095 41.861,220.833 42.535,220.833 43.400 C 220.833 44.151,220.777 44.329,220.514 44.412 C 220.097 44.545,219.833 45.330,219.833 46.442 C 219.833 47.217,219.791 47.333,219.506 47.333 C 219.020 47.333,218.833 47.840,218.833 49.156 C 218.833 50.179,218.794 50.333,218.533 50.333 C 217.982 50.333,217.833 50.692,217.833 52.022 C 217.833 53.304,217.831 53.311,217.375 53.364 C 216.918 53.416,216.916 53.422,216.869 54.865 C 216.821 56.302,216.817 56.313,216.369 56.365 C 216.012 56.406,215.900 56.522,215.836 56.917 C 215.791 57.192,215.716 56.742,215.669 55.917 C 215.584 54.434,215.578 54.416,215.131 54.365 C 214.683 54.313,214.679 54.302,214.631 52.865 C 214.584 51.428,214.580 51.416,214.132 51.365 C 213.686 51.313,213.679 51.294,213.632 49.950 C 213.585 48.648,213.563 48.577,213.125 48.368 C 212.705 48.167,212.666 48.070,212.664 47.199 C 212.661 45.905,212.531 45.514,212.063 45.397 C 211.702 45.306,211.667 45.210,211.667 44.326 C 211.667 43.157,211.442 42.497,211.005 42.383 C 210.737 42.313,210.673 42.125,210.632 41.274 C 210.586 40.306,210.559 40.247,210.144 40.199 C 209.808 40.160,209.681 40.032,209.606 39.657 L 209.508 39.167 205.007 39.167 L 200.506 39.167 200.401 38.749 C 200.338 38.495,200.140 38.291,199.898 38.230 C 199.526 38.137,199.500 38.055,199.500 36.971 C 199.500 35.673,199.311 35.167,198.827 35.167 C 198.580 35.167,198.500 35.053,198.500 34.698 C 198.500 34.395,198.324 34.060,198.000 33.750 C 197.725 33.487,197.500 33.130,197.500 32.958 C 197.500 32.465,197.184 32.000,196.848 32.000 C 196.641 32.000,196.509 31.838,196.442 31.500 C 196.364 31.109,196.253 31.000,195.937 31.000 C 195.638 31.000,195.487 30.870,195.358 30.500 C 195.193 30.025,195.137 30.000,194.259 30.000 C 193.342 30.000,193.333 29.996,193.333 29.500 L 193.333 29.000 192.333 29.000 L 191.333 29.000 191.333 28.500 L 191.333 28.000 189.750 28.000 C 188.481 28.000,188.167 27.952,188.167 27.759 C 188.167 27.043,182.194 26.539,181.533 27.200 M97.292 32.347 C 97.131 32.440,97.000 32.625,97.000 32.758 C 97.000 32.891,96.865 33.000,96.700 33.000 C 95.986 33.000,96.000 32.661,96.000 49.667 C 96.000 66.672,95.986 66.333,96.700 66.333 C 96.966 66.333,97.000 66.497,97.000 67.764 L 97.000 69.196 97.492 69.381 C 97.833 69.510,98.000 69.698,98.034 69.992 C 98.071 70.313,98.192 70.429,98.532 70.468 C 98.878 70.508,98.992 70.622,99.032 70.968 C 99.072 71.318,99.192 71.434,99.581 71.500 C 99.907 71.556,100.101 71.701,100.142 71.918 C 100.249 72.483,100.401 72.495,107.375 72.497 L 114.167 72.500 114.167 68.000 L 114.167 63.500 110.693 63.500 L 107.219 63.500 107.026 62.856 C 106.895 62.418,106.833 60.254,106.833 56.119 C 106.833 49.913,106.806 49.500,106.399 49.500 C 106.271 49.500,106.167 49.425,106.167 49.333 C 106.167 49.227,107.523 49.167,109.903 49.167 C 111.958 49.167,113.758 49.121,113.903 49.066 C 114.134 48.977,114.167 48.415,114.167 44.475 L 114.167 39.985 113.758 39.576 L 113.348 39.167 109.720 39.167 C 106.389 39.167,106.123 39.145,106.463 38.907 C 106.980 38.545,107.042 33.838,106.535 33.468 C 106.371 33.348,106.066 33.006,105.857 32.708 L 105.477 32.167 101.530 32.172 C 99.161 32.175,97.467 32.245,97.292 32.347 M259.067 32.294 C 258.511 32.665,258.500 33.021,258.500 50.743 L 258.500 68.342 258.992 68.440 C 259.460 68.534,259.487 68.586,259.534 69.478 C 259.580 70.358,259.611 70.420,260.032 70.468 C 260.378 70.508,260.492 70.622,260.532 70.968 C 260.580 71.389,260.641 71.420,261.531 71.466 C 262.423 71.513,262.482 71.543,262.531 71.966 L 262.583 72.417 269.125 72.460 L 275.667 72.504 275.667 72.106 C 275.667 71.887,275.783 71.430,275.924 71.091 C 276.259 70.291,276.199 65.407,275.844 64.500 C 275.719 64.179,275.592 63.823,275.563 63.708 C 275.523 63.550,274.670 63.500,272.005 63.500 L 268.500 63.500 268.500 56.333 L 268.500 49.167 272.005 49.167 C 274.669 49.167,275.524 49.117,275.565 48.958 C 275.596 48.844,275.744 48.375,275.894 47.917 C 276.270 46.773,276.297 41.149,275.927 40.842 C 275.796 40.733,275.637 40.405,275.575 40.113 C 275.371 39.160,275.399 39.167,271.813 39.167 L 268.500 39.167 268.500 36.227 C 268.500 33.026,268.476 32.945,267.339 32.336 C 266.975 32.141,259.354 32.103,259.067 32.294 M125.469 38.625 C 125.417 39.080,125.406 39.084,123.917 39.167 C 122.428 39.249,122.416 39.253,122.364 39.708 C 122.314 40.146,122.270 40.167,121.401 40.167 C 120.524 40.167,120.488 40.184,120.392 40.667 C 120.308 41.083,120.212 41.167,119.813 41.167 C 119.391 41.167,119.333 41.227,119.333 41.667 C 119.333 42.111,119.278 42.167,118.833 42.167 C 118.389 42.167,118.333 42.222,118.333 42.667 C 118.333 43.111,118.278 43.167,117.833 43.167 C 117.389 43.167,117.333 43.222,117.333 43.667 C 117.333 43.989,117.249 44.167,117.095 44.167 C 116.620 44.167,116.333 44.674,116.333 45.512 C 116.333 46.217,116.287 46.333,116.006 46.333 C 115.485 46.333,115.333 46.860,115.333 48.671 C 115.333 50.188,115.301 50.373,115.020 50.446 C 114.412 50.606,114.333 51.197,114.333 55.637 L 114.333 59.926 114.827 60.467 C 115.295 60.978,115.324 61.095,115.369 62.629 L 115.417 64.250 115.867 64.302 C 116.297 64.352,116.320 64.403,116.367 65.385 C 116.415 66.372,116.436 66.419,116.875 66.469 C 117.287 66.517,117.333 66.588,117.333 67.164 C 117.333 68.061,117.473 68.333,117.934 68.333 C 118.252 68.333,118.333 68.421,118.333 68.764 C 118.333 69.090,118.455 69.242,118.833 69.384 C 119.108 69.488,119.333 69.658,119.333 69.761 C 119.333 70.144,119.952 70.500,120.617 70.500 C 121.233 70.500,121.300 70.543,121.392 71.000 C 121.488 71.480,121.527 71.500,122.376 71.500 C 123.205 71.500,123.272 71.531,123.449 72.000 L 123.638 72.500 129.381 72.500 C 135.743 72.500,136.035 72.475,136.342 71.900 C 136.512 71.583,136.691 71.500,137.206 71.500 C 138.014 71.500,138.500 71.252,138.500 70.838 C 138.500 70.602,138.639 70.508,139.042 70.469 C 139.490 70.426,139.592 70.339,139.635 69.968 C 139.675 69.622,139.789 69.508,140.135 69.468 C 140.482 69.428,140.595 69.315,140.635 68.968 C 140.675 68.622,140.789 68.508,141.135 68.468 C 141.484 68.428,141.595 68.315,141.636 67.958 C 141.673 67.638,141.784 67.500,142.005 67.500 C 142.435 67.500,142.667 67.007,142.667 66.094 C 142.667 65.360,142.684 65.333,143.167 65.333 L 143.667 65.333 143.667 64.333 C 143.667 63.607,143.728 63.333,143.891 63.333 C 144.661 63.333,145.054 60.886,144.344 60.506 C 144.145 60.399,142.284 60.333,139.453 60.333 C 134.552 60.333,133.833 60.441,133.833 61.179 C 133.833 61.355,133.758 61.500,133.667 61.500 C 133.575 61.500,133.500 61.725,133.500 62.000 C 133.500 62.442,133.443 62.500,133.013 62.500 C 132.694 62.500,132.353 62.673,132.026 63.000 L 131.526 63.500 129.429 63.500 L 127.333 63.500 127.333 63.000 C 127.333 62.556,127.278 62.500,126.833 62.500 C 126.463 62.500,126.333 62.422,126.333 62.200 C 126.333 61.816,126.017 61.500,125.633 61.500 C 125.378 61.500,125.333 61.352,125.333 60.514 C 125.333 59.881,125.259 59.498,125.125 59.444 C 125.010 59.397,129.361 59.354,134.794 59.346 L 144.671 59.333 144.627 53.961 L 144.583 48.588 144.125 48.368 C 143.691 48.160,143.667 48.088,143.667 47.005 C 143.667 45.594,143.573 45.333,143.066 45.333 C 142.732 45.333,142.667 45.250,142.667 44.825 C 142.667 44.485,142.515 44.177,142.208 43.893 C 141.956 43.660,141.673 43.195,141.579 42.859 C 141.459 42.432,141.300 42.235,141.050 42.198 C 140.829 42.167,140.627 41.960,140.522 41.657 C 140.377 41.242,140.262 41.167,139.773 41.167 C 139.337 41.167,139.094 41.045,138.776 40.667 C 138.515 40.357,138.197 40.167,137.938 40.167 C 137.608 40.167,137.511 40.072,137.469 39.708 C 137.417 39.252,137.411 39.250,135.968 39.202 C 134.639 39.158,134.509 39.123,134.403 38.785 C 134.217 38.187,134.101 38.172,129.719 38.169 L 125.522 38.167 125.469 38.625 M287.976 38.664 L 287.801 39.167 286.317 39.167 L 284.833 39.167 284.833 39.658 C 284.833 40.140,284.814 40.151,283.875 40.200 C 282.968 40.247,282.914 40.274,282.864 40.708 C 282.820 41.092,282.732 41.167,282.322 41.167 C 281.890 41.167,281.833 41.225,281.833 41.667 C 281.833 42.111,281.778 42.167,281.333 42.167 C 280.889 42.167,280.833 42.222,280.833 42.667 C 280.833 43.111,280.778 43.167,280.333 43.167 C 279.856 43.167,279.833 43.199,279.833 43.880 C 279.833 44.596,279.586 44.970,278.951 45.214 C 278.730 45.298,278.667 45.530,278.667 46.245 C 278.667 46.933,278.606 47.167,278.429 47.167 C 277.671 47.167,277.666 47.221,277.683 55.470 C 277.701 63.719,277.720 63.991,278.297 64.248 C 278.595 64.381,278.667 64.550,278.667 65.123 C 278.667 65.866,279.089 66.500,279.583 66.500 C 279.752 66.500,279.833 66.668,279.833 67.016 C 279.833 67.363,279.985 67.678,280.294 67.975 C 280.548 68.218,280.841 68.612,280.947 68.851 C 281.076 69.145,281.315 69.321,281.683 69.395 C 282.289 69.516,282.833 69.933,282.833 70.276 C 282.833 70.413,283.024 70.500,283.322 70.500 C 283.732 70.500,283.820 70.574,283.864 70.958 C 283.914 71.392,283.968 71.419,284.875 71.467 C 285.658 71.507,285.833 71.570,285.833 71.808 C 285.833 72.482,286.002 72.500,292.355 72.500 C 298.816 72.500,299.000 72.479,299.000 71.738 C 299.000 71.560,299.234 71.500,299.921 71.500 C 300.811 71.500,300.845 71.483,300.942 71.000 C 301.025 70.584,301.122 70.500,301.521 70.500 C 301.942 70.500,302.000 70.440,302.000 70.000 C 302.000 69.556,302.056 69.500,302.500 69.500 C 302.944 69.500,303.000 69.444,303.000 69.000 C 303.000 68.556,303.056 68.500,303.500 68.500 C 303.942 68.500,304.000 68.443,304.000 68.011 C 304.000 67.602,304.074 67.514,304.458 67.469 C 304.840 67.425,304.925 67.326,304.969 66.875 C 305.007 66.482,305.104 66.333,305.323 66.333 C 305.836 66.333,306.048 65.872,306.131 64.577 C 306.205 63.420,306.237 63.333,306.587 63.333 C 307.065 63.333,307.167 63.058,307.167 61.770 C 307.167 60.257,307.449 60.333,301.883 60.333 L 297.000 60.333 297.000 60.917 C 297.000 61.454,296.960 61.500,296.500 61.500 C 296.056 61.500,296.000 61.556,296.000 62.000 C 296.000 62.444,295.944 62.500,295.500 62.500 C 295.056 62.500,295.000 62.556,295.000 63.000 L 295.000 63.500 292.417 63.500 L 289.833 63.500 289.833 63.000 C 289.833 62.558,289.777 62.500,289.344 62.500 C 288.935 62.500,288.847 62.426,288.803 62.042 C 288.761 61.682,288.652 61.572,288.292 61.531 C 287.845 61.479,287.833 61.451,287.833 60.407 L 287.833 59.336 297.458 59.293 L 307.083 59.250 307.127 53.943 C 307.174 48.295,307.082 47.333,306.494 47.333 C 306.210 47.333,306.167 47.216,306.167 46.450 C 306.167 45.486,305.972 45.167,305.383 45.167 C 305.037 45.167,305.000 45.090,305.000 44.367 C 305.000 43.521,304.793 43.167,304.300 43.167 C 304.078 43.167,304.000 43.037,304.000 42.667 C 304.000 42.222,303.944 42.167,303.500 42.167 C 303.056 42.167,303.000 42.111,303.000 41.667 C 303.000 41.222,302.944 41.167,302.500 41.167 C 302.178 41.167,302.000 41.082,302.000 40.929 C 302.000 40.476,301.492 40.167,300.749 40.167 C 300.080 40.167,300.018 40.130,299.969 39.708 C 299.917 39.254,299.905 39.249,298.424 39.167 C 296.998 39.087,296.926 39.065,296.833 38.667 L 296.735 38.250 292.443 38.206 L 288.151 38.161 287.976 38.664 M369.429 38.429 C 369.285 38.573,369.167 38.798,369.167 38.929 C 369.167 39.115,368.882 39.167,367.867 39.167 C 366.532 39.167,366.167 39.315,366.167 39.856 C 366.167 40.061,366.008 40.161,365.625 40.198 C 365.174 40.241,365.075 40.326,365.031 40.708 C 364.986 41.092,364.898 41.167,364.489 41.167 C 364.203 41.167,364.000 41.255,364.000 41.380 C 364.000 41.619,363.418 42.167,363.165 42.167 C 363.074 42.167,363.000 42.392,363.000 42.667 C 363.000 43.111,362.944 43.167,362.500 43.167 C 362.060 43.167,362.000 43.224,362.000 43.649 C 362.000 44.017,361.907 44.154,361.603 44.230 C 361.037 44.372,361.005 44.631,361.002 49.125 L 361.000 53.167 361.492 53.167 C 361.979 53.167,361.985 53.177,362.034 54.208 C 362.081 55.201,362.105 55.252,362.532 55.302 C 362.878 55.342,362.992 55.455,363.032 55.802 C 363.072 56.148,363.185 56.262,363.532 56.302 C 363.878 56.342,363.992 56.455,364.032 56.802 C 364.071 57.146,364.186 57.262,364.523 57.301 C 364.858 57.340,364.985 57.468,365.060 57.843 C 365.154 58.313,365.195 58.333,366.058 58.333 C 366.925 58.333,366.962 58.352,367.058 58.833 L 367.158 59.333 368.651 59.333 C 370.012 59.333,370.154 59.364,370.253 59.676 C 370.419 60.200,371.010 60.333,373.161 60.333 L 375.134 60.333 375.308 60.833 C 375.470 61.298,375.541 61.333,376.304 61.333 C 377.083 61.333,377.130 61.359,377.225 61.833 C 377.306 62.238,377.413 62.337,377.787 62.353 L 378.250 62.373 377.750 62.479 C 377.361 62.561,377.238 62.687,377.197 63.042 L 377.145 63.500 374.572 63.500 L 372.000 63.500 372.000 63.000 C 372.000 62.558,371.943 62.500,371.511 62.500 C 371.102 62.500,371.014 62.426,370.969 62.042 C 370.928 61.682,370.818 61.572,370.458 61.531 C 370.057 61.484,370.000 61.406,370.000 60.903 L 370.000 60.328 365.042 60.373 L 360.083 60.417 360.083 62.333 L 360.083 64.250 360.542 64.303 C 360.988 64.354,361.000 64.383,361.000 65.413 C 361.000 66.383,361.041 66.505,361.500 66.891 C 361.850 67.186,362.000 67.461,362.000 67.809 C 362.000 68.227,362.081 68.325,362.500 68.417 C 362.880 68.500,363.000 68.619,363.000 68.912 C 363.000 69.306,363.279 69.500,363.847 69.500 C 364.073 69.500,364.167 69.617,364.167 69.899 C 364.167 70.359,364.439 70.500,365.326 70.500 C 365.895 70.500,365.968 70.550,366.058 71.000 C 366.156 71.488,366.181 71.500,367.151 71.500 C 368.111 71.500,368.146 71.516,368.197 71.958 L 368.250 72.417 374.667 72.417 L 381.083 72.417 381.136 71.958 C 381.187 71.516,381.223 71.500,382.178 71.500 C 383.165 71.500,383.167 71.499,383.167 71.000 C 383.167 70.558,383.223 70.500,383.656 70.500 C 384.401 70.500,384.989 70.216,385.157 69.776 C 385.240 69.557,385.463 69.338,385.652 69.289 C 386.022 69.192,386.333 68.561,386.333 67.906 C 386.333 67.626,386.427 67.500,386.633 67.500 C 387.160 67.500,387.333 67.135,387.340 66.008 C 387.347 65.006,387.388 64.883,387.840 64.508 C 388.689 63.804,388.476 59.500,387.592 59.500 C 387.391 59.500,387.333 59.304,387.331 58.625 C 387.328 57.106,387.168 56.507,386.737 56.399 C 386.476 56.333,386.336 56.160,386.301 55.859 C 386.262 55.519,386.147 55.405,385.802 55.365 C 385.455 55.325,385.342 55.211,385.302 54.865 C 385.262 54.518,385.148 54.405,384.802 54.365 C 384.455 54.325,384.342 54.211,384.302 53.865 C 384.259 53.496,384.156 53.408,383.718 53.365 C 383.281 53.323,383.178 53.234,383.135 52.865 C 383.086 52.438,383.033 52.414,382.050 52.367 C 381.228 52.328,380.998 52.257,380.922 52.018 C 380.758 51.500,380.064 51.333,378.071 51.333 L 376.158 51.333 376.058 50.833 L 375.958 50.333 373.979 50.333 L 372.000 50.333 372.000 49.833 C 372.000 49.389,371.944 49.333,371.500 49.333 C 371.040 49.333,371.000 49.287,371.000 48.750 C 371.000 48.247,371.055 48.167,371.396 48.167 C 372.309 48.167,372.837 47.960,372.937 47.562 C 373.065 47.050,374.167 46.965,374.167 47.467 C 374.167 47.957,374.520 48.167,375.347 48.167 L 376.128 48.167 376.241 49.066 C 376.385 50.222,376.073 50.162,381.917 50.162 C 387.496 50.162,387.251 50.227,387.207 48.750 C 387.170 47.494,387.107 47.333,386.657 47.333 C 386.368 47.333,386.333 47.211,386.333 46.178 C 386.333 44.777,386.132 44.167,385.671 44.167 C 385.419 44.167,385.333 44.057,385.333 43.734 C 385.333 43.205,384.842 42.333,384.543 42.333 C 384.423 42.333,384.279 42.104,384.223 41.825 C 384.144 41.427,384.013 41.294,383.622 41.216 C 383.340 41.160,383.088 40.987,383.044 40.819 C 382.961 40.500,382.201 40.167,381.558 40.167 C 381.234 40.167,381.167 40.080,381.167 39.667 L 381.167 39.167 379.688 39.167 L 378.208 39.167 378.108 38.667 L 378.008 38.167 373.849 38.167 C 370.291 38.167,369.653 38.204,369.429 38.429 M392.500 38.662 L 392.500 39.167 391.500 39.167 C 390.505 39.167,390.500 39.169,390.500 39.655 C 390.500 40.033,390.416 40.156,390.129 40.197 C 389.661 40.264,389.340 40.890,389.333 41.750 C 389.329 42.239,389.217 42.521,388.914 42.809 C 388.317 43.375,388.319 44.711,388.917 45.265 C 389.205 45.532,389.333 45.827,389.333 46.221 C 389.333 47.364,389.524 47.871,390.026 48.061 C 390.347 48.182,390.500 48.357,390.500 48.602 C 390.500 49.038,390.788 49.167,391.764 49.167 C 392.472 49.167,392.500 49.186,392.500 49.671 L 392.500 50.176 394.958 50.129 L 397.417 50.083 397.469 49.625 C 397.518 49.203,397.580 49.167,398.247 49.167 C 399.229 49.167,399.500 49.037,399.500 48.566 C 399.500 48.322,399.597 48.167,399.750 48.167 C 399.965 48.167,400.000 47.611,400.000 44.167 C 400.000 40.722,399.965 40.167,399.750 40.167 C 399.583 40.167,399.500 40.000,399.500 39.667 C 399.500 39.167,399.499 39.167,398.511 39.167 C 397.556 39.167,397.520 39.151,397.469 38.708 L 397.417 38.250 394.958 38.204 L 392.500 38.158 392.500 38.662 M64.616 39.667 C 64.512 39.942,64.308 40.167,64.163 40.167 C 63.492 40.167,63.500 39.981,63.503 56.242 C 63.504 65.818,63.567 72.014,63.663 72.167 C 63.858 72.476,73.595 72.639,74.150 72.342 C 74.460 72.176,74.472 71.831,74.527 61.703 L 74.583 51.236 75.184 50.618 C 75.514 50.278,75.871 50.000,75.979 50.000 C 76.086 50.000,76.259 49.813,76.364 49.583 L 76.554 49.167 79.193 49.167 L 81.833 49.167 81.833 49.667 C 81.833 50.111,81.889 50.167,82.333 50.167 C 82.778 50.167,82.833 50.222,82.833 50.667 C 82.833 51.111,82.889 51.167,83.333 51.167 L 83.833 51.167 83.833 61.833 L 83.833 72.500 88.834 72.500 L 93.836 72.500 93.793 60.375 L 93.750 48.250 93.298 48.198 C 92.853 48.147,92.846 48.127,92.798 46.788 C 92.752 45.494,92.730 45.426,92.333 45.334 C 92.012 45.259,91.905 45.115,91.864 44.702 C 91.819 44.233,91.752 44.167,91.323 44.167 C 90.914 44.167,90.833 44.099,90.833 43.758 C 90.833 42.814,90.186 42.167,89.242 42.167 C 88.899 42.167,88.833 42.086,88.833 41.667 C 88.833 41.225,88.777 41.167,88.344 41.167 C 87.935 41.167,87.847 41.092,87.803 40.708 C 87.753 40.275,87.698 40.247,86.803 40.200 C 85.905 40.153,85.851 40.125,85.748 39.659 L 85.640 39.167 80.758 39.167 L 75.875 39.167 75.779 39.647 C 75.653 40.274,73.667 40.541,73.667 39.931 C 73.667 39.236,73.234 39.167,68.931 39.167 L 64.804 39.167 64.616 39.667 M148.033 39.367 C 147.923 39.477,147.833 39.660,147.833 39.774 C 147.833 39.888,147.627 40.081,147.375 40.201 L 146.917 40.421 146.877 56.169 C 146.853 65.914,146.898 72.012,146.996 72.167 C 147.215 72.513,157.189 72.544,157.533 72.200 C 157.705 72.028,157.759 69.847,157.795 61.586 L 157.841 51.188 158.295 51.136 C 158.649 51.095,158.762 50.983,158.802 50.635 C 158.842 50.289,158.955 50.175,159.302 50.135 C 159.650 50.095,159.762 49.982,159.802 49.628 L 159.855 49.173 163.386 49.128 L 166.917 49.083 166.961 44.122 L 167.005 39.160 163.544 39.205 L 160.083 39.250 160.031 39.708 C 159.980 40.151,159.944 40.167,158.989 40.167 C 158.001 40.167,158.000 40.167,158.000 40.667 C 158.000 41.247,157.715 41.345,157.637 40.792 C 157.607 40.585,157.415 40.343,157.208 40.252 C 157.002 40.162,156.833 39.970,156.833 39.827 C 156.833 39.210,156.535 39.167,152.333 39.167 C 149.367 39.167,148.178 39.222,148.033 39.367 M310.574 39.403 C 310.258 39.634,310.249 40.025,310.205 56.070 L 310.160 72.500 315.074 72.500 C 319.762 72.500,319.996 72.485,320.161 72.178 C 320.274 71.965,320.333 68.323,320.333 61.511 C 320.333 51.661,320.348 51.167,320.633 51.167 C 321.004 51.167,321.333 50.854,321.333 50.503 C 321.333 50.358,321.558 50.155,321.833 50.051 C 322.169 49.924,322.333 49.748,322.333 49.514 C 322.333 49.177,322.409 49.167,324.917 49.167 L 327.500 49.167 327.500 49.667 C 327.500 50.111,327.556 50.167,328.000 50.167 C 328.442 50.167,328.500 50.223,328.500 50.656 C 328.500 51.380,328.793 52.021,329.169 52.119 C 329.495 52.204,329.500 52.366,329.500 62.355 L 329.500 72.505 334.542 72.461 L 339.583 72.417 339.626 61.803 L 339.669 51.189 340.126 51.136 C 340.485 51.095,340.595 50.985,340.636 50.625 C 340.678 50.264,340.775 50.167,341.099 50.167 C 341.421 50.167,341.530 50.060,341.608 49.667 L 341.708 49.167 344.260 49.167 L 346.811 49.167 346.864 49.625 C 346.905 49.985,347.015 50.095,347.375 50.136 C 347.759 50.180,347.833 50.268,347.833 50.678 C 347.833 51.110,347.892 51.167,348.332 51.167 L 348.831 51.167 348.874 61.792 L 348.917 72.417 353.875 72.461 L 358.833 72.505 358.833 60.350 L 358.833 48.195 358.333 47.723 C 357.899 47.313,357.833 47.134,357.833 46.361 C 357.833 45.525,357.803 45.460,357.333 45.282 C 356.976 45.147,356.833 44.983,356.833 44.708 C 356.833 44.496,356.600 44.094,356.316 43.816 C 356.031 43.538,355.746 43.109,355.681 42.864 C 355.581 42.482,355.438 42.394,354.707 42.263 C 353.958 42.128,353.844 42.054,353.800 41.679 C 353.762 41.355,353.642 41.237,353.311 41.199 C 352.975 41.160,352.848 41.032,352.773 40.657 C 352.678 40.179,352.649 40.167,351.671 40.167 C 350.800 40.167,350.667 40.125,350.667 39.854 C 350.667 39.185,350.433 39.161,344.480 39.206 L 338.750 39.250 338.697 39.708 C 338.646 40.151,338.611 40.167,337.656 40.167 C 336.668 40.167,336.667 40.167,336.667 40.667 C 336.667 41.140,336.631 41.167,335.989 41.167 C 335.125 41.167,334.668 41.413,334.662 41.881 C 334.657 42.240,334.652 42.241,334.474 41.917 C 334.177 41.373,333.808 41.167,333.135 41.167 C 332.541 41.167,332.500 41.135,332.500 40.667 C 332.500 40.206,332.454 40.167,331.917 40.167 C 331.448 40.167,331.333 40.102,331.333 39.839 C 331.333 39.231,330.836 39.167,326.115 39.167 L 321.542 39.167 321.446 39.647 C 321.291 40.418,320.317 40.455,319.517 39.720 L 318.917 39.168 314.907 39.167 C 311.706 39.167,310.832 39.214,310.574 39.403 M392.457 45.208 C 392.424 45.781,392.398 45.313,392.398 44.167 C 392.398 43.021,392.424 42.552,392.457 43.125 C 392.489 43.698,392.489 44.635,392.457 45.208 M130.643 47.583 C 130.730 48.050,130.966 48.161,131.875 48.164 C 132.558 48.166,132.667 48.213,132.667 48.504 C 132.667 48.701,132.839 48.919,133.083 49.030 C 133.313 49.135,133.500 49.349,133.500 49.506 C 133.500 49.837,133.775 50.096,134.250 50.213 C 134.433 50.258,132.502 50.303,129.958 50.314 L 125.333 50.333 125.333 49.750 C 125.333 49.213,125.373 49.167,125.833 49.167 C 126.278 49.167,126.333 49.111,126.333 48.667 C 126.333 48.168,126.336 48.167,127.306 48.167 C 128.167 48.167,128.333 48.110,128.764 47.666 C 129.364 47.048,130.533 46.996,130.643 47.583 M230.469 47.280 C 230.314 47.320,230.154 47.480,230.113 47.635 C 230.060 47.835,230.033 47.807,230.019 47.542 C 230.004 47.253,230.086 47.171,230.375 47.186 C 230.641 47.200,230.668 47.227,230.469 47.280 M293.094 47.568 C 293.214 48.046,293.574 48.161,294.958 48.164 L 296.000 48.167 296.000 48.801 C 296.000 49.475,296.207 49.844,296.750 50.141 C 296.998 50.277,295.901 50.324,292.458 50.328 L 287.833 50.333 287.833 49.750 C 287.833 49.213,287.873 49.167,288.333 49.167 C 288.778 49.167,288.833 49.111,288.833 48.667 C 288.833 48.167,288.835 48.167,289.822 48.167 C 291.018 48.167,291.602 47.967,291.747 47.510 C 291.916 46.978,292.958 47.023,293.094 47.568 " stroke="none" fill="#8699b8" fill-rule="evenodd"></path><path id="path1" d="M10.833 5.570 C 10.833 8.633,10.790 11.251,10.738 11.388 C 10.678 11.545,10.770 11.677,10.990 11.747 C 11.325 11.853,11.481 12.103,12.544 14.245 C 13.134 15.435,13.389 15.654,14.195 15.661 C 14.729 15.666,14.820 15.727,14.910 16.137 C 15.006 16.572,15.078 16.611,15.872 16.647 C 16.842 16.691,17.057 16.777,16.943 17.074 C 16.900 17.187,16.939 17.386,17.031 17.515 C 17.158 17.694,17.174 17.671,17.099 17.417 C 17.013 17.129,17.028 17.119,17.208 17.338 C 17.323 17.478,17.717 17.617,18.083 17.646 C 18.890 17.710,19.050 17.796,18.933 18.100 C 18.883 18.231,18.945 18.333,19.075 18.333 C 19.202 18.333,19.333 18.414,19.366 18.513 C 19.399 18.612,19.724 18.732,20.088 18.779 C 20.488 18.831,20.936 19.040,21.219 19.307 C 21.477 19.551,21.834 19.759,22.011 19.771 C 23.008 19.835,22.921 16.753,22.873 50.246 L 22.830 80.659 23.264 80.768 C 23.566 80.844,23.787 81.086,23.993 81.566 C 24.155 81.945,24.411 82.357,24.561 82.481 C 24.711 82.606,24.833 82.923,24.833 83.187 C 24.833 83.624,24.885 83.667,25.417 83.667 C 25.964 83.667,26.054 83.763,25.986 84.273 C 25.958 84.479,26.344 84.605,27.122 84.645 C 27.983 84.690,28.010 84.701,28.059 85.026 C 28.128 85.484,28.334 85.604,29.115 85.644 C 29.806 85.679,30.161 85.847,29.971 86.049 C 29.764 86.270,30.579 86.667,31.238 86.667 C 31.657 86.667,32.009 86.742,32.021 86.833 C 32.032 86.925,32.051 87.078,32.063 87.173 C 32.100 87.483,32.569 87.662,33.352 87.664 C 34.045 87.666,34.119 87.704,34.097 88.042 C 34.063 88.583,34.266 88.661,35.708 88.664 L 37.000 88.667 37.000 49.905 C 37.000 19.111,36.957 11.102,36.792 10.946 C 36.677 10.838,36.248 10.727,35.839 10.700 C 34.985 10.643,34.990 10.646,34.958 10.213 C 34.944 10.035,34.855 9.883,34.758 9.876 C 33.320 9.766,32.960 9.619,32.936 9.131 C 32.919 8.795,32.819 8.745,32.083 8.704 C 31.057 8.646,30.810 8.564,30.845 8.294 C 30.910 7.799,30.791 7.718,29.958 7.691 C 29.125 7.663,28.547 7.328,28.754 6.993 C 28.873 6.801,28.383 6.667,27.570 6.667 C 26.863 6.667,26.776 6.593,26.848 6.060 C 26.878 5.831,26.380 5.672,25.625 5.669 C 25.190 5.668,24.824 5.592,24.813 5.500 C 24.801 5.408,24.782 5.265,24.771 5.181 C 24.719 4.799,24.518 4.720,23.521 4.688 C 22.946 4.669,22.864 4.613,22.777 4.175 C 22.683 3.707,22.633 3.681,21.714 3.633 C 20.943 3.593,20.750 3.527,20.748 3.303 C 20.745 2.873,20.551 2.765,19.615 2.670 C 18.945 2.603,18.750 2.519,18.748 2.298 C 18.745 1.844,18.475 1.690,17.583 1.635 C 16.849 1.589,16.748 1.538,16.731 1.203 C 16.701 0.620,16.604 0.576,15.208 0.521 C 14.847 0.507,14.667 0.417,14.667 0.250 C 14.667 0.042,14.343 0.000,12.750 0.000 L 10.833 0.000 10.833 5.570 " stroke="none" fill="#8699b8" fill-rule="evenodd"></path></g></svg>