<svg id="svg" version="1.1" xmlns="http://www.w3.org/2000/svg" xmlns:xlink="http://www.w3.org/1999/xlink" width="400" height="228.7248322147651" viewBox="0, 0, 400,228.7248322147651"><g id="svgg"><path id="path0" d="M293.516 32.647 C 293.142 33.021,293.348 138.166,293.723 138.542 C 294.194 139.012,309.786 139.093,310.252 138.627 C 310.462 138.417,310.526 132.851,310.526 114.967 C 310.526 94.392,310.568 91.566,310.870 91.450 C 311.126 91.352,311.213 90.943,311.213 89.838 C 311.213 89.023,311.316 88.293,311.442 88.215 C 311.568 88.137,311.670 87.513,311.670 86.829 C 311.670 86.144,311.773 85.584,311.899 85.584 C 312.025 85.584,312.128 85.234,312.128 84.807 C 312.128 84.328,312.260 83.980,312.471 83.899 C 312.672 83.822,312.815 83.479,312.815 83.074 C 312.815 82.692,312.918 82.380,313.043 82.380 C 313.169 82.380,313.272 82.180,313.272 81.936 C 313.272 81.691,313.375 81.428,313.501 81.350 C 313.627 81.272,313.730 81.009,313.730 80.765 C 313.730 80.520,313.884 80.320,314.073 80.320 C 314.262 80.320,314.416 80.166,314.416 79.977 C 314.416 79.788,314.519 79.634,314.645 79.634 C 314.771 79.634,314.874 79.474,314.874 79.278 C 314.874 78.851,317.797 75.973,318.231 75.973 C 318.399 75.973,318.535 75.870,318.535 75.744 C 318.535 75.618,318.683 75.515,318.862 75.515 C 319.042 75.515,319.329 75.386,319.501 75.229 C 320.032 74.740,320.797 74.371,321.278 74.371 C 321.532 74.371,321.739 74.268,321.739 74.142 C 321.739 74.016,322.103 73.913,322.547 73.913 C 323.054 73.913,323.404 73.785,323.487 73.570 C 323.591 73.299,324.067 73.227,325.755 73.227 C 326.932 73.227,327.954 73.124,328.032 72.998 C 328.110 72.872,328.831 72.769,329.634 72.769 C 330.437 72.769,331.158 72.872,331.236 72.998 C 331.315 73.125,332.382 73.227,333.652 73.227 C 335.521 73.227,335.927 73.288,335.927 73.570 C 335.927 73.797,336.154 73.913,336.600 73.913 C 336.970 73.913,337.336 74.016,337.414 74.142 C 337.492 74.268,337.886 74.371,338.289 74.371 C 338.804 74.371,339.150 74.541,339.451 74.943 C 339.688 75.257,340.050 75.515,340.256 75.515 C 340.462 75.515,340.780 75.721,340.961 75.973 C 341.143 76.224,341.423 76.430,341.584 76.430 C 341.745 76.430,341.876 76.537,341.876 76.667 C 341.876 76.797,342.237 77.264,342.677 77.704 C 343.118 78.145,343.478 78.656,343.478 78.841 C 343.478 79.025,343.555 79.177,343.650 79.178 C 343.877 79.180,344.394 80.307,344.394 80.799 C 344.394 81.012,344.548 81.246,344.737 81.318 C 344.937 81.395,345.080 81.738,345.080 82.144 C 345.080 82.525,345.183 82.838,345.309 82.838 C 345.438 82.838,345.538 83.481,345.538 84.311 C 345.538 85.122,345.641 85.849,345.767 85.927 C 345.899 86.009,345.995 87.266,345.995 88.922 C 345.995 91.248,346.059 91.801,346.339 91.908 C 346.641 92.024,346.682 94.854,346.682 115.471 L 346.682 138.902 354.558 138.902 C 358.890 138.902,362.597 138.839,362.796 138.763 C 363.232 138.595,363.365 86.728,362.929 86.728 C 362.789 86.728,362.700 85.622,362.700 83.867 C 362.700 82.113,362.612 81.007,362.471 81.007 C 362.346 81.007,362.243 80.602,362.243 80.108 C 362.243 79.613,362.088 79.054,361.899 78.866 C 361.696 78.662,361.556 78.103,361.556 77.490 C 361.556 76.922,361.453 76.394,361.327 76.316 C 361.201 76.238,361.098 75.923,361.098 75.616 C 361.098 75.309,360.995 75.057,360.870 75.057 C 360.744 75.057,360.641 74.807,360.641 74.501 C 360.641 74.196,360.486 73.791,360.297 73.602 C 360.109 73.414,359.954 73.046,359.954 72.785 C 359.954 72.525,359.851 72.311,359.725 72.311 C 359.600 72.311,359.497 72.054,359.497 71.739 C 359.497 71.424,359.405 71.167,359.293 71.167 C 359.180 71.167,359.024 70.910,358.945 70.595 C 358.866 70.280,358.700 70.023,358.577 70.023 C 358.453 70.023,358.352 69.854,358.352 69.649 C 358.352 69.443,358.095 69.036,357.780 68.744 C 357.466 68.453,357.208 68.055,357.208 67.860 C 357.208 67.665,357.105 67.506,356.979 67.506 C 356.854 67.506,356.751 67.395,356.751 67.261 C 356.751 66.994,356.187 66.362,355.950 66.362 C 355.759 66.362,355.149 65.752,355.149 65.561 C 355.149 65.370,354.539 64.760,354.348 64.760 C 354.149 64.760,353.547 64.146,353.547 63.943 C 353.547 63.706,352.796 63.174,352.450 63.165 C 352.287 63.161,351.876 62.900,351.537 62.586 C 351.198 62.271,350.790 62.014,350.632 62.014 C 350.473 62.014,350.343 61.911,350.343 61.785 C 350.343 61.659,350.086 61.556,349.771 61.556 C 349.457 61.556,349.199 61.455,349.199 61.332 C 349.199 61.208,348.942 61.043,348.627 60.964 C 348.312 60.885,348.055 60.728,348.055 60.616 C 348.055 60.504,347.855 60.412,347.611 60.412 C 347.366 60.412,347.103 60.309,347.025 60.183 C 346.947 60.057,346.471 59.954,345.966 59.954 C 345.455 59.954,344.895 59.802,344.704 59.611 C 344.515 59.422,344.065 59.268,343.704 59.268 C 343.343 59.268,342.984 59.165,342.906 59.039 C 342.828 58.913,342.211 58.810,341.533 58.810 C 340.856 58.810,340.238 58.707,340.160 58.581 C 339.979 58.288,329.062 58.268,329.062 58.560 C 329.062 58.674,328.521 58.816,327.860 58.875 C 326.314 59.013,324.859 59.406,324.756 59.713 C 324.712 59.846,324.323 59.954,323.891 59.954 C 323.459 59.954,322.927 60.046,322.709 60.157 C 321.301 60.877,319.746 61.556,319.505 61.556 C 319.349 61.556,319.222 61.659,319.222 61.785 C 319.222 61.911,319.013 62.014,318.757 62.014 C 318.501 62.014,318.233 62.168,318.161 62.357 C 318.088 62.546,317.834 62.700,317.596 62.700 C 317.357 62.700,317.162 62.803,317.162 62.929 C 317.162 63.055,317.052 63.158,316.917 63.158 C 316.600 63.158,316.018 63.740,316.018 64.057 C 316.018 64.192,315.825 64.302,315.588 64.302 C 314.981 64.302,311.213 68.028,311.213 68.629 C 311.213 68.902,311.065 69.108,310.870 69.108 C 310.567 69.108,310.526 66.921,310.526 50.801 L 310.526 32.494 302.098 32.494 C 297.462 32.494,293.600 32.563,293.516 32.647 M256.110 33.227 C 255.902 33.434,255.835 36.796,255.835 46.957 L 255.835 60.412 250.024 60.412 C 244.937 60.412,244.196 60.457,244.075 60.774 C 243.794 61.507,243.920 75.407,244.211 75.698 C 244.409 75.897,246.051 75.973,250.159 75.973 L 255.834 75.973 255.892 107.380 L 255.950 138.787 264.058 138.847 C 270.392 138.894,272.206 138.844,272.350 138.619 C 272.450 138.460,272.535 124.299,272.537 107.151 L 272.540 75.973 279.291 75.973 C 285.736 75.973,286.062 75.952,286.499 75.515 C 287.136 74.878,287.214 61.934,286.587 60.976 L 286.217 60.412 279.379 60.412 L 272.540 60.412 272.540 46.821 C 272.540 34.639,272.503 33.215,272.178 33.091 C 271.443 32.809,256.401 32.936,256.110 33.227 M358.865 52.400 C 358.012 53.766,358.636 54.419,360.880 54.508 L 362.586 54.577 362.700 59.611 L 362.815 64.645 363.937 64.716 C 365.460 64.813,365.439 64.891,365.443 59.325 L 365.446 54.462 367.277 54.462 L 369.108 54.462 369.108 59.336 C 369.108 64.782,369.101 64.760,370.646 64.760 C 371.830 64.760,372.089 64.330,372.257 62.088 C 372.373 60.526,372.998 60.195,372.998 61.695 C 372.998 62.122,373.101 62.471,373.227 62.471 C 373.352 62.471,373.455 62.779,373.455 63.155 C 373.455 64.234,374.063 64.760,375.311 64.760 C 376.557 64.760,377.117 64.167,377.117 62.847 C 377.117 62.361,377.247 62.013,377.460 61.931 C 377.661 61.854,377.803 61.511,377.803 61.106 C 377.803 60.724,377.906 60.412,378.032 60.412 C 378.165 60.412,378.261 61.163,378.261 62.207 C 378.261 64.290,378.568 64.760,379.932 64.760 C 381.354 64.760,381.465 64.280,381.465 58.120 C 381.465 54.911,381.371 52.656,381.228 52.388 C 380.875 51.729,377.803 51.721,377.803 52.378 C 377.803 52.617,377.649 52.871,377.460 52.943 C 377.259 53.020,377.117 53.363,377.117 53.769 C 377.117 54.150,377.014 54.462,376.888 54.462 C 376.762 54.462,376.659 54.823,376.659 55.263 C 376.659 55.704,376.556 56.064,376.430 56.064 C 376.304 56.064,376.198 56.296,376.194 56.579 C 376.190 56.862,376.036 57.294,375.851 57.538 C 375.666 57.782,375.515 58.271,375.515 58.625 C 375.515 58.978,375.412 59.268,375.286 59.268 C 375.160 59.268,375.057 59.016,375.057 58.709 C 375.057 58.402,374.954 58.087,374.828 58.009 C 374.703 57.931,374.600 57.636,374.600 57.353 C 374.600 57.070,374.448 56.638,374.264 56.394 C 374.079 56.150,373.924 55.724,373.920 55.448 C 373.916 55.173,373.810 54.883,373.684 54.805 C 373.558 54.728,373.455 54.447,373.455 54.182 C 373.455 53.917,373.281 53.306,373.068 52.823 L 372.681 51.945 365.915 51.945 C 359.412 51.945,359.138 51.963,358.865 52.400 M83.867 58.581 C 83.789 58.707,83.275 58.810,82.723 58.810 C 82.172 58.810,81.657 58.913,81.579 59.039 C 81.501 59.165,81.194 59.268,80.895 59.268 C 80.597 59.268,80.199 59.422,80.010 59.611 C 79.821 59.800,79.443 59.954,79.171 59.954 C 78.898 59.954,78.395 60.153,78.053 60.397 C 77.712 60.640,77.165 60.906,76.839 60.988 C 76.513 61.070,76.035 61.334,75.776 61.575 C 75.517 61.816,75.143 62.014,74.945 62.014 C 74.747 62.014,74.526 62.168,74.453 62.357 C 74.381 62.546,74.127 62.700,73.889 62.700 C 73.650 62.700,73.455 62.803,73.455 62.929 C 73.455 63.055,73.345 63.158,73.210 63.158 C 72.893 63.158,72.311 63.740,72.311 64.057 C 72.311 64.192,72.157 64.302,71.968 64.302 C 71.779 64.302,71.625 64.405,71.625 64.531 C 71.625 64.657,71.485 64.760,71.314 64.760 C 71.142 64.760,70.809 65.017,70.573 65.332 C 70.336 65.646,70.057 65.904,69.952 65.904 C 69.710 65.904,69.110 66.498,69.101 66.746 C 69.098 66.849,68.686 67.380,68.186 67.926 L 67.277 68.918 67.277 64.804 C 67.277 61.263,67.226 60.670,66.915 60.551 C 66.022 60.208,50.801 60.401,50.801 60.755 C 50.801 60.944,50.698 61.098,50.572 61.098 C 50.420 61.098,50.343 74.104,50.343 99.657 C 50.343 125.210,50.420 138.215,50.572 138.215 C 50.698 138.215,50.801 138.370,50.801 138.558 C 50.801 139.016,66.547 139.082,67.002 138.627 C 67.212 138.417,67.277 133.053,67.277 115.877 C 67.277 99.083,67.344 93.380,67.541 93.314 C 67.710 93.258,67.845 92.338,67.914 90.778 C 67.974 89.431,68.113 88.330,68.222 88.330 C 68.332 88.330,68.421 87.929,68.421 87.440 C 68.421 86.951,68.575 86.256,68.763 85.896 C 68.951 85.535,69.105 84.957,69.106 84.611 C 69.107 84.265,69.211 83.982,69.336 83.982 C 69.462 83.982,69.565 83.724,69.565 83.410 C 69.565 83.095,69.668 82.838,69.794 82.838 C 69.920 82.838,70.023 82.529,70.023 82.151 C 70.023 81.773,70.124 81.465,70.247 81.465 C 70.371 81.465,70.536 81.207,70.615 80.892 C 70.694 80.578,70.851 80.320,70.963 80.320 C 71.075 80.320,71.167 80.166,71.167 79.977 C 71.167 79.788,71.270 79.634,71.396 79.634 C 71.522 79.634,71.625 79.483,71.625 79.298 C 71.625 78.949,74.885 75.515,75.216 75.515 C 75.320 75.515,75.683 75.257,76.022 74.943 C 76.361 74.628,76.895 74.371,77.208 74.371 C 77.520 74.371,77.840 74.268,77.918 74.142 C 77.995 74.016,78.310 73.913,78.618 73.913 C 78.962 73.913,79.176 73.781,79.176 73.570 C 79.176 73.294,79.527 73.227,80.961 73.227 C 81.957 73.227,82.858 73.115,82.998 72.974 C 83.158 72.814,83.699 72.775,84.474 72.866 C 85.147 72.946,86.307 73.069,87.052 73.141 C 87.797 73.213,88.551 73.416,88.728 73.592 C 88.904 73.769,89.247 73.913,89.490 73.913 C 89.733 73.913,89.931 74.016,89.931 74.142 C 89.931 74.268,90.164 74.371,90.449 74.371 C 90.734 74.371,91.160 74.628,91.397 74.943 C 91.633 75.257,92.018 75.515,92.252 75.515 C 92.486 75.515,92.677 75.632,92.677 75.775 C 92.677 75.918,92.909 76.272,93.192 76.563 C 94.270 77.668,94.689 78.207,94.840 78.683 C 94.926 78.954,95.093 79.176,95.210 79.176 C 95.327 79.176,95.423 79.382,95.423 79.634 C 95.423 79.886,95.526 80.092,95.652 80.092 C 95.778 80.092,95.881 80.349,95.881 80.664 C 95.881 80.978,95.984 81.236,96.110 81.236 C 96.236 81.236,96.339 81.599,96.339 82.044 C 96.339 82.551,96.466 82.901,96.682 82.984 C 96.892 83.064,97.025 83.411,97.025 83.878 C 97.025 84.298,97.128 84.705,97.254 84.783 C 97.380 84.860,97.483 85.736,97.483 86.728 C 97.483 87.720,97.586 88.595,97.712 88.673 C 97.862 88.766,97.941 97.289,97.941 113.498 C 97.941 135.633,97.978 138.220,98.300 138.542 C 98.771 139.012,114.363 139.093,114.828 138.627 C 115.038 138.417,115.103 132.900,115.103 115.191 C 115.103 98.200,115.172 92.006,115.361 91.943 C 115.611 91.860,115.917 89.983,116.166 87.014 C 116.232 86.227,116.380 85.584,116.495 85.584 C 116.611 85.584,116.705 85.234,116.705 84.807 C 116.705 84.328,116.836 83.980,117.048 83.899 C 117.249 83.822,117.391 83.479,117.391 83.074 C 117.391 82.692,117.494 82.380,117.620 82.380 C 117.746 82.380,117.849 82.180,117.849 81.936 C 117.849 81.691,117.952 81.428,118.078 81.350 C 118.204 81.272,118.307 81.020,118.307 80.789 C 118.307 80.558,118.461 80.310,118.650 80.238 C 118.839 80.165,118.993 79.919,118.993 79.692 C 118.993 79.464,119.199 79.129,119.451 78.947 C 119.703 78.766,119.908 78.486,119.908 78.325 C 119.908 78.164,120.006 78.032,120.124 78.032 C 120.243 78.032,120.523 77.723,120.746 77.345 C 120.969 76.968,121.310 76.608,121.503 76.546 C 121.806 76.448,122.254 76.116,123.503 75.062 C 123.655 74.933,123.887 74.828,124.018 74.828 C 124.149 74.828,124.256 74.725,124.256 74.600 C 124.256 74.474,124.508 74.371,124.815 74.371 C 125.122 74.371,125.437 74.268,125.515 74.142 C 125.593 74.016,125.849 73.913,126.084 73.913 C 126.319 73.913,126.666 73.759,126.855 73.570 C 127.095 73.330,127.682 73.227,128.803 73.227 C 129.686 73.227,130.471 73.124,130.549 72.998 C 130.627 72.872,131.193 72.769,131.808 72.769 C 132.422 72.769,132.989 72.872,133.066 72.998 C 133.144 73.124,133.858 73.227,134.654 73.227 C 135.660 73.227,136.186 73.331,136.384 73.570 C 136.541 73.759,136.908 73.913,137.200 73.913 C 137.492 73.913,137.794 74.016,137.872 74.142 C 137.950 74.268,138.213 74.371,138.457 74.371 C 138.702 74.371,138.902 74.451,138.902 74.550 C 138.902 74.649,139.236 74.925,139.645 75.163 C 140.396 75.601,141.418 76.628,141.418 76.945 C 141.419 77.039,141.536 77.117,141.680 77.117 C 142.031 77.117,142.547 77.824,142.556 78.318 C 142.560 78.538,142.666 78.719,142.792 78.719 C 142.918 78.719,143.021 78.876,143.021 79.069 C 143.021 79.262,143.175 79.479,143.364 79.551 C 143.553 79.624,143.707 79.929,143.707 80.230 C 143.707 80.532,143.810 80.778,143.936 80.778 C 144.062 80.778,144.165 81.029,144.165 81.337 C 144.165 81.644,144.268 81.959,144.394 82.037 C 144.519 82.114,144.622 82.577,144.622 83.064 C 144.622 83.551,144.777 84.103,144.966 84.292 C 145.189 84.515,145.309 85.082,145.309 85.910 C 145.309 86.612,145.412 87.185,145.538 87.185 C 145.689 87.185,145.769 95.791,145.774 112.529 C 145.782 136.977,145.797 137.890,146.211 138.387 L 146.641 138.902 154.342 138.902 C 159.214 138.902,162.206 138.815,162.486 138.665 C 162.972 138.405,163.206 87.340,162.723 86.831 C 162.610 86.711,162.478 85.559,162.429 84.271 C 162.376 82.851,162.232 81.820,162.063 81.651 C 161.909 81.497,161.785 80.782,161.785 80.046 C 161.785 79.314,161.682 78.719,161.556 78.719 C 161.430 78.719,161.327 78.358,161.327 77.918 C 161.327 77.477,161.224 77.117,161.098 77.117 C 160.973 77.117,160.870 76.702,160.870 76.194 C 160.870 75.585,160.753 75.227,160.526 75.140 C 160.315 75.059,160.183 74.711,160.183 74.232 C 160.183 73.805,160.080 73.455,159.954 73.455 C 159.828 73.455,159.725 73.198,159.725 72.883 C 159.725 72.569,159.622 72.311,159.497 72.311 C 159.371 72.311,159.268 72.102,159.268 71.846 C 159.268 71.591,159.113 71.322,158.924 71.250 C 158.736 71.177,158.581 70.929,158.581 70.698 C 158.581 70.468,158.478 70.215,158.352 70.137 C 158.227 70.060,158.124 69.834,158.124 69.635 C 158.124 69.437,157.866 69.036,157.551 68.744 C 157.237 68.453,156.979 68.055,156.979 67.860 C 156.979 67.665,156.876 67.506,156.751 67.506 C 156.625 67.506,156.522 67.395,156.522 67.261 C 156.522 66.994,155.958 66.362,155.721 66.362 C 155.490 66.362,155.024 65.831,154.849 65.367 C 154.761 65.135,154.496 64.895,154.261 64.833 C 154.025 64.772,153.705 64.484,153.550 64.194 C 153.395 63.903,153.022 63.534,152.721 63.373 C 152.420 63.212,152.174 62.995,152.174 62.890 C 152.174 62.786,152.035 62.700,151.866 62.700 C 151.697 62.700,151.259 62.443,150.894 62.128 C 150.528 61.814,150.049 61.556,149.828 61.556 C 149.608 61.556,149.428 61.469,149.428 61.362 C 149.428 61.255,148.965 60.976,148.398 60.743 C 147.832 60.509,147.368 60.236,147.368 60.136 C 147.368 60.036,147.001 59.954,146.551 59.954 C 146.102 59.954,145.579 59.800,145.391 59.611 C 145.202 59.422,144.694 59.268,144.263 59.268 C 143.831 59.268,143.478 59.165,143.478 59.039 C 143.478 58.913,142.963 58.810,142.334 58.810 C 141.705 58.810,141.190 58.707,141.190 58.581 C 141.190 58.435,139.321 58.352,136.041 58.352 C 133.128 58.352,130.892 58.442,130.892 58.559 C 130.892 58.673,130.403 58.817,129.805 58.880 C 128.128 59.057,126.682 59.427,126.590 59.704 C 126.544 59.842,126.155 59.954,125.725 59.954 C 125.295 59.954,124.943 60.057,124.943 60.183 C 124.943 60.309,124.685 60.412,124.371 60.412 C 124.056 60.412,123.799 60.515,123.799 60.641 C 123.799 60.767,123.634 60.870,123.433 60.870 C 123.030 60.870,121.669 61.572,121.548 61.842 C 121.506 61.936,121.275 62.014,121.034 62.014 C 120.792 62.014,120.595 62.110,120.595 62.227 C 120.595 62.345,120.371 62.512,120.098 62.598 C 119.824 62.685,119.393 62.950,119.139 63.186 C 118.886 63.422,118.557 63.616,118.410 63.616 C 118.263 63.616,117.949 63.873,117.712 64.188 C 117.476 64.502,117.171 64.760,117.035 64.760 C 116.899 64.760,116.445 65.066,116.026 65.439 C 115.607 65.813,115.023 66.301,114.726 66.523 C 114.430 66.746,114.188 67.058,114.188 67.217 C 114.188 67.376,114.077 67.506,113.942 67.506 C 113.626 67.506,113.043 68.088,113.043 68.405 C 113.043 68.540,112.941 68.650,112.815 68.650 C 112.689 68.650,112.584 68.779,112.582 68.936 C 112.580 69.093,112.322 69.464,112.010 69.761 C 111.697 70.057,111.442 70.392,111.442 70.505 C 111.442 70.617,111.287 70.709,111.098 70.709 C 110.910 70.709,110.755 70.631,110.755 70.535 C 110.755 70.439,110.397 69.950,109.959 69.448 C 109.521 68.946,109.160 68.449,109.158 68.344 C 109.155 68.239,108.587 67.600,107.895 66.924 C 107.203 66.248,106.636 65.588,106.636 65.456 C 106.636 65.325,106.529 65.217,106.398 65.217 C 106.267 65.217,105.770 64.831,105.293 64.359 C 104.058 63.137,103.477 62.700,103.087 62.700 C 102.899 62.700,102.746 62.546,102.746 62.357 C 102.746 62.168,102.546 62.014,102.302 62.014 C 102.058 62.014,101.806 61.931,101.744 61.829 C 101.681 61.728,101.031 61.358,100.300 61.008 C 99.569 60.658,98.791 60.277,98.573 60.163 C 98.354 60.048,97.988 59.954,97.759 59.954 C 97.529 59.954,97.142 59.803,96.897 59.618 C 96.653 59.433,96.170 59.279,95.824 59.275 C 95.478 59.271,95.195 59.165,95.195 59.039 C 95.195 58.913,94.737 58.810,94.178 58.810 C 93.619 58.810,93.098 58.707,93.021 58.581 C 92.934 58.441,91.154 58.352,88.444 58.352 C 85.734 58.352,83.954 58.441,83.867 58.581 M229.748 58.581 C 229.748 58.707,229.233 58.810,228.604 58.810 C 227.975 58.810,227.460 58.913,227.460 59.039 C 227.460 59.165,227.210 59.268,226.904 59.268 C 226.599 59.268,226.194 59.422,226.005 59.611 C 225.816 59.800,225.346 59.954,224.959 59.954 C 224.573 59.954,224.256 60.057,224.256 60.183 C 224.256 60.309,224.117 60.412,223.946 60.412 C 223.776 60.412,223.359 60.669,223.019 60.984 C 222.680 61.299,222.248 61.556,222.061 61.556 C 221.873 61.556,221.442 61.814,221.102 62.128 C 220.763 62.443,220.378 62.700,220.247 62.700 C 220.117 62.700,219.861 62.906,219.680 63.158 C 219.498 63.410,219.218 63.616,219.057 63.616 C 218.896 63.616,218.764 63.732,218.764 63.875 C 218.764 64.149,217.627 65.217,217.334 65.217 C 217.240 65.217,217.162 65.327,217.162 65.462 C 217.162 65.596,216.802 66.046,216.362 66.461 C 215.921 66.877,215.561 67.338,215.561 67.486 C 215.561 67.634,215.303 68.013,214.989 68.327 C 214.674 68.642,214.416 69.049,214.416 69.232 C 214.416 69.415,214.326 69.565,214.214 69.565 C 214.103 69.565,213.928 69.797,213.824 70.080 C 213.710 70.392,213.587 68.685,213.512 65.743 C 213.436 62.789,213.292 60.796,213.143 60.649 C 212.979 60.484,210.381 60.425,205.134 60.466 L 197.368 60.526 197.368 99.657 L 197.368 138.787 205.072 138.847 C 211.850 138.900,212.819 138.864,213.139 138.545 C 213.465 138.219,213.501 135.900,213.501 115.558 C 213.501 100.722,213.580 92.885,213.730 92.792 C 213.856 92.714,213.959 91.993,213.959 91.190 C 213.959 90.387,214.062 89.666,214.188 89.588 C 214.314 89.510,214.416 88.846,214.416 88.112 C 214.416 87.136,214.509 86.741,214.760 86.645 C 214.960 86.568,215.103 86.225,215.103 85.820 C 215.103 85.438,215.206 85.126,215.332 85.126 C 215.458 85.126,215.561 84.765,215.561 84.325 C 215.561 83.884,215.664 83.524,215.789 83.524 C 215.915 83.524,216.018 83.267,216.018 82.952 C 216.018 82.596,216.148 82.380,216.362 82.380 C 216.550 82.380,216.705 82.180,216.705 81.936 C 216.705 81.691,216.808 81.428,216.934 81.350 C 217.059 81.272,217.162 81.055,217.162 80.868 C 217.162 80.681,217.626 80.058,218.192 79.483 C 218.759 78.909,219.222 78.244,219.222 78.006 C 219.222 77.727,219.384 77.574,219.679 77.574 C 219.931 77.574,220.518 77.214,220.985 76.773 C 221.452 76.333,221.967 75.973,222.130 75.973 C 222.293 75.973,222.426 75.870,222.426 75.744 C 222.426 75.618,222.683 75.515,222.998 75.515 C 223.354 75.515,223.570 75.385,223.570 75.172 C 223.570 74.932,223.811 74.828,224.371 74.828 C 224.811 74.828,225.172 74.725,225.172 74.600 C 225.172 74.473,225.777 74.371,226.531 74.371 C 227.279 74.371,227.954 74.268,228.032 74.142 C 228.110 74.016,229.136 73.913,230.320 73.913 C 231.505 73.913,232.531 74.016,232.609 74.142 C 233.102 74.940,235.469 74.120,235.469 73.151 C 235.469 72.941,235.572 72.769,235.698 72.769 C 235.824 72.769,235.927 72.522,235.927 72.221 C 235.927 71.920,236.081 71.614,236.270 71.542 C 236.459 71.470,236.613 71.253,236.613 71.060 C 236.613 70.867,236.716 70.709,236.842 70.709 C 236.968 70.709,237.071 70.554,237.071 70.363 C 237.071 70.040,237.491 69.138,237.763 68.879 C 238.097 68.559,238.673 67.479,238.673 67.171 C 238.673 66.977,238.776 66.819,238.902 66.819 C 239.027 66.819,239.130 66.573,239.130 66.272 C 239.130 65.970,239.285 65.665,239.474 65.592 C 239.662 65.520,239.817 65.303,239.817 65.110 C 239.817 64.917,239.920 64.760,240.046 64.760 C 240.172 64.760,240.275 64.502,240.275 64.188 C 240.275 63.873,240.378 63.616,240.503 63.616 C 240.629 63.616,240.732 63.358,240.732 63.043 C 240.732 62.688,240.862 62.471,241.076 62.471 C 241.264 62.471,241.419 62.316,241.419 62.125 C 241.419 61.935,241.547 61.574,241.703 61.323 C 242.055 60.759,241.713 60.102,241.012 59.998 C 240.750 59.959,240.414 59.778,240.263 59.597 C 240.113 59.416,239.796 59.268,239.560 59.268 C 239.324 59.268,239.130 59.165,239.130 59.039 C 239.130 58.913,238.719 58.810,238.215 58.810 C 237.712 58.810,237.300 58.707,237.300 58.581 C 237.300 58.438,235.889 58.352,233.524 58.352 C 231.159 58.352,229.748 58.438,229.748 58.581 M171.911 60.563 C 171.501 60.729,171.489 138.217,171.899 138.627 C 172.102 138.830,174.217 138.902,179.997 138.902 L 187.819 138.902 188.189 138.338 C 188.683 137.584,188.764 62.091,188.272 61.031 L 187.986 60.415 180.092 60.432 C 175.749 60.441,172.068 60.500,171.911 60.563 " stroke="none" fill="#000000" fill-rule="evenodd"></path><path id="path1" d="M178.833 33.867 C 178.755 33.993,178.343 34.096,177.918 34.096 C 177.492 34.096,177.080 34.199,177.002 34.325 C 176.925 34.451,176.668 34.554,176.433 34.554 C 176.198 34.554,175.851 34.708,175.662 34.897 C 175.473 35.086,175.208 35.240,175.074 35.240 C 174.939 35.240,174.828 35.343,174.828 35.469 C 174.828 35.595,174.663 35.698,174.460 35.698 C 173.992 35.698,172.082 37.619,172.082 38.090 C 172.082 38.285,171.996 38.444,171.890 38.444 C 171.784 38.444,171.511 38.830,171.284 39.302 C 171.057 39.774,170.783 40.339,170.676 40.558 C 170.396 41.128,170.426 46.911,170.709 46.911 C 170.835 46.911,170.938 47.120,170.938 47.376 C 170.938 47.631,171.093 47.900,171.281 47.972 C 171.470 48.045,171.625 48.303,171.625 48.547 C 171.625 49.015,172.580 50.114,172.987 50.114 C 173.119 50.114,173.227 50.230,173.227 50.370 C 173.227 50.699,174.624 51.937,175.000 51.941 C 175.157 51.943,175.286 52.048,175.286 52.174 C 175.286 52.300,175.543 52.403,175.858 52.403 C 176.173 52.403,176.430 52.506,176.430 52.632 C 176.430 52.757,176.719 52.860,177.071 52.860 C 177.423 52.860,177.840 52.989,177.997 53.145 C 178.377 53.526,182.732 53.515,183.115 53.132 C 183.264 52.983,183.617 52.860,183.900 52.860 C 184.182 52.860,184.476 52.757,184.554 52.632 C 184.632 52.506,184.895 52.403,185.139 52.403 C 185.384 52.403,185.584 52.300,185.584 52.174 C 185.584 52.048,185.741 51.945,185.934 51.945 C 186.127 51.945,186.344 51.791,186.416 51.602 C 186.489 51.413,186.647 51.259,186.769 51.259 C 187.016 51.259,187.643 50.684,187.643 50.458 C 187.643 50.267,188.253 49.657,188.444 49.657 C 188.721 49.657,189.245 49.003,189.245 48.657 C 189.245 48.467,189.348 48.247,189.474 48.169 C 189.600 48.092,189.703 47.777,189.703 47.469 C 189.703 47.125,189.834 46.911,190.046 46.911 C 190.305 46.911,190.389 46.631,190.389 45.767 C 190.389 45.081,190.491 44.622,190.643 44.622 C 190.808 44.622,190.848 44.324,190.757 43.764 C 190.681 43.292,190.552 42.408,190.472 41.800 C 190.392 41.192,190.187 40.640,190.015 40.574 C 189.843 40.508,189.700 40.182,189.697 39.850 C 189.695 39.517,189.491 38.987,189.245 38.673 C 188.999 38.358,188.795 38.005,188.792 37.888 C 188.785 37.580,186.466 35.500,185.937 35.327 C 185.692 35.246,185.350 35.039,185.177 34.867 C 185.005 34.695,184.672 34.554,184.437 34.554 C 184.201 34.554,183.945 34.451,183.867 34.325 C 183.789 34.199,183.378 34.096,182.952 34.096 C 182.526 34.096,182.114 33.993,182.037 33.867 C 181.959 33.741,181.238 33.638,180.435 33.638 C 179.632 33.638,178.911 33.741,178.833 33.867 M26.170 130.549 C 26.080 130.782,25.715 130.892,25.033 130.892 C 24.480 130.892,24.027 130.970,24.027 131.065 C 24.027 131.161,23.711 131.379,23.324 131.550 C 22.424 131.948,20.137 134.172,20.137 134.648 C 20.137 134.848,20.034 135.011,19.908 135.011 C 19.783 135.011,19.680 135.122,19.680 135.257 C 19.680 135.391,19.525 135.656,19.336 135.845 C 19.148 136.034,18.993 136.432,18.993 136.731 C 18.993 137.029,18.890 137.336,18.764 137.414 C 18.628 137.499,18.535 138.980,18.535 141.089 C 18.535 143.292,18.622 144.622,18.764 144.622 C 18.890 144.622,18.993 144.873,18.993 145.178 C 18.993 145.484,19.148 145.888,19.336 146.077 C 19.525 146.266,19.680 146.531,19.680 146.666 C 19.680 146.800,19.783 146.911,19.908 146.911 C 20.034 146.911,20.137 147.114,20.137 147.363 C 20.137 147.873,21.361 148.619,21.874 148.422 C 22.242 148.281,22.315 147.011,21.968 146.796 C 21.840 146.717,21.739 145.654,21.739 144.394 C 21.739 143.133,21.840 142.070,21.968 141.991 C 22.094 141.913,22.197 141.547,22.197 141.176 C 22.197 140.806,22.293 140.503,22.410 140.503 C 22.528 140.503,22.689 140.272,22.768 139.989 C 23.077 138.886,23.772 137.757,24.142 137.757 C 24.379 137.757,24.943 137.125,24.943 136.858 C 24.943 136.724,25.149 136.613,25.400 136.613 C 25.652 136.613,25.858 136.510,25.858 136.384 C 25.858 136.259,26.109 136.156,26.417 136.156 C 26.724 136.156,27.039 136.053,27.117 135.927 C 27.194 135.801,27.554 135.698,27.915 135.698 C 28.276 135.698,28.726 135.543,28.915 135.355 C 29.398 134.871,33.785 134.877,34.426 135.362 C 34.670 135.547,35.293 135.698,35.810 135.698 C 36.327 135.698,36.848 135.793,36.968 135.910 C 37.164 136.101,38.624 136.229,40.003 136.176 C 40.718 136.148,40.657 134.723,39.935 134.586 C 39.685 134.538,39.270 134.254,39.012 133.955 C 38.754 133.655,38.414 133.410,38.255 133.410 C 38.097 133.410,37.746 133.204,37.476 132.952 C 37.206 132.700,36.809 132.494,36.595 132.494 C 36.380 132.494,36.145 132.340,36.073 132.151 C 36.000 131.962,35.787 131.808,35.598 131.808 C 35.409 131.808,34.888 131.602,34.439 131.350 C 33.935 131.067,33.200 130.892,32.512 130.892 C 31.734 130.892,31.359 130.789,31.267 130.549 C 31.162 130.274,30.656 130.206,28.719 130.206 C 26.781 130.206,26.275 130.274,26.170 130.549 M234.472 130.549 C 234.283 130.738,233.813 130.892,233.426 130.892 C 233.039 130.892,232.723 130.995,232.723 131.121 C 232.723 131.247,232.517 131.350,232.265 131.350 C 232.014 131.350,231.808 131.453,231.808 131.579 C 231.808 131.705,231.599 131.808,231.343 131.808 C 231.087 131.808,230.819 131.962,230.746 132.151 C 230.674 132.340,230.445 132.494,230.239 132.495 C 229.912 132.495,229.519 132.761,228.213 133.863 C 228.061 133.991,227.879 134.096,227.808 134.096 C 227.343 134.096,225.146 136.655,225.212 137.120 C 225.317 137.858,228.375 137.675,228.375 136.931 C 228.375 136.721,228.646 136.613,229.176 136.613 C 229.617 136.613,229.977 136.510,229.977 136.384 C 229.977 136.259,230.434 136.156,230.993 136.156 C 231.552 136.156,232.073 136.053,232.151 135.927 C 232.229 135.801,232.742 135.698,233.292 135.698 C 233.876 135.698,234.435 135.555,234.636 135.355 C 234.876 135.114,235.464 135.011,236.597 135.011 C 237.883 135.011,238.215 135.082,238.215 135.355 C 238.215 135.594,238.457 135.698,239.016 135.698 C 239.457 135.698,239.817 135.801,239.817 135.927 C 239.817 136.053,240.074 136.156,240.389 136.156 C 240.704 136.156,240.961 136.259,240.961 136.384 C 240.961 136.510,241.167 136.613,241.419 136.613 C 241.670 136.613,241.876 136.724,241.876 136.858 C 241.876 137.125,242.440 137.757,242.677 137.757 C 242.996 137.757,243.478 138.437,243.478 138.885 C 243.478 139.146,243.579 139.359,243.703 139.359 C 243.826 139.359,243.992 139.617,244.071 139.931 C 244.150 140.246,244.306 140.503,244.418 140.503 C 244.531 140.503,244.622 140.909,244.622 141.405 C 244.622 141.901,244.725 142.371,244.851 142.449 C 244.978 142.527,245.080 143.555,245.080 144.746 C 245.080 146.864,245.090 146.905,245.661 147.048 C 246.373 147.227,247.140 146.616,247.140 145.870 C 247.140 145.588,247.294 145.299,247.483 145.226 C 247.683 145.149,247.826 144.806,247.826 144.401 C 247.826 144.019,247.929 143.707,248.055 143.707 C 248.194 143.707,248.284 142.677,248.284 141.076 C 248.284 139.474,248.194 138.444,248.055 138.444 C 247.929 138.444,247.826 138.084,247.826 137.643 C 247.826 137.084,247.723 136.842,247.483 136.842 C 247.269 136.842,247.140 136.626,247.140 136.270 C 247.140 135.955,247.037 135.698,246.911 135.698 C 246.785 135.698,246.682 135.485,246.682 135.224 C 246.682 134.717,246.187 134.096,245.783 134.096 C 245.648 134.096,245.538 133.883,245.538 133.622 C 245.538 133.173,245.055 132.494,244.737 132.494 C 244.656 132.494,244.446 132.366,244.271 132.208 C 243.514 131.529,243.255 131.350,243.030 131.350 C 242.899 131.350,242.792 131.247,242.792 131.121 C 242.792 130.995,242.442 130.892,242.015 130.892 C 241.536 130.892,241.188 130.761,241.107 130.549 C 240.999 130.268,240.422 130.206,237.895 130.206 C 235.463 130.206,234.743 130.278,234.472 130.549 M26.023 139.362 C 25.583 139.876,25.511 140.275,25.858 140.275 C 25.984 140.275,26.087 140.532,26.087 140.847 C 26.087 141.161,26.190 141.419,26.316 141.419 C 26.442 141.419,26.545 141.628,26.545 141.884 C 26.545 142.139,26.699 142.408,26.888 142.480 C 27.077 142.553,27.231 142.858,27.231 143.159 C 27.231 143.461,27.315 143.707,27.417 143.707 C 27.520 143.707,27.745 144.068,27.918 144.508 C 28.090 144.949,28.367 145.309,28.532 145.309 C 28.700 145.309,28.833 145.561,28.833 145.881 C 28.833 146.196,28.936 146.453,29.062 146.453 C 29.188 146.453,29.291 146.593,29.291 146.763 C 29.291 146.933,29.548 147.351,29.863 147.690 C 30.177 148.030,30.435 148.456,30.435 148.639 C 30.435 148.821,30.538 148.970,30.664 148.970 C 30.789 148.970,30.892 149.100,30.892 149.259 C 30.892 149.418,31.150 149.741,31.465 149.978 C 31.779 150.214,32.037 150.547,32.037 150.718 C 32.037 150.889,32.397 151.411,32.838 151.878 C 33.278 152.345,33.638 152.818,33.638 152.928 C 33.638 153.039,34.102 153.580,34.668 154.131 C 35.235 154.681,35.698 155.191,35.698 155.264 C 35.698 155.412,36.019 155.817,36.785 156.637 C 37.068 156.940,37.300 157.278,37.300 157.388 C 37.300 157.498,37.546 157.720,37.847 157.881 C 38.147 158.042,38.525 158.420,38.686 158.721 C 38.847 159.022,39.072 159.268,39.185 159.268 C 39.422 159.268,40.046 159.848,40.046 160.069 C 40.046 160.260,40.656 160.870,40.847 160.870 C 41.038 160.870,41.648 161.480,41.648 161.670 C 41.648 161.857,42.256 162.471,42.441 162.471 C 42.517 162.471,43.030 162.935,43.581 163.501 C 44.131 164.068,44.745 164.531,44.945 164.531 C 45.145 164.531,45.309 164.685,45.309 164.874 C 45.309 165.063,45.414 165.217,45.542 165.217 C 45.670 165.217,46.218 165.681,46.761 166.247 C 47.304 166.814,47.870 167.277,48.020 167.277 C 48.169 167.277,48.642 167.637,49.070 168.078 C 49.497 168.518,49.934 168.879,50.040 168.879 C 50.147 168.879,50.511 169.136,50.850 169.451 C 51.190 169.765,51.528 170.023,51.602 170.023 C 51.676 170.023,51.994 170.280,52.309 170.595 C 52.624 170.910,53.008 171.167,53.164 171.167 C 53.319 171.167,53.594 171.373,53.776 171.625 C 53.957 171.876,54.213 172.082,54.343 172.082 C 54.474 172.082,54.859 172.340,55.198 172.654 C 55.538 172.969,55.963 173.227,56.144 173.227 C 56.326 173.227,56.716 173.482,57.013 173.795 C 57.309 174.107,57.709 174.365,57.901 174.367 C 58.094 174.369,58.400 174.577,58.581 174.828 C 58.763 175.080,59.146 175.286,59.433 175.286 C 59.720 175.286,59.954 175.421,59.954 175.587 C 59.954 175.752,60.315 176.029,60.755 176.201 C 61.196 176.374,61.556 176.599,61.556 176.702 C 61.556 176.804,61.705 176.888,61.888 176.888 C 62.070 176.888,62.497 177.145,62.836 177.460 C 63.176 177.775,63.644 178.032,63.878 178.032 C 64.111 178.032,64.303 178.109,64.304 178.204 C 64.305 178.434,65.629 179.176,66.037 179.176 C 66.215 179.176,66.362 179.279,66.362 179.405 C 66.362 179.531,66.563 179.634,66.809 179.634 C 67.055 179.634,67.514 179.891,67.828 180.206 C 68.143 180.521,68.662 180.778,68.983 180.778 C 69.303 180.778,69.565 180.881,69.565 181.007 C 69.565 181.133,69.774 181.236,70.030 181.236 C 70.286 181.236,70.554 181.390,70.627 181.579 C 70.699 181.768,70.953 181.922,71.192 181.922 C 71.430 181.922,71.625 182.025,71.625 182.151 C 71.625 182.277,71.882 182.380,72.197 182.380 C 72.511 182.380,72.769 182.483,72.769 182.609 C 72.769 182.735,73.015 182.838,73.316 182.838 C 73.618 182.838,73.923 182.992,73.996 183.181 C 74.068 183.370,74.337 183.524,74.592 183.524 C 74.848 183.524,75.057 183.627,75.057 183.753 C 75.057 183.879,75.263 183.982,75.515 183.982 C 75.767 183.982,75.973 184.085,75.973 184.211 C 75.973 184.336,76.269 184.439,76.631 184.439 C 76.993 184.439,77.418 184.594,77.574 184.783 C 77.731 184.971,78.053 185.126,78.289 185.126 C 78.525 185.126,78.719 185.229,78.719 185.355 C 78.719 185.481,78.976 185.584,79.291 185.584 C 79.605 185.584,79.863 185.686,79.863 185.812 C 79.863 185.938,80.212 186.041,80.639 186.041 C 81.118 186.041,81.466 186.173,81.547 186.384 C 81.620 186.573,81.934 186.728,82.245 186.728 C 82.556 186.728,82.874 186.831,82.952 186.957 C 83.030 187.082,83.345 187.185,83.652 187.185 C 83.959 187.185,84.211 187.288,84.211 187.414 C 84.211 187.540,84.507 187.643,84.869 187.643 C 85.231 187.643,85.656 187.797,85.812 187.986 C 85.969 188.175,86.394 188.330,86.756 188.330 C 87.118 188.330,87.414 188.432,87.414 188.558 C 87.414 188.684,87.775 188.787,88.215 188.787 C 88.656 188.787,89.016 188.890,89.016 189.016 C 89.016 189.142,89.365 189.245,89.792 189.245 C 90.272 189.245,90.619 189.376,90.701 189.588 C 90.783 189.802,91.132 189.931,91.627 189.931 C 92.064 189.931,92.485 190.034,92.563 190.160 C 92.641 190.286,93.059 190.389,93.492 190.389 C 93.925 190.389,94.279 190.491,94.279 190.615 C 94.279 190.740,94.693 190.908,95.200 190.988 C 95.706 191.069,96.175 191.225,96.243 191.334 C 96.310 191.444,96.874 191.533,97.496 191.533 C 98.118 191.533,98.627 191.636,98.627 191.762 C 98.627 191.888,99.082 191.991,99.638 191.991 C 100.194 191.991,100.683 192.096,100.726 192.225 C 100.805 192.461,102.459 192.843,104.348 193.061 C 104.914 193.126,105.475 193.272,105.595 193.386 C 105.715 193.500,106.350 193.593,107.006 193.593 C 107.669 193.593,108.237 193.704,108.284 193.844 C 108.331 193.987,109.227 194.148,110.369 194.220 C 111.470 194.288,112.425 194.433,112.492 194.541 C 112.558 194.649,113.219 194.737,113.959 194.737 C 114.699 194.737,115.368 194.840,115.446 194.966 C 115.526 195.094,116.616 195.195,117.931 195.195 C 119.501 195.195,120.369 195.289,120.561 195.481 C 120.783 195.703,123.779 195.767,133.982 195.767 C 144.185 195.767,147.180 195.703,147.403 195.481 C 147.598 195.286,148.508 195.195,150.261 195.195 C 151.729 195.195,152.894 195.096,152.975 194.966 C 153.053 194.840,153.728 194.737,154.476 194.737 C 155.223 194.737,155.835 194.649,155.835 194.541 C 155.835 194.433,156.671 194.287,157.692 194.217 C 158.713 194.147,159.660 193.978,159.797 193.841 C 159.934 193.705,160.519 193.593,161.098 193.593 C 161.677 193.593,162.249 193.499,162.368 193.385 C 162.488 193.271,163.101 193.125,163.730 193.061 C 165.623 192.868,167.615 192.440,167.696 192.209 C 167.738 192.089,168.125 191.991,168.555 191.991 C 168.985 191.991,169.336 191.897,169.336 191.783 C 169.336 191.669,169.877 191.527,170.538 191.468 C 172.085 191.330,173.540 190.937,173.642 190.630 C 173.686 190.497,174.120 190.389,174.605 190.389 C 175.091 190.389,175.552 190.286,175.629 190.160 C 175.707 190.034,176.125 189.931,176.558 189.931 C 177.105 189.931,177.346 189.827,177.346 189.588 C 177.346 189.348,177.587 189.245,178.146 189.245 C 178.587 189.245,178.947 189.142,178.947 189.016 C 178.947 188.890,179.302 188.787,179.735 188.787 C 180.168 188.787,180.586 188.684,180.664 188.558 C 180.741 188.432,181.108 188.330,181.478 188.330 C 181.924 188.330,182.151 188.214,182.151 187.986 C 182.151 187.747,182.393 187.643,182.952 187.643 C 183.392 187.643,183.753 187.540,183.753 187.414 C 183.753 187.288,183.930 187.185,184.146 187.185 C 184.720 187.185,186.499 186.470,186.499 186.239 C 186.499 186.130,186.758 186.041,187.074 186.041 C 187.390 186.041,187.880 185.922,188.161 185.777 C 189.237 185.220,189.478 185.126,189.821 185.126 C 190.015 185.126,190.234 184.971,190.306 184.783 C 190.381 184.587,190.723 184.439,191.100 184.439 C 191.464 184.439,191.762 184.336,191.762 184.211 C 191.762 184.085,191.882 183.982,192.028 183.982 C 192.455 183.982,194.050 183.225,194.050 183.022 C 194.050 182.921,194.308 182.838,194.622 182.838 C 194.937 182.838,195.195 182.735,195.195 182.609 C 195.195 182.483,195.400 182.380,195.652 182.380 C 195.904 182.380,196.110 182.277,196.110 182.151 C 196.110 182.025,196.319 181.922,196.575 181.922 C 196.830 181.922,197.099 181.768,197.171 181.579 C 197.244 181.390,197.549 181.236,197.851 181.236 C 198.152 181.236,198.398 181.133,198.398 181.007 C 198.398 180.881,198.544 180.778,198.723 180.778 C 199.131 180.778,200.454 180.036,200.456 179.805 C 200.457 179.711,200.614 179.634,200.806 179.634 C 201.168 179.634,203.032 178.504,203.166 178.204 C 203.207 178.109,203.404 178.032,203.602 178.032 C 203.799 178.032,204.280 177.792,204.669 177.499 C 205.059 177.206,205.712 176.820,206.121 176.642 C 206.530 176.464,206.865 176.241,206.865 176.146 C 206.865 176.050,207.019 175.973,207.208 175.973 C 207.397 175.973,207.551 175.874,207.551 175.754 C 207.551 175.634,207.912 175.365,208.352 175.156 C 208.793 174.947,209.153 174.685,209.153 174.573 C 209.153 174.462,209.359 174.371,209.611 174.371 C 209.863 174.371,210.069 174.273,210.069 174.153 C 210.069 174.033,210.429 173.763,210.870 173.554 C 211.310 173.345,211.670 173.083,211.670 172.972 C 211.670 172.860,211.800 172.769,211.959 172.769 C 212.117 172.769,212.525 172.511,212.864 172.197 C 213.204 171.882,213.545 171.625,213.622 171.625 C 213.699 171.625,213.906 171.496,214.082 171.339 C 214.777 170.715,215.090 170.481,215.227 170.481 C 215.306 170.481,215.720 170.120,216.148 169.680 C 216.576 169.239,217.041 168.879,217.181 168.879 C 217.322 168.879,217.907 168.415,218.482 167.849 C 219.056 167.283,219.608 166.819,219.707 166.819 C 219.806 166.819,220.145 166.562,220.460 166.247 C 220.774 165.932,221.095 165.675,221.173 165.675 C 221.406 165.675,221.968 165.039,221.968 164.776 C 221.968 164.641,222.045 164.531,222.140 164.531 C 222.432 164.530,223.570 163.462,223.570 163.188 C 223.570 163.046,223.677 162.929,223.809 162.929 C 224.228 162.929,226.771 160.425,226.772 160.011 C 226.773 159.854,226.881 159.725,227.013 159.725 C 227.323 159.725,228.375 158.673,228.375 158.363 C 228.375 158.231,228.505 158.124,228.664 158.124 C 228.823 158.124,229.135 157.881,229.358 157.585 C 229.580 157.289,230.068 156.704,230.442 156.285 C 230.815 155.866,231.121 155.432,231.121 155.320 C 231.121 155.037,231.723 154.462,232.020 154.462 C 232.155 154.462,232.265 154.355,232.265 154.224 C 232.265 154.093,232.471 153.764,232.723 153.494 C 232.975 153.224,233.181 152.816,233.181 152.588 C 233.181 152.360,233.291 152.174,233.426 152.174 C 233.693 152.174,234.325 151.611,234.325 151.373 C 234.325 151.292,234.454 151.082,234.611 150.907 C 235.313 150.124,235.469 149.885,235.469 149.595 C 235.469 149.425,235.654 149.086,235.881 148.842 C 236.108 148.598,236.490 148.064,236.731 147.654 C 236.972 147.245,237.250 146.911,237.349 146.911 C 237.448 146.911,237.529 146.653,237.529 146.339 C 237.529 146.024,237.624 145.767,237.741 145.767 C 237.985 145.767,238.673 144.474,238.673 144.015 C 238.673 143.846,238.776 143.707,238.902 143.707 C 239.027 143.707,239.130 143.450,239.130 143.135 C 239.130 142.820,239.226 142.563,239.343 142.563 C 239.587 142.563,240.275 141.270,240.275 140.812 C 240.275 140.642,240.378 140.503,240.503 140.503 C 240.629 140.503,240.732 140.143,240.732 139.703 C 240.732 138.961,240.680 138.902,240.029 138.902 C 239.328 138.902,238.673 139.336,238.673 139.801 C 238.673 139.935,238.570 140.046,238.444 140.046 C 238.318 140.046,238.215 140.205,238.215 140.400 C 238.215 140.595,237.958 140.993,237.643 141.284 C 237.328 141.576,237.071 141.983,237.071 142.189 C 237.071 142.395,236.968 142.563,236.842 142.563 C 236.716 142.563,236.613 142.717,236.613 142.906 C 236.613 143.095,236.503 143.249,236.368 143.249 C 236.105 143.249,235.469 143.812,235.469 144.044 C 235.469 144.122,235.237 144.433,234.954 144.736 C 234.178 145.566,233.867 145.961,233.867 146.117 C 233.867 146.349,233.231 146.911,232.968 146.911 C 232.833 146.911,232.723 147.006,232.723 147.122 C 232.723 147.340,227.304 152.860,227.090 152.860 C 226.919 152.860,226.316 153.485,226.316 153.661 C 226.316 153.899,225.683 154.462,225.417 154.462 C 225.282 154.462,225.172 154.565,225.172 154.691 C 225.172 154.817,225.014 154.920,224.821 154.920 C 224.628 154.920,224.411 155.074,224.339 155.263 C 224.267 155.452,224.111 155.606,223.993 155.606 C 223.700 155.606,222.654 156.672,222.654 156.969 C 222.654 157.101,222.440 157.208,222.178 157.208 C 221.916 157.208,221.351 157.569,220.923 158.009 C 220.495 158.450,219.989 158.810,219.798 158.810 C 219.607 158.810,219.451 158.896,219.451 159.000 C 219.451 159.105,219.193 159.328,218.879 159.497 C 218.564 159.665,218.307 159.940,218.307 160.107 C 218.307 160.275,218.120 160.412,217.892 160.412 C 217.664 160.412,217.278 160.597,217.034 160.824 C 216.790 161.050,216.256 161.433,215.847 161.674 C 215.438 161.915,215.103 162.193,215.103 162.292 C 215.103 162.391,214.904 162.471,214.662 162.471 C 214.419 162.471,214.018 162.729,213.771 163.043 C 213.523 163.358,213.128 163.616,212.893 163.616 C 212.658 163.616,212.272 163.873,212.036 164.188 C 211.800 164.502,211.415 164.760,211.181 164.760 C 210.947 164.760,210.755 164.863,210.755 164.989 C 210.755 165.114,210.585 165.217,210.376 165.217 C 210.168 165.217,209.660 165.475,209.247 165.789 C 208.835 166.104,208.388 166.362,208.253 166.362 C 208.119 166.362,208.009 166.465,208.009 166.590 C 208.009 166.716,207.803 166.819,207.551 166.819 C 207.300 166.819,207.094 166.922,207.094 167.048 C 207.094 167.174,206.885 167.277,206.629 167.277 C 206.373 167.277,206.105 167.431,206.032 167.620 C 205.960 167.809,205.654 167.963,205.353 167.963 C 205.052 167.963,204.805 168.066,204.805 168.192 C 204.805 168.318,204.600 168.421,204.348 168.421 C 204.096 168.421,203.890 168.524,203.890 168.650 C 203.890 168.776,203.681 168.879,203.425 168.879 C 203.170 168.879,202.901 169.033,202.829 169.222 C 202.756 169.411,202.451 169.565,202.149 169.565 C 201.848 169.565,201.602 169.668,201.602 169.794 C 201.602 169.920,201.396 170.023,201.144 170.023 C 200.892 170.023,200.686 170.126,200.686 170.252 C 200.686 170.378,200.429 170.481,200.114 170.481 C 199.758 170.481,199.542 170.610,199.542 170.824 C 199.542 171.037,199.326 171.167,198.970 171.167 C 198.656 171.167,198.398 171.270,198.398 171.396 C 198.398 171.522,198.175 171.625,197.903 171.625 C 197.301 171.625,195.652 172.327,195.652 172.584 C 195.652 172.686,195.343 172.769,194.966 172.769 C 194.588 172.769,194.279 172.872,194.279 172.998 C 194.279 173.124,194.022 173.227,193.707 173.227 C 193.392 173.227,193.135 173.330,193.135 173.455 C 193.135 173.581,192.942 173.684,192.705 173.684 C 192.469 173.684,192.148 173.839,191.991 174.027 C 191.834 174.216,191.364 174.371,190.947 174.371 C 190.529 174.371,190.124 174.474,190.046 174.600 C 189.968 174.725,189.653 174.828,189.346 174.828 C 189.039 174.828,188.787 174.931,188.787 175.057 C 188.787 175.183,188.607 175.287,188.387 175.287 C 188.166 175.288,187.691 175.443,187.331 175.631 C 186.970 175.819,186.430 175.973,186.129 175.973 C 185.829 175.973,185.584 176.064,185.584 176.176 C 185.584 176.288,185.249 176.437,184.840 176.507 C 183.502 176.735,181.922 177.217,181.922 177.398 C 181.922 177.495,181.562 177.574,181.121 177.574 C 180.681 177.574,180.320 177.677,180.320 177.803 C 180.320 177.929,179.854 178.032,179.283 178.032 C 178.573 178.032,178.205 178.140,178.115 178.375 C 178.031 178.595,177.678 178.719,177.138 178.719 C 176.673 178.719,176.195 178.812,176.076 178.925 C 175.956 179.039,175.369 179.193,174.771 179.268 C 171.942 179.624,171.584 179.704,171.469 180.001 C 171.388 180.213,170.975 180.320,170.241 180.320 C 169.632 180.320,169.071 180.423,168.993 180.549 C 168.915 180.675,168.195 180.778,167.391 180.778 C 166.588 180.778,165.867 180.881,165.789 181.007 C 165.712 181.133,165.085 181.236,164.396 181.236 C 163.494 181.236,163.107 181.332,163.012 181.579 C 162.908 181.848,162.443 181.922,160.845 181.922 C 159.641 181.922,158.810 182.016,158.810 182.151 C 158.810 182.286,157.986 182.380,156.796 182.380 C 155.689 182.380,154.685 182.472,154.565 182.586 C 154.446 182.699,153.294 182.831,152.006 182.880 C 150.586 182.933,149.554 183.077,149.386 183.246 C 148.929 183.703,119.043 183.642,118.161 183.182 C 117.727 182.956,116.834 182.840,115.517 182.839 C 114.423 182.838,113.465 182.735,113.387 182.609 C 113.309 182.483,112.382 182.380,111.327 182.380 C 110.272 182.380,109.346 182.277,109.268 182.151 C 109.190 182.025,108.218 181.922,107.108 181.922 C 105.594 181.922,105.019 181.837,104.805 181.579 C 104.624 181.361,104.119 181.236,103.418 181.236 C 102.812 181.236,102.252 181.133,102.174 181.007 C 102.096 180.881,101.266 180.778,100.330 180.778 C 99.347 180.778,98.627 180.681,98.627 180.549 C 98.627 180.423,98.123 180.320,97.507 180.320 C 96.723 180.320,96.348 180.218,96.256 179.977 C 96.166 179.743,95.799 179.634,95.101 179.634 C 94.538 179.634,94.014 179.531,93.936 179.405 C 93.858 179.279,93.286 179.176,92.664 179.176 C 92.042 179.176,91.533 179.073,91.533 178.947 C 91.533 178.822,91.185 178.719,90.760 178.719 C 90.335 178.719,89.859 178.564,89.703 178.375 C 89.521 178.156,89.014 178.032,88.302 178.032 C 87.688 178.032,87.185 177.929,87.185 177.803 C 87.185 177.677,86.825 177.574,86.384 177.574 C 85.944 177.574,85.584 177.471,85.584 177.346 C 85.584 177.220,85.352 177.116,85.069 177.115 C 84.785 177.115,84.259 176.960,83.898 176.772 C 83.538 176.584,82.946 176.430,82.583 176.430 C 82.219 176.430,81.922 176.327,81.922 176.201 C 81.922 176.076,81.671 175.973,81.364 175.973 C 81.056 175.973,80.749 175.881,80.680 175.770 C 80.611 175.658,80.180 175.497,79.723 175.411 C 79.265 175.325,78.698 175.159,78.462 175.042 C 78.225 174.924,77.827 174.725,77.577 174.600 C 77.327 174.474,76.857 174.371,76.531 174.371 C 76.206 174.371,75.785 174.216,75.597 174.027 C 75.408 173.839,75.055 173.684,74.812 173.684 C 74.569 173.684,74.371 173.581,74.371 173.455 C 74.371 173.330,74.119 173.227,73.812 173.227 C 73.505 173.227,73.190 173.124,73.112 172.998 C 73.034 172.872,72.679 172.769,72.322 172.769 C 71.957 172.769,71.616 172.619,71.542 172.426 C 71.470 172.237,71.201 172.082,70.945 172.082 C 70.690 172.082,70.481 171.979,70.481 171.854 C 70.481 171.728,70.178 171.625,69.808 171.625 C 69.437 171.625,69.071 171.522,68.993 171.396 C 68.915 171.270,68.663 171.167,68.432 171.167 C 68.201 171.167,67.953 171.013,67.881 170.824 C 67.808 170.635,67.546 170.481,67.298 170.481 C 67.049 170.481,66.783 170.378,66.705 170.252 C 66.627 170.126,66.364 170.023,66.119 170.023 C 65.875 170.023,65.675 169.920,65.675 169.794 C 65.675 169.668,65.418 169.565,65.103 169.565 C 64.788 169.565,64.531 169.478,64.531 169.371 C 64.531 169.264,64.068 168.985,63.501 168.752 C 62.935 168.518,62.471 168.245,62.471 168.145 C 62.471 168.045,62.258 167.963,61.997 167.963 C 61.737 167.963,61.380 167.835,61.204 167.677 C 60.390 166.947,60.171 166.819,59.735 166.819 C 59.478 166.819,59.268 166.716,59.268 166.590 C 59.268 166.465,59.059 166.362,58.803 166.362 C 58.547 166.362,58.285 166.225,58.221 166.057 C 58.157 165.890,57.748 165.613,57.313 165.442 C 56.878 165.272,56.522 165.048,56.522 164.946 C 56.522 164.843,56.327 164.760,56.089 164.760 C 55.850 164.760,55.596 164.605,55.524 164.416 C 55.451 164.228,55.183 164.073,54.927 164.073 C 54.671 164.073,54.462 163.970,54.462 163.844 C 54.462 163.719,54.332 163.616,54.174 163.616 C 54.015 163.616,53.608 163.358,53.269 163.043 C 52.929 162.729,52.488 162.471,52.288 162.471 C 52.088 162.471,51.667 162.214,51.352 161.899 C 51.038 161.585,50.653 161.327,50.498 161.327 C 50.342 161.327,50.067 161.121,49.886 160.870 C 49.704 160.618,49.449 160.412,49.318 160.412 C 49.187 160.412,48.802 160.154,48.463 159.840 C 48.124 159.525,47.739 159.268,47.607 159.268 C 47.476 159.268,47.368 159.165,47.368 159.039 C 47.368 158.913,47.209 158.810,47.014 158.810 C 46.819 158.810,46.421 158.553,46.130 158.238 C 45.838 157.923,45.504 157.666,45.387 157.666 C 45.270 157.666,44.760 157.280,44.253 156.808 C 43.747 156.336,42.954 155.692,42.492 155.378 C 42.029 155.063,41.650 154.728,41.649 154.634 C 41.648 154.539,41.537 154.462,41.402 154.462 C 41.104 154.462,40.503 153.887,40.503 153.602 C 40.503 153.488,40.246 153.258,39.931 153.089 C 39.617 152.921,39.359 152.698,39.359 152.593 C 39.359 152.488,39.165 152.403,38.928 152.403 C 38.685 152.403,38.443 152.196,38.373 151.928 C 38.305 151.667,38.048 151.401,37.803 151.337 C 37.557 151.273,37.223 150.971,37.061 150.667 C 36.898 150.363,36.665 150.114,36.544 150.114 C 36.299 150.114,35.241 148.954,35.241 148.684 C 35.240 148.590,35.130 148.513,34.995 148.513 C 34.728 148.513,34.096 147.949,34.096 147.712 C 34.096 147.474,33.464 146.911,33.197 146.911 C 33.062 146.911,32.952 146.773,32.952 146.604 C 32.952 146.435,32.489 145.806,31.922 145.207 C 31.356 144.607,30.892 144.042,30.892 143.951 C 30.892 143.859,30.658 143.659,30.371 143.505 C 30.084 143.352,29.707 142.897,29.531 142.494 C 29.356 142.092,28.973 141.535,28.680 141.258 C 28.386 140.981,28.146 140.630,28.146 140.478 C 28.146 140.208,26.827 138.902,26.554 138.902 C 26.479 138.902,26.240 139.109,26.023 139.362 " stroke="none" fill="#000000" fill-rule="evenodd"></path></g></svg>