<svg id="svg" version="1.1" xmlns="http://www.w3.org/2000/svg" xmlns:xlink="http://www.w3.org/1999/xlink" width="400" height="63.533610945865554" viewBox="0, 0, 400,63.533610945865554"><g id="svgg"><path id="path0" d="M0.000 10.583 L 0.000 21.167 4.396 21.167 C 8.022 21.167,8.903 21.121,9.422 20.904 C 9.768 20.759,10.189 20.677,10.359 20.722 C 10.528 20.766,10.625 20.734,10.574 20.652 C 10.483 20.504,10.465 10.646,10.556 10.555 C 10.581 10.530,12.823 10.503,15.537 10.495 L 20.471 10.481 20.777 9.866 C 21.048 9.321,21.089 8.717,21.132 4.625 L 21.182 0.000 10.591 0.000 L 0.000 0.000 0.000 10.583 M42.333 4.820 C 42.333 7.471,42.288 9.758,42.232 9.903 C 42.166 10.076,42.223 10.167,42.399 10.167 C 42.546 10.167,42.667 10.244,42.667 10.338 C 42.667 10.452,44.404 10.494,47.917 10.463 L 53.167 10.417 53.167 15.789 L 53.167 21.162 59.000 21.156 L 64.833 21.150 64.833 10.838 C 64.833 5.167,64.788 0.409,64.732 0.264 C 64.641 0.027,63.495 -0.000,53.482 -0.000 L 42.333 0.000 42.333 4.820 M26.285 16.161 C 29.421 19.319,32.008 21.868,32.035 21.826 C 32.062 21.784,29.496 19.201,26.333 16.085 L 20.583 10.419 26.285 16.161 M11.493 21.708 C 12.184 22.444,12.333 22.577,12.333 22.451 C 12.333 22.425,11.977 22.068,11.542 21.660 L 10.750 20.917 11.493 21.708 M16.833 27.052 C 16.833 27.081,17.077 27.325,17.375 27.594 L 17.917 28.083 17.427 27.542 C 16.971 27.037,16.833 26.923,16.833 27.052 M41.667 31.432 C 41.667 31.517,43.223 33.123,45.125 35.002 L 48.583 38.417 45.167 34.923 C 43.288 33.001,41.731 31.395,41.708 31.353 C 41.685 31.312,41.667 31.347,41.667 31.432 M21.595 31.858 C 21.772 32.100,21.978 32.262,22.053 32.216 C 22.128 32.171,22.165 32.121,22.136 32.107 C 22.107 32.092,21.901 31.931,21.678 31.748 L 21.273 31.417 21.595 31.858 M22.367 37.198 C 22.349 39.279,22.390 41.015,22.458 41.058 C 22.527 41.101,22.564 39.999,22.540 38.609 C 22.460 33.886,22.401 33.408,22.367 37.198 M50.750 40.667 C 51.939 41.858,52.949 42.833,52.995 42.833 C 53.041 42.833,52.106 41.858,50.917 40.667 C 49.728 39.475,48.717 38.500,48.671 38.500 C 48.626 38.500,49.561 39.475,50.750 40.667 M23.224 41.039 C 23.330 41.106,24.729 41.162,26.333 41.162 C 27.938 41.162,29.337 41.106,29.442 41.039 C 29.548 40.972,28.149 40.917,26.333 40.917 C 24.518 40.917,23.118 40.972,23.224 41.039 M0.000 52.914 L 0.000 63.500 10.583 63.500 L 21.167 63.500 21.167 58.344 L 21.167 53.189 21.625 53.136 C 21.877 53.107,19.458 53.111,16.250 53.145 L 10.417 53.206 10.417 47.811 L 10.417 42.417 5.208 42.373 L 0.000 42.329 0.000 52.914 M53.875 42.621 C 53.577 42.771,53.333 42.960,53.333 43.040 C 53.333 43.121,53.277 43.151,53.208 43.109 C 53.140 43.066,53.121 45.317,53.167 48.110 L 53.250 53.189 48.044 53.136 C 44.638 53.102,42.846 53.141,42.861 53.250 C 42.874 53.342,42.760 53.696,42.609 54.036 C 42.375 54.562,42.333 55.326,42.333 59.078 L 42.333 63.500 53.482 63.500 C 63.495 63.500,64.641 63.473,64.732 63.236 C 64.788 63.091,64.833 58.335,64.833 52.666 L 64.833 42.359 59.625 42.354 C 55.128 42.349,54.343 42.386,53.875 42.621 " stroke="none" fill="#8699b8" fill-rule="evenodd"></path><path id="path1" d="M21.132 4.625 C 21.088 8.787,21.051 9.314,20.764 9.893 L 20.445 10.536 26.357 16.435 C 29.608 19.679,32.377 22.332,32.509 22.331 C 32.713 22.329,32.711 22.303,32.500 22.167 C 32.362 22.078,32.335 22.004,32.438 22.003 C 32.541 22.001,32.719 22.112,32.833 22.250 C 33.007 22.460,33.691 22.500,37.062 22.500 L 41.083 22.500 41.036 26.519 C 40.992 30.209,41.013 30.558,41.286 30.781 C 41.449 30.915,41.490 30.977,41.375 30.919 C 40.562 30.507,41.913 31.983,47.125 37.201 L 53.083 43.165 53.039 48.080 L 52.995 52.995 48.289 53.042 L 43.583 53.089 48.417 53.128 L 53.250 53.167 53.202 48.375 C 53.135 41.680,52.476 42.315,59.478 42.334 C 62.194 42.341,64.510 42.344,64.625 42.340 C 64.789 42.335,64.833 40.102,64.833 31.750 C 64.833 23.397,64.789 21.166,64.625 21.162 C 64.510 21.160,61.886 21.159,58.794 21.160 L 53.171 21.162 53.124 15.706 C 53.097 12.705,53.078 14.918,53.080 20.624 L 53.083 30.998 48.333 26.267 C 45.721 23.664,43.420 21.452,43.219 21.351 C 42.737 21.107,42.280 21.112,42.433 21.359 C 42.501 21.469,42.479 21.507,42.381 21.446 C 42.288 21.389,42.245 21.164,42.287 20.947 C 42.331 20.715,42.248 20.439,42.086 20.276 C 41.934 20.124,41.871 20.000,41.945 20.000 C 42.020 20.000,39.945 17.863,37.333 15.250 L 32.586 10.500 37.626 10.500 C 40.875 10.500,42.667 10.441,42.667 10.333 C 42.667 10.242,42.573 10.167,42.458 10.167 C 42.295 10.167,42.261 9.065,42.299 5.083 L 42.347 0.000 31.764 0.000 L 21.182 0.000 21.132 4.625 M32.035 21.826 C 32.008 21.868,29.421 19.319,26.285 16.161 L 20.583 10.419 26.333 16.085 C 29.496 19.201,32.062 21.784,32.035 21.826 M10.479 20.529 C 10.656 20.767,10.640 20.795,10.368 20.724 C 10.194 20.678,9.768 20.759,9.422 20.904 C 8.903 21.121,8.022 21.167,4.396 21.167 L 0.000 21.167 0.000 31.745 L 0.000 42.324 5.250 42.370 L 10.500 42.417 10.500 37.504 L 10.500 32.591 15.298 37.379 C 19.492 41.563,20.813 42.746,20.414 41.958 C 20.356 41.844,20.416 41.881,20.548 42.042 C 20.825 42.380,21.110 42.420,21.206 42.133 C 21.258 41.977,21.300 41.977,21.396 42.133 C 21.464 42.243,21.440 42.333,21.343 42.333 C 21.069 42.333,21.135 42.687,21.458 42.952 C 21.619 43.084,21.656 43.144,21.542 43.086 C 20.762 42.691,21.926 43.993,26.083 48.167 C 28.696 50.789,30.833 52.969,30.833 53.009 C 30.834 53.050,29.052 53.059,26.875 53.030 C 24.698 53.001,22.523 53.025,22.042 53.084 L 21.167 53.191 21.167 58.345 L 21.167 63.500 31.750 63.500 L 42.333 63.500 42.333 59.078 C 42.333 55.326,42.375 54.562,42.609 54.036 C 42.760 53.696,42.868 53.315,42.848 53.192 C 42.825 53.050,42.893 53.012,43.031 53.090 C 43.151 53.157,42.768 52.719,42.179 52.114 C 41.591 51.510,41.028 51.062,40.929 51.118 C 40.831 51.174,40.808 51.156,40.879 51.078 C 41.046 50.894,39.496 49.316,39.280 49.450 C 39.189 49.506,39.163 49.473,39.222 49.378 C 39.356 49.162,38.936 48.791,38.750 48.960 C 38.675 49.028,38.661 49.000,38.719 48.897 C 38.851 48.667,38.276 48.118,38.085 48.291 C 38.009 48.360,37.995 48.331,38.055 48.227 C 38.186 47.997,37.775 47.619,37.583 47.793 C 37.508 47.861,37.495 47.831,37.555 47.727 C 37.686 47.497,37.275 47.119,37.083 47.293 C 37.008 47.361,36.994 47.333,37.053 47.231 C 37.184 47.001,36.609 46.452,36.418 46.625 C 36.342 46.694,36.329 46.665,36.388 46.561 C 36.519 46.331,36.108 45.953,35.916 46.126 C 35.841 46.194,35.826 46.170,35.881 46.071 C 36.013 45.841,33.279 43.114,33.090 43.286 C 33.011 43.358,32.993 43.334,33.051 43.234 C 33.182 43.004,32.277 42.117,32.087 42.289 C 32.010 42.359,31.994 42.334,32.051 42.233 C 32.284 41.825,31.102 41.078,30.083 40.987 C 29.055 40.896,23.302 40.906,22.833 41.000 L 22.417 41.083 22.394 37.040 C 22.377 33.899,22.321 32.934,22.144 32.716 C 21.952 32.479,21.952 32.457,22.147 32.575 C 22.306 32.671,22.351 32.643,22.292 32.482 C 22.246 32.354,22.143 32.262,22.063 32.276 C 21.982 32.290,21.772 32.103,21.595 31.859 L 21.273 31.417 21.678 31.747 C 21.985 31.998,21.965 31.948,21.594 31.539 C 21.098 30.993,20.883 30.842,21.099 31.192 C 21.174 31.313,21.145 31.340,21.023 31.264 C 20.916 31.198,20.866 31.082,20.912 31.007 C 21.029 30.818,20.583 30.475,20.416 30.626 C 20.341 30.694,20.329 30.665,20.388 30.561 C 20.490 30.382,20.031 29.853,19.877 29.972 C 19.838 30.003,19.756 29.972,19.694 29.904 C 19.633 29.836,19.696 29.842,19.833 29.919 C 19.993 30.007,19.968 29.926,19.766 29.695 C 19.425 29.306,19.238 29.212,19.433 29.526 C 19.507 29.646,19.478 29.673,19.356 29.598 C 19.249 29.531,19.199 29.416,19.245 29.341 C 19.363 29.151,18.917 28.808,18.750 28.960 C 18.675 29.028,18.662 28.998,18.721 28.894 C 18.823 28.715,18.364 28.186,18.210 28.306 C 18.171 28.336,18.089 28.305,18.028 28.237 C 17.967 28.169,18.029 28.173,18.167 28.247 C 18.304 28.320,18.007 27.957,17.506 27.440 C 16.609 26.515,16.365 26.313,16.599 26.692 C 16.674 26.813,16.645 26.840,16.523 26.764 C 16.416 26.698,16.366 26.582,16.412 26.507 C 16.529 26.318,16.083 25.975,15.916 26.126 C 15.841 26.194,15.825 26.170,15.881 26.072 C 15.936 25.975,14.697 24.625,13.127 23.072 C 11.557 21.520,10.365 20.375,10.479 20.529 M12.333 22.451 C 12.333 22.577,12.184 22.444,11.493 21.708 L 10.750 20.917 11.542 21.660 C 11.977 22.068,12.333 22.425,12.333 22.451 M17.427 27.542 L 17.917 28.083 17.375 27.594 C 16.870 27.138,16.757 27.000,16.885 27.000 C 16.914 27.000,17.158 27.244,17.427 27.542 M45.167 34.923 L 48.583 38.417 45.125 35.002 C 43.223 33.123,41.667 31.517,41.667 31.432 C 41.667 31.347,41.685 31.312,41.708 31.353 C 41.731 31.395,43.288 33.001,45.167 34.923 M50.917 40.667 C 52.106 41.858,53.041 42.833,52.995 42.833 C 52.949 42.833,51.939 41.858,50.750 40.667 C 49.561 39.475,48.626 38.500,48.671 38.500 C 48.717 38.500,49.728 39.475,50.917 40.667 M27.875 41.124 C 27.027 41.154,25.640 41.154,24.792 41.124 C 23.944 41.094,24.637 41.069,26.333 41.069 C 28.029 41.069,28.723 41.094,27.875 41.124 M12.802 53.125 C 14.206 53.153,16.456 53.153,17.802 53.125 C 19.148 53.097,18.000 53.074,15.250 53.074 C 12.500 53.074,11.398 53.097,12.802 53.125 " stroke="none" fill="#b2bccc" fill-rule="evenodd"></path><path id="path2" d="M92.121 2.252 C 82.502 3.869,76.608 12.849,78.722 22.667 C 81.358 34.910,96.651 39.466,106.540 30.954 C 109.069 28.778,109.037 28.060,106.282 25.167 C 103.419 22.160,102.827 21.994,101.041 23.697 C 96.887 27.658,91.054 26.978,88.747 22.265 C 84.793 14.188,94.927 7.212,101.248 13.660 C 103.010 15.459,103.798 15.251,106.352 12.315 C 108.448 9.904,108.472 9.867,108.488 8.917 C 108.502 8.044,108.117 7.443,106.815 6.305 C 102.822 2.815,97.502 1.347,92.121 2.252 M146.153 2.247 C 128.609 5.203,127.474 30.026,144.670 34.695 C 146.755 35.261,151.745 35.261,153.830 34.695 C 171.053 30.019,169.893 5.106,152.319 2.256 C 150.462 1.955,147.911 1.951,146.153 2.247 M112.280 2.820 C 110.983 3.088,111.089 1.765,111.038 18.350 C 110.990 34.147,111.001 34.382,111.769 34.674 C 112.409 34.917,131.538 34.885,132.076 34.640 C 132.732 34.341,132.867 33.505,132.805 30.127 L 132.750 27.137 132.282 26.735 L 131.815 26.333 126.074 26.333 L 120.333 26.333 120.332 15.375 C 120.331 4.011,120.299 3.439,119.628 3.005 C 119.199 2.727,113.431 2.581,112.280 2.820 M169.780 2.820 C 168.498 3.085,168.583 2.317,168.583 13.631 C 168.583 25.945,168.785 27.124,171.451 30.413 C 176.923 37.163,189.388 36.729,194.111 29.625 C 196.255 26.400,196.500 24.715,196.499 13.229 C 196.498 4.025,196.450 3.334,195.784 2.969 C 194.844 2.454,188.312 2.610,187.627 3.165 L 187.250 3.470 187.164 12.860 C 187.079 22.197,187.076 22.255,186.692 23.214 C 184.803 27.923,179.377 27.524,178.090 22.580 C 177.875 21.756,177.833 20.187,177.833 12.907 C 177.833 3.819,177.799 3.346,177.107 2.960 C 176.688 2.726,170.781 2.612,169.780 2.820 M202.083 2.776 C 200.367 3.139,200.500 1.797,200.500 18.750 C 200.500 34.353,200.493 34.217,201.308 34.653 C 201.872 34.955,214.712 34.892,216.667 34.577 C 225.294 33.190,229.704 28.130,229.957 19.328 C 230.239 9.570,224.990 3.700,215.217 2.843 C 213.354 2.679,202.794 2.626,202.083 2.776 M245.494 2.812 C 243.906 3.147,244.000 2.142,244.000 18.833 C 244.000 34.634,243.981 34.311,244.919 34.668 C 245.501 34.889,252.260 34.884,252.674 34.663 C 253.391 34.279,253.413 34.062,253.500 26.667 L 253.583 19.583 259.167 26.949 C 263.210 32.284,264.900 34.389,265.294 34.583 C 266.280 35.069,273.258 34.880,273.682 34.357 C 273.990 33.976,274.000 33.477,274.000 18.807 L 274.000 3.652 273.606 3.257 C 272.966 2.617,266.435 2.388,265.382 2.968 C 264.732 3.327,264.669 4.084,264.668 11.562 L 264.667 18.707 262.639 16.062 C 261.524 14.607,259.561 12.029,258.276 10.333 C 253.708 4.304,252.806 3.164,252.447 2.964 C 252.029 2.732,246.451 2.610,245.494 2.812 M288.614 2.828 C 287.565 3.031,288.073 2.050,283.425 12.833 C 282.299 15.446,279.930 20.920,278.160 24.999 C 274.638 33.117,274.471 33.653,275.222 34.404 L 275.652 34.833 279.501 34.833 C 284.444 34.833,283.954 35.101,285.497 31.551 C 286.166 30.011,286.797 28.695,286.898 28.628 C 287.000 28.560,289.313 28.504,292.038 28.503 L 296.992 28.500 297.231 28.875 C 297.363 29.081,297.935 30.337,298.503 31.667 C 299.940 35.026,299.448 34.740,303.879 34.802 C 310.283 34.891,310.186 35.125,306.881 27.522 C 305.740 24.897,303.789 20.387,302.546 17.500 C 300.289 12.259,298.905 9.058,297.387 5.570 C 296.324 3.126,296.228 2.998,295.331 2.825 C 294.434 2.652,289.512 2.654,288.614 2.828 M306.594 2.831 C 305.397 3.062,305.333 3.267,305.333 6.926 C 305.333 10.091,305.340 10.156,305.735 10.616 L 306.137 11.083 309.899 11.134 L 313.660 11.184 313.705 22.670 C 313.747 33.439,313.769 34.173,314.048 34.452 C 314.317 34.722,314.728 34.750,318.354 34.750 L 322.363 34.750 322.681 34.357 C 322.988 33.978,323.000 33.539,323.000 22.574 L 323.000 11.184 326.765 11.134 L 330.529 11.083 330.931 10.616 C 331.326 10.156,331.333 10.091,331.333 6.926 C 331.333 3.223,331.285 3.074,329.994 2.825 C 329.083 2.649,307.510 2.655,306.594 2.831 M334.833 2.780 C 333.252 3.036,333.333 2.173,333.333 18.780 C 333.333 34.393,333.324 34.216,334.158 34.662 C 334.930 35.075,341.980 34.812,342.348 34.357 C 342.829 33.763,342.848 3.928,342.369 3.336 C 341.907 2.765,337.108 2.411,334.833 2.780 M344.764 2.823 C 343.485 3.085,343.330 4.157,344.237 6.465 C 347.980 15.989,355.410 34.151,355.671 34.412 C 356.189 34.930,362.818 34.934,363.305 34.417 C 363.477 34.233,364.534 31.796,365.652 29.000 C 366.771 26.204,369.406 19.634,371.509 14.400 C 375.569 4.296,375.645 4.048,374.931 3.218 L 374.529 2.750 370.549 2.750 C 367.108 2.750,366.511 2.788,366.143 3.029 C 365.800 3.254,365.123 4.797,362.650 10.986 C 360.964 15.209,359.535 18.665,359.475 18.665 C 359.416 18.666,358.008 15.273,356.347 11.125 C 353.007 2.782,353.243 3.304,352.667 2.987 C 352.187 2.723,345.888 2.592,344.764 2.823 M377.667 2.776 C 376.085 3.046,376.167 2.172,376.167 18.780 C 376.167 34.350,376.160 34.217,376.975 34.653 C 377.336 34.847,399.240 34.923,399.736 34.732 C 400.135 34.579,400.135 26.588,399.736 26.434 C 399.591 26.379,396.329 26.333,392.486 26.333 L 385.500 26.333 385.500 24.674 L 385.500 23.015 391.681 22.966 L 397.863 22.917 398.265 22.449 C 398.827 21.795,398.896 15.820,398.348 15.143 L 398.030 14.750 391.765 14.703 L 385.500 14.655 385.500 12.994 L 385.500 11.333 392.156 11.333 C 398.697 11.333,399.557 11.272,399.869 10.781 C 399.938 10.672,399.996 8.954,399.997 6.962 L 400.000 3.341 399.549 3.046 C 399.120 2.764,379.176 2.519,377.667 2.776 M150.720 10.749 C 156.628 12.288,158.578 20.006,154.185 24.468 C 149.489 29.237,142.025 25.616,142.004 18.559 C 141.989 13.580,146.403 9.625,150.720 10.749 M215.391 11.597 C 219.144 12.564,221.102 15.844,220.517 20.186 C 219.956 24.357,217.165 26.322,211.792 26.330 L 209.833 26.333 209.833 18.724 L 209.833 11.115 212.099 11.224 C 213.345 11.283,214.826 11.451,215.391 11.597 M292.730 18.237 C 293.524 20.084,293.559 20.000,292.000 20.000 C 290.425 20.000,290.451 20.063,291.275 18.208 C 292.025 16.521,291.993 16.521,292.730 18.237 M84.667 43.930 C 75.183 46.432,75.116 60.653,84.577 63.079 C 86.071 63.462,89.342 63.423,90.693 63.005 C 93.082 62.267,95.309 60.461,95.493 59.111 L 95.587 58.417 96.109 59.167 C 100.339 65.243,110.445 64.664,113.551 58.167 C 116.320 52.372,113.521 45.633,107.669 44.012 C 103.332 42.810,98.182 44.490,96.157 47.766 C 95.743 48.435,95.500 48.369,95.500 47.587 C 95.500 45.124,88.763 42.850,84.667 43.930 M218.833 43.930 C 210.992 45.993,209.046 56.994,215.696 61.665 C 219.248 64.159,225.302 63.947,228.639 61.213 C 229.790 60.270,229.860 59.966,229.801 56.153 C 229.736 51.915,229.870 52.108,226.946 52.025 C 223.615 51.931,223.336 52.189,223.334 55.365 C 223.333 57.239,223.355 57.211,221.829 57.225 C 217.429 57.266,217.103 50.293,221.485 49.872 C 222.445 49.780,223.325 50.038,224.284 50.693 C 225.876 51.781,226.780 51.523,228.075 49.615 C 229.686 47.241,229.335 46.030,226.660 44.720 C 224.521 43.672,221.117 43.329,218.833 43.930 M257.083 43.982 C 253.709 44.966,250.369 48.543,250.337 51.208 C 250.332 51.582,250.232 51.575,249.712 51.167 C 249.322 50.860,249.036 50.833,246.144 50.833 L 243.000 50.833 243.000 50.417 L 243.000 50.000 246.258 50.000 C 250.794 50.000,250.661 50.098,250.664 46.784 C 250.667 44.918,250.646 44.798,250.258 44.409 L 249.848 44.000 243.693 44.000 C 237.881 44.000,237.515 44.018,237.143 44.319 L 236.750 44.637 236.704 53.424 C 236.648 64.073,236.414 63.331,239.833 63.331 C 242.872 63.331,243.000 63.179,243.000 59.546 L 243.000 56.833 245.125 56.823 C 248.429 56.807,249.638 56.647,249.992 56.177 L 250.287 55.787 250.638 56.943 C 253.362 65.913,267.437 65.393,269.893 56.231 L 270.291 54.750 270.416 55.917 C 271.016 61.475,275.999 64.687,281.511 63.067 C 286.096 61.721,287.169 59.530,287.288 51.277 C 287.398 43.698,287.527 44.000,284.185 44.000 C 280.647 44.000,280.860 43.598,280.797 50.417 C 280.755 54.989,280.716 55.645,280.455 56.123 C 279.645 57.605,277.979 57.585,277.110 56.083 C 276.979 55.858,276.890 53.978,276.833 50.277 L 276.750 44.804 276.282 44.402 C 275.565 43.786,271.602 43.785,270.884 44.402 L 270.417 44.804 270.333 48.444 C 270.253 51.958,270.242 52.052,270.019 51.167 C 268.586 45.486,262.850 42.300,257.083 43.982 M370.000 43.930 C 363.788 45.569,360.946 52.853,364.228 58.722 C 367.833 65.168,378.839 64.823,381.951 58.167 C 385.776 49.983,378.756 41.620,370.000 43.930 M115.706 44.173 C 115.031 44.444,115.000 44.867,115.000 53.768 L 115.000 62.348 115.396 62.744 C 115.897 63.246,116.897 63.402,118.932 63.295 C 121.235 63.175,121.496 62.820,121.506 59.797 L 121.513 57.917 122.381 59.574 C 123.504 61.717,123.756 61.900,125.583 61.900 C 127.435 61.900,127.656 61.733,128.868 59.408 L 129.820 57.583 129.827 59.921 C 129.836 63.128,130.025 63.331,133.000 63.331 C 136.407 63.331,136.167 64.073,136.167 53.539 L 136.167 44.818 135.758 44.409 C 135.354 44.005,135.311 44.000,132.350 44.000 C 128.645 44.000,128.981 43.762,127.107 47.717 C 126.334 49.348,125.638 50.661,125.562 50.633 C 125.485 50.606,124.802 49.271,124.043 47.667 C 122.207 43.785,122.502 43.997,118.949 44.011 C 117.373 44.016,115.913 44.089,115.706 44.173 M138.217 44.191 C 137.538 44.534,137.500 45.034,137.500 53.504 C 137.500 64.124,137.209 63.250,140.743 63.250 C 143.779 63.250,144.000 63.036,144.000 60.106 L 144.000 58.667 145.125 58.661 C 148.849 58.642,151.434 57.419,152.576 55.135 C 153.138 54.013,153.167 53.984,153.167 54.539 C 153.167 60.161,156.590 63.497,162.149 63.295 C 167.868 63.087,169.983 60.442,170.128 53.318 L 170.205 49.552 170.811 49.769 C 171.144 49.888,172.110 49.989,172.958 49.993 L 174.500 50.000 174.500 55.839 C 174.500 63.598,174.348 63.250,177.741 63.250 C 181.224 63.250,180.996 63.779,180.998 55.708 L 181.000 50.000 182.458 49.999 C 184.186 49.998,185.063 49.787,185.412 49.290 C 185.642 48.961,185.667 49.562,185.667 55.592 C 185.667 61.306,185.703 62.311,185.922 62.623 C 186.660 63.678,191.239 63.581,191.785 62.500 C 192.123 61.829,192.091 45.325,191.750 44.666 C 191.294 43.785,186.599 43.663,185.963 44.516 L 185.640 44.948 185.166 44.474 L 184.692 44.000 177.800 44.000 C 171.768 44.000,170.860 44.033,170.529 44.265 C 170.183 44.508,170.103 44.508,169.592 44.265 C 168.926 43.949,165.027 43.884,164.475 44.180 C 163.746 44.570,163.667 45.182,163.667 50.417 C 163.667 56.335,163.416 57.233,161.767 57.233 C 160.022 57.233,159.834 56.590,159.832 50.630 C 159.831 43.753,159.954 44.000,156.535 44.000 C 153.405 44.000,153.320 44.073,153.171 46.917 C 153.076 48.720,153.071 48.739,152.854 48.075 C 152.314 46.419,150.891 45.142,148.833 44.465 C 147.558 44.046,138.944 43.823,138.217 44.191 M193.884 44.402 L 193.417 44.804 193.369 53.154 C 193.308 63.826,193.133 63.172,196.083 63.292 C 199.595 63.435,199.719 63.295,199.833 59.062 L 199.917 55.980 202.464 59.324 C 205.538 63.357,205.345 63.211,207.727 63.296 C 211.577 63.434,211.328 64.103,211.331 53.617 C 211.334 43.059,211.659 44.006,208.031 44.002 C 204.892 43.999,204.947 43.926,204.833 48.302 L 204.750 51.521 204.083 50.638 C 200.595 46.014,199.423 44.541,199.036 44.293 C 198.251 43.788,194.505 43.868,193.884 44.402 M289.123 44.115 C 288.358 44.315,288.333 44.618,288.333 53.749 L 288.333 62.348 288.729 62.744 C 289.232 63.247,290.231 63.402,292.283 63.294 C 294.638 63.171,294.563 63.301,294.667 59.143 L 294.750 55.794 297.417 59.308 C 300.532 63.413,300.295 63.251,303.167 63.248 C 306.591 63.246,306.359 63.994,306.298 53.154 L 306.250 44.804 305.782 44.402 C 305.065 43.785,301.102 43.785,300.384 44.402 L 299.917 44.804 299.833 48.162 L 299.750 51.520 297.083 48.027 C 295.617 46.105,294.218 44.413,293.974 44.267 C 293.547 44.009,289.960 43.897,289.123 44.115 M308.456 44.108 C 307.691 44.326,307.667 44.618,307.667 53.749 L 307.667 62.348 308.062 62.744 C 308.626 63.308,309.546 63.397,313.578 63.281 C 318.901 63.128,321.140 62.420,323.118 60.266 C 323.631 59.707,323.992 59.400,323.920 59.583 C 322.675 62.746,323.056 63.250,326.696 63.250 C 329.287 63.250,329.494 63.139,330.275 61.317 C 331.022 59.575,330.843 59.667,333.486 59.667 C 336.114 59.667,335.873 59.536,336.666 61.390 C 337.381 63.063,337.593 63.198,339.660 63.297 C 345.023 63.556,345.140 64.354,337.122 46.031 C 336.249 44.036,336.183 44.000,333.364 44.000 C 330.644 44.000,330.651 43.996,329.532 46.624 C 326.147 54.575,324.842 57.469,325.079 56.500 C 326.449 50.879,323.803 45.816,318.750 44.392 C 317.769 44.116,309.256 43.881,308.456 44.108 M341.044 44.255 C 340.551 44.600,340.333 45.487,340.347 47.083 C 340.369 49.628,340.740 49.974,343.458 49.991 L 345.000 50.000 345.002 56.042 C 345.006 63.731,344.858 63.432,348.583 63.295 C 351.628 63.183,351.500 63.514,351.500 55.772 L 351.500 50.000 352.958 49.999 C 354.742 49.998,355.633 49.775,355.832 49.281 C 355.921 49.061,355.983 51.384,355.990 55.167 C 356.006 63.500,355.895 63.189,358.881 63.296 C 361.033 63.373,361.952 63.158,362.285 62.500 C 362.617 61.841,362.591 45.327,362.257 44.680 C 361.586 43.383,356.189 43.771,356.160 45.117 C 356.156 45.302,356.066 45.214,355.924 44.888 C 355.797 44.597,355.543 44.279,355.358 44.180 C 354.773 43.867,341.498 43.936,341.044 44.255 M384.123 44.115 C 383.359 44.315,383.333 44.621,383.333 53.705 C 383.333 64.072,383.091 63.356,386.583 63.313 C 389.687 63.274,389.721 63.230,389.833 59.071 L 389.917 55.998 392.417 59.278 C 395.585 63.435,395.321 63.244,397.883 63.247 L 399.917 63.250 399.960 53.625 L 400.003 44.000 397.990 44.000 C 394.898 44.000,394.946 43.934,394.833 48.299 L 394.750 51.514 392.028 47.944 C 390.531 45.981,389.121 44.290,388.895 44.187 C 388.500 44.007,384.754 43.951,384.123 44.115 M105.714 49.897 C 108.170 50.951,108.761 54.380,106.822 56.319 C 104.876 58.265,101.949 57.239,101.168 54.338 C 100.450 51.670,103.317 48.869,105.714 49.897 M261.489 49.994 C 263.791 51.169,264.352 54.129,262.642 56.072 C 260.862 58.094,258.244 57.631,257.059 55.085 C 255.668 52.099,258.727 48.585,261.489 49.994 M374.542 50.158 C 376.920 51.666,376.955 55.221,374.606 56.792 C 372.917 57.921,370.782 57.159,369.817 55.083 C 368.363 51.953,371.771 48.400,374.542 50.158 M89.417 50.394 C 89.692 50.550,90.241 50.937,90.638 51.255 C 91.888 52.257,92.745 52.087,94.264 50.533 C 95.014 49.765,95.026 49.760,94.916 50.250 C 94.366 52.704,94.437 55.521,95.094 57.250 C 95.164 57.433,94.691 57.077,94.043 56.458 C 92.547 55.029,91.508 54.875,90.358 55.914 C 88.272 57.799,85.679 57.453,84.485 55.132 C 82.936 52.120,86.471 48.725,89.417 50.394 M146.115 50.179 C 147.710 50.783,146.658 52.667,144.725 52.667 L 144.000 52.667 144.000 51.234 L 144.000 49.802 144.875 49.922 C 145.356 49.988,145.914 50.104,146.115 50.179 M317.282 50.603 C 320.394 52.530,318.823 57.167,315.058 57.167 L 314.167 57.167 314.167 53.561 L 314.167 49.955 315.337 50.039 C 316.240 50.104,316.683 50.232,317.282 50.603 " stroke="none" fill="#8699b8" fill-rule="evenodd"></path><path id="path3" d="" stroke="none" fill="#3c6838" fill-rule="evenodd"></path><path id="path4" d="" stroke="none" fill="#400438" fill-rule="evenodd"></path></g></svg>