<svg id="svg" version="1.1" xmlns="http://www.w3.org/2000/svg" xmlns:xlink="http://www.w3.org/1999/xlink" width="400" height="148.38709677419354" viewBox="0, 0, 400,148.38709677419354"><g id="svgg"><path id="path0" d="M91.200 6.916 C 85.604 8.489,82.619 13.251,83.665 18.937 C 84.136 21.494,85.518 23.484,88.187 25.446 C 93.573 29.406,102.609 25.194,103.332 18.387 C 103.505 16.758,103.285 14.074,102.915 13.298 C 100.576 8.390,95.599 5.679,91.200 6.916 M106.580 22.076 C 106.235 22.401,105.887 22.667,105.805 22.667 C 105.723 22.667,105.300 23.023,104.864 23.458 C 104.429 23.894,103.925 24.371,103.744 24.518 C 103.564 24.666,103.227 25.003,102.994 25.268 C 102.762 25.533,102.130 26.125,101.591 26.583 C 101.052 27.042,100.263 27.754,99.837 28.167 C 99.114 28.868,98.223 29.606,95.760 31.545 C 95.205 31.983,94.375 32.642,93.917 33.011 C 93.458 33.379,92.732 33.922,92.303 34.216 C 91.471 34.785,89.330 36.387,87.853 37.546 C 87.360 37.933,86.594 38.475,86.151 38.750 C 85.709 39.025,84.687 39.705,83.881 40.262 C 83.076 40.818,81.967 41.522,81.417 41.826 C 80.867 42.130,80.192 42.568,79.917 42.799 C 79.642 43.030,79.079 43.376,78.667 43.570 C 78.254 43.763,77.005 44.520,75.891 45.252 C 73.551 46.790,72.257 47.562,71.083 48.123 C 69.743 48.762,69.185 49.060,67.333 50.121 C 66.371 50.673,65.062 51.333,64.425 51.587 C 63.788 51.841,62.926 52.266,62.508 52.531 C 62.091 52.795,61.264 53.162,60.671 53.345 C 60.077 53.529,59.290 53.854,58.921 54.068 C 58.110 54.539,54.604 56.015,53.333 56.421 C 52.829 56.582,51.911 56.966,51.294 57.274 C 50.676 57.583,49.519 57.987,48.722 58.173 C 47.925 58.359,46.930 58.666,46.512 58.855 C 46.093 59.044,44.813 59.523,43.667 59.918 C 36.209 62.491,33.602 63.220,30.892 63.491 C 29.970 63.583,29.111 63.773,28.720 63.973 C 27.690 64.498,26.375 64.797,24.606 64.907 C 23.477 64.977,22.511 65.157,21.523 65.481 C 20.507 65.814,19.555 65.988,18.289 66.071 C 14.334 66.331,13.978 67.155,17.603 67.659 C 18.302 67.756,19.183 67.972,19.562 68.139 C 19.940 68.306,21.938 68.987,24.000 69.651 C 26.063 70.316,28.232 71.123,28.821 71.443 C 29.410 71.764,30.468 72.169,31.171 72.344 C 31.874 72.519,33.642 73.233,35.100 73.930 C 36.557 74.626,38.200 75.367,38.750 75.575 C 39.301 75.784,40.045 76.154,40.405 76.398 C 40.764 76.642,41.571 76.997,42.197 77.187 C 42.823 77.378,43.580 77.699,43.879 77.902 C 44.177 78.104,45.470 78.782,46.752 79.407 C 48.034 80.032,49.458 80.825,49.917 81.168 C 50.375 81.511,51.033 81.883,51.380 81.994 C 51.726 82.105,52.401 82.462,52.880 82.787 C 53.358 83.112,54.650 83.898,55.750 84.534 C 56.850 85.169,57.975 85.901,58.250 86.159 C 58.525 86.418,59.012 86.761,59.333 86.921 C 59.654 87.082,60.150 87.409,60.436 87.648 C 60.722 87.887,61.397 88.365,61.936 88.710 C 63.650 89.806,64.021 90.069,64.727 90.687 C 65.106 91.020,65.880 91.524,66.446 91.809 C 67.012 92.093,67.524 92.404,67.582 92.499 C 67.641 92.594,68.528 93.299,69.553 94.066 C 70.578 94.833,71.566 95.627,71.750 95.831 C 71.933 96.034,72.306 96.316,72.578 96.457 C 72.851 96.598,73.488 97.099,73.995 97.571 C 74.502 98.042,75.367 98.796,75.917 99.246 C 76.992 100.127,77.723 100.794,79.169 102.213 C 79.821 102.853,80.270 103.149,80.714 103.232 C 81.430 103.367,81.995 104.085,82.356 105.323 C 82.527 105.910,82.960 106.458,84.467 107.989 C 85.509 109.049,86.633 110.254,86.965 110.667 C 87.297 111.079,88.172 112.058,88.909 112.841 C 90.505 114.536,91.635 115.876,92.059 116.574 C 92.228 116.854,92.678 117.389,93.059 117.762 C 93.439 118.136,94.087 118.869,94.500 119.392 C 94.912 119.915,95.475 120.615,95.750 120.948 C 96.025 121.281,96.513 122.014,96.833 122.575 C 97.560 123.848,99.182 125.418,99.470 125.130 C 99.878 124.722,99.698 122.936,99.077 121.220 C 98.752 120.324,98.371 118.914,98.229 118.087 C 98.087 117.260,97.786 116.058,97.561 115.417 C 97.305 114.688,97.091 113.562,96.989 112.417 C 96.793 110.218,96.639 109.198,96.006 105.917 C 95.232 101.907,94.839 97.527,94.829 92.833 C 94.826 91.321,94.749 88.696,94.658 87.000 C 94.548 84.936,94.550 81.713,94.665 77.250 C 94.960 65.785,95.178 63.157,96.228 58.393 C 96.549 56.940,96.860 55.188,96.919 54.500 C 97.084 52.579,97.329 51.328,97.673 50.654 C 97.845 50.317,98.109 49.525,98.260 48.895 C 98.410 48.265,98.784 47.225,99.092 46.583 C 99.399 45.942,99.848 44.704,100.090 43.833 C 100.332 42.962,100.823 41.337,101.181 40.221 C 101.540 39.104,101.833 38.090,101.833 37.966 C 101.833 37.842,102.093 37.198,102.411 36.536 C 102.728 35.873,103.139 34.695,103.324 33.917 C 103.509 33.139,103.842 32.142,104.065 31.702 C 104.288 31.262,104.600 30.456,104.758 29.910 C 104.916 29.363,105.401 28.092,105.836 27.083 C 106.272 26.075,106.684 25.063,106.752 24.833 C 106.821 24.604,107.035 24.193,107.228 23.919 C 107.618 23.366,107.737 21.668,107.395 21.550 C 107.291 21.515,106.924 21.751,106.580 22.076 M138.417 51.445 C 135.937 51.650,134.305 51.911,133.351 52.253 C 132.745 52.470,131.575 52.813,130.750 53.015 C 126.826 53.976,122.248 58.007,120.857 61.725 C 120.662 62.247,120.312 63.049,120.079 63.508 C 119.847 63.967,119.463 65.072,119.226 65.963 C 118.989 66.854,118.643 67.883,118.456 68.250 C 118.270 68.617,117.908 69.967,117.654 71.250 C 117.399 72.533,117.002 74.006,116.773 74.522 C 116.543 75.038,116.272 75.938,116.171 76.522 C 116.070 77.106,115.793 78.548,115.556 79.727 C 113.924 87.863,117.071 91.824,125.583 92.347 C 132.400 92.765,133.823 92.738,139.521 92.073 C 141.415 91.853,141.774 91.748,144.321 90.677 C 145.699 90.098,147.814 88.566,148.475 87.668 C 148.712 87.347,149.126 86.825,149.394 86.508 C 149.662 86.192,150.030 85.597,150.212 85.185 C 150.394 84.774,150.754 84.146,151.012 83.790 C 151.270 83.434,151.607 82.754,151.761 82.280 C 151.914 81.805,152.260 81.025,152.529 80.547 C 152.798 80.069,153.268 78.944,153.574 78.047 C 153.880 77.150,154.284 76.042,154.472 75.583 C 154.660 75.125,154.938 74.197,155.089 73.522 C 155.241 72.847,155.579 71.790,155.841 71.175 C 156.145 70.460,156.474 69.133,156.749 67.505 C 156.986 66.103,157.290 64.435,157.424 63.800 C 157.876 61.651,157.756 59.569,157.059 57.471 L 156.451 55.642 155.149 54.494 C 154.137 53.603,153.632 53.284,152.890 53.069 C 152.365 52.916,151.415 52.570,150.780 52.299 C 149.041 51.559,142.493 51.107,138.417 51.445 M387.500 51.833 C 383.054 51.942,382.927 52.021,382.101 55.198 C 381.872 56.080,381.569 57.078,381.428 57.416 C 381.286 57.754,381.013 58.858,380.819 59.869 C 380.626 60.880,380.258 62.317,380.003 63.062 C 379.747 63.807,379.337 65.392,379.091 66.583 C 378.844 67.775,378.464 69.284,378.246 69.937 C 378.028 70.590,377.655 71.892,377.418 72.830 C 377.180 73.768,376.838 74.921,376.657 75.393 C 376.477 75.864,376.147 77.150,375.924 78.250 C 375.701 79.350,375.327 80.807,375.093 81.487 C 374.858 82.168,374.476 83.631,374.243 84.737 C 374.010 85.844,373.560 87.555,373.243 88.539 C 372.113 92.044,372.121 92.050,377.390 92.141 C 383.088 92.239,383.444 92.105,383.826 89.717 C 383.940 89.002,384.281 87.667,384.583 86.750 C 384.885 85.833,385.368 84.016,385.657 82.711 C 385.945 81.406,386.294 80.070,386.431 79.741 C 386.568 79.413,386.903 78.212,387.175 77.074 C 387.448 75.935,387.815 74.636,387.992 74.187 C 388.169 73.738,388.473 72.526,388.668 71.493 C 388.863 70.460,389.238 69.023,389.502 68.300 C 389.766 67.577,390.144 66.185,390.342 65.206 C 390.540 64.227,390.955 62.605,391.263 61.602 C 391.571 60.598,391.945 59.176,392.095 58.442 C 392.245 57.707,392.585 56.564,392.850 55.900 C 393.430 54.453,393.512 52.925,393.041 52.343 C 392.629 51.834,391.547 51.735,387.500 51.833 M257.986 52.213 C 257.222 52.728,256.764 53.604,256.415 55.219 C 256.255 55.964,255.917 57.175,255.664 57.911 C 255.412 58.648,255.118 59.775,255.011 60.417 C 254.904 61.058,254.564 62.371,254.257 63.333 C 253.949 64.296,253.508 65.989,253.276 67.096 C 253.044 68.202,252.696 69.515,252.503 70.012 C 252.310 70.510,251.933 71.817,251.666 72.917 C 251.399 74.017,251.033 75.343,250.853 75.865 C 250.672 76.386,250.362 77.623,250.163 78.615 C 249.965 79.606,249.552 81.204,249.247 82.167 C 248.941 83.129,248.569 84.554,248.418 85.333 C 248.268 86.112,247.845 87.646,247.479 88.741 C 246.254 92.403,244.903 92.083,261.605 92.083 C 278.196 92.083,276.308 92.614,277.422 87.635 C 278.116 84.535,278.113 84.632,277.514 83.961 L 277.028 83.417 269.192 83.333 C 261.565 83.252,261.345 83.241,260.887 82.901 C 260.149 82.352,260.047 81.609,260.546 80.416 C 260.776 79.866,261.056 78.967,261.168 78.417 C 261.771 75.461,261.395 75.584,269.833 75.579 C 278.543 75.574,278.091 75.602,278.648 75.042 C 279.706 73.976,280.963 69.070,280.367 68.333 L 280.030 67.917 272.500 67.833 L 264.970 67.750 264.652 67.357 C 264.252 66.862,264.249 66.917,264.761 64.649 C 265.670 60.622,264.826 60.936,275.028 60.833 L 283.307 60.750 283.731 60.351 C 285.269 58.906,286.469 53.113,285.418 52.209 L 284.981 51.833 271.765 51.833 L 258.549 51.833 257.986 52.213 M291.789 52.256 C 291.029 52.772,290.627 53.534,290.263 55.150 C 290.110 55.829,289.805 56.897,289.586 57.523 C 289.368 58.150,289.025 59.470,288.826 60.456 C 288.626 61.443,288.322 62.628,288.149 63.091 C 287.976 63.554,287.571 65.091,287.249 66.508 C 286.927 67.924,286.479 69.646,286.252 70.333 C 286.026 71.021,285.690 72.223,285.506 73.006 C 285.322 73.788,284.988 74.968,284.763 75.627 C 284.539 76.286,284.196 77.617,284.000 78.583 C 283.804 79.550,283.458 80.883,283.230 81.545 C 283.002 82.208,282.631 83.647,282.406 84.742 C 282.180 85.838,281.693 87.663,281.324 88.798 C 280.250 92.101,280.225 92.083,285.909 92.083 C 291.464 92.083,291.428 92.102,291.918 88.917 C 292.073 87.908,292.376 86.521,292.593 85.833 C 292.809 85.146,293.246 83.346,293.565 81.833 C 293.883 80.321,294.371 78.274,294.649 77.284 C 294.927 76.294,295.239 75.019,295.341 74.450 C 295.443 73.882,295.739 72.660,295.998 71.735 C 296.257 70.809,296.634 69.009,296.835 67.735 C 297.206 65.391,297.531 64.397,297.861 64.601 C 298.301 64.873,298.967 66.782,299.076 68.083 C 299.137 68.817,299.292 70.129,299.420 71.000 C 299.548 71.871,299.731 74.571,299.827 77.000 C 300.022 81.930,300.251 85.798,300.519 88.667 C 300.843 92.140,300.758 92.083,305.667 92.083 C 309.662 92.083,310.258 91.950,310.889 90.917 C 311.056 90.642,311.446 90.004,311.754 89.500 C 312.062 88.996,312.591 88.058,312.929 87.417 C 313.267 86.775,313.746 85.950,313.994 85.583 C 314.666 84.591,315.489 83.219,316.143 82.000 C 316.463 81.404,316.894 80.691,317.101 80.415 C 317.308 80.140,317.652 79.540,317.864 79.082 C 318.076 78.624,318.438 77.989,318.667 77.671 C 319.331 76.747,320.273 75.178,320.911 73.929 C 321.236 73.294,321.611 72.654,321.743 72.507 C 321.876 72.361,322.188 71.793,322.438 71.245 C 322.933 70.158,324.413 67.923,325.251 67.000 C 325.542 66.679,325.913 66.055,326.075 65.613 C 326.582 64.233,327.161 64.395,327.162 65.917 C 327.163 66.466,327.017 67.062,326.734 67.667 C 326.497 68.171,326.121 69.512,325.897 70.648 C 325.674 71.783,325.271 73.246,325.002 73.898 C 324.734 74.550,324.389 75.646,324.237 76.333 C 324.084 77.021,323.781 78.033,323.563 78.583 C 323.344 79.133,322.916 80.558,322.610 81.750 C 322.305 82.942,321.819 84.704,321.531 85.667 C 319.459 92.591,319.151 92.083,325.424 92.083 C 330.259 92.083,330.313 92.069,330.652 90.721 C 330.763 90.279,331.145 88.979,331.501 87.833 C 331.856 86.688,332.269 85.075,332.419 84.250 C 332.569 83.425,332.979 81.813,333.331 80.667 C 334.239 77.708,334.780 75.747,335.401 73.167 C 335.699 71.929,336.176 70.167,336.460 69.250 C 336.745 68.333,337.134 66.758,337.325 65.750 C 337.516 64.742,337.933 63.167,338.251 62.250 C 338.570 61.333,338.831 60.410,338.832 60.198 C 338.833 59.987,339.130 58.931,339.494 57.852 C 340.678 54.335,340.757 52.489,339.744 52.027 C 339.173 51.767,324.902 51.752,324.219 52.011 C 323.319 52.352,321.683 54.648,320.901 56.667 C 320.741 57.079,320.410 57.679,320.165 58.000 C 319.646 58.682,318.846 60.131,316.282 65.042 C 315.887 65.798,315.336 66.792,315.057 67.250 C 313.881 69.184,313.339 70.144,312.852 71.152 C 312.568 71.740,312.225 72.344,312.089 72.493 C 311.954 72.643,311.614 73.271,311.333 73.890 C 310.792 75.083,310.580 75.265,309.918 75.099 C 309.034 74.877,308.926 74.420,308.811 70.425 C 308.295 52.504,308.314 52.771,307.550 52.170 C 307.135 51.844,306.894 51.833,299.766 51.833 L 292.411 51.833 291.789 52.256 M346.552 52.012 C 345.897 52.208,345.391 52.828,345.149 53.731 C 345.048 54.108,344.675 55.361,344.319 56.516 C 343.964 57.670,343.563 59.133,343.428 59.766 C 343.293 60.399,342.996 61.459,342.769 62.121 C 342.542 62.784,342.194 64.123,341.997 65.097 C 341.800 66.071,341.461 67.339,341.245 67.915 C 341.028 68.491,340.657 69.899,340.421 71.044 C 340.186 72.189,339.774 73.771,339.508 74.560 C 339.241 75.349,338.900 76.597,338.750 77.333 C 338.600 78.070,338.262 79.309,337.999 80.087 C 337.736 80.865,337.361 82.291,337.166 83.255 C 336.971 84.219,336.624 85.550,336.396 86.212 C 336.167 86.875,335.797 88.236,335.573 89.237 C 334.914 92.180,334.962 92.208,340.693 92.135 C 346.062 92.068,345.912 92.167,346.751 88.117 C 347.224 85.834,347.958 83.474,348.407 82.788 C 348.889 82.053,349.254 82.012,355.833 81.956 C 362.558 81.898,362.674 81.885,365.750 80.887 C 369.653 79.619,372.890 76.129,374.229 71.743 C 374.452 71.014,374.863 69.779,375.142 69.000 C 375.810 67.132,376.903 60.643,376.769 59.333 C 376.451 56.220,374.895 53.760,373.029 53.421 C 372.692 53.360,371.217 53.001,369.750 52.622 L 367.083 51.934 357.083 51.893 C 351.090 51.869,346.871 51.916,346.552 52.012 M82.195 58.442 C 82.702 58.901,82.589 62.532,81.921 67.250 C 81.502 70.208,81.149 75.200,81.016 80.033 C 80.830 86.798,80.373 87.386,77.417 84.668 C 76.414 83.746,75.316 82.908,74.698 82.595 C 74.395 82.441,73.870 82.069,73.532 81.769 C 73.193 81.469,72.504 80.983,72.000 80.689 C 71.496 80.395,70.633 79.780,70.083 79.322 C 69.533 78.865,68.867 78.361,68.603 78.204 C 68.339 78.046,67.777 77.675,67.353 77.379 C 66.117 76.516,65.350 76.031,63.683 75.059 C 62.821 74.556,61.883 73.969,61.600 73.754 C 61.316 73.539,60.633 73.154,60.083 72.897 C 59.091 72.433,57.333 70.864,57.333 70.440 C 57.333 69.852,59.455 68.505,61.198 67.986 C 61.868 67.787,62.904 67.372,63.500 67.065 C 64.096 66.758,65.221 66.250,66.000 65.937 C 68.280 65.020,69.948 64.245,70.662 63.773 C 71.027 63.531,71.821 63.147,72.425 62.920 C 73.029 62.692,73.724 62.364,73.970 62.190 C 74.216 62.016,75.575 61.294,76.991 60.586 C 78.407 59.878,79.899 59.044,80.307 58.732 C 81.120 58.112,81.727 58.018,82.195 58.442 M362.314 61.008 C 364.360 61.340,364.892 61.944,364.877 63.917 C 364.843 68.544,362.803 72.068,359.957 72.417 C 357.939 72.664,352.227 72.440,351.850 72.099 C 351.283 71.585,351.593 69.211,352.656 65.917 C 352.922 65.092,353.262 63.844,353.410 63.144 C 353.851 61.070,354.328 60.851,358.417 60.842 C 359.975 60.839,361.729 60.914,362.314 61.008 M143.670 61.707 C 145.607 62.583,145.877 66.600,144.271 70.667 C 144.036 71.262,143.655 72.558,143.424 73.544 C 143.194 74.531,142.900 75.544,142.771 75.794 C 142.642 76.045,142.333 76.850,142.085 77.583 C 141.807 78.403,141.358 79.277,140.918 79.851 C 140.525 80.366,140.118 80.946,140.014 81.141 C 139.468 82.161,134.134 83.359,131.703 83.008 C 130.395 82.819,128.626 82.239,128.128 81.835 C 127.477 81.307,127.581 77.647,128.309 75.458 C 128.606 74.564,128.989 73.101,129.159 72.206 C 129.330 71.312,129.634 70.131,129.835 69.582 C 130.036 69.033,130.414 67.966,130.674 67.212 C 132.371 62.288,134.013 61.291,140.250 61.395 C 142.405 61.431,143.224 61.505,143.670 61.707 M175.113 63.899 C 173.882 64.218,172.788 64.603,172.530 64.808 C 170.741 66.232,170.190 66.321,169.796 65.250 C 169.226 63.701,169.133 63.667,165.460 63.667 C 160.761 63.667,160.265 63.973,159.579 67.289 C 159.350 68.399,158.984 69.781,158.766 70.362 C 158.548 70.942,158.211 72.204,158.017 73.167 C 157.822 74.129,157.443 75.592,157.174 76.417 C 156.906 77.242,156.524 78.742,156.325 79.750 C 156.126 80.758,155.755 82.108,155.500 82.750 C 155.246 83.392,154.911 84.554,154.756 85.333 C 154.601 86.112,154.254 87.449,153.984 88.303 C 153.715 89.157,153.303 90.763,153.068 91.873 C 152.834 92.983,152.459 94.378,152.235 94.973 C 152.011 95.568,151.684 96.853,151.508 97.829 C 151.332 98.804,150.959 100.181,150.678 100.889 C 149.691 103.373,150.234 104.284,152.750 104.360 C 156.773 104.482,158.791 104.347,159.294 103.924 C 159.953 103.370,161.078 100.544,161.489 98.411 C 161.665 97.497,161.999 96.249,162.232 95.637 C 162.465 95.024,162.803 93.800,162.984 92.915 C 163.521 90.284,163.646 90.193,165.244 91.264 C 166.683 92.230,167.996 92.534,170.833 92.563 C 177.365 92.628,180.539 91.186,182.347 87.333 C 182.627 86.737,183.106 85.763,183.412 85.167 C 183.719 84.571,184.059 83.748,184.168 83.338 C 184.277 82.927,184.586 82.157,184.854 81.626 C 185.122 81.096,185.496 80.006,185.686 79.206 C 185.876 78.405,186.144 77.487,186.281 77.167 C 187.296 74.791,187.681 68.887,186.937 67.106 C 185.639 64.000,180.308 62.554,175.113 63.899 M201.250 63.831 C 197.976 64.454,197.676 64.550,195.963 65.525 C 193.496 66.930,191.210 69.854,190.249 72.833 C 190.087 73.337,189.734 74.189,189.466 74.726 C 189.197 75.262,188.830 76.387,188.650 77.226 C 188.470 78.064,188.085 79.425,187.796 80.250 C 187.280 81.720,187.269 81.811,187.260 84.848 L 187.250 87.946 188.042 89.139 C 189.191 90.868,190.540 91.736,192.583 92.060 C 196.746 92.721,198.988 92.824,202.250 92.505 C 208.364 91.907,208.116 91.963,209.922 90.779 C 212.956 88.791,215.319 84.119,213.983 82.750 C 213.683 82.442,213.402 82.413,210.287 82.367 C 206.274 82.308,205.927 82.412,204.696 84.046 C 203.753 85.297,203.214 85.524,201.000 85.607 C 197.921 85.723,197.001 85.103,197.001 82.917 C 197.001 80.214,197.090 80.188,206.583 80.172 C 216.699 80.155,215.771 80.770,217.279 73.083 C 217.936 69.732,217.134 66.836,215.180 65.509 C 212.369 63.600,206.302 62.869,201.250 63.831 M238.583 63.449 C 236.062 64.029,234.410 64.602,233.808 65.105 C 233.196 65.616,232.015 66.091,231.659 65.968 C 231.577 65.940,231.302 65.504,231.047 65.000 C 230.379 63.679,230.268 63.646,226.667 63.706 C 222.177 63.779,221.870 64.033,220.997 68.388 C 220.812 69.313,220.444 70.748,220.181 71.577 C 219.917 72.405,219.616 73.533,219.511 74.083 C 219.135 76.054,218.772 77.430,218.408 78.253 C 218.205 78.713,217.884 79.847,217.695 80.772 C 217.506 81.698,217.187 82.897,216.986 83.436 C 216.785 83.975,216.449 85.225,216.239 86.213 C 216.029 87.201,215.665 88.588,215.429 89.297 C 214.487 92.125,214.882 92.378,220.129 92.301 C 224.803 92.233,224.829 92.209,225.936 86.917 C 226.166 85.817,226.606 84.129,226.914 83.167 C 227.222 82.204,227.601 80.742,227.755 79.917 C 227.909 79.092,228.208 77.967,228.420 77.417 C 228.631 76.867,228.965 75.866,229.162 75.193 C 230.166 71.753,236.078 69.713,236.846 72.541 C 237.153 73.672,236.949 75.706,236.356 77.434 C 236.071 78.265,235.684 79.688,235.498 80.595 C 235.311 81.502,234.904 83.033,234.593 83.997 C 234.283 84.961,233.901 86.462,233.746 87.333 C 233.590 88.204,233.279 89.385,233.053 89.958 C 232.248 92.007,232.670 92.231,237.478 92.304 C 241.173 92.359,241.845 92.268,242.166 91.668 C 242.610 90.838,243.401 88.360,243.749 86.708 C 243.966 85.676,244.330 84.364,244.556 83.791 C 244.783 83.219,245.131 81.925,245.328 80.917 C 245.526 79.908,245.905 78.446,246.170 77.667 C 246.436 76.887,246.773 75.575,246.919 74.750 C 247.066 73.925,247.348 72.762,247.546 72.167 C 248.581 69.056,247.633 65.858,245.322 64.664 C 243.759 63.857,239.863 63.154,238.583 63.449 M206.664 71.138 C 207.838 71.588,208.224 72.860,207.458 73.752 L 207.082 74.188 203.967 74.239 C 199.902 74.306,199.367 74.067,200.149 72.535 C 200.952 70.961,204.318 70.239,206.664 71.138 M175.800 71.357 C 177.097 71.986,177.374 72.981,176.843 75.114 C 175.458 80.674,175.340 81.066,174.752 82.059 C 174.418 82.622,174.087 83.196,174.016 83.333 C 173.088 85.127,168.169 85.895,166.828 84.456 C 165.969 83.534,166.007 80.520,166.909 78.000 C 167.155 77.313,167.566 76.055,167.823 75.206 C 168.525 72.878,169.895 71.499,171.833 71.168 C 173.396 70.900,175.015 70.978,175.800 71.357 M13.186 72.915 C 11.097 73.317,7.994 76.016,7.090 78.218 C 6.218 80.342,6.540 85.090,7.653 86.500 C 7.906 86.821,8.208 87.271,8.325 87.500 C 9.163 89.139,12.386 91.132,14.809 91.508 C 21.273 92.511,27.784 84.348,24.886 78.875 C 24.655 78.440,24.286 77.727,24.066 77.292 C 23.246 75.669,20.730 73.478,19.231 73.081 C 17.834 72.711,14.699 72.625,13.186 72.915 M204.846 99.181 C 203.796 99.387,203.221 100.001,203.003 101.150 C 202.905 101.663,202.641 102.721,202.415 103.500 C 201.852 105.440,201.239 110.243,201.485 110.783 C 201.907 111.711,204.561 111.989,206.547 111.314 C 207.421 111.018,207.819 110.978,209.083 111.062 C 211.083 111.195,211.209 111.087,211.408 109.083 C 211.694 106.183,213.319 104.054,214.241 105.370 C 214.554 105.818,214.569 106.716,214.300 108.895 L 214.096 110.540 214.557 110.937 C 215.189 111.480,215.598 111.435,216.283 110.750 C 216.996 110.038,216.884 110.031,217.648 110.833 C 218.399 111.623,218.788 111.665,219.833 111.067 C 220.688 110.578,221.400 110.606,222.509 111.171 C 223.307 111.578,224.917 111.611,225.797 111.237 C 226.321 111.015,226.549 111.005,227.274 111.176 C 228.926 111.565,228.912 111.579,230.246 108.062 C 231.222 105.487,231.994 104.766,232.368 106.083 C 232.565 106.781,232.042 111.511,231.635 112.706 C 231.245 113.851,231.330 114.215,232.073 114.567 C 233.129 115.068,233.672 114.658,233.995 113.115 C 234.267 111.812,234.616 111.500,235.801 111.500 C 236.908 111.500,237.850 111.062,238.686 110.158 C 239.596 109.173,239.830 109.198,240.300 110.328 C 240.841 111.632,241.685 111.614,242.352 110.286 C 242.546 109.900,242.848 109.426,243.023 109.234 C 243.199 109.043,243.410 108.467,243.494 107.955 C 243.792 106.122,244.551 105.419,244.885 106.667 C 245.058 107.315,244.803 108.920,244.404 109.691 C 243.920 110.628,244.875 111.259,246.564 111.119 C 247.241 111.062,247.879 111.123,248.466 111.300 C 249.652 111.657,250.994 111.399,251.748 110.669 C 252.379 110.057,252.692 110.042,253.405 110.586 C 254.980 111.787,257.833 111.728,257.833 110.495 C 257.833 110.110,257.578 109.930,256.556 109.597 C 255.142 109.136,255.215 108.678,256.784 108.155 C 257.764 107.829,258.771 107.144,259.463 106.333 C 259.780 105.962,259.632 104.422,259.237 103.985 C 258.095 102.723,255.547 102.749,254.862 104.030 C 254.747 104.245,254.379 104.571,254.044 104.753 C 253.682 104.949,253.391 105.256,253.324 105.510 C 252.880 107.204,252.473 107.427,251.333 106.600 C 250.146 105.738,250.257 105.341,251.875 104.672 C 253.400 104.042,252.121 102.656,250.457 103.136 C 248.296 103.758,248.089 103.766,247.105 103.268 C 246.251 102.836,246.130 102.817,245.303 102.987 C 244.815 103.088,243.969 103.159,243.421 103.146 C 242.435 103.121,242.419 103.128,241.745 103.894 L 241.065 104.667 240.491 104.237 C 238.927 103.066,236.277 102.691,233.472 103.245 C 233.136 103.311,232.179 103.277,231.346 103.168 C 229.904 102.981,229.794 102.989,229.061 103.344 C 228.312 103.707,228.269 103.709,227.515 103.438 C 226.285 102.996,225.197 102.929,224.177 103.232 C 222.352 103.774,221.718 103.596,221.095 102.368 C 220.479 101.152,219.192 101.279,217.869 102.686 C 217.176 103.423,217.024 103.510,216.583 103.421 C 215.044 103.111,214.261 103.048,212.833 103.118 C 209.881 103.263,209.748 103.406,209.410 106.788 C 209.076 110.128,208.743 110.412,205.935 109.750 C 203.579 109.195,203.332 108.834,204.507 107.660 C 205.284 106.883,205.758 106.667,206.685 106.667 C 208.575 106.667,208.499 105.214,206.592 104.897 C 205.373 104.693,205.041 104.473,204.985 103.833 C 204.833 102.095,205.255 101.570,207.000 101.329 C 208.511 101.121,208.990 100.767,208.740 100.045 C 208.421 99.127,206.874 98.783,204.846 99.181 M171.134 99.719 C 166.310 101.717,165.487 109.871,169.961 111.348 C 170.979 111.684,173.302 111.472,174.295 110.952 C 175.707 110.215,176.075 110.620,175.905 112.722 C 175.708 115.145,176.943 115.772,177.949 113.759 C 178.721 112.212,179.481 111.621,180.951 111.422 C 181.710 111.319,181.983 111.162,183.149 110.152 C 184.688 108.820,184.843 108.783,185.347 109.625 C 186.392 111.372,187.788 111.916,189.484 111.237 C 190.662 110.766,190.577 110.329,189.187 109.716 C 187.512 108.977,187.491 108.696,189.074 108.170 C 189.649 107.978,190.293 107.637,190.505 107.411 C 191.611 106.234,192.314 107.447,191.805 109.654 C 191.516 110.903,192.332 111.703,193.343 111.162 C 193.768 110.934,194.020 110.409,194.659 108.417 C 195.777 104.933,195.893 104.764,196.827 105.247 C 197.633 105.663,197.694 105.953,197.310 107.518 C 196.537 110.673,196.992 111.985,198.503 110.958 C 199.318 110.404,199.680 109.542,199.942 107.533 C 200.443 103.689,199.756 102.928,195.958 103.119 L 193.918 103.222 193.270 103.856 L 192.623 104.491 192.159 104.161 C 190.290 102.831,188.106 102.696,187.333 103.865 C 186.799 104.672,186.522 104.833,185.667 104.833 C 185.080 104.833,184.759 104.747,184.582 104.542 C 184.444 104.381,184.111 103.987,183.844 103.667 L 183.357 103.083 181.323 103.126 C 178.653 103.181,178.133 103.036,177.573 102.081 C 176.129 99.616,173.611 98.692,171.134 99.719 M307.598 99.413 C 306.281 99.883,305.379 102.181,304.917 106.250 C 304.781 107.442,304.590 108.854,304.491 109.388 C 304.286 110.497,304.519 111.081,305.237 111.262 C 306.093 111.477,306.663 110.634,306.666 109.150 C 306.668 107.915,307.834 106.880,309.631 106.519 C 311.069 106.230,311.333 106.477,311.333 108.106 C 311.333 111.012,312.827 111.804,317.452 111.353 C 317.563 111.342,317.955 111.020,318.323 110.638 C 319.091 109.838,319.200 109.852,320.604 110.924 C 321.360 111.501,321.453 111.529,322.244 111.417 C 322.706 111.352,323.598 111.288,324.227 111.275 C 325.329 111.251,325.390 111.227,325.911 110.625 C 326.569 109.864,326.865 109.843,327.347 110.519 C 328.071 111.536,329.707 111.804,331.004 111.118 C 332.062 110.558,332.021 110.389,330.683 109.795 C 328.974 109.035,329.041 108.351,330.854 108.061 C 331.384 107.976,331.763 107.768,332.241 107.299 C 333.033 106.523,333.365 106.544,333.574 107.388 C 333.721 107.983,333.682 108.302,333.219 110.269 C 333.099 110.782,334.193 111.447,334.805 111.232 C 335.312 111.054,335.545 110.469,335.815 108.704 C 335.994 107.530,336.170 107.166,337.420 105.375 C 337.767 104.879,338.260 104.900,338.604 105.424 C 338.886 105.854,338.877 106.909,338.571 109.667 C 338.345 111.697,339.723 111.926,340.958 110.064 C 341.162 109.756,341.171 109.756,341.375 110.064 C 342.252 111.386,342.909 111.686,344.083 111.302 C 344.941 111.021,345.068 110.411,344.428 109.650 C 343.597 108.663,344.137 106.382,345.542 104.943 C 346.485 103.977,346.471 104.103,345.766 102.931 C 344.617 101.024,344.195 100.994,342.385 102.690 C 341.454 103.562,341.192 103.633,340.288 103.255 C 339.267 102.829,336.021 103.077,334.690 103.684 C 333.371 104.284,333.292 104.283,332.508 103.653 C 331.387 102.752,329.879 102.829,328.913 103.837 C 328.328 104.448,328.261 104.447,327.350 103.830 C 326.810 103.465,326.422 103.333,325.881 103.333 C 325.032 103.333,324.655 103.165,323.803 102.404 C 322.670 101.390,321.431 101.339,320.942 102.285 C 320.458 103.221,320.170 103.354,319.071 103.148 C 317.544 102.862,315.652 103.046,314.762 103.568 C 313.531 104.289,313.359 104.165,312.998 102.302 C 312.573 100.109,309.803 98.628,307.598 99.413 M264.436 99.838 C 263.685 100.498,263.393 101.391,262.992 104.243 C 262.742 106.024,262.546 106.824,262.155 107.659 C 261.136 109.832,261.203 111.167,262.329 111.167 C 262.926 111.167,263.352 110.642,264.311 108.721 C 265.364 106.611,265.590 106.654,265.850 109.014 C 266.032 110.670,266.262 111.232,266.816 111.377 C 267.625 111.589,268.940 110.282,269.428 108.781 C 270.125 106.641,271.000 106.888,271.000 109.225 C 271.000 111.237,271.440 111.694,272.769 111.063 C 273.308 110.807,273.401 110.813,274.508 111.169 C 275.472 111.479,275.860 111.523,276.714 111.420 C 277.284 111.351,277.994 111.303,278.292 111.313 C 284.189 111.512,284.977 111.415,285.752 110.399 C 286.295 109.687,286.517 109.689,287.070 110.414 C 287.986 111.615,289.660 111.747,290.625 110.693 L 291.167 110.101 291.719 110.637 C 292.600 111.490,294.021 111.740,295.288 111.264 C 296.353 110.865,296.794 110.821,297.921 111.001 C 299.612 111.271,299.725 111.155,300.088 108.776 C 300.212 107.965,300.412 107.171,300.532 107.010 C 300.652 106.849,301.025 106.350,301.361 105.901 C 301.697 105.451,302.166 104.915,302.403 104.709 C 303.410 103.834,302.713 103.167,300.791 103.167 C 299.453 103.167,298.589 103.407,298.188 103.891 C 297.852 104.296,297.498 104.230,296.903 103.654 C 296.222 102.994,295.408 102.882,293.945 103.249 C 292.490 103.614,292.116 103.505,291.050 102.404 C 289.863 101.179,289.086 101.179,288.364 102.402 C 287.888 103.209,287.030 103.456,285.691 103.172 C 284.840 102.991,284.588 102.999,283.891 103.231 C 283.159 103.474,282.958 103.476,281.776 103.250 C 279.174 102.752,276.934 103.127,275.923 104.231 C 274.695 105.572,274.090 104.835,274.248 102.191 C 274.363 100.261,274.361 100.248,273.941 99.855 C 273.226 99.186,271.000 99.868,271.000 100.756 C 271.000 100.880,270.693 101.567,270.317 102.283 C 269.942 102.998,269.505 103.954,269.347 104.406 C 268.612 106.506,267.644 105.585,267.084 102.254 C 266.620 99.489,265.744 98.690,264.436 99.838 M247.006 100.198 C 246.564 100.673,246.578 100.934,247.060 101.250 C 247.813 101.743,248.436 101.019,247.927 100.242 C 247.597 99.739,247.441 99.732,247.006 100.198 M349.768 99.978 C 348.913 100.165,348.682 100.706,348.406 103.171 C 348.141 105.538,347.945 106.560,347.331 108.775 C 346.758 110.846,347.206 111.607,348.607 110.939 C 349.329 110.594,350.223 110.593,351.224 110.934 C 352.747 111.452,353.043 111.156,353.324 108.833 C 353.430 107.962,353.606 107.131,353.716 106.986 C 353.827 106.841,354.177 106.370,354.495 105.939 C 356.042 103.840,356.858 105.188,356.236 108.813 C 355.858 111.013,356.489 111.807,357.991 111.024 C 358.862 110.570,359.018 110.576,359.766 111.083 C 360.441 111.541,360.545 111.549,363.513 111.348 C 365.206 111.234,365.522 111.164,366.093 110.776 C 366.906 110.224,366.881 110.222,367.694 110.875 L 368.368 111.417 370.809 111.444 C 373.626 111.475,374.159 111.374,375.338 110.580 C 376.437 109.840,376.688 109.851,377.333 110.667 C 378.728 112.427,379.711 111.137,378.921 108.583 L 378.508 107.250 378.879 106.266 C 379.153 105.538,379.393 105.196,379.796 104.955 C 381.518 103.926,380.473 102.759,378.633 103.657 C 377.344 104.286,376.815 104.296,376.043 103.708 C 375.400 103.219,375.671 103.251,371.083 103.126 C 370.266 103.104,369.944 103.182,369.319 103.550 C 368.850 103.825,368.309 104.000,367.922 104.000 L 367.290 104.000 367.396 103.375 C 368.049 99.532,366.682 98.411,364.993 101.404 C 364.300 102.631,363.900 102.945,362.759 103.153 C 362.096 103.274,361.620 103.475,361.323 103.760 C 360.296 104.744,358.968 104.822,358.364 103.933 C 357.736 103.008,357.316 102.919,354.528 103.126 C 351.434 103.356,351.588 103.197,351.447 106.303 C 351.338 108.698,351.133 109.550,350.686 109.464 C 349.938 109.320,350.048 104.525,350.846 102.529 C 351.420 101.090,351.451 100.618,351.000 100.167 C 350.652 99.819,350.561 99.805,349.768 99.978 M326.101 100.264 C 325.822 100.991,326.208 101.615,326.817 101.422 C 327.543 101.192,327.357 100.000,326.595 100.000 C 326.379 100.000,326.157 100.119,326.101 100.264 M174.388 101.946 C 175.840 102.877,175.907 104.621,174.594 107.297 C 173.640 109.240,173.463 109.422,172.352 109.600 C 169.649 110.032,168.343 105.838,170.335 103.124 C 170.688 102.643,171.080 102.107,171.207 101.932 C 171.691 101.264,173.335 101.272,174.388 101.946 M310.208 101.942 C 310.817 102.252,310.789 102.635,310.078 103.747 C 309.101 105.275,307.870 104.908,308.040 103.139 C 308.182 101.665,308.893 101.273,310.208 101.942 M287.228 105.012 C 287.767 105.437,287.782 105.978,287.282 106.985 C 286.782 107.990,286.392 108.207,286.028 107.684 C 285.875 107.464,285.431 106.954,285.042 106.551 C 284.652 106.148,284.334 105.765,284.336 105.701 C 284.354 104.868,286.420 104.377,287.228 105.012 M182.074 105.370 C 182.718 106.290,182.161 108.537,181.135 109.163 C 179.938 109.892,179.166 109.480,179.167 108.113 C 179.169 106.241,181.285 104.244,182.074 105.370 M237.571 105.234 C 238.456 105.604,238.566 107.156,237.755 107.829 C 237.601 107.957,237.330 108.346,237.152 108.695 C 236.765 109.453,236.236 109.635,235.368 109.305 C 234.519 108.983,234.515 108.631,235.340 106.796 C 236.214 104.853,236.381 104.737,237.571 105.234 M279.081 105.330 C 279.780 106.103,278.654 109.183,277.562 109.485 C 276.462 109.788,275.823 109.255,275.845 108.053 C 275.877 106.296,278.192 104.348,279.081 105.330 M363.933 105.128 C 364.874 105.756,364.527 107.376,363.131 108.875 C 362.303 109.764,362.198 109.797,361.643 109.348 C 360.145 108.133,362.350 104.070,363.933 105.128 M370.570 105.219 C 370.934 105.486,370.859 106.058,370.448 106.137 C 369.857 106.251,369.340 105.326,369.875 105.110 C 370.202 104.979,370.251 104.986,370.570 105.219 M225.416 105.499 C 225.550 105.919,225.399 106.167,225.011 106.167 C 224.619 106.167,224.269 105.742,224.393 105.419 C 224.538 105.042,225.290 105.100,225.416 105.499 M316.255 105.408 C 316.964 105.704,316.969 105.848,316.329 107.662 C 315.746 109.315,315.532 109.586,314.927 109.434 C 313.746 109.138,313.602 108.283,314.449 106.593 C 315.187 105.121,315.335 105.024,316.255 105.408 M324.102 105.588 C 324.634 106.401,324.151 109.667,323.499 109.667 C 322.555 109.667,322.264 106.810,323.081 105.563 C 323.416 105.052,323.756 105.060,324.102 105.588 M294.625 105.764 C 294.466 105.923,294.148 105.665,294.266 105.474 C 294.336 105.360,294.430 105.363,294.549 105.483 C 294.647 105.581,294.682 105.707,294.625 105.764 M291.500 105.717 C 291.500 105.957,291.174 106.333,290.967 106.333 C 290.806 106.333,290.788 105.767,290.944 105.611 C 291.135 105.420,291.500 105.490,291.500 105.717 M320.333 105.907 C 320.333 106.131,320.264 106.357,320.179 106.409 C 319.991 106.525,319.770 105.904,319.916 105.668 C 320.105 105.363,320.333 105.493,320.333 105.907 M220.667 107.347 C 220.774 109.364,220.711 109.833,220.335 109.833 C 219.834 109.833,219.623 109.003,219.755 107.553 C 219.980 105.092,220.540 104.965,220.667 107.347 M109.744 106.655 C 109.283 106.728,108.233 107.107,107.411 107.497 C 106.589 107.887,105.761 108.278,105.570 108.366 C 105.379 108.454,105.093 108.747,104.933 109.017 C 104.774 109.287,104.457 109.630,104.229 109.779 C 104.001 109.929,103.659 110.358,103.470 110.734 C 103.281 111.109,102.854 111.861,102.521 112.404 L 101.917 113.391 101.860 115.762 C 101.796 118.433,101.999 119.773,102.572 120.460 C 102.782 120.711,103.085 121.179,103.247 121.500 C 105.603 126.171,113.450 127.414,117.980 123.834 C 121.394 121.135,122.432 114.844,120.061 111.222 C 119.120 109.783,117.654 108.264,116.955 108.003 C 116.659 107.892,115.825 107.534,115.103 107.208 C 113.678 106.564,111.640 106.353,109.744 106.655 M248.306 106.958 C 248.572 107.210,249.024 107.616,249.311 107.860 C 250.366 108.755,249.954 109.589,248.365 109.777 C 247.312 109.902,247.081 109.628,247.091 108.266 C 247.103 106.592,247.485 106.181,248.306 106.958 M374.944 106.761 C 375.152 107.303,373.896 109.193,373.157 109.449 C 371.955 109.866,369.835 109.670,369.470 109.109 C 369.149 108.615,370.203 108.003,371.379 108.001 C 371.683 108.000,372.082 107.778,372.545 107.352 C 372.933 106.996,373.400 106.668,373.583 106.622 C 374.286 106.446,374.845 106.503,374.944 106.761 M297.667 108.302 C 297.667 109.681,296.816 110.225,295.265 109.837 C 293.200 109.321,293.392 108.395,295.665 107.917 C 296.343 107.774,296.933 107.622,296.977 107.579 C 297.344 107.212,297.667 107.550,297.667 108.302 M283.526 108.196 C 284.114 109.096,283.211 109.899,282.122 109.444 C 281.354 109.123,281.191 108.104,281.868 107.853 C 282.318 107.687,283.330 107.896,283.526 108.196 M227.149 108.352 C 227.442 108.875,227.166 109.758,226.660 109.919 C 226.247 110.050,223.821 109.329,223.711 109.042 C 223.386 108.195,226.691 107.533,227.149 108.352 " stroke="none" fill="#000000" fill-rule="evenodd"></path><path id="path1" d="M0.000 74.167 L 0.000 148.333 200.000 148.333 L 400.000 148.333 400.000 74.167 L 400.000 0.000 200.000 0.000 L 0.000 0.000 0.000 74.167 M96.250 7.166 C 99.335 8.134,101.328 9.968,102.915 13.298 C 103.285 14.074,103.505 16.758,103.332 18.387 C 102.609 25.194,93.573 29.406,88.187 25.446 C 85.518 23.484,84.136 21.494,83.665 18.937 C 82.241 11.194,88.985 4.885,96.250 7.166 M107.581 22.518 C 107.579 23.165,107.479 23.563,107.228 23.919 C 107.035 24.193,106.821 24.604,106.752 24.833 C 106.684 25.063,106.272 26.075,105.836 27.083 C 105.401 28.092,104.916 29.363,104.758 29.910 C 104.600 30.456,104.288 31.262,104.065 31.702 C 103.842 32.142,103.509 33.139,103.324 33.917 C 103.139 34.695,102.728 35.873,102.411 36.536 C 102.093 37.198,101.833 37.842,101.833 37.966 C 101.833 38.090,101.540 39.104,101.181 40.221 C 100.823 41.337,100.332 42.962,100.090 43.833 C 99.848 44.704,99.399 45.942,99.092 46.583 C 98.784 47.225,98.410 48.265,98.260 48.895 C 98.109 49.525,97.845 50.317,97.673 50.654 C 97.329 51.328,97.084 52.579,96.919 54.500 C 96.860 55.188,96.549 56.940,96.228 58.393 C 95.178 63.157,94.960 65.785,94.665 77.250 C 94.550 81.713,94.548 84.936,94.658 87.000 C 94.749 88.696,94.826 91.321,94.829 92.833 C 94.839 97.527,95.232 101.907,96.006 105.917 C 96.639 109.198,96.793 110.218,96.989 112.417 C 97.091 113.562,97.305 114.688,97.561 115.417 C 97.786 116.058,98.087 117.260,98.229 118.087 C 98.371 118.914,98.752 120.324,99.077 121.220 C 99.698 122.936,99.878 124.722,99.470 125.130 C 99.182 125.418,97.560 123.848,96.833 122.575 C 96.513 122.014,96.025 121.281,95.750 120.948 C 95.475 120.615,94.912 119.915,94.500 119.392 C 94.087 118.869,93.439 118.136,93.059 117.762 C 92.678 117.389,92.228 116.854,92.059 116.574 C 91.635 115.876,90.505 114.536,88.909 112.841 C 88.172 112.058,87.297 111.079,86.965 110.667 C 86.633 110.254,85.509 109.049,84.467 107.989 C 82.960 106.458,82.527 105.910,82.356 105.323 C 81.995 104.085,81.430 103.367,80.714 103.232 C 80.270 103.149,79.821 102.853,79.169 102.213 C 77.723 100.794,76.992 100.127,75.917 99.246 C 75.367 98.796,74.502 98.042,73.995 97.571 C 73.488 97.099,72.851 96.598,72.578 96.457 C 72.306 96.316,71.933 96.034,71.750 95.831 C 71.566 95.627,70.578 94.833,69.553 94.066 C 68.528 93.299,67.641 92.594,67.582 92.499 C 67.524 92.404,67.012 92.093,66.446 91.809 C 65.880 91.524,65.106 91.020,64.727 90.687 C 64.021 90.069,63.650 89.806,61.936 88.710 C 61.397 88.365,60.722 87.887,60.436 87.648 C 60.150 87.409,59.654 87.082,59.333 86.921 C 59.012 86.761,58.525 86.418,58.250 86.159 C 57.975 85.901,56.850 85.169,55.750 84.534 C 54.650 83.898,53.358 83.112,52.880 82.787 C 52.401 82.462,51.726 82.105,51.380 81.994 C 51.033 81.883,50.375 81.511,49.917 81.168 C 49.458 80.825,48.034 80.032,46.752 79.407 C 45.470 78.782,44.177 78.104,43.879 77.902 C 43.580 77.699,42.823 77.378,42.197 77.187 C 41.571 76.997,40.764 76.642,40.405 76.398 C 40.045 76.154,39.301 75.784,38.750 75.575 C 38.200 75.367,36.557 74.626,35.100 73.930 C 33.642 73.233,31.874 72.519,31.171 72.344 C 30.468 72.169,29.410 71.764,28.821 71.443 C 28.232 71.123,26.063 70.316,24.000 69.651 C 21.938 68.987,19.940 68.306,19.562 68.139 C 19.183 67.972,18.302 67.756,17.603 67.659 C 13.978 67.155,14.334 66.331,18.289 66.071 C 19.555 65.988,20.507 65.814,21.523 65.481 C 22.511 65.157,23.477 64.977,24.606 64.907 C 26.375 64.797,27.690 64.498,28.720 63.973 C 29.111 63.773,29.970 63.583,30.892 63.491 C 33.602 63.220,36.209 62.491,43.667 59.918 C 44.813 59.523,46.093 59.044,46.512 58.855 C 46.930 58.666,47.925 58.359,48.722 58.173 C 49.519 57.987,50.676 57.583,51.294 57.274 C 51.911 56.966,52.829 56.582,53.333 56.421 C 54.604 56.015,58.110 54.539,58.921 54.068 C 59.290 53.854,60.077 53.529,60.671 53.345 C 61.264 53.162,62.091 52.795,62.508 52.531 C 62.926 52.266,63.788 51.841,64.425 51.587 C 65.062 51.333,66.371 50.673,67.333 50.121 C 69.185 49.060,69.743 48.762,71.083 48.123 C 72.257 47.562,73.551 46.790,75.891 45.252 C 77.005 44.520,78.254 43.763,78.667 43.570 C 79.079 43.376,79.642 43.030,79.917 42.799 C 80.192 42.568,80.867 42.130,81.417 41.826 C 81.967 41.522,83.076 40.818,83.881 40.262 C 84.687 39.705,85.709 39.025,86.151 38.750 C 86.594 38.475,87.360 37.933,87.853 37.546 C 89.330 36.387,91.471 34.785,92.303 34.216 C 92.732 33.922,93.458 33.379,93.917 33.011 C 94.375 32.642,95.205 31.983,95.760 31.545 C 98.223 29.606,99.114 28.868,99.837 28.167 C 100.263 27.754,101.052 27.042,101.591 26.583 C 102.130 26.125,102.762 25.533,102.994 25.268 C 103.227 25.003,103.564 24.666,103.744 24.518 C 103.925 24.371,104.429 23.894,104.864 23.458 C 105.300 23.023,105.723 22.667,105.805 22.667 C 105.887 22.667,106.235 22.401,106.580 22.076 C 107.389 21.313,107.584 21.399,107.581 22.518 M147.021 51.576 C 149.211 51.771,149.809 51.886,150.780 52.299 C 151.415 52.570,152.365 52.916,152.890 53.069 C 153.632 53.284,154.137 53.603,155.149 54.494 L 156.451 55.642 157.059 57.471 C 157.756 59.569,157.876 61.651,157.424 63.800 C 157.290 64.435,156.986 66.103,156.749 67.505 C 156.474 69.133,156.145 70.460,155.841 71.175 C 155.579 71.790,155.241 72.847,155.089 73.522 C 154.938 74.197,154.660 75.125,154.472 75.583 C 154.284 76.042,153.880 77.150,153.574 78.047 C 153.268 78.944,152.798 80.069,152.529 80.547 C 152.260 81.025,151.914 81.805,151.761 82.280 C 151.607 82.754,151.270 83.434,151.012 83.790 C 150.754 84.146,150.394 84.774,150.212 85.185 C 150.030 85.597,149.662 86.192,149.394 86.508 C 149.126 86.825,148.712 87.347,148.475 87.668 C 147.814 88.566,145.699 90.098,144.321 90.677 C 141.774 91.748,141.415 91.853,139.521 92.073 C 133.823 92.738,132.400 92.765,125.583 92.347 C 117.071 91.824,113.924 87.863,115.556 79.727 C 115.793 78.548,116.070 77.106,116.171 76.522 C 116.272 75.938,116.543 75.038,116.773 74.522 C 117.002 74.006,117.399 72.533,117.654 71.250 C 117.908 69.967,118.270 68.617,118.456 68.250 C 118.643 67.883,118.989 66.854,119.226 65.963 C 119.463 65.072,119.847 63.967,120.079 63.508 C 120.312 63.049,120.662 62.247,120.857 61.725 C 122.248 58.007,126.826 53.976,130.750 53.015 C 131.575 52.813,132.745 52.470,133.351 52.253 C 134.305 51.911,135.937 51.650,138.417 51.445 C 140.180 51.298,144.685 51.367,147.021 51.576 M393.041 52.343 C 393.512 52.925,393.430 54.453,392.850 55.900 C 392.585 56.564,392.245 57.707,392.095 58.442 C 391.945 59.176,391.571 60.598,391.263 61.602 C 390.955 62.605,390.540 64.227,390.342 65.206 C 390.144 66.185,389.766 67.577,389.502 68.300 C 389.238 69.023,388.863 70.460,388.668 71.493 C 388.473 72.526,388.169 73.738,387.992 74.187 C 387.815 74.636,387.448 75.935,387.175 77.074 C 386.903 78.212,386.568 79.413,386.431 79.741 C 386.294 80.070,385.945 81.406,385.657 82.711 C 385.368 84.016,384.885 85.833,384.583 86.750 C 384.281 87.667,383.940 89.002,383.826 89.717 C 383.444 92.105,383.088 92.239,377.390 92.141 C 372.121 92.050,372.113 92.044,373.243 88.539 C 373.560 87.555,374.010 85.844,374.243 84.737 C 374.476 83.631,374.858 82.168,375.093 81.487 C 375.327 80.807,375.701 79.350,375.924 78.250 C 376.147 77.150,376.477 75.864,376.657 75.393 C 376.838 74.921,377.180 73.768,377.418 72.830 C 377.655 71.892,378.028 70.590,378.246 69.937 C 378.464 69.284,378.844 67.775,379.091 66.583 C 379.337 65.392,379.747 63.807,380.003 63.062 C 380.258 62.317,380.626 60.880,380.819 59.869 C 381.013 58.858,381.286 57.754,381.428 57.416 C 381.569 57.078,381.872 56.080,382.101 55.198 C 382.927 52.021,383.054 51.942,387.500 51.833 C 391.547 51.735,392.629 51.834,393.041 52.343 M285.418 52.209 C 286.469 53.113,285.269 58.906,283.731 60.351 L 283.307 60.750 275.028 60.833 C 264.826 60.936,265.670 60.622,264.761 64.649 C 264.249 66.917,264.252 66.862,264.652 67.357 L 264.970 67.750 272.500 67.833 L 280.030 67.917 280.367 68.333 C 280.963 69.070,279.706 73.976,278.648 75.042 C 278.091 75.602,278.543 75.574,269.833 75.579 C 261.395 75.584,261.771 75.461,261.168 78.417 C 261.056 78.967,260.776 79.866,260.546 80.416 C 260.047 81.609,260.149 82.352,260.887 82.901 C 261.345 83.241,261.565 83.252,269.192 83.333 L 277.028 83.417 277.514 83.961 C 278.113 84.632,278.116 84.535,277.422 87.635 C 276.308 92.614,278.196 92.083,261.605 92.083 C 244.903 92.083,246.254 92.403,247.479 88.741 C 247.845 87.646,248.268 86.112,248.418 85.333 C 248.569 84.554,248.941 83.129,249.247 82.167 C 249.552 81.204,249.965 79.606,250.163 78.615 C 250.362 77.623,250.672 76.386,250.853 75.865 C 251.033 75.343,251.399 74.017,251.666 72.917 C 251.933 71.817,252.310 70.510,252.503 70.012 C 252.696 69.515,253.044 68.202,253.276 67.096 C 253.508 65.989,253.949 64.296,254.257 63.333 C 254.564 62.371,254.904 61.058,255.011 60.417 C 255.118 59.775,255.412 58.648,255.664 57.911 C 255.917 57.175,256.255 55.964,256.415 55.219 C 256.764 53.604,257.222 52.728,257.986 52.213 L 258.549 51.833 271.765 51.833 L 284.981 51.833 285.418 52.209 M307.550 52.170 C 308.314 52.771,308.295 52.504,308.811 70.425 C 308.926 74.420,309.034 74.877,309.918 75.099 C 310.580 75.265,310.792 75.083,311.333 73.890 C 311.614 73.271,311.954 72.643,312.089 72.493 C 312.225 72.344,312.568 71.740,312.852 71.152 C 313.339 70.144,313.881 69.184,315.057 67.250 C 315.336 66.792,315.887 65.798,316.282 65.042 C 318.846 60.131,319.646 58.682,320.165 58.000 C 320.410 57.679,320.741 57.079,320.901 56.667 C 321.683 54.648,323.319 52.352,324.219 52.011 C 324.902 51.752,339.173 51.767,339.744 52.027 C 340.757 52.489,340.678 54.335,339.494 57.852 C 339.130 58.931,338.833 59.987,338.832 60.198 C 338.831 60.410,338.570 61.333,338.251 62.250 C 337.933 63.167,337.516 64.742,337.325 65.750 C 337.134 66.758,336.745 68.333,336.460 69.250 C 336.176 70.167,335.699 71.929,335.401 73.167 C 334.780 75.747,334.239 77.708,333.331 80.667 C 332.979 81.813,332.569 83.425,332.419 84.250 C 332.269 85.075,331.856 86.688,331.501 87.833 C 331.145 88.979,330.763 90.279,330.652 90.721 C 330.313 92.069,330.259 92.083,325.424 92.083 C 319.151 92.083,319.459 92.591,321.531 85.667 C 321.819 84.704,322.305 82.942,322.610 81.750 C 322.916 80.558,323.344 79.133,323.563 78.583 C 323.781 78.033,324.084 77.021,324.237 76.333 C 324.389 75.646,324.734 74.550,325.002 73.898 C 325.271 73.246,325.674 71.783,325.897 70.648 C 326.121 69.512,326.497 68.171,326.734 67.667 C 327.017 67.062,327.163 66.466,327.162 65.917 C 327.161 64.395,326.582 64.233,326.075 65.613 C 325.913 66.055,325.542 66.679,325.251 67.000 C 324.413 67.923,322.933 70.158,322.438 71.245 C 322.188 71.793,321.876 72.361,321.743 72.507 C 321.611 72.654,321.236 73.294,320.911 73.929 C 320.273 75.178,319.331 76.747,318.667 77.671 C 318.438 77.989,318.076 78.624,317.864 79.082 C 317.652 79.540,317.308 80.140,317.101 80.415 C 316.894 80.691,316.463 81.404,316.143 82.000 C 315.489 83.219,314.666 84.591,313.994 85.583 C 313.746 85.950,313.267 86.775,312.929 87.417 C 312.591 88.058,312.062 88.996,311.754 89.500 C 311.446 90.004,311.056 90.642,310.889 90.917 C 310.258 91.950,309.662 92.083,305.667 92.083 C 300.758 92.083,300.843 92.140,300.519 88.667 C 300.251 85.798,300.022 81.930,299.827 77.000 C 299.731 74.571,299.548 71.871,299.420 71.000 C 299.292 70.129,299.137 68.817,299.076 68.083 C 298.967 66.782,298.301 64.873,297.861 64.601 C 297.531 64.397,297.206 65.391,296.835 67.735 C 296.634 69.009,296.257 70.809,295.998 71.735 C 295.739 72.660,295.443 73.882,295.341 74.450 C 295.239 75.019,294.927 76.294,294.649 77.284 C 294.371 78.274,293.883 80.321,293.565 81.833 C 293.246 83.346,292.809 85.146,292.593 85.833 C 292.376 86.521,292.073 87.908,291.918 88.917 C 291.428 92.102,291.464 92.083,285.909 92.083 C 280.225 92.083,280.250 92.101,281.324 88.798 C 281.693 87.663,282.180 85.838,282.406 84.742 C 282.631 83.647,283.002 82.208,283.230 81.545 C 283.458 80.883,283.804 79.550,284.000 78.583 C 284.196 77.617,284.539 76.286,284.763 75.627 C 284.988 74.968,285.322 73.788,285.506 73.006 C 285.690 72.223,286.026 71.021,286.252 70.333 C 286.479 69.646,286.927 67.924,287.249 66.508 C 287.571 65.091,287.976 63.554,288.149 63.091 C 288.322 62.628,288.626 61.443,288.826 60.456 C 289.025 59.470,289.368 58.150,289.586 57.523 C 289.805 56.897,290.110 55.829,290.263 55.150 C 290.627 53.534,291.029 52.772,291.789 52.256 L 292.411 51.833 299.766 51.833 C 306.894 51.833,307.135 51.844,307.550 52.170 M369.750 52.622 C 371.217 53.001,372.692 53.360,373.029 53.421 C 374.895 53.760,376.451 56.220,376.769 59.333 C 376.903 60.643,375.810 67.132,375.142 69.000 C 374.863 69.779,374.452 71.014,374.229 71.743 C 372.890 76.129,369.653 79.619,365.750 80.887 C 362.674 81.885,362.558 81.898,355.833 81.956 C 349.254 82.012,348.889 82.053,348.407 82.788 C 347.958 83.474,347.224 85.834,346.751 88.117 C 345.912 92.167,346.062 92.068,340.693 92.135 C 334.962 92.208,334.914 92.180,335.573 89.237 C 335.797 88.236,336.167 86.875,336.396 86.212 C 336.624 85.550,336.971 84.219,337.166 83.255 C 337.361 82.291,337.736 80.865,337.999 80.087 C 338.262 79.309,338.600 78.070,338.750 77.333 C 338.900 76.597,339.241 75.349,339.508 74.560 C 339.774 73.771,340.186 72.189,340.421 71.044 C 340.657 69.899,341.028 68.491,341.245 67.915 C 341.461 67.339,341.800 66.071,341.997 65.097 C 342.194 64.123,342.542 62.784,342.769 62.121 C 342.996 61.459,343.293 60.399,343.428 59.766 C 343.563 59.133,343.964 57.670,344.319 56.516 C 344.675 55.361,345.048 54.108,345.149 53.731 C 345.670 51.790,345.312 51.845,357.083 51.893 L 367.083 51.934 369.750 52.622 M80.307 58.732 C 79.899 59.044,78.407 59.878,76.991 60.586 C 75.575 61.294,74.216 62.016,73.970 62.190 C 73.724 62.364,73.029 62.692,72.425 62.920 C 71.821 63.147,71.027 63.531,70.662 63.773 C 69.948 64.245,68.280 65.020,66.000 65.937 C 65.221 66.250,64.096 66.758,63.500 67.065 C 62.904 67.372,61.868 67.787,61.198 67.986 C 59.455 68.505,57.333 69.852,57.333 70.440 C 57.333 70.864,59.091 72.433,60.083 72.897 C 60.633 73.154,61.316 73.539,61.600 73.754 C 61.883 73.969,62.821 74.556,63.683 75.059 C 65.350 76.031,66.117 76.516,67.353 77.379 C 67.777 77.675,68.339 78.046,68.603 78.204 C 68.867 78.361,69.533 78.865,70.083 79.322 C 70.633 79.780,71.496 80.395,72.000 80.689 C 72.504 80.983,73.193 81.469,73.532 81.769 C 73.870 82.069,74.395 82.441,74.698 82.595 C 75.316 82.908,76.414 83.746,77.417 84.668 C 80.373 87.386,80.830 86.798,81.016 80.033 C 81.149 75.200,81.502 70.208,81.921 67.250 C 83.058 59.220,82.629 56.959,80.307 58.732 M354.947 61.075 C 353.947 61.432,353.705 61.757,353.410 63.144 C 353.262 63.844,352.922 65.092,352.656 65.917 C 351.593 69.211,351.283 71.585,351.850 72.099 C 352.714 72.882,360.378 72.620,361.624 71.766 C 364.637 69.699,366.163 62.621,363.853 61.427 C 362.694 60.827,356.344 60.577,354.947 61.075 M136.121 61.589 C 133.257 62.125,131.969 63.454,130.674 67.212 C 130.414 67.966,130.036 69.033,129.835 69.582 C 129.634 70.131,129.330 71.312,129.159 72.206 C 128.989 73.101,128.606 74.564,128.309 75.458 C 127.581 77.647,127.477 81.307,128.128 81.835 C 128.626 82.239,130.395 82.819,131.703 83.008 C 134.134 83.359,139.468 82.161,140.014 81.141 C 140.118 80.946,140.525 80.366,140.918 79.851 C 141.358 79.277,141.807 78.403,142.085 77.583 C 142.333 76.850,142.642 76.045,142.771 75.794 C 142.900 75.544,143.194 74.531,143.424 73.544 C 143.655 72.558,144.036 71.262,144.271 70.667 C 145.502 67.549,145.632 63.492,144.539 62.284 C 143.739 61.400,139.156 61.022,136.121 61.589 M181.500 63.672 C 186.771 64.922,187.723 66.456,187.185 72.833 C 187.002 75.006,186.809 75.930,186.281 77.167 C 186.144 77.487,185.876 78.405,185.686 79.206 C 185.496 80.006,185.122 81.096,184.854 81.626 C 184.586 82.157,184.277 82.927,184.168 83.338 C 184.059 83.748,183.719 84.571,183.412 85.167 C 183.106 85.763,182.627 86.737,182.347 87.333 C 180.539 91.186,177.365 92.628,170.833 92.563 C 167.996 92.534,166.683 92.230,165.244 91.264 C 163.646 90.193,163.521 90.284,162.984 92.915 C 162.803 93.800,162.465 95.024,162.232 95.637 C 161.999 96.249,161.665 97.497,161.489 98.411 C 161.078 100.544,159.953 103.370,159.294 103.924 C 158.791 104.347,156.773 104.482,152.750 104.360 C 150.234 104.284,149.691 103.373,150.678 100.889 C 150.959 100.181,151.332 98.804,151.508 97.829 C 151.684 96.853,152.011 95.568,152.235 94.973 C 152.459 94.378,152.834 92.983,153.068 91.873 C 153.303 90.763,153.715 89.157,153.984 88.303 C 154.254 87.449,154.601 86.112,154.756 85.333 C 154.911 84.554,155.246 83.392,155.500 82.750 C 155.755 82.108,156.126 80.758,156.325 79.750 C 156.524 78.742,156.906 77.242,157.174 76.417 C 157.443 75.592,157.822 74.129,158.017 73.167 C 158.211 72.204,158.548 70.942,158.766 70.362 C 158.984 69.781,159.350 68.399,159.579 67.289 C 160.265 63.973,160.761 63.667,165.460 63.667 C 169.133 63.667,169.226 63.701,169.796 65.250 C 170.190 66.321,170.741 66.232,172.530 64.808 C 173.960 63.670,178.870 63.048,181.500 63.672 M210.503 63.879 C 216.445 65.044,218.349 67.630,217.279 73.083 C 215.771 80.770,216.699 80.155,206.583 80.172 C 197.090 80.188,197.001 80.214,197.001 82.917 C 197.001 85.103,197.921 85.723,201.000 85.607 C 203.214 85.524,203.753 85.297,204.696 84.046 C 205.927 82.412,206.274 82.308,210.287 82.367 C 214.137 82.424,214.220 82.453,214.414 83.833 C 214.510 84.516,214.436 84.745,213.588 86.393 C 211.627 90.203,209.455 91.793,205.706 92.165 C 204.722 92.262,203.167 92.415,202.250 92.505 C 198.988 92.824,196.746 92.721,192.583 92.060 C 190.540 91.736,189.191 90.868,188.042 89.139 L 187.250 87.946 187.260 84.848 C 187.269 81.811,187.280 81.720,187.796 80.250 C 188.085 79.425,188.470 78.064,188.650 77.226 C 188.830 76.387,189.197 75.262,189.466 74.726 C 189.734 74.189,190.087 73.337,190.249 72.833 C 191.465 69.061,194.865 65.446,198.083 64.502 C 202.130 63.316,206.508 63.096,210.503 63.879 M242.742 63.845 C 247.368 65.038,248.986 67.840,247.546 72.167 C 247.348 72.762,247.066 73.925,246.919 74.750 C 246.773 75.575,246.436 76.887,246.170 77.667 C 245.905 78.446,245.526 79.908,245.328 80.917 C 245.131 81.925,244.783 83.219,244.556 83.791 C 244.330 84.364,243.966 85.676,243.749 86.708 C 243.401 88.360,242.610 90.838,242.166 91.668 C 241.845 92.268,241.173 92.359,237.478 92.304 C 232.670 92.231,232.248 92.007,233.053 89.958 C 233.279 89.385,233.590 88.204,233.746 87.333 C 233.901 86.462,234.283 84.961,234.593 83.997 C 234.904 83.033,235.311 81.502,235.498 80.595 C 235.684 79.688,236.071 78.265,236.356 77.434 C 236.949 75.706,237.153 73.672,236.846 72.541 C 236.078 69.713,230.166 71.753,229.162 75.193 C 228.965 75.866,228.631 76.867,228.420 77.417 C 228.208 77.967,227.909 79.092,227.755 79.917 C 227.601 80.742,227.222 82.204,226.914 83.167 C 226.606 84.129,226.166 85.817,225.936 86.917 C 224.829 92.209,224.803 92.233,220.129 92.301 C 214.882 92.378,214.487 92.125,215.429 89.297 C 215.665 88.588,216.029 87.201,216.239 86.213 C 216.449 85.225,216.785 83.975,216.986 83.436 C 217.187 82.897,217.506 81.698,217.695 80.772 C 217.884 79.847,218.205 78.713,218.408 78.253 C 218.772 77.430,219.135 76.054,219.511 74.083 C 219.616 73.533,219.917 72.405,220.181 71.577 C 220.444 70.748,220.812 69.313,220.997 68.388 C 221.870 64.033,222.177 63.779,226.667 63.706 C 230.268 63.646,230.379 63.679,231.047 65.000 C 231.302 65.504,231.577 65.940,231.659 65.968 C 232.015 66.091,233.196 65.616,233.808 65.105 C 234.410 64.602,236.062 64.029,238.583 63.449 C 239.499 63.238,240.909 63.372,242.742 63.845 M201.861 71.081 C 200.993 71.352,200.569 71.712,200.149 72.535 C 199.367 74.067,199.902 74.306,203.967 74.239 L 207.082 74.188 207.458 73.752 C 209.150 71.784,205.378 69.984,201.861 71.081 M171.833 71.168 C 169.895 71.499,168.525 72.878,167.823 75.206 C 167.566 76.055,167.155 77.313,166.909 78.000 C 166.007 80.520,165.969 83.534,166.828 84.456 C 168.169 85.895,173.088 85.127,174.016 83.333 C 174.087 83.196,174.418 82.622,174.752 82.059 C 175.340 81.066,175.458 80.674,176.843 75.114 C 177.685 71.731,176.053 70.445,171.833 71.168 M19.231 73.081 C 20.730 73.478,23.246 75.669,24.066 77.292 C 24.286 77.727,24.655 78.440,24.886 78.875 C 27.784 84.348,21.273 92.511,14.809 91.508 C 12.386 91.132,9.163 89.139,8.325 87.500 C 8.208 87.271,7.906 86.821,7.653 86.500 C 6.540 85.090,6.218 80.342,7.090 78.218 C 7.601 76.973,9.611 74.766,11.279 73.618 C 12.611 72.701,16.744 72.422,19.231 73.081 M207.998 99.292 C 209.478 100.034,208.977 101.056,207.000 101.329 C 205.255 101.570,204.833 102.095,204.985 103.833 C 205.041 104.473,205.373 104.693,206.592 104.897 C 208.499 105.214,208.575 106.667,206.685 106.667 C 205.758 106.667,205.284 106.883,204.507 107.660 C 203.332 108.834,203.579 109.195,205.935 109.750 C 208.743 110.412,209.076 110.128,209.410 106.788 C 209.748 103.406,209.881 103.263,212.833 103.118 C 214.261 103.048,215.044 103.111,216.583 103.421 C 217.024 103.510,217.176 103.423,217.869 102.686 C 219.192 101.279,220.479 101.152,221.095 102.368 C 221.718 103.596,222.352 103.774,224.177 103.232 C 225.197 102.929,226.285 102.996,227.515 103.438 C 228.269 103.709,228.312 103.707,229.061 103.344 C 229.794 102.989,229.904 102.981,231.346 103.168 C 232.179 103.277,233.136 103.311,233.472 103.245 C 236.277 102.691,238.927 103.066,240.491 104.237 L 241.065 104.667 241.745 103.894 C 242.419 103.128,242.435 103.121,243.421 103.146 C 243.969 103.159,244.815 103.088,245.303 102.987 C 246.130 102.817,246.251 102.836,247.105 103.268 C 248.089 103.766,248.296 103.758,250.457 103.136 C 252.121 102.656,253.400 104.042,251.875 104.672 C 250.257 105.341,250.146 105.738,251.333 106.600 C 252.473 107.427,252.880 107.204,253.324 105.510 C 253.391 105.256,253.682 104.949,254.044 104.753 C 254.379 104.571,254.747 104.245,254.862 104.030 C 255.547 102.749,258.095 102.723,259.237 103.985 C 259.632 104.422,259.780 105.962,259.463 106.333 C 258.771 107.144,257.764 107.829,256.784 108.155 C 255.215 108.678,255.142 109.136,256.556 109.597 C 257.578 109.930,257.833 110.110,257.833 110.495 C 257.833 111.728,254.980 111.787,253.405 110.586 C 252.692 110.042,252.379 110.057,251.748 110.669 C 250.994 111.399,249.652 111.657,248.466 111.300 C 247.879 111.123,247.241 111.062,246.564 111.119 C 244.875 111.259,243.920 110.628,244.404 109.691 C 244.803 108.920,245.058 107.315,244.885 106.667 C 244.551 105.419,243.792 106.122,243.494 107.955 C 243.410 108.467,243.199 109.043,243.023 109.234 C 242.848 109.426,242.546 109.900,242.352 110.286 C 241.685 111.614,240.841 111.632,240.300 110.328 C 239.830 109.198,239.596 109.173,238.686 110.158 C 237.850 111.062,236.908 111.500,235.801 111.500 C 234.616 111.500,234.267 111.812,233.995 113.115 C 233.672 114.658,233.129 115.068,232.073 114.567 C 231.330 114.215,231.245 113.851,231.635 112.706 C 232.042 111.511,232.565 106.781,232.368 106.083 C 231.994 104.766,231.222 105.487,230.246 108.062 C 228.912 111.579,228.926 111.565,227.274 111.176 C 226.549 111.005,226.321 111.015,225.797 111.237 C 224.917 111.611,223.307 111.578,222.509 111.171 C 221.400 110.606,220.688 110.578,219.833 111.067 C 218.788 111.665,218.399 111.623,217.648 110.833 C 216.884 110.031,216.996 110.038,216.283 110.750 C 215.598 111.435,215.189 111.480,214.557 110.937 L 214.096 110.540 214.300 108.895 C 214.569 106.716,214.554 105.818,214.241 105.370 C 213.319 104.054,211.694 106.183,211.408 109.083 C 211.209 111.087,211.083 111.195,209.083 111.062 C 207.819 110.978,207.421 111.018,206.547 111.314 C 204.561 111.989,201.907 111.711,201.485 110.783 C 201.239 110.243,201.852 105.440,202.415 103.500 C 202.641 102.721,202.905 101.663,203.003 101.150 C 203.350 99.319,206.050 98.315,207.998 99.292 M174.458 99.526 C 175.687 99.941,176.904 100.940,177.573 102.081 C 178.133 103.036,178.653 103.181,181.323 103.126 L 183.357 103.083 183.844 103.667 C 184.111 103.987,184.444 104.381,184.582 104.542 C 184.759 104.747,185.080 104.833,185.667 104.833 C 186.522 104.833,186.799 104.672,187.333 103.865 C 188.106 102.696,190.290 102.831,192.159 104.161 L 192.623 104.491 193.270 103.856 L 193.918 103.222 195.958 103.119 C 199.756 102.928,200.443 103.689,199.942 107.533 C 199.680 109.542,199.318 110.404,198.503 110.958 C 196.992 111.985,196.537 110.673,197.310 107.518 C 197.694 105.953,197.633 105.663,196.827 105.247 C 195.893 104.764,195.777 104.933,194.659 108.417 C 194.020 110.409,193.768 110.934,193.343 111.162 C 192.332 111.703,191.516 110.903,191.805 109.654 C 192.314 107.447,191.611 106.234,190.505 107.411 C 190.293 107.637,189.649 107.978,189.074 108.170 C 187.491 108.696,187.512 108.977,189.187 109.716 C 190.577 110.329,190.662 110.766,189.484 111.237 C 187.788 111.916,186.392 111.372,185.347 109.625 C 184.843 108.783,184.688 108.820,183.149 110.152 C 181.983 111.162,181.710 111.319,180.951 111.422 C 179.481 111.621,178.721 112.212,177.949 113.759 C 176.943 115.772,175.708 115.145,175.905 112.722 C 176.075 110.620,175.707 110.215,174.295 110.952 C 171.928 112.190,168.708 111.413,167.687 109.357 C 165.244 104.436,169.726 97.928,174.458 99.526 M310.095 99.444 C 311.911 100.057,312.716 100.850,312.998 102.302 C 313.359 104.165,313.531 104.289,314.762 103.568 C 315.652 103.046,317.544 102.862,319.071 103.148 C 320.170 103.354,320.458 103.221,320.942 102.285 C 321.431 101.339,322.670 101.390,323.803 102.404 C 324.655 103.165,325.032 103.333,325.881 103.333 C 326.422 103.333,326.810 103.465,327.350 103.830 C 328.261 104.447,328.328 104.448,328.913 103.837 C 329.879 102.829,331.387 102.752,332.508 103.653 C 333.292 104.283,333.371 104.284,334.690 103.684 C 336.021 103.077,339.267 102.829,340.288 103.255 C 341.192 103.633,341.454 103.562,342.385 102.690 C 344.195 100.994,344.617 101.024,345.766 102.931 C 346.471 104.103,346.485 103.977,345.542 104.943 C 344.137 106.382,343.597 108.663,344.428 109.650 C 345.068 110.411,344.941 111.021,344.083 111.302 C 342.909 111.686,342.252 111.386,341.375 110.064 C 341.171 109.756,341.162 109.756,340.958 110.064 C 339.723 111.926,338.345 111.697,338.571 109.667 C 338.877 106.909,338.886 105.854,338.604 105.424 C 338.260 104.900,337.767 104.879,337.420 105.375 C 336.170 107.166,335.994 107.530,335.815 108.704 C 335.545 110.469,335.312 111.054,334.805 111.232 C 334.193 111.447,333.099 110.782,333.219 110.269 C 333.682 108.302,333.721 107.983,333.574 107.388 C 333.365 106.544,333.033 106.523,332.241 107.299 C 331.763 107.768,331.384 107.976,330.854 108.061 C 329.041 108.351,328.974 109.035,330.683 109.795 C 332.021 110.389,332.062 110.558,331.004 111.118 C 329.707 111.804,328.071 111.536,327.347 110.519 C 326.865 109.843,326.569 109.864,325.911 110.625 C 325.390 111.227,325.329 111.251,324.227 111.275 C 323.598 111.288,322.706 111.352,322.244 111.417 C 321.453 111.529,321.360 111.501,320.604 110.924 C 319.200 109.852,319.091 109.838,318.323 110.638 C 317.955 111.020,317.563 111.342,317.452 111.353 C 312.827 111.804,311.333 111.012,311.333 108.106 C 311.333 106.477,311.069 106.230,309.631 106.519 C 307.834 106.880,306.668 107.915,306.666 109.150 C 306.663 110.634,306.093 111.477,305.237 111.262 C 304.519 111.081,304.286 110.497,304.491 109.388 C 304.590 108.854,304.781 107.442,304.917 106.250 C 305.590 100.324,307.044 98.414,310.095 99.444 M266.062 99.680 C 266.684 100.169,266.771 100.387,267.084 102.254 C 267.644 105.585,268.612 106.506,269.347 104.406 C 269.505 103.954,269.942 102.998,270.317 102.283 C 270.693 101.567,271.000 100.880,271.000 100.756 C 271.000 99.868,273.226 99.186,273.941 99.855 C 274.361 100.248,274.363 100.261,274.248 102.191 C 274.090 104.835,274.695 105.572,275.923 104.231 C 276.934 103.127,279.174 102.752,281.776 103.250 C 282.958 103.476,283.159 103.474,283.891 103.231 C 284.588 102.999,284.840 102.991,285.691 103.172 C 287.030 103.456,287.888 103.209,288.364 102.402 C 289.086 101.179,289.863 101.179,291.050 102.404 C 292.116 103.505,292.490 103.614,293.945 103.249 C 295.408 102.882,296.222 102.994,296.903 103.654 C 297.498 104.230,297.852 104.296,298.188 103.891 C 298.589 103.407,299.453 103.167,300.791 103.167 C 302.713 103.167,303.410 103.834,302.403 104.709 C 302.166 104.915,301.697 105.451,301.361 105.901 C 301.025 106.350,300.652 106.849,300.532 107.010 C 300.412 107.171,300.212 107.965,300.088 108.776 C 299.725 111.155,299.612 111.271,297.921 111.001 C 296.794 110.821,296.353 110.865,295.288 111.264 C 294.021 111.740,292.600 111.490,291.719 110.637 L 291.167 110.101 290.625 110.693 C 289.660 111.747,287.986 111.615,287.070 110.414 C 286.517 109.689,286.295 109.687,285.752 110.399 C 284.977 111.415,284.189 111.512,278.292 111.313 C 277.994 111.303,277.284 111.351,276.714 111.420 C 275.860 111.523,275.472 111.479,274.508 111.169 C 273.401 110.813,273.308 110.807,272.769 111.063 C 271.440 111.694,271.000 111.237,271.000 109.225 C 271.000 106.888,270.125 106.641,269.428 108.781 C 268.940 110.282,267.625 111.589,266.816 111.377 C 266.262 111.232,266.032 110.670,265.850 109.014 C 265.590 106.654,265.364 106.611,264.311 108.721 C 263.352 110.642,262.926 111.167,262.329 111.167 C 261.203 111.167,261.136 109.832,262.155 107.659 C 262.546 106.824,262.742 106.024,262.992 104.243 C 263.569 100.132,264.631 98.554,266.062 99.680 M247.927 100.242 C 248.436 101.019,247.813 101.743,247.060 101.250 C 246.578 100.934,246.564 100.673,247.006 100.198 C 247.441 99.732,247.597 99.739,247.927 100.242 M351.000 100.167 C 351.451 100.618,351.420 101.090,350.846 102.529 C 350.048 104.525,349.938 109.320,350.686 109.464 C 351.133 109.550,351.338 108.698,351.447 106.303 C 351.588 103.197,351.434 103.356,354.528 103.126 C 357.316 102.919,357.736 103.008,358.364 103.933 C 358.968 104.822,360.296 104.744,361.323 103.760 C 361.620 103.475,362.096 103.274,362.759 103.153 C 363.900 102.945,364.300 102.631,364.993 101.404 C 366.682 98.411,368.049 99.532,367.396 103.375 L 367.290 104.000 367.922 104.000 C 368.309 104.000,368.850 103.825,369.319 103.550 C 369.944 103.182,370.266 103.104,371.083 103.126 C 375.671 103.251,375.400 103.219,376.043 103.708 C 376.815 104.296,377.344 104.286,378.633 103.657 C 380.473 102.759,381.518 103.926,379.796 104.955 C 379.393 105.196,379.153 105.538,378.879 106.266 L 378.508 107.250 378.921 108.583 C 379.711 111.137,378.728 112.427,377.333 110.667 C 376.688 109.851,376.437 109.840,375.338 110.580 C 374.159 111.374,373.626 111.475,370.809 111.444 L 368.368 111.417 367.694 110.875 C 366.881 110.222,366.906 110.224,366.093 110.776 C 365.522 111.164,365.206 111.234,363.513 111.348 C 360.545 111.549,360.441 111.541,359.766 111.083 C 359.018 110.576,358.862 110.570,357.991 111.024 C 356.489 111.807,355.858 111.013,356.236 108.813 C 356.858 105.188,356.042 103.840,354.495 105.939 C 354.177 106.370,353.827 106.841,353.716 106.986 C 353.606 107.131,353.430 107.962,353.324 108.833 C 353.043 111.156,352.747 111.452,351.224 110.934 C 350.223 110.593,349.329 110.594,348.607 110.939 C 347.206 111.607,346.758 110.846,347.331 108.775 C 347.945 106.560,348.141 105.538,348.406 103.171 C 348.682 100.706,348.913 100.165,349.768 99.978 C 350.561 99.805,350.652 99.819,351.000 100.167 M327.170 100.340 C 327.405 100.779,327.239 101.288,326.817 101.422 C 326.208 101.615,325.822 100.991,326.101 100.264 C 326.247 99.885,326.954 99.935,327.170 100.340 M172.177 101.499 C 171.744 101.566,171.342 101.746,171.207 101.932 C 171.080 102.107,170.688 102.643,170.335 103.124 C 168.343 105.838,169.649 110.032,172.352 109.600 C 173.463 109.422,173.640 109.240,174.594 107.297 C 176.399 103.619,175.311 101.010,172.177 101.499 M308.578 101.879 C 307.586 102.732,307.893 104.667,309.021 104.667 C 310.047 104.667,311.049 102.370,310.208 101.942 C 309.299 101.479,309.054 101.470,308.578 101.879 M285.172 104.930 C 284.629 105.166,284.342 105.431,284.336 105.701 C 284.334 105.765,284.652 106.148,285.042 106.551 C 285.431 106.954,285.875 107.464,286.028 107.684 C 286.392 108.207,286.782 107.990,287.282 106.985 C 288.161 105.217,287.036 104.122,285.172 104.930 M180.378 105.625 C 178.341 107.806,178.920 110.513,181.135 109.163 C 181.833 108.737,182.325 107.673,182.330 106.579 C 182.337 104.947,181.427 104.502,180.378 105.625 M236.226 105.128 C 235.915 105.328,234.640 108.312,234.697 108.707 C 234.840 109.697,236.646 109.688,237.152 108.695 C 237.330 108.346,237.601 107.957,237.755 107.829 C 239.069 106.738,237.642 104.217,236.226 105.128 M276.972 105.929 C 275.959 106.988,275.861 107.173,275.845 108.053 C 275.809 110.037,277.724 110.195,278.659 108.286 C 280.063 105.418,278.949 103.861,276.972 105.929 M362.501 105.215 C 361.019 105.965,360.781 109.667,362.215 109.667 C 362.446 109.667,363.805 108.208,364.078 107.667 C 364.985 105.871,364.057 104.428,362.501 105.215 M369.875 105.110 C 369.340 105.326,369.857 106.251,370.448 106.137 C 370.859 106.058,370.934 105.486,370.570 105.219 C 370.251 104.986,370.202 104.979,369.875 105.110 M224.393 105.419 C 224.269 105.742,224.619 106.167,225.011 106.167 C 225.399 106.167,225.550 105.919,225.416 105.499 C 225.290 105.100,224.538 105.042,224.393 105.419 M315.128 105.458 C 314.172 106.545,313.635 108.469,314.147 108.980 C 315.117 109.951,315.631 109.640,316.329 107.662 C 316.969 105.848,316.964 105.704,316.255 105.408 C 315.521 105.101,315.440 105.105,315.128 105.458 M323.081 105.563 C 322.528 106.408,322.457 108.780,322.968 109.375 C 323.654 110.174,324.094 109.515,324.263 107.435 C 324.421 105.483,323.790 104.482,323.081 105.563 M294.266 105.474 C 294.208 105.567,294.242 105.694,294.342 105.755 C 294.598 105.914,294.763 105.697,294.549 105.483 C 294.430 105.363,294.336 105.360,294.266 105.474 M290.944 105.611 C 290.788 105.767,290.806 106.333,290.967 106.333 C 291.174 106.333,291.500 105.957,291.500 105.717 C 291.500 105.490,291.135 105.420,290.944 105.611 M319.916 105.668 C 319.770 105.904,319.991 106.525,320.179 106.409 C 320.381 106.284,320.379 105.500,320.177 105.500 C 320.090 105.500,319.973 105.576,319.916 105.668 M220.032 105.948 C 219.468 107.028,219.687 109.833,220.335 109.833 C 220.711 109.833,220.774 109.364,220.667 107.347 C 220.584 105.780,220.368 105.305,220.032 105.948 M115.103 107.208 C 115.825 107.534,116.659 107.892,116.955 108.003 C 117.654 108.264,119.120 109.783,120.061 111.222 C 122.432 114.844,121.394 121.135,117.980 123.834 C 113.450 127.414,105.603 126.171,103.247 121.500 C 103.085 121.179,102.782 120.711,102.572 120.460 C 101.999 119.773,101.796 118.433,101.860 115.762 L 101.917 113.391 102.521 112.404 C 102.854 111.861,103.281 111.109,103.470 110.734 C 103.659 110.358,104.001 109.929,104.229 109.779 C 104.457 109.630,104.774 109.287,104.933 109.017 C 105.093 108.747,105.379 108.454,105.570 108.366 C 105.761 108.278,106.589 107.887,107.411 107.497 C 109.984 106.277,112.808 106.170,115.103 107.208 M247.305 106.875 C 247.009 107.411,247.025 109.210,247.328 109.576 C 247.596 109.900,248.831 109.858,249.495 109.503 C 250.034 109.214,249.943 108.396,249.311 107.860 C 249.024 107.616,248.572 107.210,248.306 106.958 C 247.719 106.402,247.572 106.390,247.305 106.875 M373.583 106.622 C 373.400 106.668,372.933 106.996,372.545 107.352 C 372.082 107.778,371.683 108.000,371.379 108.001 C 370.626 108.002,369.682 108.326,369.514 108.641 C 369.175 109.274,369.927 109.670,371.447 109.657 C 373.384 109.641,373.822 109.349,374.853 107.386 C 375.239 106.650,374.720 106.338,373.583 106.622 M296.977 107.579 C 296.933 107.622,296.343 107.774,295.665 107.917 C 293.392 108.395,293.200 109.321,295.265 109.837 C 296.816 110.225,297.667 109.681,297.667 108.302 C 297.667 107.550,297.344 107.212,296.977 107.579 M281.868 107.853 C 281.582 107.959,281.500 108.123,281.500 108.586 C 281.500 109.749,283.527 110.061,283.627 108.914 C 283.701 108.060,282.792 107.511,281.868 107.853 M225.121 108.144 C 223.184 108.654,223.172 109.090,225.078 109.644 C 226.553 110.072,226.883 110.019,227.178 109.305 C 227.677 108.101,226.916 107.671,225.121 108.144 " stroke="none" fill="#fbfbfb" fill-rule="evenodd"></path></g></svg>