<svg id="svg" version="1.1" xmlns="http://www.w3.org/2000/svg" xmlns:xlink="http://www.w3.org/1999/xlink" width="400" height="86.74698795180724" viewBox="0, 0, 400,86.74698795180724"><g id="svgg"><path id="path0" d="M331.333 4.649 C 331.333 4.745,331.458 4.775,331.611 4.716 C 331.770 4.655,331.846 4.678,331.788 4.771 C 331.734 4.860,331.759 5.042,331.845 5.175 C 331.960 5.353,331.986 5.308,331.942 5.000 C 331.887 4.604,331.333 4.285,331.333 4.649 M10.278 25.611 C 10.217 25.672,10.167 27.622,10.167 29.944 L 10.167 34.167 14.500 34.167 L 18.833 34.167 18.833 30.097 C 18.833 27.859,18.788 25.909,18.732 25.764 C 18.627 25.489,10.546 25.343,10.278 25.611 M173.203 25.697 C 173.054 25.846,173.000 27.009,173.000 30.033 L 173.000 34.167 177.336 34.167 L 181.672 34.167 181.628 29.875 L 181.583 25.583 177.494 25.539 C 174.454 25.506,173.354 25.546,173.203 25.697 M318.005 26.160 C 317.870 26.245,317.810 26.366,317.872 26.427 C 317.934 26.489,318.106 26.418,318.254 26.270 C 318.547 25.977,318.399 25.911,318.005 26.160 M363.111 26.611 C 363.050 26.672,362.990 29.091,362.977 31.986 C 362.965 34.881,362.923 37.087,362.884 36.887 C 362.747 36.183,362.576 36.159,357.896 36.206 L 353.417 36.250 353.364 36.708 C 353.320 37.092,353.232 37.167,352.822 37.167 C 352.390 37.167,352.333 37.225,352.333 37.667 C 352.333 38.111,352.278 38.167,351.833 38.167 C 351.415 38.167,351.333 38.233,351.333 38.572 C 351.333 38.865,351.230 38.992,350.958 39.030 C 350.627 39.077,350.578 39.193,350.534 40.031 C 350.487 40.923,350.457 40.982,350.034 41.031 L 349.583 41.083 349.541 53.462 L 349.498 65.841 349.999 65.941 C 350.481 66.038,350.500 66.075,350.500 66.938 C 350.500 67.782,350.524 67.833,350.917 67.833 C 351.269 67.833,351.333 67.911,351.333 68.333 C 351.333 68.778,351.389 68.833,351.833 68.833 C 352.278 68.833,352.333 68.889,352.333 69.333 C 352.333 69.775,352.390 69.833,352.822 69.833 C 353.232 69.833,353.320 69.908,353.364 70.292 L 353.417 70.750 357.549 70.795 C 362.053 70.843,362.720 70.767,362.803 70.198 C 362.890 69.603,363.794 69.683,363.864 70.292 L 363.917 70.750 368.167 70.750 L 372.417 70.750 372.459 48.625 L 372.501 26.500 367.862 26.500 C 365.310 26.500,363.172 26.550,363.111 26.611 M49.000 27.661 C 48.790 27.796,48.742 28.561,48.699 32.494 L 48.647 37.167 47.240 37.167 L 45.833 37.167 45.833 39.638 L 45.833 42.109 45.340 42.036 L 44.846 41.964 44.798 40.524 C 44.750 39.090,44.748 39.083,44.292 39.031 C 43.932 38.989,43.833 38.891,43.833 38.572 C 43.833 38.233,43.752 38.167,43.333 38.167 C 42.889 38.167,42.833 38.111,42.833 37.667 C 42.833 37.248,42.767 37.167,42.428 37.167 C 42.109 37.167,42.011 37.068,41.969 36.708 L 41.917 36.250 37.167 36.250 L 32.417 36.250 32.364 36.708 L 32.311 37.167 27.488 37.167 L 22.665 37.167 22.708 53.958 L 22.750 70.750 27.042 70.794 L 31.333 70.839 31.333 58.771 L 31.333 46.703 31.744 46.600 C 32.089 46.513,32.173 46.366,32.262 45.692 L 32.369 44.888 33.221 44.736 C 33.930 44.609,34.090 44.514,34.177 44.167 L 34.282 43.750 34.350 44.160 C 34.394 44.429,34.557 44.603,34.827 44.666 C 35.084 44.726,35.274 44.916,35.334 45.173 C 35.394 45.430,35.568 45.603,35.797 45.636 L 36.165 45.690 36.207 58.220 L 36.250 70.750 40.777 70.794 C 44.729 70.833,45.338 70.805,45.569 70.574 C 45.806 70.337,45.833 68.937,45.833 57.030 L 45.833 43.750 47.250 43.804 L 48.667 43.858 48.667 55.229 C 48.667 67.098,48.661 67.000,49.367 67.000 C 49.619 67.000,49.667 67.145,49.667 67.917 C 49.667 68.824,49.672 68.833,50.167 68.833 C 50.611 68.833,50.667 68.889,50.667 69.333 C 50.667 69.778,50.722 69.833,51.167 69.833 C 51.583 69.833,51.667 69.900,51.667 70.232 C 51.667 70.818,51.793 70.833,56.680 70.833 L 61.167 70.833 61.167 67.000 L 61.167 63.167 59.750 63.167 L 58.333 63.167 58.333 53.500 L 58.333 43.833 59.750 43.833 L 61.167 43.833 61.167 40.500 L 61.167 37.167 59.753 37.167 L 58.338 37.167 58.294 32.375 L 58.250 27.583 53.750 27.543 C 51.097 27.519,49.147 27.568,49.000 27.661 M159.611 27.611 C 159.550 27.672,159.500 29.847,159.500 32.444 L 159.500 37.167 158.083 37.167 L 156.667 37.167 156.667 40.500 L 156.667 43.833 158.083 43.833 L 159.500 43.833 159.500 56.133 C 159.500 68.920,159.495 68.833,160.179 68.833 C 160.356 68.833,160.495 69.017,160.558 69.333 C 160.655 69.816,160.691 69.833,161.568 69.833 C 162.437 69.833,162.480 69.854,162.531 70.292 L 162.583 70.750 166.917 70.797 C 169.300 70.823,171.419 70.802,171.625 70.752 L 172.000 70.660 172.000 66.913 L 172.000 63.167 170.583 63.167 L 169.167 63.167 169.167 62.667 C 169.167 62.222,169.111 62.167,168.667 62.167 L 168.167 62.167 168.167 53.000 L 168.167 43.833 170.083 43.833 L 172.000 43.833 172.000 40.500 L 172.000 37.167 170.083 37.167 L 168.167 37.167 168.167 32.333 L 168.167 27.500 163.944 27.500 C 161.622 27.500,159.672 27.550,159.611 27.611 M317.561 30.750 C 317.561 31.667,317.589 32.020,317.623 31.536 C 317.657 31.052,317.656 30.302,317.622 29.869 C 317.588 29.437,317.560 29.833,317.561 30.750 M68.262 36.429 C 68.118 36.573,68.000 36.798,68.000 36.929 C 68.000 37.098,67.793 37.167,67.283 37.167 C 66.516 37.167,66.167 37.385,66.167 37.867 C 66.167 38.087,66.037 38.167,65.678 38.167 C 65.269 38.167,65.180 38.241,65.136 38.624 C 65.101 38.924,64.969 39.102,64.750 39.143 C 64.293 39.228,64.172 39.466,64.169 40.281 C 64.167 40.917,64.126 40.982,63.708 41.031 C 63.254 41.083,63.250 41.096,63.202 42.458 C 63.159 43.664,63.115 43.833,62.847 43.833 C 62.169 43.833,62.162 43.936,62.207 53.602 L 62.250 62.917 62.702 62.969 C 63.151 63.021,63.154 63.032,63.202 64.469 C 63.250 65.911,63.252 65.917,63.708 65.969 C 64.146 66.020,64.167 66.064,64.167 66.928 C 64.167 67.823,64.172 67.833,64.667 67.833 C 65.111 67.833,65.167 67.889,65.167 68.333 C 65.167 68.775,65.223 68.833,65.656 68.833 C 66.065 68.833,66.153 68.908,66.197 69.292 C 66.246 69.719,66.309 69.753,67.125 69.800 C 67.917 69.846,68.000 69.888,68.000 70.241 C 68.000 70.765,68.250 70.833,70.162 70.833 C 71.772 70.833,71.799 70.840,71.903 71.255 L 72.009 71.676 74.296 71.630 C 76.515 71.585,76.585 71.572,76.636 71.214 C 76.686 70.860,76.771 70.842,78.553 70.797 L 80.417 70.750 80.469 70.292 C 80.520 69.854,80.564 69.833,81.428 69.833 C 82.323 69.833,82.333 69.828,82.333 69.333 C 82.333 68.889,82.389 68.833,82.833 68.833 C 83.278 68.833,83.333 68.778,83.333 68.333 C 83.333 67.889,83.389 67.833,83.833 67.833 C 84.256 67.833,84.333 67.769,84.333 67.417 C 84.333 67.167,84.429 67.000,84.571 67.000 C 85.118 67.000,85.333 66.503,85.333 65.238 C 85.333 64.043,85.347 64.000,85.732 64.000 C 85.952 64.000,86.177 63.881,86.232 63.736 C 86.363 63.395,86.360 58.199,86.228 57.708 L 86.128 57.333 81.897 57.333 L 77.667 57.333 77.667 58.333 L 77.667 59.333 77.167 59.333 L 76.667 59.333 76.667 61.250 L 76.667 63.167 75.950 63.167 C 75.182 63.167,74.833 63.385,74.833 63.867 C 74.833 64.098,74.701 64.167,74.250 64.167 C 73.713 64.167,73.667 64.127,73.667 63.667 C 73.667 63.248,73.601 63.167,73.261 63.167 C 72.942 63.167,72.844 63.068,72.803 62.708 C 72.761 62.348,72.652 62.239,72.292 62.197 L 71.833 62.145 71.833 58.739 L 71.833 55.333 79.083 55.333 L 86.333 55.333 86.333 49.345 C 86.333 43.028,86.311 42.833,85.571 42.833 C 85.391 42.833,85.333 42.582,85.331 41.792 C 85.328 40.355,85.211 40.000,84.742 40.000 C 84.444 40.000,84.343 39.895,84.303 39.542 C 84.261 39.182,84.152 39.072,83.792 39.031 C 83.432 38.989,83.333 38.891,83.333 38.572 C 83.333 38.233,83.252 38.167,82.833 38.167 C 82.389 38.167,82.333 38.111,82.333 37.667 C 82.333 37.172,82.324 37.167,81.417 37.167 C 80.509 37.167,80.500 37.162,80.500 36.667 L 80.500 36.167 74.512 36.167 C 69.290 36.167,68.490 36.200,68.262 36.429 M93.114 36.275 C 93.051 36.338,93.000 36.560,93.000 36.769 C 93.000 37.110,92.910 37.154,92.125 37.200 C 91.314 37.246,91.246 37.283,91.198 37.698 C 91.158 38.045,91.045 38.158,90.698 38.198 C 90.283 38.246,90.246 38.314,90.200 39.125 C 90.154 39.917,90.112 40.000,89.759 40.000 C 89.235 40.000,89.167 40.250,89.167 42.162 C 89.167 43.767,89.159 43.799,88.750 43.902 L 88.333 44.006 88.333 53.000 L 88.333 61.994 88.745 62.097 C 89.148 62.198,89.157 62.239,89.203 64.058 L 89.250 65.917 89.708 65.969 C 90.146 66.020,90.167 66.064,90.167 66.928 C 90.167 67.823,90.172 67.833,90.667 67.833 C 91.111 67.833,91.167 67.889,91.167 68.333 C 91.167 68.778,91.222 68.833,91.667 68.833 C 92.111 68.833,92.167 68.889,92.167 69.333 C 92.167 69.756,92.231 69.833,92.583 69.833 C 92.833 69.833,93.000 69.929,93.000 70.071 C 93.000 70.762,93.374 70.833,96.991 70.833 C 101.044 70.833,101.466 70.778,101.604 70.229 C 101.679 69.927,101.817 69.833,102.185 69.833 L 102.667 69.833 102.667 71.732 C 102.667 73.615,102.663 73.631,102.253 73.734 C 101.997 73.799,101.799 73.997,101.734 74.253 C 101.660 74.549,101.517 74.667,101.232 74.667 C 100.900 74.667,100.833 74.750,100.833 75.167 C 100.833 75.832,99.730 75.947,99.637 75.292 C 99.607 75.085,99.419 74.844,99.217 74.756 C 99.016 74.668,98.809 74.425,98.757 74.217 C 98.701 73.996,98.489 73.795,98.247 73.734 C 97.951 73.660,97.833 73.517,97.833 73.232 L 97.833 72.833 93.500 72.833 L 89.167 72.833 89.167 75.403 C 89.167 78.291,89.207 78.500,89.768 78.500 C 90.127 78.500,90.167 78.572,90.167 79.217 C 90.167 79.984,90.385 80.333,90.867 80.333 C 91.044 80.333,91.167 80.456,91.167 80.633 C 91.167 81.109,91.513 81.333,92.247 81.333 C 92.849 81.333,92.948 81.390,93.116 81.833 L 93.304 82.333 95.141 82.333 L 96.978 82.333 97.031 82.792 L 97.083 83.250 99.500 83.298 C 102.381 83.355,102.667 83.306,102.667 82.752 C 102.667 82.346,102.676 82.344,104.542 82.297 L 106.417 82.250 106.469 81.792 C 106.520 81.354,106.563 81.333,107.432 81.333 C 108.309 81.333,108.345 81.316,108.442 80.833 C 108.519 80.446,108.631 80.333,108.938 80.333 C 109.243 80.333,109.333 80.243,109.333 79.938 C 109.333 79.631,109.446 79.519,109.833 79.442 C 110.316 79.345,110.333 79.311,110.333 78.421 C 110.333 77.509,110.338 77.500,110.833 77.500 L 111.333 77.500 111.333 75.083 L 111.333 72.667 111.747 72.667 C 112.363 72.667,112.345 73.265,112.296 54.583 L 112.250 37.250 107.500 37.212 C 104.888 37.191,102.511 37.172,102.219 37.170 C 101.766 37.167,101.681 37.100,101.636 36.708 L 101.583 36.250 97.406 36.206 C 95.108 36.181,93.177 36.212,93.114 36.275 M126.944 36.278 C 126.883 36.339,126.833 36.564,126.833 36.778 C 126.833 37.124,126.755 37.167,126.125 37.169 C 125.302 37.172,125.062 37.292,124.977 37.743 C 124.942 37.924,124.732 38.112,124.505 38.165 C 124.258 38.224,124.050 38.425,123.981 38.673 C 123.903 38.954,123.861 38.782,123.850 38.125 L 123.833 37.167 119.499 37.167 L 115.165 37.167 115.208 53.958 L 115.250 70.750 119.500 70.798 C 121.837 70.825,123.994 70.803,124.292 70.749 L 124.833 70.652 124.833 59.670 L 124.833 48.689 125.292 48.636 C 125.652 48.595,125.761 48.485,125.803 48.125 C 125.844 47.765,125.942 47.667,126.261 47.667 C 126.601 47.667,126.667 47.585,126.667 47.167 L 126.667 46.667 129.083 46.667 L 131.500 46.667 131.500 41.417 L 131.500 36.167 129.278 36.167 C 128.056 36.167,127.006 36.217,126.944 36.278 M137.450 36.665 C 137.282 37.110,137.183 37.167,136.580 37.167 C 135.846 37.167,135.500 37.391,135.500 37.867 C 135.500 38.089,135.370 38.167,135.000 38.167 C 134.578 38.167,134.500 38.231,134.500 38.583 C 134.500 38.873,134.409 39.000,134.200 39.000 C 133.707 39.000,133.500 39.354,133.500 40.200 C 133.500 40.942,133.470 41.000,133.083 41.000 L 132.667 41.000 132.667 44.333 L 132.667 47.667 136.910 47.667 L 141.154 47.667 141.202 46.208 C 141.247 44.840,141.273 44.747,141.625 44.697 C 141.859 44.664,142.038 44.491,142.101 44.238 C 142.172 43.956,142.319 43.833,142.588 43.833 C 142.881 43.833,143.000 43.713,143.083 43.333 C 143.190 42.846,143.219 42.833,144.180 42.833 C 145.165 42.833,145.167 42.834,145.167 43.333 C 145.167 43.778,145.222 43.833,145.667 43.833 L 146.167 43.833 146.167 45.333 L 146.167 46.833 145.667 46.833 C 145.244 46.833,145.167 46.898,145.167 47.250 C 145.167 47.632,145.105 47.667,144.429 47.667 C 143.674 47.667,143.167 47.973,143.167 48.429 C 143.167 48.606,142.933 48.667,142.250 48.667 C 141.343 48.667,141.333 48.672,141.333 49.167 L 141.333 49.667 140.333 49.667 L 139.333 49.667 139.333 50.167 L 139.333 50.667 138.333 50.667 C 137.378 50.667,137.333 50.685,137.333 51.083 C 137.333 51.457,137.266 51.500,136.680 51.500 C 135.777 51.500,135.500 51.638,135.500 52.090 C 135.500 52.389,135.395 52.490,135.042 52.531 C 134.685 52.572,134.572 52.682,134.532 53.032 C 134.492 53.378,134.378 53.492,134.032 53.532 C 133.693 53.571,133.571 53.687,133.534 54.005 C 133.506 54.249,133.330 54.495,133.117 54.589 C 132.791 54.732,132.745 54.894,132.702 56.031 C 132.654 57.286,132.644 57.314,132.202 57.365 L 131.750 57.417 131.705 60.979 C 131.658 64.673,131.710 65.000,132.347 65.000 C 132.615 65.000,132.659 65.169,132.702 66.375 C 132.746 67.645,132.778 67.754,133.115 67.802 C 133.370 67.838,133.495 67.988,133.532 68.302 C 133.572 68.651,133.685 68.762,134.042 68.803 C 134.426 68.847,134.500 68.935,134.500 69.344 C 134.500 69.772,134.560 69.833,134.982 69.833 C 135.354 69.833,135.487 69.926,135.566 70.240 C 135.707 70.801,136.272 70.859,141.000 70.800 L 144.917 70.750 144.968 70.306 C 145.033 69.748,147.001 69.481,147.000 70.030 C 146.999 70.804,147.244 70.841,152.056 70.794 L 156.583 70.750 156.583 69.417 C 156.583 68.087,156.582 68.083,156.126 68.031 L 155.669 67.978 155.626 54.531 L 155.583 41.083 155.125 41.031 C 154.687 40.980,154.667 40.937,154.667 40.068 C 154.667 39.191,154.649 39.155,154.167 39.058 C 153.780 38.981,153.667 38.869,153.667 38.563 C 153.667 38.254,153.577 38.167,153.261 38.167 C 152.942 38.167,152.844 38.068,152.803 37.708 C 152.753 37.275,152.698 37.247,151.802 37.200 C 150.910 37.154,150.851 37.124,150.802 36.700 L 150.750 36.250 144.195 36.206 L 137.639 36.163 137.450 36.665 M190.611 36.278 C 190.550 36.339,190.500 36.564,190.500 36.778 C 190.500 37.131,190.427 37.167,189.700 37.167 C 188.860 37.167,188.500 37.373,188.500 37.856 C 188.500 38.047,188.345 38.162,188.042 38.197 C 187.682 38.239,187.572 38.348,187.531 38.708 C 187.490 39.064,187.390 39.167,187.084 39.167 C 186.732 39.167,186.679 39.263,186.576 40.083 C 186.473 40.906,186.421 41.000,186.064 41.000 C 185.668 41.000,185.667 41.009,185.667 42.906 L 185.667 44.811 185.208 44.864 L 184.750 44.917 184.707 53.462 L 184.664 62.008 185.160 62.107 L 185.656 62.206 185.703 64.061 C 185.748 65.829,185.767 65.919,186.117 65.969 C 186.433 66.014,186.490 66.140,186.533 66.885 C 186.580 67.685,186.617 67.754,187.032 67.802 C 187.378 67.842,187.492 67.955,187.532 68.302 C 187.572 68.651,187.685 68.762,188.042 68.803 C 188.426 68.847,188.500 68.935,188.500 69.344 C 188.500 69.830,188.506 69.833,189.489 69.833 C 190.444 69.833,190.480 69.849,190.531 70.292 L 190.583 70.750 192.458 70.797 C 194.328 70.844,194.333 70.845,194.333 71.255 L 194.333 71.667 196.667 71.667 L 199.000 71.667 199.000 71.255 C 199.000 70.845,199.005 70.844,200.875 70.797 L 202.750 70.750 202.803 70.292 C 202.854 69.849,202.889 69.833,203.844 69.833 C 204.827 69.833,204.833 69.830,204.833 69.344 C 204.833 68.935,204.908 68.847,205.292 68.803 C 205.652 68.761,205.761 68.652,205.803 68.292 C 205.844 67.932,205.942 67.833,206.261 67.833 C 206.642 67.833,206.667 67.777,206.667 66.917 C 206.667 66.009,206.672 66.000,207.167 66.000 L 207.667 66.000 207.667 64.500 L 207.667 63.000 208.167 63.000 L 208.667 63.000 208.667 52.996 L 208.667 42.992 208.167 42.892 C 207.667 42.792,207.667 42.791,207.667 41.596 C 207.667 40.367,207.508 40.000,206.978 40.000 C 206.786 40.000,206.671 39.845,206.636 39.542 C 206.598 39.213,206.477 39.068,206.208 39.030 C 205.937 38.992,205.833 38.865,205.833 38.572 C 205.833 38.233,205.752 38.167,205.333 38.167 C 204.889 38.167,204.833 38.111,204.833 37.667 L 204.833 37.167 203.833 37.167 L 202.833 37.167 202.833 36.667 L 202.833 36.167 196.778 36.167 C 193.447 36.167,190.672 36.217,190.611 36.278 M221.533 36.367 C 221.423 36.477,221.333 36.702,221.333 36.867 C 221.333 37.087,221.204 37.167,220.844 37.167 C 220.417 37.167,220.346 37.235,220.287 37.708 L 220.220 38.250 220.193 37.708 L 220.167 37.167 215.917 37.167 L 211.667 37.167 211.667 54.000 L 211.667 70.833 216.153 70.833 C 218.621 70.833,220.758 70.788,220.903 70.732 C 221.140 70.641,221.167 69.340,221.167 57.732 L 221.167 44.833 221.905 44.833 C 222.659 44.833,223.167 44.527,223.167 44.071 C 223.167 43.574,224.139 43.782,224.197 44.292 C 224.239 44.651,224.348 44.761,224.707 44.803 L 225.165 44.855 225.207 57.803 L 225.250 70.750 229.917 70.750 L 234.583 70.750 234.626 55.875 L 234.668 41.000 234.174 41.000 L 233.680 41.000 233.632 39.632 C 233.586 38.328,233.564 38.260,233.168 38.166 C 232.935 38.112,232.725 37.925,232.690 37.743 C 232.604 37.292,232.364 37.172,231.542 37.169 C 230.866 37.167,230.833 37.143,230.833 36.667 L 230.833 36.167 226.283 36.167 C 222.967 36.167,221.679 36.221,221.533 36.367 M277.278 36.278 C 277.217 36.339,277.167 36.560,277.167 36.769 C 277.167 37.103,277.073 37.154,276.379 37.199 C 275.731 37.241,275.555 37.324,275.385 37.667 C 275.271 37.896,275.007 38.124,274.797 38.173 C 274.475 38.250,274.402 38.403,274.319 39.173 C 274.232 39.980,274.218 39.918,274.194 38.625 L 274.167 37.167 269.917 37.167 L 265.667 37.167 265.667 54.000 L 265.667 70.833 270.153 70.833 C 272.621 70.833,274.758 70.788,274.903 70.732 C 275.140 70.641,275.167 69.510,275.167 59.660 L 275.167 48.689 275.625 48.636 C 275.982 48.595,276.095 48.484,276.135 48.135 C 276.175 47.789,276.289 47.675,276.635 47.635 C 276.983 47.595,277.095 47.482,277.136 47.130 L 277.188 46.676 279.552 46.630 L 281.917 46.583 281.961 41.375 L 282.005 36.167 279.697 36.167 C 278.427 36.167,277.339 36.217,277.278 36.278 M288.752 36.658 C 288.651 37.117,288.585 37.153,287.780 37.200 C 286.976 37.247,286.913 37.282,286.864 37.708 C 286.820 38.092,286.732 38.167,286.322 38.167 C 285.912 38.167,285.833 38.234,285.833 38.583 C 285.833 38.873,285.742 39.000,285.533 39.000 C 285.164 39.000,284.833 39.312,284.833 39.660 C 284.833 39.804,284.667 39.995,284.464 40.085 C 284.031 40.278,283.873 40.757,283.850 41.940 C 283.835 42.709,283.790 42.808,283.417 42.902 L 283.000 43.006 283.000 53.503 L 283.000 64.000 283.417 64.000 C 283.824 64.000,283.833 64.029,283.833 65.238 C 283.833 66.503,284.048 67.000,284.595 67.000 C 284.738 67.000,284.833 67.167,284.833 67.417 C 284.833 67.769,284.911 67.833,285.333 67.833 C 285.778 67.833,285.833 67.889,285.833 68.333 C 285.833 68.778,285.889 68.833,286.333 68.833 C 286.778 68.833,286.833 68.889,286.833 69.333 C 286.833 69.828,286.844 69.833,287.739 69.833 C 288.603 69.833,288.647 69.854,288.697 70.292 L 288.750 70.750 290.708 70.797 L 292.667 70.844 292.667 71.255 L 292.667 71.667 295.000 71.667 L 297.333 71.667 297.333 71.255 C 297.333 70.845,297.339 70.844,299.208 70.797 L 301.083 70.750 301.135 70.300 C 301.184 69.876,301.244 69.846,302.135 69.800 C 303.026 69.753,303.086 69.723,303.135 69.302 C 303.175 68.955,303.289 68.842,303.635 68.802 C 303.984 68.761,304.095 68.649,304.136 68.292 C 304.177 67.932,304.276 67.833,304.594 67.833 C 304.974 67.833,305.000 67.776,305.000 66.928 C 305.000 66.064,305.021 66.020,305.458 65.969 C 305.915 65.917,305.917 65.912,305.965 64.458 C 306.007 63.195,306.052 63.000,306.306 63.000 C 306.918 63.000,307.000 62.672,307.000 60.229 C 307.000 57.054,307.465 57.333,302.175 57.333 C 296.994 57.333,297.438 57.088,297.359 59.993 C 297.305 61.964,297.278 62.112,296.942 62.259 C 296.745 62.346,296.560 62.581,296.531 62.782 C 296.495 63.037,296.345 63.162,296.031 63.198 C 295.682 63.239,295.572 63.351,295.531 63.708 C 295.450 64.410,294.584 64.377,294.442 63.667 C 294.364 63.277,294.253 63.167,293.939 63.167 C 293.649 63.167,293.507 63.051,293.432 62.753 C 293.368 62.497,293.170 62.299,292.914 62.234 L 292.500 62.131 292.500 58.732 L 292.500 55.333 299.750 55.333 L 307.000 55.333 307.000 49.680 L 307.000 44.026 306.500 43.917 L 306.000 43.807 306.000 42.403 L 306.000 41.000 305.508 41.000 C 305.027 41.000,305.016 40.980,304.967 40.042 C 304.922 39.193,304.874 39.077,304.542 39.030 C 304.270 38.992,304.167 38.865,304.167 38.572 C 304.167 38.237,304.084 38.167,303.688 38.167 C 303.288 38.167,303.192 38.083,303.108 37.667 C 303.012 37.184,302.977 37.167,302.087 37.167 C 301.175 37.167,301.167 37.162,301.167 36.667 L 301.167 36.167 295.013 36.167 L 288.860 36.167 288.752 36.658 M313.098 36.426 C 312.952 36.571,312.833 36.793,312.833 36.918 C 312.833 37.042,312.627 37.168,312.375 37.197 C 312.018 37.238,311.905 37.349,311.865 37.698 C 311.825 38.045,311.711 38.158,311.365 38.198 C 311.019 38.238,310.905 38.352,310.865 38.698 C 310.829 39.012,310.704 39.162,310.448 39.198 C 310.111 39.246,310.080 39.355,310.035 40.625 C 309.992 41.831,309.949 42.000,309.680 42.000 C 308.999 42.000,308.996 42.046,309.040 53.185 L 309.083 63.917 309.542 63.969 L 310.000 64.022 310.000 65.511 C 310.000 66.988,310.003 67.000,310.417 67.000 C 310.790 67.000,310.833 67.068,310.833 67.653 C 310.833 68.552,310.972 68.833,311.414 68.833 C 311.700 68.833,311.816 68.954,311.892 69.333 C 311.970 69.723,312.080 69.833,312.394 69.833 C 312.679 69.833,312.826 69.949,312.896 70.229 C 313.036 70.785,313.442 70.833,317.924 70.833 C 322.181 70.833,322.333 70.813,322.333 70.232 C 322.333 69.902,322.418 69.833,322.823 69.833 C 323.250 69.833,323.321 69.765,323.379 69.292 C 323.416 68.994,323.459 71.807,323.473 75.544 L 323.500 82.339 328.208 82.294 L 332.917 82.250 332.959 59.708 L 333.001 37.167 328.261 37.167 L 323.521 37.167 323.454 37.708 L 323.387 38.250 323.360 37.708 C 323.336 37.226,323.279 37.167,322.844 37.167 C 322.435 37.167,322.347 37.092,322.303 36.708 L 322.250 36.250 317.806 36.206 C 313.930 36.167,313.329 36.195,313.098 36.426 M10.167 54.003 L 10.167 70.839 14.458 70.794 L 18.750 70.750 18.792 53.958 L 18.835 37.167 14.501 37.167 L 10.167 37.167 10.167 54.003 M173.041 53.958 L 173.083 70.750 177.375 70.794 L 181.667 70.839 181.667 54.003 L 181.667 37.167 177.333 37.167 L 172.998 37.167 173.041 53.958 M74.864 43.292 C 74.913 43.719,74.976 43.753,75.792 43.800 L 76.667 43.851 76.667 46.259 L 76.667 48.667 74.250 48.667 L 71.833 48.667 71.833 46.761 L 71.833 44.855 72.292 44.803 C 72.652 44.761,72.761 44.652,72.803 44.292 C 72.844 43.932,72.942 43.833,73.261 43.833 C 73.601 43.833,73.667 43.752,73.667 43.333 C 73.667 42.602,74.780 42.563,74.864 43.292 M295.500 43.333 C 295.500 43.778,295.556 43.833,296.000 43.833 C 296.421 43.833,296.500 43.899,296.500 44.247 C 296.500 44.549,296.612 44.688,296.917 44.765 C 297.331 44.869,297.333 44.882,297.333 46.768 L 297.333 48.667 294.417 48.667 L 291.500 48.667 291.500 48.178 C 291.500 47.768,291.574 47.680,291.958 47.636 C 292.411 47.584,292.418 47.565,292.500 46.167 C 292.577 44.854,292.611 44.746,292.958 44.697 C 293.189 44.664,293.371 44.492,293.432 44.248 C 293.500 43.976,293.670 43.836,293.974 43.801 C 294.317 43.761,294.429 43.647,294.469 43.292 C 294.552 42.573,295.500 42.611,295.500 43.333 M100.863 44.208 C 100.898 44.449,101.051 44.602,101.292 44.637 C 101.581 44.678,101.667 44.799,101.667 45.167 C 101.667 45.881,101.962 46.521,102.335 46.619 C 102.775 46.734,102.867 60.167,102.429 60.167 C 101.973 60.167,101.667 60.674,101.667 61.429 C 101.667 62.105,101.632 62.167,101.250 62.167 C 100.898 62.167,100.833 62.244,100.833 62.667 C 100.833 63.389,99.885 63.427,99.803 62.708 C 99.761 62.348,99.652 62.239,99.292 62.197 C 98.870 62.149,98.833 62.087,98.833 61.418 C 98.833 60.674,98.524 60.167,98.071 60.167 C 97.869 60.167,97.833 59.156,97.833 53.417 L 97.833 46.667 98.232 46.667 C 98.703 46.667,98.833 46.396,98.833 45.415 C 98.833 44.790,98.885 44.682,99.208 44.637 C 99.449 44.602,99.602 44.449,99.637 44.208 C 99.680 43.904,99.796 43.833,100.250 43.833 C 100.704 43.833,100.820 43.904,100.863 44.208 M198.197 44.292 C 198.239 44.652,198.348 44.761,198.710 44.803 L 199.170 44.856 199.127 53.051 C 199.084 61.096,199.077 61.247,198.750 61.309 C 198.292 61.396,198.172 61.632,198.169 62.458 L 198.167 63.167 196.667 63.167 L 195.167 63.167 195.167 62.246 C 195.167 61.356,195.150 61.322,194.667 61.225 L 194.167 61.125 194.167 53.896 C 194.167 47.046,194.182 46.667,194.467 46.667 C 195.011 46.667,195.167 46.307,195.167 45.050 L 195.167 43.833 196.656 43.833 L 198.145 43.833 198.197 44.292 M321.566 44.238 C 321.628 44.488,321.809 44.664,322.035 44.697 C 322.268 44.730,322.439 44.903,322.500 45.167 C 322.569 45.465,322.725 45.598,323.048 45.636 L 323.500 45.689 323.500 53.407 L 323.500 61.125 323.000 61.225 C 322.517 61.322,322.500 61.356,322.500 62.246 L 322.500 63.167 321.000 63.167 L 319.500 63.167 319.497 62.458 C 319.494 61.632,319.375 61.396,318.917 61.309 C 318.590 61.247,318.583 61.096,318.540 53.467 L 318.497 45.689 318.957 45.636 C 319.386 45.587,319.420 45.525,319.467 44.708 L 319.517 43.833 320.491 43.833 C 321.382 43.833,321.472 43.867,321.566 44.238 M362.031 44.292 C 362.072 44.652,362.182 44.761,362.542 44.803 L 363.000 44.855 363.000 53.500 L 363.000 62.145 362.542 62.197 C 362.182 62.239,362.072 62.348,362.031 62.708 C 361.944 63.460,360.000 63.420,360.000 62.667 C 360.000 62.222,359.944 62.167,359.500 62.167 L 359.000 62.167 359.000 60.072 C 359.000 57.873,358.867 57.333,358.327 57.333 C 358.011 57.333,358.000 57.199,358.000 53.521 L 358.000 49.708 358.500 49.608 L 359.000 49.508 359.000 47.182 L 359.000 44.855 359.458 44.803 C 359.818 44.761,359.928 44.652,359.969 44.292 C 360.020 43.850,360.057 43.833,361.000 43.833 C 361.943 43.833,361.980 43.850,362.031 44.292 M240.577 53.000 C 240.577 57.538,240.599 59.394,240.625 57.125 C 240.651 54.856,240.651 51.144,240.625 48.875 C 240.599 46.606,240.577 48.462,240.577 53.000 M147.000 57.167 L 147.000 59.333 146.583 59.333 C 146.172 59.333,146.167 59.350,146.167 60.750 L 146.167 62.167 145.667 62.167 C 145.222 62.167,145.167 62.222,145.167 62.667 L 145.167 63.167 143.678 63.167 L 142.189 63.167 142.136 62.708 C 142.095 62.348,141.985 62.239,141.625 62.197 L 141.167 62.145 141.167 60.656 C 141.167 59.333,141.200 59.167,141.467 59.167 C 141.946 59.167,142.167 58.819,142.167 58.061 C 142.167 57.415,142.205 57.351,142.625 57.303 C 142.983 57.262,143.095 57.151,143.135 56.800 C 143.183 56.383,143.251 56.346,144.052 56.300 C 144.857 56.253,144.920 56.218,144.969 55.792 C 145.018 55.374,145.083 55.333,145.719 55.331 C 146.103 55.329,146.529 55.256,146.667 55.167 C 146.804 55.078,146.935 55.004,146.958 55.003 C 146.981 55.001,147.000 55.975,147.000 57.167 " stroke="none" fill="#8699b8" fill-rule="evenodd"></path><path id="path1" d="M324.584 4.606 C 324.454 4.736,324.390 4.953,324.442 5.088 C 324.533 5.325,324.220 5.365,322.162 5.381 C 321.921 5.383,321.489 5.728,321.496 5.913 C 321.511 6.273,321.453 6.333,321.095 6.333 C 320.681 6.333,320.375 6.830,320.582 7.165 C 320.645 7.266,320.450 7.333,320.093 7.333 C 319.572 7.333,319.500 7.384,319.500 7.750 C 319.500 8.083,319.417 8.167,319.083 8.167 C 318.736 8.167,318.667 8.246,318.667 8.646 C 318.667 9.045,318.583 9.142,318.167 9.225 C 317.770 9.304,317.667 9.412,317.667 9.746 C 317.667 10.040,317.576 10.167,317.367 10.167 C 316.873 10.167,316.667 10.521,316.667 11.367 C 316.667 12.109,316.637 12.167,316.250 12.167 C 316.021 12.167,315.830 12.185,315.825 12.208 C 315.820 12.231,315.778 12.588,315.732 13.000 C 315.628 13.919,315.525 14.248,315.386 14.109 C 315.025 13.748,314.833 14.470,314.833 16.187 C 314.833 17.184,314.777 17.991,314.708 17.980 C 314.640 17.969,314.415 17.969,314.208 17.980 L 313.833 18.000 313.833 23.634 L 313.833 29.269 314.292 29.259 L 314.750 29.250 314.833 31.165 L 314.917 33.081 315.407 33.165 C 315.677 33.212,315.885 33.287,315.870 33.333 C 315.612 34.115,317.229 34.489,317.515 33.714 C 317.595 33.497,317.585 33.302,317.490 33.244 C 317.401 33.189,317.370 33.076,317.421 32.993 C 317.472 32.910,317.543 31.472,317.578 29.796 C 317.646 26.601,317.723 26.089,318.113 26.239 C 318.245 26.289,318.305 26.256,318.249 26.165 C 318.193 26.074,318.218 26.000,318.305 26.000 C 318.392 26.000,318.459 25.906,318.455 25.792 C 318.421 24.873,318.523 23.504,318.625 23.520 C 319.271 23.622,319.535 23.481,319.458 23.077 C 319.386 22.701,319.802 22.238,320.167 22.289 C 320.212 22.295,320.231 22.233,320.208 22.150 C 320.185 22.068,320.245 22.000,320.341 22.000 C 320.436 22.000,320.502 21.906,320.488 21.792 C 320.385 20.998,320.511 20.688,320.958 20.636 C 321.318 20.595,321.428 20.485,321.469 20.125 C 321.521 19.676,321.988 19.528,322.958 19.654 C 323.073 19.669,323.176 19.603,323.188 19.507 C 323.238 19.086,323.255 19.023,323.342 18.936 C 323.392 18.886,323.985 18.816,324.659 18.780 C 325.839 18.718,326.333 18.478,326.333 17.968 C 326.333 17.894,326.558 17.833,326.833 17.833 C 327.256 17.833,327.333 17.898,327.333 18.250 C 327.333 18.549,327.428 18.673,327.667 18.688 C 327.850 18.699,328.075 18.727,328.167 18.750 C 328.258 18.773,328.773 18.801,329.310 18.813 C 330.258 18.833,330.285 18.846,330.207 19.250 C 330.130 19.658,330.150 19.667,331.147 19.667 L 332.167 19.667 332.167 20.167 C 332.167 20.589,332.231 20.667,332.583 20.667 C 332.958 20.667,333.049 20.803,332.986 21.273 C 332.961 21.454,333.398 21.661,333.809 21.664 C 334.086 21.666,334.175 21.739,334.108 21.912 C 333.986 22.229,334.437 22.680,334.755 22.558 C 334.928 22.492,335.001 22.580,335.003 22.857 C 335.005 23.269,335.212 23.705,335.394 23.681 C 335.863 23.618,336.000 23.709,336.000 24.083 C 336.000 24.435,336.078 24.500,336.500 24.500 C 336.988 24.500,337.000 24.520,337.000 25.323 C 337.000 26.081,337.167 26.407,337.557 26.414 C 337.634 26.416,337.794 26.697,337.912 27.039 C 338.029 27.381,338.071 27.627,338.003 27.585 C 337.936 27.544,337.916 27.693,337.959 27.916 C 338.002 28.139,338.085 28.315,338.143 28.308 C 338.732 28.232,338.833 28.353,338.833 29.133 C 338.833 29.979,339.040 30.333,339.533 30.333 C 339.799 30.333,339.833 30.497,339.833 31.750 L 339.833 33.167 340.333 33.167 L 340.833 33.167 340.833 38.083 C 340.833 40.788,340.777 42.991,340.708 42.980 C 339.989 42.867,339.865 42.997,339.859 43.872 C 339.855 44.351,339.772 44.770,339.675 44.803 C 339.578 44.835,339.541 44.932,339.595 45.018 C 339.648 45.104,339.630 45.164,339.554 45.151 C 339.217 45.092,338.989 45.181,339.083 45.333 C 339.140 45.425,339.088 45.501,338.968 45.503 C 338.810 45.504,338.818 45.549,339.000 45.667 C 339.167 45.774,339.181 45.829,339.042 45.831 C 338.914 45.832,338.833 46.066,338.833 46.434 C 338.833 46.900,338.777 47.014,338.583 46.940 C 338.446 46.887,338.333 46.921,338.333 47.015 C 338.333 47.109,338.240 47.130,338.125 47.061 C 337.964 46.964,337.965 46.996,338.129 47.199 C 338.304 47.415,338.297 47.478,338.088 47.559 C 337.937 47.616,337.833 47.862,337.833 48.161 C 337.833 48.589,337.769 48.667,337.417 48.667 C 337.022 48.667,337.000 48.716,337.000 49.592 L 337.000 50.516 338.663 50.488 C 340.236 50.461,340.898 50.253,340.702 49.849 C 340.675 49.795,340.825 49.724,341.035 49.692 C 341.245 49.661,341.512 49.556,341.629 49.460 C 341.746 49.364,341.883 49.328,341.935 49.379 C 342.050 49.495,342.667 48.895,342.667 48.667 C 342.667 48.575,342.742 48.491,342.833 48.479 C 342.925 48.468,343.087 48.449,343.192 48.438 C 343.298 48.426,343.405 48.279,343.430 48.111 C 343.482 47.752,344.012 47.321,344.232 47.457 C 344.316 47.509,344.331 47.465,344.266 47.359 C 344.201 47.253,344.226 47.167,344.323 47.167 C 344.421 47.167,344.491 47.110,344.480 47.042 C 344.338 46.142,344.518 45.667,345.000 45.667 C 345.444 45.667,345.500 45.611,345.500 45.167 C 345.500 44.892,345.556 44.675,345.625 44.685 C 346.152 44.761,346.441 44.440,346.477 43.738 C 346.505 43.206,346.632 42.883,346.933 42.582 C 347.163 42.352,347.305 42.090,347.249 41.999 C 347.193 41.908,347.226 41.833,347.323 41.833 C 347.434 41.833,347.500 41.303,347.500 40.417 C 347.500 39.142,347.531 39.000,347.813 39.000 C 347.985 39.000,348.229 38.873,348.355 38.718 C 348.552 38.475,348.549 38.456,348.333 38.583 C 348.129 38.704,348.120 38.686,348.284 38.483 C 348.432 38.300,348.484 36.617,348.484 32.039 C 348.484 25.709,348.478 25.652,347.860 25.559 C 347.523 25.508,347.528 25.530,347.481 23.771 C 347.436 22.086,347.250 21.581,346.745 21.775 C 346.547 21.851,346.496 21.673,346.479 20.851 C 346.445 19.189,346.431 19.122,346.083 18.996 C 345.900 18.929,345.694 18.908,345.625 18.947 C 345.556 18.987,345.500 18.596,345.500 18.078 C 345.500 17.181,345.186 16.764,344.667 16.973 C 344.621 16.991,344.546 16.574,344.500 16.045 C 344.429 15.222,344.369 15.083,344.083 15.083 C 343.860 15.083,343.732 14.954,343.694 14.688 C 343.658 14.433,343.467 14.229,343.152 14.110 C 342.749 13.958,342.667 13.832,342.667 13.370 C 342.667 13.008,342.603 12.853,342.483 12.927 C 342.355 13.007,342.356 12.935,342.489 12.687 C 342.593 12.492,342.638 12.324,342.589 12.313 C 342.540 12.301,342.425 12.273,342.333 12.250 C 342.242 12.227,342.059 12.199,341.928 12.188 C 341.796 12.176,341.665 11.960,341.636 11.708 C 341.595 11.351,341.484 11.239,341.135 11.198 C 340.789 11.158,340.675 11.045,340.635 10.698 C 340.598 10.380,340.474 10.235,340.208 10.197 C 339.885 10.151,339.749 9.904,339.809 9.471 C 339.818 9.409,339.602 9.309,339.329 9.249 C 338.879 9.150,338.753 8.995,338.816 8.618 C 338.828 8.545,338.572 8.374,338.246 8.238 C 337.851 8.072,337.670 7.896,337.702 7.707 C 337.754 7.401,337.704 7.385,336.594 7.354 C 335.918 7.335,335.851 7.294,335.803 6.875 C 335.761 6.515,335.652 6.405,335.292 6.364 C 335.040 6.335,334.824 6.241,334.813 6.156 C 334.801 6.070,334.782 5.931,334.771 5.847 C 334.759 5.763,334.682 5.632,334.598 5.556 C 334.509 5.474,334.497 5.520,334.569 5.667 C 334.638 5.808,334.585 5.787,334.448 5.619 C 334.314 5.455,334.139 5.333,334.060 5.347 C 333.220 5.499,331.824 5.304,331.868 5.042 C 331.896 4.872,331.812 4.750,331.667 4.750 C 331.529 4.750,331.328 4.667,331.220 4.565 C 330.902 4.267,324.887 4.304,324.584 4.606 M240.835 43.082 C 240.628 43.331,240.543 62.499,240.748 62.830 C 240.931 63.126,258.608 63.059,258.722 62.762 C 258.851 62.426,258.865 43.768,258.737 43.256 L 258.631 42.835 249.829 42.842 C 242.528 42.849,240.994 42.890,240.835 43.082 " stroke="none" fill="#8699b8" fill-rule="evenodd"></path></g></svg>