<svg id="svg" version="1.1" xmlns="http://www.w3.org/2000/svg" xmlns:xlink="http://www.w3.org/1999/xlink" width="400" height="106.21848739495798" viewBox="0, 0, 400,106.21848739495798"><g id="svgg"><path id="path0" d="M378.363 0.458 C 378.372 0.710,378.320 2.622,378.247 4.706 L 378.114 8.495 377.553 8.148 C 377.244 7.957,376.897 7.837,376.780 7.882 C 376.664 7.926,376.430 7.861,376.260 7.737 C 376.090 7.612,375.875 7.557,375.783 7.614 C 375.691 7.671,375.665 7.637,375.727 7.538 C 375.841 7.352,375.214 7.064,375.051 7.227 C 375.001 7.277,374.689 7.134,374.358 6.909 C 374.027 6.684,373.640 6.500,373.498 6.500 C 373.357 6.500,373.074 6.383,372.870 6.240 C 372.666 6.098,372.425 6.027,372.333 6.084 C 372.242 6.140,372.167 6.112,372.167 6.021 C 372.167 5.930,371.960 5.848,371.708 5.839 C 370.765 5.804,370.500 5.758,370.500 5.631 C 370.500 5.559,370.323 5.500,370.106 5.500 C 369.407 5.500,368.686 6.463,368.818 7.221 C 368.831 7.296,368.772 7.315,368.687 7.263 C 368.519 7.159,368.122 8.125,368.248 8.330 C 368.291 8.399,368.175 8.592,367.990 8.759 C 367.806 8.926,367.691 9.156,367.735 9.270 C 367.779 9.385,367.751 9.502,367.673 9.531 C 367.595 9.560,367.506 9.808,367.474 10.083 C 367.443 10.358,367.320 10.660,367.201 10.753 C 367.083 10.846,366.964 11.127,366.937 11.376 C 366.911 11.625,366.756 11.976,366.593 12.156 C 365.829 13.001,366.377 15.571,367.212 15.055 C 367.307 14.997,367.338 15.024,367.281 15.116 C 367.159 15.314,367.748 15.648,368.325 15.708 C 368.549 15.731,368.874 15.887,369.046 16.055 C 369.218 16.222,369.463 16.319,369.591 16.270 C 369.718 16.221,369.870 16.258,369.928 16.352 C 369.986 16.446,370.125 16.488,370.237 16.445 C 370.349 16.402,370.525 16.502,370.629 16.668 C 370.733 16.834,371.065 17.019,371.367 17.079 C 371.669 17.139,372.142 17.294,372.417 17.424 C 373.313 17.848,374.246 18.229,374.417 18.239 C 374.876 18.269,374.955 18.737,374.554 19.053 C 374.330 19.229,374.184 19.471,374.229 19.590 C 374.275 19.708,374.194 19.851,374.049 19.907 C 373.904 19.962,373.828 20.050,373.879 20.101 C 373.930 20.152,373.826 20.341,373.647 20.520 C 373.468 20.699,373.367 20.920,373.423 21.010 C 373.479 21.101,373.425 21.154,373.304 21.129 C 373.182 21.104,373.094 21.213,373.106 21.375 C 373.119 21.535,373.063 21.667,372.981 21.667 C 372.900 21.667,372.833 21.749,372.833 21.849 C 372.833 21.949,372.684 22.220,372.502 22.452 C 372.320 22.683,372.207 22.931,372.251 23.002 C 372.295 23.073,372.209 23.179,372.059 23.236 C 371.908 23.294,371.828 23.383,371.879 23.434 C 371.930 23.486,371.826 23.674,371.647 23.853 C 371.468 24.032,371.367 24.253,371.423 24.344 C 371.479 24.434,371.425 24.488,371.304 24.462 C 371.182 24.437,371.094 24.546,371.106 24.708 C 371.119 24.869,371.063 25.000,370.981 25.000 C 370.900 25.000,370.833 25.082,370.833 25.182 C 370.833 25.282,370.683 25.555,370.500 25.788 C 369.782 26.701,371.399 29.138,372.542 28.863 C 372.610 28.847,372.667 28.921,372.667 29.028 C 372.667 29.135,372.709 29.180,372.760 29.129 C 372.811 29.077,373.037 29.219,373.261 29.443 C 373.486 29.668,373.744 29.805,373.835 29.749 C 373.926 29.693,374.000 29.739,374.000 29.851 C 374.000 29.964,374.049 30.007,374.109 29.947 C 374.168 29.887,374.299 29.946,374.400 30.077 C 374.501 30.208,374.687 30.338,374.813 30.366 C 374.940 30.394,375.223 30.591,375.443 30.804 C 375.663 31.017,375.927 31.163,376.030 31.129 C 376.133 31.094,376.380 31.229,376.579 31.427 C 377.364 32.212,380.070 31.620,379.549 30.777 C 379.494 30.688,379.532 30.667,379.635 30.730 C 379.818 30.844,380.775 29.235,380.696 28.946 C 380.675 28.870,380.724 28.849,380.804 28.899 C 380.951 28.990,381.285 28.460,381.370 28.000 C 381.396 27.863,381.549 27.651,381.711 27.530 C 381.873 27.409,381.962 27.241,381.910 27.155 C 381.857 27.070,381.876 27.000,381.952 27.000 C 382.098 27.000,382.746 25.893,382.653 25.803 C 382.623 25.774,382.807 25.542,383.061 25.288 L 383.523 24.825 383.840 25.204 C 384.015 25.413,384.202 25.715,384.257 25.875 C 384.311 26.035,384.430 26.167,384.521 26.167 C 384.612 26.167,384.644 26.236,384.592 26.320 C 384.540 26.404,384.591 26.573,384.707 26.695 C 384.822 26.817,385.047 27.198,385.206 27.542 C 385.365 27.885,385.575 28.167,385.674 28.167 C 385.772 28.167,385.807 28.242,385.750 28.333 C 385.693 28.425,385.726 28.500,385.823 28.500 C 385.921 28.500,385.991 28.556,385.980 28.625 C 385.925 28.974,386.021 29.174,386.192 29.067 C 386.306 28.997,386.340 29.021,386.274 29.127 C 386.213 29.226,386.282 29.425,386.427 29.570 C 386.572 29.715,386.636 29.833,386.569 29.833 C 386.503 29.833,386.564 29.965,386.704 30.125 C 386.845 30.285,387.011 30.583,387.073 30.787 C 387.314 31.577,390.000 32.366,390.000 31.647 C 390.000 31.566,390.056 31.513,390.125 31.529 C 390.325 31.576,391.167 31.127,391.167 30.973 C 391.167 30.896,391.223 30.842,391.292 30.853 C 391.627 30.906,391.842 30.816,391.747 30.663 C 391.689 30.569,391.704 30.508,391.779 30.529 C 392.084 30.611,392.667 30.301,392.559 30.113 C 392.497 30.005,392.505 29.970,392.577 30.035 C 392.748 30.188,393.990 29.553,394.105 29.253 C 394.154 29.125,394.297 29.061,394.423 29.109 C 394.549 29.157,394.838 29.010,395.066 28.783 C 395.294 28.555,395.522 28.411,395.573 28.462 C 395.625 28.514,395.667 28.464,395.667 28.351 C 395.667 28.239,395.736 28.190,395.820 28.242 C 396.089 28.408,396.667 27.482,396.667 26.884 C 396.667 26.570,396.599 26.356,396.516 26.407 C 396.432 26.458,396.401 26.362,396.445 26.192 C 396.490 26.022,396.402 25.759,396.251 25.608 C 396.100 25.457,396.038 25.331,396.113 25.328 C 396.188 25.325,396.100 25.193,395.917 25.036 C 395.733 24.879,395.561 24.600,395.534 24.417 C 395.444 23.810,395.339 23.644,395.126 23.766 C 395.011 23.832,394.970 23.828,395.035 23.756 C 395.191 23.583,394.547 22.333,394.302 22.333 C 394.197 22.333,394.158 22.286,394.216 22.229 C 394.357 22.088,393.869 21.167,393.653 21.167 C 393.558 21.167,393.527 21.092,393.583 21.000 C 393.640 20.908,393.602 20.833,393.500 20.833 C 393.398 20.833,393.360 20.758,393.417 20.666 C 393.474 20.573,393.366 20.280,393.177 20.015 C 392.988 19.749,392.833 19.459,392.833 19.370 C 392.833 19.280,392.721 19.114,392.583 19.000 C 392.218 18.696,392.273 18.554,392.833 18.358 C 393.108 18.262,393.333 18.101,393.333 17.999 C 393.333 17.897,393.408 17.860,393.500 17.917 C 393.592 17.973,393.667 17.947,393.667 17.859 C 393.667 17.770,393.817 17.737,394.000 17.785 C 394.183 17.833,394.333 17.791,394.333 17.691 C 394.333 17.592,394.440 17.551,394.570 17.601 C 394.701 17.651,394.945 17.555,395.114 17.386 C 395.283 17.217,395.551 17.105,395.710 17.135 C 395.870 17.166,396.000 17.113,396.000 17.017 C 396.000 16.922,396.125 16.892,396.277 16.950 C 396.479 17.027,396.517 16.996,396.418 16.836 C 396.327 16.689,396.346 16.655,396.475 16.735 C 396.582 16.801,396.883 16.702,397.145 16.515 C 397.407 16.329,397.660 16.215,397.707 16.263 C 397.805 16.360,399.363 15.656,399.519 15.444 C 399.575 15.368,399.687 15.330,399.769 15.361 C 400.054 15.469,400.041 10.654,399.754 10.338 C 399.614 10.183,399.541 10.014,399.593 9.963 C 399.730 9.825,399.213 8.667,399.014 8.667 C 398.920 8.667,398.886 8.557,398.937 8.423 C 399.162 7.837,397.738 5.500,397.315 5.761 C 397.189 5.839,397.159 5.814,397.234 5.692 C 397.309 5.571,397.227 5.500,397.010 5.500 C 396.821 5.500,396.667 5.556,396.667 5.625 C 396.667 5.694,396.498 5.762,396.292 5.778 C 395.160 5.861,394.767 5.970,394.555 6.261 C 394.425 6.438,394.285 6.565,394.243 6.542 C 394.201 6.519,394.148 6.506,394.125 6.514 C 394.102 6.521,393.869 6.543,393.607 6.562 C 393.345 6.580,393.023 6.743,392.891 6.923 C 392.760 7.103,392.618 7.231,392.576 7.208 C 392.534 7.185,392.481 7.173,392.458 7.180 C 392.435 7.188,392.202 7.209,391.940 7.228 C 391.678 7.247,391.356 7.410,391.225 7.590 C 391.093 7.769,390.951 7.898,390.909 7.875 C 390.868 7.852,390.777 7.842,390.708 7.853 C 390.640 7.863,390.452 7.858,390.292 7.842 C 390.131 7.826,390.000 7.897,390.000 7.999 C 390.000 8.102,389.920 8.137,389.823 8.077 C 389.725 8.017,389.500 8.099,389.322 8.260 C 388.827 8.709,388.821 8.659,388.827 4.188 L 388.833 0.000 383.590 0.000 L 378.347 -0.000 378.363 0.458 M361.856 0.878 C 361.765 0.969,361.366 1.064,360.970 1.090 C 360.341 1.131,359.540 1.225,359.115 1.307 C 359.041 1.322,359.026 1.407,359.082 1.498 C 359.141 1.593,359.074 1.621,358.925 1.564 C 358.783 1.509,358.667 1.537,358.667 1.626 C 358.667 1.714,358.480 1.752,358.253 1.708 C 358.025 1.664,357.706 1.686,357.544 1.757 C 357.383 1.827,357.123 1.869,356.967 1.850 C 356.812 1.831,356.459 1.932,356.184 2.074 C 355.909 2.217,355.459 2.333,355.185 2.333 C 354.911 2.333,354.642 2.405,354.588 2.493 C 354.534 2.580,354.386 2.612,354.260 2.564 C 354.133 2.516,353.817 2.583,353.557 2.715 C 353.296 2.846,352.655 3.002,352.131 3.061 C 351.183 3.168,350.333 3.453,350.333 3.665 C 350.333 3.726,350.109 3.743,349.835 3.703 C 349.562 3.662,349.205 3.687,349.044 3.758 C 348.882 3.828,348.686 3.872,348.608 3.854 C 348.361 3.798,347.825 4.019,347.903 4.144 C 347.944 4.210,347.739 4.282,347.448 4.305 C 345.244 4.472,345.354 3.622,345.340 20.500 C 345.334 28.429,345.273 34.992,345.206 35.083 C 345.045 35.302,344.795 35.325,342.374 35.348 C 341.251 35.359,340.290 35.436,340.238 35.520 C 340.186 35.604,340.072 35.628,339.985 35.574 C 339.897 35.520,339.508 35.593,339.121 35.738 C 338.646 35.914,337.710 36.015,336.250 36.046 C 334.460 36.085,334.002 36.147,333.615 36.405 C 333.217 36.671,332.848 36.715,331.164 36.697 C 330.073 36.686,329.142 36.739,329.094 36.816 C 329.047 36.893,328.808 36.917,328.563 36.870 C 328.226 36.806,328.150 36.838,328.251 37.002 C 328.338 37.143,328.319 37.178,328.196 37.101 C 328.092 37.037,327.842 37.073,327.642 37.180 C 327.420 37.298,326.566 37.369,325.478 37.360 C 324.489 37.351,323.640 37.409,323.590 37.489 C 323.540 37.570,323.361 37.599,323.191 37.555 C 323.022 37.510,322.778 37.574,322.650 37.695 C 322.369 37.962,321.982 38.037,321.042 38.008 C 320.625 37.996,320.333 38.062,320.333 38.170 C 320.333 38.271,320.264 38.310,320.179 38.258 C 319.998 38.146,319.167 38.495,319.167 38.683 C 319.167 38.754,318.904 38.770,318.583 38.718 C 318.190 38.654,318.000 38.688,318.000 38.821 C 318.000 38.930,317.932 38.978,317.848 38.926 C 317.634 38.794,317.150 39.005,317.260 39.182 C 317.310 39.263,317.234 39.285,317.092 39.230 C 316.950 39.176,316.833 39.207,316.833 39.300 C 316.833 39.393,316.683 39.430,316.500 39.382 C 316.306 39.331,316.167 39.377,316.167 39.490 C 316.167 39.598,316.087 39.637,315.989 39.577 C 315.892 39.517,315.686 39.574,315.531 39.705 C 315.377 39.836,314.927 40.035,314.533 40.147 C 314.138 40.260,313.774 40.460,313.724 40.592 C 313.673 40.724,313.567 40.791,313.487 40.742 C 313.295 40.624,312.333 41.128,312.333 41.347 C 312.333 41.442,312.258 41.473,312.167 41.417 C 312.075 41.360,312.000 41.391,312.000 41.485 C 312.000 41.579,311.897 41.616,311.770 41.568 C 311.644 41.519,311.391 41.669,311.209 41.901 C 311.027 42.133,310.833 42.278,310.779 42.224 C 310.649 42.094,308.833 43.302,308.833 43.519 C 308.833 43.611,308.770 43.647,308.692 43.599 C 308.421 43.431,303.253 48.034,303.309 48.392 C 303.317 48.446,302.970 48.841,302.537 49.269 C 302.104 49.697,301.900 49.951,302.083 49.834 C 302.267 49.717,302.098 49.900,301.708 50.241 C 301.319 50.582,301.000 50.958,301.000 51.077 C 301.000 51.195,300.886 51.387,300.746 51.503 C 300.606 51.619,300.527 51.749,300.569 51.791 C 300.612 51.834,300.492 52.030,300.304 52.226 C 300.115 52.423,299.858 52.822,299.733 53.114 C 299.608 53.405,299.428 53.692,299.333 53.750 C 299.061 53.918,297.507 57.204,297.466 57.697 C 297.446 57.942,297.376 58.110,297.311 58.070 C 297.144 57.967,296.784 59.131,296.894 59.418 C 296.944 59.549,296.912 59.701,296.823 59.756 C 296.734 59.811,296.712 59.938,296.773 60.037 C 296.836 60.139,296.808 60.171,296.710 60.110 C 296.512 59.988,296.282 60.449,296.426 60.682 C 296.478 60.765,296.442 60.833,296.347 60.833 C 296.252 60.833,296.174 61.152,296.174 61.542 C 296.173 62.542,296.129 62.830,295.990 62.744 C 295.831 62.645,295.638 63.152,295.759 63.348 C 295.811 63.432,295.775 63.500,295.680 63.500 C 295.458 63.500,295.464 75.291,295.686 75.428 C 295.770 75.480,295.795 75.594,295.741 75.681 C 295.687 75.768,295.789 76.082,295.967 76.378 C 296.192 76.753,296.266 77.107,296.210 77.542 C 296.158 77.953,296.197 78.167,296.325 78.167 C 296.432 78.167,296.471 78.245,296.412 78.341 C 296.353 78.436,296.439 78.718,296.604 78.966 C 296.768 79.214,296.882 79.585,296.856 79.792 C 296.830 79.998,296.894 80.167,296.998 80.167 C 297.102 80.167,297.138 80.245,297.079 80.341 C 297.020 80.436,297.080 80.681,297.214 80.885 C 297.347 81.088,297.508 81.492,297.572 81.783 C 297.636 82.073,297.796 82.400,297.927 82.509 C 298.059 82.618,298.167 82.848,298.167 83.020 C 298.167 83.193,298.246 83.333,298.343 83.333 C 298.440 83.333,298.473 83.408,298.417 83.500 C 298.301 83.687,298.829 84.667,299.046 84.667 C 299.123 84.667,299.143 84.737,299.090 84.822 C 299.038 84.907,299.145 85.083,299.329 85.212 C 299.514 85.341,299.615 85.496,299.554 85.557 C 299.494 85.617,299.530 85.667,299.634 85.667 C 299.738 85.667,299.787 85.760,299.744 85.875 C 299.605 86.238,302.180 89.753,302.424 89.534 C 302.495 89.469,302.504 89.504,302.443 89.610 C 302.382 89.717,302.552 89.988,302.824 90.216 C 303.094 90.444,303.282 90.662,303.243 90.702 C 303.050 90.894,307.718 95.124,308.028 95.038 C 308.118 95.012,308.150 95.059,308.099 95.141 C 308.011 95.283,309.318 96.213,309.610 96.216 C 309.687 96.216,309.832 96.330,309.933 96.467 C 310.034 96.605,310.347 96.838,310.629 96.984 C 310.911 97.130,311.569 97.492,312.093 97.788 C 312.616 98.083,313.110 98.285,313.189 98.236 C 313.268 98.187,313.333 98.209,313.333 98.286 C 313.333 98.458,314.213 98.912,315.039 99.166 C 315.382 99.272,315.702 99.423,315.752 99.503 C 315.840 99.646,317.288 99.934,317.554 99.862 C 317.630 99.842,317.644 99.902,317.586 99.996 C 317.528 100.090,317.579 100.178,317.698 100.192 C 318.077 100.236,318.242 100.279,318.544 100.410 C 318.706 100.480,319.025 100.502,319.253 100.459 C 319.480 100.415,319.667 100.429,319.667 100.490 C 319.667 100.658,320.810 101.034,320.988 100.924 C 321.073 100.871,321.194 100.909,321.254 101.007 C 321.322 101.116,321.905 101.174,322.744 101.153 C 323.503 101.135,324.208 101.173,324.312 101.237 C 324.415 101.301,324.587 101.299,324.692 101.234 C 324.807 101.163,324.840 101.188,324.773 101.296 C 324.484 101.764,329.373 101.833,329.888 101.367 C 330.147 101.133,330.471 101.093,331.748 101.141 C 332.760 101.178,333.334 101.134,333.409 101.013 C 333.472 100.911,333.597 100.874,333.688 100.930 C 333.874 101.045,334.833 100.691,334.833 100.509 C 334.833 100.444,335.045 100.422,335.303 100.460 C 335.949 100.555,337.208 100.202,337.063 99.966 C 337.000 99.865,337.021 99.827,337.109 99.881 C 337.323 100.013,338.667 99.667,338.667 99.480 C 338.667 99.399,338.723 99.349,338.792 99.368 C 339.056 99.441,340.695 98.787,340.776 98.577 C 340.823 98.454,340.967 98.395,341.097 98.445 C 341.227 98.495,341.333 98.448,341.333 98.341 C 341.333 98.234,341.409 98.194,341.501 98.251 C 341.593 98.308,341.886 98.200,342.152 98.011 C 342.417 97.821,342.717 97.667,342.817 97.667 C 342.918 97.667,343.000 97.587,343.000 97.490 C 343.000 97.393,343.067 97.355,343.148 97.405 C 343.229 97.455,343.388 97.385,343.502 97.248 C 343.615 97.112,343.814 97.000,343.945 97.000 C 344.075 97.000,344.366 96.816,344.591 96.591 C 344.816 96.366,345.000 96.225,345.000 96.278 C 345.000 96.331,345.094 96.296,345.208 96.201 C 345.374 96.063,345.406 96.459,345.365 98.113 C 345.333 99.424,345.374 100.161,345.475 100.099 C 345.564 100.044,345.601 100.132,345.558 100.298 C 345.456 100.687,346.133 101.549,346.445 101.429 C 346.577 101.378,346.639 101.410,346.584 101.498 C 346.521 101.601,349.500 101.658,354.831 101.656 C 360.020 101.653,363.140 101.592,363.080 101.494 C 363.026 101.408,363.089 101.378,363.218 101.427 C 363.370 101.486,363.551 101.312,363.728 100.940 C 364.169 100.009,364.063 1.530,363.620 1.040 C 363.298 0.685,362.154 0.579,361.856 0.878 M345.248 60.628 C 345.404 67.949,345.330 71.999,345.032 72.313 C 344.912 72.440,344.852 72.641,344.898 72.761 C 344.944 72.880,344.914 73.002,344.832 73.031 C 344.750 73.060,344.665 73.400,344.643 73.787 C 344.620 74.174,344.567 74.456,344.524 74.413 C 344.395 74.284,344.050 74.882,343.927 75.447 C 343.864 75.738,343.704 76.066,343.573 76.176 C 343.441 76.285,343.333 76.447,343.333 76.536 C 343.333 76.626,343.178 76.916,342.989 77.183 C 342.799 77.449,342.697 77.667,342.761 77.667 C 342.826 77.667,342.677 77.825,342.430 78.019 C 342.184 78.213,342.021 78.410,342.069 78.458 C 342.116 78.505,341.970 78.690,341.744 78.868 C 341.518 79.045,341.333 79.340,341.333 79.522 C 341.333 79.704,341.268 79.813,341.189 79.764 C 341.110 79.715,340.903 79.840,340.731 80.043 C 340.421 80.406,340.421 80.408,340.750 80.172 C 341.041 79.963,341.056 79.963,340.867 80.175 C 340.748 80.308,340.579 80.426,340.492 80.438 C 340.405 80.449,340.254 80.468,340.157 80.479 C 340.060 80.491,340.034 80.587,340.099 80.692 C 340.170 80.806,340.145 80.840,340.039 80.774 C 339.941 80.713,339.573 80.935,339.222 81.266 C 338.871 81.597,338.546 81.861,338.500 81.853 C 338.238 81.805,337.845 82.051,337.940 82.204 C 338.001 82.304,337.979 82.340,337.891 82.286 C 337.803 82.231,337.409 82.370,337.015 82.593 C 336.621 82.817,336.194 83.000,336.066 83.000 C 335.938 83.000,335.833 83.079,335.833 83.177 C 335.833 83.274,335.747 83.300,335.641 83.234 C 335.536 83.169,335.348 83.254,335.225 83.423 C 335.101 83.592,335.000 83.674,335.000 83.605 C 335.000 83.537,334.908 83.537,334.796 83.606 C 334.684 83.675,334.309 83.712,333.963 83.687 C 333.617 83.662,333.333 83.715,333.333 83.805 C 333.333 83.895,333.172 83.927,332.974 83.875 C 332.706 83.805,332.649 83.837,332.750 83.999 C 332.841 84.147,332.820 84.178,332.685 84.095 C 332.575 84.027,332.374 84.063,332.239 84.176 C 331.828 84.517,328.989 84.482,328.601 84.132 C 328.264 83.828,326.997 83.568,326.598 83.721 C 326.466 83.772,326.271 83.709,326.166 83.582 C 326.060 83.455,325.698 83.267,325.362 83.164 C 324.646 82.946,323.537 82.387,323.136 82.042 C 322.981 81.909,322.781 81.846,322.691 81.901 C 322.602 81.957,322.503 81.945,322.473 81.876 C 322.341 81.579,320.779 80.347,320.642 80.432 C 320.559 80.483,320.512 80.449,320.538 80.357 C 320.563 80.265,320.321 79.994,320.000 79.755 C 319.679 79.515,319.426 79.266,319.437 79.201 C 319.482 78.943,319.285 78.667,319.056 78.667 C 318.923 78.667,318.855 78.600,318.905 78.519 C 318.955 78.438,318.888 78.281,318.756 78.171 C 318.623 78.062,318.312 77.622,318.064 77.194 C 317.815 76.767,317.531 76.362,317.431 76.294 C 317.331 76.227,317.315 76.171,317.394 76.169 C 317.473 76.168,317.417 75.982,317.269 75.756 C 317.121 75.530,317.000 75.230,317.000 75.089 C 317.000 74.948,316.921 74.833,316.823 74.833 C 316.726 74.833,316.696 74.754,316.756 74.656 C 316.817 74.559,316.756 74.352,316.621 74.198 C 316.487 74.043,316.336 73.442,316.286 72.863 C 316.230 72.204,316.088 71.690,315.908 71.491 C 315.501 71.041,315.513 68.056,315.924 67.428 C 316.078 67.194,316.161 66.892,316.109 66.757 C 316.057 66.621,316.091 66.463,316.185 66.405 C 316.279 66.347,316.335 66.053,316.309 65.752 C 316.283 65.450,316.352 65.095,316.462 64.963 C 316.757 64.607,317.159 63.383,317.029 63.238 C 316.967 63.170,317.003 63.163,317.109 63.223 C 317.225 63.289,317.370 63.135,317.475 62.833 C 317.571 62.558,317.597 62.332,317.533 62.331 C 317.469 62.329,317.503 62.273,317.608 62.206 C 317.824 62.068,319.326 60.063,319.280 59.974 C 319.263 59.943,319.269 59.924,319.293 59.932 C 319.410 59.974,321.247 58.066,321.198 57.954 C 321.167 57.883,321.204 57.836,321.279 57.849 C 321.620 57.908,321.844 57.819,321.747 57.663 C 321.689 57.569,321.704 57.510,321.779 57.533 C 321.943 57.582,324.393 56.168,324.469 55.981 C 324.498 55.910,324.629 55.893,324.761 55.944 C 324.892 55.994,325.000 55.948,325.000 55.841 C 325.000 55.734,325.069 55.690,325.153 55.742 C 325.238 55.794,325.406 55.742,325.528 55.627 C 325.650 55.511,326.050 55.393,326.417 55.364 C 326.783 55.335,327.107 55.245,327.136 55.165 C 327.165 55.084,327.284 55.055,327.401 55.100 C 327.518 55.145,327.694 55.085,327.792 54.966 C 327.936 54.793,329.687 54.759,336.548 54.795 L 345.124 54.839 345.248 60.628 " stroke="none" fill="#000000" fill-rule="evenodd"></path><path id="path1" d="M138.833 0.149 C 138.696 0.226,138.194 0.332,137.717 0.385 C 137.241 0.439,136.626 0.599,136.351 0.741 C 136.075 0.883,135.565 1.003,135.217 1.007 C 134.868 1.011,134.283 1.131,133.917 1.273 C 133.550 1.415,132.771 1.598,132.185 1.679 C 131.599 1.760,130.961 1.929,130.768 2.054 C 130.575 2.179,129.980 2.326,129.445 2.380 C 128.103 2.516,127.734 2.799,127.501 3.870 C 127.139 5.535,127.342 88.772,127.710 89.488 C 127.872 89.802,128.052 90.477,128.111 90.988 C 128.169 91.499,128.356 92.178,128.525 92.498 C 128.695 92.817,128.833 93.206,128.833 93.362 C 128.833 93.723,129.061 94.243,129.588 95.083 C 129.818 95.450,130.080 95.924,130.170 96.138 C 130.766 97.541,134.708 100.500,135.982 100.500 C 136.182 100.500,136.545 100.631,136.790 100.792 C 137.426 101.208,142.213 101.219,143.333 100.807 C 143.746 100.656,144.414 100.484,144.817 100.426 C 148.112 99.954,153.500 95.208,153.500 92.778 C 153.500 91.916,152.978 91.167,152.379 91.167 C 151.662 91.167,149.442 89.357,148.587 88.077 C 148.006 87.206,147.500 86.191,147.494 85.883 C 147.491 85.718,147.344 85.283,147.167 84.917 C 146.990 84.550,146.842 83.910,146.839 83.495 C 146.836 83.053,146.713 82.570,146.542 82.329 C 146.266 81.939,146.248 79.679,146.210 41.333 C 146.188 19.012,146.130 0.581,146.082 0.375 C 145.989 -0.020,139.500 -0.222,138.833 0.149 M378.278 0.611 C 378.217 0.672,378.180 1.403,378.196 2.236 L 378.225 3.750 378.324 2.167 C 378.434 0.421,378.435 0.454,378.278 0.611 M26.583 8.842 C 26.217 9.016,25.617 9.162,25.250 9.168 C 24.883 9.173,24.283 9.323,23.917 9.500 C 23.550 9.677,22.949 9.825,22.581 9.828 C 22.213 9.831,21.632 9.983,21.290 10.167 C 20.948 10.350,20.413 10.500,20.102 10.500 C 19.791 10.500,19.209 10.648,18.810 10.830 C 18.410 11.011,17.810 11.161,17.477 11.163 C 17.143 11.165,16.543 11.315,16.143 11.496 C 15.744 11.678,15.146 11.828,14.815 11.830 C 13.567 11.837,11.728 12.940,11.847 13.608 C 11.861 13.686,11.864 16.956,11.853 20.875 L 11.833 28.000 5.917 28.000 L 0.000 28.000 0.000 36.000 L 0.000 44.000 5.917 44.000 L 11.833 44.000 11.833 63.327 C 11.833 82.261,11.840 82.672,12.167 83.500 C 12.350 83.965,12.500 84.699,12.501 85.131 C 12.501 85.622,12.626 86.121,12.834 86.462 C 13.017 86.762,13.167 87.202,13.167 87.440 C 13.167 87.677,13.305 88.144,13.475 88.477 C 13.644 88.811,14.038 89.598,14.350 90.226 C 15.273 92.088,15.440 92.351,16.621 93.827 C 18.768 96.507,22.671 99.212,25.167 99.748 C 25.488 99.817,25.954 99.978,26.204 100.106 C 26.454 100.233,27.129 100.381,27.704 100.435 C 28.279 100.488,29.087 100.656,29.500 100.808 C 30.695 101.247,65.543 101.228,66.216 100.788 C 67.189 100.150,66.912 99.434,64.923 97.442 C 62.991 95.508,60.837 92.412,60.834 91.564 C 60.834 91.462,60.694 91.199,60.524 90.981 C 60.354 90.762,60.160 90.283,60.093 89.917 C 60.027 89.550,59.875 89.138,59.756 89.000 C 59.638 88.862,59.506 88.375,59.463 87.917 C 59.369 86.906,58.801 85.613,58.296 85.260 C 57.971 85.032,56.728 85.000,48.121 85.000 C 40.149 85.000,38.233 84.957,37.867 84.772 C 37.619 84.646,37.042 84.492,36.583 84.430 C 33.918 84.068,31.595 81.730,31.251 79.063 C 31.191 78.594,31.016 77.994,30.862 77.730 C 30.607 77.291,30.579 75.814,30.534 60.628 L 30.485 44.006 44.571 43.961 L 58.657 43.917 59.037 43.537 L 59.417 43.157 59.417 36.082 L 59.417 29.007 58.955 28.545 L 58.493 28.083 44.496 28.039 L 30.500 27.994 30.500 18.656 L 30.500 9.318 30.091 8.909 C 29.558 8.377,27.645 8.340,26.583 8.842 M183.971 26.901 C 183.726 27.029,182.789 27.186,181.888 27.250 C 180.987 27.314,180.096 27.464,179.909 27.582 C 179.721 27.700,179.066 27.875,178.453 27.970 C 177.841 28.066,177.171 28.261,176.966 28.405 C 176.761 28.549,176.401 28.667,176.167 28.667 C 175.932 28.667,175.593 28.769,175.412 28.894 C 175.231 29.019,174.896 29.175,174.667 29.240 C 174.196 29.373,171.265 30.818,170.250 31.417 C 169.883 31.633,169.358 31.940,169.084 32.098 C 168.560 32.398,166.197 34.169,165.126 35.063 C 161.406 38.168,155.667 46.018,155.667 48.001 C 155.667 48.162,155.556 48.384,155.421 48.496 C 155.286 48.608,155.127 48.974,155.067 49.308 C 155.007 49.643,154.861 50.029,154.743 50.167 C 154.625 50.304,154.478 50.717,154.416 51.083 C 154.354 51.450,154.160 52.068,153.985 52.457 C 153.809 52.848,153.667 53.534,153.667 53.993 C 153.667 54.475,153.534 55.088,153.351 55.453 C 153.109 55.937,153.013 56.601,152.939 58.311 C 152.884 59.587,152.761 60.636,152.653 60.767 C 152.548 60.893,152.508 61.113,152.563 61.257 C 152.620 61.407,152.593 61.474,152.498 61.415 C 152.200 61.231,152.287 67.733,152.592 68.464 C 152.760 68.866,152.885 69.874,152.948 71.333 C 153.019 73.009,153.123 73.762,153.355 74.283 C 153.526 74.667,153.667 75.345,153.667 75.789 C 153.667 76.267,153.803 76.863,154.000 77.250 C 154.183 77.610,154.333 78.097,154.333 78.333 C 154.333 78.570,154.483 79.057,154.667 79.417 C 154.850 79.776,155.000 80.181,155.000 80.316 C 155.000 80.551,155.175 80.964,156.136 83.000 C 156.616 84.017,158.009 86.536,158.164 86.667 C 158.218 86.712,158.502 87.117,158.794 87.565 C 159.384 88.469,161.687 91.188,162.325 91.734 C 162.550 91.926,163.075 92.388,163.492 92.760 C 165.523 94.573,167.779 96.117,169.888 97.137 C 172.200 98.255,172.763 98.500,173.016 98.500 C 173.150 98.500,173.416 98.610,173.608 98.745 C 173.801 98.879,174.286 99.041,174.687 99.104 C 175.088 99.167,175.580 99.324,175.779 99.453 C 175.978 99.583,176.578 99.731,177.112 99.784 C 177.646 99.836,178.308 99.995,178.583 100.136 C 178.914 100.306,179.731 100.417,181.000 100.466 C 182.159 100.511,183.095 100.631,183.367 100.770 C 183.902 101.043,201.012 101.114,201.717 100.846 C 202.080 100.708,203.833 98.526,203.834 98.211 C 203.834 98.141,204.125 97.664,204.481 97.152 C 204.836 96.639,205.176 96.068,205.235 95.882 C 205.294 95.696,205.490 95.410,205.671 95.246 C 205.852 95.082,206.000 94.885,206.000 94.807 C 206.000 94.729,206.444 94.006,206.986 93.200 C 207.529 92.395,208.159 91.385,208.387 90.956 C 208.760 90.255,209.180 89.628,209.665 89.049 C 209.758 88.938,209.833 88.775,209.833 88.686 C 209.833 88.598,210.015 88.310,210.236 88.047 C 211.038 87.094,210.947 85.591,210.064 85.188 C 209.770 85.054,206.479 85.000,198.679 85.000 C 189.441 85.000,187.615 84.962,187.125 84.757 C 186.805 84.623,186.028 84.464,185.397 84.404 C 184.766 84.344,184.092 84.196,183.899 84.076 C 183.707 83.956,183.257 83.803,182.899 83.737 C 180.688 83.326,176.288 80.172,174.934 78.027 C 174.179 76.831,173.199 74.859,173.080 74.298 C 173.017 73.997,172.867 73.525,172.748 73.250 C 172.629 72.975,172.489 72.286,172.436 71.720 C 172.384 71.153,172.320 70.590,172.295 70.470 C 172.258 70.289,176.592 70.235,196.667 70.167 C 223.366 70.076,221.635 70.153,221.971 69.032 C 222.296 67.948,222.239 58.825,221.902 58.036 C 221.731 57.636,221.605 56.680,221.546 55.333 C 221.478 53.771,221.377 53.095,221.144 52.632 C 220.959 52.262,220.833 51.658,220.832 51.132 C 220.832 50.632,220.713 50.033,220.558 49.750 C 220.408 49.475,220.227 48.850,220.155 48.360 C 220.083 47.871,219.915 47.346,219.781 47.193 C 219.646 47.041,219.485 46.602,219.422 46.218 C 219.359 45.834,219.208 45.437,219.088 45.337 C 218.967 45.237,218.821 44.902,218.763 44.594 C 218.705 44.286,218.552 43.946,218.423 43.839 C 218.294 43.731,218.141 43.429,218.083 43.167 C 218.026 42.904,217.878 42.606,217.756 42.505 C 217.633 42.403,217.483 42.122,217.423 41.881 C 217.362 41.640,217.167 41.258,216.990 41.032 C 216.812 40.806,216.667 40.552,216.667 40.466 C 216.667 40.314,215.993 39.363,215.500 38.818 C 215.362 38.667,214.912 38.112,214.500 37.585 C 213.216 35.946,211.260 34.140,209.392 32.866 C 207.868 31.827,206.250 30.794,205.917 30.647 C 205.733 30.567,205.471 30.430,205.333 30.344 C 204.843 30.036,203.122 29.333,202.855 29.332 C 202.706 29.332,202.358 29.182,202.083 29.000 C 201.808 28.818,201.356 28.668,201.079 28.668 C 200.801 28.667,200.405 28.548,200.198 28.403 C 199.991 28.258,199.354 28.074,198.782 27.993 C 198.210 27.912,197.519 27.737,197.246 27.605 C 196.966 27.469,195.924 27.313,194.857 27.246 C 193.806 27.180,192.767 27.026,192.523 26.898 C 191.885 26.565,184.611 26.568,183.971 26.901 M84.067 27.313 C 82.575 27.374,81.456 27.495,81.317 27.608 C 81.189 27.713,80.333 27.852,79.417 27.916 C 78.500 27.980,77.530 28.139,77.262 28.269 C 76.994 28.398,76.356 28.551,75.845 28.609 C 75.335 28.666,74.638 28.853,74.298 29.023 C 73.958 29.194,73.471 29.334,73.215 29.334 C 72.959 29.335,72.525 29.485,72.250 29.667 C 71.975 29.849,71.573 29.998,71.356 29.999 C 71.139 30.000,70.689 30.144,70.356 30.321 C 70.023 30.497,69.563 30.683,69.333 30.734 C 67.952 31.039,67.181 33.016,67.997 34.162 C 68.182 34.422,68.333 34.750,68.333 34.891 C 68.333 35.032,68.400 35.188,68.481 35.238 C 68.562 35.288,68.787 35.649,68.982 36.040 C 69.176 36.430,69.410 36.862,69.501 37.000 C 69.592 37.137,69.746 37.438,69.842 37.667 C 69.938 37.896,70.196 38.383,70.414 38.750 C 71.058 39.829,71.338 40.344,72.024 41.700 C 72.380 42.406,72.740 43.026,72.823 43.077 C 72.906 43.128,73.024 43.395,73.084 43.668 C 73.307 44.684,75.290 45.079,76.417 44.333 C 76.692 44.151,77.152 44.002,77.440 44.001 C 77.728 44.000,78.291 43.852,78.690 43.670 C 79.807 43.163,91.193 43.163,92.310 43.670 C 92.709 43.852,93.289 44.000,93.597 44.000 C 94.134 44.000,94.639 44.189,96.664 45.147 C 99.032 46.267,101.033 49.082,101.269 51.626 L 101.381 52.833 92.480 52.833 C 83.897 52.833,83.556 52.845,82.956 53.167 C 82.586 53.365,82.014 53.500,81.542 53.501 C 81.032 53.502,80.572 53.620,80.250 53.833 C 79.975 54.015,79.583 54.165,79.379 54.166 C 78.541 54.168,74.011 56.641,72.755 57.781 C 72.370 58.131,71.555 58.825,70.944 59.323 C 70.333 59.822,69.833 60.287,69.833 60.358 C 69.833 60.429,69.693 60.621,69.522 60.785 C 69.144 61.147,67.667 62.966,67.667 63.069 C 67.667 63.110,67.367 63.595,67.000 64.147 C 66.633 64.699,66.332 65.248,66.330 65.367 C 66.328 65.486,66.179 65.771,66.000 66.000 C 65.821 66.229,65.672 66.529,65.669 66.667 C 65.667 66.804,65.515 67.142,65.333 67.417 C 65.151 67.692,65.002 68.051,65.001 68.215 C 65.000 68.379,64.856 68.795,64.681 69.139 C 64.505 69.484,64.311 70.062,64.249 70.424 C 64.188 70.787,64.013 71.346,63.860 71.667 C 63.401 72.634,63.355 80.906,63.802 82.262 C 63.981 82.806,64.180 83.550,64.244 83.917 C 64.309 84.283,64.505 84.817,64.681 85.103 C 64.856 85.389,65.001 85.764,65.001 85.936 C 65.003 86.355,67.145 90.580,67.483 90.833 C 67.545 90.879,67.867 91.329,68.199 91.833 C 69.097 93.195,72.358 96.297,74.000 97.352 C 76.188 98.757,78.221 99.833,78.689 99.833 C 78.819 99.833,79.074 99.936,79.255 100.062 C 79.435 100.188,79.846 100.346,80.167 100.413 C 80.487 100.480,81.179 100.677,81.703 100.851 C 82.312 101.053,83.127 101.167,83.958 101.167 C 84.929 101.167,85.364 101.241,85.671 101.458 C 86.234 101.857,89.334 101.867,90.083 101.473 C 90.382 101.316,91.191 101.177,92.089 101.128 C 93.009 101.078,93.799 100.940,94.122 100.773 C 94.413 100.623,94.798 100.500,94.979 100.500 C 95.419 100.500,98.420 99.295,99.167 98.819 C 99.304 98.732,99.654 98.550,99.945 98.417 C 101.026 97.919,103.633 95.983,104.303 95.180 C 104.524 94.915,105.326 95.616,105.335 96.083 C 105.340 96.347,107.697 98.755,108.250 99.061 C 108.525 99.213,108.862 99.406,109.000 99.489 C 109.689 99.906,110.705 100.325,111.277 100.429 C 111.629 100.492,112.142 100.666,112.417 100.814 C 113.181 101.226,118.855 101.208,119.617 100.792 C 119.910 100.631,120.285 100.500,120.450 100.499 C 120.615 100.498,120.956 100.386,121.208 100.249 C 121.460 100.112,121.843 99.904,122.059 99.787 C 123.989 98.737,125.865 96.625,125.968 95.387 L 126.042 94.486 125.047 93.535 C 124.082 92.613,122.668 90.679,122.666 90.280 C 122.665 90.172,122.515 89.858,122.333 89.583 C 122.151 89.308,122.002 88.855,122.001 88.577 C 122.000 88.298,121.850 87.776,121.667 87.417 C 121.444 86.981,121.332 86.428,121.330 85.756 C 121.327 85.117,121.206 84.485,120.996 84.023 C 120.676 83.319,120.667 82.890,120.667 69.639 C 120.667 61.512,120.605 56.018,120.516 56.074 C 120.432 56.125,120.400 56.031,120.444 55.864 C 120.487 55.697,120.405 55.462,120.262 55.343 C 120.049 55.166,119.999 54.716,119.993 52.938 C 119.987 51.363,119.912 50.563,119.725 50.083 C 119.581 49.717,119.404 48.830,119.331 48.114 C 119.257 47.389,119.090 46.686,118.954 46.530 C 118.820 46.376,118.668 45.811,118.616 45.274 C 118.563 44.738,118.403 44.170,118.260 44.011 C 118.117 43.853,117.999 43.542,117.998 43.320 C 117.998 43.098,117.812 42.542,117.587 42.083 C 117.362 41.625,117.175 41.149,117.172 41.026 C 117.169 40.903,117.017 40.612,116.833 40.379 C 116.650 40.146,116.500 39.824,116.500 39.665 C 116.500 39.505,116.390 39.283,116.256 39.172 C 116.123 39.061,115.966 38.823,115.909 38.644 C 115.708 38.008,113.823 35.693,112.449 34.392 C 110.901 32.927,107.694 30.668,107.158 30.666 C 107.025 30.665,106.692 30.515,106.417 30.333 C 106.142 30.151,105.767 30.001,105.583 30.000 C 105.400 29.999,105.025 29.849,104.750 29.667 C 104.475 29.485,104.046 29.335,103.797 29.334 C 103.548 29.334,103.060 29.190,102.713 29.016 C 102.367 28.841,101.639 28.646,101.095 28.583 C 100.552 28.520,99.952 28.371,99.762 28.251 C 99.572 28.132,98.670 27.980,97.758 27.915 C 96.846 27.850,95.946 27.700,95.758 27.581 C 95.346 27.321,87.971 27.151,84.067 27.313 M261.987 28.226 C 261.750 28.350,260.739 28.505,259.739 28.572 C 258.522 28.654,257.689 28.800,257.220 29.014 C 256.834 29.190,256.308 29.334,256.051 29.334 C 255.794 29.335,255.358 29.485,255.083 29.667 C 254.808 29.849,254.442 29.998,254.269 29.999 C 253.963 30.000,250.552 31.722,249.280 32.518 C 248.563 32.967,244.754 35.933,244.267 36.422 C 243.956 36.735,243.946 36.733,243.690 36.328 C 243.175 35.517,240.734 33.229,239.917 32.792 C 238.323 31.940,236.952 31.333,236.622 31.333 C 236.439 31.333,236.018 31.165,235.686 30.958 C 234.762 30.384,228.297 30.385,227.215 30.960 C 226.829 31.166,226.401 31.333,226.265 31.333 C 225.883 31.333,222.811 32.983,222.271 33.478 C 220.971 34.670,221.040 35.547,222.612 37.786 C 223.841 39.537,225.660 43.093,225.672 43.768 C 225.675 43.942,225.823 44.383,226.000 44.750 C 226.177 45.117,226.325 45.679,226.329 46.000 C 226.332 46.321,226.450 46.803,226.590 47.071 C 226.730 47.339,226.906 48.168,226.981 48.912 C 227.057 49.656,227.206 50.428,227.312 50.627 C 227.419 50.827,227.552 51.949,227.609 53.120 C 227.675 54.497,227.803 55.456,227.972 55.833 C 228.204 56.350,228.244 58.890,228.325 78.174 C 228.428 102.548,228.318 100.628,229.623 100.991 C 230.438 101.217,245.191 101.228,246.000 101.002 C 247.168 100.677,247.079 102.717,247.128 75.265 L 247.173 50.447 248.382 49.257 C 249.047 48.603,250.025 47.809,250.555 47.492 C 251.086 47.176,251.796 46.750,252.135 46.546 C 252.473 46.342,252.938 46.097,253.167 46.003 C 253.396 45.908,253.782 45.719,254.026 45.582 C 254.269 45.445,254.607 45.331,254.776 45.328 C 254.945 45.325,255.383 45.177,255.750 45.000 C 256.117 44.823,256.700 44.675,257.047 44.672 C 257.394 44.669,257.947 44.554,258.276 44.417 C 259.033 44.100,260.878 44.098,261.750 44.412 C 262.117 44.544,262.790 44.655,263.247 44.659 C 264.600 44.671,267.106 45.763,268.459 46.931 C 269.676 47.982,271.332 50.511,271.334 51.323 C 271.334 51.466,271.484 51.829,271.667 52.129 C 271.879 52.476,272.000 52.969,272.000 53.482 C 272.000 53.926,272.150 54.759,272.333 55.333 C 272.660 56.355,272.667 56.839,272.669 78.147 C 272.671 95.348,272.716 100.004,272.882 100.333 C 273.294 101.148,273.741 101.185,282.449 101.132 L 290.493 101.083 290.955 100.621 L 291.417 100.159 291.417 76.288 C 291.417 54.392,291.394 52.368,291.140 51.833 C 290.987 51.512,290.827 50.648,290.783 49.908 C 290.728 48.983,290.593 48.362,290.351 47.910 C 290.158 47.550,290.000 46.990,290.000 46.667 C 290.000 46.343,289.861 45.817,289.691 45.498 C 289.521 45.178,289.332 44.643,289.270 44.308 C 289.208 43.974,289.056 43.616,288.932 43.513 C 288.808 43.410,288.665 43.117,288.614 42.862 C 288.531 42.449,287.961 41.412,286.350 38.750 C 285.562 37.447,280.918 32.834,280.394 32.833 C 280.315 32.833,279.837 32.549,279.333 32.202 C 278.829 31.856,277.967 31.362,277.417 31.105 C 276.867 30.848,276.139 30.494,275.800 30.319 C 275.461 30.143,275.030 30.000,274.841 30.000 C 274.653 30.000,274.219 29.850,273.877 29.667 C 273.535 29.483,273.006 29.333,272.702 29.333 C 272.397 29.333,271.832 29.189,271.445 29.013 C 270.919 28.773,270.178 28.665,268.496 28.583 C 267.237 28.522,265.974 28.370,265.622 28.237 C 264.820 27.935,262.558 27.928,261.987 28.226 M191.288 42.920 C 191.487 43.060,192.160 43.240,192.783 43.320 C 193.407 43.401,194.142 43.586,194.417 43.732 C 194.692 43.878,195.013 43.998,195.131 43.999 C 196.242 44.004,200.833 47.540,200.833 48.390 C 200.833 48.482,200.935 48.675,201.059 48.820 C 201.607 49.461,202.603 51.696,202.748 52.610 C 202.808 52.991,202.962 53.441,203.090 53.610 C 203.218 53.778,203.325 54.273,203.328 54.708 L 203.333 55.500 188.250 55.500 L 173.167 55.500 173.167 55.010 C 173.167 54.740,173.240 54.475,173.329 54.419 C 173.418 54.364,173.601 53.966,173.735 53.535 C 174.829 50.009,177.120 46.879,179.917 45.087 C 180.605 44.646,181.881 44.003,182.083 43.995 C 182.175 43.992,182.550 43.844,182.917 43.667 C 183.283 43.490,183.846 43.340,184.167 43.335 C 184.487 43.329,185.050 43.183,185.417 43.009 C 186.317 42.583,190.711 42.516,191.288 42.920 M101.309 72.893 C 101.266 76.969,101.189 78.857,101.058 79.018 C 100.953 79.145,100.773 79.570,100.657 79.960 C 100.541 80.351,100.346 80.754,100.223 80.856 C 100.100 80.958,100.000 81.133,100.000 81.246 C 100.000 81.964,96.602 84.847,95.479 85.082 C 95.170 85.147,94.744 85.309,94.534 85.442 C 93.948 85.814,90.037 85.669,88.917 85.235 C 86.603 84.337,83.875 81.751,83.555 80.151 C 83.503 79.889,83.356 79.588,83.230 79.483 C 83.088 79.365,82.995 78.935,82.988 78.355 C 82.981 77.839,82.920 77.027,82.852 76.551 C 82.784 76.075,82.790 75.723,82.864 75.769 C 82.939 75.815,83.000 75.415,83.000 74.879 C 83.000 72.777,86.395 68.167,87.942 68.167 C 88.066 68.167,88.448 68.017,88.790 67.833 C 89.132 67.650,89.713 67.497,90.081 67.492 C 90.449 67.488,90.975 67.382,91.250 67.256 C 91.635 67.080,92.858 67.024,96.560 67.014 L 101.371 67.000 101.309 72.893 M325.890 101.706 C 326.145 101.867,328.791 101.869,328.891 101.708 C 328.933 101.640,328.232 101.583,327.332 101.583 C 326.433 101.583,325.784 101.638,325.890 101.706 M347.391 101.706 C 347.497 101.773,350.846 101.828,354.833 101.828 C 358.821 101.828,362.170 101.773,362.276 101.706 C 362.382 101.638,359.033 101.583,354.833 101.583 C 350.634 101.583,347.285 101.638,347.391 101.706 " stroke="none" fill="#000000" fill-rule="evenodd"></path></g></svg>