<svg id="svg" version="1.1" xmlns="http://www.w3.org/2000/svg" xmlns:xlink="http://www.w3.org/1999/xlink" width="400" height="102.08333333333333" viewBox="0, 0, 400,102.08333333333333"><g id="svgg"><path id="path0" d="M86.061 31.444 C 86.120 31.551,86.087 31.666,85.987 31.699 C 85.767 31.772,77.667 39.858,77.667 40.004 C 77.667 40.210,76.858 40.803,76.724 40.695 C 76.648 40.634,76.997 41.037,77.501 41.592 C 78.005 42.147,78.492 42.566,78.583 42.524 C 78.675 42.481,78.696 42.506,78.630 42.579 C 78.458 42.770,79.156 43.693,79.372 43.560 C 79.475 43.496,79.504 43.526,79.439 43.630 C 79.308 43.843,80.169 45.685,80.348 45.574 C 80.415 45.533,80.430 45.650,80.382 45.833 C 80.334 46.017,80.362 46.167,80.445 46.167 C 80.528 46.167,80.605 46.298,80.618 46.458 C 80.676 47.202,80.887 48.153,80.980 48.096 C 81.037 48.060,81.059 48.612,81.028 49.322 C 80.925 51.710,81.222 52.202,82.958 52.520 C 84.155 52.739,85.348 53.375,86.079 54.184 C 86.387 54.525,86.690 54.755,86.750 54.694 C 86.811 54.633,86.837 54.658,86.808 54.750 C 86.727 55.000,87.185 56.008,87.337 55.914 C 87.410 55.870,87.430 55.983,87.382 56.166 C 87.334 56.350,87.362 56.500,87.445 56.500 C 87.576 56.500,87.496 57.686,87.255 59.333 C 87.221 59.563,87.188 59.811,87.180 59.885 C 87.173 59.959,87.103 59.980,87.024 59.932 C 86.862 59.831,85.798 61.242,85.933 61.378 C 85.982 61.427,85.931 61.523,85.819 61.592 C 85.689 61.673,85.658 61.649,85.734 61.526 C 85.799 61.420,85.778 61.333,85.686 61.333 C 85.595 61.333,85.473 61.409,85.415 61.502 C 85.264 61.747,84.013 62.362,83.333 62.525 C 83.012 62.602,79.525 62.676,75.583 62.690 C 71.642 62.703,68.754 62.759,69.167 62.815 C 69.636 62.879,69.839 62.967,69.708 63.052 C 69.548 63.155,69.500 64.601,69.500 69.343 C 69.500 75.094,69.481 75.500,69.208 75.505 C 68.934 75.510,68.934 75.520,69.203 75.677 C 69.387 75.784,72.067 75.819,76.703 75.776 C 85.556 75.693,85.045 75.707,84.942 75.541 C 84.895 75.465,85.124 75.434,85.451 75.472 C 85.778 75.511,86.005 75.476,85.956 75.396 C 85.907 75.316,86.140 75.247,86.475 75.243 C 87.149 75.235,89.416 74.554,89.722 74.267 C 89.829 74.166,90.052 74.072,90.218 74.059 C 91.660 73.940,97.581 68.886,97.260 68.048 C 97.215 67.932,97.256 67.855,97.351 67.877 C 97.775 67.975,100.009 63.419,99.745 62.992 C 99.691 62.905,99.735 62.833,99.843 62.833 C 99.961 62.833,100.008 62.671,99.960 62.422 C 99.917 62.195,99.938 62.045,100.007 62.088 C 100.123 62.159,100.544 60.188,100.477 59.885 C 100.460 59.811,100.501 59.627,100.568 59.477 C 100.634 59.327,100.652 58.352,100.608 57.310 C 100.564 56.269,100.523 55.205,100.517 54.946 C 100.512 54.688,100.444 54.515,100.367 54.562 C 100.290 54.610,100.261 54.417,100.303 54.134 C 100.351 53.804,100.316 53.658,100.205 53.727 C 100.097 53.793,100.065 53.704,100.121 53.492 C 100.224 53.097,99.394 50.418,99.068 50.092 C 98.948 49.971,98.890 49.832,98.939 49.783 C 99.103 49.619,97.657 47.320,97.465 47.439 C 97.355 47.506,97.329 47.475,97.401 47.359 C 97.552 47.114,96.509 45.642,96.283 45.781 C 96.191 45.838,96.161 45.811,96.216 45.721 C 96.350 45.505,94.439 43.620,94.256 43.787 C 94.177 43.858,94.162 43.831,94.222 43.727 C 94.329 43.540,93.537 42.890,93.292 42.963 C 93.223 42.983,93.180 42.944,93.197 42.875 C 93.256 42.632,92.779 41.333,92.630 41.333 C 92.548 41.333,92.522 41.265,92.574 41.182 C 92.718 40.949,92.488 40.488,92.290 40.610 C 92.184 40.676,92.165 40.637,92.243 40.511 C 92.396 40.263,91.848 38.971,91.643 39.098 C 91.565 39.146,91.489 39.088,91.475 38.968 C 91.461 38.848,91.441 38.670,91.430 38.572 C 91.379 38.096,90.768 37.020,90.602 37.115 C 90.500 37.173,90.470 37.161,90.536 37.088 C 90.690 36.918,90.361 36.297,90.177 36.410 C 90.100 36.458,90.048 36.366,90.060 36.207 C 90.073 36.046,89.985 35.937,89.863 35.962 C 89.741 35.988,89.688 35.934,89.744 35.843 C 89.892 35.604,88.996 34.318,88.771 34.446 C 88.668 34.505,88.636 34.495,88.701 34.423 C 88.868 34.238,88.000 33.147,87.789 33.277 C 87.693 33.336,87.661 33.311,87.717 33.221 C 87.772 33.131,87.398 32.650,86.885 32.153 C 86.373 31.657,86.002 31.337,86.061 31.444 M228.744 43.833 C 228.744 48.829,228.766 50.873,228.792 48.375 C 228.817 45.877,228.817 41.790,228.792 39.292 C 228.766 36.794,228.744 38.837,228.744 43.833 M144.579 40.875 L 143.250 42.250 144.625 40.921 C 145.381 40.189,146.000 39.571,146.000 39.546 C 146.000 39.424,145.814 39.598,144.579 40.875 M274.377 41.453 C 274.631 41.491,275.006 41.490,275.211 41.451 C 275.416 41.411,275.208 41.380,274.750 41.381 C 274.292 41.382,274.124 41.415,274.377 41.453 M126.240 42.708 L 125.750 43.250 126.292 42.760 C 126.590 42.491,126.833 42.248,126.833 42.219 C 126.833 42.090,126.696 42.203,126.240 42.708 M284.491 44.125 L 283.917 44.750 284.542 44.176 C 284.885 43.860,285.167 43.578,285.167 43.551 C 285.167 43.423,285.026 43.543,284.491 44.125 M216.292 44.956 C 216.773 44.990,217.560 44.990,218.042 44.956 C 218.523 44.923,218.129 44.895,217.167 44.895 C 216.204 44.895,215.810 44.923,216.292 44.956 M220.745 56.333 C 220.745 61.879,220.766 64.148,220.792 61.375 C 220.817 58.602,220.817 54.065,220.792 51.292 C 220.766 48.519,220.745 50.788,220.745 56.333 M325.575 52.583 C 325.575 55.975,325.598 57.339,325.625 55.614 C 325.652 53.889,325.652 51.114,325.625 49.447 C 325.598 47.781,325.575 49.192,325.575 52.583 M339.578 56.417 C 339.578 61.917,339.599 64.143,339.625 61.363 C 339.651 58.584,339.651 54.084,339.625 51.363 C 339.599 48.643,339.578 50.917,339.578 56.417 M343.740 47.542 L 343.250 48.083 343.792 47.594 C 344.297 47.138,344.410 47.000,344.281 47.000 C 344.252 47.000,344.009 47.244,343.740 47.542 M204.705 56.333 C 204.705 56.654,204.740 56.785,204.782 56.625 C 204.823 56.465,204.823 56.202,204.782 56.042 C 204.740 55.881,204.705 56.012,204.705 56.333 M319.167 59.407 C 319.167 59.631,319.228 59.852,319.303 59.898 C 319.378 59.944,319.407 59.761,319.368 59.491 C 319.280 58.896,319.167 58.848,319.167 59.407 M228.700 63.042 C 228.733 66.419,228.792 66.022,228.873 61.875 C 228.897 60.660,228.860 59.666,228.792 59.666 C 228.723 59.667,228.682 61.185,228.700 63.042 M146.240 63.708 L 145.750 64.250 146.292 63.760 C 146.590 63.491,146.833 63.248,146.833 63.219 C 146.833 63.090,146.696 63.203,146.240 63.708 M153.417 65.000 C 153.775 65.367,154.105 65.667,154.151 65.667 C 154.197 65.667,153.941 65.367,153.583 65.000 C 153.225 64.633,152.895 64.333,152.849 64.333 C 152.803 64.333,153.059 64.633,153.417 65.000 " stroke="none" fill="#8699b8" fill-rule="evenodd"></path><path id="path1" d="M85.716 31.102 C 85.790 31.213,85.771 31.352,85.675 31.412 C 85.579 31.471,85.500 31.463,85.500 31.394 C 85.500 31.325,85.331 31.489,85.123 31.759 C 84.916 32.029,83.484 33.487,81.941 35.000 C 78.426 38.445,76.442 40.604,76.582 40.831 C 76.680 40.990,77.667 40.228,77.667 39.993 C 77.667 39.879,85.672 31.866,85.966 31.687 C 86.135 31.583,86.117 31.484,85.882 31.228 C 85.718 31.048,85.643 30.992,85.716 31.102 M132.143 32.244 C 132.084 32.304,131.561 32.383,130.981 32.421 C 129.841 32.494,127.000 33.290,127.000 33.536 C 127.000 33.619,126.927 33.641,126.838 33.586 C 126.657 33.474,125.650 33.946,125.461 34.232 C 125.394 34.333,125.337 34.358,125.336 34.287 C 125.332 34.091,124.333 34.649,124.333 34.847 C 124.333 34.942,124.259 34.974,124.168 34.918 C 124.077 34.861,123.819 34.999,123.595 35.223 C 123.370 35.448,123.149 35.594,123.103 35.548 C 123.057 35.502,122.635 35.850,122.164 36.320 C 121.693 36.791,121.362 37.081,121.430 36.963 C 121.497 36.846,121.318 36.967,121.034 37.232 C 120.749 37.497,120.531 37.794,120.550 37.891 C 120.568 37.988,120.490 38.072,120.376 38.076 C 120.124 38.085,118.654 39.844,118.758 40.012 C 118.798 40.078,118.715 40.177,118.572 40.231 C 118.429 40.286,118.359 40.407,118.416 40.499 C 118.473 40.591,118.443 40.667,118.350 40.667 C 117.959 40.667,116.233 44.369,116.113 45.467 C 116.085 45.722,116.009 46.017,115.945 46.120 C 115.486 46.864,115.496 53.820,115.958 54.567 C 116.015 54.659,116.086 54.960,116.116 55.234 C 116.147 55.509,116.226 55.774,116.294 55.825 C 116.361 55.875,116.438 56.104,116.463 56.333 C 116.489 56.563,116.583 56.775,116.673 56.806 C 116.762 56.837,116.796 56.925,116.749 57.002 C 116.637 57.183,117.008 58.000,117.203 58.000 C 117.286 58.000,117.310 58.069,117.258 58.153 C 117.206 58.238,117.273 58.416,117.407 58.550 C 117.541 58.684,117.604 58.840,117.548 58.897 C 117.491 58.954,117.536 59.000,117.649 59.000 C 117.761 59.000,117.806 59.076,117.749 59.168 C 117.692 59.260,117.762 59.381,117.905 59.435 C 118.048 59.490,118.131 59.590,118.090 59.656 C 117.983 59.828,118.807 61.000,119.034 61.000 C 119.137 61.000,119.175 61.047,119.118 61.104 C 118.956 61.266,119.849 62.344,120.044 62.223 C 120.140 62.164,120.170 62.193,120.111 62.289 C 119.772 62.837,125.741 67.283,126.328 66.920 C 126.423 66.861,126.500 66.886,126.500 66.975 C 126.500 67.171,128.485 67.862,128.688 67.737 C 128.768 67.687,128.833 67.731,128.833 67.834 C 128.833 67.937,128.965 67.999,129.125 67.973 C 129.285 67.947,129.500 67.977,129.602 68.041 C 130.349 68.511,137.641 68.517,138.387 68.048 C 138.495 67.981,138.715 67.947,138.875 67.973 C 139.035 67.999,139.167 67.937,139.167 67.834 C 139.167 67.731,139.242 67.693,139.333 67.750 C 139.425 67.807,139.594 67.794,139.708 67.723 C 139.823 67.651,139.992 67.586,140.083 67.579 C 140.518 67.544,141.167 67.281,141.167 67.139 C 141.167 67.052,141.242 67.027,141.333 67.083 C 141.425 67.140,141.500 67.102,141.500 67.000 C 141.500 66.898,141.570 66.857,141.655 66.910 C 141.882 67.050,143.004 66.475,142.884 66.280 C 142.828 66.189,142.857 66.162,142.950 66.219 C 143.329 66.453,146.098 64.310,147.341 62.822 C 147.749 62.332,147.971 61.991,147.833 62.064 C 147.696 62.136,147.771 62.041,148.000 61.852 C 148.229 61.662,148.342 61.503,148.250 61.499 C 148.158 61.494,148.216 61.413,148.379 61.318 C 148.541 61.224,148.630 61.076,148.577 60.990 C 148.524 60.904,148.558 60.833,148.654 60.833 C 148.884 60.833,149.706 59.199,149.579 58.994 C 149.525 58.906,149.564 58.833,149.667 58.833 C 149.769 58.833,149.801 58.749,149.737 58.645 C 149.669 58.535,149.708 58.486,149.831 58.527 C 149.947 58.566,150.183 59.157,150.357 59.840 C 150.530 60.524,150.746 61.108,150.837 61.139 C 150.928 61.170,150.963 61.259,150.915 61.336 C 150.781 61.553,151.366 62.666,151.553 62.550 C 151.644 62.494,151.666 62.532,151.603 62.635 C 151.540 62.737,151.641 62.974,151.827 63.161 C 152.014 63.347,152.156 63.547,152.143 63.604 C 151.987 64.278,156.753 67.942,157.325 67.588 C 157.406 67.539,157.499 67.580,157.533 67.681 C 157.566 67.782,157.797 67.876,158.047 67.890 C 158.296 67.905,158.500 67.966,158.500 68.027 C 158.500 68.257,160.822 68.485,162.500 68.420 C 163.462 68.383,164.415 68.347,164.617 68.340 C 164.818 68.334,165.027 68.258,165.080 68.171 C 165.134 68.085,165.280 68.054,165.405 68.102 C 165.530 68.150,165.680 68.113,165.738 68.019 C 165.797 67.925,165.954 67.890,166.089 67.942 C 166.223 67.993,166.333 67.948,166.333 67.841 C 166.333 67.734,166.403 67.690,166.489 67.743 C 166.703 67.876,168.500 67.062,168.500 66.833 C 168.500 66.731,168.574 66.693,168.665 66.749 C 168.756 66.805,169.020 66.661,169.252 66.429 C 169.484 66.197,169.691 66.022,169.712 66.040 C 169.820 66.131,170.833 65.239,170.833 65.052 C 170.833 64.932,170.927 64.833,171.042 64.833 C 171.156 64.833,171.470 64.558,171.738 64.222 C 172.006 63.886,172.119 63.675,171.988 63.755 C 171.857 63.834,171.994 63.653,172.292 63.353 C 172.789 62.852,172.907 62.630,172.853 62.292 C 172.842 62.223,172.896 62.167,172.973 62.167 C 173.169 62.167,173.525 61.341,173.409 61.154 C 173.357 61.069,173.385 61.000,173.472 61.000 C 173.559 61.000,173.678 60.812,173.735 60.583 C 173.848 60.132,174.167 60.009,174.167 60.417 C 174.167 60.554,174.246 60.667,174.343 60.667 C 174.440 60.667,174.475 60.739,174.421 60.827 C 174.297 61.027,175.279 63.000,175.502 63.000 C 175.593 63.000,175.648 63.068,175.625 63.150 C 175.563 63.374,176.846 65.012,177.006 64.913 C 177.082 64.866,177.198 64.916,177.264 65.023 C 177.344 65.152,177.306 65.177,177.151 65.097 C 177.022 65.030,177.194 65.210,177.534 65.497 C 177.873 65.785,178.190 66.017,178.238 66.014 C 178.286 66.010,178.516 66.197,178.748 66.429 C 178.980 66.661,179.244 66.805,179.335 66.749 C 179.426 66.693,179.500 66.725,179.500 66.820 C 179.500 67.051,180.800 67.707,181.006 67.580 C 181.094 67.525,181.167 67.568,181.167 67.675 C 181.167 67.782,181.279 67.826,181.417 67.773 C 181.554 67.720,181.667 67.758,181.667 67.856 C 181.667 67.955,181.777 67.993,181.911 67.942 C 182.046 67.890,182.203 67.925,182.262 68.019 C 182.320 68.113,182.470 68.150,182.595 68.102 C 182.720 68.054,182.866 68.085,182.920 68.171 C 183.031 68.351,183.045 68.352,185.833 68.370 C 187.892 68.383,189.331 68.249,189.498 68.030 C 189.545 67.967,189.771 67.896,190.000 67.870 C 190.229 67.844,190.442 67.750,190.473 67.661 C 190.503 67.571,190.594 67.539,190.675 67.588 C 190.865 67.706,192.500 66.878,192.500 66.664 C 192.500 66.574,192.570 66.519,192.655 66.542 C 192.740 66.565,192.933 66.433,193.084 66.250 C 193.235 66.067,193.302 66.029,193.234 66.167 C 193.150 66.335,193.242 66.309,193.513 66.088 C 194.426 65.346,194.982 64.773,194.907 64.652 C 194.864 64.581,194.916 64.469,195.023 64.402 C 195.152 64.322,195.177 64.361,195.097 64.516 C 195.030 64.645,195.164 64.529,195.395 64.260 C 195.625 63.990,195.768 63.690,195.713 63.593 C 195.658 63.496,195.676 63.474,195.752 63.543 C 195.928 63.702,196.516 62.828,196.381 62.610 C 196.327 62.521,196.360 62.497,196.455 62.555 C 196.628 62.662,197.056 61.838,197.056 61.398 C 197.056 61.271,197.112 61.167,197.181 61.167 C 197.250 61.167,197.356 60.943,197.416 60.669 C 197.581 59.917,197.794 59.915,198.018 60.662 C 198.129 61.031,198.287 61.333,198.370 61.333 C 198.452 61.333,198.473 61.408,198.417 61.500 C 198.360 61.592,198.398 61.667,198.500 61.667 C 198.602 61.667,198.640 61.742,198.583 61.833 C 198.527 61.925,198.564 62.000,198.667 62.000 C 198.769 62.000,198.807 62.075,198.750 62.167 C 198.693 62.258,198.714 62.333,198.796 62.333 C 198.878 62.333,198.944 62.429,198.944 62.545 C 198.944 62.906,199.864 64.167,200.046 64.055 C 200.141 63.996,200.170 64.027,200.111 64.122 C 199.962 64.363,202.139 66.382,203.207 66.994 C 204.068 67.488,204.074 67.497,203.552 67.498 C 203.259 67.499,202.975 67.572,202.921 67.659 C 202.867 67.747,202.713 67.777,202.578 67.725 C 202.442 67.673,202.333 67.725,202.333 67.843 C 202.333 67.960,202.289 68.012,202.236 67.958 C 202.103 67.825,201.167 68.163,201.167 68.344 C 201.167 68.424,201.064 68.450,200.938 68.402 C 200.812 68.354,200.606 68.412,200.480 68.532 C 200.353 68.652,200.100 68.775,199.917 68.805 C 199.343 68.900,198.582 69.433,198.606 69.723 C 198.619 69.875,198.563 70.000,198.481 70.000 C 198.400 70.000,198.333 70.300,198.333 70.667 C 198.333 71.033,198.413 71.333,198.510 71.333 C 198.607 71.333,198.641 71.406,198.586 71.495 C 198.460 71.700,198.950 72.667,199.181 72.667 C 199.276 72.667,199.310 72.737,199.256 72.823 C 199.203 72.909,199.292 73.057,199.455 73.151 C 199.617 73.246,199.692 73.325,199.621 73.328 C 199.550 73.331,199.615 73.520,199.764 73.749 C 199.914 73.977,200.115 74.115,200.211 74.056 C 200.306 73.997,200.339 74.022,200.283 74.113 C 200.227 74.203,200.564 74.646,201.031 75.097 C 201.499 75.548,201.827 75.804,201.761 75.667 C 201.696 75.529,201.804 75.623,202.002 75.876 C 202.200 76.128,202.423 76.298,202.497 76.252 C 202.571 76.206,202.677 76.285,202.731 76.428 C 202.786 76.571,202.907 76.641,202.999 76.584 C 203.091 76.527,203.167 76.564,203.167 76.666 C 203.167 76.888,204.960 77.711,205.166 77.583 C 205.246 77.535,205.361 77.576,205.422 77.675 C 205.483 77.775,205.636 77.817,205.762 77.769 C 205.887 77.721,206.033 77.752,206.086 77.838 C 206.140 77.924,206.348 77.997,206.550 77.999 C 206.752 78.002,207.217 78.044,207.583 78.092 C 208.427 78.203,209.863 78.204,210.833 78.094 C 211.246 78.048,211.748 78.006,211.950 78.002 C 212.152 77.998,212.363 77.920,212.420 77.828 C 212.477 77.736,212.581 77.697,212.652 77.741 C 212.854 77.866,214.000 77.504,214.000 77.316 C 214.000 77.223,214.072 77.192,214.161 77.246 C 214.375 77.379,215.667 76.712,215.667 76.469 C 215.667 76.364,215.714 76.325,215.772 76.383 C 216.042 76.653,218.785 74.160,218.582 73.830 C 218.538 73.760,218.619 73.657,218.762 73.602 C 218.904 73.547,218.974 73.427,218.917 73.335 C 218.860 73.242,218.897 73.167,218.998 73.167 C 219.213 73.167,219.850 71.829,219.729 71.632 C 219.684 71.560,219.734 71.500,219.841 71.500 C 219.948 71.500,219.994 71.392,219.944 71.261 C 219.893 71.129,219.922 70.998,220.006 70.969 C 220.091 70.940,220.186 70.688,220.216 70.409 C 220.247 70.130,220.325 69.816,220.389 69.711 C 220.809 69.032,220.803 45.760,220.383 45.296 C 220.230 45.127,220.006 45.026,219.886 45.072 C 219.765 45.118,219.667 45.102,219.667 45.036 C 219.667 44.971,218.542 44.917,217.167 44.917 C 215.792 44.917,214.667 44.971,214.667 45.036 C 214.667 45.102,214.542 45.108,214.389 45.050 C 214.237 44.991,214.155 45.012,214.207 45.097 C 214.259 45.181,214.084 45.250,213.817 45.250 C 213.551 45.250,213.333 45.189,213.333 45.115 C 213.333 45.041,213.258 45.027,213.167 45.083 C 213.075 45.140,213.000 45.102,213.000 45.000 C 213.000 44.898,212.925 44.860,212.833 44.917 C 212.742 44.973,212.667 44.932,212.667 44.825 C 212.667 44.718,212.554 44.674,212.417 44.727 C 212.279 44.780,212.167 44.742,212.167 44.644 C 212.167 44.545,212.063 44.504,211.937 44.552 C 211.811 44.601,211.621 44.555,211.516 44.449 C 211.284 44.217,207.082 44.176,206.583 44.401 C 206.203 44.573,206.060 44.606,205.554 44.641 C 205.354 44.655,205.082 44.776,204.948 44.909 C 204.815 45.042,204.667 45.112,204.619 45.064 C 204.489 44.934,203.167 45.646,203.167 45.847 C 203.167 45.942,203.096 45.976,203.010 45.923 C 202.923 45.869,202.570 46.108,202.225 46.453 C 201.880 46.798,201.661 46.969,201.739 46.832 C 201.818 46.695,201.536 46.915,201.115 47.319 C 200.693 47.724,200.383 48.113,200.427 48.183 C 200.470 48.253,200.418 48.365,200.310 48.431 C 200.181 48.511,200.156 48.473,200.236 48.317 C 200.303 48.189,200.169 48.304,199.939 48.574 C 199.708 48.843,199.552 49.117,199.592 49.181 C 199.632 49.246,199.548 49.343,199.405 49.398 C 199.262 49.453,199.192 49.573,199.249 49.665 C 199.306 49.758,199.275 49.833,199.179 49.833 C 198.958 49.833,198.124 51.463,198.245 51.659 C 198.295 51.739,198.253 51.832,198.152 51.866 C 198.052 51.899,197.957 52.120,197.943 52.355 C 197.921 52.713,197.870 52.755,197.636 52.609 C 197.481 52.512,197.389 52.378,197.431 52.310 C 197.567 52.090,196.641 49.996,196.457 50.110 C 196.360 50.170,196.331 50.139,196.391 50.042 C 196.522 49.829,195.220 48.064,194.979 48.129 C 194.885 48.154,194.849 48.110,194.898 48.031 C 195.083 47.731,192.603 45.750,192.287 45.945 C 192.192 46.004,192.162 45.975,192.220 45.882 C 192.327 45.709,191.184 45.111,190.745 45.111 C 190.610 45.111,190.500 45.041,190.500 44.954 C 190.500 44.868,190.387 44.841,190.250 44.894 C 190.112 44.946,190.000 44.909,190.000 44.810 C 190.000 44.712,189.892 44.672,189.761 44.723 C 189.629 44.773,189.497 44.740,189.466 44.648 C 189.387 44.412,188.066 44.288,185.750 44.299 C 183.077 44.312,183.031 44.315,182.920 44.495 C 182.866 44.582,182.720 44.613,182.595 44.565 C 182.470 44.517,182.320 44.554,182.262 44.648 C 182.203 44.742,182.046 44.777,181.911 44.725 C 181.777 44.673,181.667 44.712,181.667 44.810 C 181.667 44.909,181.564 44.950,181.438 44.902 C 181.312 44.854,181.096 44.927,180.958 45.066 C 180.820 45.204,180.664 45.275,180.613 45.224 C 180.476 45.087,178.697 46.142,178.514 46.469 C 178.427 46.624,178.312 46.729,178.258 46.703 C 178.063 46.611,177.005 47.540,177.111 47.711 C 177.170 47.807,177.139 47.836,177.040 47.775 C 176.662 47.541,174.174 51.441,174.434 51.861 C 174.481 51.937,174.440 52.000,174.343 52.000 C 174.246 52.000,174.167 52.112,174.167 52.250 C 174.167 52.655,173.878 52.536,173.765 52.083 C 173.707 51.854,173.582 51.667,173.487 51.667 C 173.392 51.667,173.357 51.597,173.410 51.511 C 173.550 51.285,172.805 49.831,172.612 49.951 C 172.522 50.006,172.497 49.972,172.557 49.875 C 172.696 49.651,171.191 47.632,170.981 47.762 C 170.895 47.815,170.846 47.792,170.871 47.712 C 170.896 47.632,170.621 47.307,170.259 46.991 C 169.897 46.675,169.667 46.529,169.747 46.667 C 169.828 46.804,169.657 46.667,169.368 46.362 C 169.079 46.057,168.765 45.856,168.671 45.914 C 168.577 45.972,168.500 45.942,168.500 45.847 C 168.500 45.646,167.511 45.100,167.381 45.230 C 167.333 45.278,167.180 45.204,167.042 45.066 C 166.904 44.927,166.688 44.854,166.562 44.902 C 166.436 44.950,166.333 44.909,166.333 44.810 C 166.333 44.712,166.223 44.673,166.089 44.725 C 165.954 44.777,165.797 44.742,165.738 44.648 C 165.680 44.554,165.530 44.517,165.405 44.565 C 165.280 44.613,165.134 44.582,165.080 44.495 C 164.969 44.315,164.923 44.312,162.250 44.299 C 159.934 44.288,158.613 44.412,158.534 44.648 C 158.503 44.740,158.371 44.773,158.239 44.723 C 158.108 44.672,158.000 44.712,158.000 44.810 C 158.000 44.909,157.887 44.946,157.750 44.894 C 157.612 44.841,157.500 44.885,157.500 44.992 C 157.500 45.099,157.428 45.142,157.339 45.087 C 156.851 44.785,152.833 47.595,153.110 48.044 C 153.170 48.141,153.139 48.169,153.038 48.107 C 152.881 48.010,152.118 48.852,152.213 49.019 C 152.233 49.054,152.218 49.064,152.179 49.040 C 152.082 48.982,151.507 49.873,151.566 49.990 C 151.592 50.041,151.484 50.206,151.325 50.357 C 151.028 50.638,150.722 49.792,150.820 48.958 C 150.839 48.798,150.777 48.667,150.682 48.667 C 150.588 48.667,150.550 48.563,150.599 48.437 C 150.647 48.310,150.488 48.050,150.244 47.858 C 149.736 47.459,134.022 47.298,133.299 47.685 C 132.223 48.261,132.130 53.945,133.188 54.511 C 133.363 54.605,133.580 54.637,133.670 54.581 C 133.760 54.526,133.833 54.560,133.833 54.657 C 133.833 54.777,135.327 54.833,138.500 54.833 C 141.849 54.833,143.167 54.886,143.167 55.021 C 143.167 55.124,142.943 55.649,142.669 56.188 C 142.396 56.726,142.218 57.167,142.275 57.167 C 142.332 57.167,142.182 57.321,141.942 57.510 C 141.703 57.698,141.524 57.939,141.545 58.044 C 141.566 58.149,141.508 58.239,141.417 58.245 C 141.114 58.263,140.826 58.520,140.926 58.682 C 140.980 58.770,140.963 58.822,140.887 58.797 C 140.654 58.721,139.995 59.271,140.126 59.432 C 140.194 59.515,140.184 59.530,140.103 59.464 C 139.979 59.364,138.597 60.037,138.333 60.325 C 138.287 60.376,138.100 60.443,137.917 60.475 C 137.733 60.507,137.546 60.582,137.500 60.642 C 137.454 60.701,137.229 60.770,137.000 60.794 C 136.771 60.818,136.471 60.883,136.333 60.939 C 136.196 60.994,135.896 61.061,135.667 61.086 C 135.438 61.111,134.866 61.175,134.396 61.228 C 133.904 61.284,133.061 61.224,132.408 61.087 C 131.784 60.957,131.212 60.888,131.137 60.935 C 131.062 60.982,131.000 60.932,131.000 60.825 C 131.000 60.718,130.887 60.674,130.750 60.727 C 130.612 60.780,130.500 60.742,130.500 60.644 C 130.500 60.545,130.387 60.508,130.250 60.560 C 130.112 60.613,130.000 60.595,130.000 60.520 C 130.000 60.359,128.653 59.730,128.449 59.796 C 128.372 59.821,128.356 59.765,128.414 59.671 C 128.511 59.515,128.286 59.425,127.946 59.484 C 127.870 59.498,127.851 59.439,127.903 59.355 C 127.993 59.210,127.612 58.962,127.250 58.931 C 127.158 58.923,127.083 58.839,127.083 58.744 C 127.083 58.649,126.750 58.236,126.342 57.827 C 125.935 57.418,125.666 57.196,125.744 57.333 C 125.829 57.482,125.826 57.527,125.735 57.444 C 125.652 57.368,125.582 57.256,125.580 57.194 C 125.571 56.891,124.916 56.031,124.761 56.119 C 124.663 56.175,124.634 56.164,124.695 56.096 C 124.756 56.027,124.560 55.456,124.258 54.827 C 123.392 53.020,123.360 52.878,123.286 50.500 C 123.233 48.816,123.277 48.518,123.779 47.114 C 123.904 46.764,123.963 46.408,123.910 46.322 C 123.857 46.237,123.884 46.167,123.970 46.167 C 124.111 46.167,124.553 45.306,124.522 45.094 C 124.514 45.047,124.693 44.809,124.918 44.566 C 125.143 44.323,125.279 44.048,125.221 43.953 C 125.163 43.859,125.183 43.813,125.266 43.851 C 125.451 43.936,127.816 41.538,127.681 41.403 C 127.627 41.349,127.658 41.327,127.750 41.354 C 127.990 41.423,129.000 40.857,129.000 40.653 C 129.000 40.558,129.075 40.527,129.167 40.583 C 129.258 40.640,129.333 40.602,129.333 40.500 C 129.333 40.398,129.408 40.360,129.500 40.417 C 129.592 40.473,129.667 40.449,129.667 40.362 C 129.667 40.275,129.760 40.211,129.875 40.221 C 130.069 40.237,131.265 39.934,131.833 39.725 C 132.675 39.415,135.111 39.412,136.000 39.719 C 136.863 40.018,138.270 40.405,138.375 40.372 C 138.444 40.351,138.500 40.413,138.500 40.510 C 138.500 40.607,138.575 40.640,138.667 40.583 C 138.758 40.527,138.833 40.558,138.833 40.653 C 138.833 40.857,139.843 41.423,140.083 41.354 C 140.175 41.327,140.196 41.359,140.130 41.425 C 139.752 41.803,142.031 42.873,142.542 42.558 C 142.653 42.489,142.886 42.422,143.060 42.409 C 143.524 42.375,146.564 39.240,146.442 38.922 C 146.388 38.781,146.416 38.667,146.505 38.667 C 147.095 38.667,146.420 36.982,145.537 36.250 C 145.205 35.975,144.993 35.862,145.065 36.000 C 145.137 36.137,145.056 36.079,144.885 35.871 C 144.484 35.379,143.146 34.493,142.969 34.602 C 142.895 34.648,142.833 34.608,142.833 34.513 C 142.833 34.313,141.511 33.600,141.381 33.730 C 141.333 33.778,141.180 33.704,141.042 33.566 C 140.904 33.427,140.688 33.354,140.562 33.402 C 140.436 33.450,140.333 33.429,140.333 33.356 C 140.333 33.185,139.157 32.820,138.972 32.934 C 138.896 32.981,138.833 32.931,138.833 32.824 C 138.833 32.710,138.694 32.664,138.500 32.715 C 138.317 32.763,138.121 32.728,138.065 32.637 C 138.008 32.545,137.821 32.508,137.648 32.553 C 137.475 32.598,137.292 32.568,137.241 32.485 C 137.190 32.403,136.908 32.335,136.616 32.336 C 136.323 32.336,135.221 32.291,134.167 32.236 C 133.112 32.181,132.202 32.184,132.143 32.244 M222.500 33.508 C 222.500 33.590,222.393 33.615,222.262 33.565 C 221.416 33.240,221.420 33.166,221.368 50.159 C 221.316 66.891,221.314 66.830,221.906 67.421 C 222.340 67.855,227.229 68.026,228.084 67.636 C 228.671 67.368,228.690 67.233,228.673 63.292 C 228.663 60.985,228.718 59.667,228.823 59.667 C 228.915 59.667,228.946 59.779,228.894 59.917 C 228.841 60.054,228.862 60.167,228.941 60.167 C 229.019 60.167,229.095 60.364,229.109 60.605 C 229.123 60.846,229.198 61.090,229.275 61.147 C 229.353 61.204,229.443 61.399,229.475 61.582 C 229.563 62.083,229.986 62.833,230.181 62.833 C 230.276 62.833,230.310 62.904,230.256 62.990 C 230.203 63.076,230.292 63.224,230.455 63.318 C 230.617 63.413,230.692 63.492,230.621 63.495 C 230.550 63.498,230.615 63.687,230.764 63.915 C 230.914 64.144,231.115 64.282,231.211 64.223 C 231.306 64.164,231.339 64.189,231.283 64.280 C 231.227 64.370,231.564 64.813,232.031 65.264 C 232.499 65.714,232.817 65.971,232.739 65.835 C 232.661 65.698,232.878 65.867,233.221 66.210 C 233.797 66.786,234.026 66.912,234.387 66.849 C 234.463 66.836,234.484 66.891,234.434 66.971 C 234.337 67.129,235.155 67.567,235.291 67.431 C 235.336 67.386,235.486 67.462,235.625 67.601 C 235.763 67.739,235.979 67.813,236.105 67.765 C 236.231 67.717,236.333 67.758,236.333 67.856 C 236.333 67.955,236.443 67.993,236.578 67.942 C 236.713 67.890,236.870 67.925,236.928 68.019 C 236.986 68.113,237.136 68.150,237.262 68.102 C 237.387 68.054,237.533 68.085,237.586 68.171 C 237.699 68.354,237.749 68.357,240.542 68.360 C 242.876 68.363,243.132 68.350,243.500 68.210 C 243.637 68.158,243.825 68.106,243.917 68.095 C 244.503 68.021,245.167 67.782,245.167 67.644 C 245.167 67.554,245.237 67.523,245.322 67.576 C 245.549 67.716,246.671 67.141,246.550 66.947 C 246.494 66.856,246.526 66.830,246.620 66.888 C 246.979 67.110,250.097 64.458,249.883 64.113 C 249.827 64.022,249.860 63.997,249.956 64.056 C 250.419 64.342,250.807 62.471,250.525 61.314 C 250.337 60.542,245.333 58.140,245.333 58.821 C 245.333 58.930,245.253 58.970,245.154 58.909 C 245.055 58.848,244.509 59.274,243.941 59.857 C 243.372 60.440,242.797 60.941,242.662 60.971 C 242.527 61.001,242.393 61.090,242.364 61.170 C 242.335 61.249,242.204 61.273,242.073 61.223 C 241.941 61.172,241.833 61.198,241.833 61.280 C 241.833 61.442,241.527 61.490,240.500 61.490 C 239.473 61.490,239.167 61.442,239.167 61.280 C 239.167 61.198,239.054 61.174,238.917 61.227 C 238.779 61.280,238.667 61.246,238.667 61.152 C 238.667 61.057,238.600 61.022,238.517 61.073 C 238.435 61.123,238.323 61.048,238.269 60.905 C 238.213 60.760,238.084 60.698,237.975 60.765 C 237.861 60.836,237.827 60.812,237.892 60.707 C 237.953 60.609,237.908 60.485,237.793 60.431 C 237.625 60.353,237.626 60.314,237.795 60.235 C 237.911 60.181,238.098 60.050,238.211 59.943 C 238.324 59.837,238.567 59.724,238.750 59.692 C 238.933 59.660,239.121 59.585,239.167 59.525 C 239.213 59.465,239.400 59.391,239.583 59.360 C 239.767 59.328,239.942 59.234,239.973 59.150 C 240.003 59.067,240.097 59.040,240.181 59.092 C 240.265 59.144,240.333 59.109,240.333 59.015 C 240.333 58.921,240.436 58.883,240.562 58.931 C 240.688 58.980,240.894 58.921,241.020 58.801 C 241.147 58.681,241.400 58.557,241.583 58.525 C 241.767 58.493,241.963 58.393,242.019 58.302 C 242.075 58.212,242.168 58.145,242.227 58.152 C 242.589 58.201,242.836 58.141,243.030 57.958 C 243.151 57.844,243.400 57.724,243.583 57.692 C 243.767 57.660,243.972 57.547,244.039 57.442 C 244.106 57.336,244.163 57.302,244.164 57.366 C 244.168 57.536,245.167 57.160,245.167 56.989 C 245.167 56.909,245.269 56.883,245.395 56.931 C 245.521 56.980,245.728 56.915,245.855 56.788 C 245.982 56.661,246.171 56.585,246.274 56.619 C 246.377 56.653,246.574 56.569,246.711 56.432 C 246.848 56.295,247.007 56.229,247.063 56.286 C 247.120 56.342,247.167 56.304,247.167 56.200 C 247.167 56.096,247.269 56.050,247.395 56.098 C 247.521 56.146,247.728 56.082,247.855 55.955 C 247.982 55.827,248.171 55.751,248.274 55.786 C 248.377 55.820,248.583 55.727,248.731 55.579 C 248.879 55.431,249.000 55.348,249.000 55.396 C 249.000 55.444,249.225 55.404,249.500 55.308 C 249.775 55.212,250.000 55.062,250.000 54.974 C 250.000 54.886,250.069 54.856,250.153 54.908 C 250.410 55.067,251.000 54.155,250.999 53.603 C 250.998 52.893,250.688 51.833,250.482 51.833 C 250.390 51.833,250.357 51.764,250.409 51.679 C 250.533 51.478,250.162 50.667,249.945 50.667 C 249.853 50.667,249.825 50.620,249.882 50.562 C 250.024 50.421,249.535 49.500,249.319 49.500 C 249.224 49.500,249.190 49.430,249.244 49.344 C 249.297 49.258,249.208 49.110,249.045 49.015 C 248.883 48.921,248.808 48.841,248.879 48.838 C 248.950 48.836,248.885 48.646,248.736 48.418 C 248.586 48.190,248.385 48.051,248.289 48.111 C 248.194 48.170,248.164 48.140,248.223 48.044 C 248.512 47.576,244.482 44.619,243.979 44.929 C 243.899 44.979,243.833 44.932,243.833 44.825 C 243.833 44.718,243.726 44.672,243.594 44.723 C 243.463 44.773,243.331 44.743,243.302 44.656 C 243.137 44.161,236.699 44.154,236.534 44.648 C 236.503 44.740,236.371 44.773,236.239 44.723 C 236.108 44.672,236.000 44.727,236.000 44.843 C 236.000 44.960,235.956 45.012,235.902 44.958 C 235.763 44.819,234.833 45.168,234.833 45.359 C 234.833 45.448,234.758 45.473,234.667 45.417 C 234.575 45.360,234.500 45.381,234.500 45.462 C 234.500 45.544,234.400 45.611,234.279 45.611 C 233.665 45.611,230.357 48.634,230.579 48.993 C 230.626 49.069,230.548 49.177,230.405 49.231 C 230.262 49.286,230.192 49.407,230.249 49.499 C 230.306 49.591,230.275 49.667,230.180 49.667 C 229.959 49.667,229.291 50.963,229.411 51.158 C 229.461 51.239,229.420 51.332,229.319 51.366 C 229.218 51.399,229.124 51.631,229.110 51.880 C 229.095 52.129,229.033 52.333,228.971 52.333 C 228.909 52.333,228.823 52.465,228.780 52.625 C 228.738 52.785,228.698 48.679,228.691 43.500 L 228.680 34.083 228.263 33.722 C 227.823 33.340,222.500 33.143,222.500 33.508 M272.168 35.332 C 272.046 35.408,271.850 35.432,271.731 35.386 C 271.613 35.341,271.426 35.359,271.316 35.427 C 271.207 35.495,270.853 35.574,270.531 35.603 C 270.208 35.632,269.873 35.727,269.785 35.815 C 269.698 35.902,269.523 35.934,269.396 35.886 C 269.270 35.837,269.167 35.885,269.167 35.992 C 269.167 36.099,269.102 36.146,269.023 36.098 C 268.832 35.980,267.500 36.508,267.500 36.702 C 267.500 36.785,267.425 36.807,267.333 36.750 C 267.242 36.693,267.167 36.731,267.167 36.833 C 267.167 36.936,267.092 36.973,267.000 36.917 C 266.908 36.860,266.833 36.898,266.833 37.000 C 266.833 37.102,266.758 37.140,266.667 37.083 C 266.575 37.027,266.500 37.064,266.500 37.167 C 266.500 37.269,266.435 37.313,266.355 37.264 C 265.812 36.928,260.682 41.626,261.117 42.062 C 261.175 42.119,261.143 42.167,261.047 42.167 C 260.838 42.167,260.278 42.983,260.278 43.287 C 260.278 43.404,260.211 43.500,260.129 43.500 C 260.047 43.500,260.027 43.575,260.083 43.667 C 260.140 43.758,260.102 43.833,260.000 43.833 C 259.898 43.833,259.860 43.908,259.917 44.000 C 259.973 44.092,259.936 44.167,259.833 44.167 C 259.731 44.167,259.689 44.235,259.741 44.319 C 259.793 44.403,259.762 44.497,259.672 44.527 C 259.472 44.596,258.711 46.734,258.573 47.613 C 258.518 47.963,258.428 48.512,258.373 48.833 C 258.242 49.589,258.241 54.076,258.372 54.833 C 258.428 55.154,258.515 55.673,258.565 55.986 C 258.715 56.910,259.513 59.167,259.690 59.167 C 259.780 59.167,259.807 59.242,259.750 59.333 C 259.693 59.425,259.731 59.500,259.833 59.500 C 259.936 59.500,259.973 59.575,259.917 59.667 C 259.860 59.758,259.898 59.833,260.000 59.833 C 260.102 59.833,260.140 59.908,260.083 60.000 C 260.027 60.092,260.060 60.167,260.157 60.167 C 260.254 60.167,260.324 60.223,260.314 60.292 C 260.258 60.641,260.354 60.840,260.526 60.734 C 260.643 60.662,260.673 60.688,260.603 60.802 C 260.540 60.904,260.641 61.141,260.827 61.327 C 261.014 61.514,261.127 61.667,261.079 61.667 C 261.032 61.667,261.115 61.854,261.264 62.082 C 261.414 62.310,261.615 62.449,261.711 62.389 C 261.806 62.330,261.838 62.358,261.780 62.452 C 261.544 62.833,265.483 66.300,265.876 66.057 C 265.973 65.997,266.003 66.026,265.945 66.122 C 265.842 66.287,266.783 66.788,267.042 66.706 C 267.110 66.684,267.167 66.730,267.167 66.807 C 267.167 67.003,267.992 67.358,268.179 67.242 C 268.264 67.190,268.333 67.224,268.333 67.319 C 268.333 67.501,269.936 68.021,270.675 68.079 C 270.915 68.098,271.192 68.162,271.289 68.223 C 271.501 68.354,271.584 68.357,274.667 68.374 C 277.182 68.387,278.639 68.261,278.892 68.008 C 278.974 67.926,279.136 67.896,279.253 67.941 C 279.371 67.986,279.514 67.946,279.572 67.852 C 279.630 67.758,279.787 67.723,279.922 67.775 C 280.057 67.827,280.167 67.788,280.167 67.690 C 280.167 67.591,280.279 67.554,280.417 67.606 C 280.554 67.659,280.667 67.622,280.667 67.523 C 280.667 67.424,280.769 67.383,280.895 67.431 C 281.021 67.480,281.229 67.421,281.357 67.301 C 281.486 67.181,281.702 67.063,281.837 67.038 C 282.416 66.930,283.316 66.440,283.220 66.284 C 283.162 66.191,283.188 66.160,283.278 66.216 C 283.480 66.340,284.500 65.737,284.500 65.493 C 284.500 65.394,284.572 65.358,284.660 65.413 C 284.862 65.538,287.361 63.180,287.238 62.981 C 287.188 62.900,287.212 62.833,287.292 62.833 C 287.372 62.833,287.438 62.421,287.438 61.917 C 287.438 61.413,287.372 61.000,287.292 61.000 C 287.212 61.000,287.187 60.936,287.235 60.857 C 287.284 60.779,286.744 60.151,286.036 59.462 L 284.748 58.208 283.797 58.208 C 282.837 58.208,281.764 58.823,281.742 59.385 C 281.738 59.494,281.649 59.566,281.544 59.545 C 281.439 59.524,281.208 59.690,281.032 59.914 C 280.855 60.139,280.675 60.286,280.632 60.243 C 280.588 60.199,280.351 60.350,280.105 60.577 C 279.860 60.805,279.604 60.994,279.538 60.998 C 279.213 61.015,278.833 61.207,278.833 61.354 C 278.833 61.445,278.758 61.473,278.667 61.417 C 278.575 61.360,278.500 61.391,278.500 61.485 C 278.500 61.579,278.387 61.613,278.250 61.560 C 278.112 61.508,278.000 61.545,278.000 61.644 C 278.000 61.742,277.887 61.780,277.750 61.727 C 277.612 61.674,277.500 61.712,277.500 61.810 C 277.500 61.909,277.391 61.948,277.258 61.897 C 277.125 61.846,276.926 61.859,276.816 61.927 C 276.297 62.248,274.272 62.287,272.917 62.002 C 272.367 61.886,271.804 61.782,271.667 61.771 C 271.529 61.759,271.313 61.652,271.187 61.532 C 271.060 61.412,270.854 61.354,270.729 61.402 C 270.603 61.450,270.500 61.412,270.500 61.318 C 270.500 61.224,270.425 61.193,270.333 61.250 C 270.242 61.307,270.167 61.261,270.167 61.149 C 270.167 61.036,270.123 60.988,270.069 61.042 C 270.016 61.095,269.826 60.992,269.647 60.813 C 269.468 60.634,269.230 60.540,269.119 60.604 C 269.008 60.668,268.969 60.662,269.033 60.591 C 269.097 60.520,268.789 60.178,268.348 59.829 C 267.908 59.481,267.397 59.005,267.213 58.771 C 267.028 58.536,266.811 58.398,266.730 58.464 C 266.650 58.530,266.631 58.523,266.690 58.449 C 266.749 58.374,266.542 57.890,266.230 57.372 C 265.918 56.854,265.574 56.183,265.465 55.882 C 265.356 55.580,265.202 55.333,265.123 55.333 C 265.045 55.333,265.027 55.258,265.083 55.167 C 265.140 55.075,265.129 54.908,265.059 54.795 C 264.748 54.290,264.748 49.376,265.059 48.872 C 265.129 48.759,265.140 48.592,265.083 48.500 C 265.027 48.408,265.060 48.333,265.157 48.333 C 265.254 48.333,265.333 48.249,265.333 48.146 C 265.333 48.042,265.553 47.525,265.822 46.996 C 266.091 46.466,266.279 45.988,266.239 45.933 C 266.199 45.878,266.214 45.868,266.272 45.911 C 266.331 45.954,266.636 45.652,266.951 45.239 C 267.266 44.827,267.889 44.200,268.336 43.847 C 268.783 43.493,269.097 43.146,269.033 43.075 C 268.969 43.005,269.008 42.999,269.119 43.063 C 269.230 43.127,269.461 43.045,269.633 42.881 C 269.804 42.717,270.050 42.559,270.179 42.528 C 270.308 42.498,270.452 42.423,270.498 42.362 C 270.545 42.300,270.733 42.224,270.917 42.192 C 271.100 42.160,271.287 42.085,271.333 42.025 C 271.379 41.965,271.604 41.897,271.833 41.873 C 272.063 41.849,272.362 41.785,272.500 41.730 C 273.290 41.415,276.293 41.383,277.000 41.682 C 277.046 41.702,277.158 41.736,277.250 41.758 C 277.342 41.780,277.604 41.857,277.833 41.929 C 278.063 42.002,278.279 42.041,278.315 42.016 C 278.350 41.992,278.425 42.038,278.481 42.119 C 278.653 42.366,280.239 43.244,280.417 43.190 C 280.508 43.162,280.534 43.188,280.475 43.248 C 280.345 43.377,281.822 44.768,282.026 44.708 C 282.103 44.685,282.167 44.735,282.167 44.818 C 282.167 44.902,282.504 44.965,282.917 44.959 C 283.329 44.952,283.667 44.872,283.667 44.779 C 283.667 44.687,283.709 44.653,283.760 44.705 C 283.812 44.756,284.131 44.522,284.469 44.184 L 285.083 43.569 284.587 44.159 C 284.314 44.484,284.641 44.216,285.313 43.564 L 286.536 42.378 286.574 41.363 C 286.597 40.727,286.550 40.386,286.447 40.450 C 286.350 40.509,286.335 40.466,286.410 40.345 C 286.489 40.216,286.325 39.916,285.977 39.554 C 285.262 38.809,284.049 37.838,284.245 38.167 C 284.326 38.304,284.157 38.167,283.868 37.862 C 283.579 37.557,283.265 37.356,283.171 37.414 C 283.077 37.472,283.000 37.442,283.000 37.346 C 283.000 37.146,281.344 36.267,281.214 36.398 C 281.166 36.445,281.014 36.371,280.875 36.232 C 280.737 36.094,280.521 36.020,280.395 36.069 C 280.269 36.117,280.167 36.076,280.167 35.977 C 280.167 35.878,280.057 35.840,279.922 35.892 C 279.787 35.943,279.630 35.909,279.572 35.815 C 279.514 35.721,279.364 35.683,279.238 35.731 C 279.113 35.779,278.963 35.742,278.905 35.648 C 278.847 35.554,278.697 35.517,278.572 35.565 C 278.447 35.613,278.299 35.580,278.244 35.491 C 278.190 35.402,277.943 35.325,277.697 35.320 C 277.451 35.315,276.156 35.285,274.820 35.253 C 273.483 35.221,272.290 35.257,272.168 35.332 M288.884 36.268 C 288.656 36.496,288.512 36.790,288.563 36.924 C 288.614 37.058,288.584 37.167,288.495 37.167 C 288.392 37.167,288.333 42.456,288.333 51.755 C 288.333 67.269,288.331 67.219,289.111 67.637 C 289.511 67.851,293.833 67.854,293.833 67.641 C 293.833 67.552,293.912 67.529,294.007 67.588 C 294.249 67.737,294.701 67.329,294.596 67.057 C 294.549 66.934,294.582 66.833,294.669 66.833 C 294.768 66.833,294.828 61.186,294.828 51.740 L 294.828 36.646 294.432 36.250 C 293.807 35.626,289.512 35.639,288.884 36.268 M357.131 36.162 C 356.688 36.520,356.715 36.192,356.688 41.671 L 356.667 45.842 356.167 45.583 C 355.892 45.441,355.667 45.370,355.667 45.424 C 355.667 45.479,355.544 45.402,355.395 45.252 C 355.246 45.103,355.021 45.020,354.895 45.069 C 354.769 45.117,354.667 45.076,354.667 44.977 C 354.667 44.878,354.557 44.840,354.422 44.892 C 354.287 44.943,354.130 44.909,354.072 44.815 C 354.014 44.721,353.864 44.683,353.738 44.731 C 353.613 44.779,353.471 44.755,353.422 44.676 C 353.234 44.371,349.107 44.358,348.919 44.662 C 348.872 44.739,348.683 44.763,348.500 44.715 C 348.317 44.667,348.167 44.709,348.167 44.809 C 348.167 44.908,348.054 44.946,347.917 44.894 C 347.779 44.841,347.667 44.878,347.667 44.977 C 347.667 45.076,347.564 45.117,347.438 45.069 C 347.312 45.020,347.096 45.094,346.958 45.232 C 346.820 45.371,346.660 45.438,346.603 45.381 C 346.546 45.324,346.500 45.370,346.500 45.482 C 346.500 45.594,346.425 45.640,346.333 45.583 C 346.242 45.527,346.167 45.564,346.167 45.667 C 346.167 45.769,346.099 45.811,346.016 45.760 C 345.659 45.539,342.487 48.383,342.688 48.744 C 342.722 48.806,342.617 48.931,342.455 49.022 C 342.292 49.113,342.198 49.250,342.246 49.326 C 342.293 49.403,342.215 49.510,342.072 49.565 C 341.929 49.619,341.859 49.740,341.916 49.832 C 341.973 49.924,341.936 50.000,341.833 50.000 C 341.731 50.000,341.693 50.075,341.750 50.167 C 341.807 50.258,341.769 50.333,341.667 50.333 C 341.564 50.333,341.527 50.408,341.583 50.500 C 341.640 50.592,341.619 50.667,341.537 50.667 C 341.333 50.667,340.972 51.487,341.091 51.679 C 341.143 51.764,341.099 51.833,340.992 51.833 C 340.885 51.833,340.841 51.946,340.894 52.083 C 340.946 52.221,340.925 52.333,340.847 52.333 C 340.433 52.333,340.092 56.697,340.359 58.583 C 340.554 59.963,340.863 61.167,341.022 61.167 C 341.112 61.167,341.140 61.242,341.083 61.333 C 341.027 61.425,341.064 61.500,341.167 61.500 C 341.269 61.500,341.308 61.572,341.254 61.661 C 341.127 61.866,341.783 63.167,342.013 63.167 C 342.108 63.167,342.143 63.237,342.090 63.323 C 342.036 63.409,342.114 63.547,342.261 63.630 C 342.409 63.712,342.520 63.848,342.507 63.932 C 342.452 64.306,344.826 66.722,345.208 66.680 C 345.277 66.673,345.486 66.819,345.673 67.006 C 345.859 67.193,346.084 67.301,346.173 67.246 C 346.261 67.192,346.333 67.231,346.333 67.333 C 346.333 67.436,346.408 67.473,346.500 67.417 C 346.592 67.360,346.667 67.398,346.667 67.500 C 346.667 67.602,346.742 67.640,346.833 67.583 C 346.925 67.527,347.000 67.547,347.000 67.629 C 347.000 67.811,348.167 68.186,348.361 68.066 C 348.437 68.019,348.500 68.059,348.500 68.155 C 348.500 68.358,348.535 68.360,351.490 68.380 C 353.086 68.391,353.748 68.338,353.796 68.196 C 353.832 68.087,353.921 68.035,353.993 68.079 C 354.186 68.198,355.667 67.663,355.667 67.474 C 355.667 67.386,355.742 67.360,355.833 67.417 C 355.925 67.473,356.000 67.428,356.000 67.315 C 356.000 67.203,356.047 67.158,356.105 67.216 C 356.163 67.274,356.349 67.248,356.518 67.157 C 356.753 67.031,356.906 67.073,357.169 67.336 C 357.358 67.524,357.584 67.634,357.673 67.580 C 357.761 67.525,357.833 67.552,357.833 67.639 C 357.833 68.030,362.152 67.830,362.633 67.416 L 363.083 67.029 363.083 51.865 C 363.083 37.248,363.072 36.689,362.769 36.355 C 362.597 36.164,362.390 36.048,362.311 36.097 C 362.232 36.146,362.167 36.111,362.167 36.020 C 362.167 35.682,357.563 35.812,357.131 36.162 M146.000 39.546 C 146.000 39.571,145.381 40.189,144.625 40.921 L 143.250 42.250 144.579 40.875 C 145.814 39.598,146.000 39.424,146.000 39.546 M126.833 42.219 C 126.833 42.248,126.590 42.491,126.292 42.760 L 125.750 43.250 126.240 42.708 C 126.696 42.203,126.833 42.090,126.833 42.219 M305.959 44.428 C 305.891 44.497,305.575 44.544,305.257 44.532 C 304.940 44.520,304.634 44.584,304.578 44.675 C 304.523 44.765,304.410 44.797,304.328 44.746 C 304.120 44.618,302.333 45.155,302.333 45.345 C 302.333 45.430,302.277 45.491,302.208 45.480 C 301.816 45.418,301.461 45.539,301.167 45.833 C 300.983 46.017,300.833 46.126,300.833 46.075 C 300.833 45.888,299.392 46.996,298.729 47.693 C 297.770 48.702,296.986 49.842,297.112 50.047 C 297.170 50.141,297.139 50.169,297.043 50.110 C 296.842 49.986,295.939 52.100,296.090 52.344 C 296.143 52.430,296.099 52.500,295.992 52.500 C 295.885 52.500,295.840 52.610,295.892 52.745 C 295.943 52.879,295.907 53.038,295.812 53.097 C 295.716 53.156,295.675 53.346,295.720 53.519 C 295.765 53.692,295.732 53.876,295.647 53.929 C 295.561 53.982,295.485 54.263,295.478 54.554 C 295.438 56.212,295.459 57.823,295.529 58.333 C 295.737 59.846,295.883 60.500,296.014 60.500 C 296.092 60.500,296.113 60.612,296.060 60.750 C 296.008 60.887,296.052 61.000,296.159 61.000 C 296.266 61.000,296.314 61.063,296.267 61.139 C 296.147 61.333,297.113 63.333,297.326 63.333 C 297.422 63.333,297.488 63.390,297.474 63.458 C 297.415 63.733,297.713 64.158,297.892 64.056 C 297.997 63.996,298.029 64.006,297.963 64.079 C 297.802 64.258,298.483 65.197,298.684 65.073 C 298.770 65.019,298.821 65.063,298.796 65.170 C 298.771 65.277,298.897 65.451,299.077 65.557 C 299.256 65.663,299.530 65.900,299.684 66.083 C 299.978 66.432,301.000 67.087,301.000 66.926 C 301.000 66.875,301.150 66.983,301.333 67.167 C 301.628 67.461,301.983 67.582,302.375 67.520 C 302.444 67.509,302.500 67.583,302.500 67.684 C 302.500 67.786,302.612 67.826,302.750 67.773 C 302.887 67.720,303.000 67.758,303.000 67.856 C 303.000 67.955,303.108 67.994,303.239 67.944 C 303.371 67.893,303.502 67.924,303.531 68.011 C 303.640 68.337,308.024 68.537,309.695 68.292 C 311.020 68.098,313.333 67.162,313.333 66.820 C 313.333 66.725,313.412 66.696,313.508 66.755 C 313.604 66.814,313.956 66.575,314.290 66.223 C 314.625 65.871,314.841 65.696,314.771 65.833 C 314.701 65.971,315.100 65.603,315.658 65.016 C 316.215 64.429,316.641 63.919,316.603 63.881 C 316.566 63.843,316.710 63.624,316.924 63.393 C 317.397 62.883,318.332 60.690,318.400 59.932 C 318.427 59.630,318.506 59.292,318.574 59.181 C 318.986 58.516,318.769 53.186,318.320 52.908 C 318.244 52.861,318.223 52.713,318.275 52.578 C 318.327 52.443,318.282 52.333,318.175 52.333 C 318.068 52.333,318.021 52.267,318.072 52.186 C 318.196 51.984,317.839 51.000,317.641 51.000 C 317.552 51.000,317.527 50.925,317.583 50.833 C 317.640 50.742,317.602 50.667,317.500 50.667 C 317.398 50.667,317.360 50.592,317.417 50.500 C 317.473 50.408,317.436 50.333,317.333 50.333 C 317.231 50.333,317.192 50.261,317.246 50.173 C 317.301 50.084,317.199 49.866,317.020 49.687 C 316.841 49.508,316.723 49.332,316.759 49.297 C 317.224 48.831,312.257 44.885,311.667 45.250 C 311.575 45.307,311.500 45.266,311.500 45.159 C 311.500 45.052,311.387 45.008,311.250 45.060 C 311.112 45.113,311.000 45.092,311.000 45.013 C 311.000 44.865,310.226 44.679,309.083 44.554 C 307.367 44.366,306.072 44.314,305.959 44.428 M320.431 45.143 C 320.371 45.240,320.222 45.280,320.098 45.233 C 319.271 44.915,318.633 56.475,319.317 59.374 C 319.417 59.798,319.409 59.963,319.291 59.891 C 319.178 59.821,319.156 59.952,319.225 60.267 C 319.284 60.533,319.366 61.080,319.406 61.484 C 319.447 61.888,319.541 62.263,319.615 62.317 C 319.689 62.372,319.771 62.604,319.797 62.833 C 319.822 63.063,319.916 63.275,320.006 63.306 C 320.095 63.337,320.128 63.428,320.078 63.509 C 319.957 63.704,320.459 64.667,320.681 64.667 C 320.776 64.667,320.813 64.732,320.764 64.811 C 320.486 65.261,323.125 67.647,323.972 67.710 C 324.171 67.725,324.333 67.805,324.333 67.887 C 324.333 67.969,324.446 67.992,324.583 67.940 C 324.721 67.887,324.833 67.924,324.833 68.023 C 324.833 68.122,324.943 68.160,325.078 68.108 C 325.213 68.057,325.371 68.093,325.430 68.188 C 325.489 68.284,325.679 68.325,325.852 68.280 C 326.025 68.235,326.203 68.258,326.249 68.331 C 326.342 68.482,329.662 68.513,329.909 68.366 C 329.997 68.314,330.293 68.247,330.567 68.217 C 330.842 68.187,331.108 68.107,331.158 68.039 C 331.209 67.972,331.400 67.890,331.583 67.858 C 331.767 67.826,331.972 67.714,332.039 67.608 C 332.106 67.503,332.163 67.475,332.164 67.546 C 332.168 67.718,333.167 67.197,333.167 67.023 C 333.167 66.949,333.275 66.889,333.407 66.889 C 333.540 66.889,333.643 66.933,333.638 66.986 C 333.568 67.632,334.219 67.823,336.500 67.823 C 338.467 67.823,339.236 67.662,339.407 67.215 C 339.730 66.373,339.501 45.760,339.165 45.424 C 338.263 44.522,333.353 44.983,333.456 45.960 C 333.478 46.165,333.425 46.333,333.337 46.333 C 333.240 46.333,333.150 48.797,333.107 52.625 C 333.034 59.073,333.015 59.500,332.809 59.500 C 332.697 59.500,332.536 59.868,332.480 60.250 C 332.466 60.342,332.314 60.516,332.141 60.636 C 331.969 60.757,331.871 60.926,331.924 61.011 C 331.976 61.097,331.935 61.167,331.831 61.167 C 331.563 61.167,331.160 61.604,331.300 61.744 C 331.364 61.808,331.342 61.840,331.250 61.814 C 330.986 61.740,330.333 62.006,330.333 62.188 C 330.333 62.279,330.260 62.308,330.170 62.252 C 330.080 62.197,329.846 62.237,329.650 62.342 C 328.788 62.804,326.678 61.643,326.073 60.374 C 325.631 59.449,325.631 59.447,325.565 52.340 C 325.490 44.352,325.789 45.109,322.682 45.025 C 321.300 44.988,320.501 45.030,320.431 45.143 M344.333 47.052 C 344.333 47.081,344.090 47.325,343.792 47.594 L 343.250 48.083 343.740 47.542 C 344.196 47.037,344.333 46.923,344.333 47.052 M308.151 50.741 C 308.251 50.802,308.408 50.807,308.500 50.750 C 308.592 50.693,308.667 50.717,308.667 50.803 C 308.667 50.988,309.676 51.437,309.917 51.359 C 310.008 51.330,310.032 51.357,309.969 51.420 C 309.905 51.484,310.189 51.825,310.598 52.179 C 311.007 52.533,311.333 52.844,311.322 52.870 C 311.277 52.978,311.730 53.833,311.832 53.833 C 311.894 53.833,311.950 53.927,311.957 54.042 C 311.964 54.156,312.059 54.700,312.169 55.250 C 312.482 56.823,312.141 58.650,311.311 59.852 C 311.145 60.092,311.064 60.347,311.130 60.421 C 311.196 60.494,311.166 60.506,311.064 60.447 C 310.873 60.338,310.366 60.786,310.345 61.083 C 310.339 61.175,310.277 61.253,310.208 61.258 C 310.140 61.262,309.753 61.438,309.349 61.649 C 308.168 62.267,307.103 62.531,306.585 62.334 C 306.340 62.241,306.075 62.204,305.998 62.252 C 305.920 62.300,305.809 62.261,305.750 62.167 C 305.691 62.072,305.574 62.038,305.488 62.090 C 305.403 62.143,305.333 62.112,305.333 62.021 C 305.333 61.839,304.681 61.573,304.417 61.648 C 304.325 61.673,304.306 61.639,304.374 61.571 C 304.493 61.452,303.883 60.920,303.625 60.918 C 303.556 60.917,303.514 60.879,303.531 60.833 C 303.548 60.788,303.328 60.426,303.041 60.030 C 301.825 58.352,301.622 55.506,302.586 53.667 C 302.850 53.163,303.045 52.675,303.019 52.583 C 302.993 52.492,303.020 52.464,303.078 52.522 C 303.226 52.671,304.116 51.787,304.023 51.583 C 303.981 51.492,303.997 51.462,304.059 51.517 C 304.121 51.572,304.627 51.384,305.183 51.100 C 306.175 50.593,307.628 50.417,308.151 50.741 M352.818 50.741 C 352.918 50.802,353.075 50.807,353.167 50.750 C 353.258 50.693,353.333 50.721,353.333 50.812 C 353.333 50.981,353.818 51.195,354.038 51.123 C 354.105 51.101,354.279 51.253,354.425 51.461 C 354.570 51.669,354.771 51.789,354.870 51.727 C 354.972 51.664,355.004 51.692,354.943 51.791 C 354.883 51.887,355.099 52.199,355.423 52.483 C 355.747 52.767,355.970 53.000,355.918 53.000 C 355.867 53.000,355.936 53.216,356.073 53.480 C 356.797 54.879,356.967 57.206,356.448 58.610 C 356.307 58.991,356.236 59.347,356.290 59.402 C 356.345 59.456,356.297 59.500,356.185 59.500 C 356.072 59.500,356.022 59.567,356.073 59.649 C 356.123 59.731,356.048 59.843,355.905 59.898 C 355.762 59.953,355.671 60.054,355.703 60.124 C 355.756 60.240,354.580 61.476,354.406 61.488 C 354.364 61.491,354.096 61.614,353.810 61.762 C 352.821 62.274,351.733 62.517,351.252 62.334 C 351.006 62.241,350.737 62.207,350.653 62.259 C 350.569 62.311,350.500 62.266,350.500 62.159 C 350.500 62.052,350.387 62.008,350.250 62.060 C 350.113 62.113,350.000 62.096,350.000 62.022 C 350.000 61.852,349.141 61.427,348.917 61.485 C 348.825 61.508,348.796 61.482,348.853 61.425 C 348.909 61.368,348.722 61.079,348.436 60.782 C 347.768 60.088,347.148 59.333,347.244 59.333 C 347.285 59.333,347.213 59.035,347.085 58.670 C 346.733 57.673,346.624 56.185,346.835 55.250 C 346.938 54.792,347.034 54.285,347.047 54.125 C 347.060 53.965,347.125 53.833,347.191 53.833 C 347.292 53.833,347.535 53.277,347.555 53.000 C 347.558 52.954,347.733 52.781,347.944 52.615 C 348.155 52.450,348.310 52.228,348.288 52.123 C 348.267 52.018,348.325 51.928,348.417 51.923 C 348.724 51.907,349.333 51.388,349.207 51.250 C 349.139 51.175,349.158 51.154,349.250 51.204 C 349.342 51.254,349.752 51.135,350.161 50.939 C 350.891 50.590,352.393 50.478,352.818 50.741 M162.858 51.239 C 163.284 51.368,163.856 51.589,164.128 51.730 C 164.401 51.871,164.671 51.952,164.729 51.910 C 164.786 51.868,164.799 51.880,164.758 51.936 C 164.716 51.993,164.964 52.274,165.307 52.561 C 165.651 52.849,165.955 53.158,165.984 53.250 C 166.012 53.342,166.167 53.679,166.328 54.000 C 166.870 55.085,167.039 57.051,166.681 58.125 C 166.673 58.148,166.673 58.215,166.681 58.273 C 166.689 58.332,166.620 58.426,166.528 58.483 C 166.435 58.540,166.335 58.690,166.305 58.816 C 166.275 58.943,165.941 59.370,165.563 59.767 C 165.185 60.163,164.922 60.534,164.980 60.591 C 165.037 60.648,165.008 60.674,164.917 60.650 C 164.775 60.612,164.284 60.811,162.833 61.494 C 162.530 61.637,161.015 61.515,160.833 61.333 C 160.616 61.116,159.701 60.684,159.607 60.754 C 159.548 60.798,159.527 60.793,159.561 60.745 C 159.664 60.595,158.427 59.402,158.250 59.480 C 158.158 59.520,158.136 59.495,158.201 59.423 C 158.266 59.351,158.170 59.000,157.988 58.643 C 157.478 57.643,157.315 56.490,157.527 55.379 C 157.628 54.850,157.713 54.323,157.717 54.208 C 157.720 54.094,157.777 54.000,157.845 54.000 C 158.002 54.000,158.741 52.794,158.694 52.613 C 158.674 52.537,158.729 52.519,158.816 52.573 C 158.902 52.626,159.119 52.484,159.298 52.257 C 159.476 52.030,159.668 51.890,159.724 51.946 C 159.780 52.002,159.873 51.925,159.930 51.775 C 159.988 51.625,160.102 51.543,160.184 51.594 C 160.266 51.645,160.333 51.609,160.333 51.515 C 160.333 51.421,160.446 51.387,160.583 51.440 C 160.721 51.492,160.833 51.448,160.833 51.341 C 160.833 51.234,160.896 51.186,160.973 51.233 C 161.075 51.296,162.083 51.100,162.083 51.016 C 162.083 51.009,162.432 51.109,162.858 51.239 M186.750 51.237 C 186.933 51.244,187.121 51.299,187.167 51.358 C 187.213 51.418,187.400 51.493,187.583 51.525 C 187.767 51.557,188.008 51.696,188.120 51.833 C 188.231 51.971,188.325 52.017,188.328 51.936 C 188.331 51.855,188.489 51.987,188.680 52.229 C 188.871 52.472,189.107 52.620,189.206 52.559 C 189.308 52.496,189.337 52.526,189.273 52.630 C 189.211 52.729,189.329 52.928,189.534 53.072 C 189.740 53.216,189.835 53.336,189.745 53.339 C 189.656 53.342,189.729 53.454,189.907 53.589 C 190.085 53.723,190.182 53.833,190.123 53.833 C 190.063 53.833,190.124 54.143,190.257 54.521 C 190.645 55.620,190.571 57.424,190.096 58.445 C 189.875 58.918,189.745 59.362,189.806 59.430 C 189.867 59.498,189.842 59.520,189.750 59.480 C 189.543 59.389,188.340 60.613,188.481 60.771 C 188.537 60.835,188.495 60.836,188.387 60.774 C 188.278 60.712,188.146 60.732,188.093 60.818 C 187.959 61.035,186.341 61.559,185.833 61.550 C 185.343 61.541,185.014 61.435,184.000 60.958 C 183.588 60.764,183.175 60.626,183.083 60.650 C 182.992 60.674,182.963 60.648,183.020 60.591 C 183.078 60.534,182.815 60.163,182.437 59.767 C 182.059 59.370,181.726 58.942,181.696 58.815 C 181.666 58.687,181.577 58.560,181.497 58.531 C 181.417 58.502,181.385 58.390,181.424 58.281 C 181.464 58.172,181.402 57.898,181.287 57.671 C 180.976 57.058,181.200 54.915,181.672 53.989 C 181.880 53.583,182.019 53.241,181.983 53.230 C 181.947 53.219,182.232 52.947,182.617 52.625 C 183.002 52.303,183.284 51.993,183.242 51.936 C 183.201 51.880,183.214 51.868,183.271 51.910 C 183.329 51.952,183.604 51.869,183.882 51.725 C 184.689 51.307,185.722 51.029,186.083 51.130 C 186.267 51.182,186.567 51.230,186.750 51.237 M210.524 51.235 C 210.602 51.187,210.667 51.233,210.667 51.337 C 210.667 51.442,210.754 51.499,210.860 51.463 C 210.966 51.428,211.241 51.572,211.470 51.784 C 211.698 51.996,211.921 52.135,211.964 52.092 C 212.085 51.970,212.778 52.978,213.332 54.083 C 213.911 55.239,214.019 56.932,213.591 58.146 C 213.457 58.524,213.376 58.833,213.409 58.833 C 213.501 58.833,212.665 59.806,211.969 60.511 C 211.631 60.853,211.312 61.090,211.261 61.038 C 211.209 60.987,211.167 61.016,211.167 61.103 C 211.167 61.189,210.968 61.277,210.725 61.297 C 210.482 61.317,210.201 61.398,210.100 61.477 C 209.790 61.718,208.902 61.557,207.886 61.074 C 207.353 60.821,206.842 60.632,206.750 60.654 C 206.658 60.676,206.632 60.646,206.691 60.587 C 206.750 60.528,206.637 60.310,206.441 60.102 C 205.805 59.430,205.184 58.655,205.184 58.534 C 205.184 58.470,205.136 58.267,205.078 58.083 C 204.582 56.526,204.675 55.431,205.422 54.000 C 205.685 53.496,205.883 53.022,205.863 52.946 C 205.842 52.870,205.891 52.849,205.971 52.899 C 206.155 53.012,206.846 52.235,206.695 52.084 C 206.634 52.022,206.658 51.994,206.750 52.020 C 206.842 52.047,207.173 51.932,207.486 51.766 C 208.411 51.273,209.370 51.045,209.899 51.191 C 210.164 51.264,210.445 51.284,210.524 51.235 M241.200 51.681 C 241.044 51.833,240.866 51.929,240.804 51.893 C 240.647 51.804,239.833 52.191,239.833 52.355 C 239.833 52.429,239.731 52.450,239.605 52.402 C 239.479 52.354,239.272 52.418,239.145 52.545 C 239.018 52.673,238.829 52.749,238.726 52.714 C 238.623 52.680,238.426 52.764,238.289 52.901 C 238.152 53.039,237.993 53.104,237.937 53.048 C 237.880 52.991,237.833 53.030,237.833 53.134 C 237.833 53.238,237.731 53.283,237.605 53.235 C 237.479 53.187,237.266 53.258,237.132 53.392 C 236.867 53.657,236.616 53.563,236.528 53.167 C 236.497 53.029,236.518 52.962,236.573 53.017 C 236.628 53.073,237.036 52.773,237.479 52.351 C 237.923 51.929,238.389 51.559,238.516 51.528 C 238.643 51.498,238.785 51.423,238.832 51.362 C 238.878 51.300,239.329 51.224,239.833 51.191 C 240.338 51.159,240.777 51.107,240.810 51.076 C 240.842 51.045,241.008 51.106,241.177 51.212 C 241.466 51.392,241.468 51.420,241.200 51.681 M38.214 57.417 C 38.216 57.875,38.248 58.043,38.286 57.789 C 38.325 57.536,38.324 57.161,38.284 56.956 C 38.244 56.751,38.213 56.958,38.214 57.417 M146.833 63.219 C 146.833 63.248,146.590 63.491,146.292 63.760 L 145.750 64.250 146.240 63.708 C 146.696 63.203,146.833 63.090,146.833 63.219 M153.583 65.000 C 153.941 65.367,154.197 65.667,154.151 65.667 C 154.105 65.667,153.775 65.367,153.417 65.000 C 153.059 64.633,152.803 64.333,152.849 64.333 C 152.895 64.333,153.225 64.633,153.583 65.000 M213.255 68.284 C 213.189 68.632,213.150 68.947,213.166 68.985 C 213.183 69.023,213.076 69.121,212.928 69.204 C 212.780 69.286,212.683 69.405,212.711 69.469 C 212.756 69.568,211.711 70.682,211.618 70.635 C 211.493 70.572,210.833 70.884,210.833 71.006 C 210.833 71.089,210.720 71.113,210.581 71.059 C 210.443 71.006,210.236 71.030,210.123 71.112 C 209.910 71.265,208.658 71.279,208.397 71.130 C 208.234 71.037,207.250 70.787,207.250 70.839 C 207.250 70.856,206.836 70.469,206.330 69.977 C 205.825 69.486,205.435 69.027,205.465 68.959 C 205.494 68.891,205.326 68.657,205.091 68.439 C 204.718 68.093,204.696 68.016,204.915 67.834 C 205.112 67.671,205.167 67.670,205.167 67.831 C 205.167 67.943,205.270 67.996,205.396 67.948 C 205.523 67.899,205.702 67.935,205.795 68.028 C 206.347 68.580,212.333 68.542,212.333 67.986 C 212.333 67.908,212.438 67.884,212.566 67.933 C 212.694 67.982,212.901 67.913,213.025 67.778 C 213.339 67.437,213.392 67.552,213.255 68.284 " stroke="none" fill="#8699b8" fill-rule="evenodd"></path><path id="path2" d="M68.500 25.147 C 68.500 25.229,68.012 25.256,67.417 25.208 C 66.793 25.158,66.333 25.187,66.333 25.277 C 66.333 25.363,66.061 25.401,65.727 25.362 C 65.372 25.321,65.161 25.357,65.218 25.449 C 65.275 25.540,65.100 25.575,64.801 25.531 C 64.499 25.486,64.327 25.521,64.384 25.614 C 64.442 25.707,64.270 25.742,63.968 25.697 C 63.653 25.651,63.492 25.686,63.555 25.787 C 63.616 25.887,63.484 25.919,63.220 25.868 C 62.892 25.806,62.817 25.839,62.918 26.002 C 63.007 26.146,62.986 26.178,62.855 26.097 C 62.569 25.920,61.641 26.157,61.774 26.373 C 61.835 26.471,61.811 26.506,61.720 26.450 C 61.475 26.298,60.329 26.691,60.449 26.885 C 60.507 26.979,60.467 27.000,60.358 26.932 C 60.105 26.775,59.467 26.979,59.590 27.177 C 59.642 27.261,59.556 27.280,59.398 27.220 C 59.205 27.146,59.151 27.173,59.231 27.303 C 59.312 27.433,59.257 27.460,59.065 27.386 C 58.855 27.306,58.815 27.336,58.915 27.497 C 59.004 27.641,58.987 27.678,58.866 27.604 C 58.613 27.447,57.450 27.951,57.580 28.161 C 57.643 28.263,57.571 28.286,57.398 28.220 C 57.189 28.139,57.149 28.169,57.248 28.331 C 57.338 28.476,57.320 28.512,57.196 28.435 C 56.966 28.293,56.289 28.627,56.410 28.823 C 56.458 28.900,56.366 28.952,56.207 28.940 C 56.047 28.927,55.932 29.002,55.952 29.105 C 55.971 29.209,55.859 29.284,55.702 29.272 C 55.545 29.260,55.432 29.335,55.452 29.439 C 55.471 29.543,55.359 29.618,55.202 29.605 C 55.045 29.593,54.937 29.683,54.962 29.804 C 54.988 29.925,54.947 29.987,54.871 29.940 C 54.677 29.820,54.251 30.113,54.246 30.369 C 54.244 30.487,54.127 30.565,53.986 30.542 C 53.845 30.519,53.509 30.742,53.240 31.039 C 52.830 31.490,52.818 31.525,53.167 31.249 L 53.583 30.919 53.179 31.376 C 52.776 31.833,52.555 31.982,52.750 31.667 C 52.807 31.575,52.781 31.500,52.692 31.500 C 52.496 31.500,50.994 33.147,51.046 33.305 C 51.067 33.366,51.035 33.417,50.976 33.417 C 50.730 33.417,50.168 34.073,50.207 34.315 C 50.231 34.458,50.154 34.578,50.036 34.580 C 49.780 34.584,49.487 35.011,49.607 35.205 C 49.653 35.280,49.592 35.321,49.471 35.296 C 49.349 35.271,49.260 35.378,49.272 35.535 C 49.284 35.692,49.209 35.804,49.105 35.785 C 49.002 35.766,48.927 35.878,48.939 36.035 C 48.951 36.192,48.876 36.304,48.772 36.285 C 48.668 36.266,48.594 36.380,48.606 36.540 C 48.619 36.699,48.566 36.791,48.490 36.744 C 48.294 36.623,47.959 37.299,48.101 37.529 C 48.178 37.654,48.143 37.672,47.997 37.582 C 47.836 37.482,47.806 37.522,47.886 37.731 C 47.953 37.905,47.930 37.976,47.827 37.913 C 47.614 37.781,46.942 39.272,47.100 39.528 C 47.178 39.654,47.144 39.672,46.997 39.582 C 46.836 39.482,46.806 39.522,46.886 39.731 C 46.952 39.901,46.929 39.976,46.831 39.915 C 46.681 39.823,46.602 40.088,46.622 40.623 C 46.626 40.737,46.576 40.797,46.511 40.757 C 46.350 40.657,45.828 42.175,45.891 42.561 C 46.032 43.428,46.950 43.409,48.864 42.500 C 52.009 41.007,55.654 40.378,58.675 40.808 C 59.685 40.952,60.113 40.940,60.842 40.746 C 61.341 40.613,61.950 40.503,62.194 40.502 C 62.439 40.501,62.670 40.407,62.708 40.292 C 62.746 40.178,62.921 40.084,63.097 40.084 C 63.274 40.084,63.396 39.985,63.371 39.863 C 63.346 39.741,63.397 39.686,63.485 39.741 C 63.714 39.882,65.170 39.141,65.049 38.945 C 64.994 38.855,65.023 38.828,65.113 38.884 C 65.305 39.002,66.500 38.667,66.500 38.495 C 66.500 38.432,66.699 38.418,66.941 38.464 C 67.233 38.520,67.345 38.487,67.271 38.367 C 67.195 38.244,67.346 38.217,67.746 38.282 C 68.069 38.334,68.333 38.309,68.333 38.227 C 68.333 38.144,68.821 38.078,69.416 38.080 C 70.012 38.082,70.500 38.148,70.500 38.227 C 70.500 38.305,70.762 38.339,71.083 38.302 C 71.404 38.264,71.667 38.302,71.667 38.386 C 71.667 38.470,71.852 38.503,72.078 38.460 C 72.331 38.412,72.450 38.447,72.386 38.550 C 72.322 38.654,72.420 38.683,72.641 38.625 C 72.871 38.565,72.961 38.595,72.891 38.708 C 72.821 38.822,72.910 38.852,73.141 38.792 C 73.339 38.740,73.462 38.760,73.414 38.837 C 73.298 39.025,73.948 39.219,74.191 39.068 C 74.320 38.988,74.340 39.022,74.248 39.169 C 74.149 39.331,74.189 39.361,74.398 39.280 C 74.591 39.206,74.645 39.233,74.565 39.364 C 74.484 39.494,74.539 39.521,74.731 39.447 C 74.893 39.385,74.975 39.405,74.921 39.494 C 74.799 39.691,75.449 40.051,75.674 39.912 C 75.766 39.855,75.821 39.908,75.796 40.029 C 75.771 40.151,75.878 40.240,76.035 40.228 C 76.192 40.216,76.304 40.281,76.285 40.372 C 76.266 40.464,76.382 40.561,76.542 40.588 C 76.703 40.615,76.793 40.570,76.742 40.487 C 76.690 40.404,78.584 38.385,80.949 36.000 C 83.315 33.615,85.275 31.589,85.306 31.497 C 85.337 31.406,85.430 31.374,85.514 31.425 C 85.789 31.596,85.673 31.046,85.385 30.812 C 85.145 30.617,85.124 30.618,85.244 30.817 C 85.340 30.978,85.323 31.013,85.190 30.931 C 85.082 30.865,85.032 30.749,85.079 30.674 C 85.207 30.466,84.708 30.121,84.482 30.261 C 84.363 30.335,84.325 30.314,84.389 30.211 C 84.528 29.987,84.070 29.604,83.837 29.748 C 83.739 29.809,83.679 29.759,83.704 29.637 C 83.729 29.516,83.622 29.427,83.465 29.439 C 83.308 29.451,83.196 29.376,83.215 29.272 C 83.234 29.168,83.120 29.094,82.960 29.106 C 82.801 29.119,82.709 29.066,82.756 28.990 C 82.877 28.794,82.201 28.459,81.971 28.601 C 81.858 28.671,81.828 28.644,81.896 28.533 C 82.038 28.304,81.066 27.773,80.803 27.936 C 80.680 28.012,80.662 27.976,80.752 27.831 C 80.851 27.669,80.811 27.639,80.602 27.720 C 80.445 27.780,80.357 27.763,80.407 27.682 C 80.526 27.490,79.199 26.960,78.963 27.106 C 78.855 27.173,78.830 27.141,78.901 27.026 C 79.011 26.847,78.780 26.768,78.210 26.788 C 78.097 26.792,78.052 26.717,78.111 26.622 C 78.179 26.512,78.086 26.482,77.859 26.542 C 77.629 26.602,77.539 26.572,77.609 26.458 C 77.679 26.345,77.590 26.315,77.359 26.375 C 77.129 26.435,77.039 26.405,77.109 26.292 C 77.179 26.178,77.090 26.148,76.859 26.208 C 76.629 26.268,76.539 26.239,76.609 26.125 C 76.679 26.012,76.591 25.981,76.367 26.039 C 76.174 26.090,75.991 26.058,75.962 25.968 C 75.932 25.878,75.591 25.792,75.204 25.777 C 74.818 25.762,74.501 25.685,74.501 25.606 C 74.500 25.526,74.315 25.497,74.088 25.540 C 73.844 25.586,73.718 25.552,73.778 25.455 C 73.840 25.355,73.643 25.319,73.273 25.362 C 72.939 25.401,72.667 25.363,72.667 25.277 C 72.667 25.187,72.206 25.158,71.581 25.208 C 70.985 25.256,70.455 25.229,70.405 25.148 C 70.286 24.955,68.500 24.955,68.500 25.147 M71.042 47.417 C 71.044 47.783,71.078 47.914,71.118 47.706 C 71.158 47.499,71.156 47.199,71.115 47.040 C 71.073 46.880,71.040 47.050,71.042 47.417 " stroke="none" fill="#a6b5cf" fill-rule="evenodd"></path><path id="path3" d="M62.727 40.250 C 62.674 40.387,62.433 40.501,62.191 40.502 C 61.948 40.503,61.341 40.613,60.842 40.746 C 60.113 40.940,59.685 40.952,58.675 40.808 C 55.654 40.378,52.009 41.007,48.865 42.500 L 47.077 43.349 46.449 43.086 C 46.041 42.916,45.861 42.752,45.937 42.620 C 46.001 42.508,45.873 42.571,45.652 42.760 C 45.431 42.948,44.781 43.499,44.209 43.984 C 43.636 44.469,43.216 44.945,43.276 45.042 C 43.336 45.139,43.310 45.172,43.219 45.116 C 43.048 45.010,42.224 45.984,42.294 46.208 C 42.316 46.277,42.261 46.333,42.173 46.333 C 41.997 46.333,40.708 48.162,40.631 48.520 C 40.605 48.642,40.498 48.835,40.393 48.948 C 38.069 51.467,37.725 60.055,39.756 64.871 C 40.664 67.025,44.667 72.375,44.667 71.435 C 44.667 71.359,44.803 71.465,44.970 71.671 L 45.274 72.046 49.512 67.759 C 51.843 65.400,53.799 63.346,53.858 63.194 C 53.918 63.041,54.123 62.753,54.314 62.552 L 54.661 62.187 54.301 62.073 C 52.060 61.362,50.749 57.734,51.907 55.449 C 53.786 51.740,58.317 51.481,60.775 54.941 C 61.091 55.386,61.478 55.801,61.633 55.863 C 62.087 56.045,63.167 56.017,63.167 55.823 C 63.167 55.726,63.237 55.691,63.323 55.744 C 63.550 55.884,64.687 54.837,64.556 54.608 C 64.496 54.503,64.509 54.474,64.586 54.543 C 64.771 54.711,65.519 54.000,65.386 53.783 C 65.329 53.691,65.358 53.662,65.450 53.719 C 65.666 53.853,66.378 53.104,66.210 52.919 C 66.140 52.843,66.166 52.827,66.267 52.885 C 66.498 53.016,67.216 52.276,67.043 52.086 C 66.974 52.009,67.000 51.994,67.102 52.052 C 67.205 52.111,68.099 51.328,69.118 50.285 L 70.948 48.413 70.978 47.396 C 71.008 46.401,70.992 46.360,70.213 45.489 C 69.197 44.353,68.151 43.405,67.972 43.458 C 67.896 43.481,67.833 43.431,67.833 43.348 C 67.833 43.167,66.343 42.047,66.000 41.970 C 65.870 41.941,65.626 41.796,65.460 41.649 C 65.293 41.502,64.631 41.170,63.988 40.912 C 63.204 40.596,62.848 40.369,62.905 40.221 C 62.951 40.099,62.952 40.000,62.906 40.000 C 62.860 40.000,62.780 40.112,62.727 40.250 " stroke="none" fill="#8699b8" fill-rule="evenodd"></path><path id="path4" d="M54.163 62.712 C 54.027 62.916,53.879 63.171,53.833 63.278 C 53.788 63.385,51.931 65.312,49.708 67.560 C 47.181 70.115,45.667 71.770,45.667 71.975 C 45.667 72.822,49.936 74.818,53.083 75.442 C 54.694 75.762,69.611 75.978,69.167 75.675 C 68.952 75.529,68.959 75.505,69.212 75.503 C 69.490 75.500,69.507 75.128,69.496 69.306 C 69.487 64.403,69.529 63.084,69.700 62.976 C 70.012 62.778,70.376 62.794,62.500 62.669 C 58.512 62.607,55.061 62.507,54.830 62.448 C 54.507 62.366,54.352 62.427,54.163 62.712 " stroke="none" fill="#8699b8" fill-rule="evenodd"></path></g></svg>