<svg id="svg" version="1.1" xmlns="http://www.w3.org/2000/svg" xmlns:xlink="http://www.w3.org/1999/xlink" width="400" height="250" viewBox="0, 0, 400,250"><g id="svgg"><path id="path0" d="M46.800 83.800 C 46.635 83.965,46.500 84.013,46.500 83.907 C 46.500 83.801,46.359 83.863,46.188 84.045 C 45.526 84.744,46.007 93.734,46.768 94.895 C 47.121 95.434,47.481 96.066,47.567 96.299 C 47.653 96.532,48.341 97.015,49.094 97.371 C 49.848 97.728,50.501 98.125,50.545 98.253 C 50.589 98.381,50.887 98.525,51.208 98.574 C 51.529 98.622,51.866 98.771,51.958 98.904 C 52.050 99.037,52.622 99.306,53.230 99.502 C 53.838 99.698,54.598 100.120,54.918 100.440 L 55.500 101.023 55.500 125.522 C 55.500 142.166,55.584 150.118,55.761 150.323 C 55.904 150.489,56.382 151.196,56.823 151.893 C 57.766 153.384,58.423 154.084,58.954 154.162 C 59.165 154.193,59.436 154.394,59.556 154.609 C 59.676 154.824,60.051 155.000,60.387 155.000 C 60.724 155.000,61.000 155.113,61.000 155.250 C 61.000 155.387,61.328 155.500,61.729 155.500 C 62.130 155.500,62.496 155.584,62.542 155.688 C 62.720 156.088,64.257 157.000,64.755 157.000 C 65.043 157.000,65.216 157.103,65.139 157.228 C 64.909 157.599,66.963 157.842,67.384 157.493 C 68.002 156.980,67.929 94.270,67.310 93.601 C 66.822 93.073,65.888 92.500,65.516 92.500 C 65.384 92.500,64.968 92.215,64.592 91.866 C 64.215 91.517,63.763 91.288,63.586 91.355 C 63.409 91.423,63.116 91.343,62.935 91.177 C 62.441 90.724,61.548 90.250,61.189 90.250 C 61.013 90.250,60.730 90.025,60.558 89.750 C 60.385 89.473,59.975 89.250,59.638 89.250 C 59.303 89.250,58.960 89.138,58.875 89.000 C 58.790 88.862,58.473 88.750,58.170 88.750 C 57.868 88.750,57.496 88.551,57.344 88.307 C 57.192 88.064,56.749 87.838,56.360 87.806 C 55.971 87.774,55.590 87.661,55.514 87.556 C 55.260 87.204,54.023 86.500,53.661 86.500 C 53.464 86.500,53.233 86.315,53.146 86.089 C 53.059 85.863,52.917 85.750,52.830 85.837 C 52.742 85.924,52.520 85.870,52.336 85.717 C 52.151 85.564,52.000 85.510,52.000 85.598 C 52.000 85.685,51.552 85.474,51.005 85.128 C 50.458 84.783,49.783 84.500,49.505 84.500 C 49.214 84.500,49.000 84.335,49.000 84.110 C 49.000 83.896,48.888 83.790,48.750 83.875 C 48.612 83.960,48.500 83.934,48.500 83.818 C 48.500 83.483,47.132 83.468,46.800 83.800 M144.125 142.750 C 144.040 142.887,143.759 143.000,143.500 143.000 C 142.750 143.000,142.728 157.087,143.477 157.488 C 144.006 157.771,146.459 157.846,147.105 157.598 C 147.853 157.311,147.683 143.759,146.921 143.044 C 146.307 142.467,144.422 142.269,144.125 142.750 M238.079 142.813 C 237.295 144.032,237.250 144.434,237.250 150.282 C 237.250 156.179,237.347 156.987,238.125 157.559 C 238.504 157.837,241.448 157.786,241.627 157.497 C 242.064 156.790,241.788 143.208,241.329 142.860 C 240.753 142.423,238.351 142.388,238.079 142.813 " stroke="none" fill="#000000" fill-rule="evenodd"></path><path id="path1" d="M45.802 89.065 C 45.751 93.414,45.740 93.499,45.250 93.252 C 44.975 93.113,44.527 92.888,44.253 92.750 C 43.980 92.612,43.628 92.500,43.470 92.500 C 43.312 92.500,42.922 92.219,42.603 91.875 C 42.285 91.531,41.800 91.250,41.527 91.250 C 41.253 91.250,40.960 91.138,40.875 91.000 C 40.790 90.862,40.502 90.750,40.235 90.750 C 39.968 90.750,39.750 90.638,39.750 90.500 C 39.750 90.362,39.542 90.250,39.289 90.250 C 39.035 90.250,38.624 90.025,38.375 89.750 C 37.834 89.152,36.864 89.093,36.652 89.645 C 36.568 89.863,36.500 104.424,36.500 122.003 L 36.500 153.966 37.226 154.483 C 37.625 154.767,38.132 155.000,38.351 155.000 C 38.570 155.000,38.750 155.113,38.750 155.250 C 38.750 155.387,39.075 155.500,39.473 155.500 C 39.871 155.500,40.257 155.656,40.330 155.848 C 40.491 156.267,41.896 157.000,42.538 157.000 C 42.792 157.000,43.000 157.104,43.000 157.230 C 43.000 157.357,43.337 157.534,43.750 157.625 C 44.162 157.716,44.500 157.891,44.500 158.014 C 44.500 158.298,46.101 159.077,47.583 159.515 C 48.278 159.720,48.763 160.024,48.835 160.300 C 48.911 160.587,49.187 160.750,49.602 160.750 C 49.958 160.750,50.250 160.863,50.250 161.000 C 50.250 161.137,50.517 161.250,50.844 161.250 C 51.171 161.250,51.581 161.421,51.755 161.631 C 51.937 161.850,52.267 161.949,52.535 161.864 C 52.872 161.757,53.000 161.842,53.000 162.172 C 53.000 162.778,54.476 163.311,56.250 163.347 L 57.625 163.375 57.692 158.374 L 57.760 153.374 56.880 152.008 C 56.396 151.257,56.000 150.554,56.000 150.446 C 56.000 150.338,55.849 150.250,55.664 150.250 C 55.479 150.250,55.124 150.025,54.875 149.750 C 54.626 149.475,54.222 149.250,53.976 149.250 C 53.730 149.250,53.460 149.137,53.375 149.000 C 53.290 148.863,52.953 148.750,52.625 148.750 C 52.297 148.750,51.956 148.631,51.865 148.485 C 51.775 148.339,51.459 148.112,51.163 147.982 C 50.867 147.851,50.175 147.476,49.625 147.147 L 48.625 146.550 48.561 121.860 C 48.498 97.511,48.491 97.166,47.999 96.821 C 47.724 96.629,47.500 96.363,47.500 96.230 C 47.500 96.098,47.191 95.522,46.813 94.952 C 46.140 93.937,46.122 93.812,45.989 89.269 L 45.853 84.625 45.802 89.065 M79.529 93.340 C 79.324 93.587,79.264 98.779,79.311 112.403 L 79.375 131.125 83.356 131.194 C 86.374 131.246,87.386 131.186,87.540 130.944 C 87.771 130.579,87.822 94.420,87.592 93.563 C 87.406 92.867,80.089 92.665,79.529 93.340 M186.250 93.250 C 186.250 93.388,185.761 93.500,185.164 93.500 C 184.395 93.500,183.945 93.646,183.625 94.000 C 183.376 94.275,182.915 94.500,182.601 94.500 C 182.287 94.500,181.960 94.612,181.875 94.750 C 181.790 94.888,181.550 95.000,181.342 95.000 C 181.134 95.000,180.798 95.166,180.595 95.369 C 180.392 95.573,180.034 95.882,179.800 96.057 C 179.566 96.232,179.067 96.787,178.691 97.291 C 178.315 97.795,177.845 98.369,177.647 98.567 C 177.448 98.766,177.209 99.339,177.115 99.842 C 177.020 100.344,176.844 100.817,176.722 100.893 C 176.434 101.070,176.431 108.000,176.718 108.000 C 176.838 108.000,177.012 108.472,177.104 109.049 C 177.227 109.822,177.532 110.345,178.261 111.039 C 178.805 111.557,179.250 112.136,179.250 112.326 C 179.250 112.734,180.037 113.500,180.457 113.500 C 180.618 113.500,180.750 113.594,180.750 113.708 C 180.750 114.102,183.819 115.500,184.683 115.500 C 185.168 115.500,185.825 115.719,186.182 116.000 C 186.531 116.275,187.189 116.500,187.644 116.500 C 188.099 116.500,188.540 116.612,188.625 116.750 C 188.710 116.888,189.279 117.000,189.890 117.000 C 190.500 117.000,191.000 117.098,191.000 117.219 C 191.000 117.339,191.329 117.503,191.731 117.584 C 193.825 118.002,194.237 121.193,192.329 122.209 C 191.240 122.789,187.000 122.499,187.000 121.844 C 187.000 121.655,186.916 121.498,186.813 121.496 C 186.149 121.482,185.000 119.997,185.000 119.155 C 185.000 118.517,184.889 118.250,184.625 118.250 C 184.419 118.250,184.250 118.138,184.250 118.000 C 184.250 117.405,176.480 117.697,175.942 118.313 C 175.358 118.980,175.476 121.181,176.121 121.653 C 176.329 121.805,176.500 122.220,176.500 122.575 C 176.500 122.930,176.600 123.282,176.722 123.358 C 176.845 123.433,177.021 123.801,177.115 124.175 C 177.209 124.549,177.615 125.170,178.018 125.555 C 178.421 125.940,178.750 126.397,178.750 126.572 C 178.750 126.747,178.982 127.055,179.265 127.257 C 179.549 127.460,180.182 127.991,180.672 128.438 C 181.162 128.884,181.764 129.250,182.011 129.250 C 182.257 129.250,182.496 129.338,182.542 129.446 C 182.793 130.036,184.618 130.750,185.875 130.750 C 186.615 130.750,187.290 130.863,187.375 131.000 C 187.460 131.138,188.586 131.250,189.890 131.250 C 191.297 131.250,192.250 131.149,192.250 131.000 C 192.250 130.861,192.924 130.750,193.773 130.750 C 194.918 130.750,195.454 130.626,195.932 130.250 C 196.281 129.975,196.777 129.750,197.034 129.750 C 197.290 129.750,197.500 129.633,197.500 129.489 C 197.500 129.346,197.647 129.261,197.827 129.302 C 198.183 129.381,199.750 127.734,199.750 127.279 C 199.750 127.126,199.975 127.000,200.250 127.000 C 200.583 127.000,200.750 126.833,200.750 126.500 C 200.750 126.225,200.863 126.000,201.000 126.000 C 201.137 126.000,201.250 125.770,201.250 125.490 C 201.250 125.209,201.475 124.738,201.750 124.442 C 202.672 123.453,202.392 115.012,201.438 115.002 C 201.334 115.001,201.250 114.775,201.250 114.500 C 201.250 114.225,201.137 114.000,201.000 114.000 C 200.863 114.000,200.750 113.708,200.750 113.352 C 200.750 112.940,200.587 112.661,200.304 112.587 C 200.059 112.523,199.713 112.140,199.534 111.737 C 199.356 111.334,198.836 110.827,198.378 110.610 C 197.920 110.392,197.349 109.998,197.109 109.732 C 196.869 109.467,196.359 109.250,195.976 109.250 C 195.593 109.250,195.210 109.138,195.125 109.000 C 195.040 108.862,194.699 108.750,194.368 108.750 C 194.036 108.750,193.365 108.525,192.875 108.250 C 192.385 107.975,191.664 107.750,191.271 107.750 C 190.878 107.750,190.235 107.582,189.841 107.377 C 189.447 107.171,188.759 107.002,188.313 107.002 C 187.866 107.001,187.500 106.888,187.500 106.750 C 187.500 106.612,187.310 106.500,187.078 106.500 C 185.302 106.500,184.363 104.205,185.624 102.944 C 186.494 102.074,191.000 101.729,191.000 102.533 C 191.000 102.652,191.208 102.750,191.462 102.750 C 192.171 102.750,193.000 103.608,193.000 104.342 L 193.000 105.000 197.125 105.000 C 200.625 105.000,201.250 105.057,201.250 105.375 C 201.250 105.581,201.479 105.979,201.758 106.258 C 202.037 106.537,202.332 107.100,202.414 107.508 C 202.496 107.916,202.661 108.250,202.781 108.250 C 202.902 108.250,203.000 108.750,203.000 109.360 C 203.000 109.971,203.113 110.540,203.250 110.625 C 203.387 110.710,203.500 111.097,203.500 111.486 C 203.500 111.981,203.649 112.231,204.000 112.322 C 204.361 112.417,204.500 112.663,204.500 113.212 C 204.500 113.629,204.613 114.040,204.750 114.125 C 204.887 114.210,205.000 114.716,205.000 115.250 C 205.000 115.784,205.113 116.290,205.250 116.375 C 205.387 116.460,205.500 116.749,205.500 117.017 C 205.500 117.285,205.725 117.698,206.000 117.933 C 206.286 118.178,206.500 118.670,206.500 119.085 C 206.500 119.925,207.277 122.250,207.559 122.250 C 207.664 122.250,207.750 122.536,207.750 122.885 C 207.750 123.235,207.975 123.762,208.250 124.058 C 208.569 124.400,208.750 124.940,208.750 125.547 C 208.750 126.071,208.863 126.500,209.000 126.500 C 209.137 126.500,209.250 126.786,209.250 127.135 C 209.250 127.485,209.475 128.012,209.750 128.308 C 211.050 129.703,210.097 132.250,208.275 132.250 C 207.750 132.250,206.798 132.322,206.160 132.409 L 205.000 132.568 205.000 136.139 L 205.000 139.710 206.641 139.886 C 208.945 140.133,213.939 139.911,214.304 139.546 C 214.467 139.383,214.803 139.250,215.050 139.250 C 215.298 139.250,215.500 139.081,215.500 138.875 C 215.500 138.669,215.672 138.500,215.881 138.500 C 216.105 138.500,216.325 138.190,216.412 137.750 C 216.495 137.338,216.661 137.000,216.781 137.000 C 216.902 137.000,217.000 136.675,217.000 136.277 C 217.000 135.864,217.161 135.492,217.375 135.410 C 217.581 135.330,217.750 135.093,217.750 134.882 C 217.750 134.671,217.975 134.078,218.250 133.565 C 218.525 133.052,218.750 132.321,218.750 131.941 C 218.750 131.561,218.863 131.250,219.000 131.250 C 219.137 131.250,219.250 130.912,219.250 130.500 C 219.250 130.088,219.363 129.750,219.500 129.750 C 219.637 129.750,219.750 129.304,219.750 128.759 C 219.750 128.023,219.879 127.699,220.250 127.500 C 220.602 127.311,220.750 126.977,220.750 126.366 C 220.750 125.890,220.863 125.500,221.000 125.500 C 221.137 125.500,221.250 125.221,221.250 124.881 C 221.250 124.541,221.475 123.894,221.749 123.444 C 222.024 122.993,222.249 122.437,222.249 122.208 C 222.250 121.978,222.438 121.416,222.667 120.958 C 222.897 120.500,223.178 119.930,223.292 119.691 C 223.407 119.452,223.500 118.918,223.500 118.503 C 223.500 118.083,223.721 117.529,224.000 117.250 C 224.275 116.975,224.500 116.469,224.500 116.125 C 224.500 115.781,224.613 115.500,224.750 115.500 C 224.887 115.500,225.000 115.169,225.000 114.765 C 225.000 114.360,225.113 113.960,225.250 113.875 C 225.387 113.790,225.500 113.304,225.500 112.795 C 225.500 112.141,225.646 111.779,226.000 111.558 C 226.472 111.263,226.500 111.308,226.500 112.358 C 226.500 112.970,226.600 113.532,226.722 113.607 C 226.844 113.683,227.017 114.139,227.108 114.622 C 227.199 115.105,227.356 115.500,227.457 115.500 C 227.559 115.500,227.827 115.813,228.053 116.195 C 229.118 117.999,230.687 119.250,231.883 119.250 C 232.199 119.250,232.496 119.359,232.542 119.492 C 232.588 119.625,233.019 119.761,233.500 119.794 C 233.997 119.828,234.516 120.047,234.702 120.302 C 234.939 120.627,235.364 120.750,236.249 120.750 C 236.921 120.750,237.540 120.862,237.625 121.000 C 237.710 121.138,238.287 121.250,238.908 121.250 C 239.912 121.250,240.750 121.648,240.750 122.125 C 240.750 122.903,236.569 123.468,236.125 122.750 C 236.040 122.612,235.752 122.500,235.485 122.500 C 235.193 122.500,234.997 122.326,234.992 122.063 C 234.950 119.769,225.750 119.360,225.750 121.651 C 225.750 121.852,225.919 122.080,226.125 122.160 C 226.388 122.260,226.500 122.671,226.500 123.532 C 226.500 124.812,227.136 126.133,228.218 127.101 C 228.510 127.363,228.750 127.710,228.750 127.872 C 228.750 128.033,229.059 128.325,229.438 128.520 C 229.816 128.715,230.343 129.072,230.610 129.313 C 230.876 129.553,231.270 129.753,231.485 129.756 C 231.699 129.759,232.156 129.981,232.500 130.250 C 232.966 130.614,233.523 130.740,234.688 130.744 C 235.559 130.748,236.250 130.861,236.250 131.000 C 236.250 131.146,237.078 131.250,238.235 131.250 C 239.327 131.250,240.290 131.137,240.375 131.000 C 240.460 130.863,241.131 130.750,241.866 130.750 C 243.110 130.750,244.796 130.138,245.657 129.375 C 245.812 129.238,246.178 128.960,246.469 128.757 C 246.761 128.555,247.000 128.306,247.000 128.203 C 247.000 128.101,247.394 127.623,247.875 127.142 C 248.414 126.602,248.750 126.024,248.750 125.633 C 248.750 125.285,248.863 125.000,249.000 125.000 C 249.137 125.000,249.250 125.173,249.250 125.385 C 249.250 125.597,249.475 126.012,249.750 126.308 C 250.025 126.603,250.250 127.050,250.250 127.301 C 250.250 128.182,251.356 129.750,251.979 129.750 C 252.199 129.750,252.520 129.975,252.692 130.250 C 252.929 130.629,253.275 130.750,254.127 130.750 C 254.745 130.750,255.250 130.863,255.250 131.000 C 255.250 131.157,256.877 131.250,259.631 131.250 L 264.012 131.250 264.256 130.609 C 264.390 130.256,264.500 128.633,264.500 127.002 C 264.500 123.166,264.349 123.000,260.870 123.000 C 257.991 123.000,258.186 123.439,258.011 116.562 L 257.875 111.249 260.929 111.250 C 264.642 111.250,264.500 111.404,264.500 107.375 C 264.500 103.346,264.642 103.500,260.929 103.501 L 257.875 103.501 257.954 100.851 C 258.064 97.183,258.140 97.250,253.827 97.250 C 251.169 97.250,250.356 97.333,249.866 97.654 L 249.250 98.058 249.250 108.794 C 249.250 115.887,249.165 119.477,249.000 119.375 C 248.863 119.290,248.750 118.942,248.750 118.602 C 248.750 118.228,248.403 117.637,247.875 117.108 C 247.394 116.627,247.000 116.117,247.000 115.974 C 247.000 115.636,246.361 115.000,246.021 115.000 C 245.773 115.000,245.131 114.540,244.365 113.813 C 244.184 113.641,243.697 113.500,243.283 113.500 C 242.868 113.500,242.460 113.388,242.375 113.250 C 242.290 113.112,241.559 113.000,240.750 113.000 C 239.941 113.000,239.216 112.898,239.139 112.773 C 239.062 112.649,238.437 112.469,237.750 112.375 C 237.062 112.280,236.500 112.095,236.500 111.964 C 236.500 111.832,236.162 111.606,235.750 111.463 C 234.905 111.168,234.749 110.750,235.485 110.750 C 235.752 110.750,236.040 110.638,236.125 110.500 C 236.210 110.362,236.660 110.250,237.125 110.250 C 237.590 110.250,238.040 110.362,238.125 110.500 C 238.210 110.638,238.498 110.750,238.765 110.750 C 239.083 110.750,239.250 110.922,239.250 111.250 C 239.250 111.528,239.417 111.750,239.625 111.750 C 239.831 111.750,240.000 111.865,240.000 112.006 C 240.000 112.173,241.450 112.238,244.182 112.194 L 248.363 112.125 248.605 111.439 C 248.800 110.881,248.743 110.613,248.298 110.011 C 247.997 109.604,247.750 109.049,247.750 108.778 C 247.750 108.507,247.581 108.117,247.375 107.911 C 247.169 107.704,247.000 107.246,247.000 106.893 C 247.000 106.539,246.887 106.250,246.750 106.250 C 246.613 106.250,246.500 106.102,246.500 105.920 C 246.500 105.503,245.363 104.500,244.890 104.500 C 244.694 104.500,244.462 104.275,244.375 104.000 C 244.288 103.725,244.006 103.500,243.748 103.500 C 243.490 103.500,243.210 103.388,243.125 103.250 C 243.040 103.112,242.593 103.000,242.131 103.000 C 241.669 103.000,241.246 102.862,241.190 102.694 C 241.047 102.267,233.699 102.277,233.557 102.704 C 233.503 102.867,233.147 103.000,232.768 103.000 C 231.934 103.000,230.515 103.671,230.330 104.152 C 230.257 104.344,229.984 104.500,229.723 104.500 C 229.463 104.500,229.250 104.612,229.250 104.750 C 229.250 104.888,229.137 105.000,229.000 105.000 C 228.863 105.000,228.750 104.789,228.750 104.531 C 228.750 103.574,228.195 103.454,223.961 103.488 C 219.450 103.524,219.250 103.590,219.250 105.031 C 219.250 105.564,219.137 106.000,219.000 106.000 C 218.863 106.000,218.750 106.367,218.750 106.815 C 218.750 107.359,218.584 107.733,218.250 107.942 C 217.966 108.119,217.750 108.525,217.750 108.881 C 217.750 109.225,217.646 109.702,217.518 109.941 C 217.233 110.475,216.500 112.862,216.500 113.258 C 216.500 113.416,216.275 113.832,216.000 114.182 C 215.725 114.531,215.496 115.112,215.492 115.471 C 215.483 116.180,214.926 117.093,214.663 116.829 C 214.573 116.740,214.500 116.348,214.500 115.958 C 214.500 115.569,214.275 115.025,214.000 114.750 C 213.725 114.475,213.500 113.969,213.500 113.625 C 213.500 113.281,213.402 113.000,213.282 113.000 C 213.162 113.000,212.990 112.442,212.900 111.760 C 212.810 111.078,212.626 110.453,212.493 110.371 C 212.359 110.288,212.247 110.030,212.244 109.798 C 212.241 109.565,212.019 109.094,211.750 108.750 C 211.481 108.406,211.259 107.822,211.256 107.452 C 211.253 107.082,211.137 106.710,211.000 106.625 C 210.863 106.540,210.750 105.996,210.750 105.416 C 210.750 103.638,210.399 103.500,205.890 103.500 L 202.037 103.500 201.643 102.712 C 201.427 102.278,201.250 101.547,201.250 101.087 C 201.250 100.626,201.137 100.250,201.000 100.250 C 200.863 100.250,200.750 100.026,200.750 99.752 C 200.750 99.478,200.525 99.114,200.250 98.942 C 199.975 98.770,199.750 98.516,199.749 98.377 C 199.749 98.001,198.405 96.500,198.069 96.500 C 197.909 96.500,197.579 96.162,197.335 95.750 C 197.012 95.202,196.704 95.000,196.196 95.000 C 195.813 95.000,195.500 94.888,195.500 94.750 C 195.500 94.612,195.244 94.500,194.930 94.500 C 194.617 94.500,194.198 94.275,194.000 94.000 C 193.751 93.654,193.353 93.500,192.710 93.500 C 192.198 93.500,191.710 93.388,191.625 93.250 C 191.538 93.109,190.331 93.000,188.860 93.000 C 187.287 93.000,186.250 93.099,186.250 93.250 M116.652 97.645 C 116.568 97.863,116.500 104.356,116.500 112.075 C 116.500 127.169,116.546 127.745,117.822 128.750 C 118.085 128.956,118.644 129.491,119.065 129.938 C 119.700 130.612,120.015 130.750,120.915 130.750 C 121.512 130.750,122.000 130.863,122.000 131.000 C 122.000 131.380,130.568 131.332,130.950 130.950 C 131.154 130.746,131.250 129.556,131.250 127.229 C 131.250 122.963,131.283 123.000,127.509 123.000 L 125.000 123.000 125.000 117.133 L 125.000 111.265 128.063 111.195 L 131.125 111.125 131.195 107.659 C 131.283 103.292,131.450 103.500,127.844 103.500 L 125.000 103.500 125.000 100.779 C 125.000 97.202,125.064 97.250,120.286 97.250 C 117.341 97.250,116.780 97.311,116.652 97.645 M141.000 102.418 C 140.381 102.480,139.768 102.637,139.637 102.766 C 139.507 102.895,139.148 103.000,138.840 103.000 C 138.532 103.000,138.210 103.112,138.125 103.250 C 138.040 103.388,137.703 103.500,137.377 103.500 C 137.003 103.500,136.725 103.685,136.625 104.000 C 136.538 104.275,136.288 104.500,136.069 104.500 C 135.223 104.500,133.000 107.237,133.000 108.279 C 133.000 108.538,132.887 108.750,132.750 108.750 C 132.613 108.750,132.500 108.883,132.500 109.046 C 132.500 109.209,132.247 109.612,131.938 109.941 C 131.188 110.739,131.047 122.317,131.776 123.161 C 132.279 123.743,133.000 125.217,133.000 125.663 C 133.000 125.849,133.113 126.000,133.250 126.000 C 133.387 126.000,133.500 126.225,133.500 126.500 C 133.500 126.833,133.667 127.000,134.000 127.000 C 134.278 127.000,134.500 127.167,134.500 127.375 C 134.500 127.581,134.613 127.750,134.750 127.750 C 134.887 127.750,135.004 127.891,135.008 128.063 C 135.030 128.940,138.663 130.750,140.400 130.750 C 141.143 130.750,141.750 130.863,141.750 131.000 C 141.750 131.147,142.625 131.250,143.875 131.250 C 145.125 131.250,146.000 131.147,146.000 131.000 C 146.000 130.861,146.667 130.750,147.500 130.750 C 148.667 130.750,149.111 130.639,149.500 130.250 C 149.775 129.975,150.169 129.750,150.375 129.750 C 150.581 129.750,150.750 129.637,150.750 129.500 C 150.750 129.363,150.930 129.250,151.151 129.250 C 151.650 129.250,154.500 126.372,154.500 125.869 C 154.500 125.666,154.613 125.500,154.750 125.500 C 154.887 125.500,155.000 125.162,155.000 124.750 C 155.000 124.338,155.113 124.000,155.250 124.000 C 155.387 124.000,155.500 123.647,155.500 123.215 C 155.500 122.783,155.675 122.302,155.890 122.145 C 156.199 121.919,156.226 121.720,156.021 121.180 L 155.762 120.500 152.287 120.500 C 148.268 120.500,147.319 120.639,147.124 121.255 C 146.723 122.516,145.778 123.000,143.716 123.000 C 142.572 123.000,141.750 122.895,141.750 122.750 C 141.750 122.612,141.525 122.500,141.250 122.500 C 140.892 122.500,140.750 122.333,140.750 121.914 C 140.750 121.591,140.522 121.121,140.244 120.869 C 139.347 120.058,139.753 120.005,147.750 119.895 C 152.081 119.835,155.822 119.709,156.063 119.616 C 156.860 119.307,156.649 111.000,155.844 111.000 C 155.618 111.000,155.500 110.701,155.500 110.125 C 155.500 109.644,155.387 109.250,155.250 109.250 C 155.113 109.250,155.000 109.025,155.000 108.750 C 155.000 108.475,154.887 108.250,154.750 108.250 C 154.613 108.250,154.500 108.030,154.500 107.762 C 154.500 107.494,154.106 106.892,153.625 106.424 C 153.144 105.957,152.750 105.445,152.750 105.287 C 152.750 105.129,152.591 105.000,152.396 105.000 C 152.202 105.000,151.724 104.662,151.335 104.250 C 150.945 103.838,150.429 103.500,150.188 103.500 C 149.947 103.500,149.750 103.388,149.750 103.250 C 149.750 103.112,149.379 103.000,148.925 103.000 C 148.471 103.000,147.991 102.891,147.858 102.758 C 147.585 102.485,142.720 102.244,141.000 102.418 M274.813 102.419 C 274.091 102.478,273.500 102.633,273.500 102.763 C 273.500 102.893,273.180 103.000,272.788 103.000 C 271.938 103.000,270.516 103.666,270.330 104.152 C 270.257 104.344,270.032 104.500,269.830 104.500 C 269.355 104.500,268.750 105.111,268.750 105.590 C 268.750 105.797,268.521 106.039,268.241 106.128 C 267.688 106.303,266.500 108.004,266.500 108.620 C 266.500 108.829,266.275 109.225,266.000 109.500 C 265.722 109.778,265.500 110.333,265.500 110.750 C 265.500 111.162,265.387 111.500,265.250 111.500 C 265.091 111.500,265.000 113.370,265.000 116.610 C 265.000 119.747,265.097 121.780,265.250 121.875 C 265.387 121.960,265.500 122.359,265.500 122.763 C 265.500 123.225,265.685 123.611,266.000 123.808 C 266.275 123.980,266.500 124.301,266.500 124.522 C 266.500 125.635,269.426 129.250,270.327 129.250 C 270.560 129.250,270.750 129.363,270.750 129.500 C 270.750 129.637,270.891 129.753,271.063 129.756 C 271.234 129.759,271.656 129.981,272.000 130.250 C 272.436 130.591,273.021 130.741,273.938 130.744 C 274.659 130.747,275.250 130.863,275.250 131.000 C 275.250 131.148,276.167 131.250,277.500 131.250 C 278.833 131.250,279.750 131.148,279.750 131.000 C 279.750 130.862,280.404 130.750,281.211 130.750 C 282.355 130.750,282.771 130.641,283.125 130.250 C 283.374 129.975,283.827 129.750,284.133 129.750 C 284.442 129.750,285.117 129.325,285.657 128.790 C 288.480 125.989,289.250 124.795,289.250 123.212 C 289.250 122.683,289.363 122.250,289.500 122.250 C 289.850 122.250,289.813 121.163,289.450 120.800 C 288.465 119.815,281.420 120.563,280.846 121.713 C 279.872 123.669,274.500 123.392,274.500 121.386 C 274.500 121.174,274.275 120.775,274.000 120.500 C 273.725 120.225,273.500 119.972,273.501 119.938 C 273.501 119.903,277.228 119.875,281.783 119.875 L 290.065 119.875 289.944 115.674 C 289.867 113.005,289.719 111.369,289.536 111.186 C 289.379 111.029,289.250 110.416,289.250 109.825 C 289.250 109.234,289.152 108.750,289.031 108.750 C 288.911 108.750,288.745 108.412,288.663 108.000 C 288.580 107.588,288.359 107.250,288.171 107.250 C 287.984 107.250,287.714 106.994,287.571 106.681 C 287.144 105.743,285.985 104.500,285.538 104.500 C 285.308 104.500,284.980 104.275,284.808 104.000 C 284.636 103.725,284.278 103.500,284.013 103.500 C 283.747 103.500,283.460 103.388,283.375 103.250 C 283.290 103.112,282.899 103.000,282.506 103.000 C 282.113 103.000,281.754 102.895,281.708 102.766 C 281.613 102.499,276.792 102.256,274.813 102.419 M342.250 102.419 C 341.631 102.481,341.018 102.637,340.887 102.766 C 340.757 102.895,340.352 103.000,339.988 103.000 C 339.164 103.000,337.846 103.640,337.657 104.131 C 337.579 104.334,337.353 104.500,337.153 104.500 C 336.139 104.500,334.500 107.056,334.500 108.637 C 334.500 109.497,334.398 109.749,334.000 109.875 C 333.599 110.002,333.500 110.253,333.500 111.140 C 333.500 111.975,333.622 112.322,334.000 112.558 C 334.397 112.806,334.500 113.141,334.500 114.185 C 334.500 114.908,334.613 115.500,334.750 115.500 C 334.887 115.500,335.000 115.697,335.000 115.938 C 335.001 116.476,337.103 118.520,338.125 118.975 C 338.538 119.158,339.070 119.408,339.309 119.529 C 339.548 119.651,340.114 119.750,340.566 119.750 C 341.103 119.750,341.515 119.924,341.750 120.250 C 342.031 120.640,342.397 120.750,343.415 120.750 C 344.133 120.750,344.790 120.862,344.875 121.000 C 344.960 121.138,345.481 121.250,346.033 121.250 C 346.923 121.250,347.750 121.672,347.750 122.125 C 347.750 122.213,347.589 122.446,347.393 122.643 C 346.973 123.063,343.250 123.159,343.250 122.750 C 343.250 122.612,343.032 122.500,342.767 122.500 C 342.425 122.500,342.260 122.298,342.204 121.813 C 342.041 120.397,335.408 119.446,333.860 120.617 C 333.593 120.819,333.303 120.988,333.216 120.992 C 333.128 120.996,333.013 119.012,332.960 116.581 C 332.891 113.383,332.779 112.135,332.557 112.061 C 332.388 112.004,332.250 111.575,332.250 111.106 C 332.250 110.525,332.091 110.155,331.750 109.942 C 331.451 109.755,331.250 109.359,331.250 108.955 C 331.250 108.583,331.137 108.210,331.000 108.125 C 330.863 108.040,330.750 107.696,330.750 107.360 C 330.750 107.025,330.652 106.750,330.531 106.750 C 330.411 106.750,329.784 106.244,329.138 105.625 C 328.493 105.006,327.774 104.500,327.542 104.500 C 327.310 104.500,326.980 104.275,326.808 104.000 C 326.611 103.685,326.225 103.500,325.763 103.500 C 325.359 103.500,324.960 103.388,324.875 103.250 C 324.782 103.099,323.044 103.000,320.500 103.000 C 317.956 103.000,316.218 103.099,316.125 103.250 C 316.040 103.388,315.641 103.500,315.237 103.500 C 314.775 103.500,314.389 103.685,314.192 104.000 C 314.020 104.275,313.723 104.500,313.532 104.500 C 313.340 104.500,312.974 104.742,312.717 105.038 C 312.460 105.334,312.250 105.447,312.250 105.288 C 312.250 105.130,312.053 104.999,311.813 104.998 C 311.572 104.996,311.109 104.659,310.784 104.248 C 310.460 103.836,309.988 103.500,309.737 103.500 C 309.485 103.500,309.210 103.388,309.125 103.250 C 309.035 103.104,307.622 103.000,305.735 103.000 C 303.745 103.000,302.500 103.096,302.500 103.250 C 302.500 103.388,302.175 103.500,301.777 103.500 C 301.338 103.500,300.992 103.661,300.897 103.909 C 300.752 104.287,300.704 104.286,300.280 103.902 C 299.887 103.546,299.283 103.496,296.098 103.556 L 292.375 103.625 292.303 116.625 C 292.264 123.775,292.297 129.991,292.377 130.438 L 292.523 131.250 296.378 131.250 C 301.230 131.250,300.750 132.302,300.750 121.676 L 300.750 113.068 301.409 112.409 C 301.772 112.047,302.222 111.750,302.409 111.750 C 302.597 111.750,302.750 111.638,302.750 111.500 C 302.750 111.361,303.412 111.250,304.235 111.250 C 305.052 111.250,305.790 111.362,305.875 111.500 C 305.960 111.638,306.239 111.750,306.495 111.750 C 306.809 111.750,307.014 111.994,307.125 112.500 C 307.216 112.912,307.393 113.250,307.520 113.250 C 307.655 113.250,307.750 116.671,307.750 121.575 C 307.750 127.707,307.832 130.079,308.063 130.578 L 308.375 131.256 312.375 131.191 L 316.375 131.125 316.441 123.009 C 316.481 118.102,316.605 114.795,316.754 114.646 C 316.889 114.511,317.000 114.065,317.000 113.655 C 317.000 112.251,318.470 111.250,320.531 111.250 C 321.510 111.250,322.250 111.358,322.250 111.500 C 322.250 111.638,322.400 111.750,322.583 111.750 C 323.033 111.750,323.435 112.643,323.588 113.980 C 323.661 114.618,323.880 115.178,324.107 115.305 C 324.451 115.498,324.500 116.498,324.500 123.387 L 324.500 131.250 328.485 131.250 C 333.283 131.250,332.853 131.712,332.959 126.436 C 333.007 123.986,333.137 122.305,333.271 122.388 C 333.397 122.466,333.500 123.022,333.500 123.623 C 333.500 124.497,333.600 124.748,334.000 124.875 C 334.305 124.972,334.500 125.253,334.500 125.597 C 334.500 126.090,336.044 128.229,336.567 128.460 C 336.672 128.506,336.898 128.675,337.067 128.835 C 337.991 129.705,340.625 130.750,341.895 130.750 C 342.624 130.750,343.290 130.863,343.375 131.000 C 343.460 131.137,344.423 131.250,345.515 131.250 C 346.672 131.250,347.500 131.146,347.500 131.000 C 347.500 130.861,348.191 130.748,349.063 130.744 C 350.227 130.740,350.784 130.614,351.250 130.250 C 351.594 129.981,352.072 129.759,352.313 129.756 C 352.553 129.753,352.751 129.666,352.752 129.563 C 352.753 129.459,353.146 129.107,353.627 128.780 C 354.107 128.453,354.500 128.031,354.500 127.843 C 354.500 127.654,354.613 127.500,354.750 127.500 C 354.887 127.500,355.000 127.275,355.000 127.000 C 355.000 126.725,355.113 126.500,355.250 126.500 C 355.387 126.500,355.500 126.302,355.500 126.060 C 355.500 125.818,355.725 125.480,356.000 125.308 C 356.453 125.025,356.500 124.725,356.500 122.125 C 356.500 119.525,356.453 119.225,356.000 118.942 C 355.725 118.770,355.500 118.432,355.500 118.190 C 355.500 117.948,355.387 117.750,355.250 117.750 C 355.113 117.750,354.997 117.497,354.993 117.188 C 354.984 116.530,353.680 115.000,353.129 115.000 C 352.920 115.000,352.750 114.888,352.750 114.750 C 352.750 114.612,352.552 114.500,352.310 114.500 C 352.068 114.500,351.730 114.275,351.558 114.000 C 351.343 113.655,350.975 113.500,350.373 113.500 C 349.893 113.500,349.500 113.388,349.500 113.250 C 349.500 113.109,348.797 113.000,347.890 113.000 C 347.004 113.000,346.214 112.894,346.134 112.764 C 346.054 112.635,345.488 112.454,344.876 112.362 C 344.264 112.270,343.518 111.983,343.218 111.723 C 342.919 111.463,342.578 111.250,342.462 111.250 C 342.019 111.250,342.281 110.862,342.927 110.563 C 343.734 110.188,345.160 110.151,345.375 110.500 C 345.460 110.638,345.707 110.750,345.923 110.750 C 346.325 110.750,347.250 111.652,347.250 112.044 C 347.250 112.164,349.078 112.231,351.313 112.194 L 355.375 112.125 355.455 111.155 C 355.498 110.621,355.414 110.064,355.267 109.917 C 355.120 109.770,354.999 109.251,354.999 108.762 C 354.998 108.274,354.801 107.576,354.561 107.210 C 353.415 105.462,352.589 104.510,352.214 104.505 C 351.988 104.502,351.743 104.344,351.670 104.152 C 351.485 103.671,350.066 103.000,349.232 103.000 C 348.853 103.000,348.504 102.894,348.458 102.764 C 348.363 102.495,343.942 102.249,342.250 102.419 M360.375 102.401 C 359.467 102.628,358.750 103.079,358.750 103.425 C 358.750 103.612,358.584 103.830,358.380 103.908 C 356.471 104.640,356.509 108.798,358.442 110.693 C 359.820 112.044,360.307 112.250,362.125 112.250 C 363.859 112.250,364.334 112.066,365.663 110.877 L 366.500 110.128 366.500 107.201 C 366.500 104.253,366.055 103.000,365.009 103.000 C 364.890 103.000,364.754 102.888,364.708 102.752 C 364.617 102.480,361.176 102.201,360.375 102.401 M100.250 103.250 C 100.250 103.388,99.926 103.500,99.529 103.500 C 99.019 103.500,98.770 103.646,98.678 104.000 C 98.606 104.275,98.375 104.500,98.165 104.500 C 97.955 104.500,97.712 104.275,97.625 104.000 C 97.407 103.313,90.891 103.232,89.866 103.904 L 89.250 104.308 89.250 117.053 C 89.250 128.645,89.289 129.864,89.679 130.524 L 90.108 131.250 93.777 131.250 C 98.241 131.250,97.750 132.306,97.750 122.706 C 97.750 115.332,97.774 114.923,98.250 114.318 C 98.525 113.969,98.750 113.473,98.750 113.216 C 98.750 112.960,98.862 112.750,99.000 112.750 C 99.138 112.750,99.250 112.525,99.250 112.250 C 99.250 111.922,99.417 111.750,99.735 111.750 C 100.002 111.750,100.290 111.638,100.375 111.500 C 100.460 111.362,101.247 111.250,102.125 111.250 C 103.003 111.250,103.790 111.362,103.875 111.500 C 103.960 111.638,104.248 111.750,104.515 111.750 C 104.826 111.750,105.000 111.922,105.000 112.229 C 105.000 112.493,105.141 112.755,105.313 112.812 C 105.552 112.892,105.644 114.942,105.705 121.646 C 105.775 129.183,105.840 130.435,106.182 130.813 C 106.811 131.509,113.866 131.468,114.241 130.766 C 114.951 129.440,114.480 109.750,113.738 109.750 C 113.607 109.750,113.500 109.525,113.500 109.250 C 113.500 108.975,113.400 108.750,113.277 108.750 C 113.155 108.750,112.979 108.449,112.887 108.082 C 112.794 107.714,112.276 107.009,111.734 106.514 C 111.193 106.019,110.750 105.476,110.750 105.307 C 110.750 105.138,110.525 105.000,110.250 105.000 C 109.975 105.000,109.750 104.888,109.750 104.750 C 109.750 104.612,109.582 104.500,109.377 104.500 C 109.172 104.500,108.864 104.275,108.692 104.000 C 108.502 103.696,108.109 103.500,107.690 103.500 C 107.310 103.500,107.000 103.388,107.000 103.250 C 107.000 103.096,105.708 103.000,103.625 103.000 C 101.542 103.000,100.250 103.096,100.250 103.250 M169.130 103.241 C 169.042 103.384,168.702 103.500,168.374 103.500 C 168.047 103.500,167.621 103.725,167.428 104.000 L 167.078 104.500 166.625 104.000 C 165.852 103.146,158.726 103.243,158.154 104.116 C 157.619 104.933,157.534 129.436,158.063 130.573 L 158.375 131.246 162.284 131.248 C 167.490 131.251,167.000 132.258,167.000 121.552 L 167.000 113.087 167.579 112.544 C 167.897 112.245,168.333 112.000,168.548 112.000 C 168.763 112.000,169.076 111.835,169.243 111.634 C 169.463 111.369,170.214 111.248,171.961 111.196 L 174.375 111.125 174.375 107.125 L 174.375 103.125 171.833 103.054 C 170.274 103.010,169.228 103.083,169.130 103.241 M228.339 106.120 C 227.694 106.592,227.574 106.358,228.141 105.732 C 228.427 105.417,228.650 105.324,228.707 105.497 C 228.759 105.653,228.594 105.934,228.339 106.120 M145.125 110.500 C 145.210 110.638,145.506 110.750,145.783 110.750 C 146.376 110.750,147.000 111.309,147.000 111.839 C 147.000 112.046,147.177 112.391,147.393 112.607 C 147.750 112.964,147.420 113.000,143.768 113.000 C 141.558 113.000,139.750 112.909,139.750 112.799 C 139.750 112.417,141.444 110.750,141.831 110.750 C 142.045 110.750,142.290 110.638,142.375 110.500 C 142.460 110.362,143.079 110.250,143.750 110.250 C 144.421 110.250,145.040 110.362,145.125 110.500 M278.875 110.500 C 278.960 110.638,279.253 110.750,279.526 110.750 C 280.174 110.750,281.250 111.835,281.250 112.489 C 281.250 112.981,281.111 113.000,277.482 113.000 C 274.057 113.000,273.750 112.964,274.107 112.607 C 274.323 112.391,274.500 112.046,274.500 111.839 C 274.500 111.327,275.117 110.751,275.670 110.746 C 275.920 110.744,276.294 110.633,276.500 110.500 C 276.993 110.181,278.678 110.181,278.875 110.500 M79.550 142.800 C 79.331 143.019,79.250 145.032,79.250 150.295 L 79.250 157.490 79.823 157.634 C 80.138 157.713,81.066 157.744,81.885 157.702 L 83.375 157.625 83.446 154.938 L 83.517 152.250 85.008 152.250 L 86.500 152.250 86.500 154.741 C 86.500 157.661,86.573 157.750,88.963 157.750 C 91.219 157.750,91.247 157.725,91.268 155.661 C 91.277 154.679,91.362 154.062,91.455 154.292 C 91.549 154.521,91.934 155.054,92.313 155.477 C 92.691 155.900,93.000 156.391,93.000 156.569 C 93.000 157.796,98.673 158.302,100.408 157.230 C 100.947 156.897,101.250 156.513,101.250 156.165 C 101.250 155.865,101.475 155.480,101.750 155.308 C 102.204 155.024,102.250 154.725,102.250 152.045 C 102.250 149.440,102.191 149.031,101.750 148.558 C 101.475 148.262,101.250 147.896,101.250 147.743 C 101.250 146.222,95.841 144.944,94.565 146.163 C 94.300 146.417,93.839 146.790,93.541 146.993 C 93.244 147.195,93.000 147.516,93.000 147.707 C 93.000 147.897,92.709 148.282,92.354 148.561 C 91.999 148.840,91.612 149.307,91.495 149.597 C 91.361 149.928,91.276 148.813,91.266 146.613 C 91.247 142.445,91.280 142.500,88.834 142.500 C 86.593 142.500,86.500 142.626,86.500 145.671 L 86.500 147.875 85.000 147.875 L 83.500 147.875 83.500 145.583 C 83.500 142.455,83.529 142.500,81.523 142.500 C 80.555 142.500,79.724 142.626,79.550 142.800 M113.938 142.848 C 113.540 143.150,113.500 143.788,113.500 149.795 L 113.500 156.410 114.188 157.009 C 114.714 157.467,115.240 157.631,116.431 157.708 C 119.019 157.874,119.250 157.741,119.250 156.087 L 119.250 154.683 119.750 155.318 C 120.025 155.668,120.250 156.141,120.250 156.370 C 120.250 157.463,120.866 157.622,125.357 157.686 C 131.297 157.771,130.750 158.102,130.750 154.420 C 130.750 151.033,130.859 150.750,132.168 150.750 L 132.986 150.750 133.055 154.188 L 133.125 157.625 135.000 157.625 L 136.875 157.625 136.943 153.033 L 137.012 148.440 136.256 147.718 C 135.840 147.321,135.499 146.912,135.497 146.810 C 135.485 146.010,131.913 145.346,131.127 145.999 C 130.798 146.272,130.750 146.108,130.750 144.706 C 130.750 142.712,130.545 142.500,128.625 142.500 C 126.681 142.500,126.500 142.699,126.500 144.839 C 126.500 146.552,126.493 146.571,126.008 146.132 C 125.735 145.885,125.302 145.744,125.033 145.814 C 124.658 145.912,124.518 145.780,124.406 145.220 L 124.263 144.500 122.056 144.500 C 119.705 144.500,119.250 144.690,119.250 145.675 C 119.250 145.991,119.138 146.250,119.000 146.250 C 118.854 146.250,118.750 147.078,118.750 148.235 C 118.750 149.327,118.862 150.290,119.000 150.375 C 119.138 150.460,119.250 151.333,119.250 152.315 C 119.250 153.703,119.183 154.033,118.950 153.800 C 118.785 153.635,118.447 153.500,118.200 153.500 C 117.781 153.500,117.750 153.144,117.750 148.395 C 117.750 145.588,117.682 143.113,117.598 142.895 C 117.404 142.388,114.591 142.352,113.938 142.848 M146.876 143.002 C 147.126 143.277,147.382 143.451,147.445 143.388 C 147.580 143.253,146.868 142.500,146.604 142.500 C 146.504 142.500,146.627 142.726,146.876 143.002 M153.800 142.800 C 153.581 143.019,153.500 145.032,153.500 150.295 L 153.500 157.490 154.104 157.642 C 155.267 157.934,163.075 157.651,163.188 157.313 C 163.245 157.141,163.431 157.000,163.601 157.000 C 164.142 157.000,165.000 155.773,165.000 154.998 C 165.000 154.587,165.113 154.250,165.250 154.250 C 165.387 154.250,165.500 154.476,165.500 154.752 C 165.500 155.029,165.725 155.448,166.000 155.683 C 166.275 155.918,166.500 156.230,166.500 156.375 C 166.500 157.340,167.555 157.624,171.454 157.705 C 175.575 157.792,176.500 157.570,176.500 156.494 C 176.500 155.852,176.921 155.856,177.125 156.500 C 177.212 156.775,177.453 157.000,177.660 157.000 C 177.867 157.000,178.214 157.178,178.432 157.396 C 178.756 157.720,179.320 157.777,181.537 157.709 C 184.768 157.609,185.500 157.151,185.500 155.230 C 185.500 154.333,185.552 154.232,185.875 154.500 C 186.310 154.861,186.371 155.646,185.984 155.885 C 185.804 155.996,185.832 156.184,186.071 156.462 C 186.265 156.689,186.494 157.072,186.579 157.313 C 186.741 157.769,188.906 157.936,190.191 157.592 L 190.757 157.440 190.738 150.289 C 190.716 142.107,190.825 142.500,188.559 142.500 C 186.856 142.500,186.276 142.831,186.258 143.813 C 186.254 144.053,186.137 144.250,186.000 144.250 C 185.603 144.250,185.710 145.181,186.125 145.340 C 186.339 145.423,186.500 145.796,186.500 146.212 C 186.500 146.612,186.331 147.079,186.125 147.250 C 185.669 147.628,185.643 148.335,186.060 149.003 C 186.307 149.399,186.307 149.601,186.060 149.997 C 185.664 150.630,185.663 151.618,186.058 152.249 C 186.312 152.657,186.291 152.816,185.933 153.175 C 185.522 153.585,185.500 153.555,185.500 152.604 C 185.500 152.052,185.359 151.451,185.188 151.269 C 184.938 151.004,184.938 150.915,185.188 150.823 C 185.563 150.685,185.623 148.250,185.250 148.250 C 185.113 148.250,185.000 147.963,185.000 147.612 C 185.000 147.137,184.793 146.878,184.188 146.597 C 183.741 146.390,183.094 146.052,182.750 145.848 C 181.425 145.058,178.057 145.922,177.042 147.312 C 176.732 147.737,176.658 147.698,175.978 146.759 C 175.154 145.622,173.707 145.371,172.268 146.116 C 171.304 146.614,171.250 146.843,171.250 150.395 C 171.250 153.051,171.193 153.500,170.857 153.500 C 169.917 153.500,169.750 152.898,169.750 149.512 L 169.750 146.238 169.109 145.994 C 167.824 145.505,166.518 145.694,165.731 146.481 L 165.000 147.212 165.000 146.077 C 165.000 144.735,163.519 143.000,162.375 143.000 C 162.031 143.000,161.750 142.887,161.750 142.750 C 161.750 142.371,154.181 142.419,153.800 142.800 M251.625 142.750 C 251.540 142.887,251.241 143.000,250.960 143.000 C 250.146 143.000,248.750 144.564,248.750 145.475 C 248.750 145.917,248.535 146.465,248.250 146.750 C 247.806 147.194,247.750 147.583,247.750 150.250 C 247.750 152.917,247.806 153.306,248.250 153.750 C 248.560 154.060,248.750 154.583,248.750 155.125 C 248.750 155.606,248.863 156.000,249.000 156.000 C 249.137 156.000,249.250 156.166,249.250 156.369 C 249.250 157.547,256.292 158.423,257.339 157.375 C 257.546 157.169,257.883 157.000,258.090 157.000 C 258.297 157.000,258.538 156.775,258.625 156.500 C 258.712 156.225,258.889 156.000,259.017 156.000 C 259.145 156.000,259.250 155.775,259.250 155.500 C 259.250 155.225,259.363 155.000,259.500 155.000 C 259.637 155.000,259.752 154.578,259.754 154.063 C 259.756 153.547,259.867 152.956,260.000 152.750 C 260.173 152.483,260.243 152.775,260.246 153.765 C 260.249 154.754,260.380 155.296,260.700 155.640 C 260.948 155.907,261.225 156.322,261.317 156.563 C 261.409 156.803,261.701 157.000,261.965 157.000 C 262.230 157.000,262.511 157.169,262.590 157.375 C 263.069 158.623,268.923 157.643,269.558 156.209 C 269.724 155.835,270.059 155.477,270.304 155.413 C 270.686 155.314,270.750 155.004,270.750 153.259 C 270.750 151.964,270.841 151.277,271.000 151.375 C 271.137 151.460,271.250 151.800,271.250 152.130 C 271.250 152.460,271.465 152.932,271.728 153.178 C 271.991 153.424,272.285 154.047,272.381 154.563 C 272.477 155.078,272.656 155.500,272.778 155.500 C 272.900 155.500,273.000 155.937,273.000 156.471 C 273.000 157.620,273.268 157.744,275.750 157.742 C 277.791 157.741,278.442 157.189,278.670 155.267 C 278.752 154.570,278.916 154.000,279.035 154.000 C 279.153 154.000,279.250 153.606,279.250 153.125 C 279.250 152.644,279.363 152.250,279.500 152.250 C 279.637 152.250,279.750 152.032,279.750 151.765 C 279.750 151.498,279.863 151.210,280.000 151.125 C 280.155 151.029,280.250 151.492,280.250 152.345 C 280.250 153.102,280.363 153.790,280.500 153.875 C 280.637 153.960,280.750 154.266,280.750 154.556 C 280.750 155.356,281.551 157.000,281.941 157.000 C 282.131 157.000,282.454 157.169,282.661 157.375 C 283.095 157.809,287.532 157.916,288.580 157.517 C 289.697 157.093,290.678 155.778,290.907 154.401 C 291.119 153.127,291.120 153.128,291.195 155.184 C 291.285 157.640,291.464 157.812,293.818 157.699 L 295.375 157.625 295.446 154.522 C 295.523 151.097,295.668 150.773,297.127 150.758 C 297.625 150.753,298.006 150.559,298.252 150.188 C 298.593 149.674,298.636 149.972,298.750 153.625 L 298.875 157.625 300.648 157.698 C 302.958 157.792,302.968 157.777,303.054 153.984 L 303.125 150.875 304.063 150.797 L 305.000 150.720 305.000 154.105 C 305.000 158.004,304.882 157.843,307.635 157.702 L 309.125 157.625 309.194 153.410 C 309.264 149.063,308.939 147.250,308.089 147.250 C 307.916 147.250,307.685 147.107,307.575 146.931 C 306.917 145.884,304.869 145.377,303.373 145.891 C 302.737 146.110,302.295 146.145,302.141 145.991 C 301.713 145.563,299.638 145.709,299.107 146.204 C 298.635 146.643,298.603 146.643,298.122 146.185 C 297.738 145.819,297.397 145.743,296.625 145.852 C 295.308 146.037,295.331 146.037,293.801 145.848 C 291.865 145.609,291.250 146.232,291.250 148.433 C 291.250 149.434,291.157 149.972,291.000 149.875 C 290.863 149.790,290.750 149.390,290.750 148.985 C 290.750 148.498,290.623 148.250,290.375 148.250 C 290.169 148.250,290.000 148.155,290.000 148.039 C 290.000 147.738,288.903 146.500,288.637 146.500 C 288.514 146.500,288.210 146.315,287.959 146.088 C 286.939 145.165,283.855 145.594,282.321 146.872 C 282.154 147.011,281.845 147.270,281.634 147.447 C 281.304 147.724,281.250 147.675,281.250 147.100 C 281.250 146.205,280.607 145.768,279.280 145.758 C 277.777 145.747,276.500 146.545,276.500 147.494 C 276.500 147.880,276.340 148.258,276.144 148.333 C 275.949 148.408,275.752 148.721,275.707 149.028 C 275.563 150.007,275.000 149.889,275.000 148.879 C 275.000 146.945,273.897 145.750,272.112 145.750 C 270.537 145.750,270.208 146.071,270.208 147.613 C 270.208 148.238,270.105 148.750,269.979 148.750 C 269.853 148.750,269.750 148.525,269.750 148.250 C 269.750 147.975,269.664 147.750,269.559 147.750 C 269.454 147.750,269.258 147.498,269.122 147.189 C 268.986 146.880,268.650 146.588,268.375 146.538 C 268.100 146.489,267.679 146.275,267.440 146.062 C 266.839 145.530,263.539 145.518,263.149 146.047 C 262.998 146.251,262.585 146.489,262.231 146.578 C 261.803 146.684,261.425 147.076,261.106 147.741 C 260.841 148.293,260.541 148.746,260.438 148.747 C 260.334 148.749,260.250 148.940,260.250 149.173 C 260.250 149.544,260.208 149.538,259.902 149.119 C 259.673 148.807,259.624 148.457,259.757 148.106 C 259.999 147.470,259.779 145.500,259.467 145.500 C 259.348 145.500,259.250 145.337,259.250 145.138 C 259.250 144.697,258.178 143.500,257.784 143.500 C 257.628 143.500,257.500 143.387,257.500 143.250 C 257.500 143.113,257.225 143.000,256.890 143.000 C 256.554 143.000,256.210 142.887,256.125 142.750 C 256.040 142.613,255.028 142.500,253.875 142.500 C 252.722 142.500,251.710 142.613,251.625 142.750 M241.902 143.895 C 241.647 144.559,241.737 156.344,242.000 156.750 C 242.160 156.997,242.244 154.803,242.246 150.313 C 242.250 143.677,242.217 143.073,241.902 143.895 M147.608 150.375 C 147.608 153.675,147.644 154.990,147.687 153.298 C 147.730 151.606,147.730 148.906,147.687 147.298 C 147.643 145.690,147.608 147.075,147.608 150.375 M349.250 145.233 C 349.250 145.733,349.099 146.014,348.777 146.116 C 348.517 146.199,348.165 146.601,347.996 147.011 L 347.688 147.754 347.236 147.234 C 346.126 145.953,343.096 145.195,342.168 145.965 C 341.915 146.174,341.742 146.190,341.633 146.012 C 341.457 145.728,339.543 145.653,338.886 145.905 C 338.141 146.191,337.751 147.401,337.713 149.550 C 337.692 150.691,337.628 151.316,337.571 150.938 C 337.514 150.559,337.362 150.250,337.233 150.250 C 337.105 150.250,337.000 149.800,337.000 149.250 C 337.000 148.700,336.887 148.250,336.750 148.250 C 336.613 148.250,336.500 148.025,336.500 147.750 C 336.500 147.475,336.337 147.250,336.137 147.250 C 335.938 147.250,335.685 147.109,335.575 146.938 C 334.819 145.756,330.849 145.186,329.911 146.125 C 329.704 146.331,329.359 146.500,329.143 146.500 C 328.927 146.500,328.747 146.584,328.744 146.688 C 328.741 146.791,328.339 147.318,327.851 147.860 L 326.964 148.846 327.044 152.261 L 327.125 155.676 328.100 156.651 L 329.075 157.625 332.172 157.625 C 334.099 157.625,335.336 157.524,335.447 157.357 C 335.545 157.209,335.822 157.016,336.063 156.927 C 336.303 156.838,336.500 156.593,336.500 156.383 C 336.500 156.172,336.613 156.000,336.750 156.000 C 336.887 156.000,337.000 155.507,337.000 154.904 C 337.000 154.301,337.168 153.485,337.373 153.091 C 337.730 152.408,337.747 152.478,337.748 154.649 C 337.750 157.443,337.979 157.750,340.062 157.750 C 342.344 157.750,342.250 157.906,342.250 154.098 L 342.250 150.750 342.961 150.750 C 344.241 150.750,344.476 151.321,344.554 154.635 L 344.625 157.625 346.182 157.699 C 348.751 157.822,348.750 157.823,348.750 153.741 C 348.750 151.580,348.845 150.250,349.000 150.250 C 349.152 150.250,349.252 151.357,349.254 153.063 C 349.260 157.007,349.728 157.583,353.032 157.713 C 356.431 157.846,356.500 157.810,356.500 155.909 C 356.500 153.994,356.099 153.500,354.543 153.500 L 353.500 153.500 353.500 152.056 L 353.500 150.612 354.539 150.711 C 355.937 150.844,356.487 150.161,356.494 148.279 C 356.501 146.573,355.692 145.644,354.337 145.802 C 353.564 145.892,353.500 145.846,353.500 145.200 L 353.500 144.500 351.375 144.500 L 349.250 144.500 349.250 145.233 M106.492 145.726 C 105.618 146.004,104.664 146.564,104.425 146.938 C 104.315 147.109,104.062 147.250,103.863 147.250 C 103.663 147.250,103.500 147.475,103.500 147.750 C 103.500 148.025,103.388 148.250,103.250 148.250 C 103.112 148.250,103.000 148.468,103.000 148.735 C 103.000 149.002,102.888 149.290,102.750 149.375 C 102.385 149.600,102.444 150.643,102.840 150.971 C 103.199 151.269,103.103 152.500,102.721 152.500 C 102.599 152.500,102.500 153.287,102.500 154.250 C 102.500 155.250,102.607 156.000,102.750 156.000 C 102.888 156.000,103.000 156.201,103.000 156.446 C 103.000 157.626,111.631 158.519,112.700 157.450 C 113.724 156.426,112.909 148.166,111.711 147.418 C 111.457 147.259,111.250 146.988,111.250 146.815 C 111.250 146.642,111.025 146.500,110.750 146.500 C 110.475 146.500,110.250 146.395,110.250 146.267 C 110.250 145.799,107.502 145.404,106.492 145.726 M194.167 145.731 C 191.117 145.930,191.250 145.638,191.250 152.161 L 191.250 157.477 192.063 157.630 C 192.510 157.714,193.439 157.747,194.126 157.704 L 195.375 157.625 195.444 154.215 L 195.514 150.805 196.258 150.695 C 197.279 150.546,197.250 150.447,197.250 154.048 L 197.250 157.262 197.891 157.506 C 198.710 157.817,201.010 157.816,201.500 157.503 C 201.932 157.228,201.918 149.577,201.484 149.137 C 201.355 149.007,201.250 148.641,201.250 148.325 C 201.250 148.009,201.137 147.750,201.000 147.750 C 200.863 147.750,200.750 147.576,200.750 147.362 C 200.750 147.149,200.384 146.805,199.938 146.597 C 199.491 146.390,198.844 146.060,198.500 145.864 C 198.156 145.668,197.537 145.525,197.125 145.547 C 196.713 145.568,195.381 145.651,194.167 145.731 M205.022 146.135 C 203.534 146.827,203.020 147.346,203.008 148.167 C 203.004 148.465,202.859 148.755,202.688 148.813 C 202.461 148.888,202.375 149.731,202.375 151.875 C 202.375 154.019,202.461 154.862,202.688 154.938 C 202.859 154.995,203.000 155.322,203.000 155.664 C 203.000 156.315,203.513 157.000,204.000 157.000 C 204.157 157.000,204.464 157.178,204.682 157.396 C 205.588 158.303,211.250 157.637,211.250 156.624 C 211.250 156.423,212.657 155.000,212.856 155.000 C 212.935 155.000,213.000 155.225,213.000 155.500 C 213.000 155.775,213.113 156.000,213.250 156.000 C 213.387 156.000,213.500 156.225,213.500 156.500 C 213.500 156.826,213.667 157.000,213.979 157.000 C 214.243 157.000,214.505 157.141,214.562 157.313 C 214.635 157.531,215.512 157.651,217.469 157.710 L 220.271 157.795 221.355 156.710 C 222.431 155.632,223.000 155.589,223.000 156.586 C 223.000 157.948,229.414 158.253,230.623 156.948 C 231.047 156.491,231.250 155.985,231.250 155.386 C 231.250 154.899,231.363 154.500,231.500 154.500 C 231.637 154.500,231.750 154.275,231.750 154.000 C 231.750 153.725,231.637 153.500,231.500 153.500 C 231.363 153.500,231.250 153.050,231.250 152.500 C 231.250 151.950,231.137 151.500,231.000 151.500 C 230.863 151.500,230.750 151.331,230.750 151.125 C 230.750 150.919,230.863 150.750,231.000 150.750 C 231.137 150.750,231.250 150.188,231.250 149.500 C 231.250 148.813,231.137 148.250,231.000 148.250 C 230.863 148.250,230.750 147.963,230.750 147.612 C 230.750 147.137,230.543 146.878,229.938 146.597 C 229.491 146.390,228.844 146.052,228.500 145.847 C 226.995 144.947,223.000 146.001,223.000 147.297 C 223.000 147.546,222.905 147.750,222.788 147.750 C 222.672 147.750,222.453 148.003,222.302 148.313 L 222.028 148.875 221.860 148.313 C 221.767 148.003,221.592 147.750,221.471 147.750 C 221.349 147.750,221.250 147.522,221.250 147.244 C 221.250 146.881,221.037 146.695,220.500 146.588 C 220.088 146.505,219.750 146.357,219.750 146.259 C 219.750 145.390,216.846 145.300,215.121 146.116 C 213.571 146.850,213.013 147.608,212.963 149.054 C 212.936 149.799,212.893 149.916,212.821 149.438 C 212.764 149.059,212.612 148.750,212.483 148.750 C 212.355 148.750,212.250 148.609,212.249 148.438 C 212.249 148.011,210.932 146.500,210.561 146.500 C 210.397 146.500,209.894 146.275,209.444 146.001 C 208.309 145.309,206.690 145.358,205.022 146.135 M314.875 145.673 C 314.600 145.745,314.244 145.910,314.085 146.039 C 313.901 146.188,313.735 146.178,313.633 146.012 C 313.360 145.571,310.861 145.690,310.468 146.163 C 310.028 146.692,309.820 156.008,310.224 157.063 C 310.472 157.708,310.580 157.750,312.010 157.750 C 314.510 157.750,314.500 157.766,314.500 153.974 C 314.500 150.738,314.504 150.716,315.063 150.795 C 315.608 150.873,315.627 150.971,315.695 154.072 C 315.764 157.235,315.772 157.271,316.399 157.509 C 317.218 157.820,319.287 157.819,320.109 157.506 L 320.750 157.262 320.750 154.006 L 320.750 150.750 321.500 150.750 L 322.250 150.750 322.253 153.688 C 322.258 157.832,322.220 157.750,324.134 157.750 C 326.664 157.750,326.500 158.083,326.500 152.950 C 326.500 148.663,326.477 148.447,326.000 148.322 C 325.725 148.251,325.500 148.037,325.500 147.849 C 325.500 147.373,324.713 146.500,324.285 146.500 C 324.090 146.500,323.796 146.317,323.633 146.093 C 323.192 145.490,320.096 145.469,319.257 146.063 C 318.507 146.594,317.776 146.624,317.403 146.141 C 317.093 145.740,315.645 145.472,314.875 145.673 M160.750 147.375 C 160.750 147.667,160.417 147.750,159.250 147.750 C 158.083 147.750,157.750 147.667,157.750 147.375 C 157.750 147.083,158.083 147.000,159.250 147.000 C 160.417 147.000,160.750 147.083,160.750 147.375 M255.143 147.357 C 255.742 147.956,255.547 148.250,254.550 148.250 C 253.194 148.250,253.000 148.567,253.000 150.778 L 253.000 152.706 254.000 152.875 C 255.280 153.091,255.297 153.500,254.027 153.500 C 252.814 153.500,252.749 153.343,252.753 150.417 C 252.758 147.280,252.854 147.000,253.922 147.000 C 254.397 147.000,254.946 147.161,255.143 147.357 M222.250 150.758 C 222.250 151.201,222.406 151.575,222.625 151.660 C 222.831 151.739,223.000 152.007,223.000 152.256 C 223.000 152.505,223.141 152.765,223.313 152.834 C 223.484 152.904,223.316 152.969,222.938 152.980 C 222.370 152.997,222.250 152.894,222.250 152.389 C 222.250 152.045,222.004 151.597,221.688 151.363 C 221.311 151.085,221.228 150.909,221.438 150.828 C 221.609 150.762,221.750 150.549,221.750 150.354 C 221.750 150.159,221.863 150.000,222.000 150.000 C 222.137 150.000,222.250 150.341,222.250 150.758 M126.500 152.175 C 126.500 153.672,126.433 154.033,126.200 153.800 C 126.035 153.635,125.585 153.500,125.200 153.500 C 124.518 153.500,124.500 153.464,124.500 152.125 C 124.500 150.770,124.511 150.750,125.235 150.750 C 125.640 150.750,126.040 150.637,126.125 150.500 C 126.435 149.998,126.500 150.288,126.500 152.175 M266.063 150.598 C 266.379 150.839,266.500 151.284,266.500 152.215 L 266.500 153.500 265.500 153.500 L 264.500 153.500 264.500 152.175 C 264.500 150.409,265.064 149.840,266.063 150.598 M177.000 151.982 C 177.000 152.110,177.177 152.391,177.393 152.607 C 177.750 152.964,177.727 153.000,177.143 153.000 C 176.624 153.000,176.500 152.880,176.500 152.375 C 176.500 152.031,176.613 151.750,176.750 151.750 C 176.887 151.750,177.000 151.854,177.000 151.982 M213.500 152.229 C 213.500 152.493,213.641 152.765,213.813 152.834 C 213.984 152.904,213.831 152.969,213.472 152.980 C 212.907 152.997,212.835 152.916,212.939 152.375 C 213.079 151.642,213.500 151.532,213.500 152.229 M160.750 152.875 C 160.750 153.472,160.683 153.500,159.250 153.500 C 157.817 153.500,157.750 153.472,157.750 152.875 C 157.750 152.278,157.817 152.250,159.250 152.250 C 160.683 152.250,160.750 152.278,160.750 152.875 " stroke="none" fill="#000000" fill-rule="evenodd"></path></g></svg>