<svg id="svg" version="1.1" xmlns="http://www.w3.org/2000/svg" xmlns:xlink="http://www.w3.org/1999/xlink" width="400" height="228.57142857142858" viewBox="0, 0, 400,228.57142857142858"><g id="svgg"><path id="path0" d="M293.943 85.486 L 293.943 138.057 302.057 138.057 L 310.171 138.057 310.171 114.857 C 310.171 99.543,310.249 91.657,310.400 91.657 C 310.531 91.657,310.629 90.971,310.629 90.057 C 310.629 89.177,310.719 88.457,310.830 88.457 C 310.941 88.457,311.104 87.686,311.193 86.743 C 311.281 85.800,311.447 85.029,311.562 85.029 C 311.677 85.029,311.771 84.771,311.771 84.457 C 311.771 84.143,311.861 83.886,311.971 83.886 C 312.080 83.886,312.236 83.474,312.316 82.971 C 312.397 82.469,312.564 82.057,312.688 82.057 C 312.813 82.057,312.914 81.903,312.914 81.714 C 312.914 81.526,313.004 81.371,313.114 81.371 C 313.224 81.371,313.379 81.049,313.458 80.655 C 313.536 80.261,313.792 79.772,314.025 79.569 C 314.258 79.366,314.520 78.974,314.608 78.697 C 314.695 78.421,314.961 78.133,315.200 78.057 C 315.439 77.981,315.696 77.724,315.771 77.486 C 315.847 77.247,316.104 76.990,316.343 76.914 C 316.581 76.839,316.839 76.581,316.914 76.343 C 316.990 76.104,317.278 75.838,317.555 75.750 C 317.831 75.663,318.223 75.401,318.426 75.168 C 318.630 74.935,319.118 74.679,319.512 74.600 C 319.906 74.522,320.229 74.367,320.229 74.257 C 320.229 74.147,320.383 74.057,320.571 74.057 C 320.760 74.057,320.914 73.959,320.914 73.840 C 320.914 73.720,321.531 73.553,322.286 73.468 C 323.040 73.382,323.657 73.223,323.657 73.113 C 323.657 73.004,324.069 72.914,324.571 72.914 C 325.074 72.914,325.486 72.811,325.486 72.686 C 325.486 72.542,327.048 72.457,329.714 72.457 C 332.381 72.457,333.943 72.542,333.943 72.686 C 333.943 72.811,334.354 72.914,334.857 72.914 C 335.360 72.914,335.771 73.004,335.771 73.113 C 335.771 73.222,336.257 73.367,336.850 73.434 C 337.443 73.500,337.966 73.668,338.012 73.806 C 338.058 73.944,338.344 74.057,338.648 74.057 C 338.951 74.057,339.200 74.158,339.200 74.281 C 339.200 74.405,339.457 74.570,339.771 74.649 C 340.086 74.728,340.343 74.884,340.343 74.996 C 340.343 75.108,340.493 75.200,340.676 75.200 C 341.107 75.200,343.452 77.525,343.650 78.149 C 343.734 78.413,343.898 78.629,344.015 78.629 C 344.133 78.629,344.229 78.783,344.229 78.971 C 344.229 79.160,344.325 79.314,344.443 79.314 C 344.561 79.314,344.727 79.777,344.812 80.343 C 344.897 80.909,345.057 81.371,345.169 81.371 C 345.280 81.371,345.371 81.620,345.371 81.924 C 345.371 82.228,345.474 82.510,345.598 82.552 C 345.723 82.594,345.892 83.426,345.975 84.400 C 346.057 85.374,346.212 86.171,346.319 86.171 C 346.427 86.171,346.514 87.406,346.514 88.914 C 346.514 90.590,346.603 91.657,346.743 91.657 C 346.894 91.657,346.971 99.543,346.971 114.857 L 346.971 138.057 354.872 138.057 L 362.773 138.057 362.701 110.590 C 362.644 88.872,362.569 83.104,362.343 83.029 C 362.166 82.970,362.057 82.505,362.057 81.810 C 362.057 81.191,361.969 80.686,361.861 80.686 C 361.754 80.686,361.597 79.940,361.512 79.029 C 361.428 78.117,361.259 77.337,361.137 77.295 C 361.014 77.253,360.914 76.868,360.914 76.438 C 360.914 76.009,360.825 75.657,360.715 75.657 C 360.605 75.657,360.450 75.246,360.369 74.743 C 360.289 74.240,360.122 73.829,359.997 73.829 C 359.873 73.829,359.771 73.571,359.771 73.257 C 359.771 72.943,359.680 72.686,359.568 72.686 C 359.457 72.686,359.298 72.326,359.215 71.886 C 359.133 71.446,358.967 71.086,358.847 71.086 C 358.727 71.086,358.629 70.931,358.629 70.743 C 358.629 70.554,358.528 70.400,358.404 70.400 C 358.281 70.400,358.116 70.143,358.037 69.829 C 357.958 69.514,357.802 69.257,357.690 69.257 C 357.577 69.257,357.486 69.098,357.486 68.903 C 357.486 68.709,357.229 68.311,356.914 68.020 C 356.600 67.729,356.343 67.418,356.343 67.329 C 356.343 67.240,356.214 67.024,356.057 66.849 C 355.561 66.295,355.231 65.951,354.925 65.668 C 354.762 65.517,354.505 65.260,354.354 65.097 C 353.921 64.629,353.405 64.229,353.236 64.229 C 353.151 64.229,352.843 63.971,352.551 63.657 C 352.260 63.343,351.874 63.086,351.693 63.086 C 351.511 63.086,351.304 62.931,351.232 62.743 C 351.159 62.554,350.891 62.400,350.636 62.400 C 350.380 62.400,350.171 62.297,350.171 62.171 C 350.171 62.046,350.017 61.943,349.829 61.943 C 349.640 61.943,349.486 61.845,349.486 61.725 C 349.486 61.605,349.126 61.439,348.686 61.356 C 348.246 61.274,347.886 61.115,347.886 61.003 C 347.886 60.891,347.629 60.800,347.314 60.800 C 347.000 60.800,346.743 60.707,346.743 60.593 C 346.743 60.479,346.229 60.315,345.600 60.229 C 344.971 60.142,344.457 59.978,344.457 59.864 C 344.457 59.750,344.157 59.657,343.790 59.657 C 343.424 59.657,343.090 59.556,343.048 59.432 C 343.006 59.308,341.609 59.138,339.943 59.054 C 338.277 58.970,336.914 58.814,336.914 58.708 C 336.914 58.601,335.731 58.514,334.286 58.514 C 332.840 58.514,331.657 58.602,331.657 58.709 C 331.657 58.816,330.551 58.975,329.200 59.062 C 327.849 59.149,326.709 59.318,326.667 59.438 C 326.625 59.559,326.290 59.657,325.924 59.657 C 325.557 59.657,325.257 59.747,325.257 59.856 C 325.257 59.965,324.772 60.110,324.179 60.176 C 323.586 60.243,323.063 60.411,323.017 60.549 C 322.971 60.687,322.685 60.800,322.381 60.800 C 322.077 60.800,321.829 60.891,321.829 61.003 C 321.829 61.115,321.469 61.274,321.029 61.356 C 320.589 61.439,320.229 61.605,320.229 61.725 C 320.229 61.845,320.074 61.943,319.886 61.943 C 319.697 61.943,319.543 62.033,319.543 62.143 C 319.543 62.253,319.220 62.407,318.826 62.486 C 318.432 62.565,317.944 62.820,317.741 63.053 C 317.538 63.287,317.140 63.551,316.857 63.640 C 316.574 63.729,316.343 63.898,316.343 64.015 C 316.343 64.133,316.234 64.229,316.101 64.229 C 315.785 64.229,311.086 68.928,311.086 69.244 C 311.086 69.377,310.991 69.486,310.876 69.486 C 310.761 69.486,310.563 69.769,310.437 70.114 C 310.280 70.545,310.202 64.778,310.189 51.829 L 310.171 32.914 302.057 32.914 L 293.943 32.914 293.943 85.486 M256.229 47.086 L 256.229 60.800 250.286 60.800 L 244.343 60.800 244.343 68.000 L 244.343 75.200 250.286 75.200 L 256.229 75.200 256.229 106.629 L 256.229 138.057 264.229 138.057 L 272.229 138.057 272.229 106.629 L 272.229 75.200 279.200 75.200 L 286.171 75.200 286.171 68.000 L 286.171 60.800 279.200 60.800 L 272.229 60.800 272.229 47.086 L 272.229 33.371 264.229 33.371 L 256.229 33.371 256.229 47.086 M359.086 53.143 L 359.086 54.171 361.029 54.171 L 362.971 54.171 362.971 59.200 L 362.971 64.229 364.000 64.229 L 365.029 64.229 365.029 59.200 L 365.029 54.171 366.971 54.171 L 368.914 54.171 368.914 53.143 L 368.914 52.114 364.000 52.114 L 359.086 52.114 359.086 53.143 M369.371 58.171 L 369.371 64.229 370.514 64.229 L 371.657 64.229 371.657 60.800 C 371.657 57.394,371.926 56.317,372.229 58.514 C 372.315 59.143,372.479 59.657,372.593 59.657 C 372.707 59.657,372.800 59.914,372.800 60.229 C 372.800 60.543,372.893 60.800,373.007 60.800 C 373.121 60.800,373.285 61.314,373.371 61.943 C 373.458 62.571,373.622 63.086,373.736 63.086 C 373.850 63.086,373.943 63.196,373.943 63.331 C 373.943 63.840,374.629 64.229,375.527 64.229 C 376.367 64.229,376.457 64.173,376.457 63.657 C 376.457 63.343,376.560 63.086,376.686 63.086 C 376.811 63.086,376.914 62.829,376.914 62.514 C 376.914 62.200,377.007 61.943,377.121 61.943 C 377.235 61.943,377.399 61.429,377.486 60.800 C 377.572 60.171,377.736 59.657,377.850 59.657 C 377.964 59.657,378.057 59.400,378.057 59.086 C 378.057 58.771,378.146 58.514,378.254 58.514 C 378.362 58.514,378.554 57.974,378.681 57.314 C 378.876 56.301,378.916 56.745,378.941 60.171 L 378.971 64.229 379.886 64.229 L 380.800 64.229 380.800 58.171 L 380.800 52.114 379.431 52.114 L 378.063 52.114 377.916 53.029 C 377.836 53.531,377.680 53.943,377.571 53.943 C 377.461 53.943,377.371 54.097,377.371 54.286 C 377.371 54.474,377.278 54.629,377.164 54.629 C 377.050 54.629,376.886 55.143,376.800 55.771 C 376.714 56.400,376.550 56.971,376.436 57.042 C 376.322 57.112,376.229 57.369,376.229 57.613 C 376.229 57.857,376.135 58.057,376.021 58.057 C 375.908 58.057,375.744 58.571,375.657 59.200 C 375.495 60.377,375.086 60.787,375.086 59.771 C 375.086 59.457,374.983 59.200,374.857 59.200 C 374.731 59.200,374.629 58.943,374.629 58.629 C 374.629 58.314,374.535 58.057,374.421 58.057 C 374.308 58.057,374.144 57.543,374.057 56.914 C 373.971 56.286,373.807 55.771,373.693 55.771 C 373.579 55.771,373.486 55.514,373.486 55.200 C 373.486 54.886,373.395 54.629,373.283 54.629 C 373.172 54.629,373.007 54.140,372.918 53.543 C 372.718 52.210,372.587 52.122,370.800 52.118 L 369.371 52.114 369.371 58.171 M85.943 58.709 C 85.943 58.816,85.044 58.967,83.945 59.044 C 82.847 59.122,81.912 59.292,81.869 59.421 C 81.826 59.551,81.439 59.657,81.010 59.657 C 80.580 59.657,80.229 59.759,80.229 59.883 C 80.229 60.007,79.817 60.175,79.314 60.255 C 78.811 60.335,78.400 60.491,78.400 60.601 C 78.400 60.710,78.194 60.800,77.943 60.800 C 77.691 60.800,77.486 60.895,77.486 61.010 C 77.486 61.126,77.177 61.289,76.800 61.371 C 76.423 61.454,76.114 61.617,76.114 61.732 C 76.114 61.848,75.973 61.943,75.799 61.943 C 75.626 61.943,75.357 62.097,75.200 62.286 C 75.043 62.474,74.729 62.629,74.502 62.629 C 74.274 62.629,74.023 62.834,73.943 63.086 C 73.863 63.337,73.636 63.543,73.438 63.543 C 73.240 63.543,72.783 63.851,72.423 64.229 C 72.062 64.606,71.683 64.914,71.579 64.914 C 71.338 64.914,68.343 67.902,68.343 68.142 C 68.343 68.241,68.111 68.558,67.827 68.847 C 67.543 69.135,67.190 69.629,67.042 69.943 C 66.827 70.402,66.771 69.557,66.758 65.657 L 66.743 60.800 58.857 60.800 L 50.971 60.800 50.971 99.429 L 50.971 138.057 58.857 138.057 L 66.743 138.057 66.743 116.571 C 66.743 102.400,66.821 95.086,66.971 95.086 C 67.108 95.086,67.200 94.210,67.200 92.914 C 67.200 91.720,67.288 90.743,67.395 90.743 C 67.502 90.743,67.659 89.843,67.743 88.743 C 67.827 87.643,67.997 86.709,68.119 86.667 C 68.242 86.625,68.343 86.239,68.343 85.810 C 68.343 85.380,68.436 85.029,68.550 85.029 C 68.664 85.029,68.828 84.514,68.914 83.886 C 69.001 83.257,69.165 82.743,69.279 82.743 C 69.393 82.743,69.486 82.486,69.486 82.171 C 69.486 81.857,69.577 81.600,69.690 81.600 C 69.802 81.600,69.963 81.323,70.048 80.985 C 70.133 80.647,70.386 80.210,70.611 80.014 C 70.836 79.818,71.093 79.426,71.183 79.143 C 71.272 78.860,71.441 78.629,71.558 78.629 C 71.676 78.629,71.771 78.521,71.771 78.390 C 71.771 78.147,72.108 77.681,72.640 77.189 C 72.803 77.038,73.060 76.782,73.211 76.621 C 74.143 75.624,74.666 75.200,74.962 75.200 C 75.093 75.200,75.200 75.099,75.200 74.976 C 75.200 74.852,75.457 74.687,75.771 74.608 C 76.086 74.529,76.343 74.373,76.343 74.261 C 76.343 74.149,76.497 74.057,76.686 74.057 C 76.874 74.057,77.029 73.961,77.029 73.843 C 77.029 73.725,77.491 73.559,78.057 73.474 C 78.623 73.389,79.086 73.228,79.086 73.117 C 79.086 73.005,79.497 72.914,80.000 72.914 C 80.503 72.914,80.914 72.811,80.914 72.686 C 80.914 72.544,82.171 72.457,84.229 72.457 C 86.286 72.457,87.543 72.544,87.543 72.686 C 87.543 72.811,87.800 72.914,88.114 72.914 C 88.429 72.914,88.686 73.004,88.686 73.114 C 88.686 73.223,89.097 73.379,89.600 73.459 C 90.103 73.540,90.514 73.707,90.514 73.831 C 90.514 73.956,90.669 74.057,90.857 74.057 C 91.046 74.057,91.200 74.153,91.200 74.270 C 91.200 74.388,91.423 74.554,91.696 74.641 C 92.337 74.844,94.298 76.805,94.502 77.447 C 94.589 77.720,94.755 77.943,94.873 77.943 C 94.990 77.943,95.086 78.097,95.086 78.286 C 95.086 78.474,95.187 78.629,95.310 78.629 C 95.433 78.629,95.599 78.886,95.678 79.200 C 95.756 79.514,95.913 79.771,96.025 79.771 C 96.137 79.771,96.229 80.020,96.229 80.324 C 96.229 80.628,96.342 80.914,96.480 80.960 C 96.618 81.006,96.785 81.529,96.852 82.122 C 96.919 82.715,97.063 83.200,97.173 83.200 C 97.282 83.200,97.371 83.551,97.371 83.981 C 97.371 84.410,97.472 84.796,97.596 84.838 C 97.719 84.880,97.889 85.969,97.973 87.257 C 98.057 88.546,98.213 89.600,98.320 89.600 C 98.427 89.600,98.514 100.503,98.514 113.829 L 98.514 138.057 106.629 138.057 L 114.743 138.057 114.743 114.971 C 114.743 99.733,114.821 91.886,114.971 91.886 C 115.100 91.886,115.200 91.238,115.200 90.400 C 115.200 89.583,115.291 88.914,115.402 88.914 C 115.513 88.914,115.676 88.143,115.764 87.200 C 115.852 86.257,116.019 85.486,116.134 85.486 C 116.249 85.486,116.343 85.126,116.343 84.686 C 116.343 84.246,116.433 83.886,116.542 83.886 C 116.652 83.886,116.807 83.474,116.888 82.971 C 116.968 82.469,117.136 82.057,117.260 82.057 C 117.384 82.057,117.486 81.903,117.486 81.714 C 117.486 81.526,117.577 81.371,117.689 81.371 C 117.801 81.371,117.960 81.011,118.042 80.571 C 118.125 80.131,118.290 79.771,118.410 79.771 C 118.530 79.771,118.629 79.617,118.629 79.429 C 118.629 79.240,118.724 79.086,118.842 79.086 C 118.959 79.086,119.125 78.864,119.211 78.593 C 119.391 78.027,122.129 75.200,122.498 75.200 C 122.633 75.200,122.743 75.099,122.743 74.976 C 122.743 74.852,123.000 74.687,123.314 74.608 C 123.629 74.529,123.886 74.373,123.886 74.261 C 123.886 74.149,124.091 74.057,124.343 74.057 C 124.594 74.057,124.800 73.956,124.800 73.831 C 124.800 73.707,125.211 73.540,125.714 73.459 C 126.217 73.379,126.629 73.223,126.629 73.114 C 126.629 73.004,127.040 72.914,127.543 72.914 C 128.046 72.914,128.457 72.811,128.457 72.686 C 128.457 72.544,129.714 72.457,131.771 72.457 C 133.829 72.457,135.086 72.544,135.086 72.686 C 135.086 72.811,135.446 72.914,135.886 72.914 C 136.326 72.914,136.686 73.004,136.686 73.114 C 136.686 73.223,137.097 73.379,137.600 73.459 C 138.103 73.540,138.514 73.707,138.514 73.831 C 138.514 73.956,138.669 74.057,138.857 74.057 C 139.046 74.057,139.200 74.153,139.200 74.270 C 139.200 74.388,139.423 74.554,139.696 74.641 C 140.337 74.844,142.298 76.805,142.502 77.447 C 142.589 77.720,142.755 77.943,142.873 77.943 C 142.990 77.943,143.086 78.097,143.086 78.286 C 143.086 78.474,143.184 78.629,143.304 78.629 C 143.424 78.629,143.590 78.989,143.672 79.429 C 143.755 79.869,143.914 80.229,144.025 80.229 C 144.137 80.229,144.229 80.383,144.229 80.571 C 144.229 80.760,144.322 80.914,144.436 80.914 C 144.550 80.914,144.714 81.429,144.800 82.057 C 144.886 82.686,145.050 83.200,145.164 83.200 C 145.278 83.200,145.371 83.551,145.371 83.981 C 145.371 84.410,145.477 84.797,145.607 84.840 C 145.746 84.887,145.901 86.344,145.985 88.402 C 146.064 90.318,146.215 91.886,146.321 91.886 C 146.427 91.886,146.514 102.274,146.514 114.971 L 146.514 138.057 154.514 138.057 L 162.514 138.057 162.514 112.343 C 162.514 95.352,162.437 86.629,162.286 86.629 C 162.152 86.629,162.057 85.867,162.057 84.800 C 162.057 83.794,161.967 82.971,161.856 82.971 C 161.745 82.971,161.581 81.994,161.492 80.800 C 161.402 79.606,161.236 78.629,161.122 78.629 C 161.008 78.629,160.914 78.320,160.914 77.943 C 160.914 77.566,160.825 77.257,160.715 77.257 C 160.606 77.257,160.446 76.640,160.361 75.886 C 160.276 75.131,160.108 74.514,159.989 74.514 C 159.869 74.514,159.771 74.360,159.771 74.171 C 159.771 73.983,159.680 73.829,159.569 73.829 C 159.457 73.829,159.297 73.366,159.212 72.800 C 159.127 72.234,158.961 71.771,158.843 71.771 C 158.725 71.771,158.629 71.617,158.629 71.429 C 158.629 71.240,158.530 71.086,158.410 71.086 C 158.290 71.086,158.125 70.729,158.044 70.294 C 157.951 69.803,157.730 69.449,157.462 69.364 C 157.223 69.288,157.029 69.024,157.029 68.777 C 157.029 68.531,156.874 68.269,156.686 68.197 C 156.497 68.125,156.343 67.918,156.343 67.738 C 156.343 67.558,155.931 67.019,155.429 66.541 C 154.926 66.062,154.514 65.501,154.514 65.293 C 154.514 65.084,154.344 64.914,154.136 64.914 C 153.928 64.914,153.366 64.503,152.888 64.000 C 152.410 63.497,151.871 63.086,151.691 63.086 C 151.511 63.086,151.304 62.931,151.232 62.743 C 151.159 62.554,150.898 62.400,150.651 62.400 C 150.404 62.400,150.140 62.205,150.065 61.967 C 149.980 61.698,149.626 61.477,149.135 61.385 C 148.699 61.303,148.343 61.138,148.343 61.018 C 148.343 60.898,148.094 60.800,147.790 60.800 C 147.487 60.800,147.200 60.687,147.154 60.549 C 147.108 60.411,146.586 60.243,145.993 60.176 C 145.399 60.110,144.914 59.965,144.914 59.856 C 144.914 59.747,144.666 59.657,144.362 59.657 C 144.058 59.657,143.775 59.553,143.733 59.426 C 143.690 59.300,142.499 59.130,141.085 59.049 C 139.671 58.968,138.514 58.814,138.514 58.708 C 138.514 58.601,137.331 58.514,135.886 58.514 C 134.440 58.514,133.257 58.602,133.257 58.709 C 133.257 58.817,132.257 58.964,131.034 59.037 C 129.779 59.112,128.775 59.276,128.729 59.413 C 128.684 59.547,128.296 59.657,127.867 59.657 C 127.437 59.657,127.086 59.750,127.086 59.864 C 127.086 59.978,126.571 60.142,125.943 60.229 C 125.314 60.315,124.800 60.479,124.800 60.593 C 124.800 60.707,124.646 60.800,124.457 60.800 C 124.269 60.800,124.114 60.891,124.114 61.003 C 124.114 61.114,123.651 61.275,123.086 61.359 C 122.520 61.444,122.057 61.610,122.057 61.728 C 122.057 61.846,121.903 61.943,121.714 61.943 C 121.526 61.943,121.371 62.044,121.371 62.167 C 121.371 62.290,121.114 62.456,120.800 62.535 C 120.486 62.614,120.229 62.770,120.229 62.882 C 120.229 62.994,120.074 63.086,119.886 63.086 C 119.697 63.086,119.543 63.182,119.543 63.299 C 119.543 63.416,119.320 63.583,119.048 63.669 C 118.776 63.756,118.308 64.071,118.009 64.370 C 117.710 64.669,117.365 64.914,117.243 64.914 C 116.915 64.914,112.229 69.727,112.229 70.064 C 112.229 70.222,112.074 70.410,111.886 70.483 C 111.697 70.555,111.543 70.823,111.543 71.079 C 111.543 71.853,110.394 71.004,110.073 69.992 C 109.988 69.727,109.719 69.445,109.474 69.368 C 109.229 69.290,109.029 69.070,109.029 68.880 C 109.029 68.441,104.460 63.876,103.817 63.672 C 103.553 63.588,103.274 63.319,103.196 63.074 C 103.119 62.829,102.853 62.629,102.606 62.629 C 102.359 62.629,102.098 62.474,102.026 62.286 C 101.953 62.097,101.699 61.943,101.461 61.943 C 101.223 61.943,101.029 61.848,101.029 61.732 C 101.029 61.617,100.720 61.454,100.343 61.371 C 99.966 61.289,99.657 61.126,99.657 61.010 C 99.657 60.895,99.451 60.800,99.200 60.800 C 98.949 60.800,98.743 60.707,98.743 60.593 C 98.743 60.479,98.229 60.315,97.600 60.229 C 96.971 60.142,96.457 59.978,96.457 59.864 C 96.457 59.750,96.209 59.657,95.905 59.657 C 95.601 59.657,95.318 59.556,95.276 59.433 C 95.234 59.310,94.146 59.140,92.857 59.056 C 91.569 58.972,90.514 58.815,90.514 58.708 C 90.514 58.602,89.486 58.514,88.229 58.514 C 86.971 58.514,85.943 58.602,85.943 58.709 M231.907 58.709 C 231.841 58.815,230.883 58.972,229.779 59.057 C 228.675 59.141,227.737 59.311,227.695 59.434 C 227.653 59.557,227.370 59.657,227.067 59.657 C 226.763 59.657,226.514 59.747,226.514 59.857 C 226.514 59.966,226.098 60.122,225.590 60.204 C 224.657 60.353,223.933 60.677,223.364 61.200 C 223.193 61.357,222.906 61.486,222.727 61.486 C 222.547 61.486,222.400 61.589,222.400 61.714 C 222.400 61.840,222.205 61.943,221.967 61.943 C 221.729 61.943,221.475 62.097,221.403 62.286 C 221.331 62.474,221.069 62.629,220.823 62.629 C 220.576 62.629,220.310 62.829,220.232 63.074 C 220.155 63.319,219.896 63.581,219.657 63.657 C 219.419 63.733,219.161 63.990,219.086 64.229 C 219.010 64.467,218.753 64.724,218.514 64.800 C 218.276 64.876,218.019 65.133,217.943 65.371 C 217.867 65.610,217.610 65.867,217.371 65.943 C 217.133 66.019,216.876 66.276,216.800 66.514 C 216.724 66.753,216.462 67.012,216.217 67.089 C 215.972 67.167,215.771 67.433,215.771 67.680 C 215.771 67.927,215.617 68.188,215.429 68.260 C 215.240 68.333,215.086 68.575,215.086 68.800 C 215.086 69.025,214.931 69.267,214.743 69.340 C 214.554 69.412,214.400 69.680,214.400 69.936 C 214.400 70.191,214.297 70.400,214.171 70.400 C 214.046 70.400,213.943 70.554,213.943 70.743 C 213.943 70.931,213.850 71.086,213.737 71.086 C 213.624 71.086,213.429 71.471,213.303 71.943 C 213.135 72.577,213.070 71.242,213.052 66.800 L 213.029 60.800 205.257 60.800 L 197.486 60.800 197.486 99.429 L 197.486 138.057 205.257 138.057 L 213.029 138.057 213.029 115.429 C 213.029 100.495,213.106 92.800,213.257 92.800 C 213.388 92.800,213.486 92.114,213.486 91.200 C 213.486 90.320,213.576 89.600,213.687 89.600 C 213.798 89.600,213.961 88.829,214.050 87.886 C 214.138 86.943,214.305 86.171,214.420 86.171 C 214.534 86.171,214.629 85.914,214.629 85.600 C 214.629 85.286,214.718 85.029,214.828 85.029 C 214.938 85.029,215.093 84.617,215.173 84.114 C 215.254 83.611,215.421 83.200,215.546 83.200 C 215.670 83.200,215.771 82.943,215.771 82.629 C 215.771 82.314,215.863 82.057,215.975 82.057 C 216.087 82.057,216.244 81.800,216.322 81.486 C 216.401 81.171,216.567 80.914,216.690 80.914 C 216.813 80.914,216.914 80.760,216.914 80.571 C 216.914 80.383,217.010 80.229,217.127 80.229 C 217.245 80.229,217.411 80.005,217.498 79.733 C 217.728 79.008,220.887 75.930,221.579 75.756 C 221.905 75.674,222.171 75.516,222.171 75.404 C 222.171 75.292,222.377 75.200,222.629 75.200 C 222.880 75.200,223.086 75.098,223.086 74.974 C 223.086 74.850,223.497 74.682,224.000 74.602 C 224.503 74.522,224.914 74.366,224.914 74.257 C 224.914 74.147,225.163 74.057,225.467 74.057 C 225.770 74.057,226.060 73.935,226.109 73.786 C 226.174 73.591,227.424 73.503,230.528 73.474 C 235.648 73.426,235.200 73.480,235.200 72.914 C 235.200 72.663,235.295 72.457,235.410 72.457 C 235.526 72.457,235.689 72.149,235.771 71.771 C 235.854 71.394,236.017 71.086,236.132 71.086 C 236.248 71.086,236.343 70.880,236.343 70.629 C 236.343 70.377,236.438 70.171,236.553 70.171 C 236.669 70.171,236.831 69.863,236.914 69.486 C 236.997 69.109,237.160 68.800,237.275 68.800 C 237.391 68.800,237.486 68.605,237.486 68.367 C 237.486 68.129,237.640 67.875,237.829 67.803 C 238.017 67.731,238.171 67.463,238.171 67.207 C 238.171 66.952,238.274 66.743,238.400 66.743 C 238.526 66.743,238.629 66.589,238.629 66.400 C 238.629 66.211,238.727 66.057,238.847 66.057 C 238.967 66.057,239.133 65.697,239.215 65.257 C 239.298 64.817,239.457 64.457,239.568 64.457 C 239.680 64.457,239.771 64.303,239.771 64.114 C 239.771 63.926,239.870 63.771,239.990 63.771 C 240.110 63.771,240.275 63.411,240.358 62.971 C 240.440 62.531,240.599 62.171,240.711 62.171 C 240.823 62.171,240.914 62.017,240.914 61.829 C 240.914 61.640,241.017 61.486,241.143 61.486 C 241.675 61.486,241.370 60.351,240.800 60.208 C 240.486 60.129,240.229 59.973,240.229 59.861 C 240.229 59.749,239.980 59.657,239.676 59.657 C 239.372 59.657,239.088 59.550,239.045 59.420 C 239.001 59.289,238.221 59.120,237.311 59.044 C 236.402 58.968,235.657 58.817,235.657 58.710 C 235.657 58.455,232.064 58.454,231.907 58.709 M172.114 99.429 L 172.114 138.057 180.000 138.057 L 187.886 138.057 187.886 99.429 L 187.886 60.800 180.000 60.800 L 172.114 60.800 172.114 99.429 " stroke="none" fill="#000000" fill-rule="evenodd"></path><path id="path1" d="M178.971 34.286 C 178.971 34.411,178.509 34.514,177.943 34.514 C 177.377 34.514,176.914 34.609,176.914 34.725 C 176.914 34.840,176.606 35.003,176.229 35.086 C 175.851 35.169,175.543 35.331,175.543 35.447 C 175.543 35.562,175.384 35.657,175.189 35.657 C 174.995 35.657,174.597 35.914,174.306 36.229 C 174.014 36.543,173.659 36.800,173.517 36.800 C 173.374 36.800,173.257 36.908,173.257 37.039 C 173.257 37.170,173.000 37.535,172.686 37.849 C 172.371 38.164,172.114 38.570,172.114 38.753 C 172.114 38.936,172.011 39.086,171.886 39.086 C 171.760 39.086,171.657 39.231,171.657 39.410 C 171.657 39.588,171.529 39.776,171.371 39.828 C 171.159 39.899,171.086 40.850,171.086 43.543 C 171.086 46.234,171.159 47.186,171.371 47.257 C 171.529 47.309,171.657 47.550,171.657 47.790 C 171.657 48.031,171.749 48.229,171.861 48.229 C 171.973 48.229,172.128 48.479,172.204 48.785 C 172.281 49.091,172.544 49.405,172.789 49.482 C 173.034 49.560,173.296 49.819,173.371 50.057 C 173.447 50.296,173.704 50.553,173.943 50.629 C 174.181 50.704,174.437 50.956,174.510 51.188 C 174.592 51.444,174.955 51.668,175.436 51.758 C 175.872 51.840,176.229 52.005,176.229 52.125 C 176.229 52.245,176.486 52.343,176.800 52.343 C 177.114 52.343,177.371 52.446,177.371 52.571 C 177.371 52.712,178.514 52.800,180.343 52.800 C 182.171 52.800,183.314 52.712,183.314 52.571 C 183.314 52.446,183.571 52.343,183.886 52.343 C 184.200 52.343,184.457 52.253,184.457 52.143 C 184.457 52.033,184.780 51.878,185.174 51.800 C 185.568 51.721,186.056 51.465,186.259 51.232 C 186.462 50.999,186.855 50.737,187.131 50.650 C 187.408 50.562,187.697 50.290,187.775 50.045 C 187.853 49.800,188.012 49.600,188.130 49.600 C 188.247 49.600,188.343 49.446,188.343 49.257 C 188.343 49.069,188.444 48.914,188.567 48.914 C 188.690 48.914,188.856 48.657,188.935 48.343 C 189.014 48.029,189.170 47.771,189.282 47.771 C 189.394 47.771,189.486 47.626,189.486 47.448 C 189.486 47.270,189.606 47.084,189.752 47.035 C 190.144 46.905,190.162 40.874,189.771 40.743 C 189.614 40.691,189.486 40.399,189.486 40.095 C 189.486 39.791,189.383 39.543,189.257 39.543 C 189.131 39.543,189.029 39.334,189.029 39.079 C 189.029 38.823,188.874 38.555,188.686 38.483 C 188.497 38.410,188.343 38.211,188.343 38.041 C 188.343 37.622,187.157 36.433,186.547 36.239 C 186.278 36.153,186.057 35.988,186.057 35.870 C 186.057 35.753,185.947 35.657,185.812 35.657 C 185.678 35.657,185.413 35.503,185.224 35.314 C 185.036 35.126,184.632 34.971,184.327 34.971 C 184.021 34.971,183.771 34.869,183.771 34.743 C 183.771 34.617,183.411 34.514,182.971 34.514 C 182.531 34.514,182.171 34.411,182.171 34.286 C 182.171 34.155,181.486 34.057,180.571 34.057 C 179.657 34.057,178.971 34.155,178.971 34.286 M26.057 130.714 C 26.057 130.823,25.646 130.979,25.143 131.059 C 24.640 131.140,24.229 131.307,24.229 131.431 C 24.229 131.556,24.074 131.657,23.886 131.657 C 23.697 131.657,23.543 131.760,23.543 131.886 C 23.543 132.011,23.377 132.114,23.175 132.114 C 22.666 132.114,20.390 134.474,20.211 135.187 C 20.131 135.509,19.973 135.771,19.861 135.771 C 19.749 135.771,19.657 135.969,19.657 136.210 C 19.657 136.450,19.529 136.690,19.371 136.743 C 19.157 136.814,19.086 137.879,19.086 141.029 C 19.086 144.178,19.157 145.243,19.371 145.314 C 19.529 145.367,19.657 145.555,19.657 145.733 C 19.657 145.911,19.760 146.057,19.886 146.057 C 20.011 146.057,20.114 146.207,20.114 146.390 C 20.114 146.820,21.180 147.886,21.610 147.886 C 21.793 147.886,21.943 147.680,21.943 147.429 C 21.943 147.177,21.840 146.971,21.714 146.971 C 21.575 146.971,21.486 145.905,21.486 144.229 C 21.486 142.720,21.579 141.486,21.693 141.486 C 21.807 141.486,21.971 140.971,22.057 140.343 C 22.144 139.714,22.308 139.200,22.421 139.200 C 22.535 139.200,22.629 139.046,22.629 138.857 C 22.629 138.669,22.724 138.514,22.842 138.514 C 22.959 138.514,23.119 138.314,23.196 138.069 C 23.274 137.824,23.533 137.561,23.771 137.486 C 24.010 137.410,24.269 137.148,24.346 136.903 C 24.424 136.658,24.738 136.395,25.044 136.319 C 25.350 136.242,25.600 136.087,25.600 135.975 C 25.600 135.863,25.797 135.771,26.038 135.771 C 26.279 135.771,26.514 135.658,26.560 135.520 C 26.606 135.382,27.129 135.215,27.722 135.148 C 28.315 135.081,28.800 134.937,28.800 134.827 C 28.800 134.718,30.086 134.629,31.657 134.629 C 33.229 134.629,34.514 134.717,34.514 134.824 C 34.514 134.932,35.363 135.090,36.400 135.176 C 37.437 135.262,38.320 135.431,38.362 135.552 C 38.465 135.849,40.229 135.833,40.229 135.535 C 40.229 135.180,38.890 133.943,38.506 133.943 C 38.322 133.943,38.171 133.851,38.171 133.739 C 38.171 133.627,37.914 133.471,37.600 133.392 C 37.286 133.313,37.029 133.148,37.029 133.024 C 37.029 132.901,36.874 132.800,36.686 132.800 C 36.497 132.800,36.343 132.702,36.343 132.582 C 36.343 132.462,35.983 132.296,35.543 132.213 C 35.103 132.131,34.743 131.972,34.743 131.860 C 34.743 131.749,34.486 131.657,34.171 131.657 C 33.857 131.657,33.600 131.562,33.600 131.445 C 33.600 131.328,33.034 131.162,32.343 131.076 C 31.651 130.989,31.086 130.828,31.086 130.717 C 31.086 130.605,29.954 130.514,28.571 130.514 C 27.189 130.514,26.057 130.604,26.057 130.714 M234.971 130.721 C 234.971 130.835,234.457 130.999,233.829 131.086 C 233.200 131.172,232.686 131.336,232.686 131.450 C 232.686 131.564,232.480 131.657,232.229 131.657 C 231.977 131.657,231.771 131.752,231.771 131.868 C 231.771 131.983,231.483 132.141,231.130 132.219 C 230.777 132.296,230.343 132.562,230.165 132.808 C 229.987 133.055,229.715 133.257,229.560 133.257 C 229.405 133.257,229.033 133.502,228.734 133.801 C 228.435 134.100,227.972 134.414,227.707 134.499 C 227.441 134.583,227.160 134.852,227.082 135.097 C 227.004 135.342,226.852 135.543,226.744 135.543 C 226.636 135.543,226.385 135.704,226.188 135.902 C 225.724 136.366,225.713 137.371,226.171 137.371 C 226.360 137.371,226.514 137.269,226.514 137.143 C 226.514 137.017,226.771 136.914,227.086 136.914 C 227.400 136.914,227.657 136.825,227.657 136.715 C 227.657 136.605,228.069 136.450,228.571 136.369 C 229.074 136.289,229.486 136.122,229.486 135.997 C 229.486 135.873,229.837 135.771,230.267 135.771 C 230.696 135.771,231.082 135.671,231.124 135.549 C 231.166 135.427,231.946 135.258,232.857 135.173 C 233.769 135.089,234.514 134.932,234.514 134.824 C 234.514 134.717,235.389 134.629,236.457 134.629 C 237.526 134.629,238.400 134.718,238.400 134.828 C 238.400 134.937,238.914 135.095,239.543 135.178 C 240.171 135.262,240.686 135.429,240.686 135.551 C 240.686 135.672,240.840 135.771,241.029 135.771 C 241.217 135.771,241.371 135.867,241.371 135.985 C 241.371 136.102,241.603 136.271,241.886 136.360 C 242.455 136.540,243.200 137.299,243.200 137.699 C 243.200 137.840,243.402 138.102,243.649 138.280 C 243.896 138.458,244.161 138.892,244.238 139.244 C 244.316 139.597,244.474 139.886,244.590 139.886 C 244.705 139.886,244.800 140.134,244.800 140.438 C 244.800 140.742,244.912 141.028,245.048 141.073 C 245.198 141.123,245.346 142.256,245.424 143.949 C 245.495 145.486,245.632 146.743,245.729 146.743 C 246.211 146.743,246.629 146.422,246.629 146.052 C 246.629 145.824,246.742 145.600,246.880 145.554 C 247.018 145.508,247.185 144.986,247.252 144.393 C 247.319 143.799,247.463 143.314,247.573 143.314 C 247.682 143.314,247.771 142.131,247.771 140.686 C 247.771 139.240,247.678 138.057,247.564 138.057 C 247.450 138.057,247.286 137.543,247.200 136.914 C 247.114 136.286,246.950 135.771,246.836 135.771 C 246.722 135.771,246.629 135.617,246.629 135.429 C 246.629 135.240,246.533 135.086,246.415 135.086 C 246.298 135.086,246.132 134.865,246.046 134.595 C 245.863 134.016,243.966 132.114,243.572 132.114 C 243.423 132.114,243.151 131.906,242.967 131.651 C 242.781 131.393,242.253 131.127,241.774 131.050 C 241.301 130.975,240.914 130.823,240.914 130.714 C 240.914 130.604,239.577 130.514,237.943 130.514 C 236.309 130.514,234.971 130.607,234.971 130.721 M239.543 139.230 C 239.543 139.373,239.352 139.656,239.118 139.859 C 238.885 140.062,238.623 140.455,238.535 140.731 C 238.448 141.008,238.176 141.297,237.931 141.375 C 237.686 141.453,237.486 141.701,237.486 141.926 C 237.486 142.152,237.229 142.529,236.914 142.765 C 236.600 143.001,236.343 143.320,236.343 143.474 C 236.343 143.628,235.931 144.161,235.429 144.659 C 234.926 145.157,234.514 145.675,234.514 145.811 C 234.514 145.946,234.418 146.057,234.301 146.057 C 234.184 146.057,234.024 146.258,233.947 146.503 C 233.869 146.748,233.610 147.010,233.371 147.086 C 233.133 147.161,232.876 147.419,232.800 147.657 C 232.724 147.896,232.467 148.153,232.229 148.229 C 231.990 148.304,231.733 148.561,231.657 148.800 C 231.581 149.039,231.324 149.296,231.086 149.371 C 230.847 149.447,230.590 149.704,230.514 149.943 C 230.439 150.181,230.181 150.439,229.943 150.514 C 229.704 150.590,229.447 150.847,229.371 151.086 C 229.296 151.324,229.039 151.581,228.800 151.657 C 228.561 151.733,228.304 151.990,228.229 152.229 C 228.153 152.467,227.896 152.724,227.657 152.800 C 227.419 152.876,227.161 153.133,227.086 153.371 C 227.010 153.610,226.725 153.876,226.451 153.963 C 226.178 154.049,225.519 154.569,224.986 155.117 C 224.453 155.666,223.911 156.114,223.782 156.114 C 223.653 156.114,223.252 156.423,222.892 156.800 C 222.531 157.177,222.074 157.486,221.876 157.486 C 221.678 157.486,221.453 157.686,221.375 157.931 C 221.297 158.176,221.033 158.440,220.788 158.518 C 220.543 158.596,220.343 158.755,220.343 158.873 C 220.343 158.990,220.189 159.086,220.000 159.086 C 219.811 159.086,219.657 159.187,219.657 159.310 C 219.657 159.433,219.420 159.594,219.130 159.667 C 218.840 159.739,218.414 160.050,218.183 160.357 C 217.953 160.663,217.580 160.914,217.355 160.914 C 217.129 160.914,216.880 161.120,216.800 161.371 C 216.720 161.624,216.454 161.829,216.206 161.829 C 215.959 161.829,215.698 161.983,215.626 162.171 C 215.553 162.360,215.310 162.514,215.086 162.514 C 214.861 162.514,214.618 162.669,214.546 162.857 C 214.474 163.046,214.205 163.200,213.950 163.200 C 213.695 163.200,213.486 163.303,213.486 163.429 C 213.486 163.554,213.331 163.657,213.143 163.657 C 212.954 163.657,212.800 163.753,212.800 163.870 C 212.800 163.988,212.569 164.157,212.286 164.246 C 212.003 164.335,211.611 164.592,211.415 164.817 C 211.219 165.042,210.782 165.296,210.444 165.381 C 210.105 165.466,209.829 165.627,209.829 165.739 C 209.829 165.851,209.634 165.943,209.396 165.943 C 209.158 165.943,208.904 166.097,208.832 166.286 C 208.759 166.474,208.491 166.629,208.236 166.629 C 207.980 166.629,207.771 166.731,207.771 166.857 C 207.771 166.983,207.617 167.086,207.429 167.086 C 207.240 167.086,207.086 167.184,207.086 167.304 C 207.086 167.424,206.726 167.590,206.286 167.672 C 205.846 167.755,205.486 167.914,205.486 168.025 C 205.486 168.137,205.331 168.229,205.143 168.229 C 204.954 168.229,204.800 168.327,204.800 168.447 C 204.800 168.567,204.440 168.733,204.000 168.815 C 203.560 168.898,203.200 169.057,203.200 169.168 C 203.200 169.280,203.046 169.371,202.857 169.371 C 202.669 169.371,202.514 169.470,202.514 169.590 C 202.514 169.710,202.154 169.875,201.714 169.958 C 201.274 170.040,200.914 170.199,200.914 170.311 C 200.914 170.423,200.760 170.514,200.571 170.514 C 200.383 170.514,200.229 170.612,200.229 170.732 C 200.229 170.853,199.869 171.018,199.429 171.101 C 198.989 171.183,198.629 171.342,198.629 171.454 C 198.629 171.566,198.474 171.657,198.286 171.657 C 198.097 171.657,197.943 171.747,197.943 171.857 C 197.943 171.966,197.531 172.122,197.029 172.202 C 196.526 172.282,196.114 172.450,196.114 172.574 C 196.114 172.698,195.857 172.800,195.543 172.800 C 195.229 172.800,194.971 172.897,194.971 173.015 C 194.971 173.133,194.509 173.299,193.943 173.383 C 193.377 173.468,192.914 173.629,192.914 173.740 C 192.914 173.852,192.760 173.943,192.571 173.943 C 192.383 173.943,192.229 174.036,192.229 174.150 C 192.229 174.264,191.714 174.428,191.086 174.514 C 190.457 174.601,189.943 174.765,189.943 174.879 C 189.943 174.993,189.789 175.086,189.600 175.086 C 189.411 175.086,189.257 175.179,189.257 175.293 C 189.257 175.407,188.743 175.571,188.114 175.657 C 187.486 175.744,186.971 175.908,186.971 176.021 C 186.971 176.135,186.714 176.229,186.400 176.229 C 186.086 176.229,185.829 176.326,185.829 176.446 C 185.829 176.565,185.211 176.733,184.457 176.818 C 183.703 176.904,183.086 177.063,183.086 177.172 C 183.086 177.282,182.829 177.371,182.514 177.371 C 182.200 177.371,181.943 177.461,181.943 177.570 C 181.943 177.680,181.326 177.839,180.571 177.925 C 179.817 178.010,179.200 178.178,179.200 178.297 C 179.200 178.417,178.891 178.514,178.514 178.514 C 178.137 178.514,177.829 178.607,177.829 178.720 C 177.829 178.833,177.109 178.997,176.229 179.086 C 175.349 179.174,174.629 179.339,174.629 179.452 C 174.629 179.565,174.320 179.657,173.943 179.657 C 173.566 179.657,173.257 179.748,173.257 179.859 C 173.257 179.970,172.383 180.133,171.314 180.222 C 170.246 180.311,169.371 180.478,169.371 180.592 C 169.371 180.706,168.960 180.800,168.457 180.800 C 167.954 180.800,167.543 180.892,167.543 181.004 C 167.543 181.116,166.514 181.281,165.257 181.371 C 164.000 181.461,162.971 181.627,162.971 181.739 C 162.971 181.851,162.457 181.943,161.829 181.943 C 161.200 181.943,160.686 182.033,160.686 182.144 C 160.686 182.254,159.297 182.419,157.600 182.510 C 155.903 182.601,154.514 182.768,154.514 182.881 C 154.514 182.993,153.597 183.086,152.476 183.086 C 151.049 183.086,150.410 183.171,150.343 183.371 C 150.268 183.596,146.784 183.657,133.943 183.657 C 121.102 183.657,117.618 183.596,117.543 183.371 C 117.477 183.173,116.860 183.086,115.524 183.086 C 114.466 183.086,113.600 182.996,113.600 182.886 C 113.600 182.777,112.160 182.613,110.400 182.522 C 108.640 182.432,107.200 182.264,107.200 182.150 C 107.200 182.036,106.686 181.943,106.057 181.943 C 105.429 181.943,104.914 181.851,104.914 181.739 C 104.914 181.627,103.886 181.461,102.629 181.371 C 101.371 181.281,100.343 181.116,100.343 181.004 C 100.343 180.892,99.931 180.800,99.429 180.800 C 98.926 180.800,98.514 180.709,98.514 180.598 C 98.514 180.488,97.640 180.324,96.571 180.235 C 95.503 180.146,94.629 179.980,94.629 179.865 C 94.629 179.751,94.269 179.657,93.829 179.657 C 93.389 179.657,93.029 179.562,93.029 179.447 C 93.029 179.331,92.360 179.165,91.543 179.077 C 90.726 178.990,90.057 178.827,90.057 178.716 C 90.057 178.605,89.697 178.514,89.257 178.514 C 88.817 178.514,88.457 178.423,88.457 178.312 C 88.457 178.201,87.891 178.039,87.200 177.953 C 86.509 177.866,85.943 177.700,85.943 177.584 C 85.943 177.467,85.583 177.371,85.143 177.371 C 84.703 177.371,84.343 177.278,84.343 177.164 C 84.343 177.050,83.829 176.886,83.200 176.800 C 82.571 176.714,82.057 176.550,82.057 176.436 C 82.057 176.322,81.800 176.229,81.486 176.229 C 81.171 176.229,80.914 176.135,80.914 176.021 C 80.914 175.908,80.400 175.744,79.771 175.657 C 79.143 175.571,78.629 175.407,78.629 175.293 C 78.629 175.179,78.371 175.086,78.057 175.086 C 77.743 175.086,77.486 174.993,77.486 174.879 C 77.486 174.765,76.971 174.601,76.343 174.514 C 75.714 174.428,75.200 174.264,75.200 174.150 C 75.200 174.036,75.046 173.943,74.857 173.943 C 74.669 173.943,74.514 173.852,74.514 173.740 C 74.514 173.629,74.051 173.468,73.486 173.383 C 72.920 173.299,72.457 173.133,72.457 173.015 C 72.457 172.897,72.200 172.800,71.886 172.800 C 71.571 172.800,71.314 172.698,71.314 172.574 C 71.314 172.450,70.903 172.282,70.400 172.202 C 69.897 172.122,69.486 171.966,69.486 171.857 C 69.486 171.747,69.331 171.657,69.143 171.657 C 68.954 171.657,68.800 171.566,68.800 171.454 C 68.800 171.342,68.440 171.183,68.000 171.101 C 67.560 171.018,67.200 170.853,67.200 170.732 C 67.200 170.612,66.943 170.514,66.629 170.514 C 66.314 170.514,66.057 170.416,66.057 170.296 C 66.057 170.176,65.697 170.010,65.257 169.928 C 64.817 169.845,64.457 169.686,64.457 169.575 C 64.457 169.463,64.303 169.371,64.114 169.371 C 63.926 169.371,63.771 169.273,63.771 169.153 C 63.771 169.033,63.411 168.867,62.971 168.785 C 62.531 168.702,62.171 168.543,62.171 168.432 C 62.171 168.320,62.017 168.229,61.829 168.229 C 61.640 168.229,61.486 168.130,61.486 168.010 C 61.486 167.890,61.126 167.725,60.686 167.642 C 60.246 167.560,59.886 167.401,59.886 167.289 C 59.886 167.177,59.731 167.086,59.543 167.086 C 59.354 167.086,59.200 166.985,59.200 166.861 C 59.200 166.738,58.943 166.573,58.629 166.494 C 58.314 166.415,58.057 166.259,58.057 166.147 C 58.057 166.035,57.903 165.943,57.714 165.943 C 57.526 165.943,57.371 165.840,57.371 165.714 C 57.371 165.589,57.162 165.486,56.907 165.486 C 56.652 165.486,56.384 165.331,56.311 165.143 C 56.239 164.954,55.985 164.800,55.747 164.800 C 55.509 164.800,55.314 164.708,55.314 164.596 C 55.314 164.484,55.038 164.323,54.699 164.238 C 54.361 164.153,53.924 163.900,53.728 163.675 C 53.532 163.450,53.140 163.192,52.857 163.103 C 52.574 163.014,52.343 162.845,52.343 162.727 C 52.343 162.610,52.189 162.514,52.000 162.514 C 51.811 162.514,51.657 162.418,51.657 162.301 C 51.657 162.184,51.426 162.015,51.143 161.926 C 50.860 161.836,50.474 161.587,50.286 161.371 C 50.097 161.156,49.711 160.907,49.429 160.817 C 49.146 160.728,48.914 160.559,48.914 160.442 C 48.914 160.324,48.760 160.229,48.571 160.229 C 48.383 160.229,48.229 160.133,48.229 160.015 C 48.229 159.898,48.006 159.732,47.734 159.645 C 47.461 159.559,46.994 159.243,46.695 158.944 C 46.395 158.645,46.025 158.400,45.872 158.400 C 45.719 158.400,45.401 158.143,45.165 157.829 C 44.929 157.514,44.552 157.257,44.326 157.257 C 44.101 157.257,43.853 157.057,43.775 156.812 C 43.697 156.567,43.433 156.303,43.188 156.225 C 42.943 156.147,42.743 155.988,42.743 155.870 C 42.743 155.753,42.632 155.657,42.496 155.657 C 42.361 155.657,41.843 155.246,41.345 154.743 C 40.847 154.240,40.341 153.829,40.221 153.829 C 40.102 153.829,39.046 152.865,37.876 151.687 C 36.705 150.509,35.527 149.475,35.257 149.390 C 34.987 149.304,34.696 149.014,34.611 148.745 C 34.526 148.477,33.595 147.399,32.542 146.352 C 31.490 145.304,30.629 144.344,30.629 144.219 C 30.629 144.094,30.283 143.656,29.860 143.245 C 29.437 142.834,29.020 142.276,28.934 142.004 C 28.847 141.732,28.576 141.445,28.331 141.368 C 28.086 141.290,27.886 141.064,27.886 140.866 C 27.886 140.476,26.663 139.200,26.288 139.200 C 26.161 139.200,26.057 139.457,26.057 139.771 C 26.057 140.086,26.160 140.343,26.286 140.343 C 26.411 140.343,26.514 140.497,26.514 140.686 C 26.514 140.874,26.606 141.029,26.717 141.029 C 26.829 141.029,26.988 141.389,27.071 141.829 C 27.153 142.269,27.319 142.629,27.439 142.629 C 27.559 142.629,27.657 142.783,27.657 142.971 C 27.657 143.160,27.760 143.314,27.886 143.314 C 28.011 143.314,28.114 143.523,28.114 143.779 C 28.114 144.034,28.269 144.302,28.457 144.374 C 28.646 144.447,28.800 144.701,28.800 144.939 C 28.800 145.177,28.892 145.371,29.004 145.371 C 29.116 145.371,29.272 145.629,29.351 145.943 C 29.430 146.257,29.595 146.514,29.719 146.514 C 29.842 146.514,29.943 146.669,29.943 146.857 C 29.943 147.046,30.039 147.200,30.156 147.200 C 30.273 147.200,30.442 147.431,30.532 147.714 C 30.621 147.997,30.870 148.383,31.086 148.571 C 31.301 148.760,31.551 149.146,31.640 149.429 C 31.729 149.711,31.898 149.943,32.015 149.943 C 32.133 149.943,32.229 150.060,32.229 150.202 C 32.229 150.345,32.486 150.700,32.800 150.991 C 33.114 151.283,33.371 151.631,33.371 151.765 C 33.371 151.898,33.717 152.344,34.140 152.755 C 34.563 153.166,34.980 153.724,35.066 153.996 C 35.153 154.268,35.419 154.553,35.657 154.629 C 35.896 154.704,36.153 154.961,36.229 155.200 C 36.304 155.439,36.561 155.696,36.800 155.771 C 37.039 155.847,37.303 156.127,37.388 156.394 C 37.588 157.025,42.975 162.412,43.606 162.612 C 43.873 162.697,44.153 162.961,44.229 163.200 C 44.304 163.439,44.561 163.696,44.800 163.771 C 45.039 163.847,45.296 164.104,45.371 164.343 C 45.447 164.581,45.733 164.848,46.006 164.934 C 46.279 165.021,46.938 165.540,47.471 166.089 C 48.004 166.637,48.546 167.086,48.675 167.086 C 48.805 167.086,49.205 167.394,49.566 167.771 C 49.926 168.149,50.383 168.457,50.581 168.457 C 50.779 168.457,51.004 168.658,51.082 168.903 C 51.160 169.148,51.450 169.419,51.726 169.507 C 52.002 169.594,52.395 169.856,52.598 170.090 C 52.802 170.323,53.080 170.514,53.216 170.514 C 53.353 170.514,53.710 170.759,54.009 171.058 C 54.308 171.358,54.776 171.673,55.048 171.759 C 55.320 171.846,55.543 172.012,55.543 172.130 C 55.543 172.247,55.697 172.343,55.886 172.343 C 56.074 172.343,56.229 172.439,56.229 172.556 C 56.229 172.673,56.460 172.842,56.743 172.932 C 57.026 173.021,57.411 173.270,57.600 173.486 C 57.789 173.701,58.174 173.951,58.457 174.040 C 58.740 174.129,58.971 174.298,58.971 174.415 C 58.971 174.533,59.126 174.629,59.314 174.629 C 59.503 174.629,59.657 174.720,59.657 174.832 C 59.657 174.944,59.914 175.101,60.229 175.180 C 60.543 175.258,60.800 175.424,60.800 175.547 C 60.800 175.671,60.954 175.771,61.143 175.771 C 61.331 175.771,61.486 175.874,61.486 176.000 C 61.486 176.126,61.695 176.229,61.950 176.229 C 62.205 176.229,62.474 176.383,62.546 176.571 C 62.618 176.760,62.872 176.914,63.110 176.914 C 63.348 176.914,63.543 177.006,63.543 177.118 C 63.543 177.230,63.800 177.386,64.114 177.465 C 64.429 177.544,64.686 177.710,64.686 177.833 C 64.686 177.956,64.840 178.057,65.029 178.057 C 65.217 178.057,65.371 178.155,65.371 178.275 C 65.371 178.395,65.731 178.561,66.171 178.644 C 66.611 178.726,66.971 178.885,66.971 178.997 C 66.971 179.109,67.126 179.200,67.314 179.200 C 67.503 179.200,67.657 179.298,67.657 179.418 C 67.657 179.538,68.017 179.704,68.457 179.787 C 68.897 179.869,69.257 180.028,69.257 180.140 C 69.257 180.251,69.411 180.343,69.600 180.343 C 69.789 180.343,69.943 180.441,69.943 180.561 C 69.943 180.681,70.303 180.847,70.743 180.929 C 71.183 181.012,71.543 181.171,71.543 181.283 C 71.543 181.394,71.697 181.486,71.886 181.486 C 72.074 181.486,72.229 181.584,72.229 181.704 C 72.229 181.824,72.589 181.990,73.029 182.072 C 73.469 182.155,73.829 182.314,73.829 182.425 C 73.829 182.537,73.983 182.629,74.171 182.629 C 74.360 182.629,74.514 182.730,74.514 182.854 C 74.514 182.979,74.926 183.146,75.429 183.227 C 75.931 183.307,76.343 183.462,76.343 183.572 C 76.343 183.682,76.549 183.771,76.800 183.771 C 77.051 183.771,77.257 183.873,77.257 183.997 C 77.257 184.122,77.669 184.289,78.171 184.369 C 78.674 184.450,79.086 184.605,79.086 184.715 C 79.086 184.825,79.240 184.914,79.429 184.914 C 79.617 184.914,79.771 185.005,79.771 185.117 C 79.771 185.228,80.234 185.389,80.800 185.474 C 81.366 185.559,81.829 185.725,81.829 185.843 C 81.829 185.961,82.086 186.057,82.400 186.057 C 82.714 186.057,82.971 186.147,82.971 186.257 C 82.971 186.366,83.383 186.522,83.886 186.602 C 84.389 186.682,84.800 186.850,84.800 186.974 C 84.800 187.098,85.057 187.200,85.371 187.200 C 85.686 187.200,85.943 187.293,85.943 187.407 C 85.943 187.521,86.457 187.685,87.086 187.771 C 87.714 187.858,88.229 188.022,88.229 188.136 C 88.229 188.250,88.486 188.343,88.800 188.343 C 89.114 188.343,89.371 188.441,89.371 188.560 C 89.371 188.680,89.989 188.847,90.743 188.932 C 91.497 189.018,92.114 189.177,92.114 189.287 C 92.114 189.396,92.371 189.486,92.686 189.486 C 93.000 189.486,93.257 189.581,93.257 189.698 C 93.257 189.815,93.823 189.981,94.514 190.067 C 95.206 190.153,95.771 190.315,95.771 190.426 C 95.771 190.538,96.131 190.629,96.571 190.629 C 97.011 190.629,97.371 190.719,97.371 190.831 C 97.371 190.942,98.040 191.104,98.857 191.192 C 99.674 191.279,100.343 191.445,100.343 191.561 C 100.343 191.677,100.703 191.771,101.143 191.771 C 101.583 191.771,101.943 191.865,101.943 191.979 C 101.943 192.094,102.817 192.260,103.886 192.349 C 104.954 192.438,105.829 192.602,105.829 192.713 C 105.829 192.824,106.240 192.914,106.743 192.914 C 107.246 192.914,107.657 193.008,107.657 193.124 C 107.657 193.239,108.789 193.406,110.171 193.496 C 111.554 193.585,112.686 193.748,112.686 193.858 C 112.686 193.968,113.243 194.057,113.924 194.057 C 114.605 194.057,115.196 194.153,115.238 194.270 C 115.280 194.387,116.934 194.556,118.914 194.646 C 120.894 194.735,122.514 194.897,122.514 195.004 C 122.514 195.112,127.709 195.200,134.057 195.200 C 140.406 195.200,145.600 195.113,145.600 195.006 C 145.600 194.899,147.220 194.740,149.200 194.652 C 151.180 194.565,152.834 194.395,152.876 194.275 C 152.918 194.155,153.561 194.057,154.305 194.057 C 155.049 194.057,155.657 193.967,155.657 193.856 C 155.657 193.745,156.737 193.581,158.057 193.491 C 159.377 193.401,160.457 193.234,160.457 193.121 C 160.457 193.007,160.920 192.914,161.486 192.914 C 162.051 192.914,162.514 192.824,162.514 192.713 C 162.514 192.602,163.286 192.439,164.229 192.350 C 165.171 192.262,165.943 192.095,165.943 191.980 C 165.943 191.866,166.354 191.771,166.857 191.771 C 167.360 191.771,167.771 191.681,167.771 191.569 C 167.771 191.458,168.440 191.296,169.257 191.208 C 170.074 191.121,170.743 190.955,170.743 190.839 C 170.743 190.723,171.103 190.629,171.543 190.629 C 171.983 190.629,172.343 190.531,172.343 190.411 C 172.343 190.292,172.960 190.124,173.714 190.039 C 174.469 189.954,175.086 189.794,175.086 189.685 C 175.086 189.575,175.343 189.486,175.657 189.486 C 175.971 189.486,176.229 189.393,176.229 189.279 C 176.229 189.165,176.743 189.001,177.371 188.914 C 178.000 188.828,178.514 188.664,178.514 188.550 C 178.514 188.436,178.823 188.343,179.200 188.343 C 179.577 188.343,179.886 188.246,179.886 188.128 C 179.886 188.010,180.349 187.844,180.914 187.759 C 181.480 187.675,181.943 187.514,181.943 187.403 C 181.943 187.291,182.200 187.200,182.514 187.200 C 182.829 187.200,183.086 187.107,183.086 186.993 C 183.086 186.879,183.600 186.715,184.229 186.629 C 184.857 186.542,185.371 186.378,185.371 186.264 C 185.371 186.150,185.526 186.057,185.714 186.057 C 185.903 186.057,186.057 185.967,186.057 185.858 C 186.057 185.748,186.469 185.593,186.971 185.512 C 187.474 185.432,187.886 185.264,187.886 185.140 C 187.886 185.016,188.143 184.914,188.457 184.914 C 188.771 184.914,189.029 184.823,189.029 184.711 C 189.029 184.599,189.389 184.440,189.829 184.358 C 190.269 184.275,190.629 184.110,190.629 183.990 C 190.629 183.870,190.783 183.771,190.971 183.771 C 191.160 183.771,191.314 183.680,191.314 183.569 C 191.314 183.457,191.777 183.297,192.343 183.212 C 192.909 183.127,193.371 182.961,193.371 182.843 C 193.371 182.725,193.526 182.629,193.714 182.629 C 193.903 182.629,194.057 182.530,194.057 182.410 C 194.057 182.290,194.417 182.125,194.857 182.042 C 195.297 181.960,195.657 181.801,195.657 181.689 C 195.657 181.577,195.811 181.486,196.000 181.486 C 196.189 181.486,196.343 181.388,196.343 181.268 C 196.343 181.147,196.703 180.982,197.143 180.899 C 197.583 180.817,197.943 180.658,197.943 180.546 C 197.943 180.434,198.097 180.343,198.286 180.343 C 198.474 180.343,198.629 180.245,198.629 180.125 C 198.629 180.005,198.989 179.839,199.429 179.756 C 199.869 179.674,200.229 179.515,200.229 179.403 C 200.229 179.291,200.383 179.200,200.571 179.200 C 200.760 179.200,200.914 179.108,200.914 178.996 C 200.914 178.884,201.171 178.728,201.486 178.649 C 201.800 178.570,202.057 178.405,202.057 178.281 C 202.057 178.158,202.211 178.057,202.400 178.057 C 202.589 178.057,202.743 177.967,202.743 177.857 C 202.743 177.747,203.065 177.593,203.459 177.514 C 203.853 177.435,204.342 177.180,204.545 176.947 C 204.748 176.713,205.171 176.442,205.486 176.343 C 205.800 176.244,206.211 175.987,206.400 175.771 C 206.589 175.556,206.974 175.307,207.257 175.217 C 207.540 175.128,207.771 174.959,207.771 174.842 C 207.771 174.724,207.926 174.629,208.114 174.629 C 208.303 174.629,208.457 174.533,208.457 174.415 C 208.457 174.298,208.689 174.129,208.971 174.040 C 209.254 173.951,209.640 173.701,209.829 173.486 C 210.017 173.270,210.403 173.021,210.686 172.932 C 210.969 172.842,211.200 172.673,211.200 172.556 C 211.200 172.439,211.354 172.343,211.543 172.343 C 211.731 172.343,211.886 172.247,211.886 172.130 C 211.886 172.012,212.108 171.846,212.381 171.759 C 212.653 171.673,213.120 171.358,213.420 171.058 C 213.719 170.759,214.089 170.514,214.242 170.514 C 214.395 170.514,214.713 170.257,214.949 169.943 C 215.185 169.629,215.563 169.371,215.788 169.371 C 216.013 169.371,216.261 169.171,216.339 168.926 C 216.417 168.681,216.704 168.410,216.977 168.323 C 217.250 168.236,217.910 167.717,218.443 167.168 C 218.976 166.620,219.516 166.171,219.644 166.171 C 219.772 166.171,220.433 165.606,221.113 164.914 C 221.794 164.223,222.509 163.657,222.703 163.657 C 222.896 163.657,223.119 163.457,223.196 163.212 C 223.274 162.967,223.533 162.704,223.771 162.629 C 224.010 162.553,224.267 162.296,224.343 162.057 C 224.419 161.819,224.676 161.561,224.914 161.486 C 225.153 161.410,225.410 161.153,225.486 160.914 C 225.561 160.676,225.819 160.419,226.057 160.343 C 226.296 160.267,226.553 160.010,226.629 159.771 C 226.704 159.533,226.961 159.276,227.200 159.200 C 227.439 159.124,227.704 158.842,227.789 158.572 C 227.875 158.302,228.549 157.484,229.287 156.752 C 230.025 156.021,230.629 155.317,230.629 155.188 C 230.629 155.059,231.040 154.562,231.543 154.083 C 232.046 153.605,232.457 153.050,232.457 152.851 C 232.457 152.651,232.658 152.424,232.903 152.347 C 233.148 152.269,233.419 151.979,233.507 151.703 C 233.594 151.426,233.842 151.046,234.057 150.857 C 234.273 150.669,234.522 150.283,234.611 150.000 C 234.701 149.717,234.870 149.486,234.987 149.486 C 235.104 149.486,235.200 149.331,235.200 149.143 C 235.200 148.954,235.296 148.800,235.413 148.800 C 235.530 148.800,235.699 148.569,235.789 148.286 C 235.878 148.003,236.142 147.605,236.375 147.402 C 236.608 147.199,236.863 146.713,236.941 146.323 C 237.019 145.933,237.266 145.556,237.489 145.485 C 237.728 145.409,237.956 145.031,238.044 144.564 C 238.125 144.128,238.290 143.771,238.410 143.771 C 238.530 143.771,238.629 143.617,238.629 143.429 C 238.629 143.240,238.720 143.086,238.832 143.086 C 238.943 143.086,239.102 142.726,239.185 142.286 C 239.267 141.846,239.433 141.486,239.553 141.486 C 239.673 141.486,239.771 141.229,239.771 140.914 C 239.771 140.600,239.874 140.343,240.000 140.343 C 240.126 140.343,240.229 140.034,240.229 139.657 C 240.229 139.200,240.114 138.971,239.886 138.971 C 239.697 138.971,239.543 139.088,239.543 139.230 " stroke="none" fill="#000000" fill-rule="evenodd"></path></g></svg>