<svg id="svg" version="1.1" xmlns="http://www.w3.org/2000/svg" xmlns:xlink="http://www.w3.org/1999/xlink" width="400" height="400" viewBox="0, 0, 400,400"><g id="svgg"><path id="path0" d="M184.200 5.254 C 158.606 7.071,129.776 15.120,108.931 26.267 C 68.682 47.791,40.709 75.962,20.816 115.007 C -7.477 170.536,-7.217 241.114,21.482 296.000 C 45.494 341.922,84.604 376.534,131.000 392.923 C 141.544 396.648,146.518 395.826,149.729 389.827 C 150.463 388.456,150.965 347.996,150.257 347.348 C 150.225 347.320,148.220 347.639,145.800 348.057 C 115.797 353.241,91.352 344.204,83.429 325.000 C 77.080 309.611,70.102 299.964,61.800 295.096 C 55.120 291.179,51.449 285.509,54.650 284.050 C 64.489 279.567,82.446 288.285,91.400 301.892 C 92.670 303.821,94.539 306.660,95.554 308.200 C 100.057 315.031,107.667 321.089,115.072 323.738 L 118.600 325.000 126.800 324.988 C 135.419 324.976,138.714 324.550,144.397 322.711 C 149.064 321.200,151.200 320.094,151.200 319.188 C 151.200 313.098,156.304 301.327,161.368 295.737 C 162.596 294.382,163.600 293.176,163.600 293.055 C 163.600 292.808,162.887 292.685,156.400 291.805 C 99.872 284.140,72.824 252.944,72.753 195.327 C 72.727 174.204,78.266 158.428,90.965 143.459 L 93.202 140.822 92.224 138.225 C 87.435 125.502,87.784 108.813,93.170 92.989 C 95.192 87.050,94.763 87.392,100.121 87.440 C 110.045 87.529,129.863 95.394,145.075 105.280 L 149.974 108.464 155.687 107.056 C 184.890 99.859,216.235 99.930,245.094 107.259 L 249.987 108.502 255.718 104.892 C 274.510 93.057,294.626 85.650,302.996 87.484 L 304.592 87.834 306.260 92.792 C 311.745 109.094,312.201 123.821,307.637 137.297 L 306.453 140.795 308.726 143.425 C 322.332 159.164,328.174 178.173,326.808 202.254 C 323.718 256.691,297.736 284.133,241.854 291.981 C 235.273 292.905,235.470 292.780,237.493 294.742 C 242.512 299.613,246.232 307.004,247.791 315.200 C 248.146 317.070,248.551 318.960,248.691 319.400 C 248.830 319.840,249.047 335.410,249.172 354.000 L 249.400 387.800 250.486 389.860 C 253.224 395.050,258.720 396.518,266.000 394.004 C 336.724 369.582,388.498 306.443,398.349 232.600 C 415.393 104.847,312.972 -3.886,184.200 5.254 " stroke="none" fill="#8699b8" fill-rule="evenodd"></path><path id="path1" d="" stroke="none" fill="#080404" fill-rule="evenodd"></path></g></svg>