<svg id="svg" version="1.1" xmlns="http://www.w3.org/2000/svg" xmlns:xlink="http://www.w3.org/1999/xlink" width="400" height="400" viewBox="0, 0, 400,400"><g id="svgg"><path id="path0" d="M30.300 0.290 C 29.475 0.377,28.800 0.617,28.800 0.824 C 28.800 1.031,28.260 1.200,27.600 1.200 C 26.940 1.200,26.400 1.380,26.400 1.600 C 26.400 1.820,25.860 2.000,25.200 2.000 C 24.540 2.000,24.000 2.180,24.000 2.400 C 24.000 2.620,23.640 2.800,23.200 2.800 C 22.760 2.800,22.400 2.980,22.400 3.200 C 22.400 3.420,22.164 3.600,21.875 3.600 C 21.587 3.600,20.964 3.960,20.492 4.400 C 20.020 4.840,19.356 5.200,19.017 5.200 C 18.678 5.200,18.400 5.380,18.400 5.600 C 18.400 5.820,18.112 6.000,17.760 6.000 C 17.409 6.000,16.617 6.540,16.000 7.200 C 15.383 7.860,14.675 8.400,14.426 8.400 C 13.835 8.400,8.400 13.835,8.400 14.426 C 8.400 14.675,7.860 15.383,7.200 16.000 C 6.540 16.617,6.000 17.409,6.000 17.760 C 6.000 18.112,5.820 18.400,5.600 18.400 C 5.380 18.400,5.200 18.678,5.200 19.017 C 5.200 19.356,4.840 20.020,4.400 20.492 C 3.960 20.964,3.600 21.587,3.600 21.875 C 3.600 22.164,3.420 22.400,3.200 22.400 C 2.980 22.400,2.800 22.760,2.800 23.200 C 2.800 23.640,2.620 24.000,2.400 24.000 C 2.180 24.000,2.000 24.540,2.000 25.200 C 2.000 25.860,1.820 26.400,1.600 26.400 C 1.380 26.400,1.200 26.925,1.200 27.567 C 1.200 28.208,0.975 28.808,0.700 28.900 C -0.036 29.145,-0.036 370.524,0.700 371.260 C 0.975 371.535,1.200 372.163,1.200 372.656 C 1.200 373.149,1.380 373.664,1.600 373.800 C 1.820 373.936,2.000 374.487,2.000 375.024 C 2.000 375.561,2.180 376.000,2.400 376.000 C 2.620 376.000,2.800 376.360,2.800 376.800 C 2.800 377.240,2.980 377.600,3.200 377.600 C 3.420 377.600,3.600 377.836,3.600 378.125 C 3.600 378.413,3.960 379.036,4.400 379.508 C 4.840 379.980,5.200 380.644,5.200 380.983 C 5.200 381.322,5.380 381.600,5.600 381.600 C 5.820 381.600,6.000 381.888,6.000 382.240 C 6.000 382.591,6.540 383.383,7.200 384.000 C 7.860 384.617,8.400 385.296,8.400 385.510 C 8.400 386.171,13.198 391.145,14.116 391.437 C 14.594 391.588,15.465 392.227,16.052 392.856 C 16.640 393.485,17.409 394.000,17.760 394.000 C 18.112 394.000,18.400 394.180,18.400 394.400 C 18.400 394.620,18.678 394.800,19.017 394.800 C 19.356 394.800,20.020 395.160,20.492 395.600 C 20.964 396.040,21.587 396.400,21.875 396.400 C 22.164 396.400,22.400 396.580,22.400 396.800 C 22.400 397.020,22.760 397.200,23.200 397.200 C 23.640 397.200,24.000 397.380,24.000 397.600 C 24.000 397.820,24.540 398.000,25.200 398.000 C 25.860 398.000,26.400 398.180,26.400 398.400 C 26.400 398.620,26.814 398.800,27.320 398.800 C 27.826 398.800,28.465 399.025,28.740 399.300 C 29.476 400.036,370.524 400.036,371.260 399.300 C 371.535 399.025,372.163 398.800,372.656 398.800 C 373.149 398.800,373.664 398.620,373.800 398.400 C 373.936 398.180,374.487 398.000,375.024 398.000 C 375.561 398.000,376.000 397.820,376.000 397.600 C 376.000 397.380,376.360 397.200,376.800 397.200 C 377.240 397.200,377.600 397.020,377.600 396.800 C 377.600 396.580,377.836 396.400,378.125 396.400 C 378.413 396.400,379.036 396.040,379.508 395.600 C 379.980 395.160,380.644 394.800,380.983 394.800 C 381.322 394.800,381.600 394.620,381.600 394.400 C 381.600 394.180,381.888 394.000,382.240 394.000 C 382.591 394.000,383.360 393.485,383.948 392.856 C 384.535 392.227,385.395 391.592,385.858 391.445 C 386.951 391.098,391.098 386.951,391.445 385.858 C 391.592 385.395,392.227 384.535,392.856 383.948 C 393.485 383.360,394.000 382.591,394.000 382.240 C 394.000 381.888,394.180 381.600,394.400 381.600 C 394.620 381.600,394.800 381.322,394.800 380.983 C 394.800 380.644,395.160 379.980,395.600 379.508 C 396.040 379.036,396.400 378.413,396.400 378.125 C 396.400 377.836,396.580 377.600,396.800 377.600 C 397.020 377.600,397.200 377.240,397.200 376.800 C 397.200 376.360,397.380 376.000,397.600 376.000 C 397.820 376.000,398.000 375.561,398.000 375.024 C 398.000 374.487,398.180 373.936,398.400 373.800 C 398.620 373.664,398.800 373.149,398.800 372.656 C 398.800 372.163,399.025 371.535,399.300 371.260 C 400.036 370.524,400.036 29.476,399.300 28.740 C 399.025 28.465,398.800 27.826,398.800 27.320 C 398.800 26.814,398.620 26.400,398.400 26.400 C 398.180 26.400,398.000 25.860,398.000 25.200 C 398.000 24.540,397.820 24.000,397.600 24.000 C 397.380 24.000,397.200 23.640,397.200 23.200 C 397.200 22.760,397.020 22.400,396.800 22.400 C 396.580 22.400,396.400 22.164,396.400 21.875 C 396.400 21.587,396.040 20.964,395.600 20.492 C 395.160 20.020,394.800 19.356,394.800 19.017 C 394.800 18.678,394.620 18.400,394.400 18.400 C 394.180 18.400,394.000 18.112,394.000 17.760 C 394.000 17.409,393.485 16.640,392.856 16.052 C 392.227 15.465,391.588 14.594,391.437 14.116 C 391.145 13.198,386.171 8.400,385.510 8.400 C 385.296 8.400,384.617 7.860,384.000 7.200 C 383.383 6.540,382.591 6.000,382.240 6.000 C 381.888 6.000,381.600 5.820,381.600 5.600 C 381.600 5.380,381.322 5.200,380.983 5.200 C 380.644 5.200,379.980 4.840,379.508 4.400 C 379.036 3.960,378.413 3.600,378.125 3.600 C 377.836 3.600,377.600 3.420,377.600 3.200 C 377.600 2.980,377.240 2.800,376.800 2.800 C 376.360 2.800,376.000 2.620,376.000 2.400 C 376.000 2.180,375.561 2.000,375.024 2.000 C 374.487 2.000,373.936 1.820,373.800 1.600 C 373.664 1.380,373.149 1.200,372.656 1.200 C 372.163 1.200,371.535 0.975,371.260 0.700 C 370.787 0.227,34.721 -0.177,30.300 0.290 M96.600 55.600 C 96.736 55.820,97.366 56.000,98.000 56.000 C 98.634 56.000,99.264 56.180,99.400 56.400 C 99.536 56.620,100.089 56.800,100.629 56.800 C 101.607 56.800,101.869 56.897,104.262 58.143 C 104.956 58.504,105.811 58.800,106.162 58.800 C 106.513 58.800,106.800 58.980,106.800 59.200 C 106.800 59.420,107.160 59.600,107.600 59.600 C 108.040 59.600,108.400 59.780,108.400 60.000 C 108.400 60.220,108.748 60.400,109.173 60.400 C 109.598 60.400,110.051 60.731,110.180 61.136 C 110.308 61.541,110.860 62.111,111.407 62.404 C 111.953 62.696,112.400 63.085,112.400 63.268 C 112.400 63.450,112.598 63.600,112.840 63.600 C 113.362 63.600,116.800 67.161,116.800 67.703 C 116.800 67.910,117.295 68.560,117.900 69.147 C 119.062 70.276,120.301 72.131,120.671 73.300 C 120.793 73.685,121.052 74.000,121.247 74.000 C 121.441 74.000,121.600 74.270,121.600 74.600 C 121.600 74.930,121.780 75.200,122.000 75.200 C 122.220 75.200,122.400 75.560,122.400 76.000 C 122.400 76.440,122.580 76.800,122.800 76.800 C 123.020 76.800,123.200 77.520,123.200 78.400 C 123.200 79.280,123.380 80.000,123.600 80.000 C 123.820 80.000,124.000 80.540,124.000 81.200 C 124.000 81.860,124.180 82.400,124.400 82.400 C 124.629 82.400,124.800 83.600,124.800 85.200 C 124.800 86.800,124.971 88.000,125.200 88.000 C 125.420 88.000,125.600 88.900,125.600 90.000 C 125.600 91.100,125.420 92.000,125.200 92.000 C 124.971 92.000,124.800 93.200,124.800 94.800 C 124.800 96.400,124.629 97.600,124.400 97.600 C 124.180 97.600,124.000 98.230,124.000 99.000 C 124.000 99.770,123.820 100.400,123.600 100.400 C 123.380 100.400,123.200 100.940,123.200 101.600 C 123.200 102.260,123.020 102.800,122.800 102.800 C 122.580 102.800,122.400 103.160,122.400 103.600 C 122.400 104.040,122.220 104.400,122.000 104.400 C 121.780 104.400,121.600 104.760,121.600 105.200 C 121.600 105.640,121.420 106.000,121.200 106.000 C 120.980 106.000,120.800 106.360,120.800 106.800 C 120.800 107.240,120.620 107.600,120.400 107.600 C 120.180 107.600,120.000 107.867,120.000 108.193 C 120.000 109.528,109.528 120.000,108.193 120.000 C 107.867 120.000,107.600 120.180,107.600 120.400 C 107.600 120.620,107.240 120.800,106.800 120.800 C 106.360 120.800,106.000 120.980,106.000 121.200 C 106.000 121.420,105.640 121.600,105.200 121.600 C 104.760 121.600,104.400 121.780,104.400 122.000 C 104.400 122.220,104.040 122.400,103.600 122.400 C 103.160 122.400,102.800 122.580,102.800 122.800 C 102.800 123.020,102.260 123.200,101.600 123.200 C 100.940 123.200,100.400 123.380,100.400 123.600 C 100.400 123.820,99.770 124.000,99.000 124.000 C 98.230 124.000,97.600 124.180,97.600 124.400 C 97.600 124.629,96.400 124.800,94.800 124.800 C 93.200 124.800,92.000 124.971,92.000 125.200 C 92.000 125.420,91.100 125.600,90.000 125.600 C 88.900 125.600,88.000 125.420,88.000 125.200 C 88.000 124.971,86.800 124.800,85.200 124.800 C 83.600 124.800,82.400 124.629,82.400 124.400 C 82.400 124.180,81.860 124.000,81.200 124.000 C 80.540 124.000,80.000 123.820,80.000 123.600 C 80.000 123.380,79.280 123.200,78.400 123.200 C 77.520 123.200,76.800 123.020,76.800 122.800 C 76.800 122.580,76.440 122.400,76.000 122.400 C 75.560 122.400,75.200 122.220,75.200 122.000 C 75.200 121.780,74.930 121.600,74.600 121.600 C 74.270 121.600,74.000 121.441,74.000 121.247 C 74.000 121.052,73.685 120.793,73.300 120.671 C 72.131 120.301,70.276 119.062,69.147 117.900 C 68.560 117.295,67.910 116.800,67.703 116.800 C 67.161 116.800,63.600 113.362,63.600 112.840 C 63.600 112.598,63.450 112.400,63.268 112.400 C 63.085 112.400,62.696 111.953,62.404 111.407 C 62.111 110.860,61.541 110.308,61.136 110.180 C 60.731 110.051,60.400 109.598,60.400 109.173 C 60.400 108.748,60.220 108.400,60.000 108.400 C 59.780 108.400,59.600 108.040,59.600 107.600 C 59.600 107.160,59.420 106.800,59.200 106.800 C 58.980 106.800,58.800 106.513,58.800 106.162 C 58.800 105.811,58.504 104.956,58.143 104.262 C 56.897 101.869,56.800 101.607,56.800 100.629 C 56.800 100.089,56.620 99.536,56.400 99.400 C 56.180 99.264,56.000 98.634,56.000 98.000 C 56.000 97.366,55.820 96.736,55.600 96.600 C 55.361 96.452,55.200 93.804,55.200 90.000 C 55.200 86.196,55.361 83.548,55.600 83.400 C 55.820 83.264,56.000 82.711,56.000 82.171 C 56.000 81.631,56.162 80.877,56.361 80.495 C 56.560 80.113,56.954 78.990,57.237 78.000 C 57.520 77.010,57.988 75.845,58.276 75.411 C 58.564 74.977,58.800 74.302,58.800 73.911 C 58.800 73.520,58.980 73.200,59.200 73.200 C 59.420 73.200,59.600 72.840,59.600 72.400 C 59.600 71.960,59.750 71.600,59.932 71.600 C 60.115 71.600,60.520 71.105,60.832 70.500 C 61.145 69.895,63.200 67.600,65.400 65.400 C 67.600 63.200,69.895 61.145,70.500 60.832 C 71.105 60.520,71.600 60.115,71.600 59.932 C 71.600 59.750,71.960 59.600,72.400 59.600 C 72.840 59.600,73.200 59.420,73.200 59.200 C 73.200 58.980,73.520 58.800,73.911 58.800 C 74.302 58.800,74.977 58.564,75.411 58.276 C 75.845 57.988,77.010 57.520,78.000 57.237 C 78.990 56.954,80.113 56.560,80.495 56.361 C 80.877 56.162,81.631 56.000,82.171 56.000 C 82.711 56.000,83.264 55.820,83.400 55.600 C 83.548 55.361,86.196 55.200,90.000 55.200 C 93.804 55.200,96.452 55.361,96.600 55.600 M278.000 157.561 C 279.650 157.787,282.575 158.187,284.500 158.450 C 286.425 158.714,288.000 159.080,288.000 159.264 C 288.000 159.449,288.540 159.600,289.200 159.600 C 289.860 159.600,290.400 159.780,290.400 160.000 C 290.400 160.220,290.940 160.400,291.600 160.400 C 292.260 160.400,292.800 160.580,292.800 160.800 C 292.800 161.020,293.250 161.200,293.800 161.200 C 294.350 161.200,294.800 161.380,294.800 161.600 C 294.800 161.820,295.034 162.000,295.320 162.000 C 296.056 162.000,297.993 162.941,297.997 163.300 C 297.999 163.465,298.253 163.600,298.562 163.600 C 299.228 163.600,302.541 165.268,302.733 165.700 C 302.807 165.865,303.129 166.000,303.450 166.000 C 303.771 166.000,304.420 166.360,304.892 166.800 C 305.364 167.240,305.987 167.600,306.275 167.600 C 306.564 167.600,306.800 167.780,306.800 168.000 C 306.800 168.220,307.094 168.400,307.453 168.400 C 307.812 168.400,308.397 168.717,308.753 169.103 C 309.109 169.490,310.478 170.615,311.794 171.603 C 315.730 174.556,323.200 181.643,323.200 182.424 C 323.200 182.674,323.740 183.383,324.400 184.000 C 325.060 184.617,325.600 185.274,325.600 185.460 C 325.601 185.647,326.051 186.323,326.600 186.962 C 327.150 187.601,327.600 188.284,327.600 188.478 C 327.600 188.906,329.277 191.345,329.700 191.533 C 329.865 191.607,330.000 192.012,330.000 192.433 C 330.000 192.855,330.135 193.201,330.300 193.203 C 330.659 193.207,331.600 195.144,331.600 195.880 C 331.600 196.166,331.780 196.400,332.000 196.400 C 332.220 196.400,332.400 196.760,332.400 197.200 C 332.400 197.640,332.580 198.000,332.800 198.000 C 333.020 198.000,333.200 198.360,333.200 198.800 C 333.200 199.240,333.380 199.600,333.600 199.600 C 333.820 199.600,334.000 199.949,334.000 200.376 C 334.000 200.803,334.180 201.264,334.400 201.400 C 334.620 201.536,334.800 202.087,334.800 202.624 C 334.800 203.161,334.980 203.600,335.200 203.600 C 335.420 203.600,335.600 204.039,335.600 204.576 C 335.600 205.113,335.780 205.664,336.000 205.800 C 336.220 205.936,336.400 206.566,336.400 207.200 C 336.400 207.834,336.580 208.464,336.800 208.600 C 337.020 208.736,337.200 209.377,337.200 210.024 C 337.200 210.671,337.380 211.200,337.600 211.200 C 337.820 211.200,338.000 212.179,338.000 213.376 C 338.000 214.573,338.180 215.664,338.400 215.800 C 338.620 215.936,338.800 217.657,338.800 219.624 C 338.800 221.741,338.963 223.200,339.200 223.200 C 339.465 223.200,339.600 242.867,339.600 281.400 L 339.600 339.600 310.200 339.600 L 280.800 339.600 280.800 285.424 C 280.800 249.737,280.663 231.163,280.400 231.000 C 280.180 230.864,280.000 229.773,280.000 228.576 C 280.000 227.379,279.820 226.400,279.600 226.400 C 279.380 226.400,279.200 225.860,279.200 225.200 C 279.200 224.540,279.020 224.000,278.800 224.000 C 278.580 224.000,278.400 223.460,278.400 222.800 C 278.400 222.140,278.220 221.600,278.000 221.600 C 277.780 221.600,277.600 221.240,277.600 220.800 C 277.600 220.360,277.420 220.000,277.200 220.000 C 276.980 220.000,276.800 219.730,276.800 219.400 C 276.800 219.070,276.620 218.800,276.400 218.800 C 276.180 218.800,276.000 218.530,276.000 218.200 C 276.000 217.870,275.820 217.600,275.600 217.600 C 275.380 217.600,275.200 217.284,275.200 216.898 C 275.200 216.511,273.863 214.846,272.229 213.198 C 268.230 209.163,267.337 208.400,266.614 208.400 C 266.276 208.400,266.000 208.220,266.000 208.000 C 266.000 207.780,265.640 207.600,265.200 207.600 C 264.760 207.600,264.400 207.420,264.400 207.200 C 264.400 206.980,264.040 206.800,263.600 206.800 C 263.160 206.800,262.800 206.620,262.800 206.400 C 262.800 206.180,262.440 206.000,262.000 206.000 C 261.560 206.000,261.200 205.820,261.200 205.600 C 261.200 205.380,260.660 205.200,260.000 205.200 C 259.340 205.200,258.800 205.020,258.800 204.800 C 258.800 204.580,258.260 204.400,257.600 204.400 C 256.940 204.400,256.400 204.220,256.400 204.000 C 256.400 203.750,254.000 203.600,250.000 203.600 C 246.000 203.600,243.600 203.750,243.600 204.000 C 243.600 204.220,243.060 204.400,242.400 204.400 C 241.740 204.400,241.200 204.580,241.200 204.800 C 241.200 205.020,240.660 205.200,240.000 205.200 C 239.340 205.200,238.800 205.380,238.800 205.600 C 238.800 205.820,238.440 206.000,238.000 206.000 C 237.560 206.000,237.200 206.180,237.200 206.400 C 237.200 206.620,236.840 206.800,236.400 206.800 C 235.960 206.800,235.600 206.980,235.600 207.200 C 235.600 207.420,235.240 207.600,234.800 207.600 C 234.360 207.600,234.000 207.780,234.000 208.000 C 234.000 208.220,233.775 208.402,233.500 208.405 C 232.219 208.418,224.800 215.738,224.800 216.989 C 224.800 217.325,224.620 217.600,224.400 217.600 C 224.180 217.600,224.000 217.870,224.000 218.200 C 224.000 218.530,223.820 218.800,223.600 218.800 C 223.380 218.800,223.200 219.070,223.200 219.400 C 223.200 219.730,223.020 220.000,222.800 220.000 C 222.580 220.000,222.400 220.360,222.400 220.800 C 222.400 221.240,222.220 221.600,222.000 221.600 C 221.780 221.600,221.600 222.140,221.600 222.800 C 221.600 223.460,221.420 224.000,221.200 224.000 C 220.980 224.000,220.800 224.540,220.800 225.200 C 220.800 225.860,220.620 226.400,220.400 226.400 C 220.180 226.400,220.000 227.379,220.000 228.576 C 220.000 229.773,219.820 230.864,219.600 231.000 C 219.337 231.163,219.200 249.737,219.200 285.424 L 219.200 339.600 189.800 339.600 L 160.400 339.600 160.400 250.000 L 160.400 160.400 189.800 160.400 L 219.200 160.400 219.200 172.600 C 219.200 183.513,219.267 184.800,219.840 184.800 C 220.484 184.800,222.800 182.598,222.800 181.986 C 222.800 181.805,223.025 181.419,223.300 181.129 C 223.575 180.838,224.337 179.880,224.993 179.000 C 226.607 176.836,227.306 175.986,227.908 175.451 C 228.188 175.203,228.972 174.505,229.651 173.900 C 230.329 173.295,231.040 172.800,231.229 172.800 C 231.418 172.800,232.166 172.215,232.890 171.500 C 233.614 170.785,234.700 169.945,235.303 169.632 C 235.906 169.320,236.400 168.915,236.400 168.732 C 236.400 168.550,236.670 168.400,237.000 168.400 C 237.330 168.400,237.600 168.220,237.600 168.000 C 237.600 167.780,237.870 167.600,238.200 167.600 C 238.530 167.600,238.800 167.420,238.800 167.200 C 238.800 166.980,239.070 166.800,239.400 166.800 C 239.730 166.800,240.000 166.620,240.000 166.400 C 240.000 166.180,240.270 166.000,240.600 166.000 C 240.930 166.000,241.200 165.820,241.200 165.600 C 241.200 165.380,241.470 165.200,241.800 165.200 C 242.130 165.200,242.400 165.020,242.400 164.800 C 242.400 164.580,242.760 164.400,243.200 164.400 C 243.640 164.400,244.000 164.220,244.000 164.000 C 244.000 163.780,244.360 163.600,244.800 163.600 C 245.240 163.600,245.600 163.420,245.600 163.200 C 245.600 162.980,245.960 162.800,246.400 162.800 C 246.840 162.800,247.200 162.620,247.200 162.400 C 247.200 162.180,247.560 162.000,248.000 162.000 C 248.440 162.000,248.800 161.820,248.800 161.600 C 248.800 161.380,249.239 161.200,249.776 161.200 C 250.313 161.200,250.864 161.020,251.000 160.800 C 251.136 160.580,251.597 160.400,252.024 160.400 C 252.451 160.400,252.800 160.220,252.800 160.000 C 252.800 159.780,253.340 159.600,254.000 159.600 C 254.660 159.600,255.200 159.438,255.200 159.241 C 255.200 159.043,256.461 158.755,258.002 158.600 C 259.542 158.445,260.903 158.157,261.025 157.959 C 261.147 157.762,262.362 157.597,263.724 157.594 C 265.086 157.591,266.470 157.407,266.800 157.186 C 267.478 156.732,273.387 156.930,278.000 157.561 M119.200 250.000 L 119.200 339.600 89.800 339.600 L 60.400 339.600 60.400 250.000 L 60.400 160.400 89.800 160.400 L 119.200 160.400 119.200 250.000 " stroke="none" fill="#8699b8" fill-rule="evenodd"></path><path id="path1" d="" stroke="none" fill="#8699b8" fill-rule="evenodd"></path></g></svg>