<?xml version="1.0" standalone="no"?>
<!DOCTYPE svg PUBLIC "-//W3C//DTD SVG 20010904//EN"
 "http://www.w3.org/TR/2001/REC-SVG-20010904/DTD/svg10.dtd">
<svg version="1.0" xmlns="http://www.w3.org/2000/svg"
 width="200.000000pt" height="200.000000pt" viewBox="0 0 200.000000 200.000000"
 preserveAspectRatio="xMidYMid meet">
<metadata>
Created by potrace 1.16, written by Peter Selinger 2001-2019
</metadata>
<g transform="translate(0.000000,200.000000) scale(0.100000,-0.100000)"
fill="#000000" stroke="none">
<path d="M1 998 c1 -628 5 -988 10 -963 5 22 23 80 40 129 17 48 28 95 25 103
-3 8 -2 12 3 9 5 -3 14 9 21 27 17 44 64 141 71 147 3 3 21 37 40 77 19 40 40
73 47 73 10 0 8 -10 -7 -36 -26 -44 -26 -54 0 -54 11 0 17 5 14 10 -8 13 1 13
26 -1 19 -10 19 -9 9 10 -6 12 -13 21 -16 21 -3 0 -2 -5 2 -12 4 -7 3 -8 -5
-4 -9 6 -6 14 11 30 17 17 27 20 37 12 11 -8 13 -8 7 2 -5 8 -1 12 11 13 16 0
16 1 -2 8 -19 8 -19 8 3 20 15 8 22 8 22 1 0 -6 5 -8 10 -5 6 4 8 11 5 16 -4
5 4 13 17 18 18 8 19 10 5 10 -21 1 -18 23 4 29 11 3 11 1 -1 -8 -13 -10 -13
-11 0 -7 8 2 14 10 13 16 -2 6 6 20 17 31 11 11 20 16 20 12 0 -5 7 -9 15 -9
9 0 11 4 6 11 -6 7 -1 19 16 34 16 14 23 17 19 7 -3 -9 0 -15 9 -15 8 0 15 7
15 16 0 8 4 12 10 9 6 -3 7 1 4 9 -4 9 -1 16 6 16 7 0 10 7 6 16 -3 8 -2 12 4
9 6 -3 13 1 16 10 4 9 13 14 20 11 8 -3 11 0 8 9 -8 21 6 41 17 24 7 -11 9 -9
9 6 0 22 17 45 33 45 4 0 5 -4 2 -10 -3 -6 1 -7 9 -4 9 3 13 10 10 15 -3 5 2
9 10 9 9 0 16 -5 16 -12 0 -6 6 -3 14 7 10 13 11 25 5 37 -7 13 -4 20 10 28
26 13 34 13 25 -2 -4 -7 -3 -8 5 -4 9 6 9 11 1 21 -7 9 -6 16 7 26 15 12 16
12 10 -1 -4 -8 -2 -7 5 4 7 10 23 31 35 46 20 25 21 29 7 48 -17 25 -3 30 16
7 7 -8 16 -12 21 -9 5 3 9 -2 9 -11 0 -8 8 -19 18 -22 9 -4 25 -16 35 -28 10
-11 15 -14 11 -6 -5 9 -3 12 4 7 7 -4 12 -13 12 -20 0 -7 14 -25 30 -41 17
-16 28 -35 26 -42 -3 -7 -1 -13 3 -13 5 0 12 6 14 13 4 9 6 9 6 0 1 -7 8 -13
17 -13 8 0 13 -4 10 -8 -3 -5 9 -22 27 -38 27 -25 29 -25 12 -4 l-20 25 27
-24 c15 -13 25 -27 23 -31 -3 -4 44 -54 103 -110 59 -57 100 -99 92 -95 -13 8
-13 6 -1 -8 7 -9 17 -14 22 -12 4 3 25 -17 46 -44 21 -27 44 -50 51 -50 7 -1
11 -5 8 -9 -7 -12 49 -64 58 -55 4 5 6 2 4 -5 -1 -7 78 -92 177 -188 99 -96
173 -172 165 -168 -8 4 13 -22 48 -57 34 -36 62 -70 62 -77 0 -6 5 -12 10 -12
17 0 11 57 -7 71 -15 12 -16 12 -8 -1 4 -8 -8 0 -28 19 -20 19 -34 37 -32 41
2 4 -41 49 -95 100 -55 51 -100 99 -100 105 0 7 -45 54 -100 105 -55 50 -98
95 -96 98 2 4 -33 45 -78 92 -44 47 -70 72 -56 55 l25 -30 -32 29 c-18 16 -30
33 -27 38 9 13 -38 60 -53 54 -7 -3 -12 -1 -10 4 1 5 -29 39 -68 75 -38 37
-63 63 -55 59 8 -4 4 5 -9 19 -13 15 -29 24 -35 20 -6 -3 -7 -2 -3 3 4 4 -5
22 -22 39 -16 16 -45 47 -64 67 -18 21 -38 34 -42 30 -5 -4 -5 -2 -2 4 9 16
-21 54 -37 48 -8 -3 -17 0 -22 7 -5 8 -3 10 6 4 10 -6 12 -4 7 9 -4 10 -7 20
-7 22 0 2 -7 4 -15 4 -8 0 -15 6 -15 13 0 18 -69 96 -70 80 0 -7 -5 -13 -12
-13 -9 0 -9 3 0 12 9 9 8 15 -3 28 -13 15 -12 19 13 41 l27 24 -23 -26 -22
-26 60 -57 c43 -41 64 -55 73 -48 7 5 20 8 30 7 9 -2 15 1 11 6 -3 5 3 9 13
10 16 0 16 1 -1 8 -14 5 -16 10 -7 15 6 4 19 2 28 -6 14 -11 16 -10 11 8 -3
13 0 21 8 22 8 1 21 3 29 4 8 1 12 5 8 11 -3 5 -14 7 -24 4 -18 -5 -18 -4 2
24 11 16 28 29 37 29 15 0 15 -2 2 -10 -12 -7 -10 -9 7 -7 21 1 21 2 6 19 -14
16 -14 18 0 24 9 3 21 3 26 0 6 -4 8 2 6 13 -2 12 8 30 28 47 27 25 29 25 12
4 -15 -18 -16 -21 -3 -11 9 7 21 10 26 7 5 -3 7 6 4 19 -2 15 0 25 7 25 7 0
10 -4 6 -9 -3 -5 -1 -12 4 -16 6 -3 8 5 5 18 -3 19 8 35 50 75 29 28 56 48 60
45 3 -4 6 -1 6 5 0 7 5 12 11 12 5 0 7 -6 3 -12 -5 -9 -2 -9 9 1 18 15 23 26
7 16 -16 -10 -11 4 9 26 12 13 25 18 32 14 8 -6 10 -4 4 4 -10 18 50 72 64 58
7 -7 9 -3 8 12 -2 28 -7 27 -88 -14 -38 -19 -69 -31 -69 -27 0 4 -5 0 -11 -8
-7 -11 -9 -11 -7 -1 3 12 99 67 158 91 14 5 32 14 40 20 22 14 113 55 125 55
6 0 15 3 20 6 15 9 171 56 255 77 61 16 76 23 78 41 l3 21 -1000 0 -1001 0 1
-1002z m1273 658 c-10 -8 -21 -12 -24 -9 -3 2 4 11 14 19 11 7 22 12 25 9 2
-3 -4 -12 -15 -19z m-34 -14 c0 -4 -9 -13 -20 -20 -23 -14 -26 -8 -7 13 13 16
27 19 27 7z m-50 -32 c0 -5 -5 -10 -11 -10 -5 0 -7 5 -4 10 3 6 8 10 11 10 2
0 4 -4 4 -10z m-30 -20 c0 -5 -5 -10 -11 -10 -5 0 -7 5 -4 10 3 6 8 10 11 10
2 0 4 -4 4 -10z m-90 -64 c0 -2 -7 -7 -16 -10 -8 -3 -12 -2 -9 4 6 10 25 14
25 6z m-40 -30 c0 -2 -7 -7 -16 -10 -8 -3 -12 -2 -9 4 6 10 25 14 25 6z m-40
-31 c0 -2 -10 -10 -22 -16 -21 -11 -22 -11 -9 4 13 16 31 23 31 12z m-60 -39
c0 -2 -8 -10 -17 -17 -16 -13 -17 -12 -4 4 13 16 21 21 21 13z m-200 -143 c43
-45 45 -49 9 -15 -25 23 -49 39 -55 35 -5 -5 -6 -4 -2 1 4 5 3 15 -3 23 -28
33 2 8 51 -44z m71 -30 c13 -16 12 -17 -3 -4 -10 7 -18 15 -18 17 0 8 8 3 21
-13z m-91 -36 c0 -2 -15 -16 -32 -33 l-33 -29 29 33 c28 30 36 37 36 29z m-90
-101 c0 -2 -8 -10 -17 -17 -16 -13 -17 -12 -4 4 13 16 21 21 21 13z m104 -152
c3 -8 2 -12 -4 -9 -6 3 -10 10 -10 16 0 14 7 11 14 -7z m-279 -84 c-3 -5 -11
-10 -16 -10 -6 0 -7 5 -4 10 3 6 11 10 16 10 6 0 7 -4 4 -10z m-25 -30 c0 -5
-5 -10 -11 -10 -5 0 -7 5 -4 10 3 6 8 10 11 10 2 0 4 -4 4 -10z m-20 -30 c0
-5 -5 -10 -11 -10 -5 0 -7 5 -4 10 3 6 8 10 11 10 2 0 4 -4 4 -10z m-20 -30
c0 -5 -5 -10 -11 -10 -5 0 -7 5 -4 10 3 6 8 10 11 10 2 0 4 -4 4 -10z m-30
-50 c0 -5 -5 -10 -11 -10 -5 0 -7 5 -4 10 3 6 8 10 11 10 2 0 4 -4 4 -10z
m-90 -80 c-6 -11 -13 -20 -16 -20 -2 0 0 9 6 20 6 11 13 20 16 20 2 0 0 -9 -6
-20z m38 -10 c-7 -11 -16 -20 -21 -20 -4 0 -3 9 3 20 6 11 15 20 20 20 6 0 5
-9 -2 -20z m1202 -85 c13 -14 21 -25 18 -25 -2 0 -15 11 -28 25 -13 14 -21 25
-18 25 2 0 15 -11 28 -25z m75 -105 c10 -11 16 -20 13 -20 -3 0 -13 9 -23 20
-10 11 -16 20 -13 20 3 0 13 -9 23 -20z m332 -327 c-4 -3 -1 -13 6 -22 11 -14
10 -14 -5 -2 -16 12 -16 31 -1 31 4 0 3 -3 0 -7z"/>
<path d="M1986 1913 c-6 -14 -5 -15 5 -6 7 7 10 15 7 18 -3 3 -9 -2 -12 -12z"/>
<path d="M1560 1790 c-9 -6 -10 -10 -3 -10 6 0 15 5 18 10 8 12 4 12 -15 0z"/>
<path d="M1820 1755 c-19 -19 -31 -35 -28 -35 7 0 68 59 68 66 0 8 -7 3 -40
-31z"/>
<path d="M1510 1748 c0 -12 3 -17 8 -12 4 5 11 12 15 15 5 3 2 9 -7 12 -12 5
-16 0 -16 -15z"/>
<path d="M1467 1707 c-3 -8 1 -14 8 -14 7 0 11 6 8 14 -3 7 -6 13 -8 13 -2 0
-5 -6 -8 -13z"/>
<path d="M1440 1691 c0 -6 4 -13 10 -16 6 -3 7 1 4 9 -7 18 -14 21 -14 7z"/>
<path d="M1401 1644 c0 -11 3 -14 6 -6 3 7 2 16 -1 19 -3 4 -6 -2 -5 -13z"/>
<path d="M1645 1590 c-3 -5 -2 -10 4 -10 5 0 13 5 16 10 3 6 2 10 -4 10 -5 0
-13 -4 -16 -10z"/>
<path d="M1280 1541 c0 -6 4 -13 10 -16 6 -3 7 1 4 9 -7 18 -14 21 -14 7z"/>
<path d="M1549 1493 l-34 -38 38 34 c34 33 42 41 34 41 -2 0 -19 -17 -38 -37z"/>
<path d="M1398 1347 c-53 -56 -94 -104 -92 -106 5 -6 182 168 195 192 21 37
-10 11 -103 -86z"/>
<path d="M956 1205 c-3 -8 -1 -15 4 -15 6 0 10 7 10 15 0 8 -2 15 -4 15 -2 0
-6 -7 -10 -15z"/>
<path d="M1194 1148 l-19 -23 23 19 c21 18 27 26 19 26 -2 0 -12 -10 -23 -22z"/>
<path d="M1115 1070 c-21 -22 -37 -41 -34 -43 2 -2 21 16 43 40 49 54 43 56
-9 3z"/>
<path d="M865 830 c-3 -5 -2 -10 4 -10 5 0 13 5 16 10 3 6 2 10 -4 10 -5 0
-13 -4 -16 -10z"/>
<path d="M797 765 c-21 -19 -34 -35 -30 -35 5 0 24 16 43 35 44 45 36 45 -13
0z"/>
<path d="M661 629 c-43 -46 -78 -86 -75 -88 2 -2 40 33 85 78 45 45 79 84 76
87 -4 4 -42 -31 -86 -77z"/>
<path d="M216 492 c-3 -5 -10 -22 -16 -37 -9 -25 -9 -26 5 -15 8 7 15 19 15
26 0 17 17 18 23 2 4 -8 6 -9 6 -2 1 16 -26 37 -33 26z"/>
<path d="M380 353 l-55 -58 58 55 c53 50 62 60 54 60 -1 0 -27 -26 -57 -57z"/>
<path d="M284 258 l-29 -33 33 29 c17 17 32 31 32 33 0 8 -8 1 -36 -29z"/>
<path d="M99 83 c-13 -16 -12 -17 4 -4 9 7 17 15 17 17 0 8 -8 3 -21 -13z"/>
<path d="M50 45 c-7 -8 -8 -15 -2 -15 5 0 15 7 22 15 7 8 8 15 2 15 -5 0 -15
-7 -22 -15z"/>
<path d="M20 10 c0 -5 5 -10 11 -10 5 0 7 5 4 10 -3 6 -8 10 -11 10 -2 0 -4
-4 -4 -10z"/>
</g>
</svg>
