<svg version="1.1" id="Layer_1" xmlns="http://www.w3.org/2000/svg" xmlns:xlink="http://www.w3.org/1999/xlink" x="0px" y="0px"
	 width="100%" viewBox="0 0 180 233" enable-background="new 0 0 180 233" xml:space="preserve">
<path fill="#000000" opacity="1.000000" stroke="none" 
	d="
M106.000000,1.000001 
	C130.986694,1.000000 155.973373,1.000000 180.980042,1.000000 
	C180.980042,78.611992 180.980042,156.223984 180.980042,233.917999 
	C121.086723,233.917999 61.173294,233.917999 1.129932,233.917999 
	C1.129932,156.333466 1.129932,78.666771 1.122864,1.000036 
	C34.431423,1.000000 67.747055,1.000000 101.523071,1.468599 
	C101.991432,9.749553 102.055298,17.562353 101.992996,25.374147 
	C101.917946,34.784039 98.812004,43.447002 93.642242,51.007549 
	C87.529495,59.947178 80.834045,68.579681 73.612389,76.648254 
	C62.886002,88.632568 53.796261,101.577919 46.631973,116.231514 
	C45.804478,118.531853 45.347233,120.743408 44.508602,122.988907 
	C43.707073,124.336113 43.286934,125.649361 42.555580,127.152245 
	C42.125248,128.546814 42.006126,129.751740 41.558449,131.118561 
	C40.875416,132.854553 40.520943,134.428665 39.988605,136.354614 
	C39.595909,138.472321 39.381077,140.238144 38.970100,142.340485 
	C38.246933,144.440811 37.719913,146.204636 37.114502,148.368179 
	C37.082764,149.848602 37.129421,150.929306 37.105080,152.433533 
	C37.079033,154.571808 37.123981,156.286545 37.098938,158.415024 
	C37.070076,160.224625 37.111206,161.620468 37.079678,163.410614 
	C37.728100,165.538422 38.449188,167.271942 39.099701,169.430847 
	C39.407352,172.900284 39.785583,175.944336 40.203888,179.328033 
	C40.884872,180.446289 41.525784,181.224915 42.101433,182.383911 
	C42.328255,184.467529 42.620342,186.170807 42.560341,187.757538 
	C40.821110,184.382217 39.433968,181.123428 38.027927,177.488419 
	C37.283508,175.744598 36.557987,174.376984 35.908737,172.610870 
	C35.598900,170.148560 35.212791,168.084747 34.903625,165.649475 
	C34.937801,164.523727 34.895042,163.769440 34.914482,162.653320 
	C34.263275,161.194244 33.549870,160.096985 32.908798,158.587662 
	C32.932285,156.785095 32.883430,155.394592 32.907574,153.591949 
	C32.931259,151.788666 32.881947,150.397552 32.905197,148.594025 
	C32.929253,146.789734 32.880749,145.397812 32.905071,143.581757 
	C32.928688,141.439697 32.879475,139.721786 32.979008,137.694641 
	C33.685101,136.255966 34.242447,135.126541 34.878975,133.612152 
	C35.000771,132.180237 35.043381,131.133286 35.399315,129.920471 
	C35.754112,128.834961 35.795589,127.915329 35.971195,126.715309 
	C36.677475,125.624039 37.249630,124.813141 37.889091,123.636322 
	C38.008064,122.528702 38.059723,121.787003 38.393017,120.907303 
	C39.149235,119.861778 39.623817,118.954254 40.408813,117.859764 
	C40.912361,116.877419 40.901344,115.944954 41.329464,115.307358 
	C47.138012,106.656837 52.918476,97.984894 58.894901,89.450607 
	C62.545746,84.237228 66.372719,79.130005 70.396156,74.199989 
	C73.779137,70.054756 77.641907,66.303040 81.085976,62.203789 
	C81.666779,61.512493 81.201843,59.942600 81.220070,58.778648 
	C80.050171,58.798935 78.460297,58.328671 77.775185,58.915215 
	C70.746353,64.932846 63.515095,70.777283 57.029072,77.349739 
	C48.832565,85.655479 38.004204,91.253914 32.090714,101.919312 
	C29.040823,107.420006 25.505703,112.651665 22.114170,118.324158 
	C21.989096,119.077820 21.939678,119.512199 21.595119,120.105362 
	C21.182951,121.141129 21.065926,122.018112 20.571335,122.962479 
	C19.849222,124.351051 19.504679,125.672241 19.019691,127.298195 
	C18.641027,128.402496 18.402803,129.202026 18.099407,130.360352 
	C18.005945,131.447876 17.977655,132.176590 17.614540,133.067322 
	C16.909147,134.821899 16.538580,136.414490 16.098976,138.431305 
	C16.075562,140.571274 16.121187,142.286987 16.099705,144.427750 
	C16.076323,146.569641 16.120049,148.286499 16.094364,150.426514 
	C16.064241,152.562042 16.103527,154.274414 16.076881,156.334717 
	C16.728720,157.455124 17.446489,158.227585 18.093597,159.385483 
	C18.304428,161.194855 18.585918,162.618805 18.925247,164.430054 
	C19.305738,166.246048 19.628389,167.674759 20.078217,169.424637 
	C20.856350,171.161270 21.507309,172.576736 22.092758,174.373993 
	C22.995592,176.370987 23.923882,178.012192 24.948118,179.591141 
	C25.514086,180.463654 26.240858,181.231857 27.043743,182.377869 
	C29.425188,185.821869 31.658035,188.935089 33.936966,192.414612 
	C35.978336,194.903625 37.973629,197.026337 40.126301,199.457947 
	C41.833279,200.878510 43.382877,201.990158 44.963848,203.469055 
	C46.748413,204.648483 48.501606,205.460693 50.254799,206.272903 
	C50.851406,204.829163 51.448009,203.385437 52.394871,201.971924 
	C54.148277,203.369461 55.551430,204.736771 57.087700,206.418793 
	C61.773693,210.511337 66.326569,214.289185 71.015808,218.388428 
	C74.087784,220.511826 77.023399,222.313828 80.075867,224.414124 
	C81.047295,224.737076 82.587479,224.955276 82.644119,224.754654 
	C82.986977,223.540268 82.990974,222.230209 83.059326,220.647903 
	C82.714142,219.881149 82.417862,219.418610 82.065964,218.613220 
	C81.391266,217.180984 80.772194,216.091599 80.081490,214.596939 
	C78.949097,209.801788 77.888329,205.411911 76.904953,200.610016 
	C76.600227,197.797150 76.218109,195.396301 75.912338,192.585480 
	C76.271599,189.784470 76.554504,187.393463 76.911636,184.569931 
	C76.934601,182.092911 76.883331,180.048401 77.031998,177.657547 
	C77.766884,175.213120 78.301842,173.115051 78.973808,170.706680 
	C79.349792,169.598892 79.588760,168.801392 79.908714,167.631378 
	C80.941963,165.167923 81.894234,163.076981 82.925385,160.607697 
	C83.698570,158.496552 84.392876,156.763763 85.402451,154.853760 
	C86.755180,152.454208 87.792633,150.231873 89.007492,147.693237 
	C90.743561,145.251129 92.302238,143.125336 94.008484,140.675659 
	C95.472046,138.245102 96.788040,136.138428 98.458023,134.001495 
	C100.157494,132.308060 101.502968,130.644882 102.910393,128.634109 
	C104.017723,126.539886 105.063110,124.793274 106.410431,122.909889 
	C107.418686,121.511314 108.125008,120.249512 108.995087,118.672516 
	C111.536705,114.079758 113.700714,109.665276 116.334457,105.551529 
	C122.951485,95.216133 124.858612,83.340843 125.638672,71.714417 
	C126.314781,61.637218 123.888351,51.351864 122.901779,40.819195 
	C123.395378,34.855721 123.813217,29.230970 124.273201,23.609669 
	C124.290550,23.397566 124.883415,23.249516 124.925545,23.019794 
	C125.257790,21.208311 125.896576,19.347675 125.723732,17.571985 
	C125.413071,14.380395 124.231491,11.252975 124.098366,8.070109 
	C123.944450,4.390360 122.456230,3.504993 120.133965,4.061931 
	C119.686867,13.409546 119.266724,22.193743 118.531815,30.778225 
	C117.770279,28.864933 117.537094,27.058720 116.840813,25.453363 
	C113.293076,17.273672 109.625572,9.145928 106.000000,1.000001 
M85.996948,215.890137 
	C87.297699,218.939407 88.598450,221.988663 90.000221,225.827164 
	C91.627617,227.218628 93.213058,229.733017 94.890099,229.795654 
	C100.411888,230.001953 105.971565,229.375229 111.502174,228.899460 
	C112.091690,228.848740 112.585640,227.687103 113.932213,227.004044 
	C115.955887,226.616562 117.979561,226.229095 120.764168,225.984543 
	C125.205780,223.685410 129.647400,221.386276 134.743347,218.821732 
	C136.488434,217.489258 138.233505,216.156799 140.652206,214.806412 
	C145.047134,209.538437 149.442047,204.270462 154.188522,198.335831 
	C155.141708,196.260315 156.094910,194.184799 157.822525,191.996994 
	C159.158417,189.009018 160.494293,186.021027 161.981567,182.236542 
	C162.264908,180.158813 162.548248,178.081070 163.002274,175.215912 
	C163.612305,172.811676 164.222336,170.407440 165.231857,167.251114 
	C165.569397,163.588257 165.906937,159.925400 166.244476,156.262543 
	C165.673889,156.021896 165.103287,155.781265 164.532700,155.540634 
	C161.338882,158.651840 159.716675,162.873901 157.282623,167.217041 
	C155.198273,169.531174 153.113922,171.845322 150.146973,174.317810 
	C149.709915,174.221725 149.272873,174.125626 148.983948,173.385757 
	C149.276306,172.593872 149.568665,171.801971 149.997757,170.237961 
	C150.275833,168.493591 150.553894,166.749237 150.998077,164.240860 
	C151.608597,162.488800 152.219116,160.736755 152.972748,158.161423 
	C153.259445,155.443497 153.546158,152.725586 153.978897,149.159134 
	C153.930573,147.440811 153.882263,145.722504 153.977509,143.155502 
	C153.929108,141.438736 153.880707,139.721985 153.974762,137.212509 
	C153.927216,136.143005 153.879669,135.073502 153.972839,133.211349 
	C153.926437,132.141998 153.880020,131.072662 153.974350,129.203751 
	C153.685471,127.452995 153.396591,125.702248 153.023499,123.109467 
	C152.955048,121.421783 152.886597,119.734093 152.946732,117.303101 
	C152.241776,115.537582 151.536819,113.772064 150.969818,111.183685 
	C149.982376,107.459076 148.908981,103.754776 148.023483,100.006081 
	C145.271088,88.354141 140.116135,77.796089 133.404449,67.973122 
	C132.664307,66.889862 131.039642,66.410950 128.996597,65.133743 
	C128.996597,68.606644 129.119476,70.596794 128.972626,72.566841 
	C128.593765,77.649429 128.768433,82.900192 127.489632,87.759460 
	C125.505585,95.298538 122.498718,102.568451 119.284271,110.356064 
	C118.243759,113.241608 117.203247,116.127151 115.814453,119.628082 
	C114.940140,121.091118 114.065826,122.554146 112.863449,124.630638 
	C111.869102,126.405663 110.874756,128.180679 109.264656,130.238220 
	C108.471565,131.809723 107.678467,133.381241 106.172310,135.025192 
	C104.748535,137.338287 103.324753,139.651398 101.318138,142.267014 
	C100.603645,143.192780 99.889160,144.118546 98.849648,145.661880 
	C97.529396,147.759583 96.209145,149.857285 94.264046,152.235565 
	C92.899788,154.163284 91.535530,156.090988 89.833206,158.673264 
	C88.946762,160.449783 88.060318,162.226303 86.862221,164.643173 
	C86.239639,165.813293 85.617065,166.983414 84.249985,168.321014 
	C84.152748,169.841888 84.055504,171.362762 83.251213,173.292938 
	C82.555763,176.194016 81.860321,179.095078 81.020096,182.876129 
	C81.070641,185.250580 81.121185,187.625031 81.026932,190.902939 
	C81.295601,194.621811 81.564270,198.340668 82.204239,202.782593 
	C82.469994,204.001373 82.644707,205.248978 83.019501,206.433243 
	C83.939262,209.339478 84.951241,212.216522 85.996948,215.890137 
z"/>
<path fill="#E8262A" opacity="1.000000" stroke="none" 
	d="
M105.600006,1.000001 
	C109.625572,9.145928 113.293076,17.273672 116.840813,25.453363 
	C117.537094,27.058720 117.770279,28.864933 118.563248,31.186472 
	C117.837280,36.102654 116.816048,40.424446 115.673248,44.713844 
	C115.019890,47.166161 113.680214,49.779243 117.993530,50.360279 
	C117.274269,52.180176 116.555649,53.623554 115.510834,55.081017 
	C114.746239,55.122036 114.307831,55.148975 113.511353,55.095005 
	C110.128151,58.681019 107.103027,62.347942 103.911415,66.315506 
	C101.211281,70.086411 98.677628,73.556664 95.968796,77.317322 
	C92.170334,81.732582 88.547043,85.857437 84.780914,90.156937 
	C84.435570,90.554909 84.215034,90.758736 83.671188,90.998093 
	C82.917801,91.702202 82.469681,92.351273 81.803268,93.140518 
	C81.295151,93.701775 81.005333,94.122864 80.421455,94.698875 
	C79.118538,96.242043 78.109680,97.630295 76.825027,99.206482 
	C75.310486,101.244972 74.071732,103.095512 72.554886,105.046509 
	C71.908005,105.805267 71.539192,106.463562 70.906601,107.251587 
	C70.057022,108.397263 69.471222,109.413208 68.606300,110.603271 
	C67.927635,111.517555 67.528091,112.257721 66.968979,113.184601 
	C66.809410,113.371307 66.710823,113.852524 66.450180,114.058647 
	C64.994926,116.159065 63.800312,118.053360 62.337509,119.939873 
	C61.712059,119.949562 61.354790,119.967026 60.669846,119.742340 
	C57.600178,119.329086 54.791393,119.462822 52.139240,118.881706 
	C50.314461,118.481888 48.706879,117.090775 47.002220,116.142723 
	C53.796261,101.577919 62.886002,88.632568 73.612389,76.648254 
	C80.834045,68.579681 87.529495,59.947178 93.642242,51.007549 
	C98.812004,43.447002 101.917946,34.784039 101.992996,25.374147 
	C102.055298,17.562353 101.991432,9.749553 101.991730,1.468599 
	C103.066673,1.000000 104.133339,1.000000 105.600006,1.000001 
z"/>
<path fill="#E7252A" opacity="1.000000" stroke="none" 
	d="
M115.837036,55.066933 
	C116.555649,53.623554 117.274269,52.180176 118.051399,49.999527 
	C119.684341,46.561008 121.258774,43.859760 122.833206,41.158508 
	C123.888351,51.351864 126.314781,61.637218 125.638672,71.714417 
	C124.858612,83.340843 122.951485,95.216133 116.334457,105.551529 
	C113.700714,109.665276 111.536705,114.079758 108.546280,118.676071 
	C104.524704,118.122772 100.173050,121.143448 97.695831,116.234207 
	C97.800171,115.593658 97.883461,115.229439 98.175949,114.817886 
	C98.679886,114.600426 98.774834,114.353485 98.738197,113.755486 
	C98.861275,113.301048 98.916161,113.120842 99.239532,112.800919 
	C99.643684,112.079361 99.779373,111.497498 100.218979,110.730110 
	C101.777908,107.048454 103.032906,103.552330 104.515228,99.853424 
	C104.907448,98.858589 105.072342,98.066536 105.466248,97.118286 
	C105.873283,96.456741 106.051300,95.951393 106.495659,95.279404 
	C107.083160,94.400169 107.404320,93.687584 107.809143,92.581177 
	C107.962723,91.115753 108.032639,90.044174 108.162567,88.818924 
	C108.222588,88.665268 108.218605,88.335358 108.485260,88.184624 
	C109.029091,87.337555 109.306259,86.641220 109.648972,85.522705 
	C109.764145,83.391563 109.813782,81.682594 110.135933,79.660706 
	C110.621422,74.243042 110.834396,69.138321 111.125229,63.696884 
	C112.180923,61.275520 113.158760,59.190868 114.405350,56.999088 
	C115.061745,56.283615 115.449387,55.675274 115.837036,55.066933 
z"/>
<path fill="#E6242A" opacity="1.000000" stroke="none" 
	d="
M119.925491,109.952484 
	C122.498718,102.568451 125.505585,95.298538 127.489632,87.759460 
	C128.768433,82.900192 128.593765,77.649429 128.972626,72.566841 
	C129.119476,70.596794 128.996597,68.606644 128.996597,65.133743 
	C131.039642,66.410950 132.664307,66.889862 133.404449,67.973122 
	C140.116135,77.796089 145.271088,88.354141 148.023483,100.006081 
	C148.908981,103.754776 149.982376,107.459076 150.443176,111.593918 
	C141.845428,112.003105 133.770752,112.131104 125.705818,111.907570 
	C123.762466,111.853706 121.851402,110.635330 119.925491,109.952484 
z"/>
<path fill="#E6232A" opacity="1.000000" stroke="none" 
	d="
M22.189829,118.004883 
	C25.505703,112.651665 29.040823,107.420006 32.090714,101.919312 
	C38.004204,91.253914 48.832565,85.655479 57.029072,77.349739 
	C63.515095,70.777283 70.746353,64.932846 77.775185,58.915215 
	C78.460297,58.328671 80.050171,58.798935 81.220070,58.778648 
	C81.201843,59.942600 81.666779,61.512493 81.085976,62.203789 
	C77.641907,66.303040 73.779137,70.054756 70.396156,74.199989 
	C66.372719,79.130005 62.545746,84.237228 58.894901,89.450607 
	C52.918476,97.984894 47.138012,106.656837 41.329464,115.307358 
	C40.901344,115.944954 40.912361,116.877419 39.935120,117.849396 
	C33.497288,118.018967 27.843559,118.011925 22.189829,118.004883 
z"/>
<path fill="#F9D50A" opacity="1.000000" stroke="none" 
	d="
M157.048096,192.109283 
	C156.094910,194.184799 155.141708,196.260315 153.554550,198.668488 
	C145.926697,199.009674 138.932831,199.018188 131.567963,199.021973 
	C129.119827,199.998428 127.042679,200.979645 124.645157,202.118835 
	C121.583641,203.169098 118.842491,204.061356 116.068802,204.598846 
	C116.683815,202.478134 117.331375,200.712158 118.258148,198.801208 
	C118.907425,197.766159 119.277466,196.876099 119.799042,195.727264 
	C120.214424,194.938446 120.478279,194.408386 121.030762,193.696991 
	C121.888229,192.031143 122.457077,190.546616 123.239182,189.038544 
	C123.452446,189.014984 123.878609,188.964645 124.223053,189.153748 
	C126.578125,189.894791 128.576782,190.864670 130.601578,190.922684 
	C137.527344,191.121124 144.463715,190.921707 151.392776,191.050339 
	C153.283798,191.085434 155.163300,191.739365 157.048096,192.109283 
z"/>
<path fill="#E7422A" opacity="1.000000" stroke="none" 
	d="
M119.604881,110.154274 
	C121.851402,110.635330 123.762466,111.853706 125.705818,111.907570 
	C133.770752,112.131104 141.845428,112.003105 150.374207,112.005341 
	C151.536819,113.772064 152.241776,115.537582 152.551926,117.846924 
	C150.598526,118.916168 149.032166,119.915840 147.482590,119.890442 
	C137.040649,119.719299 126.602264,119.330803 116.162727,119.012695 
	C117.203247,116.127151 118.243759,113.241608 119.604881,110.154274 
z"/>
<path fill="#F9DF08" opacity="1.000000" stroke="none" 
	d="
M131.938950,199.026703 
	C138.932831,199.018188 145.926697,199.009674 153.378784,199.001831 
	C149.442047,204.270462 145.047134,209.538437 140.199554,214.468719 
	C138.033081,213.423584 136.360886,212.266785 134.596649,212.103302 
	C131.044571,211.774200 127.442398,211.986008 123.899796,211.719147 
	C123.939133,211.291367 123.939583,211.119095 124.205795,210.754089 
	C126.046646,208.432159 127.621750,206.302963 129.498352,204.035919 
	C130.512894,202.274292 131.225922,200.650497 131.938950,199.026703 
z"/>
<path fill="#F8C216" opacity="1.000000" stroke="none" 
	d="
M148.835815,174.029541 
	C149.272873,174.125626 149.709915,174.221725 150.869324,174.483276 
	C155.338318,175.100281 159.084946,175.551819 162.831573,176.003357 
	C162.548248,178.081070 162.264908,180.158813 161.537201,182.805634 
	C149.453445,183.257675 137.814041,183.140640 126.074356,182.760971 
	C125.902336,182.325653 125.830605,182.152954 125.866653,181.620331 
	C126.050743,180.514374 126.127068,179.768372 126.420685,178.812775 
	C126.930779,178.072037 127.223587,177.540878 127.952591,177.007233 
	C134.967346,176.985260 141.545929,176.965820 148.480301,176.766647 
	C148.897079,175.699997 148.958038,174.813080 148.966248,173.939697 
	C148.913513,173.953232 148.835815,174.029541 148.835815,174.029541 
z"/>
<path fill="#F9CB0E" opacity="1.000000" stroke="none" 
	d="
M126.174629,183.023590 
	C137.814041,183.140640 149.453445,183.257675 161.461517,183.203888 
	C160.494293,186.021027 159.158417,189.009018 157.435303,192.053131 
	C155.163300,191.739365 153.283798,191.085434 151.392776,191.050339 
	C144.463715,190.921707 137.527344,191.121124 130.601578,190.922684 
	C128.576782,190.864670 126.578125,189.894791 124.131340,188.943008 
	C123.695190,188.543152 123.414795,188.178497 123.542068,187.896835 
	C123.713158,187.413834 123.756966,187.212479 124.025101,186.760254 
	C124.467621,185.659225 124.685799,184.809082 125.137558,183.835922 
	C125.638969,183.483124 125.906799,183.253357 126.174629,183.023590 
z"/>
<path fill="#EA6129" opacity="1.000000" stroke="none" 
	d="
M109.880402,129.955688 
	C110.874756,128.180679 111.869102,126.405663 113.424950,124.403976 
	C124.756721,124.451500 135.526031,124.794159 146.298050,124.944466 
	C148.562866,124.976067 150.837570,124.300957 153.107712,123.951492 
	C153.396591,125.702248 153.685471,127.452995 153.446106,129.602661 
	C138.572037,129.986267 124.226219,129.970978 109.880402,129.955688 
z"/>
<path fill="#F89423" opacity="1.000000" stroke="none" 
	d="
M122.901779,40.819195 
	C121.258774,43.859760 119.684341,46.561008 118.052040,49.623009 
	C113.680214,49.779243 115.019890,47.166161 115.673248,44.713844 
	C116.816048,40.424446 117.837280,36.102654 118.878014,31.386187 
	C119.266724,22.193743 119.686867,13.409546 120.133965,4.061931 
	C122.456230,3.504993 123.944450,4.390360 124.098366,8.070109 
	C124.231491,11.252975 125.413071,14.380395 125.723732,17.571985 
	C125.896576,19.347675 125.257790,21.208311 124.925545,23.019794 
	C124.883415,23.249516 124.290550,23.397566 124.273201,23.609669 
	C123.813217,29.230970 123.395378,34.855721 122.901779,40.819195 
z"/>
<path fill="#EB6B29" opacity="1.000000" stroke="none" 
	d="
M109.572525,130.096954 
	C124.226219,129.970978 138.572037,129.986267 153.375732,130.002441 
	C153.880020,131.072662 153.926437,132.141998 153.444717,133.606750 
	C145.602982,134.004913 138.289352,134.007645 130.668396,134.015259 
	C129.647293,134.381180 128.933517,134.742249 127.737984,135.078918 
	C120.465935,135.020599 113.675652,134.986664 106.885376,134.952744 
	C107.678467,133.381241 108.471565,131.809723 109.572525,130.096954 
z"/>
<path fill="#E95429" opacity="1.000000" stroke="none" 
	d="
M153.065613,123.530479 
	C150.837570,124.300957 148.562866,124.976067 146.298050,124.944466 
	C135.526031,124.794159 124.756721,124.451500 113.588974,124.097244 
	C114.065826,122.554146 114.940140,121.091118 115.988586,119.320389 
	C126.602264,119.330803 137.040649,119.719299 147.482590,119.890442 
	C149.032166,119.915840 150.598526,118.916168 152.487625,118.218575 
	C152.886597,119.734093 152.955048,121.421783 153.065613,123.530479 
z"/>
<path fill="#F19725" opacity="1.000000" stroke="none" 
	d="
M153.832870,150.007660 
	C153.546158,152.725586 153.259445,155.443497 152.534088,158.397568 
	C144.783615,158.417694 137.471786,158.201675 130.117523,157.589111 
	C130.030182,156.130341 129.985291,155.068115 129.975418,153.581131 
	C130.054596,151.453186 130.098785,149.750000 130.380951,148.037827 
	C130.618958,148.028839 131.095139,148.016754 131.378876,148.273132 
	C133.314896,149.019760 134.955658,149.881256 136.621521,149.932907 
	C142.353897,150.110626 148.095062,150.005203 153.832870,150.007660 
z"/>
<path fill="#EC7927" opacity="1.000000" stroke="none" 
	d="
M106.528839,134.988968 
	C113.675652,134.986664 120.465935,135.020599 127.654655,135.418671 
	C127.427895,137.537903 126.802681,139.292984 126.018982,141.232574 
	C125.663826,141.678070 125.424461,141.891068 124.665070,142.041138 
	C116.758812,142.005646 109.329895,141.985077 101.900986,141.964508 
	C103.324753,139.651398 104.748535,137.338287 106.528839,134.988968 
z"/>
<path fill="#F4A322" opacity="1.000000" stroke="none" 
	d="
M130.159958,157.985657 
	C137.471786,158.201675 144.783615,158.417694 152.462555,158.809204 
	C152.219116,160.736755 151.608597,162.488800 150.457275,164.621780 
	C143.308441,165.009613 136.700424,165.016525 130.057587,164.594543 
	C129.965714,162.449875 129.908630,160.734100 129.926422,158.759521 
	C130.054184,158.329010 130.107071,158.157349 130.159958,157.985657 
z"/>
<path fill="#F9DF08" opacity="1.000000" stroke="none" 
	d="
M33.890884,192.048309 
	C31.658035,188.935089 29.425188,185.821869 27.425766,182.212585 
	C29.953117,181.473755 32.345676,181.547119 34.505089,180.873276 
	C35.866093,180.448608 36.878212,178.905853 38.046829,177.864639 
	C39.433968,181.123428 40.821110,184.382217 42.862503,187.820923 
	C44.028713,188.329681 44.540676,188.658508 45.112747,189.307343 
	C45.780418,190.759888 46.387985,191.892410 46.629993,192.859344 
	C42.139919,192.478592 38.015404,192.263443 33.890884,192.048309 
z"/>
<path fill="#F08F25" opacity="1.000000" stroke="none" 
	d="
M94.888885,151.954987 
	C96.209145,149.857285 97.529396,147.759583 99.282646,145.616287 
	C101.368919,146.046921 103.007385,146.864441 104.678169,146.936951 
	C110.234200,147.178085 115.801849,147.151505 121.243790,147.545654 
	C120.067368,149.572037 119.012199,151.280304 117.718369,152.989655 
	C117.479706,152.990738 117.002441,152.998779 116.533752,152.997681 
	C109.006340,152.649368 101.947617,152.302185 94.888885,151.954987 
z"/>
<path fill="#F29A25" opacity="1.000000" stroke="none" 
	d="
M94.576469,152.095276 
	C101.947617,152.302185 109.006340,152.649368 116.383682,153.288483 
	C115.725052,155.013412 114.747818,156.446426 113.578979,157.928177 
	C113.387390,157.976898 113.018066,158.118027 112.716843,158.159607 
	C111.981598,158.805557 111.547585,159.409927 110.946579,160.225739 
	C110.494621,160.892181 110.209671,161.347198 109.687912,161.806290 
	C109.451103,161.810379 108.980972,161.752502 108.886055,161.390961 
	C107.112518,160.353561 105.481438,159.290421 103.746002,159.077347 
	C99.245605,158.524796 94.699265,158.346420 90.171265,158.018692 
	C91.535530,156.090988 92.899788,154.163284 94.576469,152.095276 
z"/>
<path fill="#ED7D27" opacity="1.000000" stroke="none" 
	d="
M153.832306,138.005219 
	C153.880707,139.721985 153.929108,141.438736 153.447815,143.578735 
	C145.668777,143.993912 138.419434,143.985840 131.110870,143.612091 
	C130.988739,142.508850 130.925858,141.771301 130.915756,140.651947 
	C131.064178,139.504929 131.159836,138.739746 131.708069,137.979736 
	C139.384521,137.991684 146.608414,137.998444 153.832306,138.005219 
z"/>
<path fill="#EE8926" opacity="1.000000" stroke="none" 
	d="
M131.170090,143.977783 
	C138.419434,143.985840 145.668777,143.993912 153.376038,144.003082 
	C153.882263,145.722504 153.930573,147.440811 153.905884,149.583405 
	C148.095062,150.005203 142.353897,150.110626 136.621521,149.932907 
	C134.955658,149.881256 133.314896,149.019760 131.357162,147.868530 
	C131.091171,146.130951 131.130630,145.054367 131.170090,143.977783 
z"/>
<path fill="#F7B81A" opacity="1.000000" stroke="none" 
	d="
M148.124496,176.946350 
	C141.545929,176.965820 134.967346,176.985260 127.906693,176.602722 
	C127.383972,175.114990 127.343338,174.029282 127.338753,172.696014 
	C127.412819,172.117371 127.435226,171.785217 127.645546,171.318924 
	C128.246017,170.936951 128.642960,170.688080 129.417694,170.588425 
	C136.483994,170.828461 143.172501,170.919281 149.861008,171.010101 
	C149.568665,171.801971 149.276306,172.593872 148.909882,173.707642 
	C148.835815,174.029541 148.913513,173.953232 148.635895,174.068542 
	C148.280334,175.104675 148.202423,176.025513 148.124496,176.946350 
z"/>
<path fill="#F5AD20" opacity="1.000000" stroke="none" 
	d="
M149.929382,170.624023 
	C143.172501,170.919281 136.483994,170.828461 129.427032,170.127716 
	C129.070496,168.041336 129.082382,166.564896 129.343826,165.072723 
	C129.759735,165.045792 129.926071,165.034607 130.092392,165.023438 
	C136.700424,165.016525 143.308441,165.009613 150.374222,165.003784 
	C150.553894,166.749237 150.275833,168.493591 149.929382,170.624023 
z"/>
<path fill="#FAE10A" opacity="1.000000" stroke="none" 
	d="
M70.879448,218.067017 
	C66.326569,214.289185 61.773693,210.511337 57.283066,206.105713 
	C60.000412,204.626205 62.655510,203.774506 65.568626,203.120117 
	C68.548317,206.201141 71.269989,209.084839 73.865417,212.270050 
	C72.766312,214.393158 74.904449,217.833664 70.879448,218.067017 
z"/>
<path fill="#F4A522" opacity="1.000000" stroke="none" 
	d="
M90.002235,158.345978 
	C94.699265,158.346420 99.245605,158.524796 103.746002,159.077347 
	C105.481438,159.290421 107.112518,160.353561 108.718422,161.679764 
	C107.449760,163.559601 106.253822,164.789093 104.671883,165.853058 
	C98.581886,165.125977 92.877876,164.564392 87.173874,164.002823 
	C88.060318,162.226303 88.946762,160.449783 90.002235,158.345978 
z"/>
<path fill="#EE8327" opacity="1.000000" stroke="none" 
	d="
M121.365044,147.227570 
	C115.801849,147.151505 110.234200,147.178085 104.678169,146.936951 
	C103.007385,146.864441 101.368919,146.046921 99.445160,145.307495 
	C99.889160,144.118546 100.603645,143.192780 101.609558,142.115753 
	C109.329895,141.985077 116.758812,142.005646 124.519501,142.348267 
	C124.215622,144.108765 123.579971,145.547195 122.678719,147.019623 
	C122.063766,147.111603 121.714409,147.169586 121.365044,147.227570 
z"/>
<path fill="#F9E316" opacity="1.000000" stroke="none" 
	d="
M123.860893,211.974640 
	C127.442398,211.986008 131.044571,211.774200 134.596649,212.103302 
	C136.360886,212.266785 138.033081,213.423584 139.862762,214.477676 
	C138.233505,216.156799 136.488434,217.489258 134.007141,218.862198 
	C128.227829,218.233368 123.184700,217.564087 118.120270,216.701736 
	C118.098961,216.508682 118.053871,216.121124 118.180641,215.830460 
	C119.010223,214.754349 119.713028,213.968903 120.629471,213.213135 
	C120.843102,213.242783 121.268074,213.168823 121.559296,213.142487 
	C122.520645,212.735657 123.190773,212.355148 123.860893,211.974640 
z"/>
<path fill="#FAE32D" opacity="1.000000" stroke="none" 
	d="
M118.141579,216.894791 
	C123.184700,217.564087 128.227829,218.233368 133.679977,218.994904 
	C129.647400,221.386276 125.205780,223.685410 120.259064,225.576233 
	C118.127769,224.463318 116.542412,223.633362 114.864731,223.086823 
	C112.898239,222.446228 110.851433,222.052216 109.010056,221.374634 
	C109.648415,221.085022 110.116196,220.972031 110.967407,220.857849 
	C113.614418,219.536026 115.877998,218.215408 118.141579,216.894791 
z"/>
<path fill="#F9D50A" opacity="1.000000" stroke="none" 
	d="
M38.027931,177.488419 
	C36.878212,178.905853 35.866093,180.448608 34.505089,180.873276 
	C32.345676,181.547119 29.953117,181.473755 27.277168,181.881790 
	C26.240858,181.231857 25.514086,180.463654 24.948118,179.591141 
	C23.923882,178.012192 22.995592,176.370987 22.500191,174.350784 
	C27.259579,173.633652 31.546022,173.321518 35.832466,173.009384 
	C36.557987,174.376984 37.283508,175.744598 38.027931,177.488419 
z"/>
<path fill="#F5AD20" opacity="1.000000" stroke="none" 
	d="
M40.163811,178.988403 
	C39.785583,175.944336 39.407352,172.900284 39.551979,169.430008 
	C44.321850,169.006989 48.568874,169.010178 53.015022,169.242355 
	C53.774834,169.683609 54.335522,169.895889 54.921127,170.438583 
	C55.008076,171.205856 55.070107,171.642715 55.072624,172.468216 
	C54.963680,173.902725 54.914257,174.948624 54.409103,175.995041 
	C51.174217,175.997391 48.326706,175.629089 45.638859,176.125412 
	C43.703606,176.482758 41.981171,177.992615 40.163811,178.988403 
z"/>
<path fill="#EE8926" opacity="1.000000" stroke="none" 
	d="
M88.830093,148.009552 
	C87.792633,150.231873 86.755180,152.454208 84.955475,154.846497 
	C80.761795,154.671997 77.330376,154.327545 73.931686,153.585144 
	C74.039711,152.125519 74.115005,151.063843 74.400558,149.784531 
	C75.657051,148.367310 76.703285,147.167740 78.134766,146.116638 
	C81.956711,146.846573 85.393402,147.428070 88.830093,148.009552 
z"/>
<path fill="#ED7D27" opacity="1.000000" stroke="none" 
	d="
M16.166813,144.002716 
	C16.121187,142.286987 16.075562,140.571274 16.555410,138.429672 
	C22.330677,138.003830 27.580469,138.003860 32.830261,138.003891 
	C32.879475,139.721786 32.928688,141.439697 32.448589,143.580200 
	C26.668457,144.002777 21.417635,144.002747 16.166813,144.002716 
z"/>
<path fill="#F9D50A" opacity="1.000000" stroke="none" 
	d="
M65.310608,202.922821 
	C62.655510,203.774506 60.000412,204.626205 57.149948,205.790985 
	C55.551430,204.736771 54.148277,203.369461 52.422638,202.000687 
	C52.100147,201.999222 52.048393,202.062271 52.023178,201.704926 
	C51.336964,200.170944 50.675964,198.994339 50.147850,197.486603 
	C54.041416,196.775635 57.802090,196.395798 61.775139,196.308014 
	C63.095215,198.707657 64.202911,200.815247 65.310608,202.922821 
z"/>
<path fill="#F9D50A" opacity="1.000000" stroke="none" 
	d="
M81.832939,202.059540 
	C81.564270,198.340668 81.295601,194.621811 81.546181,190.451019 
	C85.086639,190.003372 88.107849,190.007614 91.164413,190.348969 
	C91.267517,191.131546 91.335274,191.576996 91.242661,192.367874 
	C90.908035,193.453308 90.733765,194.193314 90.257858,195.108002 
	C89.638245,197.189072 89.320274,199.095459 88.589355,201.001038 
	C86.061920,201.353363 83.947433,201.706451 81.832939,202.059540 
z"/>
<path fill="#F08F25" opacity="1.000000" stroke="none" 
	d="
M16.099705,144.427750 
	C21.417635,144.002747 26.668457,144.002777 32.375759,144.004364 
	C32.880749,145.397812 32.929253,146.789734 32.506931,148.675110 
	C26.745329,149.446854 21.454552,149.725113 16.163773,150.003357 
	C16.120049,148.286499 16.076323,146.569641 16.099705,144.427750 
z"/>
<path fill="#F4A322" opacity="1.000000" stroke="none" 
	d="
M82.846504,160.986053 
	C81.894234,163.076981 80.941963,165.167923 79.464470,167.630737 
	C75.945557,167.997406 72.951881,167.992203 69.962135,167.561127 
	C70.008904,165.431824 70.051735,163.728394 70.336960,161.768311 
	C71.074539,159.680130 71.569717,157.848587 72.302338,156.014435 
	C72.539787,156.011856 73.014580,156.000275 73.212372,156.218750 
	C74.352318,157.620895 75.067581,159.372513 76.287857,159.860001 
	C78.302490,160.664841 80.643211,160.653442 82.846504,160.986053 
z"/>
<path fill="#F7B41D" opacity="1.000000" stroke="none" 
	d="
M162.916931,175.609634 
	C159.084946,175.551819 155.338318,175.100281 151.310638,174.404114 
	C153.113922,171.845322 155.198273,169.531174 157.983978,167.098541 
	C160.734344,167.321091 162.783356,167.662155 164.832382,168.003204 
	C164.222336,170.407440 163.612305,172.811676 162.916931,175.609634 
z"/>
<path fill="#FAE444" opacity="1.000000" stroke="none" 
	d="
M113.123932,227.040817 
	C112.585640,227.687103 112.091690,228.848740 111.502174,228.899460 
	C105.971565,229.375229 100.411888,230.001953 94.890099,229.795654 
	C93.213058,229.733017 91.627617,227.218628 90.370087,225.414032 
	C91.985214,224.120911 93.230469,223.240921 94.773972,222.572266 
	C96.716690,223.199615 98.361183,223.615616 100.140503,224.387665 
	C104.558205,225.509415 108.841064,226.275116 113.123932,227.040817 
z"/>
<path fill="#EC7428" opacity="1.000000" stroke="none" 
	d="
M89.007492,147.693237 
	C85.393402,147.428070 81.956711,146.846573 78.220322,145.771210 
	C78.404602,144.201965 78.888580,143.126587 79.639107,141.940125 
	C80.242653,141.166382 80.579651,140.503738 81.004135,139.650726 
	C81.243980,139.216248 81.452614,139.038010 82.106354,139.080597 
	C86.283760,139.823532 90.072334,140.411545 93.860916,140.999542 
	C92.302238,143.125336 90.743561,145.251129 89.007492,147.693237 
z"/>
<path fill="#FAC914" opacity="1.000000" stroke="none" 
	d="
M91.129059,190.011856 
	C88.107849,190.007614 85.086639,190.003372 81.618576,189.999298 
	C81.121185,187.625031 81.070641,185.250580 81.415100,182.285400 
	C85.846085,181.798813 89.882065,181.902954 93.874718,182.349182 
	C93.433426,184.162674 93.035454,185.634064 92.495605,187.401764 
	C91.945496,188.469330 91.537277,189.240585 91.129059,190.011856 
z"/>
<path fill="#F8C216" opacity="1.000000" stroke="none" 
	d="
M45.052639,188.987320 
	C44.540676,188.658508 44.028713,188.329681 43.214592,187.937469 
	C42.620342,186.170807 42.328255,184.467529 42.552410,182.382935 
	C47.556278,182.669830 52.043903,183.338058 56.647980,184.324692 
	C56.888588,185.077576 57.012749,185.512039 56.869598,186.207855 
	C53.548252,190.958862 48.983990,188.521637 45.052639,188.987320 
z"/>
<path fill="#EC7428" opacity="1.000000" stroke="none" 
	d="
M153.903534,137.608856 
	C146.608414,137.998444 139.384521,137.991684 131.644104,137.586670 
	C131.076950,136.129074 131.026337,135.069733 130.975739,134.010391 
	C138.289352,134.007645 145.602982,134.004913 153.374359,134.003082 
	C153.879669,135.073502 153.927216,136.143005 153.903534,137.608856 
z"/>
<path fill="#F5AD20" opacity="1.000000" stroke="none" 
	d="
M87.018051,164.322998 
	C92.877876,164.564392 98.581886,165.125977 104.539558,166.126648 
	C104.199486,167.377777 103.605743,168.189789 102.760529,169.101410 
	C102.048378,169.480560 101.587692,169.760147 100.652664,170.030075 
	C96.780495,170.013474 93.366058,170.202850 89.991814,169.917267 
	C88.288483,169.773132 86.657944,168.768875 84.994484,168.153534 
	C85.617065,166.983414 86.239639,165.813293 87.018051,164.322998 
z"/>
<path fill="#EA6129" opacity="1.000000" stroke="none" 
	d="
M40.166470,136.002777 
	C40.520943,134.428665 40.875416,132.854553 42.023907,131.129883 
	C47.537960,131.317917 52.257996,131.656525 57.001808,132.329742 
	C57.036835,133.110519 57.048088,133.556686 56.964149,134.155090 
	C56.868958,134.307312 56.848854,134.665833 56.561127,134.804993 
	C55.836617,135.629608 55.399830,136.315079 54.503502,137.000092 
	C49.418133,136.667358 44.792301,136.335068 40.166470,136.002777 
z"/>
<path fill="#F4A322" opacity="1.000000" stroke="none" 
	d="
M52.815895,169.013367 
	C48.568874,169.010178 44.321850,169.006989 39.622551,169.004639 
	C38.449188,167.271942 37.728100,165.538422 37.535255,163.406036 
	C42.659119,163.006439 47.254734,163.005692 51.917870,163.335205 
	C52.326721,164.440063 52.668060,165.214676 53.033558,166.324860 
	C53.137497,167.101334 53.217278,167.542206 53.173653,168.239197 
	C52.972134,168.667984 52.894016,168.840668 52.815895,169.013367 
z"/>
<path fill="#EB6B29" opacity="1.000000" stroke="none" 
	d="
M94.008484,140.675659 
	C90.072334,140.411545 86.283760,139.823532 82.187134,138.737793 
	C82.021721,137.550781 82.164352,136.861526 82.591568,136.050842 
	C84.217545,134.564407 85.558952,133.199402 87.164505,132.124054 
	C90.987114,132.953064 94.545570,133.492401 98.104034,134.031738 
	C96.788040,136.138428 95.472046,138.245102 94.008484,140.675659 
z"/>
<path fill="#F7B41D" opacity="1.000000" stroke="none" 
	d="
M84.622238,168.237274 
	C86.657944,168.768875 88.288483,169.773132 89.991814,169.917267 
	C93.366058,170.202850 96.780495,170.013474 100.598907,170.345428 
	C100.680717,171.447327 100.341934,172.224213 100.001572,173.000549 
	C100.000000,173.000000 100.001076,173.003159 99.712479,173.141541 
	C98.958183,174.189240 98.492485,175.098541 97.810173,176.024567 
	C97.593552,176.041306 97.159851,176.068176 96.701080,176.051514 
	C91.976479,175.651627 87.235130,177.122040 83.958267,172.883636 
	C84.055504,171.362762 84.152748,169.841888 84.622238,168.237274 
z"/>
<path fill="#F7B81A" opacity="1.000000" stroke="none" 
	d="
M56.531532,184.006287 
	C52.043903,183.338058 47.556278,182.669830 42.617676,182.002579 
	C41.525784,181.224915 40.884872,180.446289 40.203888,179.328033 
	C41.981171,177.992615 43.703606,176.482758 45.638859,176.125412 
	C48.326706,175.629089 51.174217,175.997391 54.473991,176.376160 
	C55.506912,179.173264 56.019222,181.589783 56.531532,184.006287 
z"/>
<path fill="#FAE10A" opacity="1.000000" stroke="none" 
	d="
M82.018585,202.421066 
	C83.947433,201.706451 86.061920,201.353363 88.594299,201.390839 
	C89.521591,203.545837 90.030991,205.310226 90.654404,207.309021 
	C90.851105,207.696243 90.933792,207.849075 90.947319,208.372849 
	C90.930397,209.494644 90.982643,210.245483 90.786774,211.258850 
	C89.001160,212.716019 87.463646,213.910660 85.926125,215.105301 
	C84.951241,212.216522 83.939262,209.339478 83.019501,206.433243 
	C82.644707,205.248978 82.469994,204.001373 82.018585,202.421066 
z"/>
<path fill="#F9BE1A" opacity="1.000000" stroke="none" 
	d="
M83.604736,173.088287 
	C87.235130,177.122040 91.976479,175.651627 96.625183,176.354660 
	C96.750847,177.463959 96.493637,178.253464 96.120148,179.292725 
	C95.944092,179.902954 95.884315,180.263382 95.560600,180.758484 
	C94.837128,181.264450 94.377586,181.635757 93.918045,182.007080 
	C89.882065,181.902954 85.846085,181.798813 81.487488,181.845413 
	C81.860321,179.095078 82.555763,176.194016 83.604736,173.088287 
z"/>
<path fill="#F19725" opacity="1.000000" stroke="none" 
	d="
M51.850349,163.004929 
	C47.254734,163.005692 42.659119,163.006439 37.607918,163.011749 
	C37.111206,161.620468 37.070076,160.224625 37.495262,158.332642 
	C42.565445,157.556656 47.169312,157.276825 51.844170,157.421448 
	C51.893559,159.565582 51.871956,161.285263 51.850349,163.004929 
z"/>
<path fill="#EC7927" opacity="1.000000" stroke="none" 
	d="
M37.192890,147.968445 
	C37.719913,146.204636 38.246933,144.440811 39.424538,142.339340 
	C44.655975,141.997437 49.236828,141.993210 53.863823,142.365234 
	C53.971294,143.494720 54.032612,144.247925 54.035034,145.250626 
	C53.926876,145.663742 53.877613,145.827377 53.431122,146.076691 
	C47.753559,146.764389 42.473221,147.366425 37.192890,147.968445 
z"/>
<path fill="#E8492B" opacity="1.000000" stroke="none" 
	d="
M60.997520,119.984482 
	C61.354790,119.967026 61.712059,119.949562 62.370434,120.258392 
	C62.397968,121.376823 62.124393,122.168976 61.572208,123.146454 
	C60.403336,124.867470 59.513073,126.403152 58.353069,127.946388 
	C57.723858,127.970970 57.364384,127.988007 56.585651,127.981194 
	C51.733192,127.625771 47.299988,127.294189 42.866791,126.962608 
	C43.286934,125.649361 43.707073,124.336113 44.981483,122.999748 
	C49.247070,122.982773 52.703308,123.317657 56.051292,122.860214 
	C57.798389,122.621506 59.354919,120.988007 60.997520,119.984482 
z"/>
<path fill="#EE8327" opacity="1.000000" stroke="none" 
	d="
M37.114498,148.368179 
	C42.473221,147.366425 47.753559,146.764389 53.456528,146.460938 
	C53.457760,148.503220 53.036358,150.246964 52.172768,151.992371 
	C46.879078,151.999374 42.027580,152.004684 37.176079,152.009995 
	C37.129421,150.929306 37.082764,149.848602 37.114498,148.368179 
z"/>
<path fill="#F8C216" opacity="1.000000" stroke="none" 
	d="
M35.908737,172.610870 
	C31.546022,173.321518 27.259579,173.633652 22.565704,173.968994 
	C21.507309,172.576736 20.856350,171.161270 20.397839,169.159500 
	C22.373678,168.381302 24.178953,168.304840 25.935568,167.971756 
	C28.915434,167.406723 31.864609,166.679810 34.826683,166.020935 
	C35.212791,168.084747 35.598900,170.148560 35.908737,172.610870 
z"/>
<path fill="#F08F25" opacity="1.000000" stroke="none" 
	d="
M37.105080,152.433533 
	C42.027580,152.004684 46.879078,151.999374 52.248981,152.354767 
	C52.435982,154.142639 52.104576,155.569809 51.773178,156.996979 
	C47.169312,157.276825 42.565445,157.556656 37.565254,157.918884 
	C37.123981,156.286545 37.079033,154.571808 37.105080,152.433533 
z"/>
<path fill="#F4A522" opacity="1.000000" stroke="none" 
	d="
M32.834579,154.004105 
	C32.883430,155.394592 32.932285,156.785095 32.453941,158.587219 
	C27.339251,158.999252 22.751755,158.999649 18.164259,159.000061 
	C17.446489,158.227585 16.728720,157.455124 16.392502,156.128113 
	C22.127563,155.050415 27.481071,154.527252 32.834579,154.004105 
z"/>
<path fill="#F9D50A" opacity="1.000000" stroke="none" 
	d="
M75.835991,192.995468 
	C76.218109,195.396301 76.600227,197.797150 76.522705,200.686737 
	C74.560196,202.109818 73.057320,203.044159 71.329010,203.625122 
	C70.318970,199.295990 69.534363,195.320236 68.884598,191.022278 
	C69.091125,190.478546 69.162804,190.257019 69.594826,190.032806 
	C71.915451,191.018570 73.875725,192.007019 75.835991,192.995468 
z"/>
<path fill="#E95429" opacity="1.000000" stroke="none" 
	d="
M98.458023,134.001480 
	C94.545570,133.492401 90.987114,132.953064 87.239182,131.811493 
	C87.989616,130.126556 88.929520,129.043854 90.329086,127.968506 
	C94.808640,128.311142 98.828537,128.646423 102.848434,128.981705 
	C101.502968,130.644882 100.157494,132.308060 98.458023,134.001480 
z"/>
<path fill="#EB6B29" opacity="1.000000" stroke="none" 
	d="
M53.817677,141.988983 
	C49.236828,141.993210 44.655975,141.997437 39.620686,142.002838 
	C39.381077,140.238144 39.595909,138.472321 39.988605,136.354630 
	C44.792301,136.335068 49.418133,136.667358 54.448280,137.342545 
	C54.630192,138.789749 54.407795,139.894043 54.095329,141.246704 
	C53.942734,141.659698 53.880203,141.824341 53.817677,141.988983 
z"/>
<path fill="#F7B81A" opacity="1.000000" stroke="none" 
	d="
M34.903622,165.649475 
	C31.864609,166.679810 28.915434,167.406723 25.935568,167.971756 
	C24.178953,168.304840 22.373678,168.381302 20.270664,168.838318 
	C19.628389,167.674759 19.305738,166.246048 19.343388,164.350800 
	C24.753222,163.594543 29.802752,163.304840 34.852287,163.015137 
	C34.895042,163.769440 34.937801,164.523727 34.903622,165.649475 
z"/>
<path fill="#EC7428" opacity="1.000000" stroke="none" 
	d="
M32.979008,137.694641 
	C27.580469,138.003860 22.330677,138.003830 16.624451,138.005432 
	C16.538580,136.414490 16.909147,134.821899 17.940472,133.330872 
	C24.000750,133.620651 29.400272,133.808884 34.799789,133.997116 
	C34.242447,135.126541 33.685101,136.255966 32.979008,137.694641 
z"/>
<path fill="#E8492B" opacity="1.000000" stroke="none" 
	d="
M102.910385,128.634094 
	C98.828537,128.646423 94.808640,128.311142 90.358803,127.646454 
	C89.979111,126.888870 90.029358,126.460701 90.347137,125.850143 
	C91.926819,124.243385 93.238991,122.819000 94.868607,121.716614 
	C98.826866,122.374619 102.467674,122.710640 106.108490,123.046661 
	C105.063110,124.793274 104.017723,126.539886 102.910385,128.634094 
z"/>
<path fill="#F29A25" opacity="1.000000" stroke="none" 
	d="
M32.907574,153.591949 
	C27.481071,154.527252 22.127563,155.050415 16.458435,155.780167 
	C16.103527,154.274414 16.064241,152.562042 16.094364,150.426514 
	C21.454552,149.725113 26.745329,149.446854 32.434372,149.087509 
	C32.881947,150.397552 32.931259,151.788666 32.907574,153.591949 
z"/>
<path fill="#FAE32D" opacity="1.000000" stroke="none" 
	d="
M85.961540,215.497711 
	C87.463646,213.910660 89.001160,212.716019 91.095978,211.479156 
	C91.854416,212.959396 92.055550,214.481857 92.344711,216.336365 
	C93.113747,218.565918 93.794739,220.463425 94.475739,222.360916 
	C93.230469,223.240921 91.985214,224.120911 90.319580,225.019424 
	C88.598450,221.988663 87.297699,218.939407 85.961540,215.497711 
z"/>
<path fill="#EB6B29" opacity="1.000000" stroke="none" 
	d="
M34.878975,133.612152 
	C29.400272,133.808884 24.000750,133.620651 18.275297,133.168869 
	C17.977655,132.176590 18.005945,131.447876 18.556561,130.359802 
	C24.414587,130.029068 29.750288,130.057693 35.085991,130.086319 
	C35.043381,131.133286 35.000771,132.180237 34.878975,133.612152 
z"/>
<path fill="#FBE434" opacity="1.000000" stroke="none" 
	d="
M113.528069,227.022430 
	C108.841064,226.275116 104.558205,225.509415 100.515152,224.299057 
	C103.449799,223.086685 106.144630,222.318954 108.839470,221.551239 
	C110.851433,222.052216 112.898239,222.446228 114.864731,223.086823 
	C116.542412,223.633362 118.127769,224.463318 119.878601,225.504761 
	C117.979561,226.229095 115.955887,226.616562 113.528069,227.022430 
z"/>
<path fill="#F5AD20" opacity="1.000000" stroke="none" 
	d="
M34.914482,162.653320 
	C29.802752,163.304840 24.753222,163.594543 19.285549,163.963501 
	C18.585918,162.618805 18.304428,161.194855 18.093597,159.385483 
	C22.751755,158.999649 27.339251,158.999252 32.381607,158.999298 
	C33.549870,160.096985 34.263275,161.194244 34.914482,162.653320 
z"/>
<path fill="#E7362B" opacity="1.000000" stroke="none" 
	d="
M60.669846,119.742340 
	C59.354919,120.988007 57.798389,122.621506 56.051292,122.860214 
	C52.703308,123.317657 49.247070,122.982773 45.362869,122.965790 
	C45.347233,120.743408 45.804478,118.531853 46.631973,116.231514 
	C48.706879,117.090775 50.314461,118.481888 52.139240,118.881706 
	C54.791393,119.462822 57.600178,119.329086 60.669846,119.742340 
z"/>
<path fill="#F4A522" opacity="1.000000" stroke="none" 
	d="
M165.032120,167.627167 
	C162.783356,167.662155 160.734344,167.321091 158.289017,166.966690 
	C159.716675,162.873901 161.338882,158.651840 164.532700,155.540634 
	C165.103287,155.781265 165.673889,156.021896 166.244476,156.262543 
	C165.906937,159.925400 165.569397,163.588257 165.032120,167.627167 
z"/>
<path fill="#F08F25" opacity="1.000000" stroke="none" 
	d="
M82.925385,160.607697 
	C80.643211,160.653442 78.302490,160.664841 76.287857,159.860001 
	C75.067581,159.372513 74.352318,157.620895 73.244171,155.935425 
	C73.351768,154.950104 73.625351,154.466599 73.898941,153.983093 
	C77.330376,154.327545 80.761795,154.671997 84.640198,155.023712 
	C84.392876,156.763763 83.698570,158.496552 82.925385,160.607697 
z"/>
<path fill="#E95429" opacity="1.000000" stroke="none" 
	d="
M42.555580,127.152245 
	C47.299988,127.294189 51.733192,127.625771 56.604828,128.410507 
	C57.108212,129.435608 57.173153,130.007553 57.278267,130.825089 
	C57.293327,131.411377 57.179863,131.719528 56.978035,131.995132 
	C52.257996,131.656525 47.537960,131.317917 42.352463,130.967987 
	C42.006126,129.751740 42.125248,128.546814 42.555580,127.152245 
z"/>
<path fill="#F9E316" opacity="1.000000" stroke="none" 
	d="
M71.554443,203.978516 
	C73.057320,203.044159 74.560196,202.109818 76.445312,201.098755 
	C77.888329,205.411911 78.949097,209.801788 79.684776,214.597015 
	C78.568863,214.999557 77.778046,214.996719 76.849289,214.763885 
	C75.830803,213.017029 74.950249,211.500137 73.800552,209.834839 
	C73.421951,209.093842 73.312508,208.501266 73.346268,207.722839 
	C73.074501,207.022766 72.659531,206.508545 72.147026,205.744507 
	C71.884483,204.989288 71.719467,204.483902 71.554443,203.978516 
z"/>
<path fill="#F5AD20" opacity="1.000000" stroke="none" 
	d="
M78.836792,171.016983 
	C78.301842,173.115051 77.766884,175.213120 76.599487,177.656433 
	C73.648994,178.001114 71.330956,178.000549 69.002373,177.581146 
	C68.899506,176.051041 68.807175,174.939789 68.760437,173.524750 
	C68.856544,172.813980 68.907066,172.406967 69.396622,171.999786 
	C72.836044,171.672058 75.836418,171.344528 78.836792,171.016983 
z"/>
<path fill="#FBE31C" opacity="1.000000" stroke="none" 
	d="
M74.069695,209.983261 
	C74.950249,211.500137 75.830803,213.017029 76.852966,215.164246 
	C76.741447,220.030411 78.694252,220.688858 82.121574,218.956070 
	C82.417862,219.418610 82.714142,219.881149 82.753525,220.794235 
	C81.650749,222.201797 80.804878,223.158813 79.959015,224.115829 
	C77.023399,222.313828 74.087784,220.511826 71.015808,218.388428 
	C74.904449,217.833664 72.766312,214.393158 73.893845,211.939957 
	C74.055588,210.866669 74.062637,210.424957 74.069695,209.983261 
z"/>
<path fill="#F9E316" opacity="1.000000" stroke="none" 
	d="
M33.936966,192.414612 
	C38.015404,192.263443 42.139919,192.478592 46.687721,193.195633 
	C47.387836,194.798889 47.664665,195.900253 47.524326,196.999023 
	C44.727741,197.713959 42.348331,198.431503 39.968918,199.149048 
	C37.973629,197.026337 35.978336,194.903625 33.936966,192.414612 
z"/>
<path fill="#E7362B" opacity="1.000000" stroke="none" 
	d="
M106.410431,122.909882 
	C102.467674,122.710640 98.826866,122.374619 94.932617,121.424423 
	C94.799942,120.212837 94.920692,119.615433 95.293633,118.844498 
	C96.255470,117.950829 96.965118,117.230682 97.674774,116.510544 
	C100.173050,121.143448 104.524704,118.122772 108.382515,118.991264 
	C108.125008,120.249512 107.418686,121.511314 106.410431,122.909882 
z"/>
<path fill="#E8492B" opacity="1.000000" stroke="none" 
	d="
M19.160133,126.993431 
	C19.504679,125.672241 19.849222,124.351051 20.896587,123.227150 
	C27.006863,123.617035 32.414322,123.809639 37.821777,124.002243 
	C37.249630,124.813141 36.677475,125.624039 35.514473,126.715424 
	C29.669123,126.995087 24.414627,126.994255 19.160133,126.993431 
z"/>
<path fill="#F9BE1A" opacity="1.000000" stroke="none" 
	d="
M69.012909,178.000000 
	C71.330956,178.000549 73.648994,178.001114 76.399551,178.002792 
	C76.883331,180.048401 76.934601,182.092911 76.480728,184.569382 
	C73.668793,185.003235 71.361984,185.005112 69.032921,184.569107 
	C69.011414,182.087479 69.012161,180.043747 69.012909,178.000000 
z"/>
<path fill="#E95429" opacity="1.000000" stroke="none" 
	d="
M19.019691,127.298195 
	C24.414627,126.994255 29.669123,126.995087 35.380341,126.995804 
	C35.795589,127.915329 35.754112,128.834961 35.399315,129.920471 
	C29.750288,130.057693 24.414587,130.029068 18.621731,130.001007 
	C18.402803,129.202026 18.641027,128.402496 19.019691,127.298195 
z"/>
<path fill="#E7422A" opacity="1.000000" stroke="none" 
	d="
M37.889091,123.636322 
	C32.414322,123.809639 27.006863,123.617035 21.274153,123.159767 
	C21.065926,122.018112 21.182951,121.141129 21.983837,120.275742 
	C27.815594,120.540001 32.963490,120.792656 38.111382,121.045311 
	C38.059723,121.787003 38.008064,122.528702 37.889091,123.636322 
z"/>
<path fill="#E7362B" opacity="1.000000" stroke="none" 
	d="
M38.393017,120.907303 
	C32.963490,120.792656 27.815594,120.540001 22.278980,120.116966 
	C21.939678,119.512199 21.989096,119.077820 22.114170,118.324158 
	C27.843559,118.011925 33.497288,118.018967 39.624710,118.036362 
	C39.623817,118.954254 39.149235,119.861778 38.393017,120.907303 
z"/>
<path fill="#FAC914" opacity="1.000000" stroke="none" 
	d="
M69.055176,185.006989 
	C71.361984,185.005112 73.668793,185.003235 76.406509,185.001907 
	C76.554504,187.393463 76.271599,189.784470 75.912338,192.585480 
	C73.875725,192.007019 71.915451,191.018570 69.529594,189.616211 
	C69.087730,187.803848 69.071449,186.405411 69.055176,185.006989 
z"/>
<path fill="#F5A922" opacity="1.000000" stroke="none" 
	d="
M78.973816,170.706680 
	C75.836418,171.344528 72.836044,171.672058 69.311081,171.771729 
	C68.786491,171.543869 68.637154,171.079941 68.742996,170.699860 
	C68.893463,169.535248 68.938080,168.750717 69.226562,167.971741 
	C69.470428,167.977295 69.958199,167.987000 69.958199,167.987000 
	C72.951881,167.992203 75.945557,167.997406 79.383484,168.003265 
	C79.588760,168.801392 79.349792,169.598892 78.973816,170.706680 
z"/>
<path fill="#FAE32D" opacity="1.000000" stroke="none" 
	d="
M40.126301,199.457947 
	C42.348331,198.431503 44.727741,197.713959 47.738297,197.152924 
	C48.586517,197.583023 48.803600,197.856628 49.010483,198.438293 
	C49.041561,199.154236 49.082840,199.562119 48.786591,200.028824 
	C47.276867,201.092377 46.104671,202.097076 44.932480,203.101807 
	C43.382877,201.990158 41.833279,200.878510 40.126301,199.457947 
z"/>
<path fill="#FAE444" opacity="1.000000" stroke="none" 
	d="
M44.963852,203.469040 
	C46.104671,202.097076 47.276867,201.092377 49.123260,200.209198 
	C50.547775,200.907898 51.298088,201.485077 52.048397,202.062256 
	C52.048393,202.062271 52.100147,201.999222 52.072380,201.970459 
	C51.448009,203.385437 50.851406,204.829163 50.254799,206.272903 
	C48.501606,205.460693 46.748413,204.648483 44.963852,203.469040 
z"/>
<path fill="#FAE32D" opacity="1.000000" stroke="none" 
	d="
M82.065964,218.613220 
	C78.694252,220.688858 76.741447,220.030411 76.990898,215.394226 
	C77.778046,214.996719 78.568863,214.999557 79.756401,215.002289 
	C80.772194,216.091599 81.391266,217.180984 82.065964,218.613220 
z"/>
<path fill="#FAE32D" opacity="1.000000" stroke="none" 
	d="
M80.075867,224.414124 
	C80.804878,223.158813 81.650749,222.201797 82.802429,221.098450 
	C82.990974,222.230209 82.986977,223.540268 82.644119,224.754654 
	C82.587479,224.955276 81.047295,224.737076 80.075867,224.414124 
z"/>
<path fill="#FBE10D" opacity="1.000000" stroke="none" 
	d="
M84.923752,89.982300 
	C88.547043,85.857437 92.170334,81.732582 96.348846,77.317757 
	C98.369652,77.374023 99.835220,77.720261 101.116135,78.363220 
	C99.965073,80.461273 98.998672,82.262596 97.730515,84.219849 
	C95.290276,87.252380 93.151810,90.128998 90.908112,92.671486 
	C88.843170,91.552338 86.883461,90.767319 84.923752,89.982300 
z"/>
<path fill="#FBE75B" opacity="1.000000" stroke="none" 
	d="
M61.850822,122.961121 
	C62.124393,122.168976 62.397968,121.376823 62.638618,120.266159 
	C63.800312,118.053360 64.994926,116.159065 66.813354,114.225006 
	C69.951591,114.789787 72.466026,115.394333 75.003067,116.251198 
	C75.040993,116.671707 75.056313,116.839890 74.868607,117.288925 
	C73.729927,119.660370 72.794266,121.750954 71.627136,123.983719 
	C70.939697,124.417778 70.483734,124.709656 69.701462,124.817360 
	C66.867050,124.075829 64.358932,123.518471 61.850822,122.961121 
z"/>
<path fill="#FAC914" opacity="1.000000" stroke="none" 
	d="
M101.300797,78.066498 
	C99.835220,77.720261 98.369652,77.374023 96.524025,77.027359 
	C98.677628,73.556664 101.211281,70.086411 104.245682,66.329803 
	C105.864616,66.696869 106.982803,67.350288 108.046585,68.360138 
	C106.541817,71.392387 105.091438,74.068199 103.419945,76.912170 
	C102.566147,77.409050 101.933472,77.737770 101.300797,78.066498 
z"/>
<path fill="#FBE434" opacity="1.000000" stroke="none" 
	d="
M72.832970,104.946053 
	C74.071732,103.095512 75.310486,101.244972 77.151108,99.157059 
	C78.793457,98.578758 79.833939,98.237816 81.263199,97.922577 
	C82.820419,98.367805 83.988861,98.787331 85.073265,99.545929 
	C84.642654,101.251579 84.296074,102.618164 83.705742,104.106125 
	C82.981544,104.486244 82.501091,104.744987 81.619469,105.003235 
	C78.423187,104.983841 75.628075,104.964943 72.832970,104.946053 
z"/>
<path fill="#FBE31C" opacity="1.000000" stroke="none" 
	d="
M85.157295,99.206863 
	C83.988861,98.787331 82.820419,98.367805 81.284546,97.505829 
	C80.849922,96.223579 80.782715,95.383766 80.715515,94.543953 
	C81.005333,94.122864 81.295151,93.701775 82.111343,93.079041 
	C83.083961,92.232613 83.530212,91.587837 83.976463,90.943054 
	C84.215034,90.758736 84.435570,90.554909 84.780914,90.156937 
	C86.883461,90.767319 88.843170,91.552338 90.921181,92.924164 
	C91.044083,93.679581 91.048683,93.848190 90.798019,94.207825 
	C89.421082,95.676353 88.299400,96.953865 86.910049,98.319763 
	C86.147346,98.674385 85.652321,98.940628 85.157295,99.206863 
z"/>
<path fill="#F7B81A" opacity="1.000000" stroke="none" 
	d="
M108.100983,68.003708 
	C106.982803,67.350288 105.864616,66.696869 104.412170,66.029160 
	C107.103027,62.347942 110.128151,58.681019 113.531410,55.419453 
	C113.985222,56.251945 114.060905,56.679081 114.136597,57.106220 
	C113.158760,59.190868 112.180923,61.275520 110.838089,63.845634 
	C109.682388,65.555305 108.891685,66.779503 108.100983,68.003708 
z"/>
<path fill="#FBE254" opacity="1.000000" stroke="none" 
	d="
M74.980453,115.998878 
	C72.466026,115.394333 69.951591,114.789787 67.073990,114.018890 
	C66.710823,113.852524 66.809410,113.371307 67.289314,113.070969 
	C68.141281,111.990143 68.513351,111.209648 68.885414,110.429153 
	C69.471222,109.413208 70.057022,108.397263 71.142693,107.468307 
	C73.763641,108.704994 75.884735,109.854683 77.928978,111.325165 
	C76.894905,113.096924 75.937675,114.547905 74.980453,115.998878 
z"/>
<path fill="#FAE444" opacity="1.000000" stroke="none" 
	d="
M78.005821,111.004364 
	C75.884735,109.854683 73.763641,108.704994 71.406464,107.338577 
	C71.539192,106.463562 71.908005,105.805267 72.554886,105.046509 
	C75.628075,104.964943 78.423187,104.983841 81.560226,105.339691 
	C81.228096,107.102829 80.554031,108.529015 79.642761,110.081848 
	C78.938980,110.473793 78.472397,110.739082 78.005821,111.004364 
z"/>
<path fill="#F9BE1A" opacity="1.000000" stroke="none" 
	d="
M80.421455,94.698875 
	C80.782715,95.383766 80.849922,96.223579 80.895767,97.480133 
	C79.833939,98.237816 78.793457,98.578758 77.426895,98.969116 
	C78.109680,97.630295 79.118538,96.242043 80.421455,94.698875 
z"/>
<path fill="#FAE444" opacity="1.000000" stroke="none" 
	d="
M68.606300,110.603271 
	C68.513351,111.209648 68.141281,111.990143 67.448883,112.884262 
	C67.528091,112.257721 67.927635,111.517555 68.606300,110.603271 
z"/>
<path fill="#EC7428" opacity="1.000000" stroke="none" 
	d="
M114.405350,56.999088 
	C114.060905,56.679081 113.985222,56.251945 113.889481,55.500359 
	C114.307831,55.148975 114.746239,55.122036 115.510841,55.081017 
	C115.449387,55.675274 115.061745,56.283615 114.405350,56.999088 
z"/>
<path fill="#F9BE1A" opacity="1.000000" stroke="none" 
	d="
M83.671188,90.998093 
	C83.530212,91.587837 83.083961,92.232613 82.329636,92.938873 
	C82.469681,92.351273 82.917801,91.702202 83.671188,90.998093 
z"/>
<path fill="#F9BE1A" opacity="1.000000" stroke="none" 
	d="
M77.928978,111.325157 
	C78.472397,110.739082 78.938980,110.473793 80.066200,110.164474 
	C86.793869,110.420769 92.860901,110.721100 98.932961,111.341400 
	C98.949013,112.087799 98.960030,112.514214 98.971054,112.940628 
	C98.916161,113.120842 98.861275,113.301048 98.598404,113.874069 
	C98.215919,114.442764 98.074692,114.642212 97.966751,114.865227 
	C97.883461,115.229439 97.800171,115.593658 97.695824,116.234207 
	C96.965118,117.230682 96.255470,117.950829 94.879166,118.769745 
	C87.832207,118.248367 81.451920,117.628220 75.071625,117.008072 
	C75.056313,116.839890 75.040993,116.671707 75.003067,116.251198 
	C75.937675,114.547905 76.894905,113.096924 77.928978,111.325157 
z"/>
<path fill="#F5A922" opacity="1.000000" stroke="none" 
	d="
M85.073265,99.545929 
	C85.652321,98.940628 86.147346,98.674385 87.194199,98.525620 
	C93.259987,99.114143 98.773949,99.585175 104.287903,100.056213 
	C103.032906,103.552330 101.777908,107.048454 100.196854,110.710350 
	C99.870796,110.876122 99.826805,110.835663 99.889061,110.478516 
	C101.488884,105.961235 99.577751,104.930389 95.700104,104.928116 
	C91.783051,104.925812 87.866341,104.323959 83.949493,103.984756 
	C84.296074,102.618164 84.642654,101.251579 85.073265,99.545929 
z"/>
<path fill="#EE8926" opacity="1.000000" stroke="none" 
	d="
M101.116135,78.363220 
	C101.933472,77.737770 102.566147,77.409050 103.663780,77.209900 
	C106.040298,78.217522 107.951859,79.095573 109.863419,79.973633 
	C109.813782,81.682594 109.764145,83.391563 109.385422,85.650932 
	C108.777092,86.912682 108.497849,87.624023 108.218613,88.335358 
	C108.218605,88.335358 108.222588,88.665268 107.712021,88.828979 
	C103.635178,88.298325 98.152184,91.169701 98.032280,84.063927 
	C98.998672,82.262596 99.965073,80.461273 101.116135,78.363220 
z"/>
<path fill="#F29A25" opacity="1.000000" stroke="none" 
	d="
M97.730515,84.219849 
	C98.152184,91.169701 103.635178,88.298325 107.652000,88.982635 
	C108.032639,90.044174 107.962723,91.115753 107.516769,92.696793 
	C106.836929,93.952843 106.533119,94.699448 106.229317,95.446045 
	C106.051300,95.951393 105.873283,96.456741 105.185013,96.814659 
	C102.853088,96.112892 101.063095,95.384949 99.202232,95.045525 
	C96.512848,94.554962 93.772102,94.345947 91.053276,94.016808 
	C91.048683,93.848190 91.044083,93.679581 91.026405,93.258286 
	C93.151810,90.128998 95.290276,87.252380 97.730515,84.219849 
z"/>
<path fill="#F4A322" opacity="1.000000" stroke="none" 
	d="
M90.798019,94.207825 
	C93.772102,94.345947 96.512848,94.554962 99.202232,95.045525 
	C101.063095,95.384949 102.853088,96.112892 104.955994,96.970856 
	C105.072342,98.066536 104.907448,98.858589 104.515228,99.853424 
	C98.773949,99.585175 93.259987,99.114143 87.461868,98.437241 
	C88.299400,96.953865 89.421082,95.676353 90.798019,94.207825 
z"/>
<path fill="#EC7428" opacity="1.000000" stroke="none" 
	d="
M110.135941,79.660706 
	C107.951859,79.095573 106.040298,78.217522 103.884903,77.041740 
	C105.091438,74.068199 106.541817,71.392387 108.046585,68.360138 
	C108.891685,66.779503 109.682388,65.555305 110.760223,64.182343 
	C110.834396,69.138321 110.621422,74.243042 110.135941,79.660706 
z"/>
<path fill="#EE8926" opacity="1.000000" stroke="none" 
	d="
M106.495659,95.279404 
	C106.533119,94.699448 106.836929,93.952843 107.433105,93.090622 
	C107.404320,93.687584 107.083160,94.400169 106.495659,95.279404 
z"/>
<path fill="#EC7428" opacity="1.000000" stroke="none" 
	d="
M108.485268,88.184624 
	C108.497849,87.624023 108.777092,86.912682 109.319885,86.073120 
	C109.306259,86.641220 109.029091,87.337555 108.485268,88.184624 
z"/>
<path fill="#F5A922" opacity="1.000000" stroke="none" 
	d="
M99.239532,112.800919 
	C98.960030,112.514214 98.949013,112.087799 99.159576,111.302002 
	C99.381157,110.942612 99.826805,110.835663 99.826805,110.835663 
	C99.826805,110.835663 99.870796,110.876122 99.892929,110.895882 
	C99.779373,111.497498 99.643684,112.079361 99.239532,112.800919 
z"/>
<path fill="#F5A922" opacity="1.000000" stroke="none" 
	d="
M98.175949,114.817886 
	C98.074692,114.642212 98.215919,114.442764 98.530212,114.148293 
	C98.774834,114.353485 98.679886,114.600426 98.175949,114.817886 
z"/>
<path fill="#FDF5C4" opacity="1.000000" stroke="none" 
	d="
M91.016487,208.001892 
	C90.933792,207.849075 90.851105,207.696243 90.744095,206.893250 
	C90.817657,204.829071 90.915520,203.415085 91.480865,202.000778 
	C99.295662,202.334229 106.642998,202.667969 113.990051,203.335175 
	C113.994301,204.113220 113.998833,204.557800 113.917297,205.042908 
	C113.831230,205.083405 113.813126,205.302338 113.813126,205.302338 
	C113.813126,205.302338 113.997581,204.996689 114.348282,204.993164 
	C115.166435,204.977631 115.633888,204.965622 116.101349,204.953613 
	C118.842491,204.061356 121.583641,203.169098 125.047852,202.166321 
	C126.849854,202.040482 127.928802,202.025162 129.003998,202.005066 
	C129.000244,202.000320 128.991669,201.993866 129.004868,202.359283 
	C129.077667,203.207718 129.137268,203.690750 129.196854,204.173767 
	C127.621750,206.302963 126.046646,208.432159 123.959656,210.711548 
	C123.447754,210.861755 122.951523,210.802078 122.865417,210.444855 
	C120.930664,209.392029 119.095558,208.141052 117.231056,208.095566 
	C108.497299,207.882584 99.755447,208.001526 91.016487,208.001892 
z"/>
<path fill="#FCF1A4" opacity="1.000000" stroke="none" 
	d="
M91.164406,190.348969 
	C91.537277,189.240585 91.945496,188.469330 92.734421,187.314484 
	C93.738670,186.616089 94.362206,186.301285 95.455276,185.990143 
	C105.216797,186.332916 114.508789,186.672028 123.800774,187.011139 
	C123.756966,187.212479 123.713158,187.413834 123.456421,188.029541 
	C123.131325,188.635971 123.058792,188.842041 123.025917,189.062103 
	C122.457077,190.546616 121.888229,192.031143 120.702682,193.541595 
	C117.854599,193.045441 115.633171,192.130203 113.390007,192.073410 
	C106.065285,191.887909 98.732635,192.015366 91.403030,192.022446 
	C91.335274,191.576996 91.267517,191.131546 91.164406,190.348969 
z"/>
<path fill="#FDF3AF" opacity="1.000000" stroke="none" 
	d="
M91.242668,192.367874 
	C98.732635,192.015366 106.065285,191.887909 113.390007,192.073410 
	C115.633171,192.130203 117.854599,193.045441 120.414055,193.722931 
	C120.478279,194.408386 120.214424,194.938446 119.512360,195.839355 
	C118.709068,197.122192 118.343994,198.034195 117.978928,198.946198 
	C117.331375,200.712158 116.683815,202.478134 116.068802,204.598846 
	C115.633888,204.965622 115.166435,204.977631 114.349487,204.994812 
	C114.000000,205.000000 114.003357,205.002396 114.003357,205.002396 
	C113.998833,204.557800 113.994301,204.113220 114.249435,203.091461 
	C116.578506,199.573853 116.073151,198.090637 112.221680,197.972137 
	C105.153358,197.754639 98.091187,197.337402 90.952003,196.656952 
	C90.771538,195.851425 90.665512,195.392380 90.559494,194.933319 
	C90.733765,194.193314 90.908035,193.453308 91.242668,192.367874 
z"/>
<path fill="#FBEB72" opacity="1.000000" stroke="none" 
	d="
M129.498352,204.035919 
	C129.137268,203.690750 129.077667,203.207718 129.107086,202.318863 
	C129.196091,201.913025 129.188690,201.637512 129.188690,201.637512 
	C129.188690,201.637512 129.007751,202.009827 129.007751,202.009827 
	C127.928802,202.025162 126.849854,202.040482 125.368217,202.008331 
	C127.042679,200.979645 129.119827,199.998428 131.567963,199.021957 
	C131.225922,200.650497 130.512894,202.274292 129.498352,204.035919 
z"/>
<path fill="#FCF1A4" opacity="1.000000" stroke="none" 
	d="
M118.258148,198.801208 
	C118.343994,198.034195 118.709068,197.122192 119.360825,196.098114 
	C119.277466,196.876099 118.907425,197.766159 118.258148,198.801208 
z"/>
<path fill="#FCEF96" opacity="1.000000" stroke="none" 
	d="
M123.239182,189.038544 
	C123.058792,188.842041 123.131325,188.635971 123.329147,188.311188 
	C123.414795,188.178497 123.695190,188.543152 123.786896,188.753906 
	C123.878609,188.964645 123.452446,189.014984 123.239182,189.038544 
z"/>
<path fill="#FBEB72" opacity="1.000000" stroke="none" 
	d="
M122.951523,210.802078 
	C122.951523,210.802078 123.447754,210.861755 123.693893,210.904297 
	C123.939583,211.119095 123.939133,211.291367 123.899796,211.719147 
	C123.190773,212.355148 122.520645,212.735657 121.530373,212.822388 
	C121.790657,211.953094 122.371094,211.377594 122.951523,210.802078 
z"/>
<path fill="#FCEF96" opacity="1.000000" stroke="none" 
	d="
M124.025101,186.760254 
	C114.508789,186.672028 105.216797,186.332916 95.474030,185.606522 
	C95.290344,183.687439 95.557442,182.155624 95.824532,180.623825 
	C95.884315,180.263382 95.944092,179.902954 96.565384,179.285736 
	C106.819069,179.026764 116.511223,179.024567 126.203384,179.022369 
	C126.127068,179.768372 126.050743,180.514374 125.628799,181.679245 
	C125.156769,182.718399 125.030373,183.338669 124.903984,183.958954 
	C124.685799,184.809082 124.467621,185.659225 124.025101,186.760254 
z"/>
<path fill="#FCEB85" opacity="1.000000" stroke="none" 
	d="
M126.420677,178.812775 
	C116.511223,179.024567 106.819069,179.026764 96.681671,179.035950 
	C96.493637,178.253464 96.750847,177.463959 97.083954,176.371323 
	C97.159851,176.068176 97.593552,176.041306 98.130386,175.932465 
	C99.111839,174.883453 99.556450,173.943298 100.001068,173.003159 
	C100.001076,173.003159 100.000000,173.000000 100.469910,173.001907 
	C109.727448,172.983719 118.515068,172.963638 127.302696,172.943558 
	C127.343338,174.029282 127.383972,175.114990 127.470505,176.605225 
	C127.223587,177.540878 126.930779,178.072037 126.420677,178.812775 
z"/>
<path fill="#FCEB85" opacity="1.000000" stroke="none" 
	d="
M125.137558,183.835922 
	C125.030373,183.338669 125.156769,182.718399 125.521019,182.039185 
	C125.830605,182.152954 125.902336,182.325653 126.074356,182.760971 
	C125.906799,183.253357 125.638969,183.483124 125.137558,183.835922 
z"/>
<path fill="#000000" opacity="1.000000" stroke="none" 
	d="
M148.480301,176.766632 
	C148.202423,176.025513 148.280334,175.104675 148.688629,174.054993 
	C148.958038,174.813080 148.897079,175.699997 148.480301,176.766632 
z"/>
<path fill="#FAC914" opacity="1.000000" stroke="none" 
	d="
M130.668396,134.015259 
	C131.026337,135.069733 131.076950,136.129074 131.191528,137.581482 
	C131.159836,138.739746 131.064178,139.504929 130.526306,140.640747 
	C128.781876,141.023575 127.479668,141.035812 126.177460,141.048050 
	C126.802681,139.292984 127.427895,137.537903 128.136429,135.443085 
	C128.933517,134.742249 129.647293,134.381180 130.668396,134.015259 
z"/>
<path fill="#FAE444" opacity="1.000000" stroke="none" 
	d="
M121.243790,147.545685 
	C121.714409,147.169586 122.063766,147.111603 123.080826,147.043442 
	C125.880005,147.371109 128.011490,147.708954 130.142960,148.046814 
	C130.098785,149.750000 130.054596,151.453186 129.533661,153.578766 
	C125.356934,153.663635 121.656975,153.326096 117.957031,152.988556 
	C119.012199,151.280304 120.067368,149.572037 121.243790,147.545685 
z"/>
<path fill="#FBE254" opacity="1.000000" stroke="none" 
	d="
M117.718369,152.989655 
	C121.656975,153.326096 125.356934,153.663635 129.498657,154.003540 
	C129.985291,155.068115 130.030182,156.130341 130.117523,157.589111 
	C130.107071,158.157349 130.054184,158.329010 129.532043,158.672577 
	C123.965408,158.522812 118.867989,158.201126 113.770576,157.879456 
	C114.747818,156.446426 115.725052,155.013412 116.852371,153.289581 
	C117.002441,152.998779 117.479706,152.990738 117.718369,152.989655 
z"/>
<path fill="#FAE32D" opacity="1.000000" stroke="none" 
	d="
M130.380951,148.037827 
	C128.011490,147.708954 125.880005,147.371109 123.346420,147.009460 
	C123.579971,145.547195 124.215622,144.108765 124.996841,142.363205 
	C125.424461,141.891068 125.663826,141.678070 126.018982,141.232574 
	C127.479668,141.035812 128.781876,141.023575 130.473541,141.022552 
	C130.925858,141.771301 130.988739,142.508850 131.110870,143.612091 
	C131.130630,145.054367 131.091171,146.130951 131.073425,147.612152 
	C131.095139,148.016754 130.618958,148.028839 130.380951,148.037827 
z"/>
<path fill="#FBE763" opacity="1.000000" stroke="none" 
	d="
M113.578979,157.928177 
	C118.867989,158.201126 123.965408,158.522812 129.457184,158.931412 
	C129.908630,160.734100 129.965714,162.449875 130.057587,164.594543 
	C129.926071,165.034607 129.759735,165.045792 129.004990,164.812698 
	C123.859909,164.378448 119.285744,164.362564 114.755699,163.907440 
	C113.091660,163.740265 111.531990,162.534317 109.924713,161.802200 
	C110.209671,161.347198 110.494621,160.892181 111.228943,160.154358 
	C112.124893,159.287048 112.571480,158.702530 113.018066,158.118027 
	C113.018066,158.118027 113.387390,157.976898 113.578979,157.928177 
z"/>
<path fill="#F9CB0E" opacity="1.000000" stroke="none" 
	d="
M49.020679,198.130219 
	C48.803600,197.856628 48.586517,197.583023 48.155464,197.155518 
	C47.664665,195.900253 47.387836,194.798889 47.053280,193.361237 
	C46.387985,191.892410 45.780418,190.759888 45.112747,189.307343 
	C48.983990,188.521637 53.548252,190.958862 57.073463,186.225433 
	C57.544651,185.981674 57.951962,186.022766 57.992447,186.410187 
	C59.209541,189.870377 60.386154,192.943161 61.562763,196.015945 
	C57.802090,196.395798 54.041416,196.775635 49.899101,197.564331 
	C49.351860,198.025543 49.186268,198.077881 49.020679,198.130219 
z"/>
<path fill="#FBEB72" opacity="1.000000" stroke="none" 
	d="
M109.687912,161.806290 
	C111.531990,162.534317 113.091660,163.740265 114.755699,163.907440 
	C119.285744,164.362564 123.859909,164.378448 128.755432,164.828430 
	C129.082382,166.564896 129.070496,168.041336 129.049255,169.978485 
	C128.642960,170.688080 128.246017,170.936951 127.368973,170.958405 
	C125.077713,170.154358 123.281342,169.142609 121.452705,169.080460 
	C115.312004,168.871750 109.159805,169.001572 103.011993,169.001816 
	C103.605743,168.189789 104.199486,167.377777 104.925552,166.292175 
	C106.253822,164.789093 107.449760,163.559601 108.813339,162.041306 
	C108.980972,161.752502 109.451103,161.810379 109.687912,161.806290 
z"/>
<path fill="#FBE254" opacity="1.000000" stroke="none" 
	d="
M112.716835,158.159607 
	C112.571480,158.702530 112.124893,159.287048 111.395935,159.942932 
	C111.547585,159.409927 111.981598,158.805557 112.716835,158.159607 
z"/>
<path fill="#FCEB7C" opacity="1.000000" stroke="none" 
	d="
M102.760536,169.101410 
	C109.159805,169.001572 115.312004,168.871750 121.452705,169.080460 
	C123.281342,169.142609 125.077713,170.154358 127.165436,171.091507 
	C127.435226,171.785217 127.412819,172.117371 127.338753,172.696014 
	C118.515068,172.963638 109.727448,172.983719 100.471481,173.002457 
	C100.341934,172.224213 100.680717,171.447327 101.073257,170.355087 
	C101.587692,169.760147 102.048378,169.480560 102.760536,169.101410 
z"/>
<path fill="#FDF5C4" opacity="1.000000" stroke="none" 
	d="
M61.775139,196.308014 
	C60.386154,192.943161 59.209541,189.870377 58.229610,186.214584 
	C58.951550,184.751007 59.476810,183.870453 60.215771,183.182739 
	C60.632591,183.904785 60.835712,184.433960 61.084465,185.311615 
	C62.776684,188.247223 63.449348,191.978394 68.056412,191.363770 
	C68.287697,191.367828 68.749748,191.344482 68.749748,191.344482 
	C69.534363,195.320236 70.318970,199.295990 71.329010,203.625122 
	C71.719467,204.483902 71.884483,204.989288 72.107758,206.045929 
	C72.511703,207.034363 72.857376,207.471542 73.203049,207.908707 
	C73.312508,208.501266 73.421951,209.093842 73.800552,209.834839 
	C74.062637,210.424957 74.055588,210.866669 74.020096,211.638458 
	C71.269989,209.084839 68.548317,206.201141 65.568626,203.120117 
	C64.202911,200.815247 63.095215,198.707657 61.775139,196.308014 
z"/>
<path fill="#FEF8D7" opacity="1.000000" stroke="none" 
	d="
M109.010056,221.374634 
	C106.144630,222.318954 103.449799,223.086685 100.380310,223.943024 
	C98.361183,223.615616 96.716690,223.199615 94.773972,222.572266 
	C93.794739,220.463425 93.113747,218.565918 92.661484,216.214630 
	C94.685585,212.770401 97.317383,211.703888 100.767021,211.969589 
	C107.308983,212.473495 113.865417,212.789459 120.415833,213.183472 
	C119.713028,213.968903 119.010223,214.754349 117.825844,215.850266 
	C115.090836,217.726837 112.837402,219.292938 110.583969,220.859039 
	C110.116196,220.972031 109.648415,221.085022 109.010056,221.374634 
z"/>
<path fill="#FDF8D0" opacity="1.000000" stroke="none" 
	d="
M120.629471,213.213135 
	C113.865417,212.789459 107.308983,212.473495 100.767021,211.969589 
	C97.317383,211.703888 94.685585,212.770401 92.573448,215.882568 
	C92.055550,214.481857 91.854416,212.959396 91.344086,211.216629 
	C90.982643,210.245483 90.930397,209.494644 90.947319,208.372849 
	C99.755447,208.001526 108.497299,207.882584 117.231056,208.095566 
	C119.095558,208.141052 120.930664,209.392029 122.865417,210.444855 
	C122.371094,211.377594 121.790657,211.953094 121.239151,212.848709 
	C121.268074,213.168823 120.843102,213.242783 120.629471,213.213135 
z"/>
<path fill="#FBE434" opacity="1.000000" stroke="none" 
	d="
M110.967407,220.857849 
	C112.837402,219.292938 115.090836,217.726837 117.699074,216.140930 
	C118.053871,216.121124 118.098961,216.508682 118.120270,216.701736 
	C115.877998,218.215408 113.614418,219.536026 110.967407,220.857849 
z"/>
<path fill="#FDF4BB" opacity="1.000000" stroke="none" 
	d="
M60.002075,182.989899 
	C59.476810,183.870453 58.951550,184.751007 58.189125,185.827179 
	C57.951962,186.022766 57.544651,185.981674 57.340782,185.964096 
	C57.012749,185.512039 56.888588,185.077576 56.647980,184.324692 
	C56.019222,181.589783 55.506912,179.173264 54.929718,176.375641 
	C54.914257,174.948624 54.963680,173.902725 55.349731,172.622284 
	C57.084091,173.634811 58.481827,174.881897 59.898399,176.514969 
	C59.935204,177.942322 59.953167,178.983704 59.972748,180.395813 
	C59.983601,181.507660 59.992840,182.248779 60.002075,182.989899 
z"/>
<path fill="#FCEA8F" opacity="1.000000" stroke="none" 
	d="
M59.879562,176.128983 
	C58.481827,174.881897 57.084091,173.634811 55.409248,172.233658 
	C55.070107,171.642715 55.008076,171.205856 54.974319,170.382278 
	C55.002590,169.995575 55.108471,169.883102 55.493683,169.922516 
	C56.917522,169.974686 57.956154,169.987411 59.032898,170.227814 
	C59.071011,170.455475 59.149902,170.910355 59.167324,171.258575 
	C59.463284,172.734177 59.741821,173.861557 59.991768,175.274841 
	C59.935303,175.750153 59.907433,175.939575 59.879562,176.128983 
z"/>
<path fill="#FCEA8F" opacity="1.000000" stroke="none" 
	d="
M53.015022,169.242340 
	C52.894016,168.840668 52.972134,168.667984 53.442005,168.318527 
	C54.258663,168.722198 54.683567,169.302643 55.108471,169.883102 
	C55.108471,169.883102 55.002590,169.995575 54.949402,170.051880 
	C54.335522,169.895889 53.774834,169.683609 53.015022,169.242340 
z"/>
<path fill="#FBE10D" opacity="1.000000" stroke="none" 
	d="
M82.306992,136.172272 
	C82.164352,136.861526 82.021721,137.550781 81.798309,138.582855 
	C81.452614,139.038010 81.243980,139.216248 80.721466,139.766418 
	C80.025063,140.732025 79.698814,141.391617 79.372559,142.051208 
	C78.888580,143.126587 78.404602,144.201965 77.835068,145.622757 
	C76.703285,147.167740 75.657051,148.367310 73.919952,149.783447 
	C69.492233,149.995850 65.755379,149.991699 61.916218,149.798584 
	C61.665787,149.361252 61.475937,149.150482 61.250717,148.654358 
	C61.622765,146.909012 61.988453,145.486603 62.519859,143.693085 
	C63.853184,140.216629 65.020790,137.111267 66.635559,134.004074 
	C72.147964,134.792328 77.716820,132.049255 82.306992,136.172272 
z"/>
<path fill="#FBE31C" opacity="1.000000" stroke="none" 
	d="
M62.018517,149.987549 
	C65.755379,149.991699 69.492233,149.995850 73.709702,150.001099 
	C74.115005,151.063843 74.039711,152.125519 73.931679,153.585144 
	C73.625351,154.466599 73.351768,154.950104 73.046379,155.716949 
	C73.014580,156.000275 72.539787,156.011856 71.839600,156.009094 
	C67.341858,155.666382 63.544308,155.326416 59.835621,154.663666 
	C60.028324,153.908173 60.132164,153.475449 60.532768,152.929932 
	C61.225861,151.873932 61.622189,150.930740 62.018517,149.987549 
z"/>
<path fill="#000000" opacity="1.000000" stroke="none" 
	d="
M49.010483,198.438293 
	C49.186268,198.077881 49.351860,198.025543 49.766209,197.895447 
	C50.675964,198.994339 51.336964,200.170944 52.023186,201.704910 
	C51.298088,201.485077 50.547775,200.907898 49.460793,200.150360 
	C49.082840,199.562119 49.041561,199.154236 49.010483,198.438293 
z"/>
<path fill="#FAE32D" opacity="1.000000" stroke="none" 
	d="
M90.257858,195.108002 
	C90.665512,195.392380 90.771538,195.851425 90.896408,197.071152 
	C90.947960,199.221573 90.980675,200.611328 91.013390,202.001083 
	C90.915520,203.415085 90.817657,204.829071 90.630089,206.658844 
	C90.030991,205.310226 89.521591,203.545837 89.007240,201.391632 
	C89.320274,199.095459 89.638245,197.189072 90.257858,195.108002 
z"/>
<path fill="#FBE434" opacity="1.000000" stroke="none" 
	d="
M59.746758,154.986435 
	C63.544308,155.326416 67.341858,155.666382 71.602150,156.011688 
	C71.569717,157.848587 71.074539,159.680130 69.939438,161.743500 
	C65.868347,161.650055 62.437168,161.324814 58.970669,160.603729 
	C58.882137,159.150253 58.828930,158.092575 58.857975,156.755615 
	C59.209076,155.979706 59.477917,155.483063 59.746758,154.986435 
z"/>
<path fill="#FAE444" opacity="1.000000" stroke="none" 
	d="
M59.005993,160.999557 
	C62.437168,161.324814 65.868347,161.650055 69.697037,162.000122 
	C70.051735,163.728394 70.008904,165.431824 69.962135,167.561127 
	C69.958199,167.987000 69.470428,167.977295 68.904053,167.736023 
	C65.291428,167.307983 62.245171,167.121216 59.149864,166.512634 
	C59.069206,164.393723 59.037598,162.696640 59.005993,160.999557 
z"/>
<path fill="#EE8926" opacity="1.000000" stroke="none" 
	d="
M79.639114,141.940125 
	C79.698814,141.391617 80.025063,140.732025 80.633987,139.956757 
	C80.579651,140.503738 80.242653,141.166382 79.639114,141.940125 
z"/>
<path fill="#FCEB85" opacity="1.000000" stroke="none" 
	d="
M95.560600,180.758484 
	C95.557442,182.155624 95.290344,183.687439 95.004501,185.602844 
	C94.362206,186.301285 93.738670,186.616089 92.876305,187.018188 
	C93.035454,185.634064 93.433426,184.162674 93.874718,182.349182 
	C94.377586,181.635757 94.837128,181.264450 95.560600,180.758484 
z"/>
<path fill="#FCEB7C" opacity="1.000000" stroke="none" 
	d="
M66.188400,134.005905 
	C65.020790,137.111267 63.853184,140.216629 62.193409,143.678558 
	C59.165474,144.357117 56.629704,144.679123 54.093933,145.001129 
	C54.032612,144.247925 53.971294,143.494720 53.863823,142.365234 
	C53.880203,141.824341 53.942734,141.659698 54.427711,141.134888 
	C55.516388,138.738419 56.182621,136.702118 56.848854,134.665833 
	C56.848854,134.665833 56.868958,134.307312 57.303848,134.063217 
	C60.462711,133.551605 63.186684,133.284088 65.976715,133.264862 
	C66.091324,133.677399 66.139862,133.841644 66.188400,134.005905 
z"/>
<path fill="#FBE46A" opacity="1.000000" stroke="none" 
	d="
M65.910652,133.016586 
	C63.186684,133.284088 60.462711,133.551605 57.399040,133.910980 
	C57.048088,133.556686 57.036835,133.110519 57.001808,132.329742 
	C57.179863,131.719528 57.293327,131.411377 57.557625,130.645630 
	C58.072147,129.460007 58.347477,128.699417 58.622807,127.938835 
	C59.513073,126.403152 60.403336,124.867470 61.572212,123.146454 
	C64.358932,123.518471 66.867050,124.075829 69.633835,125.157272 
	C68.565231,128.126434 67.237938,130.571518 65.910652,133.016586 
z"/>
<path fill="#FBE46A" opacity="1.000000" stroke="none" 
	d="
M56.561131,134.804993 
	C56.182621,136.702118 55.516388,138.738419 54.517776,140.886536 
	C54.407795,139.894043 54.630192,138.789749 54.907818,137.342987 
	C55.399830,136.315079 55.836617,135.629608 56.561131,134.804993 
z"/>
<path fill="#FCEA8F" opacity="1.000000" stroke="none" 
	d="
M54.035034,145.250610 
	C56.629704,144.679123 59.165474,144.357117 62.027695,144.049652 
	C61.988453,145.486603 61.622765,146.909012 61.100784,148.977264 
	C60.708336,150.763000 60.472172,151.902863 60.236004,153.042740 
	C60.132164,153.475449 60.028324,153.908173 59.835617,154.663666 
	C59.477917,155.483063 59.209076,155.979706 58.510689,156.674728 
	C55.568687,155.825577 54.052151,156.141525 53.971802,159.373535 
	C53.916817,161.585388 53.348324,163.784485 53.009399,165.989273 
	C52.668060,165.214676 52.326721,164.440063 51.917866,163.335205 
	C51.871956,161.285263 51.893559,159.565582 51.844170,157.421448 
	C52.104576,155.569809 52.435982,154.142639 52.691170,152.353088 
	C53.036358,150.246964 53.457760,148.503220 53.853760,146.375244 
	C53.877613,145.827377 53.926876,145.663742 54.035034,145.250610 
z"/>
<path fill="#FCF1A4" opacity="1.000000" stroke="none" 
	d="
M53.033558,166.324860 
	C53.348324,163.784485 53.916817,161.585388 53.971802,159.373535 
	C54.052151,156.141525 55.568687,155.825577 58.428429,156.954010 
	C58.828930,158.092575 58.882137,159.150253 58.970669,160.603729 
	C59.037598,162.696640 59.069206,164.393723 59.084618,166.893417 
	C59.043880,168.464066 59.019333,169.232101 58.994781,170.000137 
	C57.956154,169.987411 56.917522,169.974686 55.493683,169.922516 
	C54.683567,169.302643 54.258663,168.722198 53.565407,168.062408 
	C53.217278,167.542206 53.137497,167.101334 53.033558,166.324860 
z"/>
<path fill="#FBD50F" opacity="1.000000" stroke="none" 
	d="
M65.976715,133.264862 
	C67.237938,130.571518 68.565231,128.126434 69.960144,125.341446 
	C70.483734,124.709656 70.939697,124.417778 71.964584,124.257751 
	C74.313461,124.592857 76.090256,124.831299 77.874031,124.992256 
	C81.940742,125.359184 86.010872,125.688141 90.079613,126.032532 
	C90.029358,126.460701 89.979111,126.888870 89.899139,127.639091 
	C88.929520,129.043854 87.989616,130.126556 86.975037,131.521835 
	C85.558952,133.199402 84.217545,134.564407 82.591568,136.050842 
	C77.716820,132.049255 72.147964,134.792328 66.635559,134.004074 
	C66.139862,133.841644 66.091324,133.677399 65.976715,133.264862 
z"/>
<path fill="#FCEB7C" opacity="1.000000" stroke="none" 
	d="
M99.712471,173.141541 
	C99.556450,173.943298 99.111839,174.883453 98.347015,175.915726 
	C98.492485,175.098541 98.958183,174.189240 99.712471,173.141541 
z"/>
<path fill="#EA6129" opacity="1.000000" stroke="none" 
	d="
M58.353069,127.946388 
	C58.347477,128.699417 58.072147,129.460007 57.517456,130.400055 
	C57.173153,130.007553 57.108212,129.435608 57.024086,128.434357 
	C57.364384,127.988007 57.723858,127.970970 58.353069,127.946388 
z"/>
<path fill="#F9CD49" opacity="1.000000" stroke="none" 
	d="
M68.884598,191.022278 
	C68.749748,191.344482 68.287697,191.367828 68.004601,190.971771 
	C67.422264,189.068253 67.123024,187.560791 66.871201,185.627594 
	C66.888596,183.490280 66.858566,181.778717 66.875824,179.646851 
	C66.915321,177.824051 66.907539,176.421555 67.077316,174.803375 
	C67.741539,174.334625 68.228195,174.081573 68.714851,173.828537 
	C68.807175,174.939789 68.899506,176.051041 69.002365,177.581146 
	C69.012161,180.043747 69.011414,182.087479 69.032913,184.569107 
	C69.071449,186.405411 69.087730,187.803848 69.169243,189.618866 
	C69.162804,190.257019 69.091125,190.478546 68.884598,191.022278 
z"/>
<path fill="#FAC914" opacity="1.000000" stroke="none" 
	d="
M90.347137,125.850143 
	C86.010872,125.688141 81.940742,125.359184 77.874031,124.992256 
	C76.090256,124.831299 74.313461,124.592857 72.196060,124.115570 
	C72.794266,121.750954 73.729927,119.660370 74.868607,117.288925 
	C81.451920,117.628220 87.832207,118.248367 94.626968,118.943275 
	C94.920692,119.615433 94.799942,120.212837 94.615173,121.102432 
	C93.238991,122.819000 91.926819,124.243385 90.347137,125.850143 
z"/>
<path fill="#FBE31C" opacity="1.000000" stroke="none" 
	d="
M73.346260,207.722839 
	C72.857376,207.471542 72.511703,207.034363 72.205292,206.295746 
	C72.659531,206.508545 73.074501,207.022766 73.346260,207.722839 
z"/>
<path fill="#FBEB72" opacity="1.000000" stroke="none" 
	d="
M68.760437,173.524750 
	C68.228195,174.081573 67.741539,174.334625 66.651260,174.797974 
	C64.038551,175.001801 62.029453,174.995361 60.020359,174.988922 
	C59.741821,173.861557 59.463284,172.734177 59.599304,171.284424 
	C62.888294,171.001343 65.762726,171.040649 68.637154,171.079941 
	C68.637154,171.079941 68.786491,171.543869 68.872040,171.771912 
	C68.907066,172.406967 68.856544,172.813980 68.760437,173.524750 
z"/>
<path fill="#FBE75B" opacity="1.000000" stroke="none" 
	d="
M68.742996,170.699860 
	C65.762726,171.040649 62.888294,171.001343 59.581882,170.936188 
	C59.149902,170.910355 59.071011,170.455475 59.032898,170.227814 
	C59.019333,169.232101 59.043880,168.464066 59.133667,167.315247 
	C62.245171,167.121216 65.291428,167.307983 68.660187,167.730469 
	C68.938080,168.750717 68.893463,169.535248 68.742996,170.699860 
z"/>
<path fill="#F7B41D" opacity="1.000000" stroke="none" 
	d="
M99.889061,110.478516 
	C99.826805,110.835663 99.381157,110.942612 99.154541,110.982018 
	C92.860901,110.721100 86.793869,110.420769 80.303406,110.037819 
	C80.554031,108.529015 81.228096,107.102829 81.961403,105.340195 
	C82.501091,104.744987 82.981544,104.486244 83.705734,104.106125 
	C87.866341,104.323959 91.783051,104.925812 95.700104,104.928116 
	C99.577751,104.930389 101.488884,105.961235 99.889061,110.478516 
z"/>
<path fill="#FDF4BB" opacity="1.000000" stroke="none" 
	d="
M91.480865,202.000778 
	C90.980675,200.611328 90.947960,199.221573 90.970856,197.417618 
	C98.091187,197.337402 105.153358,197.754639 112.221680,197.972137 
	C116.073151,198.090637 116.578506,199.573853 114.249710,202.757996 
	C106.642998,202.667969 99.295662,202.334229 91.480865,202.000778 
z"/>
<path fill="#FDF3AF" opacity="1.000000" stroke="none" 
	d="
M113.998795,204.998352 
	C113.997581,204.996689 113.813126,205.302338 113.813126,205.302338 
	C113.813126,205.302338 113.831230,205.083405 113.917297,205.042908 
	C114.003357,205.002396 114.000000,205.000000 113.998795,204.998352 
z"/>
<path fill="#FDF5C4" opacity="1.000000" stroke="none" 
	d="
M129.003998,202.005066 
	C129.007751,202.009827 129.188690,201.637512 129.188690,201.637512 
	C129.188690,201.637512 129.196091,201.913025 129.093872,201.953445 
	C128.991669,201.993866 129.000244,202.000320 129.003998,202.005066 
z"/>
<path fill="#FCEF96" opacity="1.000000" stroke="none" 
	d="
M66.828545,180.067169 
	C66.858566,181.778717 66.888596,183.490280 66.503487,185.610779 
	C64.405174,185.667526 62.722004,185.315338 61.038834,184.963150 
	C60.835712,184.433960 60.632591,183.904785 60.215775,183.182739 
	C59.992840,182.248779 59.983601,181.507660 60.311386,180.382141 
	C61.099506,179.998901 61.550606,180.000061 62.096207,180.321045 
	C63.462036,180.433868 64.733360,180.226868 66.210815,180.028625 
	C66.416962,180.037399 66.828545,180.067169 66.828545,180.067169 
z"/>
<path fill="#FDF3AF" opacity="1.000000" stroke="none" 
	d="
M61.084465,185.311615 
	C62.722004,185.315338 64.405174,185.667526 66.456070,186.036530 
	C67.123024,187.560791 67.422264,189.068253 67.773315,190.967712 
	C63.449348,191.978394 62.776684,188.247223 61.084465,185.311615 
z"/>
<path fill="#FCEB7C" opacity="1.000000" stroke="none" 
	d="
M66.875824,179.646851 
	C66.828545,180.067169 66.416962,180.037399 65.810478,180.020630 
	C64.136566,180.002975 63.069134,180.002090 62.001701,180.001221 
	C61.550606,180.000061 61.099506,179.998901 60.309769,180.011414 
	C59.953167,178.983704 59.935204,177.942322 59.898399,176.514969 
	C59.907433,175.939575 59.935303,175.750153 59.991768,175.274841 
	C62.029453,174.995361 64.038551,175.001801 66.473701,175.013657 
	C66.907539,176.421555 66.915321,177.824051 66.875824,179.646851 
z"/>
<path fill="#FBE434" opacity="1.000000" stroke="none" 
	d="
M60.532768,152.929932 
	C60.472172,151.902863 60.708336,150.763000 61.094433,149.300201 
	C61.475937,149.150482 61.665787,149.361252 61.916214,149.798584 
	C61.622189,150.930740 61.225861,151.873932 60.532768,152.929932 
z"/>
<path fill="#FCEA8F" opacity="1.000000" stroke="none" 
	d="
M62.096207,180.321045 
	C63.069134,180.002090 64.136566,180.002975 65.604340,180.011871 
	C64.733360,180.226868 63.462036,180.433868 62.096207,180.321045 
z"/>
</svg>