<svg id="Layer_1" data-name="Layer 1" xmlns="http://www.w3.org/2000/svg" viewBox="0 0 172 49"><defs><style>.cls-1,.cls-6{fill:#fff;}.cls-2,.cls-5{fill:#4d4d4d;}.cls-3{fill:none;}.cls-3,.cls-5,.cls-6{stroke:#fff;}.cls-3,.cls-4,.cls-5,.cls-6{stroke-miterlimit:10;}.cls-3,.cls-4,.cls-5{stroke-width:0.2px;}.cls-4{fill:#f2f2f2;stroke:#4d4d4d;}</style></defs><rect x="-2" y="-2" width="174" height="51"/><path class="cls-1" d="M4.21,44.46a1.33,1.33,0,0,1-1-.38,1.42,1.42,0,0,1-.35-1V4.58a1.52,1.52,0,0,1,.35-1,1.33,1.33,0,0,1,1-.38H17.6A22.26,22.26,0,0,1,27.39,5a11.39,11.39,0,0,1,5.43,5.4,20.75,20.75,0,0,1,1.77,8.76c0,1.77.06,3.32.06,4.66s0,2.87-.06,4.6a22.32,22.32,0,0,1-1.8,9,10.88,10.88,0,0,1-5.31,5.31,22.32,22.32,0,0,1-9.58,1.74Zm4.42-5h9a15.77,15.77,0,0,0,6.49-1.12,6.93,6.93,0,0,0,3.51-3.6,17.1,17.1,0,0,0,1.15-6.55c.08-1.18.12-2.22.12-3.1V22.42q0-1.32-.12-3-.12-5.73-2.71-8.47T17.31,8.18H8.63Z"/><path class="cls-1" d="M43.27,44.46a1.33,1.33,0,0,1-1-.38,1.42,1.42,0,0,1-.35-1V4.52a1.43,1.43,0,0,1,.35-1,1.33,1.33,0,0,1,1-.38h3.12a1.35,1.35,0,0,1,1,.38,1.37,1.37,0,0,1,.38,1V43.1a1.3,1.3,0,0,1-1.36,1.36Z"/><path class="cls-1" d="M121.14,45.05a21,21,0,0,1-8.61-1.56,13.18,13.18,0,0,1-5.34-4.07,9.5,9.5,0,0,1-2-5.34,1.18,1.18,0,0,1,.39-.86,1.25,1.25,0,0,1,.91-.38h3a1.46,1.46,0,0,1,1.06.35,1.65,1.65,0,0,1,.47.83,6.51,6.51,0,0,0,1.45,2.8,8.54,8.54,0,0,0,3.25,2.3,13.53,13.53,0,0,0,5.39.92c3.39,0,5.87-.6,7.47-1.8A5.74,5.74,0,0,0,131,33.43a4.55,4.55,0,0,0-1.27-3.34,11.31,11.31,0,0,0-3.87-2.27q-2.6-1-6.72-2.18A39.65,39.65,0,0,1,112,22.93a10.73,10.73,0,0,1-4.22-3.66,10.24,10.24,0,0,1-1.39-5.55A9.8,9.8,0,0,1,108.11,8a11.65,11.65,0,0,1,4.92-4,18.56,18.56,0,0,1,7.82-1.48,19.36,19.36,0,0,1,6.4,1,13.74,13.74,0,0,1,4.57,2.6,11.88,11.88,0,0,1,2.78,3.48,8.79,8.79,0,0,1,1,3.63,1.29,1.29,0,0,1-.3.8,1.12,1.12,0,0,1-.94.38h-3.13a1.77,1.77,0,0,1-.85-.24,1.5,1.5,0,0,1-.68-.88A6,6,0,0,0,127,9.24a10.45,10.45,0,0,0-6.13-1.65,11.77,11.77,0,0,0-6.23,1.47,5,5,0,0,0-2.39,4.6A5,5,0,0,0,113.36,17a9.1,9.1,0,0,0,3.54,2.33,61,61,0,0,0,6.31,2.12,47.79,47.79,0,0,1,7.73,2.74,10.94,10.94,0,0,1,4.45,3.6,9.68,9.68,0,0,1,1.45,5.52,10.33,10.33,0,0,1-2,6.34,12.22,12.22,0,0,1-5.46,4A22.6,22.6,0,0,1,121.14,45.05Z"/><path class="cls-1" d="M144.33,44.46a1.3,1.3,0,0,1-1-.38,1.38,1.38,0,0,1-.36-1V4.58a1.48,1.48,0,0,1,.36-1,1.3,1.3,0,0,1,1-.38H168.7a1.32,1.32,0,0,1,1,.38,1.47,1.47,0,0,1,.35,1V6.82a1.33,1.33,0,0,1-.35,1,1.35,1.35,0,0,1-1,.36H148.64V21.1H167.4a1.3,1.3,0,0,1,1,.38,1.45,1.45,0,0,1,.36,1V24.7a1.37,1.37,0,0,1-.36,1,1.27,1.27,0,0,1-1,.38H148.64v13.4h20.53a1.33,1.33,0,0,1,1,.35,1.35,1.35,0,0,1,.36,1v2.3a1.38,1.38,0,0,1-.36,1,1.3,1.3,0,0,1-1,.38Z"/><path class="cls-2" d="M94.19,16.67c-1.2-5.24-3.06-7.9-5.51-7.9l-.41,0a27.49,27.49,0,0,0-3.65,3.67c-2.5,3-2.3,5.26-2.06,7.92.19,2.13.39,4.32-.86,6.78-.88,1.76-.57,2.26.35,3.77,1.13,1.85,2.84,4.65,2.6,11.14a3.67,3.67,0,0,0,.15,1.52,3.68,3.68,0,0,0,1.26-.8C91,35.33,95.82,23.81,94.19,16.67Z"/><path class="cls-2" d="M68.78,42.07c-.24-6.49,1.47-9.29,2.6-11.14.92-1.51,1.23-2,.34-3.77-1.24-2.46-1-4.65-.86-6.78.24-2.66.45-5-2-7.92a26.93,26.93,0,0,0-3.66-3.67l-.4,0c-2.46,0-4.31,2.66-5.51,7.9-1.64,7.14,3.19,18.66,8.12,26.12a3.68,3.68,0,0,0,1.27.8A3.87,3.87,0,0,0,68.78,42.07Z"/><path class="cls-1" d="M100.07,13.33a16.24,16.24,0,0,0-2.88-6.77,5.6,5.6,0,0,0-4.44-2.24c-2.91,0-6.26,2.22-10,6.6a12.11,12.11,0,0,0-2,3.17c-1.89-.89-2.9-2.47-2.9-5.71V2.64a1.2,1.2,0,0,0-2.39,0V8.38c0,3.24-1,4.82-2.9,5.71a11.91,11.91,0,0,0-2-3.17c-3.69-4.38-7-6.6-10-6.6a5.6,5.6,0,0,0-4.44,2.24,16.37,16.37,0,0,0-2.88,6.77c-2,8.55,4.7,22,9.82,28.46A20,20,0,0,0,66,44.72,4.58,4.58,0,0,0,68.73,46a2.13,2.13,0,0,0,1.57-.66A4.51,4.51,0,0,0,71.17,42c-.22-5.77,1.2-8.1,2.24-9.8s1.93-3.15.44-6.1c-.93-1.84-.78-3.53-.61-5.48a17.14,17.14,0,0,0,0-4.18,10.26,10.26,0,0,0,1.19-.61,6.78,6.78,0,0,0,2.26-2.29A6.81,6.81,0,0,0,79,15.81a9.38,9.38,0,0,0,1.18.61,17.14,17.14,0,0,0,0,4.18c.18,1.95.33,3.64-.61,5.48-1.49,3-.55,4.48.44,6.1s2.46,4,2.25,9.8a4.47,4.47,0,0,0,.86,3.36,2.15,2.15,0,0,0,1.57.66,4.6,4.6,0,0,0,2.79-1.28,20,20,0,0,0,2.77-2.93C95.37,35.37,102,21.88,100.07,13.33ZM71.38,30.93c-1.13,1.85-2.84,4.65-2.6,11.14a3.87,3.87,0,0,1-.15,1.52C68.2,43.48,67,42.77,65,40.3,60,34,54,21.31,55.68,13.86c1.09-4.74,2.76-7.15,5-7.15s5,2,8.14,5.75a9.77,9.77,0,0,1,1.52,2.35c-.92.2-2,.34-3.11.49-3.4.44-6.91.89-9.13,3.64a1.2,1.2,0,0,0,.18,1.68A1.21,1.21,0,0,0,60,20.44c1.16-1.44,3-2,5.07-2.41a12.18,12.18,0,0,0-.83,4.2c-.17,2.35-.3,4.2-3.32,5.91a1.21,1.21,0,0,0-.45,1.63,1.19,1.19,0,0,0,1,.61,1.16,1.16,0,0,0,.59-.16,10.27,10.27,0,0,0,2.25-1.67,15,15,0,0,0,.78,1.33c.94,1.49,1.33,2.2.59,3.34A1.19,1.19,0,0,0,66,34.87a1.16,1.16,0,0,0,.64.19,1.18,1.18,0,0,0,1-.55c1.6-2.47.34-4.45-.58-5.91A4.73,4.73,0,0,1,66,25.8a13.24,13.24,0,0,0,.55-3.39c.13-1.77.24-3.31,1.53-4.81,1-.13,1.92-.27,2.85-.47a16.93,16.93,0,0,1-.09,3.25c-.19,2.13-.38,4.32.86,6.78C72.61,28.92,72.3,29.42,71.38,30.93Zm17,9.37c-2,2.47-3.16,3.18-3.58,3.29a3.67,3.67,0,0,1-.15-1.52c.24-6.49-1.47-9.29-2.6-11.14-.92-1.51-1.23-2-.35-3.77,1.25-2.46,1-4.65.86-6.78a16.92,16.92,0,0,1-.08-3.25c.93.2,1.89.34,2.85.47,1.29,1.5,1.4,3,1.52,4.81a13.27,13.27,0,0,0,.56,3.39,4.81,4.81,0,0,1-1.09,2.8c-.91,1.46-2.17,3.44-.57,5.91a1.17,1.17,0,0,0,1,.55,1.19,1.19,0,0,0,1-1.84c-.74-1.14-.35-1.85.59-3.34.26-.41.54-.85.79-1.33a10.19,10.19,0,0,0,2.24,1.67,1.16,1.16,0,0,0,.59.16,1.2,1.2,0,0,0,.59-2.24c-3-1.71-3.15-3.56-3.31-5.91A12.21,12.21,0,0,0,88.4,18c2.08.37,3.91,1,5.07,2.41a1.2,1.2,0,0,0,.93.44,1.16,1.16,0,0,0,.75-.26,1.19,1.19,0,0,0,.18-1.68c-2.21-2.75-5.73-3.2-9.13-3.64-1.14-.15-2.18-.29-3.11-.49a10.16,10.16,0,0,1,1.53-2.35c3.13-3.71,6-5.75,8.13-5.75s3.91,2.41,5,7.15C99.45,21.31,93.4,34,88.38,40.3Z"/><rect class="cls-2" x="84.75" y="19.75" width="18" height="12"/><path class="cls-1" d="M102.5,20V31.5H85V20h17.5m.5-.5H84.5V32H103V19.5Z"/><path class="cls-3" d="M90.49,23.25s3.28-.95,1.08-1.71C90,21,90,21,90,20"/><circle class="cls-4" cx="90" cy="23" r="1"/><path class="cls-3" d="M91.57,22.85S95,25.21,95.25,24c.75-3,3.26-.26,4.75-1"/><circle class="cls-5" cx="97.77" cy="22.62" r="1"/><path class="cls-3" d="M94.8,24.33c1.2.67.75,2.65,3,2.66s2.71-1.47,3.23-2"/><path class="cls-3" d="M95.7,25.5s-2.7.08-1.7,1.29"/><circle class="cls-6" cx="93.77" cy="26.92" r="1"/><path class="cls-3" d="M92.51,23.45s-2.56,3-2,4.76,4.26,1.32,4.26,1.32S97,28.76,97,31"/><path class="cls-3" d="M90.48,28.21s-2.21-.36-1.85,1.71"/></svg>