<svg xmlns="http://www.w3.org/2000/svg" viewBox="0 0 39.82 40.56"><defs><style>.cls-1,.cls-4{fill:#fff;fill-rule:evenodd}.cls-4{fill:#85add3}</style><mask id="mask" x="0" y="0" width="39.82" height="40.56" maskUnits="userSpaceOnUse"><g id="b"><path id="a" class="cls-1" d="M39.82 0v40.56H0V0z"/></g></mask></defs><g id="Lager_2" data-name="Lager 2"><g id="Lager_1-2" data-name="Lager 1"><g mask="url(#mask)"><path class="cls-1" d="M18.48.06a18.77 18.77 0 0118 9.11 21.69 21.69 0 013.34 10.93 20.76 20.76 0 01-3.33 11.36 20 20 0 01-7.6 7c-5.25 2.69-12.6 2.76-17.41.18-5.36-2.89-9.48-7-11-14.15a21.74 21.74 0 01.18-9.71 21.31 21.31 0 01.85-2.26 19.74 19.74 0 016.64-8.64A22.18 22.18 0 0112 1.62 21.24 21.24 0 0118.48.06"/></g><path d="M20 33.43A13 13 0 017.09 20.28 13 13 0 0120 7.12a13 13 0 0113 13.16 13 13 0 01-13 13.15M32.75 7.17a16.34 16.34 0 00-5.81-3.9 18.41 18.41 0 00-8.27-1.39A17.69 17.69 0 007.31 7.35 18 18 0 003 14.29 19 19 0 003.3 27a18.12 18.12 0 0018.27 11.67 17.81 17.81 0 0012.54-6.86 9.87 9.87 0 001.8-3c.4-.84.59-1.42.77-1.73A16.1 16.1 0 0038 21.49a18.37 18.37 0 00-5.25-14.32" fill="#2c3a48" fill-rule="evenodd"/><path class="cls-4" d="M15.49 1.53a20.38 20.38 0 00-7.77 4.08 18.47 18.47 0 00-6.06 9.8 20.1 20.1 0 001.28 13.36 18.86 18.86 0 007.6 8.23 19.06 19.06 0 0012.8 2.16 18.26 18.26 0 0010.25-5.55 19.73 19.73 0 004.52-18 21.57 21.57 0 00-2.22-5.73 19.38 19.38 0 00-2.22-2.77A18 18 0 0019 1a17.7 17.7 0 00-3.5.52m3-1.47a18.77 18.77 0 0118 9.11 21.69 21.69 0 013.32 10.94 20.76 20.76 0 01-3.33 11.36 20 20 0 01-7.6 7c-5.25 2.69-12.6 2.76-17.41.18-5.36-2.89-9.48-7-11-14.15a21.74 21.74 0 01.18-9.71 21.31 21.31 0 01.85-2.26 19.74 19.74 0 016.64-8.64A22.18 22.18 0 0112 1.62 21.24 21.24 0 0118.48.06"/><path class="cls-1" d="M11.66 7a.74.74 0 10-1.19.87.74.74 0 001 .2.75.75 0 00.19-1.07M9.82 8.41a1.54 1.54 0 01.38-2.15 1.48 1.48 0 012.12.29 1.54 1.54 0 01-.37 2.15 1.48 1.48 0 01-2.12-.29m5.87-2.95l-.55-.69-.06.89zM14.5 4l.73-.24 2.05 2.41-.82.27-.35-.44-1.06.34v.56l-.79.26zm4.09.72V3.07h.81v1.62c0 .42.2.62.52.62s.53-.19.53-.6V3.07h.81v1.62A1.2 1.2 0 0119.91 6a1.19 1.19 0 01-1.32-1.3m5.59-.28l-.82-.26.2-.68 2.44.75-.2.68-.83-.26-.63 2.11-.76-.23zm3.94.76l.66.44-.6.91.82.57.6-.9.66.44-1.56 2.43-.7-.45.6-.92-.84-.57-.61.92-.66-.45zm0 28a.74.74 0 001.06.15.75.75 0 00.09-1.07.73.73 0 00-1.06-.16.75.75 0 00-.09 1.07m1.78-1.43a1.55 1.55 0 01-.29 2.17 1.48 1.48 0 01-2.13-.22 1.55 1.55 0 01.3-2.17 1.46 1.46 0 012.12.22m-5.75 3.18l.58.67v-.89zm1.27 1.43l-.72.27-2.15-2.32.8-.3.37.41 1-.39v-.56l.79-.29zm-4.12-.55l.07 1.63h-.8l-.07-1.62c0-.42-.24-.61-.56-.6s-.52.22-.5.63l.07 1.63h-.81l-.07-1.61A1.21 1.21 0 0120 34.5a1.19 1.19 0 011.38 1.27m-5.6.53l.83.23-.18.69-2.43-.67.18-.68.83.22.52-2.09.77.21zm-3.93-.59l-.68-.41.55-.94-.87-.54-.56.94-.68-.41L11 31.84l.68.42-.56 1 .88.53.55-1 .69.42z"/><path class="cls-4" d="M14.81 23.05L19.72 19c.54-.44 1.56-1.48 1.56-2.34a1.46 1.46 0 00-1.56-1.54 2.75 2.75 0 00-2.41 2.13l-2.53-1.31a5.27 5.27 0 015.22-3.2c3.78 0 4.85 2.22 4.85 3.72A4.29 4.29 0 0122.59 20l-3.34 2.33h5.54v3h-10z"/></g></g></svg>